<svg width="900" height="900" viewBox="0 0 900 900" fill="none" xmlns="http://www.w3.org/2000/svg">
<rect width="900" height="900" fill="#EFEFEF"/>
<path fill-rule="evenodd" clip-rule="evenodd" d="M475.634 469.2C480.726 469.2 485.609 467.177 489.21 463.577C492.811 459.976 494.834 455.092 494.834 450C494.834 444.908 492.811 440.024 489.21 436.424C485.609 432.823 480.726 430.8 475.634 430.8C470.541 430.8 465.658 432.823 462.057 436.424C458.456 440.024 456.434 444.908 456.434 450C456.434 455.092 458.456 459.976 462.057 463.577C465.658 467.177 470.541 469.2 475.634 469.2V469.2ZM474.566 443.203C474.204 442.962 473.784 442.824 473.35 442.803C472.916 442.782 472.484 442.879 472.101 443.084C471.718 443.289 471.398 443.594 471.175 443.967C470.951 444.339 470.834 444.766 470.834 445.2V454.8C470.834 455.235 470.951 455.661 471.175 456.034C471.398 456.407 471.718 456.712 472.101 456.917C472.484 457.122 472.916 457.219 473.35 457.198C473.784 457.177 474.204 457.038 474.566 456.797L481.766 451.997C482.094 451.778 482.364 451.481 482.55 451.133C482.737 450.784 482.834 450.395 482.834 450C482.834 449.605 482.737 449.216 482.55 448.868C482.364 448.519 482.094 448.223 481.766 448.003L474.566 443.203V443.203Z" fill="#161616"/>
<g clip-path="url(#clip0)">
<path d="M548.63 462.559C546.821 462.559 545.438 461.175 545.438 459.366V440.634C545.438 438.825 546.821 437.442 548.63 437.442C550.439 437.442 551.823 438.825 551.823 440.634V459.366C551.823 461.175 550.44 462.559 548.63 462.559Z" fill="#4655C2"/>
<path d="M538.732 472.457C536.922 472.457 535.539 471.073 535.539 469.264V430.736C535.539 428.927 536.923 427.544 538.732 427.544C540.541 427.544 541.925 428.927 541.925 430.736V469.264C541.925 471.073 540.541 472.457 538.732 472.457Z" fill="#4655C2"/>
<path d="M528.728 481.716C526.919 481.716 525.535 480.333 525.535 478.524V421.477C525.535 419.668 526.919 418.284 528.728 418.284C530.537 418.284 531.921 419.668 531.921 421.477V478.524C531.921 480.333 530.537 481.716 528.728 481.716Z" fill="#4655C2"/>
<path d="M518.83 472.457C517.02 472.457 515.637 471.073 515.637 469.264V430.736C515.637 428.927 517.02 427.544 518.83 427.544C520.639 427.544 522.022 428.927 522.022 430.736V469.264C522.022 471.073 520.639 472.457 518.83 472.457Z" fill="#4655C2"/>
<path d="M508.826 463.198C507.016 463.198 505.633 461.814 505.633 460.005V439.996C505.633 438.187 507.016 436.803 508.826 436.803C510.635 436.803 512.018 438.187 512.018 439.996V460.005C512.019 461.814 510.635 463.198 508.826 463.198Z" fill="#4655C2"/>
<path d="M578.537 481.716C576.727 481.716 575.344 480.333 575.344 478.524V421.477C575.344 419.668 576.727 418.284 578.537 418.284C580.346 418.284 581.729 419.668 581.729 421.477V478.524C581.729 480.333 580.346 481.716 578.537 481.716Z" fill="#003399"/>
<path d="M568.533 472.457C566.723 472.457 565.34 471.073 565.34 469.264V430.736C565.34 428.927 566.723 427.544 568.533 427.544C570.342 427.544 571.725 428.927 571.725 430.736V469.264C571.726 471.073 570.342 472.457 568.533 472.457Z" fill="#003399"/>
<path d="M558.634 467.455C556.825 467.455 555.441 466.071 555.441 464.262V435.739C555.441 433.929 556.825 432.546 558.634 432.546C560.444 432.546 561.827 433.929 561.827 435.739V464.262C561.827 466.071 560.443 467.455 558.634 467.455Z" fill="#003399"/>
<path d="M588.435 472.457C586.626 472.457 585.242 471.073 585.242 469.264V430.736C585.242 428.927 586.626 427.544 588.435 427.544C590.244 427.544 591.628 428.927 591.628 430.736V469.264C591.628 471.073 590.244 472.457 588.435 472.457Z" fill="#003399"/>
<path d="M598.439 463.198C596.63 463.198 595.246 461.814 595.246 460.005V439.996C595.246 438.187 596.63 436.803 598.439 436.803C600.248 436.803 601.632 438.187 601.632 439.996V460.005C601.632 461.814 600.248 463.198 598.439 463.198Z" fill="#003399"/>
</g>
<path d="M424.817 412.919C424.717 412.919 424.618 412.82 424.519 412.721C424.42 412.522 424.42 412.324 424.618 412.225C425.114 411.828 426.802 406.568 426.802 403.69C426.802 403.094 426.702 402.797 426.702 402.697C425.908 402.995 423.229 405.278 420.847 407.461C420.748 407.56 420.549 407.56 420.45 407.56C420.351 407.461 420.252 407.362 420.252 407.163C420.549 403.293 420.649 399.125 420.45 397.934C419.656 398.628 417.274 401.705 415.29 404.583C415.19 404.781 414.893 404.781 414.793 404.682C414.595 404.583 414.595 404.285 414.694 404.186C419.755 397.041 420.45 397.14 420.748 397.14C421.145 397.239 421.74 397.338 421.145 406.369C426.504 401.506 427 401.903 427.199 402.102C427.595 402.4 427.695 403.094 427.596 404.285C427.397 407.064 425.908 412.324 425.015 412.919C425.015 412.919 424.916 412.919 424.817 412.919Z" fill="#26192A"/>
<path d="M305.229 501.84C305.03 501.84 304.832 501.84 304.633 501.74C303.343 501.443 302.648 500.153 302.748 498.267C302.847 496.679 303.542 495.488 304.732 494.694C305.328 494.297 306.023 494 306.817 493.801C305.725 492.412 303.939 490.824 300.961 489.137C300.763 489.037 300.763 488.839 300.862 488.641C300.961 488.442 301.16 488.442 301.358 488.541C304.633 490.328 306.519 492.114 307.61 493.702C312.176 492.908 318.428 494.893 318.726 494.992C318.924 495.091 319.023 495.29 318.924 495.488C318.825 495.687 318.626 495.786 318.428 495.687C318.329 495.687 312.374 493.801 308.007 494.297C309.298 496.481 308.901 498.168 308.603 499.061C308.107 500.748 306.618 501.84 305.229 501.84ZM307.313 494.595C306.519 494.793 305.824 494.992 305.229 495.488C304.236 496.183 303.641 497.175 303.542 498.465C303.442 499.954 303.939 500.946 304.832 501.145C305.923 501.343 307.412 500.549 308.007 498.962C308.305 498.267 308.603 496.679 307.313 494.595Z" fill="#26192A"/>
<path d="M344.429 407.262C344.429 407.262 326.665 394.46 313.069 411.232C304.137 422.149 289.35 459.761 309.993 464.525C330.635 469.189 351.674 423.141 344.429 407.262Z" fill="#6AB0A0"/>
<path d="M313.07 487.35C313.07 487.35 307.81 386.521 365.569 372.925C382.837 368.856 399.807 398.529 394.448 400.514C389.188 402.499 380.951 405.278 380.951 405.278C380.951 405.278 402.288 475.739 398.219 500.053C394.25 524.268 310.887 537.964 313.07 487.35Z" fill="#F4DAC6"/>
<path d="M359.915 376.894C359.915 376.894 354.159 353.473 331.135 360.718C331.135 360.718 324.585 386.322 355.35 379.971L359.915 376.894Z" fill="#F4DAC6"/>
<path d="M353.463 375.505C353.364 375.505 353.264 375.406 353.165 375.307C345.325 364.489 338.477 366.176 338.378 366.176C338.18 366.276 337.981 366.077 337.882 365.879C337.783 365.68 337.981 365.482 338.18 365.382C338.477 365.283 345.623 363.596 353.761 374.711C353.86 374.91 353.86 375.108 353.661 375.207C353.562 375.505 353.562 375.505 353.463 375.505Z" fill="#26192A"/>
<path d="M365.866 350C365.866 350 357.43 361.81 365.27 370.543L371.324 369.451C371.225 369.451 380.553 357.642 365.866 350Z" fill="#F4DAC6"/>
<path d="M392.958 496.878C392.958 496.878 409.929 535.483 408.738 537.964C407.547 540.544 399.806 544.117 396.729 543.918C393.653 543.819 377.477 510.077 377.477 510.077C377.477 510.077 388.691 495.885 392.958 496.878Z" fill="#F4DAC6"/>
<path d="M347.111 502.435C347.111 502.435 332.721 542.033 330.042 543.124C327.461 544.117 318.728 541.338 316.545 539.155C314.361 536.971 326.667 501.343 326.667 501.343C326.667 501.343 344.63 498.763 347.111 502.435Z" fill="#F4DAC6"/>
<path d="M350.284 373.322C350.284 373.322 359.811 360.52 378.369 364.688C391.568 367.665 388.988 384.04 392.759 381.956C396.53 379.872 395.736 369.451 407.844 370.543C416.379 371.337 417.966 393.766 412.508 396.941C407.05 400.117 380.255 399.621 382.438 409.446L329.145 403.094C329.046 403.094 339.268 379.673 350.284 373.322Z" fill="#F4DAC6"/>
<path d="M375.495 382.65C373.51 382.65 370.433 377.887 370.135 377.291C370.036 377.093 370.036 376.894 370.235 376.795C370.433 376.696 370.632 376.696 370.731 376.894C371.922 378.78 374.204 381.856 375.495 381.856C375.693 381.856 375.792 381.856 375.991 381.559C377.38 379.375 374.502 375.505 374.502 375.505C374.403 375.307 374.403 375.108 374.601 375.009C374.8 374.91 374.998 374.91 375.098 375.108C375.197 375.307 378.273 379.475 376.685 382.055C376.288 382.452 375.792 382.65 375.495 382.65Z" fill="#26192A"/>
<path d="M384.724 378.979C384.525 378.979 384.426 378.979 384.227 378.879C382.044 378.383 379.761 374.413 379.662 374.215C379.563 374.016 379.662 373.818 379.761 373.719C379.96 373.619 380.158 373.719 380.258 373.818C380.853 374.91 382.739 377.688 384.327 378.085C384.724 378.185 385.021 378.085 385.319 377.887C386.014 377.391 385.12 374.612 383.93 372.329C383.83 372.131 383.93 371.932 384.128 371.833C384.327 371.734 384.525 371.833 384.624 372.032C385.12 372.925 387.205 377.49 385.716 378.582C385.418 378.879 385.12 378.979 384.724 378.979Z" fill="#26192A"/>
<path d="M397.523 375.704C397.523 375.704 402.188 399.224 412.41 396.842C420.547 394.956 414.494 371.734 411.12 371.039C407.745 370.543 399.211 369.054 397.523 375.704Z" fill="#E9A295"/>
<path d="M408.64 387.216C408.441 387.216 408.342 387.116 408.243 386.918C406.556 379.574 404.67 378.185 403.777 377.986C402.784 377.788 402.09 378.78 402.09 378.78C401.99 378.979 401.693 378.979 401.593 378.879C401.494 378.78 401.395 378.482 401.494 378.383C401.494 378.284 402.487 376.994 403.975 377.292C405.96 377.688 407.647 380.864 409.037 386.719C409.037 386.918 408.937 387.116 408.64 387.216C408.64 387.216 408.739 387.216 408.64 387.216Z" fill="#26192A"/>
<path d="M410.427 386.918C410.229 386.918 410.129 386.819 410.03 386.62C407.45 377.788 408.144 376.101 408.839 375.704C409.335 375.406 409.931 375.704 410.229 375.902C410.427 376.001 410.427 376.299 410.328 376.398C410.229 376.597 409.931 376.597 409.832 376.498C409.732 376.398 409.435 376.2 409.335 376.299C409.137 376.398 408.244 377.589 410.824 386.422C410.923 386.62 410.725 386.819 410.526 386.918C410.526 386.918 410.526 386.918 410.427 386.918Z" fill="#26192A"/>
<path d="M388.492 402.3C387.103 402.3 386.011 401.903 385.118 401.209C382.041 398.728 382.736 393.17 382.835 392.972C382.835 392.773 383.034 392.674 383.232 392.674C383.431 392.674 383.53 392.872 383.53 393.071C383.53 393.17 382.835 398.43 385.614 400.613C387.103 401.804 389.385 401.804 392.263 400.712C392.462 400.613 392.66 400.712 392.759 400.911C392.859 401.109 392.759 401.308 392.561 401.407C390.973 402.003 389.683 402.3 388.492 402.3Z" fill="#26192A"/>
<path d="M385.118 489.335C385.019 489.335 384.919 489.335 384.919 489.236L377.278 482.388C377.079 482.289 377.079 481.991 377.278 481.892C377.377 481.694 377.675 481.694 377.774 481.892L385.416 488.74C385.614 488.839 385.614 489.137 385.416 489.236C385.316 489.236 385.217 489.335 385.118 489.335Z" fill="#26192A"/>
<path d="M378.67 489.335C378.571 489.335 378.571 489.335 378.472 489.335C378.273 489.236 378.174 489.037 378.273 488.839L381.945 480.602C382.044 480.403 382.243 480.304 382.441 480.403C382.64 480.503 382.739 480.701 382.64 480.9L378.968 489.137C378.869 489.236 378.77 489.335 378.67 489.335Z" fill="#26192A"/>
<path d="M381.051 418.774C381.051 418.774 405.861 420.362 415.091 402.3L425.809 411.53C425.809 411.53 419.16 435.05 387.204 435.745L381.051 418.774Z" fill="#F4DAC6"/>
<path d="M382.341 409.346C382.341 409.346 380.356 413.217 375.692 414.309L373.607 424.431L368.745 415.599C368.745 415.599 338.377 410.736 329.048 403.094C329.048 403.094 308.307 429.989 313.07 477.525C313.07 477.525 379.562 482.289 396.731 471.571C396.731 471.472 391.471 426.317 382.341 409.346Z" fill="#E9A295"/>
<path d="M382.342 409.346C382.342 409.346 396.533 425.92 394.251 457.975C394.251 457.975 381.448 422.049 382.342 409.346Z" fill="#6AB0A0"/>
<path d="M321.802 410.041C321.802 410.041 339.764 411.331 340.856 440.111C341.749 463.135 311.48 457.975 311.48 457.975L312.374 464.823C312.374 464.823 344.726 466.51 345.917 446.165C347.207 425.821 340.757 409.148 329.046 403.094L321.802 410.041Z" fill="#6AB0A0"/>
<path d="M322.696 413.415C322.696 413.415 296 419.668 296 438.821C296 457.975 342.147 449.539 342.147 449.539V435.943C342.147 435.943 318.826 442.989 314.161 436.638C309.497 430.286 331.33 430.683 331.33 430.683L322.696 413.415Z" fill="#F4DAC6"/>
<path d="M308.801 419.072C308.801 419.072 316.244 432.371 316.74 435.149L333.016 432.172L325.076 411.331C325.076 411.331 319.519 411.331 308.801 419.072Z" fill="#E9A295"/>
<path d="M342.148 449.936C341.95 449.936 341.85 449.837 341.751 449.639C341.652 449.44 341.85 449.242 342.049 449.142C345.622 448.051 349.591 446.562 349.889 445.967C349.988 445.768 349.988 445.669 349.889 445.47C349.293 444.28 344.828 443.386 342.148 443.089C341.95 443.089 341.85 442.989 341.85 442.791C341.85 442.592 341.85 442.493 342.049 442.394C345.82 440.012 348.896 437.233 348.599 436.737C348.301 436.042 344.331 436.142 340.858 436.638C340.659 436.638 340.461 436.539 340.461 436.34C340.461 436.142 340.56 435.943 340.759 435.943C342.545 435.645 348.5 434.951 349.194 436.439C349.889 437.73 345.721 440.806 343.24 442.493C345.324 442.791 349.79 443.585 350.584 445.173C350.782 445.57 350.782 445.967 350.584 446.364C349.988 447.554 344.133 449.341 342.347 449.936C342.247 449.936 342.247 449.936 342.148 449.936Z" fill="#26192A"/>
<path d="M320.22 549.972C320.121 549.972 320.121 549.972 320.022 549.972C318.93 549.575 316.945 542.33 316.151 539.154C316.052 538.956 316.251 538.757 316.449 538.658C316.648 538.559 316.846 538.757 316.945 538.956C318.136 543.422 319.625 548.285 320.32 549.178C321.113 548.483 323.595 544.712 325.182 542.429C325.282 542.33 325.381 542.231 325.579 542.231C325.679 542.231 325.877 542.33 325.877 542.529C326.77 545.407 328.06 548.682 328.656 549.178C329.053 548.682 329.549 545.605 329.847 543.025C329.847 542.826 330.045 542.628 330.244 542.727C330.442 542.727 330.641 542.926 330.541 543.124C330.244 546.101 329.648 549.773 328.755 549.972C328.457 550.071 327.564 550.269 325.381 543.521C324.19 545.307 321.411 549.476 320.617 549.972C320.419 549.972 320.32 549.972 320.22 549.972Z" fill="#26192A"/>
<path d="M404.274 548.582C402.686 548.582 398.32 545.01 396.434 543.422C396.236 543.323 396.236 543.025 396.434 542.926C396.533 542.727 396.831 542.727 396.93 542.926C399.907 545.506 403.579 548.185 404.274 547.987C404.77 547.788 404.671 544.513 404.076 541.04C404.076 540.842 404.076 540.742 404.274 540.643C404.373 540.544 404.572 540.544 404.671 540.643C406.954 542.429 410.626 544.811 411.519 544.613C411.618 544.613 411.618 544.613 411.618 544.513C412.015 543.62 410.03 540.345 408.541 538.36C408.442 538.162 408.442 537.963 408.641 537.864C408.839 537.765 409.038 537.765 409.137 537.964C409.832 538.857 413.107 543.223 412.313 544.91C412.213 545.109 412.015 545.307 411.717 545.407C410.328 545.804 406.656 543.223 404.969 541.933C405.366 544.315 405.763 548.285 404.572 548.781C404.473 548.582 404.373 548.582 404.274 548.582Z" fill="#26192A"/>
<path d="M340.958 388.208H340.859C340.66 388.109 340.561 387.91 340.66 387.712C340.958 386.719 343.042 385.131 343.24 384.933C343.439 384.834 343.637 384.834 343.737 385.032C343.836 385.231 343.836 385.429 343.637 385.528C342.843 386.124 341.454 387.315 341.255 387.91C341.255 388.109 341.057 388.208 340.958 388.208Z" fill="#26192A"/>
<path d="M342.249 392.178C342.249 392.178 342.149 392.178 342.249 392.178C341.951 392.078 341.852 391.88 341.852 391.681C342.05 390.689 344.035 389.002 344.233 388.803C344.432 388.704 344.63 388.704 344.73 388.803C344.829 389.002 344.829 389.2 344.73 389.3C343.936 389.994 342.645 391.285 342.546 391.88C342.546 392.078 342.447 392.178 342.249 392.178Z" fill="#26192A"/>
<path d="M336.387 394.659H336.288C336.09 394.559 335.99 394.361 336.09 394.162C336.387 393.17 338.472 391.582 338.67 391.384C338.868 391.284 339.067 391.284 339.166 391.483C339.265 391.681 339.265 391.88 339.067 391.979C338.273 392.575 336.884 393.865 336.685 394.361C336.685 394.559 336.586 394.659 336.387 394.659Z" fill="#26192A"/>
<path d="M338.674 398.926C338.476 398.926 338.277 398.728 338.277 398.529C338.377 397.537 339.964 395.453 340.163 395.254C340.262 395.056 340.56 395.056 340.659 395.155C340.858 395.254 340.858 395.552 340.758 395.651C340.163 396.445 339.071 397.934 339.071 398.529C338.972 398.827 338.873 398.926 338.674 398.926Z" fill="#26192A"/>
<path d="M316.442 485.167C316.343 485.167 316.144 485.068 316.144 484.969C315.648 484.075 316.045 481.495 316.045 481.197C316.045 480.999 316.243 480.9 316.442 480.9C316.64 480.9 316.74 481.098 316.74 481.297C316.64 482.289 316.442 484.075 316.74 484.671C316.839 484.869 316.74 485.068 316.541 485.167C316.541 485.167 316.442 485.167 316.442 485.167Z" fill="#26192A"/>
<path d="M319.918 485.862C319.819 485.862 319.621 485.763 319.621 485.663C319.124 484.77 319.521 482.19 319.521 481.892C319.521 481.694 319.72 481.594 319.918 481.594C320.117 481.594 320.216 481.793 320.216 481.991C320.117 482.984 319.918 484.77 320.216 485.366C320.315 485.564 320.216 485.762 320.018 485.862C320.018 485.862 320.018 485.862 319.918 485.862Z" fill="#26192A"/>
<path d="M316.543 494.198C316.444 494.198 316.246 494.099 316.246 494C315.749 493.106 316.146 490.526 316.146 490.228C316.146 490.03 316.345 489.931 316.543 489.931C316.742 489.931 316.841 490.129 316.841 490.328C316.742 491.32 316.543 493.106 316.841 493.702C316.94 493.9 316.841 494.099 316.643 494.198C316.643 494.198 316.543 494.198 316.543 494.198Z" fill="#26192A"/>
<path d="M322.2 492.412C322.1 492.412 321.902 492.312 321.902 492.213C321.406 491.32 321.803 488.74 321.803 488.442C321.803 488.244 322.001 488.144 322.2 488.144C322.398 488.144 322.497 488.343 322.497 488.541C322.398 489.534 322.2 491.32 322.497 491.915C322.597 492.114 322.497 492.312 322.299 492.412C322.398 492.412 322.299 492.412 322.2 492.412Z" fill="#26192A"/>
<path d="M320.513 496.381C320.414 496.381 320.314 496.381 320.215 496.282C319.52 495.488 319.223 492.908 319.223 492.61C319.223 492.412 319.322 492.213 319.52 492.213C319.719 492.213 319.917 492.312 319.917 492.511C320.017 493.503 320.414 495.29 320.811 495.786C320.91 495.984 320.91 496.183 320.811 496.282C320.711 496.381 320.612 496.381 320.513 496.381Z" fill="#26192A"/>
<path d="M318.728 501.84C318.628 501.84 318.529 501.84 318.43 501.74C317.735 500.946 317.438 498.366 317.438 498.068C317.438 497.87 317.537 497.672 317.735 497.672C317.934 497.672 318.132 497.771 318.132 497.969C318.231 498.962 318.628 500.748 319.025 501.244C319.125 501.443 319.125 501.641 319.025 501.74C318.926 501.84 318.827 501.84 318.728 501.84Z" fill="#26192A"/>
<path d="M323.196 503.626C323.097 503.626 322.998 503.626 322.899 503.527C322.204 502.733 321.906 500.152 321.906 499.855C321.906 499.656 322.005 499.458 322.204 499.458C322.402 499.458 322.601 499.557 322.601 499.755C322.7 500.748 323.097 502.534 323.494 503.03C323.593 503.229 323.593 503.427 323.494 503.527C323.395 503.527 323.296 503.626 323.196 503.626Z" fill="#26192A"/>
<path d="M320.513 508.092C320.414 508.092 320.314 508.092 320.215 507.993C319.52 507.199 319.223 504.618 319.223 504.321C319.223 504.122 319.322 503.924 319.52 503.924C319.719 503.924 319.917 504.023 319.917 504.221C320.017 505.214 320.414 507 320.811 507.496C320.91 507.695 320.91 507.893 320.811 507.993C320.711 508.092 320.612 508.092 320.513 508.092Z" fill="#26192A"/>
<path d="M324.977 510.871C324.878 510.871 324.778 510.871 324.778 510.771C323.984 510.176 323.091 507.695 322.992 507.397C322.893 507.199 322.992 507 323.191 506.901C323.389 506.802 323.588 506.901 323.687 507.099C323.984 508.092 324.679 509.779 325.175 510.077C325.374 510.176 325.374 510.474 325.275 510.573C325.175 510.771 325.076 510.871 324.977 510.871Z" fill="#26192A"/>
<path d="M333.018 402.102C332.82 402.102 332.621 401.903 332.621 401.705C332.72 400.712 334.308 398.628 334.507 398.43C334.606 398.231 334.904 398.231 335.003 398.331C335.201 398.43 335.201 398.728 335.102 398.827C334.507 399.621 333.415 401.109 333.415 401.705C333.316 401.903 333.217 402.102 333.018 402.102Z" fill="#26192A"/>
<path d="M335.495 404.98C335.296 404.98 335.098 404.781 335.098 404.583C335.197 403.59 336.785 401.506 336.983 401.308C337.082 401.109 337.38 401.109 337.479 401.209C337.678 401.308 337.678 401.606 337.579 401.705C336.983 402.499 335.892 403.987 335.892 404.583C335.892 404.881 335.693 404.98 335.495 404.98Z" fill="#26192A"/>
<path d="M374.502 434.058C373.113 434.058 371.922 432.867 371.922 431.477C371.922 430.088 373.113 428.897 374.502 428.897C375.892 428.897 377.082 430.088 377.082 431.477C377.082 432.867 375.991 434.058 374.502 434.058ZM374.502 429.691C373.51 429.691 372.716 430.485 372.716 431.477C372.716 432.47 373.51 433.264 374.502 433.264C375.495 433.264 376.289 432.47 376.289 431.477C376.289 430.485 375.495 429.691 374.502 429.691Z" fill="#26192A"/>
<path d="M376.686 449.738C375.296 449.738 374.105 448.547 374.105 447.157C374.105 445.768 375.296 444.577 376.686 444.577C378.075 444.577 379.266 445.768 379.266 447.157C379.266 448.547 378.174 449.738 376.686 449.738ZM376.686 445.272C375.693 445.272 374.899 446.066 374.899 447.058C374.899 448.051 375.693 448.845 376.686 448.845C377.678 448.845 378.472 448.051 378.472 447.058C378.472 446.066 377.777 445.272 376.686 445.272Z" fill="#26192A"/>
<path d="M378.963 462.738C377.574 462.738 376.383 461.548 376.383 460.158C376.383 458.769 377.574 457.578 378.963 457.578C380.352 457.578 381.543 458.769 381.543 460.158C381.543 461.647 380.352 462.738 378.963 462.738ZM378.963 458.372C377.971 458.372 377.177 459.166 377.177 460.158C377.177 461.151 377.971 461.945 378.963 461.945C379.956 461.945 380.749 461.151 380.749 460.158C380.749 459.166 379.956 458.372 378.963 458.372Z" fill="#26192A"/>
<path d="M368.048 362.207C367.949 362.207 367.85 362.207 367.85 362.107C365.17 359.924 367.651 353.771 367.751 353.473C367.85 353.275 368.048 353.176 368.247 353.275C368.445 353.374 368.544 353.573 368.445 353.771C368.445 353.87 366.063 359.726 368.346 361.512C368.544 361.611 368.544 361.909 368.445 362.008C368.247 362.207 368.147 362.207 368.048 362.207Z" fill="#26192A"/>
<defs>
<clipPath id="clip0">
<rect width="96" height="96" fill="white" transform="translate(505.633 402)"/>
</clipPath>
</defs>
</svg>
