<svg width="438" height="354" viewBox="0 0 438 354" fill="none" xmlns="http://www.w3.org/2000/svg">
<path d="M184.253 268.82C184.253 268.82 208.211 303.305 198.549 333.617L171.061 298.044L184.253 268.82Z" fill="#DBB06C"/>
<path d="M181.699 261.254C181.699 261.254 154.082 321.056 163.461 350.392C163.461 350.392 197.368 300.598 181.699 261.254Z" fill="#23454E"/>
<path d="M34.7603 210.58C34.7603 210.58 13.5593 202.077 -8.86862 224.389C-31.2966 246.701 -56.4717 316.38 -21.32 319.934C13.8317 323.487 56.7929 210.341 34.7603 210.58Z" fill="#23454E"/>
<path d="M151.013 394.978C151.013 394.978 227.728 170.202 151.607 133.837C73.1104 96.4103 39.8564 224.038 14.4066 252.759C-11.0432 281.479 -63.2309 369.546 10.2769 402.796C70.2295 429.93 134.79 457.955 151.013 394.978Z" fill="#E2CE96"/>
<path d="M123.365 173.996C123.365 173.996 141.99 152.592 167.002 183.42C179.65 198.984 171.495 227.329 149.698 230.943C127.901 234.556 117.85 183.732 123.365 173.996Z" fill="white"/>
<path d="M148.023 185.429C148.023 185.429 152.007 198.621 156.254 200.366C160.673 202.173 168.736 186.998 168.736 186.998C168.736 186.998 160.346 182.153 148.023 185.429Z" fill="#26192A"/>
<path d="M147.819 220.717C143.484 219.139 142.524 206.136 142.505 204.572C142.457 204.165 142.755 203.884 143.164 203.839C143.574 203.793 143.858 204.091 143.906 204.498C144.234 210.068 145.878 219.037 148.604 219.64C151.739 220.197 157.99 212.738 160.219 209.851C160.518 209.571 160.927 209.525 161.274 209.651C161.558 209.949 161.606 210.356 161.481 210.7C160.696 211.777 153.334 221.75 148.686 221.032C148.166 220.843 147.992 220.78 147.819 220.717Z" fill="#26192A"/>
<path d="M147.601 220.783C147.366 220.697 147.257 220.266 147.383 219.92L154.748 199.692C154.874 199.346 155.235 199.086 155.47 199.171C155.705 199.257 155.814 199.688 155.688 200.034L148.322 220.262C148.196 220.608 147.836 220.868 147.601 220.783Z" fill="#26192A"/>
<path d="M122.75 165.092C118.5 163.545 118.494 151.4 118.61 150.026C118.57 149.606 118.87 149.311 119.275 149.256C119.68 149.201 119.955 149.503 119.995 149.923C120.003 155.187 120.8 163.573 123.78 163.848C124.185 163.793 124.42 163.676 124.72 163.381C126.886 161.133 126.559 152.514 126.175 149.339C126.135 148.92 126.436 148.624 126.841 148.569C127.246 148.514 127.521 148.817 127.56 149.236C127.68 150.494 128.546 161.333 125.65 164.528C125.05 165.119 124.345 165.47 123.6 165.401C123.26 165.277 123.09 165.216 122.75 165.092Z" fill="#26192A"/>
<path d="M151.085 166.422C146.121 164.615 148.947 152.443 149.262 151.027C149.385 150.689 149.685 150.416 150.04 150.545C150.394 150.674 150.687 150.972 150.564 151.31C149.435 156.064 148.679 164.207 151.338 165.175C151.693 165.304 152.109 165.264 152.409 164.991C154.982 163.44 156.509 155.387 156.845 152.257C156.968 151.919 157.268 151.645 157.623 151.775C157.978 151.904 158.271 152.202 158.148 152.539C157.956 153.617 156.577 164.021 153.165 166.222C152.626 166.6 151.794 166.68 151.085 166.422Z" fill="#26192A"/>
<path d="M103.147 133.486C103.147 133.486 94.7315 113.816 85.8367 114.18C76.8776 114.721 85.1931 145.36 85.1931 145.36L103.147 133.486Z" fill="#E2CE96"/>
<path d="M94.3477 132.952C94.1804 132.891 93.9106 132.592 93.9753 132.414C92.761 121.699 88.3949 121.721 88.3949 121.721C87.9956 121.777 87.7257 121.478 87.688 121.061C87.6502 120.645 87.947 120.35 88.3464 120.294C88.5137 120.355 93.9104 120.103 95.1734 132.246C95.2112 132.662 94.9144 132.957 94.515 133.013L94.3477 132.952Z" fill="#26192A"/>
<path d="M157.407 137.36C157.407 137.36 169.786 122.668 175.724 126.769C181.663 130.869 170.927 150.425 170.927 150.425L157.407 137.36Z" fill="#E2CE96"/>
<path d="M163.284 145.31C162.905 145.172 162.653 144.684 162.781 144.333C167.18 134.02 172.247 131.893 172.501 131.787C172.754 131.681 173.322 131.888 173.448 132.132C173.574 132.376 173.382 132.902 173.129 133.009C173.129 133.009 168.505 135.098 164.297 144.885C163.916 145.342 163.663 145.448 163.284 145.31Z" fill="#26192A"/>
<path d="M128.622 400.55C128.622 400.55 173.956 267.346 129.124 254.574C89.1363 243.171 45.1883 352.455 46.7299 381.381C47.7068 402.616 113.694 429.588 128.622 400.55Z" fill="white"/>
<path d="M30.3999 411.721C30.3999 411.721 -21.5165 438.279 -38.1731 430.643C-38.1731 430.643 -42.1379 429.003 -47.9842 417.823C-53.8306 406.644 2.36851 366.689 2.36851 366.689C2.36851 366.689 23.0939 402.371 30.3999 411.721Z" fill="#E2CE96"/>
<path d="M66.1291 172.832C65.7532 172.696 65.6284 172.454 65.5666 172.039C65.6337 170.102 68.9019 166.386 69.279 165.935C69.5931 165.657 70.032 165.62 70.3448 165.93C70.6575 166.24 70.7193 166.655 70.4052 166.933C69.0228 168.392 67.0109 170.995 67.0082 172.171C67.07 172.586 66.7559 172.864 66.1291 172.832C66.1922 172.659 66.1291 172.832 66.1291 172.832Z" fill="#26192A"/>
<path d="M123.14 134.363C122.967 134.3 122.967 134.3 123.14 134.363C121.365 133.313 118.441 131.642 117.38 131.862C116.968 131.915 116.687 131.61 116.644 131.19C116.6 130.77 116.904 130.476 117.315 130.424C119.134 130.277 123.314 132.809 123.768 133.177C124.115 133.303 124.158 133.723 124.028 134.08C123.725 134.374 123.314 134.426 123.14 134.363Z" fill="#26192A"/>
<path d="M135.942 136.456C135.766 136.392 135.65 136.164 135.534 135.936C135.015 134.076 133.916 131.077 132.98 130.365C132.687 130.073 132.631 129.681 132.926 129.417C133.222 129.153 133.633 129.118 133.925 129.41C135.446 130.706 136.831 135.109 136.828 135.664C136.884 136.056 136.765 136.384 136.354 136.42C136.118 136.52 136.118 136.52 135.942 136.456Z" fill="#26192A"/>
<path d="M136.942 147.456C136.766 147.392 136.65 147.164 136.534 146.936C136.015 145.076 134.916 142.077 133.98 141.365C133.687 141.073 133.631 140.681 133.926 140.417C134.222 140.153 134.633 140.118 134.925 140.41C136.446 141.706 137.831 146.109 137.828 146.664C137.884 147.056 137.765 147.384 137.354 147.42C137.118 147.52 136.942 147.456 136.942 147.456Z" fill="#26192A"/>
<path d="M130.258 136.871C130.083 136.807 129.909 136.744 129.798 136.508C128.844 134.795 127.095 132.012 126.113 131.459C125.765 131.332 125.542 130.861 125.841 130.58C125.967 130.235 126.441 130.017 126.726 130.316C128.405 131.123 130.759 135.492 130.982 135.963C131.268 136.263 131.08 136.779 130.669 136.825C130.669 136.825 130.432 136.934 130.258 136.871Z" fill="#26192A"/>
<path d="M140.465 151.319C140.087 151.181 139.838 150.691 139.966 150.339C140.419 148.508 141.196 145.198 140.761 144.042C140.701 143.621 140.829 143.268 141.271 143.23C141.713 143.191 142.091 143.328 142.151 143.75C142.771 145.572 141.481 150.291 141.288 150.82C141.349 151.241 140.843 151.456 140.465 151.319Z" fill="#26192A"/>
<path d="M140.505 140.333C140.12 140.193 139.864 139.701 139.992 139.348C140.442 137.516 141.212 134.204 140.763 133.043C140.699 132.62 140.828 132.268 141.277 132.232C141.725 132.196 142.11 132.336 142.174 132.758C142.815 134.588 141.531 139.31 141.339 139.838C141.21 140.191 140.89 140.473 140.505 140.333Z" fill="#26192A"/>
<path d="M145.898 141.748C145.739 141.691 145.739 141.691 145.898 141.748C145.485 141.402 145.452 140.997 145.578 140.651C146.686 139.092 148.297 136.147 148.295 135.165C148.263 134.761 148.548 134.472 148.928 134.415C149.309 134.357 149.564 134.646 149.596 135.05C149.442 136.956 146.912 140.94 146.564 141.402C146.438 141.749 146.057 141.806 145.898 141.748Z" fill="#26192A"/>
<path d="M68.1291 180.832C67.7532 180.696 67.6284 180.454 67.5666 180.039C67.6337 178.102 70.9019 174.386 71.279 173.935C71.5931 173.657 72.032 173.62 72.3448 173.93C72.6575 174.24 72.7193 174.655 72.4052 174.933C71.0228 176.392 69.0109 178.995 69.0082 180.171C69.2579 180.655 68.7559 180.864 68.1291 180.832C68.317 180.901 68.317 180.901 68.1291 180.832Z" fill="#26192A"/>
<path d="M64.1291 192.832C63.7532 192.696 63.6284 192.454 63.5666 192.039C63.6337 190.102 66.9019 186.386 67.279 185.935C67.5931 185.657 68.032 185.62 68.3448 185.93C68.6575 186.24 68.7193 186.655 68.4052 186.933C67.0228 188.392 65.0109 190.995 65.0082 192.171C65.0069 192.76 64.6928 193.038 64.1291 192.832C64.317 192.901 64.317 192.901 64.1291 192.832Z" fill="#26192A"/>
<path d="M51.1291 196.832C50.7532 196.696 50.6284 196.454 50.5666 196.039C50.6337 194.102 53.9019 190.386 54.279 189.935C54.5931 189.657 55.032 189.62 55.3448 189.93C55.6575 190.24 55.7193 190.655 55.4052 190.933C54.0228 192.392 52.0109 194.995 52.0082 196.171C52.07 196.586 51.7559 196.864 51.1291 196.832C51.317 196.901 51.1291 196.832 51.1291 196.832Z" fill="#26192A"/>
<path d="M56.1291 198.832C55.7532 198.696 55.6284 198.454 55.5666 198.039C55.6337 196.102 58.9019 192.386 59.279 191.935C59.5931 191.657 60.032 191.62 60.3448 191.93C60.6575 192.24 60.7193 192.655 60.4052 192.933C59.0228 194.392 57.0109 196.995 57.0082 198.171C57.07 198.586 56.7559 198.864 56.1291 198.832Z" fill="#26192A"/>
<path d="M126.441 357.946C126.074 357.812 125.832 357.332 125.959 356.986C126.773 355.321 127.971 352.032 127.735 350.965C127.677 350.552 127.987 350.273 128.234 350.166C128.664 350.127 128.968 350.434 129.089 350.674C129.44 352.566 127.617 357.001 127.244 357.454C127.239 358.04 126.809 358.08 126.441 357.946Z" fill="#26192A"/>
<path d="M133.441 347.946C133.257 347.879 133.257 347.879 133.441 347.946C133.074 347.812 132.832 347.332 132.959 346.986C133.773 345.321 134.971 342.032 134.735 340.965C134.677 340.552 134.987 340.273 135.234 340.166C135.664 340.127 135.968 340.434 136.089 340.674C136.44 342.566 134.617 347.001 134.244 347.454C134.055 347.974 133.625 348.013 133.441 347.946Z" fill="#26192A"/>
<path d="M53.1291 209.832C52.7532 209.696 52.6284 209.454 52.5666 209.039C52.6337 207.102 55.9019 203.386 56.279 202.935C56.5931 202.657 57.032 202.62 57.3448 202.93C57.6575 203.24 57.7193 203.655 57.4052 203.933C56.0228 205.392 54.0109 207.995 54.0082 209.171C54.07 209.586 53.6928 210.038 53.1291 209.832Z" fill="#26192A"/>
<path d="M46.1291 209.832C45.7532 209.696 45.6284 209.454 45.5666 209.039C45.6337 207.102 48.9019 203.386 49.279 202.935C49.5931 202.657 50.032 202.62 50.3448 202.93C50.6575 203.24 50.7193 203.655 50.4052 203.933C49.0228 205.392 47.0109 207.995 47.0082 209.171C47.0069 209.76 46.6928 210.038 46.1291 209.832C46.317 209.901 46.1291 209.832 46.1291 209.832Z" fill="#26192A"/>
<path d="M60.1291 184.832C59.7532 184.696 59.6284 184.454 59.5666 184.039C59.6337 182.102 62.9019 178.386 63.279 177.935C63.5931 177.657 64.032 177.62 64.3448 177.93C64.6575 178.24 64.7193 178.655 64.4052 178.933C63.0228 180.392 61.0109 182.995 61.0082 184.171C61.0069 184.76 60.6928 185.038 60.1291 184.832C60.317 184.901 60.317 184.901 60.1291 184.832Z" fill="#26192A"/>
<path d="M29.7683 220.248C29.7683 220.248 70.8148 257.266 62.9685 282.599C55.1221 307.933 25.8809 326.071 -23.4845 312.44L-26.083 319.577C-26.083 319.577 44.1826 345.546 68.8011 300.098C91.7573 257.594 35.8141 211.212 35.8141 211.212C35.8141 211.212 31.7167 215.437 29.7683 220.248Z" fill="#23454E"/>
<path d="M31.5334 222.654C31.5334 222.654 23.0825 265.962 42.2748 271.375C61.2925 276.725 65.3525 255.796 76.8884 275.719C88.4243 295.641 69.1878 321.855 30.3266 320.486C-8.53467 319.117 -7.60581 285.06 -6.48681 280.357C2.94432 244.678 24.1571 223.9 31.5334 222.654Z" fill="#DBB06C"/>
<path d="M196.456 311.286C196.456 311.286 187.162 287.014 174.862 285.075C162.561 283.136 145.88 316.5 180.354 342.518C194.828 353.643 204.731 326.988 196.456 311.286Z" fill="#DBB06C"/>
<path d="M161.963 302.547C161.785 302.482 161.785 302.482 161.608 302.418C160.56 301.436 151.146 292.006 154.124 287.686C154.559 287.044 155.348 286.53 156.121 286.612C157.732 286.598 159.892 288.385 161.682 290.637C160.23 286.906 159.148 282.71 161.145 281.636C161.692 281.235 162.289 281.252 162.998 281.51C164.948 282.22 167.302 285.678 169.011 288.702C168.3 284.04 168.297 279.636 169.57 278.899C170.536 278.45 171.374 278.355 172.196 278.854C175.725 280.739 177.084 290.239 177.117 291.252C177.165 291.67 176.86 291.959 176.441 292.006C176.022 292.054 175.732 291.748 175.683 291.33C175.279 288.581 173.921 281.283 171.391 279.962C170.859 279.768 170.44 279.816 169.957 280.04C169.281 280.795 169.945 287.241 170.931 292.803C170.98 293.221 170.674 293.51 170.432 293.622C170.013 293.669 169.659 293.54 169.546 293.299C167.852 289.681 164.61 283.698 162.483 282.924C162.128 282.794 161.887 282.907 161.822 283.083C160.244 284.11 162.858 291.265 166.165 297.072C166.455 297.377 166.262 297.908 165.843 297.955C165.537 298.244 165.005 298.051 164.892 297.809C162.602 294.174 158.104 288.334 155.897 288.331C155.719 288.267 155.3 288.314 155.107 288.845C153.369 291.414 158.561 298.107 162.397 301.905C162.688 302.21 162.736 302.628 162.43 302.917C162.559 302.564 162.317 302.676 161.963 302.547Z" fill="#26192A"/>
<path d="M78.0924 285.357C77.9196 285.294 77.8094 285.06 77.6992 284.825C77.6515 284.418 77.7767 284.074 78.1849 284.028C80.7591 283.408 87.728 281.467 88.8396 278.952C89.0273 278.436 88.9797 278.03 88.5865 277.497C87.7851 277.011 81.5373 278.046 76.1534 279.396C75.7453 279.442 75.3997 279.316 75.3521 278.909C75.2418 278.675 75.4296 278.159 75.665 278.05C79.0855 276.18 84.7645 272.408 85.1074 270.391C85.2325 270.047 85.1223 269.812 84.9495 269.75C83.7699 268.152 77.1166 271.376 71.6104 275.212C71.3124 275.492 70.9668 275.367 70.6838 275.069C70.4008 274.771 70.526 274.428 70.8239 274.147C74.0866 271.636 79.3874 266.752 79.2118 264.547C79.2744 264.375 79.1642 264.14 78.7084 263.779C76.1314 262.258 69.9367 267.984 66.7544 271.887C66.4564 272.168 66.0482 272.214 65.7652 271.916C65.4822 271.618 65.4346 271.212 65.7326 270.931C66.7516 269.745 75.0293 259.91 79.5547 262.53C80.3561 263.017 80.7493 263.549 80.8445 264.362C81.035 265.989 79.2949 268.081 77.5547 270.173C81.148 268.366 84.9617 267.029 86.4244 268.924C86.8176 269.456 86.9754 270.098 86.7877 270.613C86.4448 272.63 83.1822 275.141 80.3427 277.027C84.785 276.114 89.1021 275.544 89.8886 276.608C90.392 277.376 90.5975 278.424 90.2845 279.283C88.7975 282.83 79.6149 284.938 78.7359 285.202C78.438 285.483 78.2652 285.42 78.0924 285.357Z" fill="#26192A"/>
<path d="M3.836 303.417L3.66541 303.355C2.148 302.216 0.73848 297.597 0.756462 297.017C0.711584 296.61 0.837309 296.265 1.24137 296.216C1.64543 296.168 1.98663 296.292 2.03151 296.699C2.55222 298.453 3.71935 301.615 4.61722 302.333C4.89556 302.63 4.94044 303.037 4.64412 303.32C4.41066 303.431 4.1772 303.541 3.836 303.417Z" fill="#26192A"/>
<path d="M4.836 295.417L4.66541 295.355C3.148 294.216 1.73848 289.597 1.75647 289.017C1.71159 288.61 1.83731 288.265 2.24137 288.216C2.64542 288.168 2.98662 288.292 3.0315 288.699C3.55221 290.453 4.71935 293.615 5.61722 294.333C5.89556 294.63 5.94044 295.037 5.64412 295.32C5.41066 295.431 5.1772 295.541 4.836 295.417Z" fill="#26192A"/>
<path d="M13.4225 314.23C11.4247 313.503 8.38707 309.983 7.91279 309.591C7.62013 309.265 7.57965 308.811 7.90241 308.49C8.22517 308.168 8.65899 308.106 8.95165 308.432C10.2333 309.996 12.8268 312.477 13.9871 312.68C14.3503 312.812 14.643 313.138 14.5018 313.526C14.3607 313.913 14.0379 314.235 13.6747 314.103C13.6041 314.296 13.4225 314.23 13.4225 314.23Z" fill="#26192A"/>
<path d="M17.6785 311.076C17.3261 310.947 17.1239 310.406 17.2742 309.993C17.4245 309.58 17.9273 309.296 18.2798 309.424C20.0421 310.066 23.4657 311.078 24.4712 310.509C24.8989 310.431 25.2513 310.559 25.2773 311.036C25.3032 311.513 25.1529 311.926 24.7252 312.004C22.9655 313 18.3835 311.332 17.6785 311.076Z" fill="#26192A"/>
<path d="M183.409 338.226C181.375 337.485 178.328 333.777 177.843 333.384C177.543 333.059 177.682 332.676 178.006 332.361C178.33 332.046 178.7 332.18 179 332.506C180.316 334.068 182.718 336.675 183.897 336.887C184.267 337.022 184.567 337.347 184.427 337.73C184.288 338.112 183.964 338.427 183.594 338.293C183.594 338.293 183.594 338.293 183.409 338.226Z" fill="#26192A"/>
<path d="M179.409 328.226C177.375 327.485 174.328 323.777 173.843 323.384C173.543 323.059 173.682 322.676 174.006 322.361C174.33 322.046 174.7 322.18 175 322.506C176.316 324.068 178.718 326.675 179.897 326.887C180.267 327.022 180.567 327.347 180.427 327.73C180.288 328.112 179.964 328.427 179.594 328.293C179.594 328.293 179.594 328.293 179.409 328.226Z" fill="#26192A"/>
<path d="M190.409 333.226C188.375 332.485 185.328 328.777 184.843 328.384C184.543 328.059 184.682 327.676 185.006 327.361C185.33 327.046 185.7 327.18 186 327.506C187.316 329.068 189.903 331.742 190.897 331.887C191.267 332.022 191.567 332.347 191.427 332.73C191.288 333.112 190.964 333.427 190.594 333.293C190.594 333.293 190.594 333.293 190.409 333.226Z" fill="#26192A"/>
<path d="M190.409 339.226C188.375 338.485 185.328 334.777 184.843 334.384C184.543 334.059 184.682 333.676 185.006 333.361C185.33 333.046 185.7 333.18 186 333.506C187.316 335.068 189.903 337.742 190.897 337.887C191.267 338.022 191.567 338.347 191.427 338.73C191.288 339.112 190.964 339.427 190.594 339.293L190.409 339.226Z" fill="#26192A"/>
<path d="M176.409 334.226C174.375 333.485 171.328 329.777 170.843 329.384C170.543 329.059 170.682 328.676 171.006 328.361C171.33 328.046 171.7 328.18 172 328.506C173.316 330.068 175.718 332.674 176.897 332.887C177.267 333.022 177.567 333.347 177.427 333.73C177.288 334.112 176.964 334.427 176.594 334.293L176.409 334.226Z" fill="#26192A"/>
<path d="M28.6785 310.076C28.3261 309.947 28.1239 309.406 28.2742 308.993C28.4245 308.58 28.9273 308.296 29.2798 308.424C31.0421 309.066 34.4657 310.078 35.4712 309.509C35.8989 309.431 36.2513 309.559 36.2773 310.036C36.3032 310.513 36.1529 310.926 35.7252 311.004C33.9655 312 29.2072 310.268 28.6785 310.076Z" fill="#26192A"/>
<path d="M41.6938 313.081C41.3337 312.95 41.0388 312.64 41.1691 312.282C41.2994 311.924 41.6098 311.632 41.97 311.763C43.8357 312.239 47.2723 312.882 48.4333 312.494C48.8586 312.446 49.2187 312.577 49.3336 312.821C49.3833 313.245 49.253 313.603 49.0078 313.716C47.1763 314.266 42.2992 313.099 41.6938 313.081Z" fill="#26192A"/>
<path d="M32.6938 316.081C32.3337 315.95 32.0388 315.64 32.1691 315.282C32.2994 314.924 32.6098 314.632 32.97 314.763C34.8357 315.239 38.2723 315.882 39.4333 315.494C39.8586 315.446 40.2187 315.577 40.3336 315.821C40.3833 316.245 40.253 316.603 40.0078 316.716C38.1763 317.266 33.2992 316.099 32.6938 316.081Z" fill="#26192A"/>
<path d="M15.583 306.225C13.5853 305.497 10.3024 302.651 9.99823 302.356C9.69401 302.062 9.63042 301.672 9.93007 301.414C10.2297 301.156 10.652 301.126 10.9562 301.42C12.3547 302.663 15.2107 304.988 16.1778 305.156C16.541 305.288 16.8452 305.583 16.7272 305.907C16.6092 306.231 16.3095 306.489 15.9463 306.357C16.0053 306.195 15.7647 306.291 15.583 306.225Z" fill="#26192A"/>
<path d="M18.583 301.225C16.5853 300.497 13.3024 297.651 12.9982 297.356C12.694 297.062 12.6304 296.672 12.9301 296.414C13.2297 296.156 13.652 296.126 13.9562 296.42C15.3547 297.663 18.2107 299.988 19.1778 300.156C19.541 300.288 19.8452 300.583 19.7272 300.907C19.6092 301.231 19.3095 301.489 18.9463 301.357C18.9463 301.357 18.7647 301.291 18.583 301.225Z" fill="#26192A"/>
<path d="M24.3489 317.255C24.1767 317.193 24.0045 317.13 24.0045 317.13C23.6601 317.005 23.4238 316.582 23.532 316.285C23.6401 315.988 23.9204 315.754 24.437 315.942C26.159 316.569 29.4848 317.611 30.5079 317.479C30.9064 317.456 31.2508 317.581 31.3149 317.941C31.3789 318.301 31.2708 318.598 30.8723 318.621C29.2245 318.862 25.7265 317.757 24.3489 317.255Z" fill="#26192A"/>
<path d="M-1.35609 291.048C-1.53646 290.982 -1.53645 290.982 -1.65602 290.749C-2.91456 289.157 -3.2591 284.493 -3.25708 283.926C-3.31585 283.527 -3.01389 283.258 -2.59235 283.223C-2.17082 283.187 -1.87088 283.485 -1.8121 283.885C-1.69861 285.817 -1.22841 289.014 -0.508962 289.843C-0.209022 290.141 -0.33062 290.475 -0.632585 290.744C-0.93455 291.012 -1.17572 291.113 -1.35609 291.048Z" fill="#26192A"/>
<path d="M204 78.6537C203.927 56.8056 221.61 38.9966 243.484 38.9231C246.977 38.9231 250.396 39.3638 253.631 40.2083C257.344 17.4789 277.049 0.0738504 300.872 0.000411303C318.813 -0.0730278 334.474 9.69437 342.782 24.2353C347.745 19.0211 354.73 15.7164 362.524 15.7164C377.597 15.6429 389.876 27.8338 389.95 42.8889C389.95 43.1826 389.95 43.4764 389.913 43.7701C392.597 43.1826 395.354 42.8888 398.222 42.8521C420.096 42.7787 437.926 60.4408 438 82.2889C438.073 100.208 426.199 115.373 409.912 120.294C410.611 123.562 411.015 126.903 411.015 130.392C411.126 156.903 389.692 178.494 363.149 178.568C348.113 178.641 334.658 171.774 325.798 160.979C318.886 172.325 306.386 179.926 292.085 180C274.292 180.073 259.219 168.396 254.146 152.313C250.285 154.406 245.911 155.581 241.205 155.618C226.132 155.691 213.853 143.5 213.779 128.445C213.743 121.616 216.242 115.373 220.36 110.563C210.507 103.366 204.037 91.7626 204 78.6537ZM263.52 112.729C263.52 112.766 263.557 112.766 263.557 112.803C263.594 112.729 263.667 112.693 263.704 112.619C263.631 112.656 263.594 112.693 263.52 112.729Z" fill="#001977"/>
<path d="M359.106 24.0001C372.843 23.9632 383.995 35.0317 384.031 48.7198C384.031 49.4946 383.995 50.3062 383.921 51.081C387.429 49.9373 391.195 49.347 395.073 49.3101C415.382 49.2363 431.925 65.6177 431.999 85.9468C432.036 91.2966 430.891 96.3881 428.823 101C429.303 98.6387 429.525 96.2036 429.525 93.6948C429.451 73.4025 412.908 56.9842 392.598 57.058C388.906 57.058 385.324 57.6483 381.964 58.6445C380.893 58.9766 379.822 59.3455 378.788 59.7883C379.046 58.2387 379.194 56.6522 379.194 55.0288C379.194 54.3278 379.157 53.6637 379.12 52.9996C378.012 38.7581 366.085 27.542 351.536 27.5789C349.283 27.5789 347.105 27.8741 345 28.3906C349.025 25.6604 353.862 24.037 359.106 24.0001Z" fill="#7379EC"/>
<path d="M204 78.8528C203.963 68.4854 207.937 59.0704 214.449 52L215.001 52.403C215.001 52.403 242.412 177.692 405 154.173C396.795 168.68 381.195 178.498 363.277 178.571C348.229 178.644 334.762 171.794 325.895 161.023C318.978 172.343 306.469 179.926 292.156 180C274.348 180.073 259.263 168.423 254.186 152.378C250.323 154.466 245.944 155.638 241.235 155.675C226.15 155.748 213.861 143.585 213.787 128.565C213.75 121.751 216.252 115.524 220.373 110.725C210.513 103.508 204.074 91.9312 204 78.8528Z" fill="#000E67"/>
<path d="M268.786 189.358C270.245 198.378 264.084 206.889 255.006 208.343C251.288 208.925 247.679 208.234 244.58 206.598C243.231 211.29 239.257 215.036 234.117 215.836C227.008 216.963 220.337 212.162 219.207 205.07C219.024 204.015 218.988 202.997 219.097 201.979C212.863 202.597 207.176 198.269 206.155 192.013C205.098 185.539 209.546 179.429 216.035 178.374C217.384 178.156 218.696 178.192 219.972 178.41C221.248 171.791 226.571 166.335 233.643 165.208C241.445 163.971 248.845 168.372 251.689 175.391C260.001 175.1 267.438 180.993 268.786 189.358Z" fill="#001977"/>
<path d="M248.993 181.408C246.068 173.8 238.341 168.886 230 169.869C231.517 169.032 233.178 168.413 235.019 168.158C241.952 167.139 248.451 171.143 250.871 177.44C258.237 177.185 264.772 182.572 265.856 190.071C265.964 190.726 266 191.381 266 192C263.039 185.484 256.323 181.189 248.993 181.408Z" fill="#7379EC"/>
<path d="M206.147 191.84C205.496 187.651 207.052 183.646 209.91 181C213.854 189.562 227.566 211.131 264 203.231C261.576 205.84 258.356 207.677 254.629 208.265C250.939 208.853 247.357 208.155 244.282 206.501C242.943 211.241 238.999 215.026 233.898 215.834C226.842 216.973 220.221 212.123 219.1 204.958C218.919 203.892 218.883 202.863 218.991 201.834C212.804 202.496 207.124 198.123 206.147 191.84Z" fill="#000E67"/>
<path d="M168.543 209.822C170.187 205.116 175.081 202.505 179.756 203.645C179.829 203.388 179.866 203.167 179.976 202.91C181.29 199.086 185.454 197.064 189.253 198.424C192.065 199.417 193.892 201.99 194.111 204.821C194.951 204.895 195.754 205.042 196.594 205.336C201.562 207.101 204.192 212.579 202.475 217.579C200.722 222.579 195.279 225.226 190.312 223.498C190.202 223.462 190.129 223.425 190.02 223.388C188.815 225.521 186.258 226.55 183.884 225.704C182.204 225.116 181.035 223.756 180.596 222.138C178.661 222.8 176.506 222.837 174.424 222.101C169.42 220.3 166.79 214.822 168.543 209.822Z" fill="#001977"/>
<path d="M193.32 208.777C192.5 208.476 191.644 208.325 190.825 208.25C190.639 205.387 188.777 202.751 185.91 201.734C184.606 201.282 183.266 201.207 182 201.47C183.75 200.077 186.133 199.587 188.367 200.378C190.974 201.282 192.649 203.693 192.836 206.291C193.58 206.329 194.362 206.479 195.107 206.743C199.687 208.363 202.107 213.447 200.506 218.079C200.283 218.757 199.948 219.397 199.575 220C200.581 215.292 197.974 210.434 193.32 208.777Z" fill="#7379EC"/>
<path d="M168.546 210.231C168.839 209.439 169.243 208.684 169.683 208C172.763 213.146 178.888 220.378 190 223.581C188.753 225.56 186.223 226.532 183.912 225.704C182.225 225.128 181.052 223.797 180.612 222.214C178.668 222.861 176.504 222.897 174.414 222.178C169.426 220.486 166.785 215.125 168.546 210.231Z" fill="#000E67"/>
</svg>
