<svg width="900" height="900" viewBox="0 0 900 900" fill="none" xmlns="http://www.w3.org/2000/svg">
<rect width="900" height="900" fill="#161616"/>
<path d="M459.912 464.698C459.912 464.698 483.749 499.424 473.876 529.727L446.504 493.885L459.912 464.698Z" fill="#DBB06C"/>
<path d="M457.547 456.71C457.547 456.71 429.585 516.041 439.016 545.416C439.016 545.416 473.316 496.142 457.547 456.71Z" fill="#23454E"/>
<path d="M311.817 406.134C311.817 406.134 290.554 397.447 267.892 419.642C245.23 441.837 219.554 511.497 254.865 515.331C290.176 519.164 333.962 406.065 311.817 406.134Z" fill="#23454E"/>
<path d="M425.356 590.705C425.356 590.705 503.616 366.183 427.831 329.344C349.682 291.429 315.54 418.973 289.908 447.57C264.276 476.167 211.505 564.006 284.701 597.711C344.399 625.217 408.694 653.641 425.356 590.705Z" fill="#E2CE96"/>
<path d="M399.745 369.867C399.745 369.867 418.573 348.42 443.352 379.546C455.883 395.261 447.477 423.739 425.624 427.274C403.771 430.81 394.141 379.635 399.745 369.867Z" fill="white"/>
<path d="M424.438 381.014C424.438 381.014 428.444 394.154 432.719 395.94C437.167 397.789 445.289 382.834 445.289 382.834C445.289 382.834 436.845 377.92 424.438 381.014Z" fill="#26192A"/>
<path d="M423.878 416.553C419.539 414.941 418.696 401.791 418.691 400.209C418.646 399.797 418.949 399.515 419.36 399.47C419.772 399.425 420.055 399.728 420.099 400.139C420.377 405.773 421.944 414.847 424.676 415.467C427.82 416.042 434.167 408.525 436.433 405.614C436.736 405.331 437.147 405.287 437.495 405.416C437.777 405.718 437.822 406.13 437.693 406.477C436.895 407.563 429.407 417.619 424.746 416.875C424.225 416.682 424.051 416.617 423.878 416.553Z" fill="#26192A"/>
<path d="M424.226 416.682C423.879 416.553 423.661 416.077 423.79 415.73L431.332 395.424C431.461 395.077 431.937 394.859 432.284 394.988C432.631 395.117 432.849 395.593 432.72 395.94L425.178 416.246C425.049 416.593 424.573 416.811 424.226 416.682Z" fill="#26192A"/>
<path d="M399.671 359.965C395.332 358.353 395.208 346.457 395.312 345.113C395.267 344.702 395.57 344.419 395.982 344.374C396.393 344.33 396.676 344.632 396.72 345.044C396.78 350.201 397.672 358.432 400.707 358.77C401.119 358.725 401.357 358.616 401.659 358.333C403.841 356.181 403.425 347.731 403.003 344.612C402.958 344.201 403.261 343.918 403.673 343.873C404.084 343.829 404.367 344.131 404.411 344.543C404.545 345.778 405.532 356.414 402.616 359.479C402.011 360.044 401.297 360.371 400.539 360.287C400.191 360.158 400.018 360.094 399.671 359.965Z" fill="#26192A"/>
<path d="M427.305 362.131C422.446 360.326 425.505 347.835 425.848 346.382C425.976 346.035 426.279 345.753 426.626 345.882C426.973 346.01 427.256 346.313 427.127 346.66C425.907 351.539 424.98 359.885 427.583 360.852C427.93 360.981 428.342 360.936 428.644 360.654C431.218 359.042 432.904 350.781 433.305 347.572C433.434 347.225 433.737 346.943 434.084 347.072C434.431 347.201 434.714 347.503 434.585 347.85C434.372 348.956 432.78 359.622 429.363 361.908C428.823 362.3 428 362.389 427.305 362.131Z" fill="#26192A"/>
<path d="M379.985 328.952C379.985 328.952 371.451 309.39 362.48 309.613C353.445 310.009 361.905 340.407 361.905 340.407L379.985 328.952Z" fill="#E2CE96"/>
<path d="M372.029 328.565C371.856 328.501 371.573 328.198 371.638 328.025C370.239 317.433 365.732 317.339 365.732 317.339C365.32 317.383 365.038 317.081 364.993 316.669C364.948 316.258 365.251 315.975 365.662 315.93C365.836 315.995 371.405 315.891 372.872 327.891C372.917 328.302 372.614 328.585 372.203 328.63L372.029 328.565Z" fill="#26192A"/>
<path d="M434.084 333.247C434.084 333.247 446.541 318.321 452.317 322.442C458.094 326.562 447.17 346.402 447.17 346.402L434.084 333.247Z" fill="#E2CE96"/>
<path d="M440.455 340.551C440.108 340.422 439.89 339.946 440.019 339.599C444.408 329.379 449.168 327.197 449.406 327.088C449.644 326.979 450.165 327.173 450.274 327.411C450.383 327.649 450.19 328.169 449.952 328.278C449.952 328.278 445.603 330.416 441.408 340.115C441.041 340.571 440.803 340.68 440.455 340.551Z" fill="#26192A"/>
<path d="M403.809 595.539C403.809 595.539 450.026 462.605 405.476 449.613C365.742 438.014 321.098 547.042 322.402 575.966C323.205 597.2 388.71 624.493 403.809 595.539Z" fill="white"/>
<path d="M305.012 606.834C305.012 606.834 253.154 633.195 236.661 625.489C236.661 625.489 232.734 623.832 227.021 612.626C221.309 601.419 277.546 561.675 277.546 561.675C277.546 561.675 297.832 597.452 305.012 606.834Z" fill="#E2CE96"/>
<path d="M395.042 619.143C395.042 619.143 366.033 669.593 347.968 671.968C347.968 671.968 343.723 672.762 332.869 666.36C322.014 659.958 340.074 614.526 340.074 614.526C340.074 614.526 384.108 615.082 395.042 619.143Z" fill="#E2CE96"/>
<path d="M342.337 368.096C341.99 367.967 341.88 367.729 341.836 367.318C341.96 365.389 345.133 361.63 345.5 361.174C345.803 360.891 346.214 360.847 346.497 361.149C346.78 361.452 346.824 361.863 346.522 362.146C345.183 363.624 343.219 366.252 343.18 367.422C343.224 367.834 342.922 368.116 342.337 368.096C342.337 368.096 342.401 367.923 342.337 368.096Z" fill="#26192A"/>
<path d="M400.096 330.103C399.922 330.038 399.922 330.038 400.096 330.103C398.315 329.046 395.385 327.365 394.324 327.564C393.912 327.608 393.629 327.306 393.585 326.894C393.54 326.483 393.843 326.2 394.254 326.155C396.074 326.041 400.264 328.585 400.72 328.952C401.067 329.081 401.112 329.493 400.983 329.84C400.681 330.123 400.269 330.167 400.096 330.103Z" fill="#26192A"/>
<path d="M412.304 332.86C412.131 332.795 412.022 332.557 411.913 332.319C411.451 330.371 410.445 327.232 409.532 326.498C409.25 326.195 409.205 325.784 409.508 325.501C409.81 325.218 410.222 325.174 410.504 325.476C411.982 326.815 413.232 331.427 413.212 332.012C413.256 332.423 413.127 332.771 412.716 332.815C412.478 332.924 412.478 332.924 412.304 332.86Z" fill="#26192A"/>
<path d="M413.183 343.259C413.01 343.194 412.901 342.956 412.791 342.718C412.33 340.769 411.324 337.631 410.411 336.897C410.129 336.594 410.084 336.183 410.387 335.9C410.689 335.617 411.101 335.573 411.383 335.875C412.861 337.214 414.111 341.826 414.091 342.411C414.135 342.822 414.006 343.169 413.595 343.214C413.357 343.323 413.183 343.259 413.183 343.259Z" fill="#26192A"/>
<path d="M406.975 332.855C406.801 332.79 406.627 332.726 406.518 332.488C405.581 330.757 403.86 327.946 402.884 327.385C402.536 327.256 402.318 326.78 402.621 326.498C402.75 326.151 403.226 325.932 403.508 326.235C405.179 327.053 407.49 331.466 407.708 331.942C407.991 332.245 407.798 332.766 407.386 332.81C407.386 332.81 407.148 332.919 406.975 332.855Z" fill="#26192A"/>
<path d="M417.463 346.626C417.116 346.497 416.897 346.021 417.026 345.674C417.497 343.874 418.311 340.621 417.939 339.495C417.894 339.083 418.023 338.736 418.435 338.692C418.846 338.647 419.193 338.776 419.238 339.188C419.764 340.963 418.435 345.604 418.241 346.125C418.286 346.536 417.81 346.755 417.463 346.626Z" fill="#26192A"/>
<path d="M416.906 335.36C416.559 335.231 416.341 334.755 416.47 334.407C416.941 332.607 417.754 329.354 417.382 328.229C417.338 327.817 417.466 327.47 417.878 327.426C418.29 327.381 418.637 327.51 418.681 327.921C419.207 329.697 417.878 334.338 417.685 334.859C417.556 335.206 417.253 335.488 416.906 335.36Z" fill="#26192A"/>
<path d="M423.155 337.68C422.981 337.615 422.981 337.615 423.155 337.68C422.699 337.313 422.654 336.901 422.783 336.554C423.948 335.012 425.629 332.081 425.604 331.084C425.56 330.673 425.862 330.39 426.274 330.346C426.685 330.301 426.968 330.603 427.013 331.015C426.889 332.944 424.236 336.896 423.869 337.352C423.74 337.699 423.328 337.744 423.155 337.68Z" fill="#26192A"/>
<path d="M344.419 375.783C344.072 375.654 343.963 375.416 343.918 375.004C344.042 373.075 347.215 369.316 347.582 368.86C347.885 368.578 348.297 368.533 348.579 368.835C348.862 369.138 348.906 369.549 348.604 369.832C347.265 371.31 345.301 373.938 345.262 375.108C345.48 375.584 345.004 375.802 344.419 375.783C344.592 375.847 344.592 375.847 344.419 375.783Z" fill="#26192A"/>
<path d="M340.729 387.842C340.382 387.713 340.273 387.475 340.228 387.063C340.352 385.134 343.526 381.376 343.893 380.919C344.195 380.637 344.607 380.592 344.89 380.895C345.172 381.197 345.217 381.609 344.914 381.891C343.576 383.369 341.612 385.997 341.572 387.167C341.552 387.753 341.25 388.035 340.729 387.842C340.903 387.906 340.903 387.906 340.729 387.842Z" fill="#26192A"/>
<path d="M327.653 391.675C327.306 391.546 327.197 391.308 327.152 390.896C327.276 388.967 330.45 385.209 330.817 384.753C331.119 384.47 331.531 384.425 331.814 384.728C332.096 385.03 332.141 385.442 331.838 385.724C330.499 387.202 328.536 389.83 328.496 391.001C328.541 391.412 328.238 391.695 327.653 391.675C327.653 391.675 327.827 391.739 327.653 391.675Z" fill="#26192A"/>
<path d="M332.86 393.609C332.513 393.48 332.404 393.242 332.359 392.83C332.483 390.901 335.657 387.143 336.024 386.686C336.326 386.404 336.738 386.359 337.021 386.662C337.303 386.964 337.348 387.376 337.045 387.658C335.706 389.136 333.743 391.764 333.703 392.934C333.748 393.346 333.445 393.629 332.86 393.609Z" fill="#26192A"/>
<path d="M401.359 553.747C401.012 553.618 400.794 553.142 400.923 552.795C401.741 551.124 402.966 547.826 402.768 546.765C402.723 546.354 403.026 546.071 403.264 545.962C403.675 545.917 403.958 546.22 404.067 546.458C404.355 548.342 402.505 552.79 402.138 553.246C402.118 553.832 401.707 553.876 401.359 553.747Z" fill="#26192A"/>
<path d="M409.26 543.646C409.086 543.582 409.086 543.582 409.26 543.646C408.913 543.517 408.695 543.041 408.823 542.694C409.642 541.023 410.867 537.725 410.668 536.664C410.624 536.253 410.926 535.97 411.164 535.861C411.576 535.816 411.858 536.119 411.967 536.357C412.255 538.241 410.405 542.689 410.038 543.145C409.845 543.666 409.433 543.711 409.26 543.646Z" fill="#26192A"/>
<path d="M390.729 570.141C390.382 570.012 390.163 569.536 390.292 569.189C391.11 567.517 392.335 564.22 392.137 563.159C392.092 562.747 392.395 562.465 392.633 562.355C393.044 562.311 393.327 562.613 393.436 562.851C393.724 564.736 391.874 569.184 391.507 569.64C391.552 570.051 391.076 570.27 390.729 570.141Z" fill="#26192A"/>
<path d="M403.486 575.669C403.139 575.54 402.921 575.064 403.05 574.717C403.868 573.046 405.093 569.749 404.895 568.687C404.85 568.276 405.153 567.993 405.391 567.884C405.802 567.839 406.085 568.142 406.194 568.38C406.482 570.264 404.632 574.712 404.265 575.169C404.072 575.689 403.834 575.798 403.486 575.669Z" fill="#26192A"/>
<path d="M381.232 603.151C381.058 603.086 380.885 603.022 380.949 602.848C380.667 602.546 380.86 602.025 381.098 601.916C382.655 600.914 385.422 598.782 385.809 597.741C385.938 597.393 386.414 597.175 386.761 597.304C387.108 597.433 387.326 597.909 387.197 598.256C386.553 599.992 382.422 602.605 381.881 602.997C381.579 603.279 381.405 603.215 381.232 603.151Z" fill="#26192A"/>
<path d="M391.844 580.43C391.497 580.301 391.279 579.825 391.407 579.478C392.226 577.807 393.451 574.509 393.252 573.448C393.208 573.037 393.51 572.754 393.748 572.645C394.16 572.6 394.442 572.903 394.551 573.141C394.839 575.025 392.989 579.473 392.622 579.929C392.429 580.45 392.191 580.559 391.844 580.43Z" fill="#26192A"/>
<path d="M400.924 566.62C400.577 566.491 400.359 566.015 400.488 565.668C401.306 563.996 402.531 560.699 402.332 559.638C402.288 559.226 402.59 558.944 402.828 558.834C403.24 558.79 403.522 559.092 403.631 559.33C403.919 561.215 402.069 565.663 401.702 566.119C401.747 566.53 401.271 566.749 400.924 566.62Z" fill="#26192A"/>
<path d="M400.576 587.228C400.403 587.164 400.403 587.164 400.576 587.228C400.229 587.099 400.011 586.623 400.14 586.276C400.958 584.605 402.183 581.307 401.985 580.246C401.94 579.835 402.242 579.552 402.48 579.443C402.892 579.398 403.175 579.701 403.284 579.939C403.571 581.823 401.722 586.271 401.355 586.727C401.226 587.074 400.75 587.293 400.576 587.228Z" fill="#26192A"/>
<path d="M392.578 600.255C392.404 600.191 392.231 600.126 392.295 599.953C392.013 599.65 392.206 599.13 392.444 599.02C394.001 598.019 396.877 596.125 397.264 595.083C397.393 594.736 397.869 594.518 398.152 594.82C398.499 594.949 398.717 595.425 398.414 595.708C397.596 597.379 393.466 599.992 392.99 600.211C392.925 600.384 392.752 600.32 392.578 600.255Z" fill="#26192A"/>
<path d="M389.975 592.375L389.801 592.311C389.519 592.008 389.474 591.597 389.777 591.314C391.116 589.837 393.253 587.273 393.292 586.103C393.421 585.756 393.724 585.473 394.071 585.602C394.418 585.731 394.701 586.033 394.572 586.38C394.274 588.245 390.992 591.766 390.625 592.222C390.56 592.395 390.149 592.44 389.975 592.375Z" fill="#26192A"/>
<path d="M382.824 592.485C382.477 592.356 382.259 591.88 382.388 591.532C383.206 589.861 384.431 586.564 384.233 585.503C384.188 585.091 384.49 584.808 384.729 584.699C385.14 584.655 385.423 584.957 385.532 585.195C385.819 587.08 383.97 591.528 383.603 591.984C383.583 592.569 383.171 592.613 382.824 592.485Z" fill="#26192A"/>
<path d="M329.364 405.148C329.017 405.019 328.908 404.781 328.863 404.37C328.987 402.441 332.161 398.682 332.528 398.226C332.83 397.943 333.242 397.898 333.524 398.201C333.807 398.503 333.852 398.915 333.549 399.198C332.21 400.675 330.247 403.303 330.207 404.474C330.252 404.885 329.885 405.341 329.364 405.148Z" fill="#26192A"/>
<path d="M322.69 405.039C322.343 404.91 322.234 404.672 322.189 404.26C322.313 402.331 325.487 398.573 325.854 398.117C326.156 397.834 326.568 397.789 326.851 398.092C327.133 398.394 327.178 398.806 326.875 399.088C325.537 400.566 323.573 403.194 323.533 404.365C323.513 404.95 323.211 405.232 322.69 405.039C322.69 405.039 322.864 405.103 322.69 405.039Z" fill="#26192A"/>
<path d="M336.243 380.25C335.896 380.122 335.787 379.884 335.742 379.472C335.866 377.543 339.04 373.784 339.407 373.328C339.709 373.045 340.121 373.001 340.403 373.303C340.686 373.606 340.731 374.017 340.428 374.3C339.089 375.778 337.126 378.406 337.086 379.576C337.066 380.161 336.764 380.444 336.243 380.25C336.417 380.315 336.417 380.315 336.243 380.25Z" fill="#26192A"/>
<path d="M255.931 530.54C255.757 530.475 255.584 530.411 255.475 530.173C254.711 528.507 255.519 523.672 255.539 523.087C255.668 522.74 255.97 522.457 256.318 522.586C256.665 522.715 256.947 523.017 256.818 523.364C256.521 525.229 256.055 528.611 256.665 529.627C256.774 529.865 256.58 530.386 256.342 530.495C256.342 530.495 256.104 530.604 255.931 530.54Z" fill="#26192A"/>
<path d="M261.776 536.068C261.603 536.004 261.429 535.94 261.32 535.702C260.557 534.035 261.365 529.201 261.385 528.615C261.514 528.268 261.816 527.986 262.163 528.115C262.51 528.244 262.793 528.546 262.664 528.893C262.367 530.758 261.9 534.14 262.51 535.156C262.619 535.394 262.426 535.915 262.188 536.024C262.124 536.197 261.95 536.133 261.776 536.068Z" fill="#26192A"/>
<path d="M264.696 548.411C264.523 548.346 264.349 548.282 264.24 548.044C263.477 546.377 264.285 541.543 264.305 540.958C264.434 540.61 264.736 540.328 265.083 540.457C265.43 540.586 265.713 540.888 265.584 541.235C265.286 543.1 264.82 546.482 265.43 547.498C265.539 547.736 265.346 548.257 265.108 548.366C265.043 548.539 264.87 548.475 264.696 548.411Z" fill="#26192A"/>
<path d="M253.718 557.763C253.544 557.698 253.371 557.634 253.262 557.396C252.498 555.73 253.306 550.895 253.326 550.31C253.455 549.963 253.758 549.68 254.105 549.809C254.452 549.938 254.734 550.24 254.605 550.588C254.308 552.452 253.842 555.834 254.452 556.85C254.561 557.088 254.367 557.609 254.129 557.718C254.129 557.718 253.891 557.827 253.718 557.763Z" fill="#26192A"/>
<path d="M260.759 557.416C260.585 557.352 260.412 557.287 260.303 557.049C259.539 555.383 260.347 550.548 260.367 549.963C260.496 549.616 260.799 549.334 261.146 549.462C261.493 549.591 261.775 549.894 261.646 550.241C261.349 552.105 260.883 555.487 261.493 556.504C261.602 556.742 261.408 557.263 261.17 557.372C260.997 557.307 260.932 557.481 260.759 557.416Z" fill="#26192A"/>
<path d="M263.526 569.108C263.353 569.044 263.179 568.979 263.07 568.741C262.307 567.075 263.115 562.241 263.135 561.655C263.264 561.308 263.566 561.026 263.913 561.155C264.26 561.284 264.543 561.586 264.414 561.933C264.117 563.798 263.65 567.179 264.26 568.196C264.369 568.434 264.176 568.955 263.938 569.064C263.874 569.237 263.7 569.173 263.526 569.108Z" fill="#26192A"/>
<path d="M259.03 572.178C258.856 572.114 258.856 572.114 258.683 572.049C257.378 570.775 256.431 565.881 256.213 565.404C256.168 564.993 256.471 564.71 256.709 564.601C257.121 564.557 257.403 564.859 257.512 565.097C257.8 566.981 258.742 570.294 259.481 570.963C259.764 571.266 259.808 571.677 259.506 571.96C259.615 572.198 259.203 572.243 259.03 572.178Z" fill="#26192A"/>
<path d="M255.499 544.994C255.326 544.929 255.152 544.865 255.043 544.627C254.279 542.961 255.088 538.126 255.107 537.541C255.236 537.194 255.539 536.911 255.886 537.04C256.233 537.169 256.516 537.471 256.387 537.819C256.089 539.683 255.623 543.065 256.233 544.081C256.342 544.32 256.149 544.84 255.911 544.949C255.846 545.123 255.673 545.058 255.499 544.994Z" fill="#26192A"/>
<path d="M237.686 600.394C237.339 600.265 237.057 599.962 237.186 599.615C237.657 597.815 241.395 594.661 241.762 594.205C242.065 593.922 242.412 594.051 242.695 594.354C242.977 594.656 242.848 595.003 242.546 595.286C241.098 596.526 238.678 598.787 238.465 599.893C238.509 600.304 238.207 600.587 237.686 600.394Z" fill="#26192A"/>
<path d="M244.108 602.779C243.761 602.65 243.478 602.347 243.607 602C244.078 600.2 247.817 597.046 248.184 596.59C248.487 596.308 248.834 596.436 249.117 596.739C249.399 597.041 249.27 597.389 248.968 597.671C247.52 598.911 245.1 601.172 244.887 602.278C244.931 602.689 244.455 602.908 244.108 602.779Z" fill="#26192A"/>
<path d="M246.528 593.604C246.181 593.476 245.898 593.173 246.027 592.826C246.498 591.026 250.237 587.872 250.604 587.416C250.907 587.133 251.254 587.262 251.536 587.565C251.819 587.867 251.69 588.214 251.388 588.497C249.94 589.737 247.52 591.998 247.307 593.104C247.351 593.515 247.049 593.798 246.528 593.604C246.528 593.604 246.702 593.669 246.528 593.604Z" fill="#26192A"/>
<path d="M252.88 594.581C252.533 594.452 252.25 594.15 252.379 593.803C252.85 592.003 256.589 588.849 256.956 588.393C257.258 588.11 257.605 588.239 257.888 588.542C258.171 588.844 258.042 589.191 257.739 589.474C256.291 590.713 253.871 592.975 253.658 594.08C253.703 594.492 253.4 594.775 252.88 594.581C252.88 594.581 253.053 594.646 252.88 594.581Z" fill="#26192A"/>
<path d="M339.262 631.604C339.089 631.539 338.806 631.237 338.87 631.063C338.756 629.243 341.127 624.989 341.494 624.532C341.623 624.185 342.034 624.141 342.381 624.27C342.728 624.399 342.773 624.81 342.644 625.157C341.652 626.764 340.145 629.759 340.279 630.994C340.323 631.405 340.021 631.688 339.609 631.733C339.436 631.668 339.262 631.604 339.262 631.604Z" fill="#26192A"/>
<path d="M341.573 636.017C341.399 635.953 341.116 635.65 341.181 635.477C341.067 633.657 343.437 629.402 343.804 628.946C343.933 628.599 344.345 628.555 344.692 628.683C345.039 628.812 345.083 629.224 344.955 629.571C343.963 631.178 342.455 634.173 342.589 635.408C342.634 635.819 342.331 636.102 341.92 636.146C341.746 636.082 341.746 636.082 341.573 636.017Z" fill="#26192A"/>
<path d="M334.987 643.644C334.813 643.58 334.531 643.277 334.595 643.104C334.481 641.284 336.851 637.029 337.218 636.573C337.347 636.226 337.759 636.181 338.106 636.31C338.453 636.439 338.498 636.851 338.369 637.198C337.377 638.805 335.869 641.8 336.003 643.034C336.048 643.446 335.745 643.729 335.334 643.773C335.16 643.709 335.16 643.709 334.987 643.644Z" fill="#26192A"/>
<path d="M340.713 645.772C340.54 645.707 340.257 645.405 340.322 645.231C340.208 643.411 342.578 639.157 342.945 638.701C343.074 638.353 343.485 638.309 343.832 638.438C344.179 638.567 344.224 638.978 344.095 639.325C343.103 640.932 341.596 643.927 341.73 645.162C341.774 645.573 341.472 645.856 341.06 645.901C340.887 645.836 340.887 645.836 340.713 645.772Z" fill="#26192A"/>
<path d="M335.08 652.961C334.907 652.897 334.624 652.594 334.689 652.421C334.575 650.601 336.945 646.346 337.312 645.89C337.441 645.543 337.852 645.498 338.2 645.627C338.547 645.756 338.591 646.168 338.462 646.515C337.471 648.121 335.963 651.117 336.097 652.351C336.142 652.763 335.839 653.045 335.428 653.09C335.254 653.026 335.08 652.961 335.08 652.961Z" fill="#26192A"/>
<path d="M305.884 415.19C305.884 415.19 346.739 452.485 338.736 477.754C330.732 503.024 301.361 520.95 252.042 506.976L249.399 514.092C249.399 514.092 319.56 540.547 344.468 495.289C367.695 452.961 311.988 406.2 311.988 406.2C311.988 406.2 307.863 410.395 305.884 415.19Z" fill="#23454E"/>
<path d="M308.146 417.609C308.146 417.609 299.354 460.954 318.44 466.463C337.352 471.908 341.577 450.962 352.908 470.97C364.239 490.979 344.84 517.151 306.112 515.604C267.384 514.057 268.599 479.945 269.755 475.24C279.459 439.542 300.782 418.824 308.146 417.609Z" fill="#DBB06C"/>
<path d="M472.527 507.304C472.527 507.304 463.458 482.803 451.165 480.804C438.872 478.806 421.859 512.381 456.113 538.732C470.494 549.999 480.659 523.162 472.527 507.304Z" fill="#DBB06C"/>
<path d="M438.045 498.05C437.871 497.986 437.871 497.986 437.698 497.921C436.676 496.95 427.503 487.617 430.458 483.382C430.89 482.753 431.668 482.252 432.427 482.336C434.009 482.331 436.116 484.101 437.857 486.328C436.458 482.649 435.427 478.513 437.396 477.467C437.936 477.075 438.521 477.095 439.215 477.353C441.124 478.062 443.41 481.478 445.067 484.463C444.402 479.872 444.432 475.538 445.687 474.819C446.639 474.382 447.462 474.293 448.265 474.789C451.716 476.663 452.981 486.021 453.006 487.017C453.05 487.429 452.748 487.711 452.336 487.756C451.925 487.801 451.642 487.498 451.597 487.087C451.22 484.379 449.941 477.189 447.467 475.875C446.946 475.682 446.534 475.726 446.058 475.944C445.389 476.683 445.994 483.03 446.921 488.51C446.966 488.921 446.663 489.204 446.425 489.313C446.014 489.358 445.667 489.229 445.558 488.991C443.921 485.42 440.782 479.515 438.7 478.741C438.353 478.612 438.115 478.721 438.05 478.895C436.493 479.896 439.007 486.953 442.21 492.685C442.493 492.988 442.3 493.508 441.888 493.553C441.586 493.835 441.065 493.642 440.956 493.404C438.734 489.814 434.361 484.042 432.194 484.027C432.02 483.963 431.609 484.007 431.415 484.528C429.69 487.047 434.738 493.662 438.476 497.421C438.759 497.723 438.804 498.135 438.501 498.417C438.63 498.07 438.392 498.179 438.045 498.05Z" fill="#26192A"/>
<path d="M354.025 481.26C353.851 481.195 353.742 480.957 353.633 480.719C353.588 480.308 353.717 479.96 354.129 479.916C356.727 479.301 363.764 477.372 364.904 474.833C365.098 474.312 365.053 473.901 364.661 473.36C363.858 472.864 357.555 473.881 352.121 475.22C351.709 475.264 351.362 475.136 351.317 474.724C351.208 474.486 351.402 473.965 351.64 473.856C355.101 471.982 360.853 468.193 361.215 466.155C361.344 465.808 361.235 465.57 361.061 465.506C359.886 463.884 353.157 467.112 347.578 470.965C347.276 471.248 346.929 471.119 346.646 470.816C346.364 470.514 346.493 470.167 346.795 469.884C350.103 467.36 355.483 462.446 355.324 460.215C355.389 460.041 355.279 459.803 354.823 459.436C352.24 457.884 345.952 463.646 342.714 467.578C342.411 467.861 342 467.906 341.717 467.603C341.435 467.301 341.39 466.889 341.692 466.606C342.729 465.411 351.149 455.504 355.686 458.177C356.489 458.673 356.881 459.213 356.97 460.036C357.149 461.682 355.379 463.79 353.608 465.897C357.243 464.087 361.096 462.754 362.554 464.678C362.946 465.218 363.099 465.868 362.906 466.388C362.544 468.426 359.237 470.95 356.36 472.845C360.843 471.942 365.197 471.387 365.98 472.468C366.481 473.246 366.68 474.308 366.357 475.175C364.83 478.755 355.562 480.843 354.674 481.106C354.372 481.389 354.198 481.324 354.025 481.26Z" fill="#26192A"/>
<path d="M337.326 678.286C332.814 676.61 331.063 664.307 330.82 662.834C330.776 662.423 331.078 662.14 331.49 662.095C331.902 662.051 332.184 662.353 332.229 662.765C332.982 668.18 335.263 676.927 338.363 677.091C339.121 677.175 339.424 676.892 339.553 676.545C340.654 675.177 339.622 671.041 338.705 668.725L338.596 668.487C338.551 668.076 338.68 667.729 338.918 667.619C339.33 667.575 339.677 667.704 339.786 667.942C339.786 667.942 339.721 668.115 339.895 668.18C341.184 671.621 345.221 680.428 348.598 679.312C349.247 679.158 349.614 678.702 349.807 678.182C350.517 676.273 349.054 672.767 348.007 670.798C347.789 670.322 347.507 670.02 347.398 669.781C347.115 669.479 347.308 668.958 347.72 668.914C348.022 668.631 348.543 668.824 348.588 669.236C348.588 669.236 348.806 669.712 349.198 670.253C351.136 673.54 354.27 677.864 356.566 677.532C356.804 677.423 356.804 677.423 356.869 677.249C357.256 676.208 355.272 672.509 353.204 669.568C352.922 669.266 353.051 668.919 353.353 668.636C353.655 668.353 354.003 668.482 354.285 668.785C355.069 669.866 359.095 675.509 358.193 677.939C358.064 678.286 357.632 678.916 356.809 679.005C354.925 679.292 352.991 677.587 351.36 675.598C351.558 676.659 351.692 677.894 351.305 678.935C350.918 679.977 350.313 680.542 349.188 680.914C346.222 681.985 343.416 678.375 341.368 674.849C341.328 676.02 341.115 677.125 340.683 677.755C340.316 678.211 339.473 678.886 338.303 678.846C337.847 678.479 337.673 678.415 337.326 678.286Z" fill="#26192A"/>
<path d="M231.057 635.258C230.71 635.129 230.537 635.065 230.254 634.762C228.603 633.359 229.242 630.042 230.338 627.091C228.504 629.372 226.213 631.286 224.393 631.4C223.57 631.49 223.178 630.949 223.069 630.711C222.132 628.981 224.651 623.794 226.892 619.886C223.951 621.954 219.885 624.394 217.52 623.318C216.999 623.124 216.781 622.648 216.563 622.172C215.794 618.924 224.993 608.516 226.699 606.582C227.001 606.299 227.413 606.255 227.695 606.557C227.978 606.86 228.023 607.271 227.72 607.554C223.337 612.443 217.337 620.089 217.798 622.038C219.989 623.05 225.568 619.197 228.702 616.608C229.004 616.326 229.352 616.455 229.699 616.584C229.981 616.886 230.09 617.124 229.788 617.407C226.014 623.313 223.237 629.194 223.976 629.863C226.555 629.833 231.216 623.665 233.393 619.931C233.522 619.584 233.933 619.539 234.281 619.668C234.628 619.797 234.672 620.209 234.543 620.556C232.064 624.572 228.945 631.906 230.705 633.548C230.814 633.786 231.052 633.676 231.399 633.805C233.348 633.344 236.819 627.721 238.456 624.379C238.585 624.032 239.061 623.814 239.343 624.116C239.691 624.245 239.909 624.721 239.606 625.004C239.046 625.981 234.999 634.748 231.642 635.278C231.816 635.343 231.404 635.387 231.057 635.258Z" fill="#26192A"/>
<path d="M279.341 498.352L279.167 498.288C277.625 497.123 276.202 492.446 276.222 491.861C276.177 491.45 276.306 491.103 276.718 491.058C277.129 491.013 277.477 491.142 277.521 491.554C278.047 493.329 279.227 496.532 280.139 497.266C280.422 497.569 280.467 497.98 280.164 498.263C279.926 498.372 279.688 498.481 279.341 498.352Z" fill="#26192A"/>
<path d="M281.2 490.156L281.027 490.091C279.485 488.926 278.062 484.25 278.081 483.665C278.037 483.253 278.166 482.906 278.577 482.861C278.989 482.817 279.336 482.946 279.381 483.357C279.906 485.132 281.086 488.336 281.999 489.07C282.281 489.372 282.326 489.784 282.024 490.066C281.786 490.175 281.547 490.285 281.2 490.156Z" fill="#26192A"/>
<path d="M289.189 508.528C287.28 507.818 284.344 504.556 283.888 504.189C283.605 503.886 283.561 503.475 283.863 503.192C284.166 502.909 284.577 502.865 284.86 503.167C286.099 504.615 288.599 506.926 289.704 507.139C290.052 507.268 290.334 507.571 290.205 507.918C290.076 508.265 289.774 508.547 289.427 508.418C289.362 508.592 289.189 508.528 289.189 508.528Z" fill="#26192A"/>
<path d="M293.165 505.265C292.818 505.136 292.6 504.66 292.729 504.313C292.858 503.966 293.334 503.747 293.681 503.876C295.417 504.521 298.779 505.572 299.731 505.136C300.142 505.091 300.489 505.22 300.534 505.632C300.579 506.043 300.45 506.39 300.038 506.435C298.372 507.199 293.86 505.523 293.165 505.265Z" fill="#26192A"/>
<path d="M458.937 533.263C457.028 532.554 454.156 529.118 453.7 528.751C453.418 528.448 453.547 528.101 453.849 527.818C454.151 527.536 454.499 527.665 454.781 527.967C456.021 529.415 458.282 531.835 459.388 532.048C459.735 532.177 460.018 532.48 459.889 532.827C459.76 533.174 459.457 533.457 459.11 533.328C459.11 533.328 459.11 533.328 458.937 533.263Z" fill="#26192A"/>
<path d="M454.335 523.851C452.426 523.142 449.555 519.705 449.099 519.338C448.816 519.036 448.945 518.689 449.247 518.406C449.55 518.123 449.897 518.252 450.18 518.555C451.419 520.003 453.681 522.423 454.786 522.636C455.133 522.765 455.416 523.067 455.287 523.414C455.158 523.761 454.856 524.044 454.509 523.915C454.509 523.915 454.509 523.915 454.335 523.851Z" fill="#26192A"/>
<path d="M465.53 528.8C463.621 528.091 460.75 524.655 460.294 524.288C460.011 523.985 460.14 523.638 460.443 523.355C460.745 523.073 461.092 523.202 461.375 523.504C462.615 524.952 465.049 527.436 465.982 527.585C466.329 527.714 466.611 528.017 466.482 528.364C466.354 528.711 466.051 528.994 465.704 528.865C465.704 528.865 465.704 528.865 465.53 528.8Z" fill="#26192A"/>
<path d="M465.224 534.414C463.315 533.705 460.444 530.268 459.987 529.901C459.705 529.599 459.834 529.252 460.136 528.969C460.439 528.686 460.786 528.815 461.068 529.118C462.308 530.566 464.743 533.05 465.675 533.199C466.022 533.328 466.305 533.63 466.176 533.977C466.047 534.325 465.744 534.607 465.397 534.478C465.397 534.478 465.224 534.414 465.224 534.414Z" fill="#26192A"/>
<path d="M451.687 529.385C449.778 528.676 446.906 525.24 446.45 524.873C446.168 524.57 446.297 524.223 446.599 523.941C446.901 523.658 447.249 523.787 447.531 524.09C448.771 525.537 451.032 527.957 452.138 528.171C452.485 528.299 452.768 528.602 452.639 528.949C452.51 529.296 452.207 529.579 451.86 529.45C451.86 529.45 451.687 529.385 451.687 529.385Z" fill="#26192A"/>
<path d="M304.085 504.58C303.738 504.451 303.52 503.975 303.649 503.628C303.778 503.281 304.254 503.063 304.601 503.192C306.337 503.836 309.699 504.888 310.651 504.451C311.062 504.407 311.409 504.536 311.454 504.947C311.499 505.359 311.37 505.706 310.958 505.751C309.292 506.514 304.606 504.774 304.085 504.58Z" fill="#26192A"/>
<path d="M317.097 507.833C316.75 507.704 316.467 507.402 316.596 507.055C316.725 506.708 317.027 506.425 317.375 506.554C319.175 507.025 322.492 507.665 323.618 507.293C324.029 507.248 324.376 507.377 324.485 507.615C324.53 508.027 324.401 508.374 324.163 508.483C322.388 509.009 317.682 507.853 317.097 507.833Z" fill="#26192A"/>
<path d="M308.655 511.413C308.308 511.284 308.026 510.982 308.155 510.635C308.284 510.288 308.586 510.005 308.933 510.134C310.733 510.605 314.051 511.245 315.176 510.873C315.588 510.828 315.935 510.957 316.044 511.195C316.089 511.607 315.96 511.954 315.722 512.063C313.946 512.589 309.241 511.433 308.655 511.413Z" fill="#26192A"/>
<path d="M290.552 501.135C288.643 500.426 285.579 497.51 285.296 497.207C285.013 496.905 284.969 496.493 285.271 496.211C285.574 495.928 285.985 495.883 286.268 496.186C287.572 497.46 290.245 499.835 291.177 499.984C291.524 500.113 291.807 500.416 291.678 500.763C291.549 501.11 291.247 501.393 290.899 501.264C290.964 501.09 290.726 501.199 290.552 501.135Z" fill="#26192A"/>
<path d="M293.72 495.793C291.811 495.084 288.747 492.169 288.464 491.866C288.181 491.564 288.137 491.152 288.439 490.869C288.742 490.587 289.153 490.542 289.436 490.845C290.74 492.119 293.413 494.494 294.345 494.643C294.692 494.772 294.975 495.074 294.846 495.421C294.717 495.769 294.415 496.051 294.067 495.922C294.067 495.922 293.894 495.858 293.72 495.793Z" fill="#26192A"/>
<path d="M300.141 512.004C299.968 511.939 299.794 511.875 299.794 511.875C299.447 511.746 299.229 511.27 299.358 510.923C299.487 510.576 299.789 510.293 300.31 510.486C302.046 511.131 305.408 512.182 306.469 511.984C306.88 511.939 307.227 512.068 307.272 512.48C307.317 512.891 307.188 513.238 306.776 513.283C305.065 513.635 301.53 512.519 300.141 512.004Z" fill="#26192A"/>
<path d="M274.382 485.649C274.209 485.584 274.209 485.584 274.099 485.346C272.924 483.725 272.736 478.915 272.756 478.33C272.711 477.918 273.013 477.635 273.425 477.591C273.837 477.546 274.119 477.849 274.164 478.26C274.213 480.254 274.571 483.546 275.245 484.389C275.528 484.692 275.399 485.039 275.096 485.321C274.794 485.604 274.556 485.713 274.382 485.649Z" fill="#26192A"/>
<path d="M408.877 560.094C408.53 559.965 408.312 559.489 408.441 559.142C409.259 557.471 410.484 554.174 410.285 553.112C410.241 552.701 410.543 552.418 410.781 552.309C411.193 552.264 411.475 552.567 411.585 552.805C411.872 554.689 410.023 559.137 409.656 559.593C409.636 560.179 409.224 560.223 408.877 560.094Z" fill="#26192A"/>
<path d="M481.498 273.58C481.424 251.753 499.07 233.96 520.898 233.887C524.383 233.887 527.794 234.327 531.023 235.171C534.728 212.463 554.391 195.074 578.163 195C596.066 194.927 611.694 204.685 619.985 219.213C624.937 214.003 631.907 210.702 639.685 210.702C654.726 210.628 666.979 222.808 667.052 237.849C667.052 238.142 667.052 238.436 667.015 238.729C669.693 238.142 672.445 237.849 675.306 237.812C697.134 237.739 714.926 255.384 715 277.212C715.073 295.115 703.224 310.266 686.972 315.182C687.669 318.447 688.073 321.785 688.073 325.27C688.183 351.757 666.795 373.328 640.308 373.401C625.304 373.474 611.877 366.614 603.036 355.829C596.139 367.165 583.666 374.758 569.396 374.832C551.64 374.905 536.599 363.239 531.536 347.171C527.684 349.262 523.319 350.436 518.623 350.473C503.582 350.546 491.329 338.367 491.256 323.326C491.219 316.502 493.714 310.266 497.823 305.46C487.991 298.27 481.534 286.677 481.498 273.58ZM540.891 307.624C540.891 307.661 540.928 307.661 540.928 307.698C540.965 307.624 541.038 307.588 541.075 307.514C541.001 307.551 540.965 307.588 540.891 307.624Z" fill="#001977"/>
<path d="M636.346 218.956C649.993 218.919 661.072 229.925 661.109 243.535C661.109 244.305 661.072 245.113 660.999 245.883C664.484 244.746 668.226 244.159 672.077 244.122C692.254 244.049 708.689 260.337 708.763 280.551C708.799 285.87 707.662 290.932 705.608 295.518C706.085 293.17 706.305 290.749 706.305 288.254C706.232 268.078 689.797 251.753 669.62 251.826C665.951 251.826 662.393 252.413 659.054 253.403C657.99 253.734 656.926 254.1 655.899 254.541C656.156 253 656.303 251.422 656.303 249.808C656.303 249.111 656.266 248.451 656.229 247.791C655.129 233.63 643.28 222.478 628.825 222.514C626.588 222.514 624.423 222.808 622.332 223.321C626.331 220.607 631.137 218.993 636.346 218.956Z" fill="#7379EC"/>
<path d="M481.498 273.58C481.462 263.198 485.424 253.77 491.917 246.69L492.467 247.093C492.467 247.093 519.798 372.557 681.91 349.005C673.729 363.533 658.175 373.364 640.309 373.438C625.305 373.511 611.878 366.651 603.037 355.865C596.14 367.201 583.667 374.795 569.396 374.868C551.641 374.942 536.6 363.276 531.537 347.208C527.685 349.299 523.32 350.473 518.624 350.509C503.583 350.583 491.33 338.403 491.257 323.362C491.22 316.539 493.714 310.302 497.823 305.497C487.992 298.27 481.572 286.677 481.498 273.58Z" fill="#000E67"/>
<path d="M545.404 384.664C546.872 393.762 540.672 402.346 531.537 403.813C527.795 404.4 524.163 403.703 521.045 402.052C519.688 406.785 515.689 410.563 510.516 411.37C503.363 412.508 496.649 407.665 495.512 400.512C495.329 399.448 495.292 398.421 495.402 397.393C489.129 398.017 483.406 393.651 482.379 387.342C481.315 380.812 485.791 374.648 492.321 373.585C493.678 373.364 494.999 373.401 496.283 373.621C497.566 366.945 502.923 361.442 510.04 360.304C517.89 359.057 525.337 363.496 528.199 370.576C536.563 370.283 544.047 376.226 545.404 384.664Z" fill="#001977"/>
<path d="M525.264 376.519C522.293 368.852 514.442 363.899 505.968 364.89C507.508 364.046 509.196 363.423 511.067 363.166C518.111 362.139 524.714 366.174 527.172 372.521C534.656 372.264 541.296 377.693 542.396 385.25C542.506 385.911 542.543 386.571 542.543 387.195C539.535 380.628 532.711 376.299 525.264 376.519Z" fill="#7379EC"/>
<path d="M482.416 387.415C481.756 383.233 483.333 379.234 486.232 376.593C490.23 385.14 504.134 406.674 541.076 398.787C538.618 401.392 535.353 403.226 531.575 403.813C527.833 404.4 524.201 403.703 521.083 402.052C519.725 406.785 515.727 410.563 510.554 411.37C503.4 412.507 496.687 407.665 495.55 400.511C495.366 399.447 495.33 398.42 495.44 397.393C489.166 398.053 483.407 393.688 482.416 387.415Z" fill="#000E67"/>
<path d="M445.546 405.134C447.197 400.438 452.113 397.834 456.809 398.971C456.882 398.714 456.919 398.494 457.029 398.237C458.349 394.422 462.531 392.404 466.347 393.762C469.172 394.752 471.006 397.32 471.226 400.145C472.07 400.218 472.877 400.365 473.72 400.658C478.71 402.419 481.351 407.885 479.627 412.875C477.866 417.864 472.4 420.505 467.411 418.781C467.301 418.744 467.227 418.708 467.117 418.671C465.907 420.799 463.339 421.826 460.954 420.982C459.266 420.395 458.093 419.038 457.652 417.424C455.708 418.084 453.544 418.121 451.452 417.387C446.427 415.589 443.785 410.123 445.546 405.134Z" fill="#001977"/>
<path d="M470.712 403.923C469.905 403.63 469.062 403.483 468.254 403.41C468.071 400.622 466.237 398.054 463.412 397.063C462.128 396.623 460.807 396.549 459.56 396.806C461.284 395.449 463.632 394.972 465.833 395.742C468.401 396.623 470.052 398.971 470.235 401.502C470.969 401.539 471.74 401.685 472.473 401.942C476.986 403.52 479.37 408.472 477.793 412.984C477.573 413.645 477.242 414.268 476.876 414.855C477.866 410.27 475.298 405.537 470.712 403.923Z" fill="#7379EC"/>
<path d="M445.547 405.134C445.84 404.327 446.244 403.556 446.684 402.859C449.766 408.105 455.892 415.479 467.008 418.744C465.761 420.762 463.229 421.752 460.918 420.908C459.231 420.321 458.057 418.964 457.616 417.35C455.672 418.01 453.508 418.047 451.417 417.313C446.427 415.589 443.786 410.123 445.547 405.134Z" fill="#000E67"/>
<path d="M567.031 231.876C567.031 233.48 566.462 234.798 565.323 235.829C564.185 236.86 562.724 237.376 560.94 237.376C559.157 237.376 557.696 236.86 556.558 235.829C555.419 234.798 554.85 233.48 554.85 231.876V222.326H559.77V230.791C559.77 232.288 560.16 233.036 560.94 233.036C561.714 233.036 562.101 232.288 562.101 230.791V222.326H567.031V231.876ZM577.645 233.176C577.645 234.458 577.115 235.464 576.055 236.194C574.995 236.925 573.537 237.29 571.683 237.29C570.322 237.29 569.065 237.143 567.912 236.85V232.596C568.549 232.746 569.276 232.821 570.093 232.821C571.017 232.821 571.479 232.571 571.479 232.069C571.479 231.733 571.163 231.124 570.533 230.243L569.438 228.729C568.614 227.561 568.202 226.505 568.202 225.56C568.202 224.45 568.65 223.587 569.545 222.971C570.44 222.348 571.693 222.036 573.305 222.036C574.493 222.036 575.485 222.161 576.28 222.412V226.376L576.119 226.354C576.012 226.354 575.883 226.351 575.732 226.344C575.589 226.337 575.5 226.333 575.464 226.333C574.755 226.333 574.4 226.551 574.4 226.988C574.4 227.139 574.44 227.271 574.519 227.386C574.519 227.386 574.604 227.518 574.776 227.783C574.948 227.984 575.249 228.36 575.679 228.911C576.116 229.455 576.463 229.928 576.721 230.329C577.337 231.296 577.645 232.245 577.645 233.176ZM587.388 237H578.59V222.326H587.237V226.172H583.273V227.805H587.162V231.457H583.273V233.154H587.388V237ZM602.631 226.15H599.902V237H595.068V226.15H592.361V222.326H602.631V226.15ZM615.457 237H610.773V231.564H608.131V237H603.447V222.326H608.131V227.321H610.773V222.326H615.457V237ZM622.063 237H617.09V222.326H622.063V237ZM632.752 233.176C632.752 234.458 632.222 235.464 631.162 236.194C630.102 236.925 628.645 237.29 626.79 237.29C625.429 237.29 624.173 237.143 623.02 236.85V232.596C623.657 232.746 624.384 232.821 625.2 232.821C626.124 232.821 626.586 232.571 626.586 232.069C626.586 231.733 626.271 231.124 625.641 230.243L624.545 228.729C623.721 227.561 623.31 226.505 623.31 225.56C623.31 224.45 623.757 223.587 624.652 222.971C625.548 222.348 626.801 222.036 628.412 222.036C629.601 222.036 630.593 222.161 631.388 222.412V226.376L631.227 226.354C631.119 226.354 630.99 226.351 630.84 226.344C630.697 226.337 630.607 226.333 630.571 226.333C629.862 226.333 629.508 226.551 629.508 226.988C629.508 227.139 629.547 227.271 629.626 227.386C629.626 227.386 629.712 227.518 629.884 227.783C630.056 227.984 630.356 228.36 630.786 228.911C631.223 229.455 631.57 229.928 631.828 230.329C632.444 231.296 632.752 232.245 632.752 233.176ZM508.357 259.571C506.66 260.774 504.841 261.376 502.9 261.376C500.566 261.376 498.571 260.624 496.917 259.12C495.263 257.616 494.436 255.801 494.436 253.674C494.436 251.54 495.259 249.724 496.906 248.228C498.561 246.724 500.559 245.972 502.9 245.972C504.762 245.972 506.467 246.494 508.014 247.54L505.607 251.719C504.913 250.967 503.996 250.591 502.857 250.591C501.948 250.591 501.164 250.895 500.505 251.504C499.846 252.105 499.517 252.829 499.517 253.674C499.517 254.519 499.846 255.246 500.505 255.854C501.164 256.456 501.955 256.757 502.879 256.757C503.86 256.757 504.823 256.338 505.769 255.5L508.357 259.571ZM523.912 253.674C523.912 255.794 523.157 257.609 521.646 259.12C520.142 260.624 518.33 261.376 516.21 261.376C514.104 261.376 512.293 260.628 510.774 259.131C509.263 257.634 508.508 255.851 508.508 253.781C508.508 251.618 509.249 249.778 510.731 248.26C512.214 246.734 514.019 245.972 516.146 245.972C518.301 245.972 520.134 246.72 521.646 248.217C523.157 249.714 523.912 251.533 523.912 253.674ZM519.282 253.674C519.282 252.822 518.981 252.095 518.38 251.493C517.778 250.892 517.055 250.591 516.21 250.591C515.372 250.591 514.649 250.892 514.04 251.493C513.431 252.088 513.127 252.8 513.127 253.631C513.127 254.497 513.424 255.235 514.019 255.844C514.613 256.452 515.336 256.757 516.188 256.757C517.048 256.757 517.778 256.46 518.38 255.865C518.981 255.264 519.282 254.533 519.282 253.674ZM540.562 261H535.857V255.715L532.871 260.119L529.853 255.715V261H525.169V246.326H529.036L532.871 251.912L536.674 246.326H540.562V261ZM553.539 251.912C553.539 253.015 553.288 254.007 552.787 254.888C552.257 255.819 551.545 256.478 550.649 256.864C549.761 257.251 548.479 257.455 546.804 257.477V261H542.185V246.326H546.804C548.229 246.326 549.432 246.502 550.413 246.853C551.344 247.189 552.096 247.823 552.669 248.754C553.249 249.685 553.539 250.738 553.539 251.912ZM548.737 251.912C548.737 250.852 548.093 250.312 546.804 250.29V253.523C548.093 253.502 548.737 252.965 548.737 251.912ZM567.053 261H561.725L559.351 257.391V261H554.667V246.326H559.855C561.66 246.326 563.114 246.767 564.217 247.647C564.868 248.17 565.388 248.829 565.774 249.624C566.168 250.419 566.365 251.225 566.365 252.041C566.365 253.144 566.086 254.093 565.527 254.888C565.27 255.26 564.861 255.683 564.303 256.155L567.053 261ZM561.51 251.912C561.51 251.268 561.245 250.799 560.715 250.505C560.45 250.362 560.067 250.29 559.565 250.29H559.351V253.523H559.565C560.081 253.523 560.464 253.448 560.715 253.298C561.245 252.997 561.51 252.535 561.51 251.912ZM576.441 261H567.644V246.326H576.291V250.172H572.327V251.805H576.216V255.457H572.327V257.154H576.441V261ZM589.837 261H585.153V255.564H582.511V261H577.827V246.326H582.511V251.321H585.153V246.326H589.837V261ZM600.268 261H591.47V246.326H600.117V250.172H596.153V251.805H600.042V255.457H596.153V257.154H600.268V261ZM614.189 261H610.301L606.272 255.371V261H601.653V246.326H605.521L609.57 251.977V246.326H614.189V261ZM624.878 257.176C624.878 258.458 624.348 259.464 623.288 260.194C622.228 260.925 620.771 261.29 618.916 261.29C617.555 261.29 616.299 261.143 615.146 260.85V256.596C615.783 256.746 616.51 256.821 617.326 256.821C618.25 256.821 618.712 256.571 618.712 256.069C618.712 255.733 618.397 255.124 617.767 254.243L616.671 252.729C615.847 251.561 615.436 250.505 615.436 249.56C615.436 248.45 615.883 247.587 616.778 246.971C617.674 246.348 618.927 246.036 620.538 246.036C621.727 246.036 622.719 246.161 623.514 246.412V250.376L623.353 250.354C623.245 250.354 623.116 250.351 622.966 250.344C622.823 250.337 622.733 250.333 622.697 250.333C621.988 250.333 621.634 250.551 621.634 250.988C621.634 251.139 621.673 251.271 621.752 251.386C621.752 251.386 621.838 251.518 622.01 251.783C622.182 251.984 622.482 252.36 622.912 252.911C623.349 253.455 623.696 253.928 623.954 254.329C624.57 255.296 624.878 256.245 624.878 257.176ZM630.797 261H625.823V246.326H630.797V261ZM647.447 253.674C647.447 255.794 646.692 257.609 645.181 259.12C643.677 260.624 641.865 261.376 639.745 261.376C637.64 261.376 635.828 260.628 634.31 259.131C632.799 257.634 632.043 255.851 632.043 253.781C632.043 251.618 632.784 249.778 634.267 248.26C635.749 246.734 637.554 245.972 639.681 245.972C641.836 245.972 643.67 246.72 645.181 248.217C646.692 249.714 647.447 251.533 647.447 253.674ZM642.817 253.674C642.817 252.822 642.517 252.095 641.915 251.493C641.313 250.892 640.59 250.591 639.745 250.591C638.907 250.591 638.184 250.892 637.575 251.493C636.966 252.088 636.662 252.8 636.662 253.631C636.662 254.497 636.959 255.235 637.554 255.844C638.148 256.452 638.871 256.757 639.724 256.757C640.583 256.757 641.313 256.46 641.915 255.865C642.517 255.264 642.817 254.533 642.817 253.674ZM661.24 261H657.352L653.323 255.371V261H648.704V246.326H652.571L656.621 251.977V246.326H661.24V261ZM676.72 250.15H673.991V261H669.157V250.15H666.45V246.326H676.72V250.15ZM692.564 253.674C692.564 255.794 691.809 257.609 690.298 259.12C688.794 260.624 686.982 261.376 684.862 261.376C682.757 261.376 680.945 260.628 679.427 259.131C677.916 257.634 677.16 255.851 677.16 253.781C677.16 251.618 677.901 249.778 679.384 248.26C680.866 246.734 682.671 245.972 684.798 245.972C686.953 245.972 688.787 246.72 690.298 248.217C691.809 249.714 692.564 251.533 692.564 253.674ZM687.935 253.674C687.935 252.822 687.634 252.095 687.032 251.493C686.431 250.892 685.707 250.591 684.862 250.591C684.024 250.591 683.301 250.892 682.692 251.493C682.084 252.088 681.779 252.8 681.779 253.631C681.779 254.497 682.076 255.235 682.671 255.844C683.265 256.452 683.989 256.757 684.841 256.757C685.7 256.757 686.431 256.46 687.032 255.865C687.634 255.264 687.935 254.533 687.935 253.674ZM548.222 285H543.603L543.119 283.679H538.683L538.188 285H533.569L539.145 270.326H542.657L548.222 285ZM541.895 280.445L540.896 277.867L539.907 280.445H541.895ZM561.306 285H557.417L553.389 279.371V285H548.77V270.326H552.637L556.687 275.977V270.326H561.306V285ZM571.994 281.176C571.994 282.458 571.464 283.464 570.404 284.194C569.344 284.925 567.887 285.29 566.032 285.29C564.672 285.29 563.415 285.143 562.262 284.85V280.596C562.899 280.746 563.626 280.821 564.442 280.821C565.366 280.821 565.828 280.571 565.828 280.069C565.828 279.733 565.513 279.124 564.883 278.243L563.787 276.729C562.964 275.561 562.552 274.505 562.552 273.56C562.552 272.45 562.999 271.587 563.895 270.971C564.79 270.348 566.043 270.036 567.654 270.036C568.843 270.036 569.835 270.161 570.63 270.412V274.376L570.469 274.354C570.361 274.354 570.232 274.351 570.082 274.344C569.939 274.337 569.849 274.333 569.813 274.333C569.104 274.333 568.75 274.551 568.75 274.988C568.75 275.139 568.789 275.271 568.868 275.386C568.868 275.386 568.954 275.518 569.126 275.783C569.298 275.984 569.599 276.36 570.028 276.911C570.465 277.455 570.812 277.928 571.07 278.329C571.686 279.296 571.994 280.245 571.994 281.176ZM591.771 270.326L586.926 285H583.273L581.802 280.553L580.33 285H576.678L571.833 270.326H576.807L578.504 275.45L580.201 270.326H583.413L585.1 275.45L586.797 270.326H591.771ZM601.095 285H592.297V270.326H600.944V274.172H596.98V275.805H600.869V279.457H596.98V281.154H601.095V285ZM614.866 285H609.538L607.164 281.391V285H602.48V270.326H607.669C609.474 270.326 610.927 270.767 612.03 271.647C612.682 272.17 613.201 272.829 613.588 273.624C613.982 274.419 614.179 275.225 614.179 276.041C614.179 277.144 613.899 278.093 613.341 278.888C613.083 279.26 612.675 279.683 612.116 280.155L614.866 285ZM609.323 275.912C609.323 275.268 609.058 274.799 608.528 274.505C608.263 274.362 607.88 274.29 607.379 274.29H607.164V277.523H607.379C607.895 277.523 608.278 277.448 608.528 277.298C609.058 276.997 609.323 276.535 609.323 275.912ZM629.314 274.15H626.586V285H621.752V274.15H619.045V270.326H629.314V274.15ZM642.141 285H637.457V279.564H634.814V285H630.131V270.326H634.814V275.321H637.457V270.326H642.141V285ZM652.571 285H643.773V270.326H652.421V274.172H648.457V275.805H652.346V279.457H648.457V281.154H652.571V285ZM544.247 298.172H540.283V299.805H544.172V303.457H540.283V309H535.6V294.326H544.247V298.172ZM560.532 301.674C560.532 303.794 559.777 305.609 558.266 307.12C556.762 308.624 554.95 309.376 552.83 309.376C550.725 309.376 548.913 308.628 547.395 307.131C545.883 305.634 545.128 303.851 545.128 301.781C545.128 299.618 545.869 297.778 547.352 296.26C548.834 294.734 550.639 293.972 552.766 293.972C554.921 293.972 556.755 294.72 558.266 296.217C559.777 297.714 560.532 299.533 560.532 301.674ZM555.902 301.674C555.902 300.822 555.602 300.095 555 299.493C554.398 298.892 553.675 298.591 552.83 298.591C551.992 298.591 551.269 298.892 550.66 299.493C550.051 300.088 549.747 300.8 549.747 301.631C549.747 302.497 550.044 303.235 550.639 303.844C551.233 304.452 551.956 304.757 552.809 304.757C553.668 304.757 554.398 304.46 555 303.865C555.602 303.264 555.902 302.533 555.902 301.674ZM570.716 309H561.789V294.326H566.623V305.197H570.716V309ZM580.47 309H571.543V294.326H576.377V305.197H580.47V309ZM596.325 301.674C596.325 303.794 595.57 305.609 594.059 307.12C592.555 308.624 590.743 309.376 588.623 309.376C586.518 309.376 584.706 308.628 583.188 307.131C581.676 305.634 580.921 303.851 580.921 301.781C580.921 299.618 581.662 297.778 583.145 296.26C584.627 294.734 586.432 293.972 588.559 293.972C590.714 293.972 592.548 294.72 594.059 296.217C595.57 297.714 596.325 299.533 596.325 301.674ZM591.695 301.674C591.695 300.822 591.395 300.095 590.793 299.493C590.191 298.892 589.468 298.591 588.623 298.591C587.785 298.591 587.062 298.892 586.453 299.493C585.844 300.088 585.54 300.8 585.54 301.631C585.54 302.497 585.837 303.235 586.432 303.844C587.026 304.452 587.749 304.757 588.602 304.757C589.461 304.757 590.191 304.46 590.793 303.865C591.395 303.264 591.695 302.533 591.695 301.674ZM616.413 294.326L611.568 309H607.916L606.444 304.553L604.973 309H601.32L596.476 294.326H601.449L603.146 299.45L604.844 294.326H608.056L609.742 299.45L611.439 294.326H616.413ZM621.913 309H616.939V294.326H621.913V309ZM636.071 309H632.183L628.154 303.371V309H623.535V294.326H627.402L631.452 299.977V294.326H636.071V309ZM651.766 305.369C651.042 306.637 650.09 307.621 648.908 308.323C647.734 309.025 646.438 309.376 645.02 309.376C642.893 309.376 641.077 308.624 639.573 307.12C638.069 305.609 637.317 303.794 637.317 301.674C637.317 299.554 638.069 297.742 639.573 296.238C641.077 294.727 642.885 293.972 644.998 293.972C646.165 293.972 647.25 294.208 648.253 294.681C648.64 294.86 649.102 295.139 649.639 295.519L646.996 299.321C646.402 298.834 645.75 298.591 645.041 298.591C644.182 298.591 643.448 298.892 642.839 299.493C642.237 300.088 641.937 300.814 641.937 301.674C641.937 302.519 642.237 303.246 642.839 303.854C643.44 304.456 644.167 304.757 645.02 304.757C645.972 304.757 646.778 304.359 647.437 303.564H646.115V300.481H651.766V305.369ZM516.146 329.326L514.158 333.15H509.829C509.17 333.301 508.569 333.376 508.024 333.376C505.89 333.376 504.068 332.624 502.557 331.12C501.053 329.616 500.301 327.801 500.301 325.674C500.301 323.54 501.053 321.724 502.557 320.228C504.061 318.724 505.876 317.972 508.003 317.972C510.13 317.972 511.945 318.724 513.449 320.228C514.953 321.724 515.705 323.54 515.705 325.674C515.705 326.454 515.644 327.081 515.522 327.554C515.401 328.019 515.154 328.61 514.781 329.326H516.146ZM511.075 325.674C511.075 324.822 510.774 324.095 510.173 323.493C509.571 322.892 508.848 322.591 508.003 322.591C507.165 322.591 506.442 322.892 505.833 323.493C505.224 324.088 504.92 324.8 504.92 325.631C504.92 326.497 505.217 327.235 505.812 327.844C506.406 328.452 507.129 328.757 507.981 328.757C508.841 328.757 509.571 328.46 510.173 327.865C510.774 327.264 511.075 326.533 511.075 325.674ZM529.122 327.876C529.122 329.48 528.553 330.798 527.414 331.829C526.275 332.86 524.814 333.376 523.031 333.376C521.248 333.376 519.787 332.86 518.648 331.829C517.51 330.798 516.94 329.48 516.94 327.876V318.326H521.86V326.791C521.86 328.288 522.251 329.036 523.031 329.036C523.805 329.036 524.191 328.288 524.191 326.791V318.326H529.122V327.876ZM539.467 333H530.669V318.326H539.316V322.172H535.353V323.805H539.241V327.457H535.353V329.154H539.467V333ZM549.919 329.176C549.919 330.458 549.389 331.464 548.329 332.194C547.269 332.925 545.812 333.29 543.957 333.29C542.596 333.29 541.34 333.143 540.187 332.85V328.596C540.824 328.746 541.551 328.821 542.367 328.821C543.291 328.821 543.753 328.571 543.753 328.069C543.753 327.733 543.438 327.124 542.808 326.243L541.712 324.729C540.888 323.561 540.477 322.505 540.477 321.56C540.477 320.45 540.924 319.587 541.819 318.971C542.715 318.348 543.968 318.036 545.579 318.036C546.768 318.036 547.76 318.161 548.555 318.412V322.376L548.394 322.354C548.286 322.354 548.157 322.351 548.007 322.344C547.864 322.337 547.774 322.333 547.738 322.333C547.029 322.333 546.675 322.551 546.675 322.988C546.675 323.139 546.714 323.271 546.793 323.386C546.793 323.386 546.879 323.518 547.051 323.783C547.223 323.984 547.523 324.36 547.953 324.911C548.39 325.455 548.737 325.928 548.995 326.329C549.611 327.296 549.919 328.245 549.919 329.176ZM560.317 322.15H557.589V333H552.755V322.15H550.048V318.326H560.317V322.15ZM566.107 333H561.134V318.326H566.107V333ZM582.758 325.674C582.758 327.794 582.002 329.609 580.491 331.12C578.987 332.624 577.175 333.376 575.056 333.376C572.95 333.376 571.138 332.628 569.62 331.131C568.109 329.634 567.354 327.851 567.354 325.781C567.354 323.618 568.095 321.778 569.577 320.26C571.06 318.734 572.864 317.972 574.991 317.972C577.147 317.972 578.98 318.72 580.491 320.217C582.002 321.714 582.758 323.533 582.758 325.674ZM578.128 325.674C578.128 324.822 577.827 324.095 577.226 323.493C576.624 322.892 575.901 322.591 575.056 322.591C574.218 322.591 573.494 322.892 572.886 323.493C572.277 324.088 571.973 324.8 571.973 325.631C571.973 326.497 572.27 327.235 572.864 327.844C573.459 328.452 574.182 328.757 575.034 328.757C575.894 328.757 576.624 328.46 577.226 327.865C577.827 327.264 578.128 326.533 578.128 325.674ZM596.551 333H592.662L588.634 327.371V333H584.015V318.326H587.882L591.932 323.977V318.326H596.551V333ZM607.239 329.176C607.239 330.458 606.709 331.464 605.649 332.194C604.59 332.925 603.132 333.29 601.277 333.29C599.917 333.29 598.66 333.143 597.507 332.85V328.596C598.144 328.746 598.871 328.821 599.688 328.821C600.611 328.821 601.073 328.571 601.073 328.069C601.073 327.733 600.758 327.124 600.128 326.243L599.032 324.729C598.209 323.561 597.797 322.505 597.797 321.56C597.797 320.45 598.244 319.587 599.14 318.971C600.035 318.348 601.288 318.036 602.899 318.036C604.088 318.036 605.08 318.161 605.875 318.412V322.376L605.714 322.354C605.606 322.354 605.478 322.351 605.327 322.344C605.184 322.337 605.094 322.333 605.059 322.333C604.35 322.333 603.995 322.551 603.995 322.988C603.995 323.139 604.035 323.271 604.113 323.386C604.113 323.386 604.199 323.518 604.371 323.783C604.543 323.984 604.844 324.36 605.273 324.911C605.71 325.455 606.058 325.928 606.315 326.329C606.931 327.296 607.239 328.245 607.239 329.176ZM627.617 325.674C627.617 327.794 626.862 329.609 625.351 331.12C623.847 332.624 622.035 333.376 619.915 333.376C617.81 333.376 615.998 332.628 614.479 331.131C612.968 329.634 612.213 327.851 612.213 325.781C612.213 323.618 612.954 321.778 614.437 320.26C615.919 318.734 617.724 317.972 619.851 317.972C622.006 317.972 623.84 318.72 625.351 320.217C626.862 321.714 627.617 323.533 627.617 325.674ZM622.987 325.674C622.987 324.822 622.687 324.095 622.085 323.493C621.483 322.892 620.76 322.591 619.915 322.591C619.077 322.591 618.354 322.892 617.745 323.493C617.136 324.088 616.832 324.8 616.832 325.631C616.832 326.497 617.129 327.235 617.724 327.844C618.318 328.452 619.041 328.757 619.894 328.757C620.753 328.757 621.483 328.46 622.085 327.865C622.687 327.264 622.987 326.533 622.987 325.674ZM641.41 333H637.521L633.493 327.371V333H628.874V318.326H632.741L636.791 323.977V318.326H641.41V333ZM656.89 322.15H654.161V333H649.327V322.15H646.62V318.326H656.89V322.15ZM669.716 333H665.032V327.564H662.39V333H657.706V318.326H662.39V323.321H665.032V318.326H669.716V333ZM676.322 333H671.349V318.326H676.322V333ZM687.011 329.176C687.011 330.458 686.481 331.464 685.421 332.194C684.361 332.925 682.904 333.29 681.049 333.29C679.688 333.29 678.431 333.143 677.278 332.85V328.596C677.916 328.746 678.643 328.821 679.459 328.821C680.383 328.821 680.845 328.571 680.845 328.069C680.845 327.733 680.53 327.124 679.899 326.243L678.804 324.729C677.98 323.561 677.568 322.505 677.568 321.56C677.568 320.45 678.016 319.587 678.911 318.971C679.806 318.348 681.06 318.036 682.671 318.036C683.86 318.036 684.852 318.161 685.646 318.412V322.376L685.485 322.354C685.378 322.354 685.249 322.351 685.099 322.344C684.955 322.337 684.866 322.333 684.83 322.333C684.121 322.333 683.767 322.551 683.767 322.988C683.767 323.139 683.806 323.271 683.885 323.386C683.885 323.386 683.971 323.518 684.143 323.783C684.314 323.984 684.615 324.36 685.045 324.911C685.482 325.455 685.829 325.928 686.087 326.329C686.703 327.296 687.011 328.245 687.011 329.176ZM562.595 353.176C562.595 354.458 562.065 355.464 561.005 356.194C559.945 356.925 558.488 357.29 556.633 357.29C555.272 357.29 554.015 357.143 552.862 356.85V352.596C553.5 352.746 554.227 352.821 555.043 352.821C555.967 352.821 556.429 352.571 556.429 352.069C556.429 351.733 556.114 351.124 555.483 350.243L554.388 348.729C553.564 347.561 553.152 346.505 553.152 345.56C553.152 344.45 553.6 343.587 554.495 342.971C555.39 342.348 556.644 342.036 558.255 342.036C559.444 342.036 560.436 342.161 561.23 342.412V346.376L561.069 346.354C560.962 346.354 560.833 346.351 560.683 346.344C560.539 346.337 560.45 346.333 560.414 346.333C559.705 346.333 559.351 346.551 559.351 346.988C559.351 347.139 559.39 347.271 559.469 347.386C559.469 347.386 559.555 347.518 559.727 347.783C559.898 347.984 560.199 348.36 560.629 348.911C561.066 349.455 561.413 349.928 561.671 350.329C562.287 351.296 562.595 352.245 562.595 353.176ZM572.338 357H563.54V342.326H572.188V346.172H568.224V347.805H572.112V351.457H568.224V353.154H572.338V357ZM587.27 355.571C585.572 356.774 583.753 357.376 581.812 357.376C579.478 357.376 577.483 356.624 575.829 355.12C574.175 353.616 573.348 351.801 573.348 349.674C573.348 347.54 574.171 345.724 575.818 344.228C577.473 342.724 579.471 341.972 581.812 341.972C583.674 341.972 585.379 342.494 586.926 343.54L584.52 347.719C583.825 346.967 582.908 346.591 581.77 346.591C580.86 346.591 580.076 346.895 579.417 347.504C578.758 348.105 578.429 348.829 578.429 349.674C578.429 350.519 578.758 351.246 579.417 351.854C580.076 352.456 580.867 352.757 581.791 352.757C582.772 352.757 583.735 352.338 584.681 351.5L587.27 355.571ZM597.249 346.15H594.521V357H589.687V346.15H586.979V342.326H597.249V346.15ZM603.039 357H598.065V342.326H603.039V357ZM619.689 349.674C619.689 351.794 618.934 353.609 617.423 355.12C615.919 356.624 614.107 357.376 611.987 357.376C609.882 357.376 608.07 356.628 606.552 355.131C605.041 353.634 604.285 351.851 604.285 349.781C604.285 347.618 605.026 345.778 606.509 344.26C607.991 342.734 609.796 341.972 611.923 341.972C614.078 341.972 615.912 342.72 617.423 344.217C618.934 345.714 619.689 347.533 619.689 349.674ZM615.06 349.674C615.06 348.822 614.759 348.095 614.157 347.493C613.556 346.892 612.832 346.591 611.987 346.591C611.149 346.591 610.426 346.892 609.817 347.493C609.209 348.088 608.904 348.8 608.904 349.631C608.904 350.497 609.201 351.235 609.796 351.844C610.39 352.452 611.114 352.757 611.966 352.757C612.825 352.757 613.556 352.46 614.157 351.865C614.759 351.264 615.06 350.533 615.06 349.674ZM633.482 357H629.594L625.565 351.371V357H620.946V342.326H624.813L628.863 347.977V342.326H633.482V357Z" fill="white"/>
</svg>
