<svg width="49" height="75" viewBox="0 0 49 75" fill="none" xmlns="http://www.w3.org/2000/svg">
<path d="M16.7588 72.867C16.7588 72.867 4.23313 75.124 2.5741 72.7849C1.24687 70.9383 12.238 71.759 12.238 71.759C12.238 71.759 5.60183 71.0204 4.9797 62.7721C4.19165 52.7183 14.6436 51.6924 14.6436 51.6924C14.6436 51.6924 17.2565 70.4459 16.7588 72.867Z" fill="#F0AFB6"/>
<path d="M40.0007 55.1135C40.0007 55.1135 39.7153 52.8345 42.2837 52.9944C44.852 53.1543 46.2788 55.4334 44.8112 55.7532C43.3436 56.0731 44.2405 50.9553 46.605 52.9944C48.9695 55.0336 47.3796 60.3113 44.9335 59.0719C42.4875 57.8324 46.8088 55.5134 47.7872 58.2722C48.7656 61.031 46.2381 62.6704 43.5067 62.0706C40.7753 61.4709 42.2837 59.2318 44.0367 60.2314C45.7896 61.231 42.406 63.9498 39.7969 62.1906" fill="white"/>
<path d="M41.4433 63.1796C40.7524 63.1796 40.0616 62.9783 39.4521 62.5756C39.3708 62.5353 39.3708 62.4547 39.4115 62.3742C39.4521 62.2937 39.5334 62.2937 39.6146 62.3339C41.1182 63.3407 42.5404 62.7366 42.9874 62.495C43.0281 62.495 43.0687 62.4548 43.1093 62.4548C42.0122 62.1729 41.7277 61.6494 41.6464 61.3272C41.5652 60.9648 41.7277 60.5621 42.0934 60.3204C42.4592 60.0386 43.15 59.9177 43.8814 60.3204C44.3284 60.6023 44.4503 60.9245 44.4503 61.2064C44.4503 61.5688 44.2471 61.9312 43.8814 62.2534C45.1411 62.3742 46.3602 62.0118 47.051 61.2467C47.7012 60.5218 47.8231 59.5553 47.4574 58.5083C47.4167 58.3875 47.3761 58.2667 47.2948 58.1459C47.2136 58.3069 47.1323 58.5083 47.0104 58.6694C46.4008 59.5553 45.5475 59.8372 44.6941 59.3942C43.8408 58.9915 43.8408 58.468 43.8814 58.1861C44.0033 57.5821 44.7754 57.0586 45.6694 57.0183C46.2789 56.978 46.8072 57.1794 47.2136 57.5418C47.7012 56.0921 47.498 54.1994 46.3602 53.2329C45.7913 52.7497 45.3037 52.6691 44.8973 52.9913C44.6535 53.1524 44.491 53.4343 44.369 53.7564C44.9786 54.1994 45.3849 54.7632 45.4256 55.2061C45.4662 55.6491 45.1818 55.9713 44.7348 56.0518C44.4097 56.1324 44.1252 55.9713 44.0033 55.6491C43.8001 55.2062 43.8408 54.4813 44.044 53.837C43.5563 53.5148 42.9062 53.3135 42.1747 53.2732C41.4026 53.2329 40.8744 53.394 40.5086 53.7564C39.9804 54.3202 40.0616 55.2061 40.0616 55.2061C40.0616 55.2867 40.021 55.3672 39.9397 55.3672C39.8585 55.3672 39.7772 55.327 39.7772 55.2464C39.7772 55.2062 39.6553 54.2397 40.3055 53.5551C40.7118 53.1121 41.362 52.9108 42.2153 52.951C42.9874 52.9913 43.6376 53.2329 44.1659 53.5551C44.3284 53.2329 44.5316 52.9108 44.7754 52.7497C45.1005 52.5081 45.71 52.2664 46.604 53.0316C47.9044 54.1189 48.0669 56.2532 47.498 57.8237C47.6199 57.9848 47.7418 58.1861 47.7825 58.4277C48.1888 59.5956 48.0263 60.6829 47.2948 61.448C46.4821 62.3742 45.0599 62.7366 43.597 62.495C43.4751 62.5756 43.3531 62.6561 43.1906 62.7366C42.5811 63.0588 42.0122 63.1796 41.4433 63.1796ZM42.9061 60.401C42.6217 60.401 42.4185 60.4815 42.256 60.6023C42.0122 60.7634 41.8903 61.0453 41.9309 61.2869C42.0122 61.6896 42.4998 62.0118 43.3125 62.2131C43.3531 62.2131 43.3938 62.2131 43.4344 62.2534C43.8408 61.9312 44.0846 61.5688 44.0846 61.2467C44.0846 61.005 43.9627 60.8037 43.6782 60.6426C43.4344 60.4413 43.15 60.401 42.9061 60.401ZM45.7913 57.3405C45.7507 57.3405 45.71 57.3405 45.6694 57.3405C44.938 57.3807 44.2471 57.8237 44.1659 58.2667C44.0846 58.6694 44.491 58.9513 44.816 59.1526C45.7913 59.6358 46.4415 58.9513 46.7259 58.5083C46.8478 58.3069 46.9697 58.1056 47.051 57.864C46.6447 57.421 46.1164 57.3405 45.7913 57.3405ZM44.2065 54.0786C44.044 54.6424 44.0033 55.2464 44.1659 55.6088C44.2878 55.8505 44.4503 55.8505 44.5722 55.8505C44.8973 55.7699 45.0599 55.6088 45.0192 55.327C45.0192 54.884 44.6941 54.441 44.2065 54.0786Z" fill="#26192A"/>
<path d="M12.9071 33.641C12.9071 33.641 10.5558 42.751 13.0331 50.8718C13.0331 50.8718 21.6404 43.0808 12.9071 33.641Z" fill="#DB6362"/>
<path d="M22.0895 29.6996C22.0895 29.6996 29.9915 24.3111 36.7062 30.3527C42.5611 35.6595 40.9643 47.8244 37.6069 48.3959C34.2496 48.9674 17.6267 32.2713 22.0895 29.6996Z" fill="#DB6362"/>
<path d="M21.1263 18.6823C21.1263 18.6823 17.9579 10.6799 11.1743 11.0924C4.43137 11.5049 6.99044 18.8061 1.70981 19.6311C-3.57081 20.4561 4.35013 33.7797 12.2711 31.7997C20.192 29.8197 22.0199 23.3023 21.1263 18.6823Z" fill="#F0AFB6"/>
<path d="M16.4102 16.393C16.4102 16.393 23.3582 9.04616 33.2898 12.334C43.2214 15.6217 46.0006 30.0312 41.1778 30.3559C36.396 30.64 29.9384 11.0351 17.4728 20.3708L16.4102 16.393Z" fill="#F0AFB6"/>
<path d="M12.3066 14.8209C12.3066 14.8209 12.9207 4.69106 22.663 0.892387C32.4054 -2.90629 43.8671 6.44743 40.3876 9.75595C36.9082 13.0645 19.2245 2.03607 15.7042 17.2308L12.3066 14.8209Z" fill="#F0AFB6"/>
<path d="M40.7568 27.0769C40.7156 27.0769 40.6744 27.0769 40.6332 27.0769C39.9329 27.0353 38.9854 26.0784 37.6672 24.747C34.3715 21.4603 28.8101 15.9685 20.6946 17.4663C20.6122 17.4663 20.5298 17.4247 20.5298 17.3415C20.5298 17.2583 20.571 17.175 20.6534 17.175C28.9337 15.6357 34.5363 21.2107 37.8732 24.539C39.109 25.7456 40.0565 26.7025 40.6332 26.7857C41.1276 26.8273 41.3748 26.4528 41.4572 26.1616C41.9927 24.4142 40.2213 19.6713 34.7011 16.551C27.6979 12.557 20.777 16.2181 20.7358 16.2597C20.6534 16.3013 20.571 16.2597 20.5298 16.1765C20.4886 16.0933 20.5298 16.0101 20.6122 15.9685C20.6946 15.9269 27.739 12.1825 34.8659 16.2597C40.798 19.6297 42.2811 24.4974 41.7455 26.2448C41.6219 26.7857 41.2512 27.0769 40.7568 27.0769Z" fill="#26192A"/>
<path d="M16.3522 12.718C16.3113 12.718 16.2703 12.718 16.2703 12.6771C16.1885 12.6363 16.1885 12.5138 16.2703 12.473C21.671 6.14479 28.9538 6.96133 33.3317 7.49208C34.9683 7.69622 36.2775 7.8187 36.8912 7.53291C37.3004 7.32878 37.464 7.043 37.3822 6.63473C37.0549 5.2466 33.168 2.59284 27.3172 2.79697C20.3209 3.00111 15.493 11.534 15.452 11.6156C15.4111 11.6973 15.3293 11.6973 15.2475 11.6565C15.1656 11.6156 15.1657 11.534 15.2066 11.4523C15.2475 11.3707 20.1572 2.71532 27.3172 2.47036C29.8539 2.3887 32.3906 2.87863 34.4773 3.77682C36.2366 4.59336 37.505 5.61404 37.7095 6.55307C37.8323 7.08382 37.6277 7.53292 37.0549 7.77788C36.3594 8.1045 35.091 7.98201 33.3317 7.77788C29.0357 7.28795 21.8756 6.47141 16.5567 12.6771C16.434 12.6771 16.3931 12.718 16.3522 12.718Z" fill="#26192A"/>
<path d="M1.6 22.5641C1.52373 22.5641 1.48559 22.5238 1.48559 22.4834L0.837228 20.829C0.799089 20.7482 0.837227 20.6675 0.913504 20.6272C0.989782 20.5868 1.06606 20.6272 1.1042 20.7079L1.63815 22.0396L2.59161 20.1833C2.62975 20.1026 2.70603 20.1026 2.78231 20.1026C2.85859 20.143 2.89672 20.2237 2.85859 20.3044L1.7907 22.4431C1.67628 22.5641 1.63814 22.5641 1.6 22.5641Z" fill="#26192A"/>
<path d="M4.25304 26.6667C4.25304 26.6667 4.21385 26.6667 4.17466 26.6667C2.84213 26.5822 1.70556 24.9767 1.66637 24.8922C1.62718 24.8077 1.62718 24.7232 1.70556 24.6809C1.78395 24.6387 1.86233 24.6387 1.90152 24.7232C1.90152 24.7232 2.9989 26.2864 4.21385 26.3709C4.40981 26.3709 4.4882 26.2864 4.52739 26.2442C4.88012 25.6949 4.33143 23.8359 4.05708 23.2022C4.01789 23.1177 4.05708 23.0332 4.13547 22.9909C4.21385 22.9487 4.29224 22.9909 4.33143 23.0754C4.40981 23.3289 5.27204 25.6527 4.76254 26.4554C4.64497 26.5399 4.4882 26.6667 4.25304 26.6667Z" fill="#26192A"/>
<path d="M4.35869 26.6668C4.31665 26.6668 4.27461 26.6276 4.23258 26.5884L1.66824 22.786C1.6262 22.7076 1.6262 22.6292 1.71028 22.59C1.79435 22.5508 1.87843 22.5508 1.92047 22.6292L4.48481 26.4316C4.52685 26.51 4.52684 26.5884 4.44277 26.6276C4.44277 26.6668 4.40073 26.6668 4.35869 26.6668Z" fill="#26192A"/>
<path d="M10.9072 21.7435H10.8645C10.6937 21.7435 10.5229 21.66 10.4375 21.4929C9.92503 20.741 10.651 18.4018 10.7364 18.1511C10.7791 18.0676 10.8645 18.0258 10.9499 18.0676C11.0353 18.1094 11.078 18.1929 11.0353 18.2765C10.8218 18.9448 10.3093 20.8245 10.6937 21.3258C10.7364 21.4093 10.8218 21.4511 10.9072 21.4511C11.5904 21.4929 12.4017 19.6967 12.786 18.5689C12.8287 18.4853 12.9141 18.4435 12.9995 18.4435C13.0849 18.4853 13.1277 18.5689 13.1277 18.6524C12.9568 18.9448 12.0601 21.7435 10.9072 21.7435Z" fill="#26192A"/>
<path d="M7.62396 20.5128H7.58127C7.41046 20.5128 7.23965 20.4293 7.15425 20.2622C6.64183 19.5103 7.36776 17.1711 7.45316 16.9204C7.49586 16.8369 7.58126 16.7951 7.66667 16.8369C7.75207 16.8787 7.79477 16.9622 7.75207 17.0457C7.53856 17.7141 7.02614 19.5938 7.41046 20.0951C7.45316 20.1786 7.53856 20.2204 7.62396 20.2204C7.62396 20.2204 7.62397 20.2204 7.66667 20.2204C8.34989 20.2204 9.16122 18.466 9.50284 17.3381C9.54554 17.2546 9.63094 17.2128 9.71635 17.2128C9.80175 17.2546 9.84445 17.3382 9.84445 17.4217C9.67364 17.7141 8.77691 20.5128 7.62396 20.5128Z" fill="#26192A"/>
<path d="M12.2481 31.753C12.2481 31.753 15.615 40.4914 13.3567 49.599C11.0985 58.7476 3.46141 74.05 25.0176 74.2552C54.9499 74.5013 41.195 40.6145 19.3514 28.1428C-2.4922 15.6301 12.2481 31.753 12.2481 31.753Z" fill="#F0AFB6"/>
<path d="M25.0987 30.2814C25.0987 30.2814 20.364 37.4754 23.9047 44.5467C27.4455 51.6181 37.9029 44.5467 37.9029 44.5467L38.9734 47.735C38.9734 47.735 28.2277 54.6428 22.5873 46.4679C16.9468 38.2929 22.6696 29.8727 22.6696 29.8727C22.6696 29.8727 23.8636 27.9515 25.0987 30.2814Z" fill="#DB6362"/>
<path d="M22.7126 74.2564C20.2785 74.2564 18.1688 74.0509 17.4791 73.4755C17.2357 73.27 17.1546 72.9823 17.3168 72.6946C17.8443 71.7904 24.2137 71.0094 26.8913 70.6806C25.0251 70.1463 21.3333 68.2557 21.1304 61.3097C21.0493 58.2683 21.8607 55.9666 23.5646 54.3637C26.5262 51.61 31.1512 52.1443 31.1917 52.1443C31.2729 52.1443 31.354 52.2265 31.3134 52.3087C31.3134 52.3909 31.2323 52.4731 31.1512 52.432C31.1106 52.432 26.6073 51.9388 23.7675 54.5692C22.1447 56.09 21.3333 58.3505 21.455 61.2686C21.5767 65.0088 22.7532 67.8036 24.8628 69.3243C26.4451 70.4751 28.0273 70.5162 28.0273 70.5162C28.1084 70.5162 28.1896 70.5984 28.1896 70.6806C28.1896 70.7628 28.149 70.845 28.0679 70.845C24.2543 71.215 18.0471 72.1192 17.6414 72.8179C17.5603 72.9823 17.5603 73.0645 17.7225 73.1878C18.4934 73.8454 21.8607 74.092 25.9177 73.8043C30.1775 73.5166 33.6259 72.7357 34.6402 71.7904C34.7213 71.7493 34.8025 71.7493 34.843 71.7904C34.8836 71.8726 34.8836 71.9548 34.843 71.9959C33.5042 73.1467 29.3661 73.8043 25.9177 74.0509C24.8628 74.2153 23.7675 74.2564 22.7126 74.2564Z" fill="#26192A"/>
<path d="M6.85449 73.8461C4.64943 73.8461 2.81188 73.559 2.19936 72.7384C1.99519 72.4513 2.03603 72.2461 2.11769 72.1231C2.68938 71.0974 7.79369 71.2205 10.4071 71.3846C8.44704 70.6051 5.05777 68.4718 4.52693 62.6461C4.24108 59.5282 4.89444 56.9846 6.48698 55.1384C8.77371 52.3897 12.2855 52.1025 12.3263 52.1025C12.408 52.1025 12.4897 52.1436 12.4897 52.2256C12.4897 52.3077 12.4488 52.3897 12.3671 52.3897C12.3263 52.3897 8.93705 52.6769 6.73199 55.3436C5.22112 57.1487 4.6086 59.6102 4.8536 62.6461C5.54779 70.6461 11.7955 71.4667 11.8771 71.5077C11.9588 71.5077 11.9996 71.5897 11.9996 71.6718C11.9996 71.7538 11.918 71.8359 11.8363 71.7948C8.44704 71.5487 2.85271 71.4666 2.3627 72.2872C2.3627 72.3282 2.28103 72.4102 2.40353 72.5743C3.99608 74.7897 16.1239 72.6154 16.2464 72.5743C16.3281 72.5743 16.4098 72.6154 16.4098 72.6974C16.4098 72.7795 16.3689 72.8615 16.2873 72.8615C16.0014 72.9025 10.8563 73.8461 6.85449 73.8461Z" fill="#26192A"/>
<path d="M31.3377 38.047C31.3377 38.047 22.1511 36.7842 20.2149 40.6542C18.2787 44.5241 41.8013 47.009 41.4306 39.1469C41.0598 31.2848 25.1995 32.0181 25.1995 32.0181" fill="#F0AFB6"/>
<path d="M30.6708 44.3077C29.7639 44.3077 28.8569 44.2666 27.9087 44.1844C24.1984 43.8556 21.1477 42.9512 20.117 41.8414C19.6635 41.3892 19.5811 40.896 19.8284 40.4027C21.8073 36.4565 30.712 37.6486 31.1243 37.6897C31.2067 37.6897 31.248 37.7719 31.248 37.8541C31.248 37.9363 31.1655 38.0185 31.0831 37.9774C31.0006 37.9774 21.9722 36.7854 20.117 40.526C19.9109 40.896 19.9934 41.2659 20.3644 41.6359C22.3432 43.7323 32.5672 45.1299 38.009 42.8279C40.1115 41.9647 41.1421 40.6493 41.0597 38.964C40.9772 37.5253 40.4001 36.2921 39.287 35.2645C35.1232 31.4827 25.1053 31.8938 25.0229 31.9349C24.9404 31.9349 24.858 31.8938 24.858 31.7705C24.858 31.6883 24.8992 31.606 25.0229 31.606C25.4351 31.606 35.2881 31.1539 39.5344 35.0178C40.7299 36.0866 41.3483 37.402 41.4307 38.9229C41.5132 40.7315 40.4001 42.1702 38.2151 43.0746C36.2775 43.8967 33.5978 44.3077 30.6708 44.3077Z" fill="#26192A"/>
<path d="M12.7147 35.282C9.4573 36.3305 3.63476 41.5324 6.52567 44.1938C9.37586 46.8552 16.0535 43.1453 15.5649 41.5727C14.8319 39.1935 12.1446 40.2823 12.1446 40.2823L12.7147 35.282Z" fill="#F0AFB6"/>
<path d="M20.2496 41.0257C20.2101 41.0257 20.1706 41.0257 20.1312 40.9814C20.0917 40.8927 20.0917 40.804 20.1312 40.7596C21.4729 39.5178 24.7484 39.3847 24.8668 39.3847C24.9457 39.3847 25.0246 39.4734 25.0246 39.5621C25.0246 39.6508 24.9457 39.7395 24.8668 39.7395C24.8273 39.7395 21.5518 39.8726 20.3285 41.0257C20.3285 41.0257 20.289 41.0257 20.2496 41.0257Z" fill="#26192A"/>
<path d="M19.8581 41.4051C19.7747 41.4051 19.7331 41.3743 19.6914 41.3128C19.6914 41.2512 19.7331 41.1897 19.8164 41.1897C22.9831 40.8204 24.8164 41.1897 24.8997 41.1897C24.9831 41.2204 25.0247 41.282 25.0247 41.3435C24.9831 41.4051 24.8997 41.4358 24.8164 41.4358C24.8581 41.4051 22.9831 41.0358 19.8581 41.4051C19.8997 41.4051 19.8997 41.4051 19.8581 41.4051Z" fill="#26192A"/>
<path d="M18.2092 73.4359C18.13 73.4359 18.0904 73.3968 18.0508 73.3187C18.0508 73.2405 18.0904 73.1624 18.1696 73.1233C20.3482 72.6154 23.5963 72.6154 23.6359 72.6154C23.7151 72.6154 23.7944 72.6935 23.7944 72.7716C23.7944 72.8498 23.7151 72.9279 23.6359 72.9279C23.5171 72.9279 20.3086 72.9279 18.2092 73.4359Z" fill="#26192A"/>
<path d="M13.8036 71.7949C13.7635 71.7949 13.7234 71.7949 13.7234 71.754C5.70557 64.9998 12.6009 51.9417 12.6811 51.7779C12.7212 51.6961 12.8014 51.6551 12.8816 51.737C12.9617 51.7779 12.9617 51.8598 12.9217 51.9417C12.8415 52.0645 6.06637 64.9179 13.8838 71.5084C13.964 71.5493 13.964 71.6721 13.9239 71.7131C13.8838 71.754 13.8437 71.7949 13.8036 71.7949Z" fill="#26192A"/>
<path d="M2.6285 73.0257C2.5457 73.0257 2.50429 72.9801 2.46289 72.8889C2.46289 72.7977 2.50429 72.7066 2.5871 72.7066C4.16037 72.4786 6.8101 72.2051 6.8101 72.2051C6.8929 72.2051 6.97571 72.2507 6.97571 72.3419C6.97571 72.4331 6.93431 72.5242 6.8515 72.5242C6.8515 72.5242 4.20178 72.7977 2.6285 73.0257Z" fill="#26192A"/>
<path d="M16.3839 69.1243C16.3839 69.1243 11.7848 68.6729 11.5024 63.133C11.22 57.5932 15.2543 52.5868 15.335 48.6883C15.4157 44.8309 20.4182 42.2046 19.9744 55.2131C19.7727 61.984 22.7984 70.8068 16.3839 69.1243Z" fill="#FFFAF0"/>
<path d="M39.6588 56.2052H39.6296C39.5713 56.1674 39.5421 56.0917 39.5713 56.0161C39.6296 55.7892 39.5129 55.1463 39.3962 54.7681C39.367 54.6924 39.3962 54.6168 39.4546 54.579C39.5129 54.5412 39.5713 54.579 39.6004 54.6546C39.6296 54.7681 39.863 55.7135 39.7755 56.0917C39.7755 56.1674 39.7171 56.2052 39.6588 56.2052Z" fill="#26192A"/>
<path d="M38.0182 54.154H37.989C37.9306 54.1161 37.9015 54.0405 37.9306 53.9649C37.989 53.738 37.8723 53.0951 37.7556 52.7169C37.7264 52.6412 37.7556 52.5656 37.8139 52.5278C37.8723 52.49 37.9306 52.5278 37.9598 52.6034C37.989 52.7169 38.2224 53.6623 38.1349 54.0405C38.1057 54.1162 38.0765 54.154 38.0182 54.154Z" fill="#26192A"/>
<path d="M38.4264 52.5129H38.3972C38.3388 52.4751 38.3097 52.3995 38.3388 52.3238C38.3972 52.0969 38.2805 51.454 38.1638 51.0758C38.1346 51.0002 38.1638 50.9245 38.2221 50.8867C38.2805 50.8489 38.3388 50.8867 38.368 50.9624C38.3972 51.0758 38.6306 52.0213 38.5431 52.3995C38.5139 52.4751 38.4847 52.5129 38.4264 52.5129Z" fill="#26192A"/>
<path d="M35.4437 43.4871C35.4031 43.4871 35.4031 43.4871 35.4437 43.4871C35.3219 43.4871 35.2812 43.4067 35.2812 43.3264C35.2812 43.246 35.3625 43.1656 35.4437 43.2058C35.6873 43.2058 36.337 42.8842 36.7024 42.6833C36.7836 42.6431 36.8648 42.6833 36.9055 42.7235C36.9461 42.8038 36.9055 42.8842 36.8649 42.9244C36.743 43.0048 35.8497 43.4871 35.4437 43.4871Z" fill="#26192A"/>
<path d="M32.794 43.0769C32.6837 43.0769 32.5735 43.0769 32.5 43.0434C32.4265 43.01 32.3898 42.9431 32.4265 42.8762C32.4633 42.8093 32.5368 42.7759 32.6103 42.8093C32.8307 42.8762 33.4922 42.7759 33.8596 42.6755C33.9331 42.6421 34.0066 42.709 34.0434 42.7759C34.0801 42.8428 34.0066 42.9097 33.9331 42.9431C33.8229 42.9097 33.1982 43.0769 32.794 43.0769Z" fill="#26192A"/>
<path d="M34.8428 41.4358C34.7326 41.4358 34.6223 41.4358 34.5488 41.4024C34.4753 41.3689 34.4386 41.302 34.4754 41.2351C34.5121 41.1683 34.5856 41.1348 34.6591 41.1683C34.8796 41.2352 35.541 41.1348 35.9085 41.0345C35.982 41.001 36.0554 41.0679 36.0922 41.1348C36.1289 41.2017 36.0554 41.2686 35.9819 41.302C35.8717 41.302 35.2838 41.4358 34.8428 41.4358Z" fill="#26192A"/>
<path d="M31.9717 41.8462C31.8615 41.8462 31.7512 41.8462 31.6777 41.8127C31.6043 41.7793 31.5675 41.7124 31.6043 41.6455C31.641 41.5786 31.7145 41.5451 31.788 41.5786C32.0085 41.6455 32.6699 41.5452 33.0374 41.4448C33.1109 41.4114 33.1843 41.4783 33.2211 41.5451C33.2578 41.612 33.1843 41.6789 33.1109 41.7124C33.0006 41.7124 32.4127 41.8462 31.9717 41.8462Z" fill="#26192A"/>
<path d="M8.07967 44.3076C7.91454 44.2681 6.88245 44.0308 6.59346 43.7145C6.55218 43.6354 6.55218 43.5563 6.59346 43.5168C6.67603 43.4772 6.7586 43.4772 6.79988 43.5168C6.96502 43.6749 7.66684 43.9122 8.07967 43.9913C8.16224 43.9913 8.20353 44.1099 8.20353 44.189C8.20353 44.2285 8.16224 44.3076 8.07967 44.3076Z" fill="#26192A"/>
<path d="M7.67148 43.0769C7.63019 43.0769 7.63019 43.0769 7.67148 43.0769C7.50634 43.0374 6.47425 42.8001 6.18526 42.4838C6.14398 42.4047 6.14398 42.3256 6.18526 42.2861C6.26783 42.2465 6.35039 42.2465 6.39168 42.2861C6.55681 42.4442 7.25864 42.6815 7.67148 42.7606C7.75404 42.7606 7.79532 42.8792 7.79532 42.9583C7.79532 43.0374 7.71276 43.0769 7.67148 43.0769Z" fill="#26192A"/>
<path d="M30.3311 43.0769C30.2209 43.0769 30.1106 43.0769 30.0371 43.0434C29.9636 43.01 29.9269 42.9431 29.9636 42.8762C30.0004 42.8093 30.0739 42.7759 30.1474 42.8093C30.3678 42.8762 31.0293 42.7759 31.3967 42.6755C31.4702 42.6421 31.5437 42.709 31.5805 42.7759C31.6172 42.8428 31.5437 42.9097 31.4702 42.9431C31.36 42.9097 30.7721 43.0769 30.3311 43.0769Z" fill="#26192A"/>
<path d="M37.1293 40.6154C37.0899 40.6154 37.0899 40.6154 37.0505 40.6154C36.9718 40.6154 36.893 40.5262 36.9324 40.4369C36.9324 40.3477 37.0111 40.2585 37.0899 40.3031C37.3263 40.3477 37.996 39.9908 38.3505 39.8124C38.4293 39.7678 38.5081 39.8124 38.5474 39.9016C38.5868 39.9908 38.5474 40.08 38.4687 40.1246C38.3899 40.1246 37.5626 40.6154 37.1293 40.6154Z" fill="#26192A"/>
<path d="M39.515 40.2051C39.4766 40.2051 39.3998 40.1685 39.3998 40.1319C39.3614 40.0588 39.3998 39.9857 39.4766 39.9491C39.707 39.876 40.1295 39.3274 40.3599 39.0349C40.3983 38.9618 40.4751 38.9618 40.5519 38.9983C40.6287 39.0349 40.6287 39.108 40.5903 39.1812C40.5135 39.2543 39.9759 40.0588 39.5918 40.2051C39.5534 40.2051 39.5534 40.2051 39.515 40.2051Z" fill="#26192A"/>
<path d="M37.5059 41.8461C37.4655 41.8461 37.4655 41.8461 37.5059 41.8461C37.3848 41.8461 37.3041 41.7657 37.3445 41.6853C37.3445 41.6049 37.4252 41.5245 37.5059 41.5647C37.7479 41.6049 38.3935 41.2432 38.7566 41.0422C38.8373 41.002 38.918 41.0422 38.9583 41.0824C38.9986 41.1628 38.9583 41.2432 38.918 41.2834C38.7969 41.3638 37.9093 41.8461 37.5059 41.8461Z" fill="#26192A"/>
<path d="M39.1014 67.6924C39.0668 67.6924 39.0321 67.6924 38.9974 67.6513C38.9627 67.5693 38.9627 67.4872 39.0321 67.4462C39.2055 67.2821 39.4136 66.5847 39.5177 66.1744C39.5523 66.0924 39.6217 66.0513 39.6911 66.0513C39.7604 66.0924 39.7951 66.1744 39.7951 66.2565C39.7604 66.3795 39.5177 67.4052 39.2402 67.6924C39.1708 67.6513 39.1361 67.6924 39.1014 67.6924Z" fill="#26192A"/>
<path d="M38.4264 57.4358H38.3972C38.3388 57.398 38.3097 57.3224 38.3388 57.2467C38.3972 57.0198 38.2805 56.3769 38.1638 55.9987C38.1346 55.9231 38.1638 55.8475 38.2221 55.8096C38.2805 55.7718 38.3388 55.8096 38.368 55.8853C38.3972 55.9987 38.6306 56.9442 38.5431 57.3224C38.5139 57.398 38.4847 57.4358 38.4264 57.4358Z" fill="#26192A"/>
<path d="M6.26542 57.8462H6.23266C6.16715 57.8038 6.13439 57.7189 6.16715 57.634C6.1999 57.5066 6.52747 56.4878 6.78951 56.2331C6.85503 56.1906 6.92054 56.1906 6.95329 56.2755C6.98605 56.3604 6.98605 56.4453 6.92054 56.4878C6.75676 56.6151 6.49471 57.3368 6.39644 57.7613C6.36368 57.8038 6.33093 57.8462 6.26542 57.8462Z" fill="#26192A"/>
<path d="M7.90604 56.6153H7.87328C7.80777 56.5729 7.77502 56.488 7.80777 56.4031C7.84053 56.2757 8.16809 55.2569 8.43014 55.0022C8.49565 54.9597 8.56116 54.9597 8.59392 55.0446C8.62667 55.1295 8.62668 55.2144 8.56116 55.2569C8.39738 55.3843 8.13533 56.1059 8.03706 56.5304C8.00431 56.5729 7.97155 56.6153 7.90604 56.6153Z" fill="#26192A"/>
<path d="M7.08378 59.4873H7.05102C6.98551 59.4448 6.95275 59.3599 6.98551 59.275C7.01826 59.1477 7.34583 58.1288 7.60787 57.8741C7.67339 57.8317 7.7389 57.8317 7.77165 57.9166C7.80441 58.0015 7.80441 58.0864 7.7389 58.1288C7.57512 58.2562 7.31307 58.9779 7.2148 59.4024C7.18205 59.4448 7.11653 59.4873 7.08378 59.4873Z" fill="#26192A"/>
<path d="M7.23114 62.359C7.14167 62.359 7.09693 62.3212 7.05219 62.2455C7.05219 62.1321 6.87324 61.1488 7.05219 60.8084C7.09693 60.7328 7.18641 60.695 7.27589 60.7328C7.36536 60.7706 7.4101 60.8462 7.36536 60.9219C7.23115 61.111 7.32062 61.8295 7.36536 62.2077C7.4101 62.2833 7.32062 62.359 7.23114 62.359Z" fill="#26192A"/>
<path d="M7.23114 65.2307C7.14167 65.2307 7.09693 65.1929 7.05219 65.1173C7.05219 65.0038 6.87324 64.0206 7.05219 63.6802C7.09693 63.6046 7.18641 63.5667 7.27589 63.6046C7.36536 63.6424 7.4101 63.718 7.36536 63.7937C7.23115 63.9827 7.32062 64.7013 7.36536 65.0795C7.4101 65.1551 7.32062 65.2307 7.23114 65.2307Z" fill="#26192A"/>
<path d="M22.6764 59.0769C22.6204 59.0769 22.5645 58.9999 22.5645 58.923C22.5645 58.8076 22.6204 57.8074 22.7884 57.4996C22.8164 57.4227 22.9003 57.4227 22.9283 57.4611C22.9843 57.4996 22.9843 57.615 22.9563 57.6535C22.8444 57.8458 22.7884 58.5383 22.7604 58.923C22.7884 58.9999 22.7324 59.0769 22.6764 59.0769Z" fill="#26192A"/>
<path d="M23.5431 57.4358H23.4958C23.4013 57.3934 23.3541 57.3085 23.4013 57.2236C23.4486 57.0962 23.9211 56.0774 24.3463 55.8227C24.4408 55.7802 24.5353 55.7802 24.5825 55.8651C24.6298 55.95 24.6298 56.0349 24.5353 56.0774C24.2991 56.2047 23.9211 56.9264 23.7321 57.3085C23.6848 57.3934 23.5903 57.4358 23.5431 57.4358Z" fill="#26192A"/>
<path d="M23.9552 58.6667H23.908C23.8135 58.6243 23.7662 58.5394 23.8135 58.4545C23.8607 58.3271 24.3332 57.3083 24.7584 57.0536C24.8529 57.0111 24.9474 57.0111 24.9947 57.096C25.0419 57.1809 25.0419 57.2658 24.9474 57.3083C24.7112 57.4356 24.3332 58.1573 24.1442 58.5394C24.097 58.6243 24.0024 58.6667 23.9552 58.6667Z" fill="#26192A"/>
<path d="M13.3278 59.0769C13.2781 59.0769 13.2781 59.0769 13.3278 59.0769C13.2284 59.0769 13.1289 58.9997 13.1289 58.9224C13.1289 58.8066 13.2781 57.8027 13.6262 57.4938C13.6759 57.4165 13.8251 57.4165 13.8748 57.4938C13.9743 57.5324 13.9743 57.6482 13.8748 57.6868C13.6759 57.8799 13.5267 58.5363 13.477 58.961C13.477 59.0383 13.3775 59.0769 13.3278 59.0769Z" fill="#26192A"/>
<path d="M13.738 56.6153C13.6385 56.6153 13.5391 56.5381 13.5391 56.4609C13.5391 56.345 13.6882 55.3411 14.0363 55.0322C14.0861 54.955 14.2353 54.955 14.285 55.0322C14.3844 55.0708 14.3844 55.1867 14.285 55.2253C14.0861 55.4183 13.9369 56.0748 13.8872 56.4995C13.9369 56.5381 13.8374 56.6153 13.738 56.6153Z" fill="#26192A"/>
<path d="M14.9685 58.2564C14.869 58.2564 14.7695 58.1791 14.7695 58.1019C14.7695 57.9861 14.9187 56.9822 15.2668 56.6733C15.3165 56.5961 15.4657 56.5961 15.5155 56.6733C15.6149 56.7119 15.6149 56.8277 15.5155 56.8663C15.3165 57.0594 15.1674 57.7158 15.1176 58.1405C15.1674 58.1792 15.0679 58.2564 14.9685 58.2564Z" fill="#26192A"/>
<path d="M14.1266 64C14.045 64 13.9634 63.9231 13.9634 63.8846C13.9634 63.7692 13.8818 62.769 14.0858 62.4227C14.1266 62.3458 14.2083 62.3458 14.2899 62.3843C14.3715 62.4227 14.3715 62.4997 14.3307 62.5766C14.2083 62.769 14.2083 63.4614 14.2491 63.8846C14.2899 63.9231 14.2083 64 14.1266 64Z" fill="#26192A"/>
<path d="M14.5368 61.1281C14.4552 61.1281 14.3735 61.0512 14.3735 61.0127C14.3735 60.8973 14.2919 59.8971 14.496 59.5509C14.5368 59.4739 14.6184 59.4739 14.7001 59.5124C14.7817 59.5509 14.7817 59.6278 14.7409 59.7047C14.6184 59.8971 14.6184 60.5896 14.6593 61.0127C14.7001 61.0512 14.6184 61.1281 14.5368 61.1281Z" fill="#26192A"/>
<path d="M15.8571 67.282C15.8149 67.282 15.7305 67.2419 15.7305 67.2019C15.6883 67.0818 15.1398 66.1612 15.182 65.761C15.182 65.681 15.2664 65.6409 15.3508 65.6409C15.4352 65.6409 15.5195 65.721 15.4773 65.801C15.4351 66.0412 15.7727 66.7216 15.9836 67.0818C16.0258 67.1619 15.9836 67.2419 15.8993 67.282C15.8993 67.282 15.8993 67.282 15.8571 67.282Z" fill="#26192A"/>
<path d="M14.2227 66.8718C14.1826 66.8718 14.1025 66.831 14.1025 66.7903C14.0223 66.668 13.5012 65.7714 13.5413 65.3639C13.5413 65.2824 13.6214 65.2009 13.7016 65.2416C13.7818 65.2416 13.8619 65.3231 13.8219 65.4046C13.8219 65.6492 14.1425 66.3012 14.343 66.668C14.3831 66.7495 14.343 66.831 14.3029 66.8718C14.2628 66.8718 14.2227 66.8718 14.2227 66.8718Z" fill="#26192A"/>
<path d="M12.927 64.4103C12.8411 64.4103 12.7551 64.3722 12.7551 64.296C12.7551 64.1817 12.6263 63.1916 12.8411 62.8488C12.884 62.7727 12.9699 62.7346 13.0559 62.8107C13.1418 62.8488 13.1418 62.925 13.0988 63.0012C12.97 63.1916 13.0129 63.8771 13.0559 64.296C13.0988 64.3341 13.0129 64.4103 12.927 64.4103Z" fill="#26192A"/>
<path d="M14.9685 55.3846C14.869 55.3846 14.7695 55.3074 14.7695 55.2302C14.7695 55.1143 14.9187 54.1104 15.2668 53.8015C15.3165 53.7243 15.4657 53.7243 15.5155 53.8015C15.6149 53.8401 15.6149 53.956 15.5155 53.9946C15.3165 54.1876 15.1674 54.844 15.1176 55.2688C15.1674 55.3074 15.0679 55.3846 14.9685 55.3846Z" fill="#26192A"/>
<path d="M15.3786 52.9231C15.3786 52.9231 15.3289 52.9231 15.3786 52.9231C15.2791 52.9231 15.1797 52.8458 15.1797 52.7686C15.1797 52.6528 15.3289 51.6489 15.677 51.34C15.7267 51.2627 15.8759 51.2627 15.9256 51.34C16.0251 51.3786 16.0251 51.4944 15.9256 51.533C15.7267 51.7261 15.5775 52.3825 15.5278 52.8072C15.5278 52.8844 15.4781 52.9231 15.3786 52.9231Z" fill="#26192A"/>
<path d="M16.197 55.3846C16.1472 55.3846 16.1472 55.3846 16.197 55.3846C16.0975 55.3846 15.998 55.3074 15.998 55.2302C15.998 55.1143 16.1472 54.1104 16.4953 53.8015C16.5451 53.7243 16.6942 53.7243 16.744 53.8015C16.8434 53.8401 16.8434 53.956 16.744 53.9946C16.5451 54.1876 16.3959 54.844 16.3461 55.2688C16.3461 55.346 16.2467 55.3846 16.197 55.3846Z" fill="#26192A"/>
<path d="M19.0464 25.846C19.0002 25.846 18.9539 25.846 18.9077 25.806C18.8615 25.766 18.8615 25.6459 18.9077 25.6059C19.0926 25.4458 19.3238 24.7253 19.37 24.3251C19.37 24.245 19.4624 24.205 19.5549 24.205C19.6473 24.205 19.6936 24.2851 19.6936 24.3651C19.6473 24.4852 19.4624 25.5258 19.1388 25.806C19.1388 25.846 19.0926 25.846 19.0464 25.846Z" fill="#26192A"/>
<path d="M17.4058 26.2564C17.3595 26.2564 17.3133 26.2564 17.2671 26.2164C17.2209 26.1764 17.2209 26.0563 17.2671 26.0163C17.452 25.8562 17.6831 25.1357 17.7294 24.7355C17.7294 24.6554 17.8218 24.6154 17.9143 24.6154C18.0067 24.6154 18.0529 24.6955 18.0529 24.7755C18.0067 24.8956 17.8218 25.9362 17.4982 26.2164C17.4982 26.2564 17.452 26.2564 17.4058 26.2564Z" fill="#26192A"/>
<path d="M18.6343 23.3847C18.5881 23.3847 18.5418 23.3847 18.4956 23.3447C18.4494 23.3046 18.4494 23.1846 18.4956 23.1445C18.6805 22.9844 18.9116 22.264 18.9579 21.8637C18.9579 21.7837 19.0503 21.7437 19.1428 21.7437C19.2352 21.7437 19.2815 21.8237 19.2815 21.9037C19.2352 22.0238 19.0503 23.0645 18.7267 23.3447C18.7267 23.3847 18.6805 23.3847 18.6343 23.3847Z" fill="#26192A"/>
<path d="M20.6322 22.1538C20.5998 22.1538 20.5998 22.1538 20.5674 22.1165C20.5026 22.0792 20.5025 22.0046 20.535 21.93C20.6322 21.7435 20.6646 21.0722 20.6646 20.6619C20.6646 20.5873 20.7294 20.5128 20.7943 20.5128C20.8915 20.5128 20.9239 20.5873 20.9239 20.6619C20.9239 20.7738 20.9239 21.7435 20.7619 22.0792C20.697 22.1538 20.6646 22.1538 20.6322 22.1538Z" fill="#26192A"/>
<path d="M16.9839 28.3077C16.9094 28.3077 16.8722 28.2712 16.8349 28.198C16.7977 28.1249 16.8349 28.0518 16.9094 28.0152C17.1328 27.9421 17.5797 27.4301 17.8032 27.1376C17.8404 27.0644 17.9521 27.0644 17.9894 27.101C18.0639 27.1376 18.0639 27.2473 18.0266 27.2838C17.9521 27.357 17.3563 28.1249 17.0211 28.2712C17.0211 28.3077 17.0211 28.3077 16.9839 28.3077Z" fill="#26192A"/>
<path d="M13.024 61.9486C12.961 61.9486 12.9294 61.9108 12.8979 61.8352C12.8664 61.7217 12.6456 60.7763 12.7402 60.3981C12.7717 60.3225 12.8348 60.2846 12.8979 60.3225C12.961 60.3603 12.9925 60.4359 12.961 60.5115C12.8979 60.7385 13.024 61.3814 13.1187 61.7596C13.1502 61.8352 13.0871 61.9108 13.024 61.9486C13.0556 61.9486 13.024 61.9486 13.024 61.9486Z" fill="#26192A"/>
<path d="M25.5958 56.2052H25.5486C25.4541 56.1627 25.4068 56.0778 25.4541 55.9929C25.5013 55.8656 25.9738 54.8467 26.399 54.592C26.4935 54.5496 26.588 54.5496 26.6353 54.6345C26.6825 54.7194 26.6825 54.8043 26.588 54.8467C26.3518 54.9741 25.9738 55.6958 25.7848 56.0778C25.7376 56.2052 25.6903 56.2052 25.5958 56.2052Z" fill="#26192A"/>
<path d="M22.8477 62.359C22.7725 62.359 22.7349 62.3212 22.6972 62.2455C22.6596 62.1321 22.4715 61.1488 22.622 60.8084C22.6596 60.7328 22.7348 60.695 22.8101 60.7328C22.8853 60.7706 22.923 60.8462 22.8854 60.9219C22.8101 61.111 22.8853 61.8295 22.9606 62.2077C22.9982 62.2833 22.9606 62.359 22.8477 62.359Z" fill="#26192A"/>
<path d="M24.0674 61.1281C23.995 61.1281 23.9589 61.0903 23.9227 61.0147C23.8865 60.9012 23.7055 59.918 23.8503 59.5776C23.8865 59.502 23.9588 59.4641 24.0312 59.502C24.1036 59.5398 24.1398 59.6154 24.1036 59.6911C24.0312 59.8801 24.1036 60.5987 24.176 60.9769C24.2484 61.0525 24.176 61.1281 24.0674 61.1281C24.1036 61.1281 24.1036 61.1281 24.0674 61.1281Z" fill="#26192A"/>
<path d="M23.2255 65.2307C23.1785 65.2307 23.0845 65.1917 23.0845 65.1526C23.0375 65.0354 22.5205 64.0977 22.5675 63.7069C22.5675 63.6288 22.6615 63.5897 22.7555 63.5897C22.8495 63.5897 22.8965 63.6679 22.8965 63.746C22.8495 63.9804 23.1785 64.6447 23.3665 64.9963C23.4135 65.0745 23.3665 65.1526 23.2725 65.1917C23.3195 65.2307 23.2725 65.2307 23.2255 65.2307Z" fill="#26192A"/>
<path d="M24.0782 63.5897C24.0029 63.5897 23.9653 63.5519 23.9277 63.4762C23.8901 63.3628 23.7019 62.3795 23.8524 62.0391C23.8901 61.9635 23.9653 61.9257 24.0406 61.9635C24.1158 62.0013 24.1534 62.077 24.1158 62.1526C24.0406 62.3417 24.1158 63.0602 24.1911 63.4384C24.2287 63.4762 24.1911 63.5519 24.0782 63.5897Z" fill="#26192A"/>
<path d="M6.41278 64.4103C6.32331 64.4103 6.27857 64.3724 6.23383 64.2968C6.23383 64.1833 6.05488 63.2001 6.23383 62.8597C6.27857 62.7841 6.36805 62.7462 6.45753 62.7841C6.547 62.8219 6.59174 62.8975 6.547 62.9732C6.41279 63.1622 6.50226 63.8808 6.547 64.259C6.59174 64.2968 6.547 64.3724 6.41278 64.4103C6.45752 64.4103 6.41278 64.4103 6.41278 64.4103Z" fill="#26192A"/>
<path d="M7.20964 67.282C7.16167 67.282 7.1137 67.282 7.06573 67.2388C6.96979 67.1524 6.20227 66.2455 6.1543 65.8137C6.1543 65.7273 6.20226 65.6409 6.34618 65.6409C6.44212 65.6409 6.53806 65.6841 6.53806 65.8137C6.53806 66.0728 7.06574 66.7206 7.35356 67.066C7.40153 67.1524 7.40153 67.2388 7.30558 67.282C7.25761 67.282 7.20964 67.282 7.20964 67.282Z" fill="#26192A"/>
<path d="M5.88635 61.5385C5.81634 61.5385 5.74633 61.4633 5.74633 61.3881C5.74633 61.2754 5.71132 60.298 5.92136 59.9597C5.95637 59.8846 6.02638 59.8846 6.0964 59.9222C6.16641 59.9597 6.16641 60.0349 6.1314 60.1101C6.02638 60.298 5.99138 60.9746 5.99138 61.3881C6.02638 61.4633 5.95637 61.5385 5.88635 61.5385Z" fill="#26192A"/>
<path d="M38.0182 60.3076H37.989C37.9306 60.2698 37.9015 60.1941 37.9306 60.1185C37.989 59.8916 37.8723 59.2487 37.7556 58.8705C37.7264 58.7949 37.7556 58.7192 37.8139 58.6814C37.8723 58.6436 37.9306 58.6814 37.9598 58.757C37.989 58.8705 38.2224 59.8159 38.1349 60.1941C38.1057 60.2698 38.0765 60.3076 38.0182 60.3076Z" fill="#26192A"/>
<path d="M40.8893 61.9486H40.8601C40.8017 61.9108 40.7726 61.8352 40.8017 61.7596C40.8601 61.5326 40.7434 60.8897 40.6267 60.5115C40.5975 60.4359 40.6267 60.3603 40.685 60.3225C40.7434 60.2846 40.8017 60.3225 40.8309 60.3981C40.8601 60.5115 41.0935 61.457 41.006 61.8352C40.9768 61.9108 40.9184 61.9486 40.8893 61.9486Z" fill="#26192A"/>
<path d="M39.2486 61.9486H39.2195C39.1611 61.9108 39.1319 61.8352 39.1611 61.7596C39.2195 61.5326 39.1028 60.8897 38.9861 60.5115C38.9569 60.4359 38.9861 60.3603 39.0444 60.3225C39.1028 60.2846 39.1611 60.3225 39.1903 60.3981C39.2195 60.5115 39.4529 61.457 39.3653 61.8352C39.3362 61.9108 39.2778 61.9486 39.2486 61.9486Z" fill="#26192A"/>
<path d="M38.8365 64.8206H38.8074C38.749 64.7828 38.7198 64.7071 38.749 64.6315C38.8074 64.4046 38.6906 63.7617 38.5739 63.3835C38.5448 63.3079 38.5739 63.2322 38.6323 63.1944C38.6907 63.1566 38.749 63.1944 38.7782 63.27C38.8074 63.3835 39.0408 64.3289 38.9532 64.7071C38.9241 64.7828 38.8949 64.8206 38.8365 64.8206Z" fill="#26192A"/>
<path d="M40.3055 65.2307C40.2775 65.2307 40.2495 65.2307 40.2495 65.1926C40.1935 65.1544 40.1935 65.0399 40.2215 65.0018C40.3335 64.8109 40.3895 64.124 40.3895 63.7424C40.3895 63.666 40.4454 63.5897 40.5014 63.5897C40.5574 63.5897 40.6134 63.666 40.6134 63.7424C40.6134 63.8569 40.5574 64.8491 40.3895 65.1544C40.3895 65.1926 40.3615 65.2307 40.3055 65.2307Z" fill="#26192A"/>
<path d="M40.0709 59.0769H40.0417C39.9834 59.0391 39.9542 58.9634 39.9834 58.8878C40.0417 58.6609 39.925 58.018 39.8083 57.6398C39.7791 57.5641 39.8083 57.4885 39.8667 57.4507C39.925 57.4129 39.9834 57.4507 40.0126 57.5263C40.0417 57.6398 40.2751 58.5852 40.1876 58.9634C40.1584 59.0391 40.1292 59.0769 40.0709 59.0769Z" fill="#26192A"/>
<path d="M9.35406 45.9487C8.29052 45.9487 7.26787 45.6597 6.57248 44.958C5.83618 44.2562 5.59074 43.3893 5.83618 42.2747C6.49067 39.3438 10.4994 36.0826 12.8719 35.2982C12.9538 35.257 13.0356 35.2982 13.0765 35.3808C13.1174 35.4634 13.0765 35.5459 12.9947 35.5872C10.4585 36.4128 6.7361 39.7566 6.16342 42.316C5.9589 43.2654 6.16342 44.0911 6.81791 44.669C8.74047 46.4854 12.831 45.2056 14.7127 43.5544C15.1217 43.1829 16.0217 42.2747 15.4899 41.5317C14.0991 39.5915 9.84492 41.8206 9.80402 41.8206C9.72221 41.8619 9.6404 41.8206 9.59949 41.7381C9.55858 41.6555 9.59949 41.5729 9.6813 41.5317C9.88583 41.4491 14.2218 39.1374 15.7762 41.3252C16.2671 41.9857 15.9399 42.8939 14.9172 43.7608C13.5264 44.958 11.3175 45.9487 9.35406 45.9487Z" fill="#26192A"/>
<path d="M10.8472 42.6666C10.7647 42.6666 10.7235 42.6223 10.6822 42.5335C10.6409 42.4448 10.6822 42.3561 10.7647 42.3118C10.8885 42.2674 13.6112 41.2473 15.0138 41.0256C15.0963 41.0256 15.1788 41.0699 15.1788 41.1586C15.1788 41.2473 15.1376 41.336 15.0551 41.336C13.6937 41.5578 10.8885 42.5779 10.8885 42.6222C10.8472 42.6666 10.8472 42.6666 10.8472 42.6666Z" fill="#26192A"/>
<path d="M11.6303 44.3076C11.5884 44.3076 11.5047 44.2632 11.5047 44.2187C11.4628 44.1298 11.5047 44.041 11.5884 43.9965C11.7141 43.9077 14.603 42.3079 15.7753 41.8635C15.8591 41.8191 15.9428 41.8635 15.9847 41.9524C16.0265 42.0412 15.9847 42.1301 15.9009 42.1746C14.7286 42.6189 11.7559 44.3076 11.7559 44.3076C11.6722 44.3076 11.6722 44.3076 11.6303 44.3076Z" fill="#26192A"/>
</svg>
