<svg width="1438" height="238" viewBox="0 0 1438 238" fill="none" xmlns="http://www.w3.org/2000/svg">
<path d="M1440 191.678V47.2805C1424 32.5852 1403.2 23.6402 1380.48 23.6402C1346.24 23.6402 1316.48 43.7664 1301.44 73.157C1292.48 68.6845 1282.56 66.1289 1272 66.1289C1254.4 66.1289 1238.4 73.157 1226.88 84.3382C1218.56 80.1852 1209.28 77.949 1199.36 77.949C1171.52 77.949 1147.84 96.7973 1140.48 122.354C1132.8 118.84 1124.16 116.924 1115.2 116.924C1096 116.924 1079.04 125.549 1067.84 139.286C1061.44 105.742 1032.96 79.5463 998.4 76.6711C975.04 74.7544 953.92 83.3799 938.56 98.0752C939.52 83.3799 932.16 68.6846 918.08 61.337C901.44 52.392 881.6 56.8644 870.08 70.6014C866.56 63.5732 861.12 57.1839 853.44 53.0309C843.52 47.6 832.32 47.2805 822.4 50.7946C817.6 22.0429 792.64 0 762.56 0C745.92 0 730.88 6.70872 720 17.5705C711.04 12.1396 700.48 8.94493 688.96 8.94493C664 8.94493 642.88 23.6403 633.28 45.0443C626.24 41.8497 618.24 39.9329 609.6 39.9329C585.28 39.9329 564.48 55.2671 556.48 76.9906C548.16 74.4349 539.52 73.157 530.56 73.157C488.32 73.157 453.12 101.27 441.92 139.605H432C421.12 117.243 398.08 101.589 371.52 101.589C352 101.589 334.4 109.895 322.24 123.313C313.92 99.6725 291.2 82.4214 264.64 82.4214C253.12 82.4214 242.56 85.6161 233.6 91.047C227.2 88.4913 220.16 86.894 212.8 86.894C197.12 86.894 183.04 93.2832 172.8 103.506C156.8 75.7127 127.04 57.1839 92.8 57.1839C45.12 57.1839 5.76 93.2833 0.96 139.605H0V149.189V238H1440V191.678ZM864 114.368C863.68 114.048 863.68 114.048 863.36 113.729C864 113.09 864.32 112.77 864.96 112.132C865.28 112.451 865.28 113.09 865.6 113.409C864.96 113.729 864.32 114.048 864 114.368Z" fill="white"/>
</svg>
