<svg width="1440" height="900" viewBox="0 0 1440 900" fill="none" xmlns="http://www.w3.org/2000/svg">
<g clip-path="url(#clip0)">
<rect width="1440" height="900" fill="#161616"/>
<path d="M1440 854V709.36C1424 694.64 1403.2 685.68 1380.48 685.68C1346.24 685.68 1316.48 705.84 1301.44 735.28C1292.48 730.8 1282.56 728.24 1272 728.24C1254.4 728.24 1238.4 735.28 1226.88 746.48C1218.56 742.32 1209.28 740.08 1199.36 740.08C1171.52 740.08 1147.84 758.96 1140.48 784.56C1132.8 781.04 1124.16 779.12 1115.2 779.12C1096 779.12 1079.04 787.76 1067.84 801.52C1061.44 767.92 1032.96 741.68 998.4 738.8C975.04 736.88 953.92 745.52 938.56 760.24C939.52 745.52 932.16 730.8 918.08 723.44C901.44 714.48 881.6 718.96 870.08 732.72C866.56 725.68 861.12 719.28 853.44 715.12C843.52 709.68 832.32 709.36 822.4 712.88C817.6 684.08 792.64 662 762.56 662C745.92 662 730.88 668.72 720 679.6C711.04 674.16 700.48 670.96 688.96 670.96C664 670.96 642.88 685.68 633.28 707.12C626.24 703.92 618.24 702 609.6 702C585.28 702 564.48 717.36 556.48 739.12C548.16 736.56 539.52 735.28 530.56 735.28C488.32 735.28 453.12 763.44 441.92 801.84H432C421.12 779.44 398.08 763.76 371.52 763.76C352 763.76 334.4 772.08 322.24 785.52C313.92 761.84 291.2 744.56 264.64 744.56C253.12 744.56 242.56 747.76 233.6 753.2C227.2 750.64 220.16 749.04 212.8 749.04C197.12 749.04 183.04 755.44 172.8 765.68C156.8 737.84 127.04 719.28 92.8 719.28C45.12 719.28 5.76 755.44 0.96 801.84H0V811.44V900.4H1440V854ZM864 776.56C863.68 776.24 863.68 776.24 863.36 775.92C864 775.28 864.32 774.96 864.96 774.32C865.28 774.64 865.28 775.28 865.6 775.6C864.96 775.92 864.32 776.24 864 776.56Z" fill="white"/>
</g>
<defs>
<clipPath id="clip0">
<rect width="1440" height="900" fill="white"/>
</clipPath>
</defs>
</svg>
