<svg width="176" height="186" viewBox="0 0 176 186" fill="none" xmlns="http://www.w3.org/2000/svg">
<path d="M116.795 104.118C118.188 104.569 119.29 104.97 120.423 105.291C136.199 109.751 148.787 119.263 159.732 130.951C168.522 140.343 172.922 151.92 174.084 164.75C174.305 167.166 175.487 169.491 175.698 171.907C176.039 175.836 175.999 179.816 175.999 183.765C175.999 184.446 175.437 185.128 175.056 186C174.455 185.539 174.104 185.389 173.924 185.118C169.995 179.445 166.156 173.701 162.157 168.078C150.782 152.02 135.497 144.352 115.652 146.698C103.725 148.101 91.8282 149.945 79.8612 150.938C54.8546 153.003 33.2658 144.683 15.6059 127.232C2.11534 113.891 -2.04405 96.921 0.892587 78.4277C3.51852 61.8788 10.1936 46.7734 20.4167 33.5323C37.6457 11.23 72.5446 -7.46383 110.541 2.97064C135.677 9.86682 153.387 40.208 144.537 67.0008C140.889 78.0568 134.926 87.5591 126.356 95.4275C123.289 98.2441 120.182 101.041 116.795 104.118ZM144.527 135.121C139.085 129.648 133.823 124.125 126.857 120.597C117.536 115.876 107.875 112.768 97.2705 113.149C94.9352 113.229 92.9107 112.357 92.3995 109.711C91.9786 107.516 93.3216 105.521 96.1079 104.749C98.7138 104.018 101.44 103.466 104.136 103.326C106.732 103.186 108.757 102.284 110.24 100.299C113.838 95.4977 117.416 90.6764 120.864 85.7649C125.274 79.4902 127.95 72.4737 129.333 64.936C132.811 45.9014 122.888 27.9392 105.599 21.5943C74.1583 10.0573 46.5759 24.6916 31.4316 44.9391C24.055 54.8123 19.3643 66.1088 16.6983 78.167C13.7817 91.3079 15.9867 103.757 24.6663 113.931C35.8216 126.992 50.2743 134.71 67.7638 135.963C78.037 136.704 88.0797 134.81 98.1826 133.487C113.678 131.442 129.233 128.234 144.527 135.121Z" fill="#80ECEE"/>
<path d="M58.8514 96.8783C56.7941 96.8783 54.6871 97.1887 52.6994 96.8182C45.2951 95.4464 39.9183 88.5574 39.1033 79.8261C38.6262 74.7094 39.8586 69.8932 41.6277 65.1971C45.1758 55.8049 50.6818 47.6643 57.5793 40.4649C58.5731 39.4336 59.736 38.5024 60.9684 37.7915C62.9362 36.66 64.9836 36.65 66.6931 38.3622C68.4323 40.1045 68.2932 42.1271 67.1105 44.0997C64.9737 47.6843 62.4791 51.0787 60.6802 54.8236C57.788 60.8414 54.7865 66.8993 52.8286 73.2576C50.4731 80.8775 52.7789 87.9366 57.788 94.0646C58.2352 94.6153 58.6228 95.2061 59.0403 95.7768C58.9806 96.1373 58.9111 96.5078 58.8514 96.8783Z" fill="#80ECEE"/>
<path d="M69.7669 90.8461C67.6177 91.3985 65.9935 90.4022 64.8743 88.8438C63.8542 87.4136 62.8638 85.7566 62.5667 84.0798C61.398 77.4318 62.022 70.8825 64.5772 64.5995C65.736 61.7687 67.8357 60.6048 70.2225 61.1177C72.6787 61.6503 74.3525 63.7907 73.9365 66.8484C73.1442 72.6875 72.0053 78.4773 70.9852 84.2869C70.6088 86.4667 70.1829 88.6268 69.7669 90.8461Z" fill="#80ECEE"/>
</svg>
