<svg width="166" height="216" viewBox="0 0 166 216" fill="none" xmlns="http://www.w3.org/2000/svg">
<path d="M82.3939 117.218C83.6332 116.948 84.4828 116.769 85.3323 116.569C92.5885 114.841 99.7747 115.201 106.811 117.577C112.828 119.614 117.165 123.429 117.875 130.059C118.585 136.679 115.246 141.492 109.749 144.637C91.609 155.021 69.041 148.042 64.2436 127.003C60.3056 109.739 73.0289 92.4549 91.2792 90.5078C96.4964 89.9487 102.093 90.2183 107.161 91.4963C124.042 95.77 137.635 105.475 146.99 119.974C158.643 138.057 158.903 157.158 148.289 175.94C137.065 195.79 119.524 207.683 97.7457 213.134C67.9416 220.593 41.6056 213.424 19.2775 192.415C7.68364 181.512 2.90616 167.193 0.827269 151.836C-1.3016 136.14 0.777301 120.832 5.92456 105.995C18.0081 71.2167 37.6177 41.5211 66.3624 18.1261C74.0783 11.8555 82.3639 6.44364 91.539 2.59939C94.8173 1.22145 98.4654 0.432611 102.013 0.0531792C105.642 -0.326253 108.78 1.34126 110.769 4.5265C111.269 5.3253 111.558 6.76314 111.169 7.48207C110.789 8.18102 109.32 8.82008 108.48 8.65033C102.943 7.58193 98.3454 9.78861 93.8078 12.4346C77.0967 22.1601 63.9137 35.7598 52.4898 51.0269C37.1879 71.4663 26.2638 94.0525 21.3264 119.265C19.3674 129.26 19.5873 139.245 21.8861 149.24C25.5541 165.176 34.8992 176.449 49.3415 183.828C74.7779 196.839 106.581 191.666 126.43 171.117C132.607 164.717 137.215 157.398 138.274 148.351C139.174 140.713 137.784 133.364 133.347 127.063C125.331 115.7 114.387 108.751 100.394 107.093C96.0467 106.574 91.8788 107.413 88.1009 109.729C85.4123 111.397 83.5033 113.693 82.3939 117.218Z" fill="#FFEA9F"/>
<path d="M164.001 95C163.439 93.9901 162.796 93.0202 162.345 91.9604C158.971 84.0613 153.429 78.1419 145.979 73.9124C139.503 70.2429 132.636 70.8828 125.728 72.1126C123.931 72.4326 122.164 72.8826 120.367 73.2025C116.823 73.8224 114.223 72.6526 113.299 70.0729C112.395 67.5432 113.54 64.6035 116.743 63.1637C128.469 57.8943 140.327 56.8144 151.26 64.7235C155.648 67.9031 159.323 72.3426 162.545 76.7621C166.431 82.1015 166.742 88.3608 164.945 94.63C164.624 94.76 164.312 94.88 164.001 95Z" fill="#FFEA9F"/>
<path d="M129 45.3197C127.795 46.1353 126.989 46.8625 126.043 47.3047C120.567 49.8892 116.036 53.594 112.173 58.2029C109.923 60.8955 106.926 61.603 104.168 60.5024C101.669 59.5001 99.6678 56.9254 100.046 54.1836C100.325 52.1789 101.121 49.9384 102.416 48.4152C107.782 42.116 120.119 40.072 127.407 44.0126C127.855 44.2485 128.203 44.6613 129 45.3197Z" fill="#FFEA9F"/>
<path d="M114.981 31.3272C111.173 32.2747 107.656 32.5368 104.471 29.9764C101.383 27.4967 100.068 23.2027 101.714 20.8742C103.507 18.334 108.153 18.3743 111.328 21.0052C114.465 23.6159 115.127 27.2044 114.981 31.3272Z" fill="#FFEA9F"/>
</svg>
