<svg width="400" height="434" viewBox="0 0 400 434" fill="none" xmlns="http://www.w3.org/2000/svg">
<path d="M265.372 66C265.168 66 264.963 66 264.963 65.7961C264.759 65.5922 264.555 65.1843 264.759 64.9804L275.171 41.5294L261.289 29.0902C261.085 28.8863 260.88 28.4784 261.085 28.2745C261.289 28.0706 261.493 27.8667 261.901 27.8667L280.274 29.9059L287.011 14.4078C287.215 14.2039 287.42 14 287.828 14C288.236 14 288.44 14.2039 288.44 14.6118L292.523 31.3333L315.388 33.7804C315.796 33.7804 316 33.9843 316 34.3922C316 34.8 316 35.0039 315.592 35.2078L296.198 47.0353L299.872 62.1255C299.872 62.5333 299.872 62.7373 299.464 62.9412C299.26 63.1451 298.852 63.1451 298.648 62.9412L287.215 52.5412L265.576 65.7961C265.576 66 265.372 66 265.372 66ZM276.191 42.549L267.005 63.349L286.195 51.5216L276.191 42.549ZM288.644 51.7255L298.035 60.0863L294.973 47.851L288.644 51.7255ZM276.804 41.1216L287.419 50.7059L294.565 46.2196L291.298 32.5569L281.091 31.5373L276.804 41.1216ZM292.931 32.7608L295.994 45.4039L312.938 35.0039L292.931 32.7608ZM263.943 29.702L275.579 40.102L279.458 31.3333L263.943 29.702ZM281.703 30.1098L290.89 31.1294L287.419 17.2627L281.703 30.1098Z" fill="#26192A"/>
<path d="M103.202 20.3641C103.202 20.3641 97.3279 1.56753 110.494 2.16111C123.66 2.75469 125.685 15.0219 117.178 11.6583C108.671 8.4926 121.634 -4.17038 129.939 3.34826C138.244 10.8669 141.08 21.3534 130.952 20.9577C120.824 20.562 126.293 14.2305 133.585 18.3855C140.877 22.5406 139.054 31.2464 128.724 34.8078C118.394 38.3693 115.558 28.2785 121.229 29.4656C126.901 30.8507 131.965 39.9522 120.419 40.9415C108.873 41.9308 103.404 30.0592 110.089 29.6635C116.773 29.2678 115.355 38.1714 106.443 38.9629C97.5304 39.9522 91.8589 15.6155 99.7585 13.6369C108.063 12.0541 109.886 23.1342 103.202 20.3641Z" fill="#FFFAF0"/>
<path d="M119.495 42C116.283 42 113.271 41 110.861 39.2C109.657 39.6 108.452 40 107.247 40.2C101.625 40.8 97.2076 32.4 96.2037 24.4C95.4005 18.2 97.0068 14 100.42 13.2C100.822 13 101.424 13 101.826 13C101.625 8.8 102.428 5.6 104.235 3.6C105.842 1.8 108.05 1 111.062 1.2C113.471 1.4 115.68 1.8 117.487 2.6C119.495 1 122.105 0 124.515 0C126.924 0 129.133 0.8 130.94 2.6C135.96 7 138.972 12.6 138.57 16.6C138.57 18 137.968 19.2 137.165 20.2C138.771 22.2 139.373 24.6 138.771 27C137.968 30.8 134.353 34 129.133 35.8C128.731 36 128.531 36 128.33 36C128.531 37.2 128.129 38.2 127.527 39.2C126.322 40.8 124.113 41.8 120.901 42C120.298 42 119.897 42 119.495 42ZM112.267 38.4C114.676 40 117.487 40.8 120.7 40.6C123.511 40.4 125.519 39.6 126.322 38.4C126.724 37.8 126.924 37.2 126.924 36.4C123.31 37 120.098 35.8 118.692 33.4C118.09 32.2 117.889 31 118.491 30C119.094 29 120.298 28.6 121.905 29C124.515 29.6 127.125 32 128.129 34.6C128.33 34.6 128.731 34.4 128.932 34.4C133.55 32.8 136.763 30 137.566 26.6C137.968 24.6 137.566 22.6 136.161 21C135.157 21.6 133.751 21.8 132.145 21.8H131.542C125.72 21.6 125.318 19.4 125.318 18.8C125.318 17.4 127.125 16.2 129.535 16.2C130.739 16.2 132.546 16.4 134.554 17.6C135.157 18 135.759 18.4 136.361 18.8C136.964 18.2 137.365 17.4 137.365 16.2C137.566 12.6 134.755 7.6 130.137 3.4C128.531 2 126.724 1.2 124.716 1.2C122.909 1.2 120.901 1.8 119.294 3C122.708 5.2 124.113 8.2 123.712 10.2C123.31 11.6 122.105 12.4 120.499 12.4C119.696 12.4 118.692 12.2 117.688 11.8C115.479 11 114.676 9.4 114.475 8.4C114.275 6.8 114.877 4.8 116.483 3.2C114.877 2.6 113.07 2.2 111.263 2.2C108.653 2 106.845 2.8 105.641 4C103.633 6 103.432 9.6 103.633 12.4C107.046 12.8 108.853 16 108.853 18.2C108.853 20 107.649 21 106.042 21C105.44 21 104.637 20.8 103.834 20.4C103.633 20.4 103.432 20.2 103.432 20C103.432 19.8 102.629 17.2 102.227 13.8C101.826 13.8 101.424 13.8 101.023 14C98.0108 14.8 97.4084 19.4 98.0108 23.6C98.8139 30.8 102.83 38.6 107.247 38C108.251 38 109.054 37.8 109.857 37.4C107.849 35.2 106.845 32.6 107.448 30.8C107.649 30 108.452 28.6 110.861 28.6H111.263C113.672 28.6 115.279 29.8 115.881 31.6C115.881 34.4 114.676 36.8 112.267 38.4ZM110.861 30.6H110.66C109.456 30.6 108.853 31 108.653 31.8C108.251 33 109.054 35.4 111.062 37.4C113.471 36 114.275 34 114.074 32.6C113.672 31.2 112.468 30.6 110.861 30.6ZM120.499 30.2C120.098 30.2 119.696 30.4 119.495 30.6C119.294 31 119.294 31.8 119.696 32.4C120.098 33 121.302 34.8 124.716 34.8C125.318 34.8 125.72 34.8 126.322 34.6C125.519 32.6 123.31 30.8 121.302 30.2C120.901 30.2 120.7 30.2 120.499 30.2ZM129.133 17.8C127.326 17.8 126.523 18.4 126.523 18.8C126.523 19.2 127.727 20.2 131.342 20.2H131.743C132.948 20.2 133.952 20 134.755 19.8C134.354 19.6 133.952 19.2 133.55 19C131.542 18 129.936 17.8 129.133 17.8ZM104.235 19.8C104.637 20 105.239 20 105.44 20C106.444 20 106.846 19.2 106.846 18.6C106.846 17 105.641 15 103.231 14.4C103.633 16.8 104.034 19 104.235 19.8ZM117.487 4.2C116.082 5.6 115.279 7.2 115.479 8.4C115.68 9.4 116.483 10.2 117.688 10.6C119.897 11.4 121.302 11.2 121.704 10C122.105 8.6 120.7 6 117.487 4.2Z" fill="#26192A"/>
<path d="M340.785 334C340.582 334 340.177 333.797 340.177 333.594C333.488 318.155 298.426 316.936 287.887 316.936C285.455 316.936 284.036 316.936 284.036 316.936C283.631 316.936 283.428 316.732 283.226 316.326C278.564 300.684 233.165 297.433 232.76 297.433C232.557 297.433 232.355 297.23 232.152 297.027C231.949 296.824 231.949 296.621 232.152 296.418L257.891 233.442C258.094 233.239 258.297 233.036 258.499 233.036C276.74 232.426 288.495 239.74 295.183 245.631C300.858 250.71 303.695 255.788 304.709 257.617C310.384 254.569 316.869 253.147 323.557 253.147C345.649 253.147 365.511 269.805 365.713 270.009C365.916 270.212 366.119 270.618 365.916 270.821L341.798 333.594C341.19 333.797 340.987 334 340.785 334ZM287.684 315.31C301.061 315.31 332.272 316.936 340.582 331.359L363.889 270.821C360.849 268.383 343.014 254.772 323.152 254.772C316.464 254.772 310.181 256.398 304.303 259.445C304.101 259.648 303.898 259.648 303.695 259.445C303.493 259.445 303.29 259.242 303.29 259.039C303.087 258.835 291.94 234.458 260.121 234.458C259.715 234.458 259.31 234.458 258.702 234.458L233.571 296.011C240.664 296.621 278.767 300.481 284.239 315.31C284.847 315.31 286.063 315.31 287.684 315.31Z" fill="#26192A"/>
<path d="M283.692 317H283.488C283.08 316.797 282.876 316.39 283.08 315.984L303.491 258.486C303.695 258.08 304.103 257.877 304.512 258.08C304.92 258.283 305.124 258.689 304.92 259.096L284.509 316.594C284.305 316.797 283.896 317 283.692 317Z" fill="#26192A"/>
<path d="M341.052 334C340.849 334 340.646 334 340.646 333.796C340.442 333.591 323.759 321.742 283.881 316.839H283.678C283.474 316.634 257.229 302.129 232.61 297.43C232.203 297.43 232 297.022 232 296.613C232 296.204 232.407 296 232.814 296C256.822 300.699 282.254 314.387 284.288 315.613C324.573 320.516 341.053 332.366 341.663 332.978C342.07 333.183 342.07 333.796 341.866 334C341.459 333.796 341.256 334 341.052 334Z" fill="#26192A"/>
<path d="M357.234 278C357.03 278 356.825 278 356.621 277.793C356.417 277.587 339.461 260.23 308.817 265.396C308.409 265.396 308 265.189 308 264.776C308 264.363 308.204 263.949 308.613 263.949C325.16 261.263 337.622 264.776 345.181 268.288C353.352 272.214 357.642 276.554 357.847 276.76C358.051 276.967 358.051 277.587 357.847 277.793C357.438 278 357.438 278 357.234 278Z" fill="#26192A"/>
<path d="M352.234 284C352.03 284 351.825 284 351.621 283.793C351.417 283.587 334.461 266.23 303.817 271.396C303.409 271.396 303 271.189 303 270.776C303 270.363 303.204 269.949 303.613 269.949C320.16 267.263 332.622 270.776 340.181 274.288C348.352 278.214 352.642 282.554 352.847 282.76C353.051 282.967 353.051 283.587 352.847 283.793C352.642 284 352.438 284 352.234 284Z" fill="#26192A"/>
<path d="M351.234 293C351.03 293 350.825 293 350.621 292.793C350.417 292.587 333.461 275.23 302.817 280.396C302.409 280.396 302 280.189 302 279.776C302 279.363 302.204 278.949 302.613 278.949C319.16 276.263 331.622 279.776 339.181 283.288C347.352 287.214 351.642 291.554 351.847 291.76C352.051 291.967 352.051 292.587 351.847 292.793C351.642 293 351.438 293 351.234 293Z" fill="#26192A"/>
<path d="M348.234 301C348.03 301 347.825 301 347.621 300.793C347.417 300.587 330.461 283.23 299.817 288.396C299.409 288.396 299 288.189 299 287.776C299 287.363 299.204 286.949 299.613 286.949C316.16 284.263 328.622 287.776 336.181 291.288C344.352 295.214 348.642 299.554 348.847 299.76C349.051 299.967 349.051 300.587 348.847 300.793C348.642 301 348.438 301 348.234 301Z" fill="#26192A"/>
<path d="M344.234 311C344.03 311 343.825 311 343.621 310.793C343.417 310.587 326.461 293.23 295.817 298.396C295.409 298.396 295 298.189 295 297.776C295 297.363 295.204 296.949 295.613 296.949C312.16 294.263 324.622 297.776 332.181 301.288C340.352 305.214 344.642 309.554 344.847 309.76C345.051 309.967 345.051 310.587 344.847 310.793C344.642 311 344.438 311 344.234 311Z" fill="#26192A"/>
<path d="M341.234 320C341.03 320 340.825 320 340.621 319.793C340.417 319.587 323.461 302.23 292.817 307.396C292.409 307.396 292 307.189 292 306.776C292 306.363 292.204 305.949 292.613 305.949C309.16 303.263 321.622 306.776 329.181 310.288C337.352 314.214 341.642 318.554 341.847 318.76C342.051 318.967 342.051 319.587 341.847 319.793C341.438 319.793 341.234 320 341.234 320Z" fill="#26192A"/>
<path d="M298.11 262C297.908 262 297.505 261.798 297.505 261.596C297.303 261.394 284.799 240.778 261.807 245.022C261.403 245.022 261 244.82 261 244.416C261 244.012 261.202 243.607 261.605 243.607C285.605 239.161 298.715 260.585 298.916 260.787C299.118 261.192 298.917 261.596 298.715 261.798C298.311 262 298.11 262 298.11 262Z" fill="#26192A"/>
<path d="M293.26 269C293.057 269 292.855 268.793 292.652 268.586C292.45 268.378 278.887 248.071 256.012 253.666C255.607 253.666 255.202 253.458 255 253.044C255 252.629 255.202 252.215 255.607 252.008C279.494 246.206 293.867 267.342 293.867 267.549C294.069 267.964 294.069 268.378 293.665 268.586C293.462 269 293.462 269 293.26 269Z" fill="#26192A"/>
<path d="M292.26 277C292.057 277 291.855 276.793 291.652 276.586C291.45 276.378 277.887 256.071 255.012 261.666C254.607 261.666 254.202 261.458 254 261.044C254 260.629 254.202 260.215 254.607 260.008C278.494 254.206 292.867 275.342 292.867 275.549C293.069 275.964 293.069 276.378 292.665 276.586C292.462 277 292.26 277 292.26 277Z" fill="#26192A"/>
<path d="M288.26 286C288.057 286 287.855 285.793 287.652 285.586C287.45 285.378 273.887 265.071 251.012 270.666C250.607 270.666 250.202 270.458 250 270.044C250 269.629 250.202 269.215 250.607 269.008C274.494 263.206 288.867 284.342 288.867 284.549C289.069 284.964 289.069 285.378 288.665 285.586C288.462 286 288.26 286 288.26 286Z" fill="#26192A"/>
<path d="M283.264 293C283.062 293 282.861 293 282.66 292.8C282.458 292.601 267.76 274.238 245.007 279.627C244.604 279.627 244.201 279.427 244 279.028C244 278.629 244.201 278.23 244.604 278.03C268.364 272.441 283.666 291.403 283.868 291.603C284.069 292.002 284.069 292.401 283.666 292.601C283.465 293 283.264 293 283.264 293Z" fill="#26192A"/>
<path d="M280.26 303C280.057 303 279.855 302.796 279.652 302.591C279.45 302.387 265.887 284.189 243.012 289.71C242.607 289.71 242.202 289.505 242 289.096C242 288.688 242.202 288.279 242.607 288.074C266.494 282.349 280.665 301.364 280.867 301.569C281.069 301.978 281.069 302.387 280.665 302.591C280.665 303 280.462 303 280.26 303Z" fill="#26192A"/>
<path d="M307.138 226C306.733 226 306.53 225.794 306.328 225.382L300.054 201.084C299.851 200.673 300.256 200.261 300.661 200.055C301.066 199.849 301.471 200.261 301.673 200.673L307.947 224.97C308.15 225.588 307.745 226 307.138 226C307.34 226 307.34 226 307.138 226Z" fill="#26192A"/>
<path d="M290.856 217C290.455 217 290.254 216.801 290.053 216.404C289.853 216.007 290.254 215.609 290.656 215.411L312.943 209.053C313.344 208.854 313.746 209.252 313.947 209.649C314.147 210.046 313.746 210.444 313.344 210.642L291.057 217C291.057 217 291.057 217 290.856 217Z" fill="#26192A"/>
<path d="M313.278 219C313.081 219 313.081 219 312.883 218.799L294.327 206.338C293.932 206.137 293.932 205.735 294.13 205.333C294.327 204.931 294.722 204.931 295.117 205.132L313.673 217.593C314.068 217.794 314.068 218.196 313.87 218.598C313.673 218.799 313.476 219 313.278 219Z" fill="#26192A"/>
<path d="M297.751 223C297.546 223 297.545 223 297.34 223C296.93 222.794 296.93 222.381 297.135 221.969L308.633 201.342C308.838 200.929 309.249 200.929 309.66 201.135C310.07 201.342 310.07 201.754 309.865 202.167L298.367 222.794C298.367 222.794 298.161 223 297.751 223Z" fill="#26192A"/>
<path d="M344.8 31.6176L344 24L350 27.9118L356.2 25.0294L354.4 32.0294L360 38.2059L351.8 36.5588L350 45L345.8 36.3529L338 36.7647L344.8 31.6176Z" fill="#01D8DC"/>
<path d="M152.659 185.366C152.659 185.366 175.077 163.426 212.238 201.008C260.507 249.965 205.169 291 205.169 291C205.169 291 132.058 236.151 152.659 185.366Z" fill="#FAB217"/>
<path d="M129.112 82.616C129.112 82.616 216.725 74.9364 226.054 39.1652C235.586 3.39402 219.564 -2.0626 212.263 6.62757C204.962 15.5198 213.683 47.8554 192.997 51.0889C180.625 53.1099 211.858 20.1681 199.892 14.9135C187.926 9.65902 185.493 59.3749 178.192 56.5455C170.891 53.7162 189.346 22.5932 174.541 28.454C159.939 34.3149 173.933 65.842 155.072 67.6609C152.841 67.863 161.156 46.6428 152.841 49.27C144.728 51.6952 161.156 70.086 121 79.9888C121.203 79.9888 121.811 86.8601 129.112 82.616Z" fill="#26192A"/>
<path d="M125.449 85C122.213 85 121.202 81.9634 121 80.3439C121 79.939 121.202 79.5341 121.607 79.5341C148.703 72.8537 149.31 62.5293 149.917 55.6463C150.119 52.4073 150.321 49.7756 153.354 48.7634C154.972 48.3585 156.185 48.561 156.994 49.5732C158.814 51.8 157.803 57.4683 156.792 62.3268C156.388 64.1488 155.983 66.1732 155.983 67.1854C164.881 66.1732 165.69 57.2659 166.296 47.9537C166.903 39.4512 167.51 30.9488 174.789 27.9122C177.822 26.6976 179.642 26.9 180.856 28.3171C182.676 30.7463 181.26 36.4146 179.642 42.4878C178.025 48.3585 176.407 55.2415 178.834 56.0512C179.036 56.0512 179.036 56.0512 179.238 56.0512C181.462 56.0512 183.889 47.1439 185.911 39.0463C189.147 26.6976 192.382 13.7415 198.651 13.7415C199.257 13.7415 200.066 13.9439 200.673 14.1463C202.088 14.7537 203.099 15.7659 203.504 17.1829C205.122 22.0415 200.471 30.3415 196.426 37.6293C193.595 42.6902 190.562 48.3585 191.371 49.978C191.371 49.978 191.573 50.3829 192.382 50.3829C192.584 50.3829 192.989 50.3829 193.191 50.3829C205.728 48.3585 206.739 34.7951 207.953 22.8512C208.559 15.9683 209.166 9.49024 211.997 6.04878C214.019 3.41707 216.85 2 219.681 2C222.31 2 224.736 3.21463 226.354 5.6439C228.983 9.08537 232.623 17.9927 227.163 39.2488C223.119 54.4317 205.526 66.3756 174.789 74.8781C153.152 80.9512 132.122 82.9756 130.1 83.178C128.078 84.3927 126.662 85 125.449 85ZM122.416 80.7488C122.618 81.761 123.427 83.3805 125.247 83.3805C126.258 83.3805 127.471 82.9756 128.886 82.1658C128.886 82.1658 129.089 82.1658 129.291 82.1658C130.1 82.1658 216.041 74.0683 225.343 39.2488C230.803 18.8024 227.365 10.3 224.939 7.06098C223.523 5.03659 221.501 4.02439 219.479 4.02439C217.254 4.02439 214.828 5.23902 213.008 7.46585C210.581 10.5024 209.975 16.778 209.368 23.4585C208.357 36.0098 206.941 50.1805 193.393 52.2049C192.989 52.2049 192.584 52.2049 192.382 52.2049C191.169 52.2049 190.36 51.8 189.955 50.9902C188.742 48.7634 190.966 44.3098 195.011 37.2244C198.651 30.5439 203.302 22.0415 202.088 17.9927C201.684 16.9805 201.077 16.3732 200.066 15.7659C199.662 15.5634 199.055 15.361 198.651 15.361C193.595 15.361 190.158 28.722 187.327 39.4512C184.496 50.5854 182.473 57.4683 179.238 57.4683C179.036 57.4683 178.631 57.4683 178.429 57.2659C174.587 55.8488 176.407 48.9659 178.227 41.8805C179.642 36.8195 181.058 30.9488 179.642 29.1268C179.44 28.9244 179.036 28.5195 178.227 28.5195C177.418 28.5195 176.609 28.722 175.396 29.1268C169.127 31.7585 168.521 39.4512 167.914 47.7512C167.307 57.4683 166.498 67.3878 155.781 68.4C155.377 68.4 154.972 68.1976 154.77 67.9951C154.163 67.1854 154.366 65.5659 155.174 61.7195C155.983 57.8732 157.197 51.8 155.781 50.1805C155.377 49.7756 154.77 49.5732 153.759 49.978C151.737 50.5854 151.535 52.2049 151.332 55.4439C150.726 62.5293 149.917 73.8658 122.416 80.7488Z" fill="#26192A"/>
<path d="M104.094 88.4667C104.094 88.4667 16.9257 78.3082 8.41154 42.1439C-0.102575 5.97957 16.1148 0.900311 23.2099 9.8398C30.305 18.9825 20.7773 51.2865 41.049 55.1468C53.4148 57.5848 23.0072 23.4522 35.1702 18.5761C47.3333 13.7 48.3469 63.6799 55.6447 61.0387C62.9425 58.3975 45.5088 26.7029 60.1044 32.798C74.7 38.8931 59.699 70.3845 78.3489 72.8226C80.5788 73.0257 72.8756 51.6929 80.9843 54.3341C89.093 56.9753 72.0647 75.0574 112 86.0286C112 86.2318 111.189 92.9364 104.094 88.4667Z" fill="#26192A"/>
<path d="M107.75 90C106.536 90 104.917 89.3929 103.298 88.381C101.274 88.1786 80.2281 85.3452 58.7771 78.869C28.2195 69.3571 11.0182 57.0119 7.37558 41.8333C2.51874 20.7857 6.16134 11.881 8.9945 8.44048C10.8158 6.21429 13.2443 5 15.6727 5C18.5058 5 21.339 6.61905 23.3627 9.25C25.9934 12.6905 26.3982 19.1667 26.8029 26.25C27.6124 38.1905 28.4219 51.75 40.7663 54.1786C41.1711 54.1786 41.3734 54.381 41.7782 54.381C42.5877 54.381 42.79 54.1786 42.79 53.9762C43.8019 52.3571 40.7664 46.6905 38.1356 41.631C34.2906 34.1429 29.8385 25.6429 31.6598 20.9881C32.2669 19.5714 33.2787 18.5595 34.6953 17.9524C35.3024 17.75 35.9095 17.5476 36.5166 17.5476C42.79 17.5476 45.8255 30.5 48.6587 43.0476C50.48 50.7381 52.5037 60.25 54.7297 60.25H54.9321C57.5629 59.2381 55.9439 52.5595 54.5274 46.4881C53.1108 40.4167 51.8966 34.75 53.7179 32.3214C54.9321 30.9048 56.7534 30.7024 59.7889 32.119C66.8718 35.1548 67.2766 43.8571 67.6813 52.3571C68.086 61.6667 68.4908 70.5714 77.395 71.7857C77.395 70.9762 76.9902 68.75 76.7879 66.9286C75.9784 62.0714 74.9666 56.4048 76.9902 54.1786C77.7997 53.1667 79.014 52.9643 80.6329 53.5714C83.6684 54.5833 83.6684 57.4167 83.8708 60.4524C84.0731 67.3333 84.6802 77.6548 111.393 85.1429C111.798 85.1429 112 85.5476 112 85.9524C112 87.1667 110.786 90 107.75 90ZM15.4703 6.41667C13.4466 6.41667 11.4229 7.42857 10.0063 9.45238C7.37555 12.6905 3.93534 20.9881 8.79218 41.631C17.0893 76.6429 102.691 87.1667 103.703 87.1667C103.905 87.1667 103.905 87.1667 104.108 87.369C105.524 88.381 106.941 88.7857 107.953 88.7857C109.774 88.7857 110.583 87.1667 110.786 86.1548C83.4661 78.4643 83.0613 67.1309 82.8589 60.25C82.6565 57.0119 82.6566 55.3929 80.6329 54.5833C79.6211 54.1786 79.014 54.381 78.6092 54.7857C77.1926 56.4048 78.2044 62.4762 78.8115 66.3214C79.4187 70.1667 79.621 71.7857 79.0139 72.5952C78.8116 72.7976 78.6092 73 78.2045 73C67.479 71.5833 67.0742 61.6667 66.4671 51.9524C66.0624 43.6548 65.6577 35.7619 59.3842 33.131C58.17 32.7262 57.3605 32.3214 56.551 32.3214C55.7416 32.3214 55.3369 32.7262 55.1345 32.9286C53.7179 34.75 54.9321 40.619 56.1463 45.6786C57.7653 52.9643 59.3842 59.6429 55.5392 61.0595C55.3368 61.0595 54.9321 61.2619 54.7297 61.2619C51.4918 61.2619 49.6706 54.3809 47.0398 43.0476C44.6114 32.119 41.5758 18.7619 36.3142 18.7619C35.9095 18.7619 35.5048 18.7619 34.8977 18.9643C33.8858 19.369 33.0764 20.1786 32.874 20.9881C31.255 25.0357 35.7071 33.5357 39.3497 40.4167C42.9924 47.7024 45.2185 52.1548 44.0042 54.381C43.3971 55.3929 42.3853 55.7976 40.3616 55.3929C26.8029 52.7619 25.9934 38.5952 25.184 26.0476C24.7792 19.369 24.3745 13.0952 21.9461 10.0595C20.3272 7.63095 17.8987 6.41667 15.4703 6.41667Z" fill="#26192A"/>
<path d="M170 211.147C170 211.147 170.203 84.556 146.898 70.1983C123.593 55.8406 33.0069 92.4427 35.0335 127.831C37.06 163.22 108.394 136.729 108.394 136.729L101.301 216L170 211.147Z" fill="#BB7A46"/>
<path d="M149 81C149 81 197.372 81 201 96.8758C201 96.8758 169.558 125.651 149 81Z" fill="#BB7A46"/>
<path d="M58.718 93C58.718 93 79.2352 120.171 74.2065 145.129C74.2065 145.129 39.2063 154.186 31.9649 132.449C24.9247 110.712 58.718 93 58.718 93Z" fill="#F8C19A"/>
<path d="M56.0318 147C53.2942 147 50.3461 139.104 49.0826 135.779C48.872 135.364 49.0826 134.948 49.5038 134.74C49.925 134.532 50.3461 134.74 50.5567 135.156C52.4519 141.182 54.9789 145.545 55.8212 145.338C55.8212 145.338 57.5058 144.922 57.2953 131.831C57.2953 131.416 57.7164 131 58.1376 131C58.5587 131 58.9799 131.416 58.9799 131.831C59.1905 144.714 57.7164 146.584 56.0318 147C56.2424 147 56.2424 147 56.0318 147Z" fill="#26192A"/>
<path d="M47.7877 101C47.7877 101 55.2828 138.096 33 120.049C33 119.849 34.2155 110.023 47.7877 101Z" fill="#26192A"/>
<path d="M121.03 103C120.62 103 120.21 102.795 119.8 102.59C116.52 100.542 116.93 89.0723 117.135 86.8193C117.135 86.4096 117.545 86 117.955 86C118.365 86 118.775 86.4096 118.775 86.8193C118.57 91.7349 118.775 99.9277 120.62 101.157C120.825 101.361 121.03 101.361 121.645 101.157C126.155 98.6988 126.36 88.253 126.36 88.253C126.36 87.8434 126.77 87.4337 127.18 87.4337C127.59 87.4337 128 87.8434 128 88.253C128 88.6626 128 99.7229 122.465 102.59C122.055 102.795 121.44 103 121.03 103Z" fill="#26192A"/>
<path d="M88.2348 96C87.6097 96 87.193 95.8008 86.9846 95.6015C84.0674 93.6091 85.1092 84.4439 85.526 82.6507C85.526 82.2522 85.9427 81.8538 86.3594 82.053C86.7762 82.053 87.193 82.4515 86.9846 82.85C86.3595 87.0341 86.3595 93.4098 87.8181 94.4061C88.0264 94.4061 88.2348 94.6053 88.8599 94.2068C93.6525 91.8159 94.486 83.2485 94.486 83.2485C94.486 82.85 94.9027 82.4515 95.3195 82.6507C95.7362 82.6507 96.1529 83.0492 95.9446 83.4477C95.9446 83.8462 94.9027 92.8121 89.485 95.6015C89.0683 96 88.6516 96 88.2348 96Z" fill="#26192A"/>
<path d="M184.272 96C184.073 96 184.073 96 183.874 96C183.675 96 172.129 89.4 157.796 89.6C157.398 89.6 157 89.2 157 88.8C157 88.4 157.398 88 157.796 88C172.527 88 184.073 94.2 184.67 94.6C185.068 94.8 185.068 95.2 184.869 95.6C184.67 95.8 184.471 96 184.272 96Z" fill="#26192A"/>
<path d="M169.114 192C169.114 192 214.667 246.097 203.127 313.769C191.384 381.644 107.971 370.703 83.0682 345.579C42.3738 304.652 102.909 194.431 102.909 194.431L169.114 192Z" fill="#BB7A46"/>
<path d="M116.405 345C116.405 345 115.805 377 120 425H97.629C97.629 425 87.8417 383.278 90.4384 345H116.405Z" fill="#BB7A46"/>
<path d="M176 204.061C176 204.061 213.635 203.656 219.27 170.683C222.087 154.702 206.792 138.924 206.792 138.924L226.716 128C226.716 128 251.672 153.893 241.609 186.462C229.735 224.492 189.082 234 189.082 234L176 204.061Z" fill="#BB7A46"/>
<path d="M103.587 194.756C103.587 194.756 80.8931 224.898 50.7017 209.928C36.3152 202.646 32.4653 181 32.4653 181L12 190.71C12 190.71 18.0788 226.314 50.2964 237.44C88.1876 250.589 120 223.077 120 223.077L103.587 194.756Z" fill="#BB7A46"/>
<path d="M173.235 347.825C173.235 347.825 151.839 376.219 167.529 385.751C183.015 395.486 191.981 388.793 191.981 388.793L193 407.858C193 407.858 171.604 414.753 155.507 403.802C122.293 381.289 139.409 346 139.409 346L173.235 347.825Z" fill="#BB7A46"/>
<path d="M92.4513 331.886C92.4513 331.886 78.2839 306.468 82.9389 275.201C87.5939 243.933 103.988 201.57 133.941 224.567C164.098 247.564 174.015 326.641 148.109 339.955C105 361.944 92.4513 331.886 92.4513 331.886Z" fill="#F8C19A"/>
<path d="M179.263 203.552C179.263 203.552 174.038 268.186 208 275.659C208 275.659 204.785 283.739 204.584 290C204.584 290 178.66 281.921 169.215 254.451C159.971 226.982 168.813 188 168.813 188C168.813 188 179.866 200.523 179.263 203.552Z" fill="#FAB217"/>
<path d="M103 195C103 195 77.7727 248.81 70.2452 288C70.2452 288 63.5314 280.893 66.99 257.338C70.0417 235.408 86.114 197.234 103 195Z" fill="#FAB217"/>
<path d="M180.683 338.677L214 341.676C214 341.676 197.951 375.06 176.62 354.07C155.086 333.08 180.683 338.677 180.683 338.677Z" fill="#BB7A46"/>
<path d="M84.2452 67.0389C67.4696 68.055 65.0442 79.4353 65.0442 79.4353C65.0442 79.4353 56.7574 108.292 86.8727 105.854C114.967 103.618 104.457 65.6164 84.2452 67.0389ZM85.8621 99.3507C65.8527 100.976 71.3098 81.6707 71.3098 81.6707C71.3098 81.6707 72.9267 74.1516 84.0431 73.3387C97.787 72.5259 104.659 97.9282 85.8621 99.3507Z" fill="#98D5CC"/>
<path d="M127.212 74.0389C110.464 75.055 108.043 86.4353 108.043 86.4353C108.043 86.4353 99.7692 115.292 129.836 112.854C157.884 110.618 147.593 72.6164 127.212 74.0389ZM128.827 106.351C108.85 107.976 114.298 88.6707 114.298 88.6707C114.298 88.6707 115.912 81.1516 127.011 80.3387C140.732 79.5259 147.593 104.928 128.827 106.351Z" fill="#98D5CC"/>
<path d="M146.689 88L163 80.8814L160.146 76L142 82.9153L146.689 88Z" fill="#98D5CC"/>
<path d="M101.196 90.0649C101.196 90.0649 106.893 89.6456 109.839 93L112 86.9201C112 86.9201 108.268 80.6305 101 83.985V90.0649H101.196Z" fill="#98D5CC"/>
<path d="M216.657 153L237 141.759L228.164 125L207 138.693L216.657 153Z" fill="#26192A"/>
<path d="M159.42 134C159.065 134 158.71 133.579 158.71 133.158C158.71 131.053 158 126.842 158 126.842C158 126.421 158.178 126 158.533 126C158.888 126 159.243 126.211 159.243 126.632C159.243 126.842 159.953 131.053 159.953 133.368C160.13 133.789 159.775 134 159.42 134Z" fill="#26192A"/>
<path d="M154.42 140C154.065 140 153.71 139.579 153.71 139.158C153.71 137.053 153 132.842 153 132.842C153 132.421 153.178 132 153.533 132C153.888 132 154.243 132.211 154.243 132.632C154.243 132.842 154.953 137.053 154.953 139.368C155.13 139.579 154.775 140 154.42 140Z" fill="#26192A"/>
<path d="M160.407 146C160.055 146 159.703 145.579 159.703 145.158C159.703 143.053 159 138.842 159 138.842C159 138.421 159.176 138 159.528 138C159.879 138 160.231 138.211 160.231 138.632C160.231 138.842 160.934 143.053 160.934 145.368C161.11 145.579 160.934 146 160.407 146Z" fill="#26192A"/>
<path d="M154.455 153C154.091 153 153.727 152.579 153.727 152.158C153.727 150.053 153 145.842 153 145.842C153 145.421 153.182 145 153.545 145C153.909 145 154.273 145.211 154.273 145.632C154.273 145.842 155 150.053 155 152.368C155 152.579 154.818 153 154.455 153Z" fill="#26192A"/>
<path d="M160.407 157C160.055 157 159.703 156.579 159.703 156.158C159.703 154.053 159 149.842 159 149.842C159 149.421 159.176 149 159.528 149C159.879 149 160.231 149.211 160.231 149.632C160.231 149.842 160.934 154.053 160.934 156.368C161.11 156.579 160.934 157 160.407 157Z" fill="#26192A"/>
<path d="M153.455 168C153.091 168 152.727 167.579 152.727 167.158C152.727 165.053 152 160.842 152 160.842C152 160.421 152.182 160 152.545 160C152.909 160 153.273 160.211 153.273 160.632C153.273 160.842 154 165.053 154 167.368C154 167.789 153.818 168 153.455 168Z" fill="#26192A"/>
<path d="M161.42 171C161.065 171 160.71 170.579 160.71 170.158C160.71 168.053 160 163.842 160 163.842C160 163.421 160.178 163 160.533 163C160.888 163 161.243 163.211 161.243 163.632C161.243 163.842 161.953 168.053 161.953 170.368C162.13 170.579 161.775 171 161.42 171Z" fill="#26192A"/>
<path d="M155.42 180C155.065 180 154.71 179.579 154.71 179.158C154.71 177.053 154 172.842 154 172.842C154 172.421 154.178 172 154.533 172C154.888 172 155.243 172.211 155.243 172.632C155.243 172.842 155.953 177.053 155.953 179.368C156.13 179.579 155.775 180 155.42 180Z" fill="#26192A"/>
<path d="M162.42 183C162.065 183 161.71 182.579 161.71 182.158C161.71 180.053 161 175.842 161 175.842C161 175.421 161.178 175 161.533 175C161.888 175 162.243 175.211 162.243 175.632C162.243 175.842 162.953 180.053 162.953 182.368C163.13 182.579 162.775 183 162.42 183Z" fill="#26192A"/>
<path d="M153.455 125C153.091 125 152.727 124.579 152.727 124.158C152.727 122.053 152 117.842 152 117.842C152 117.421 152.182 117 152.545 117C152.909 117 153.273 117.211 153.273 117.632C153.273 117.842 154 122.053 154 124.368C154 124.789 153.818 125 153.455 125Z" fill="#26192A"/>
<path d="M157.455 119C157.091 119 156.727 118.579 156.727 118.158C156.727 116.053 156 111.842 156 111.842C156 111.421 156.182 111 156.545 111C156.909 111 157.273 111.211 157.273 111.632C157.273 111.842 158 116.053 158 118.368C158 118.579 157.818 119 157.455 119Z" fill="#26192A"/>
<path d="M98.4263 425H121L119.589 407.739C119.589 407.739 98.8295 406.076 95 407.739L98.4263 425Z" fill="#26192A"/>
<path d="M0 189.863L188.212 115.623L245 113L206.871 151.734L13.5886 229L0 189.863Z" fill="#F58A28"/>
<path d="M36.1375 176L49 216.959L13.6792 230L0 190.468L36.1375 176Z" fill="#DB6362"/>
<path d="M188.111 115.641L181 128.031L195.425 133.109L187.298 147.328L206.803 152L245 113L188.111 115.641Z" fill="#F8C19A"/>
<path d="M216 114.223L224.8 134L244 113L216 114.223Z" fill="#26192A"/>
<path d="M54.0822 214C53.6643 214 53.4553 213.797 53.2463 213.392L40.082 174.092C39.873 173.687 40.082 173.282 40.4999 173.079C40.9178 172.877 41.3357 173.079 41.5447 173.485L54.918 212.785C55.127 213.19 54.918 213.595 54.5001 213.797C54.2911 214 54.2912 214 54.0822 214Z" fill="#26192A"/>
<path d="M44.6866 182C44.2818 182 44.0794 181.798 44.0794 181.596C43.877 181.192 44.0794 180.788 44.4842 180.586L180.909 128.079C181.313 127.877 181.718 128.079 181.921 128.483C182.123 128.887 181.921 129.291 181.516 129.493L45.0915 182C44.889 182 44.6866 182 44.6866 182Z" fill="#26192A"/>
<path d="M48.8889 199C48.4841 199 48.2818 198.8 48.0794 198.599C47.877 198.198 48.0794 197.797 48.4842 197.597L186.909 147.079C187.313 146.878 187.718 147.079 187.921 147.48C188.123 147.881 187.921 148.281 187.516 148.482L49.0913 199H48.8889Z" fill="#26192A"/>
<path d="M213.796 220C213.398 220 213.199 219.797 213 219.39C213 218.983 213.199 218.576 213.597 218.576C214.792 218.373 217.381 215.729 218.774 214.305C218.974 213.898 219.571 213.898 219.77 214.305C219.969 214.712 220.168 215.119 219.77 215.322C219.372 215.525 215.788 219.39 213.796 220Z" fill="#26192A"/>
<path d="M213.789 212C213.394 212 213.197 211.797 213 211.39C213 210.983 213.197 210.576 213.592 210.576C214.775 210.373 217.338 207.729 218.718 206.305C218.915 205.898 219.507 205.898 219.704 206.305C220.099 206.508 220.099 207.119 219.704 207.322C219.507 207.729 215.958 211.593 213.789 212C213.986 212 213.789 212 213.789 212Z" fill="#26192A"/>
<path d="M223.707 209C223.499 209 223.082 208.786 223.082 208.572C222.873 208.144 223.082 207.716 223.499 207.502C224.541 206.861 226.625 203.651 227.459 201.512C227.668 201.084 228.084 200.87 228.501 201.084C228.918 201.298 229.127 201.726 228.918 202.154C228.71 202.796 226 207.716 224.124 208.786C223.916 209 223.916 209 223.707 209Z" fill="#26192A"/>
<path d="M221.707 201C221.499 201 221.082 200.786 221.082 200.572C220.873 200.144 221.082 199.716 221.499 199.502C222.541 198.861 224.625 195.651 225.459 193.512C225.668 193.084 226.084 192.87 226.501 193.084C226.918 193.298 227.127 193.726 226.918 194.154C226.71 194.796 224 199.716 222.124 200.786C221.916 201 221.707 201 221.707 201Z" fill="#26192A"/>
<path d="M231.707 199C231.499 199 231.082 198.786 231.082 198.572C230.873 198.144 231.082 197.716 231.499 197.502C232.541 196.861 234.625 193.651 235.459 191.512C235.668 191.084 236.084 190.87 236.501 191.084C236.918 191.298 237.127 191.726 236.918 192.154C236.71 192.796 234 197.716 232.124 198.786C231.916 199 231.916 199 231.707 199Z" fill="#26192A"/>
<path d="M229.707 191C229.499 191 229.082 190.786 229.082 190.572C228.873 190.144 229.082 189.716 229.499 189.502C230.541 188.861 232.625 185.651 233.459 183.512C233.668 183.084 234.084 182.87 234.501 183.084C234.918 183.298 235.127 183.726 234.918 184.154C234.71 184.796 232 189.716 230.124 190.786C229.916 190.786 229.707 191 229.707 191Z" fill="#26192A"/>
<path d="M237.69 185C237.506 185 237.322 185 237.138 184.8C236.954 184.4 236.954 184 237.138 183.8C238.057 183 239.161 179.6 239.529 177.6C239.713 177.2 240.08 177 240.448 177C240.816 177.2 241 177.6 241 178C240.816 178.6 239.529 183.6 238.057 185C238.057 185 237.874 185 237.69 185Z" fill="#26192A"/>
<path d="M189.793 340C189.576 340 189.359 340 189.142 339.8C188.926 339.4 188.926 339 189.359 338.8C190.444 338 191.746 334.6 192.396 332.6C192.613 332.2 193.047 332 193.481 332C193.915 332.2 194.132 332.6 193.915 333C193.698 333.6 191.963 338.6 190.227 339.8C190.227 340 190.01 340 189.793 340Z" fill="#26192A"/>
<path d="M185.793 333C185.576 333 185.359 333 185.143 332.8C184.926 332.4 184.926 332 185.359 331.8C186.444 331 187.746 327.6 188.396 325.6C188.613 325.2 189.047 325 189.481 325C189.915 325.2 190.132 325.6 189.915 326C189.698 326.6 187.963 331.6 186.227 332.8C186.227 333 186.01 333 185.793 333Z" fill="#26192A"/>
<path d="M192.803 327C192.584 327 192.364 327 192.364 326.791C191.925 326.581 191.925 325.953 192.144 325.744C192.803 324.698 193.243 320.93 193.243 318.837C193.243 318.419 193.682 318 194.121 318C194.561 318 195 318.419 195 318.837C195 319.465 194.78 324.907 193.462 326.791C193.243 326.791 193.023 327 192.803 327Z" fill="#26192A"/>
<path d="M187.803 319C187.584 319 187.364 319 187.364 318.791C186.925 318.581 186.925 317.953 187.144 317.744C188.023 316.698 188.243 312.93 188.243 310.837C188.243 310.419 188.682 310 189.121 310C189.561 310 190 310.419 190 310.837C190 311.465 189.78 316.907 188.462 318.791C188.243 319 188.023 319 187.803 319Z" fill="#26192A"/>
<path d="M194.803 314C194.584 314 194.364 314 194.364 313.791C193.925 313.581 193.925 312.953 194.144 312.744C194.803 311.698 195.243 307.93 195.243 305.837C195.243 305.419 195.682 305 196.121 305C196.561 305 197 305.419 197 305.837C197 306.465 196.78 311.907 195.462 313.791C195.462 314 195.243 314 194.803 314Z" fill="#26192A"/>
<path d="M190.803 307C190.584 307 190.364 307 190.364 306.791C189.925 306.581 189.925 305.953 190.144 305.744C190.803 304.698 191.243 300.93 191.243 298.837C191.243 298.419 191.462 298 192.121 298C192.561 298 193 298.419 193 298.837C193 299.465 192.78 304.907 191.462 306.791C191.243 307 191.023 307 190.803 307Z" fill="#26192A"/>
<path d="M195.232 299C195.026 299 195.026 299 194.821 299C194.411 298.791 194.205 298.372 194.411 297.953C194.821 296.907 194.411 292.93 194 290.837C194 290.419 194.205 290 194.616 290C195.026 290 195.437 290.209 195.437 290.628C195.642 291.256 196.463 296.698 195.642 298.581C195.848 299 195.437 299 195.232 299Z" fill="#26192A"/>
<path d="M191.964 389L193 407.623C193 407.623 189.064 408.415 176.633 410L176.012 390.189C175.597 389.991 186.163 390.387 191.964 389Z" fill="#26192A"/>
<path d="M232.739 347.618L232.144 340L238.09 343.912L244.036 341.029L242.252 348.029L248 354.206L239.874 352.765L238.09 361L233.928 352.353L226 352.765L232.739 347.618Z" fill="#01D8DC"/>
<path d="M88.4244 283C88.0719 283 87.8956 282.8 87.7194 282.4C86.8381 279.2 87.0144 275 87.0144 274.8C87.0144 274.4 87.3669 274 87.7194 274C88.0719 274 88.4244 274.4 88.4244 274.8C88.4244 274.8 88.2481 279 88.9531 281.8C89.1294 282.2 88.7769 282.6 88.4244 282.8C88.6006 283 88.4244 283 88.4244 283Z" fill="#26192A"/>
<path d="M88.4244 299C88.0719 299 87.8956 298.8 87.7194 298.4C86.8381 295.2 87.0144 291 87.0144 290.8C87.0144 290.4 87.3669 290 87.7194 290C88.0719 290 88.4244 290.4 88.4244 290.8C88.4244 290.8 88.2481 295 88.9531 297.8C89.1294 298.2 88.7769 298.6 88.4244 298.8C88.6006 299 88.4244 299 88.4244 299Z" fill="#26192A"/>
<path d="M95.4244 295C95.0719 295 94.8956 294.8 94.7194 294.4C93.8381 291.2 94.0144 287 94.0144 286.8C94.0144 286.4 94.3669 286 94.7194 286C95.0719 286 95.4244 286.4 95.4244 286.8C95.4244 286.8 95.2481 291 95.9531 293.8C96.1294 294.2 95.7769 294.6 95.4244 294.8C95.6006 295 95.4244 295 95.4244 295Z" fill="#26192A"/>
<path d="M96.4243 311C96.0719 311 95.8956 310.8 95.7194 310.4C94.8381 307.2 95.0144 303 95.0144 302.8C95.0144 302.4 95.3669 302 95.7194 302C96.0719 302 96.4243 302.4 96.4243 302.8C96.4243 302.8 96.2481 307 96.9531 309.8C97.1294 310.2 96.7768 310.6 96.4243 310.8C96.4243 311 96.4243 311 96.4243 311Z" fill="#26192A"/>
<path d="M103.424 315C103.072 315 102.896 314.8 102.719 314.4C101.838 311.2 102.014 307 102.014 306.8C102.014 306.4 102.367 306 102.719 306C103.072 306 103.424 306.4 103.424 306.8C103.424 306.8 103.248 311 103.953 313.8C104.129 314.2 103.777 314.6 103.424 314.8C103.601 315 103.601 315 103.424 315Z" fill="#26192A"/>
<path d="M101.196 325C101.013 325 100.647 324.791 100.647 324.581C99.366 321.442 99 317.046 99 316.837C99 316.419 99.183 316 99.5491 316C99.9151 316 100.281 316.209 100.281 316.628C100.281 316.628 100.647 321.023 101.928 323.953C102.111 324.372 101.928 324.791 101.562 325C101.379 325 101.196 325 101.196 325Z" fill="#26192A"/>
<path d="M99.1962 336C99.0132 336 98.6471 335.791 98.6471 335.581C97.366 332.442 97 328.047 97 327.837C97 327.419 97.183 327 97.549 327C97.915 327 98.2811 327.209 98.2811 327.628C98.2811 327.628 98.6471 332.023 99.9282 334.953C100.111 335.372 99.9282 335.791 99.5622 336C99.3791 336 99.3792 336 99.1962 336Z" fill="#26192A"/>
<path d="M97.075 281C96.5938 281 96.1125 280.795 96.1125 280.386C95.6313 277.114 96.8344 272.818 97.075 272.614C97.075 272.205 97.7969 272 98.2782 272C98.7594 272 99 272.614 99 273.023C99 273.023 97.7969 277.114 98.2782 280.182C98.0375 280.591 97.7969 281 97.075 281C97.3157 281 97.075 281 97.075 281Z" fill="#26192A"/>
<path d="M92.075 268C91.5938 268 91.1125 267.795 91.1125 267.386C90.6313 264.114 91.8344 259.818 92.075 259.614C92.075 259.205 92.7969 259 93.2782 259C93.7594 259 94 259.614 94 260.023C94 260.023 92.7969 264.114 93.2782 267.182C93.0375 267.591 92.7969 268 92.075 268C92.3157 268 92.075 268 92.075 268Z" fill="#26192A"/>
<path d="M108.196 332C108.013 332 107.647 331.791 107.647 331.581C106.366 328.442 106 324.047 106 323.837C106 323.419 106.183 323 106.549 323C106.915 323 107.281 323.209 107.281 323.628C107.281 323.628 107.647 328.023 108.928 330.953C109.111 331.372 108.928 331.791 108.562 332C108.379 332 108.379 332 108.196 332Z" fill="#26192A"/>
<path d="M107.27 341C107.07 341 106.871 341 106.671 340.797C104.675 338.157 103.078 334.095 103.078 334.095C102.879 333.689 103.078 333.283 103.477 333.08C103.877 332.877 104.276 333.08 104.476 333.486C104.476 333.486 105.873 337.548 107.869 339.781C108.068 340.188 108.068 340.594 107.669 340.797C107.669 341 107.47 341 107.27 341Z" fill="#26192A"/>
<path d="M91.1962 320C91.0132 320 90.6471 319.791 90.6471 319.581C89.366 316.442 89 312.046 89 311.837C89 311.419 89.183 311 89.549 311C89.915 311 90.2811 311.209 90.2811 311.628C90.2811 311.628 90.6471 316.023 91.9282 318.953C92.1112 319.372 91.9282 319.791 91.5622 320C91.3791 320 91.1962 320 91.1962 320Z" fill="#26192A"/>
<path d="M181.087 276C180.885 276 180.683 275.797 180.481 275.594L172.202 264.01C172 263.807 172 263.603 172 263.4C172 263.197 172.202 262.994 172.404 262.994L184.519 256.084C184.923 255.881 185.327 256.084 185.529 256.287L192.798 267.058C193 267.261 193 267.465 193 267.668C193 267.871 192.798 268.074 192.596 268.074L181.288 275.797C181.49 276 181.288 276 181.087 276ZM174.019 264.01L181.288 274.171L191.385 267.261L184.923 257.71L174.019 264.01Z" fill="#26192A"/>
<path d="M74.9046 265C74.7067 265 74.7067 265 74.5088 265L66.3957 261.276C66 261.069 66 260.862 66 260.448L67.9788 247.621C67.9788 247.414 68.1766 247.207 68.3745 247.207C68.5724 247 68.7703 247 68.9682 247L79.2579 249.069C79.4558 249.069 79.6537 249.276 79.8516 249.483C80.0495 249.69 80.0495 249.897 79.8516 250.103L75.6961 264.586C75.6961 264.793 75.4982 265 75.3003 265C75.1024 265 74.9046 265 74.9046 265ZM67.583 259.828L74.3109 262.931L78.0707 250.103L69.3639 248.241L67.583 259.828Z" fill="#26192A"/>
<path d="M287.681 194C287.479 194 287.479 194 287.277 194L265.483 182.885C265.079 182.683 264.877 182.279 265.079 181.875L312.705 78.4042C312.705 78.2021 312.906 78 313.108 78C313.31 78 313.512 78 313.714 78L336.517 89.7213C336.921 89.9233 337.123 90.3275 336.921 90.7317L288.286 193.596C288.286 193.798 288.085 194 287.883 194H287.681ZM266.895 181.672L287.277 191.979L335.306 90.5296L313.714 79.6167L266.895 181.672Z" fill="#26192A"/>
<path d="M323.329 94C323.131 94 323.131 94 322.933 94L309.474 87.4287C309.078 87.2355 308.88 86.8489 309.078 86.4624C309.276 86.0758 309.671 85.8825 310.067 86.0758L323.527 92.6471C323.922 92.8404 324.12 93.2269 323.922 93.6135C323.922 93.8067 323.527 94 323.329 94Z" fill="#26192A"/>
<path d="M315.333 95C315.137 95 315.137 95 314.94 95L307.47 91.4005C307.077 91.211 306.881 90.8321 307.077 90.4532C307.274 90.0743 307.667 89.8849 308.06 90.0743L315.53 93.6739C315.923 93.8633 316.119 94.2422 315.923 94.6211C315.923 94.8105 315.53 95 315.333 95Z" fill="#26192A"/>
<path d="M320.243 87C320.036 87 320.036 87 319.829 87L311.343 82.3028C310.929 82.1071 310.929 81.7157 311.136 81.3243C311.343 80.9328 311.757 80.9328 312.171 81.1286L320.657 85.8257C321.071 86.0214 321.071 86.4129 320.864 86.8043C320.864 86.8043 320.657 87 320.243 87Z" fill="#26192A"/>
<path d="M316.31 108C316.107 108 316.107 108 315.904 108L302.486 102.422C302.08 102.23 301.876 101.845 302.08 101.46C302.283 101.075 302.69 100.883 303.096 101.075L316.514 106.654C316.92 106.846 317.124 107.231 316.92 107.615C316.92 108 316.717 108 316.31 108Z" fill="#26192A"/>
<path d="M308.097 111H307.892L300.492 107.651C300.081 107.427 299.875 106.981 300.081 106.534C300.286 106.088 300.697 105.864 301.108 106.088L308.508 109.437C308.919 109.66 309.125 110.107 308.919 110.553C308.714 110.777 308.508 111 308.097 111Z" fill="#26192A"/>
<path d="M313.289 102C313.095 102 313.095 102 312.901 102L305.322 97.3938C304.933 97.1844 304.933 96.7656 305.128 96.3469C305.322 95.9282 305.711 95.9282 306.099 96.1375L313.678 100.744C314.067 100.953 314.067 101.372 313.872 101.791C313.872 101.791 313.678 102 313.289 102Z" fill="#26192A"/>
<path d="M310.32 125C310.119 125 310.119 125 309.918 125L296.48 118.54C296.079 118.332 295.878 117.915 296.079 117.498C296.279 117.082 296.68 116.873 297.082 117.082L310.52 123.541C310.921 123.75 311.122 124.166 310.921 124.583C310.921 125 310.721 125 310.32 125Z" fill="#26192A"/>
<path d="M302.155 126H301.963L294.46 122.58C294.075 122.366 293.883 121.939 294.075 121.511C294.268 121.084 294.653 120.87 295.037 121.084L302.54 124.504C302.925 124.718 303.117 125.145 302.925 125.573C302.732 126 302.347 126 302.155 126Z" fill="#26192A"/>
<path d="M307.332 117C307.135 117 307.135 117 306.938 117L298.471 112.619C298.077 112.4 297.88 111.962 298.077 111.524C298.274 111.086 298.668 110.867 299.062 111.086L307.529 115.467C307.923 115.686 308.12 116.124 307.923 116.562C307.923 116.781 307.726 117 307.332 117Z" fill="#26192A"/>
<path d="M303.32 138C303.119 138 303.119 138 302.918 138L289.48 131.54C289.079 131.332 288.878 130.915 289.079 130.499C289.279 130.082 289.68 129.873 290.082 130.082L303.52 136.541C303.921 136.75 304.122 137.166 303.921 137.583C303.921 138 303.721 138 303.32 138Z" fill="#26192A"/>
<path d="M296.155 139H295.963L288.46 135.58C288.075 135.366 287.883 134.939 288.075 134.511C288.268 134.084 288.653 133.87 289.037 134.084L296.54 137.504C296.925 137.718 297.117 138.145 296.925 138.573C296.732 139 296.54 139 296.155 139Z" fill="#26192A"/>
<path d="M300.319 129C300.118 129 300.118 129 299.917 129L291.48 125.4C291.079 125.211 290.878 124.832 291.079 124.453C291.28 124.074 291.681 123.885 292.083 124.074L300.519 127.674C300.921 127.863 301.122 128.242 300.921 128.621C300.72 128.811 300.519 129 300.319 129Z" fill="#26192A"/>
<path d="M296.31 152C296.107 152 296.107 152 295.904 152L282.486 145.54C282.08 145.332 281.876 144.915 282.08 144.498C282.283 144.082 282.69 143.873 283.096 144.082L296.514 150.541C296.92 150.75 297.124 151.167 296.92 151.583C296.92 151.792 296.514 152 296.31 152Z" fill="#26192A"/>
<path d="M289.155 153H288.963L281.46 149.58C281.075 149.366 280.883 148.939 281.075 148.511C281.268 148.084 281.653 147.87 282.037 148.084L289.54 151.504C289.925 151.718 290.117 152.145 289.925 152.572C289.54 152.786 289.347 153 289.155 153Z" fill="#26192A"/>
<path d="M294.1 144H293.895L285.49 140.58C285.08 140.366 284.875 139.939 285.08 139.511C285.285 139.084 285.695 138.87 286.105 139.084L294.51 142.504C294.92 142.718 295.125 143.145 294.92 143.572C294.715 143.786 294.51 144 294.1 144Z" fill="#26192A"/>
<path d="M291.32 167C291.119 167 291.119 167 290.918 167L277.48 160.54C277.079 160.332 276.878 159.915 277.079 159.498C277.279 159.082 277.68 158.873 278.082 159.082L291.52 165.541C291.921 165.75 292.122 166.167 291.921 166.583C291.921 166.792 291.52 167 291.32 167Z" fill="#26192A"/>
<path d="M283.155 168H282.963L275.46 164.58C275.075 164.366 274.883 163.939 275.075 163.511C275.268 163.084 275.653 162.87 276.037 163.084L283.54 166.504C283.925 166.718 284.117 167.145 283.925 167.572C283.732 167.786 283.54 168 283.155 168Z" fill="#26192A"/>
<path d="M288.332 159C288.135 159 288.135 159 287.938 159L279.471 154.619C279.077 154.4 278.88 153.962 279.077 153.524C279.274 153.086 279.668 152.867 280.062 153.086L288.529 157.467C288.923 157.686 289.12 158.124 288.923 158.562C288.923 158.781 288.529 159 288.332 159Z" fill="#26192A"/>
<path d="M284.32 180C284.119 180 284.119 180 283.918 180L270.48 173.54C270.079 173.332 269.878 172.915 270.079 172.499C270.279 172.082 270.68 171.873 271.082 172.082L284.52 178.541C284.921 178.75 285.122 179.166 284.921 179.583C284.921 179.792 284.52 180 284.32 180Z" fill="#26192A"/>
<path d="M276.155 182H275.963L268.46 178.58C268.075 178.366 267.883 177.939 268.075 177.511C268.268 177.084 268.653 176.87 269.037 177.084L276.54 180.504C276.925 180.718 277.117 181.145 276.925 181.573C276.732 181.786 276.54 182 276.155 182Z" fill="#26192A"/>
<path d="M281.332 173C281.135 173 281.135 173 280.938 173L272.471 168.619C272.077 168.4 271.88 167.962 272.077 167.524C272.274 167.086 272.668 166.867 273.062 167.086L281.529 171.467C281.923 171.686 282.12 172.124 281.923 172.562C281.923 172.781 281.529 173 281.332 173Z" fill="#26192A"/>
<path d="M367.468 415C357.425 415 346.78 406.717 336.134 390.757C328.301 378.838 323.28 366.716 323.079 366.716C322.878 366.312 323.079 365.908 323.481 365.706L374.899 343.079C375.301 342.877 375.702 343.079 375.903 343.483C376.707 345.099 393.579 384.696 384.138 404.495C381.728 409.545 377.711 412.98 372.087 414.394C370.48 414.798 368.874 415 367.468 415ZM324.686 366.716C327.297 372.575 345.976 413.586 367.267 413.586C368.673 413.586 370.279 413.384 371.685 412.98C376.707 411.566 380.523 408.535 382.732 403.889C391.168 386.11 377.109 350.352 374.698 344.897L324.686 366.716Z" fill="#26192A"/>
<path d="M346.934 416.795C345.128 416.795 343.121 415.77 342.319 414.54C341.516 413.515 341.516 412.286 342.118 411.466C342.319 411.056 342.72 411.056 343.121 411.261C343.523 411.466 343.523 411.876 343.322 412.286C343.121 412.491 342.921 412.9 343.523 413.72C344.325 414.745 346.332 415.565 347.937 415.155C349.141 414.745 349.943 413.515 350.144 411.876C350.144 410.441 349.943 409.621 349.341 408.801C347.736 406.956 343.322 407.161 338.908 407.366C331.083 407.571 321.451 407.776 317.639 399.167C315.633 394.453 315.432 390.353 317.238 386.664C320.248 380.309 327.872 378.055 328.273 378.055C328.675 377.85 329.076 378.26 329.277 378.669C329.477 379.079 329.076 379.489 328.675 379.694C328.675 379.694 321.451 381.744 318.642 387.483C317.238 390.763 317.238 394.453 319.244 398.757C322.655 406.546 331.283 406.341 339.108 406.136C344.125 405.931 348.539 405.931 350.746 408.186C351.749 409.211 352.15 410.646 351.95 412.286C351.749 415.565 349.743 416.59 348.739 417C347.937 416.795 347.335 416.795 346.934 416.795Z" fill="#26192A"/>
<path d="M392.396 398C391.592 398 390.386 397.796 389.181 396.778C387.573 395.76 386.769 394.335 386.367 392.909C385.764 389.855 388.377 386.393 391.19 382.524C395.612 376.619 400.636 369.695 397.621 361.55C396.215 357.681 394.004 355.034 390.989 354.016C385.965 352.183 380.137 355.848 380.137 355.848C379.735 356.052 379.333 356.052 379.132 355.645C378.931 355.238 378.931 354.83 379.333 354.627C379.534 354.423 385.764 350.554 391.592 352.59C395.009 353.812 397.42 356.459 399.028 360.939C402.244 369.899 396.818 377.23 392.396 383.339C389.784 387.004 387.372 390.262 387.774 392.706C387.975 393.724 388.578 394.742 389.784 395.556C390.788 396.371 392.396 396.982 393.602 395.964C395.009 394.946 395.411 392.909 395.21 391.484C395.009 390.873 394.607 390.466 394.205 390.466C393.803 390.466 393.401 390.058 393.602 389.651C393.602 389.244 394.004 388.837 394.406 389.04C395.612 389.244 396.416 390.058 396.818 391.28C397.219 393.113 396.617 395.964 394.808 397.389C394.205 397.593 393.401 398 392.396 398Z" fill="#26192A"/>
<path d="M381.159 430C380.968 430 380.585 429.794 380.585 429.588L374.075 413.111C373.884 412.699 374.075 412.287 374.458 412.081C374.841 411.875 375.224 412.081 375.415 412.493L381.925 428.97C382.116 429.382 381.925 429.794 381.542 430C381.35 430 381.159 430 381.159 430Z" fill="#26192A"/>
<path d="M374.68 434C374.48 434 374.079 433.802 374.079 433.603C373.878 433.206 374.079 432.809 374.48 432.611L392.919 424.078C393.32 423.879 393.721 424.078 393.921 424.475C394.122 424.872 393.921 425.269 393.52 425.467L375.081 434C374.88 434 374.68 434 374.68 434Z" fill="#26192A"/>
<path d="M335.828 369C334.221 369 332.412 369 330.603 368.797C330.201 368.797 330 368.594 330 368.187C330 367.781 330.201 367.577 330.402 367.374L369.995 349.084C370.196 348.881 370.598 349.084 370.799 349.287C371 349.491 371 349.897 371 350.1C370.799 350.304 361.152 369 335.828 369ZM333.618 367.577C334.221 367.577 335.024 367.577 335.627 367.577C355.122 367.577 364.971 356.4 368.186 351.523L333.618 367.577Z" fill="#26192A"/>
</svg>
