<svg width="900" height="900" viewBox="0 0 900 900" fill="none" xmlns="http://www.w3.org/2000/svg">
<rect width="900" height="900" fill="#161616"/>
<path d="M515.273 298.357C515.071 298.357 514.869 298.357 514.869 298.155C514.666 297.952 514.464 297.548 514.666 297.345L524.986 274.076L511.226 261.733C511.024 261.53 510.822 261.126 511.024 260.923C511.226 260.721 511.429 260.519 511.833 260.519L530.044 262.542L536.722 247.164C536.924 246.962 537.126 246.759 537.531 246.759C537.936 246.759 538.138 246.962 538.138 247.366L542.185 263.959L564.847 266.387C565.252 266.387 565.454 266.589 565.454 266.994C565.454 267.398 565.454 267.601 565.05 267.803L545.827 279.539L549.469 294.512C549.469 294.917 549.469 295.119 549.065 295.322C548.862 295.524 548.458 295.524 548.255 295.322L536.924 285.002L515.476 298.155C515.476 298.357 515.273 298.357 515.273 298.357ZM525.997 275.087L516.892 295.727L535.912 283.991L525.997 275.087ZM538.34 284.193L547.648 292.489L544.613 280.348L538.34 284.193ZM526.604 273.671L537.126 283.181L544.208 278.73L540.971 265.173L530.854 264.161L526.604 273.671ZM542.59 265.375L545.625 277.92L562.419 267.601L542.59 265.375ZM513.857 262.34L525.39 272.659L529.235 263.959L513.857 262.34ZM531.461 262.745L540.566 263.756L537.126 249.997L531.461 262.745Z" fill="white"/>
<path d="M353.802 253.639C353.802 253.639 347.934 234.416 361.086 235.023C374.239 235.63 376.262 248.176 367.764 244.736C359.265 241.498 372.215 228.548 380.511 236.237C388.808 243.926 391.64 254.651 381.523 254.246C371.406 253.841 376.869 247.366 384.154 251.616C391.438 255.865 389.617 264.768 379.297 268.41C368.978 272.052 366.145 261.733 371.811 262.947C377.476 264.363 382.535 273.671 371.001 274.683C359.468 275.694 354.004 263.554 360.682 263.149C367.359 262.744 365.943 271.85 357.04 272.659C348.137 273.671 342.471 248.783 350.362 246.759C358.658 245.141 360.479 256.472 353.802 253.639Z" fill="#FFFAF0"/>
<path d="M369.787 275.492C366.55 275.492 363.515 274.48 361.086 272.659C359.872 273.064 358.658 273.469 357.444 273.671C351.779 274.278 347.327 265.78 346.315 257.686C345.506 251.413 347.125 247.164 350.565 246.355C350.969 246.152 351.576 246.152 351.981 246.152C351.779 241.903 352.588 238.666 354.409 236.642C356.028 234.821 358.254 234.012 361.289 234.214C363.717 234.416 365.943 234.821 367.764 235.63C369.787 234.012 372.418 233 374.846 233C377.274 233 379.5 233.809 381.321 235.63C386.379 240.082 389.415 245.748 389.01 249.795C389.01 251.211 388.403 252.425 387.593 253.437C389.212 255.46 389.819 257.888 389.212 260.316C388.403 264.161 384.761 267.398 379.5 269.219C379.095 269.422 378.893 269.422 378.69 269.422C378.893 270.636 378.488 271.648 377.881 272.659C376.667 274.278 374.441 275.29 371.204 275.492C370.597 275.492 370.192 275.492 369.787 275.492ZM362.503 271.85C364.931 273.469 367.764 274.278 371.001 274.076C373.834 273.873 375.858 273.064 376.667 271.85C377.072 271.243 377.274 270.636 377.274 269.827C373.632 270.434 370.394 269.219 368.978 266.791C368.371 265.577 368.168 264.363 368.775 263.352C369.383 262.34 370.597 261.935 372.215 262.34C374.846 262.947 377.476 265.375 378.488 268.005C378.69 268.005 379.095 267.803 379.297 267.803C383.951 266.184 387.189 263.352 387.998 259.912C388.403 257.888 387.998 255.865 386.582 254.246C385.57 254.853 384.154 255.055 382.535 255.055H381.928C376.06 254.853 375.655 252.627 375.655 252.02C375.655 250.604 377.476 249.39 379.904 249.39C381.118 249.39 382.94 249.592 384.963 250.806C385.57 251.211 386.177 251.616 386.784 252.02C387.391 251.413 387.796 250.604 387.796 249.39C387.998 245.748 385.165 240.689 380.511 236.44C378.893 235.023 377.072 234.214 375.048 234.214C373.227 234.214 371.204 234.821 369.585 236.035C373.025 238.261 374.441 241.296 374.036 243.32C373.632 244.736 372.418 245.545 370.799 245.545C369.99 245.545 368.978 245.343 367.966 244.938C365.74 244.129 364.931 242.51 364.729 241.498C364.526 239.88 365.133 237.856 366.752 236.237C365.133 235.63 363.312 235.226 361.491 235.226C358.861 235.023 357.04 235.833 355.826 237.047C353.802 239.07 353.6 242.712 353.802 245.545C357.242 245.95 359.063 249.187 359.063 251.413C359.063 253.234 357.849 254.246 356.23 254.246C355.623 254.246 354.814 254.044 354.004 253.639C353.802 253.639 353.6 253.437 353.6 253.234C353.6 253.032 352.79 250.402 352.386 246.962C351.981 246.962 351.576 246.962 351.172 247.164C348.136 247.973 347.529 252.627 348.136 256.877C348.946 264.161 352.993 272.052 357.444 271.445C358.456 271.445 359.265 271.243 360.075 270.838C358.051 268.612 357.04 265.982 357.647 264.161C357.849 263.352 358.658 261.935 361.086 261.935H361.491C363.919 261.935 365.538 263.149 366.145 264.97C366.145 267.803 364.931 270.231 362.503 271.85ZM361.086 263.959H360.884C359.67 263.959 359.063 264.363 358.861 265.173C358.456 266.387 359.265 268.815 361.289 270.838C363.717 269.422 364.526 267.398 364.324 265.982C363.919 264.566 362.705 263.959 361.086 263.959ZM370.799 263.554C370.394 263.554 369.99 263.756 369.787 263.959C369.585 264.363 369.585 265.173 369.99 265.78C370.394 266.387 371.608 268.208 375.048 268.208C375.655 268.208 376.06 268.208 376.667 268.005C375.858 265.982 373.632 264.161 371.608 263.554C371.204 263.554 371.001 263.554 370.799 263.554ZM379.5 251.009C377.679 251.009 376.869 251.616 376.869 252.02C376.869 252.425 378.083 253.437 381.725 253.437H382.13C383.344 253.437 384.356 253.234 385.165 253.032C384.761 252.83 384.356 252.425 383.951 252.223C381.928 251.211 380.309 251.009 379.5 251.009ZM354.409 253.032C354.814 253.234 355.421 253.234 355.623 253.234C356.635 253.234 357.04 252.425 357.04 251.818C357.04 250.199 355.825 248.176 353.397 247.569C353.802 249.997 354.207 252.223 354.409 253.032ZM367.764 237.249C366.347 238.666 365.538 240.284 365.74 241.498C365.943 242.51 366.752 243.32 367.966 243.724C370.192 244.534 371.608 244.331 372.013 243.117C372.418 241.701 371.001 239.07 367.764 237.249Z" fill="#26192A"/>
<path d="M590.544 566.462C590.342 566.462 589.937 566.26 589.937 566.057C583.26 550.679 548.254 549.465 537.733 549.465C535.304 549.465 533.888 549.465 533.888 549.465C533.483 549.465 533.281 549.263 533.079 548.858C528.425 533.278 483.1 530.04 482.695 530.04C482.493 530.04 482.29 529.838 482.088 529.636C481.886 529.433 481.886 529.231 482.088 529.029L507.786 466.302C507.988 466.1 508.19 465.897 508.393 465.897C526.604 465.29 538.339 472.575 545.017 478.443C550.682 483.501 553.515 488.56 554.527 490.381C560.193 487.346 566.668 485.929 573.345 485.929C595.4 485.929 615.23 502.522 615.432 502.724C615.635 502.926 615.837 503.331 615.635 503.533L591.556 566.057C590.949 566.26 590.746 566.462 590.544 566.462ZM537.53 547.847C550.885 547.847 582.046 549.465 590.342 563.832L613.611 503.533C610.576 501.105 592.77 487.548 572.94 487.548C566.263 487.548 559.99 489.167 554.122 492.202C553.92 492.404 553.718 492.404 553.515 492.202C553.313 492.202 553.111 492 553.111 491.797C552.908 491.595 541.779 467.314 510.011 467.314C509.607 467.314 509.202 467.314 508.595 467.314L483.504 528.624C490.586 529.231 528.627 533.075 534.09 547.847C534.697 547.847 535.911 547.847 537.53 547.847Z" fill="white"/>
<path d="M533.686 549.465H533.484C533.079 549.263 532.877 548.858 533.079 548.454L553.313 491.19C553.516 490.786 553.92 490.583 554.325 490.786C554.73 490.988 554.932 491.393 554.73 491.797L534.495 549.061C534.293 549.263 533.888 549.465 533.686 549.465Z" fill="white"/>
<path d="M590.544 566.462C590.342 566.462 590.14 566.462 590.14 566.26C589.937 566.057 573.345 554.321 533.686 549.465H533.483C533.281 549.263 507.179 534.896 482.695 530.243C482.29 530.243 482.088 529.838 482.088 529.433C482.088 529.029 482.493 528.826 482.897 528.826C506.774 533.48 532.067 547.037 534.09 548.251C574.154 553.107 590.544 564.843 591.151 565.45C591.556 565.653 591.556 566.26 591.354 566.462C590.949 566.26 590.747 566.462 590.544 566.462Z" fill="white"/>
<path d="M606.125 510.211C605.922 510.211 605.72 510.211 605.518 510.008C605.315 509.806 588.521 492.809 558.169 497.868C557.764 497.868 557.36 497.665 557.36 497.261C557.36 496.856 557.562 496.451 557.967 496.451C574.357 493.821 586.7 497.261 594.186 500.701C602.28 504.545 606.529 508.794 606.732 508.997C606.934 509.199 606.934 509.806 606.732 510.008C606.327 510.211 606.327 510.211 606.125 510.211Z" fill="white"/>
<path d="M601.875 516.888C601.673 516.888 601.471 516.888 601.268 516.686C601.066 516.483 584.271 499.486 553.92 504.545C553.515 504.545 553.11 504.343 553.11 503.938C553.11 503.533 553.313 503.129 553.717 503.129C570.107 500.498 582.45 503.938 589.937 507.378C598.031 511.222 602.28 515.472 602.482 515.674C602.685 515.876 602.685 516.483 602.482 516.686C602.28 516.888 602.078 516.888 601.875 516.888Z" fill="white"/>
<path d="M600.662 525.184C600.46 525.184 600.257 525.184 600.055 524.982C599.853 524.779 583.058 507.783 552.707 512.841C552.302 512.841 551.897 512.639 551.897 512.234C551.897 511.829 552.1 511.425 552.504 511.425C568.894 508.794 581.237 512.234 588.724 515.674C596.818 519.518 601.067 523.768 601.269 523.97C601.471 524.172 601.471 524.779 601.269 524.982C601.067 525.184 600.864 525.184 600.662 525.184Z" fill="white"/>
<path d="M597.627 533.075C597.424 533.075 597.222 533.075 597.02 532.873C596.817 532.671 580.023 515.674 549.671 520.732C549.267 520.732 548.862 520.53 548.862 520.125C548.862 519.721 549.064 519.316 549.469 519.316C565.859 516.686 578.202 520.125 585.689 523.565C593.782 527.41 598.032 531.659 598.234 531.861C598.436 532.064 598.436 532.671 598.234 532.873C598.032 533.075 597.829 533.075 597.627 533.075Z" fill="white"/>
<path d="M593.984 543.193C593.782 543.193 593.579 543.193 593.377 542.99C593.175 542.788 576.38 525.791 546.029 530.85C545.624 530.85 545.219 530.647 545.219 530.243C545.219 529.838 545.422 529.433 545.826 529.433C562.216 526.803 574.559 530.243 582.046 533.683C590.14 537.527 594.389 541.776 594.591 541.979C594.793 542.181 594.793 542.788 594.591 542.99C594.389 543.193 594.186 543.193 593.984 543.193Z" fill="white"/>
<path d="M590.545 552.5C590.342 552.5 590.14 552.5 589.938 552.298C589.735 552.096 572.941 535.099 542.589 540.158C542.185 540.158 541.78 539.955 541.78 539.551C541.78 539.146 541.982 538.741 542.387 538.741C558.777 536.111 571.12 539.551 578.607 542.99C586.7 546.835 590.95 551.084 591.152 551.286C591.354 551.489 591.354 552.096 591.152 552.298C590.747 552.298 590.545 552.5 590.545 552.5Z" fill="white"/>
<path d="M547.648 494.428C547.446 494.428 547.041 494.225 547.041 494.023C546.839 493.821 534.293 473.182 511.226 477.431C510.821 477.431 510.417 477.228 510.417 476.824C510.417 476.419 510.619 476.014 511.024 476.014C535.103 471.563 548.255 493.011 548.457 493.214C548.66 493.618 548.457 494.023 548.255 494.225C547.85 494.428 547.648 494.428 547.648 494.428Z" fill="white"/>
<path d="M543.601 501.712C543.399 501.712 543.196 501.51 542.994 501.308C542.792 501.105 529.235 481.276 506.37 486.739C505.965 486.739 505.56 486.536 505.358 486.132C505.358 485.727 505.56 485.322 505.965 485.12C529.842 479.454 544.208 500.093 544.208 500.296C544.41 500.701 544.41 501.105 544.006 501.308C543.803 501.712 543.803 501.712 543.601 501.712Z" fill="white"/>
<path d="M542.387 509.604C542.184 509.604 541.982 509.401 541.78 509.199C541.577 508.997 528.02 489.167 505.156 494.63C504.751 494.63 504.346 494.428 504.144 494.023C504.144 493.618 504.346 493.214 504.751 493.011C528.627 487.346 542.994 507.985 542.994 508.187C543.196 508.592 543.196 508.997 542.791 509.199C542.589 509.604 542.387 509.604 542.387 509.604Z" fill="white"/>
<path d="M538.138 518.102C537.935 518.102 537.733 517.9 537.53 517.697C537.328 517.495 523.771 497.665 500.906 503.128C500.502 503.128 500.097 502.926 499.895 502.521C499.895 502.117 500.097 501.712 500.502 501.51C524.378 495.844 538.745 516.483 538.745 516.685C538.947 517.09 538.947 517.495 538.542 517.697C538.34 518.102 538.138 518.102 538.138 518.102Z" fill="white"/>
<path d="M533.686 526.398C533.483 526.398 533.281 526.398 533.079 526.196C532.876 525.993 518.105 507.378 495.24 512.841C494.836 512.841 494.431 512.639 494.229 512.234C494.229 511.829 494.431 511.425 494.836 511.222C518.712 505.557 534.09 524.779 534.293 524.982C534.495 525.386 534.495 525.791 534.09 525.993C533.888 526.398 533.686 526.398 533.686 526.398Z" fill="white"/>
<path d="M530.651 535.706C530.449 535.706 530.246 535.504 530.044 535.301C529.842 535.099 516.284 517.09 493.42 522.554C493.015 522.554 492.61 522.351 492.408 521.947C492.408 521.542 492.61 521.137 493.015 520.935C516.891 515.269 531.056 534.087 531.258 534.289C531.46 534.694 531.46 535.099 531.056 535.301C531.056 535.706 530.853 535.706 530.651 535.706Z" fill="white"/>
<path d="M556.955 458.208C556.55 458.208 556.348 458.006 556.146 457.601L549.873 433.725C549.671 433.32 550.075 432.915 550.48 432.713C550.885 432.511 551.289 432.915 551.492 433.32L557.764 457.196C557.967 457.803 557.562 458.208 556.955 458.208C557.157 458.208 557.157 458.208 556.955 458.208Z" fill="white"/>
<path d="M540.97 449.305C540.565 449.305 540.363 449.103 540.161 448.698C539.958 448.293 540.363 447.889 540.768 447.686L563.228 441.211C563.633 441.009 564.037 441.414 564.24 441.818C564.442 442.223 564.037 442.628 563.633 442.83L541.172 449.305C541.172 449.305 541.172 449.305 540.97 449.305Z" fill="white"/>
<path d="M563.43 451.733C563.228 451.733 563.228 451.733 563.025 451.531L544.005 438.986C543.6 438.783 543.6 438.379 543.803 437.974C544.005 437.569 544.41 437.569 544.814 437.772L563.835 450.317C564.239 450.519 564.239 450.924 564.037 451.329C563.835 451.531 563.632 451.733 563.43 451.733Z" fill="white"/>
<path d="M547.85 455.375C547.648 455.375 547.648 455.375 547.445 455.375C547.041 455.173 547.041 454.768 547.243 454.364L558.574 434.129C558.777 433.725 559.181 433.725 559.586 433.927C559.991 434.129 559.991 434.534 559.788 434.939L548.457 455.173C548.457 455.173 548.255 455.375 547.85 455.375Z" fill="white"/>
<path d="M594.592 264.363L593.782 256.877L599.853 260.721L606.125 257.888L604.304 264.768L609.97 270.838L601.674 269.22L599.853 277.516L595.603 269.017L587.712 269.422L594.592 264.363Z" fill="#01D8DC"/>
<path d="M402.567 418.954C402.567 418.954 425.027 397.1 462.258 434.534C510.618 483.299 455.176 524.172 455.176 524.172C455.176 524.172 381.928 469.539 402.567 418.954Z" fill="#FAB217"/>
<path d="M379.297 316.163C379.297 316.163 466.71 308.474 476.018 272.659C485.528 236.844 469.543 231.381 462.258 240.082C454.974 248.985 463.675 281.36 443.036 284.598C430.693 286.621 461.853 253.639 449.915 248.378C437.977 243.117 435.549 292.894 428.264 290.061C420.98 287.228 439.393 256.067 424.622 261.935C410.054 267.803 424.015 299.369 405.197 301.19C402.972 301.392 411.268 280.146 402.972 282.776C394.878 285.205 411.268 303.618 371.204 313.533C371.406 313.533 372.013 320.412 379.297 316.163Z" fill="#26192A"/>
<path d="M375.251 318.389C372.013 318.389 371.001 315.354 370.799 313.735C370.799 313.33 371.001 312.926 371.406 312.926C398.52 306.248 399.127 295.929 399.734 289.049C399.937 285.812 400.139 283.181 403.174 282.169C404.793 281.765 406.007 281.967 406.816 282.979C408.637 285.204 407.626 290.87 406.614 295.726C406.209 297.547 405.804 299.571 405.804 300.583C414.708 299.571 415.517 290.668 416.124 281.36C416.731 272.862 417.338 264.363 424.622 261.328C427.658 260.114 429.479 260.316 430.693 261.733C432.514 264.161 431.097 269.826 429.479 275.897C427.86 281.765 426.241 288.644 428.669 289.454C428.872 289.454 428.872 289.454 429.074 289.454C431.3 289.454 433.728 280.551 435.751 272.457C438.989 260.114 442.226 247.164 448.499 247.164C449.106 247.164 449.915 247.366 450.522 247.569C451.939 248.176 452.951 249.187 453.355 250.604C454.974 255.46 450.32 263.756 446.273 271.04C443.44 276.099 440.405 281.765 441.215 283.383C441.215 283.383 441.417 283.788 442.226 283.788C442.429 283.788 442.833 283.788 443.036 283.788C455.581 281.765 456.593 268.208 457.807 256.269C458.414 249.39 459.021 242.915 461.854 239.475C463.877 236.844 466.71 235.428 469.543 235.428C472.173 235.428 474.601 236.642 476.22 239.07C478.851 242.51 482.493 251.413 477.029 272.659C472.983 287.835 455.379 299.773 424.622 308.272C402.972 314.342 381.928 316.365 379.905 316.568C377.881 317.782 376.465 318.389 375.251 318.389ZM372.216 314.14C372.418 315.151 373.227 316.77 375.048 316.77C376.06 316.77 377.274 316.365 378.69 315.556C378.69 315.556 378.893 315.556 379.095 315.556C379.905 315.556 465.901 307.462 475.208 272.659C480.672 252.222 477.232 243.724 474.804 240.487C473.387 238.463 471.364 237.451 469.34 237.451C467.115 237.451 464.686 238.665 462.865 240.891C460.437 243.926 459.83 250.199 459.223 256.876C458.211 269.422 456.795 283.586 443.238 285.609C442.833 285.609 442.429 285.609 442.226 285.609C441.012 285.609 440.203 285.204 439.798 284.395C438.584 282.169 440.81 277.718 444.857 270.636C448.499 263.958 453.153 255.46 451.939 251.413C451.534 250.401 450.927 249.794 449.915 249.187C449.511 248.985 448.904 248.783 448.499 248.783C443.44 248.783 440.001 262.137 437.168 272.862C434.335 283.99 432.311 290.87 429.074 290.87C428.872 290.87 428.467 290.87 428.265 290.668C424.42 289.251 426.241 282.372 428.062 275.29C429.479 270.231 430.895 264.363 429.479 262.542C429.276 262.34 428.872 261.935 428.062 261.935C427.253 261.935 426.444 262.137 425.229 262.542C418.957 265.172 418.35 272.862 417.743 281.158C417.136 290.87 416.326 300.785 405.602 301.797C405.197 301.797 404.793 301.594 404.59 301.392C403.983 300.583 404.186 298.964 404.995 295.119C405.804 291.275 407.019 285.204 405.602 283.586C405.197 283.181 404.59 282.979 403.579 283.383C401.555 283.99 401.353 285.609 401.151 288.847C400.544 295.929 399.734 307.26 372.216 314.14Z" fill="#26192A"/>
<path d="M353.6 320.817C353.6 320.817 266.592 310.7 258.094 274.682C249.595 238.665 265.783 233.607 272.865 242.51C279.947 251.615 270.437 283.788 290.671 287.632C303.014 290.061 272.662 256.067 284.803 251.211C296.944 246.354 297.955 296.131 305.24 293.5C312.524 290.87 295.122 259.304 309.691 265.375C324.26 271.445 309.287 302.808 327.902 305.236C330.128 305.439 322.439 284.193 330.533 286.823C338.626 289.454 321.629 307.462 361.491 318.389C361.491 318.591 360.682 325.268 353.6 320.817Z" fill="#26192A"/>
<path d="M357.849 323.043C356.635 323.043 355.016 322.436 353.397 321.424C351.374 321.222 330.33 318.389 308.882 311.914C278.328 302.404 261.129 290.061 257.487 274.885C252.63 253.841 256.273 244.938 259.105 241.498C260.926 239.272 263.355 238.058 265.783 238.058C268.616 238.058 271.448 239.677 273.472 242.308C276.102 245.747 276.507 252.222 276.912 259.304C277.721 271.243 278.53 284.8 290.873 287.228C291.278 287.228 291.48 287.43 291.885 287.43C292.694 287.43 292.897 287.228 292.897 287.025C293.908 285.407 290.873 279.741 288.243 274.683C284.398 267.196 279.947 258.697 281.768 254.043C282.375 252.627 283.387 251.615 284.803 251.008C285.41 250.806 286.017 250.604 286.624 250.604C292.897 250.604 295.932 263.554 298.765 276.099C300.586 283.788 302.609 293.298 304.835 293.298H305.037C307.668 292.286 306.049 285.609 304.633 279.539C303.216 273.468 302.002 267.803 303.823 265.375C305.037 263.958 306.858 263.756 309.894 265.172C316.976 268.208 317.38 276.908 317.785 285.407C318.19 294.715 318.594 303.618 327.497 304.832C327.497 304.022 327.093 301.797 326.89 299.975C326.081 295.119 325.069 289.454 327.093 287.228C327.902 286.216 329.116 286.014 330.735 286.621C333.77 287.633 333.77 290.465 333.972 293.5C334.175 300.38 334.782 310.7 361.491 318.186C361.896 318.186 362.098 318.591 362.098 318.996C362.098 320.21 360.884 323.043 357.849 323.043ZM265.58 239.475C263.557 239.475 261.533 240.486 260.117 242.51C257.487 245.747 254.047 254.043 258.903 274.683C267.199 309.688 352.79 320.21 353.802 320.21C354.004 320.21 354.004 320.21 354.207 320.412C355.623 321.424 357.04 321.829 358.051 321.829C359.872 321.829 360.682 320.21 360.884 319.198C333.568 311.509 333.163 300.178 332.961 293.298C332.758 290.061 332.758 288.442 330.735 287.633C329.723 287.228 329.116 287.43 328.712 287.835C327.295 289.454 328.307 295.524 328.914 299.368C329.521 303.213 329.723 304.832 329.116 305.641C328.914 305.843 328.712 306.046 328.307 306.046C317.583 304.629 317.178 294.715 316.571 285.002C316.166 276.706 315.762 268.815 309.489 266.184C308.275 265.779 307.465 265.375 306.656 265.375C305.847 265.375 305.442 265.779 305.24 265.982C303.823 267.803 305.037 273.671 306.251 278.729C307.87 286.014 309.489 292.691 305.644 294.107C305.442 294.107 305.037 294.31 304.835 294.31C301.597 294.31 299.776 287.43 297.146 276.099C294.718 265.172 291.683 251.818 286.422 251.818C286.017 251.818 285.612 251.818 285.005 252.02C283.994 252.425 283.184 253.234 282.982 254.043C281.363 258.09 285.815 266.589 289.457 273.468C293.099 280.753 295.325 285.204 294.111 287.43C293.504 288.442 292.492 288.847 290.469 288.442C276.912 285.811 276.102 271.647 275.293 259.102C274.888 252.425 274.483 246.152 272.055 243.117C270.437 240.689 268.008 239.475 265.58 239.475Z" fill="#26192A"/>
<path d="M419.766 445.056C419.766 445.056 419.968 318.389 396.699 304.022C373.429 289.656 282.982 326.28 285.005 361.69C287.029 397.1 358.254 370.593 358.254 370.593L351.172 449.912L419.766 445.056Z" fill="#BB7A46"/>
<path d="M398.52 313.937C398.52 313.937 447.082 313.937 450.725 330.125C450.725 330.125 419.159 359.465 398.52 313.937Z" fill="#BB7A46"/>
<path d="M309.287 326.685C309.287 326.685 329.926 354.001 324.867 379.092C324.867 379.092 289.659 388.197 282.375 366.344C275.293 344.491 309.287 326.685 309.287 326.685Z" fill="#F8C19A"/>
<path d="M305.24 380.306C302.609 380.306 299.776 372.617 298.562 369.379C298.36 368.975 298.562 368.57 298.967 368.368C299.372 368.165 299.776 368.368 299.979 368.772C301.8 374.64 304.228 378.89 305.037 378.687C305.037 378.687 306.656 378.282 306.454 365.535C306.454 365.13 306.858 364.725 307.263 364.725C307.668 364.725 308.072 365.13 308.072 365.535C308.275 378.08 306.858 379.901 305.24 380.306C305.442 380.306 305.442 380.306 305.24 380.306Z" fill="#26192A"/>
<path d="M297.349 334.779C297.349 334.779 304.835 372.212 282.577 354.001C282.577 353.799 283.791 343.884 297.349 334.779Z" fill="#26192A"/>
<path d="M371.406 335.79C371.002 335.79 370.597 335.588 370.192 335.386C366.955 333.362 367.359 322.031 367.562 319.805C367.562 319.401 367.966 318.996 368.371 318.996C368.776 318.996 369.181 319.401 369.181 319.805C368.978 324.661 369.181 332.755 371.002 333.969C371.204 334.172 371.406 334.172 372.013 333.969C376.465 331.541 376.667 321.222 376.667 321.222C376.667 320.817 377.072 320.412 377.477 320.412C377.881 320.412 378.286 320.817 378.286 321.222C378.286 321.626 378.286 332.553 372.823 335.386C372.418 335.588 371.811 335.79 371.406 335.79Z" fill="#26192A"/>
<path d="M337.817 330.125C337.21 330.125 336.806 329.922 336.603 329.72C333.77 327.697 334.782 318.389 335.187 316.568C335.187 316.163 335.591 315.758 335.996 315.961C336.401 315.961 336.806 316.365 336.603 316.77C335.996 321.019 335.996 327.494 337.413 328.506C337.615 328.506 337.817 328.708 338.424 328.304C343.078 325.876 343.888 317.175 343.888 317.175C343.888 316.77 344.292 316.365 344.697 316.568C345.102 316.568 345.506 316.972 345.304 317.377C345.304 317.782 344.292 326.887 339.031 329.72C338.627 330.125 338.222 330.125 337.817 330.125Z" fill="#26192A"/>
<path d="M434.335 329.922C434.132 329.922 434.132 329.922 433.93 329.922C433.728 329.922 421.992 323.245 407.423 323.447C407.018 323.447 406.614 323.043 406.614 322.638C406.614 322.233 407.018 321.829 407.423 321.829C422.397 321.829 434.132 328.101 434.74 328.506C435.144 328.708 435.144 329.113 434.942 329.518C434.74 329.72 434.537 329.922 434.335 329.922Z" fill="#26192A"/>
<path d="M419.362 425.833C419.362 425.833 464.889 479.859 453.355 547.442C441.62 615.227 358.254 604.3 333.366 579.21C292.695 538.336 353.195 428.261 353.195 428.261L419.362 425.833Z" fill="#BB7A46"/>
<path d="M367.157 578.4C367.157 578.4 366.55 610.37 370.799 658.326H348.137C348.137 658.326 338.222 616.643 340.853 578.4H367.157Z" fill="#BB7A46"/>
<path d="M426.039 437.771C426.039 437.771 463.877 437.367 469.543 404.385C472.375 388.4 456.997 372.617 456.997 372.617L477.029 361.69C477.029 361.69 502.12 387.59 492.003 420.168C480.065 458.208 439.191 467.718 439.191 467.718L426.039 437.771Z" fill="#BB7A46"/>
<path d="M352.993 428.059C352.993 428.059 330.33 458.208 300.181 443.235C285.815 435.95 281.97 414.3 281.97 414.3L261.533 424.012C261.533 424.012 267.604 459.625 299.776 470.754C337.615 483.906 369.383 456.387 369.383 456.387L352.993 428.059Z" fill="#BB7A46"/>
<path d="M422.599 581.233C422.599 581.233 401.353 609.561 416.934 619.071C432.312 628.784 441.215 622.106 441.215 622.106L442.226 641.127C442.226 641.127 420.98 648.006 404.995 637.08C372.013 614.62 389.01 579.412 389.01 579.412L422.599 581.233Z" fill="#BB7A46"/>
<path d="M342.876 565.248C342.876 565.248 328.712 539.753 333.365 508.389C338.019 477.026 354.409 434.534 384.356 457.601C414.505 480.668 424.42 559.987 398.52 573.342C355.421 595.397 342.876 565.248 342.876 565.248Z" fill="#F8C19A"/>
<path d="M429.681 437.367C429.681 437.367 424.42 502.117 458.616 509.603C458.616 509.603 455.379 517.697 455.176 523.97C455.176 523.97 429.074 515.876 419.564 488.357C410.256 460.839 419.159 421.786 419.159 421.786C419.159 421.786 430.288 434.332 429.681 437.367Z" fill="#FAB217"/>
<path d="M352.993 428.059C352.993 428.059 327.902 481.68 320.416 520.732C320.416 520.732 313.738 513.65 317.178 490.178C320.213 468.325 336.198 430.285 352.993 428.059Z" fill="#FAB217"/>
<path d="M430.288 572.33L463.473 575.365C463.473 575.365 447.487 609.156 426.241 587.91C404.793 566.664 430.288 572.33 430.288 572.33Z" fill="#BB7A46"/>
<path d="M334.58 300.583C317.785 301.594 315.357 312.926 315.357 312.926C315.357 312.926 307.061 341.658 337.21 339.23C365.336 337.004 354.814 299.166 334.58 300.583ZM336.199 332.755C316.167 334.374 321.63 315.151 321.63 315.151C321.63 315.151 323.249 307.665 334.377 306.855C348.137 306.046 355.016 331.339 336.199 332.755Z" fill="#98D5CC"/>
<path d="M377.679 307.26C360.884 308.272 358.456 319.603 358.456 319.603C358.456 319.603 350.16 348.336 380.309 345.907C408.435 343.682 398.116 305.843 377.679 307.26ZM379.298 339.432C359.266 341.051 364.729 321.829 364.729 321.829C364.729 321.829 366.348 314.342 377.477 313.532C391.236 312.723 398.116 338.016 379.298 339.432Z" fill="#98D5CC"/>
<path d="M396.294 321.626L412.482 314.544L409.649 309.688L391.64 316.568L396.294 321.626Z" fill="#98D5CC"/>
<path d="M351.172 323.043C351.172 323.043 357.04 322.638 360.075 325.876L362.3 320.008C362.3 320.008 358.456 313.937 350.969 317.175V323.043H351.172Z" fill="#98D5CC"/>
<path d="M466.508 386.579L486.54 375.45L477.839 358.858L456.998 372.415L466.508 386.579Z" fill="#26192A"/>
<path d="M409.851 367.356C409.446 367.356 409.042 366.951 409.042 366.546C409.042 364.523 408.232 360.476 408.232 360.476C408.232 360.071 408.434 359.667 408.839 359.667C409.244 359.667 409.649 359.869 409.649 360.274C409.649 360.476 410.458 364.523 410.458 366.749C410.66 367.153 410.256 367.356 409.851 367.356Z" fill="#26192A"/>
<path d="M404.59 372.617C404.186 372.617 403.781 372.212 403.781 371.807C403.781 369.784 402.972 365.737 402.972 365.737C402.972 365.332 403.174 364.928 403.579 364.928C403.983 364.928 404.388 365.13 404.388 365.535C404.388 365.737 405.197 369.784 405.197 372.01C405.4 372.212 404.995 372.617 404.59 372.617Z" fill="#26192A"/>
<path d="M410.661 379.294C410.256 379.294 409.851 378.889 409.851 378.485C409.851 376.461 409.042 372.414 409.042 372.414C409.042 372.01 409.244 371.605 409.649 371.605C410.054 371.605 410.458 371.807 410.458 372.212C410.458 372.414 411.268 376.461 411.268 378.687C411.47 378.889 411.268 379.294 410.661 379.294Z" fill="#26192A"/>
<path d="M404.185 386.578C403.78 386.578 403.376 386.174 403.376 385.769C403.376 383.746 402.566 379.699 402.566 379.699C402.566 379.294 402.769 378.889 403.173 378.889C403.578 378.889 403.983 379.092 403.983 379.496C403.983 379.699 404.792 383.746 404.792 385.971C404.792 386.174 404.59 386.578 404.185 386.578Z" fill="#26192A"/>
<path d="M410.661 390.423C410.256 390.423 409.851 390.018 409.851 389.614C409.851 387.59 409.042 383.543 409.042 383.543C409.042 383.139 409.244 382.734 409.649 382.734C410.054 382.734 410.458 382.936 410.458 383.341C410.458 383.543 411.268 387.59 411.268 389.816C411.47 390.018 411.268 390.423 410.661 390.423Z" fill="#26192A"/>
<path d="M403.781 400.945C403.376 400.945 402.971 400.54 402.971 400.136C402.971 398.112 402.162 394.065 402.162 394.065C402.162 393.661 402.364 393.256 402.769 393.256C403.174 393.256 403.578 393.458 403.578 393.863C403.578 394.065 404.388 398.112 404.388 400.338C404.388 400.743 404.185 400.945 403.781 400.945Z" fill="#26192A"/>
<path d="M412.077 404.182C411.672 404.182 411.268 403.778 411.268 403.373C411.268 401.35 410.458 397.303 410.458 397.303C410.458 396.898 410.661 396.493 411.065 396.493C411.47 396.493 411.875 396.696 411.875 397.1C411.875 397.303 412.684 401.35 412.684 403.575C412.886 403.778 412.482 404.182 412.077 404.182Z" fill="#26192A"/>
<path d="M405.4 413.49C404.995 413.49 404.59 413.086 404.59 412.681C404.59 410.657 403.781 406.611 403.781 406.611C403.781 406.206 403.983 405.801 404.388 405.801C404.793 405.801 405.197 406.003 405.197 406.408C405.197 406.611 406.007 410.657 406.007 412.883C406.209 413.086 405.804 413.49 405.4 413.49Z" fill="#26192A"/>
<path d="M412.482 416.525C412.077 416.525 411.672 416.121 411.672 415.716C411.672 413.693 410.863 409.646 410.863 409.646C410.863 409.241 411.065 408.836 411.47 408.836C411.875 408.836 412.279 409.039 412.279 409.443C412.279 409.646 413.089 413.693 413.089 415.918C413.291 416.121 412.886 416.525 412.482 416.525Z" fill="#26192A"/>
<path d="M403.376 357.643C402.971 357.643 402.567 357.239 402.567 356.834C402.567 354.811 401.757 350.764 401.757 350.764C401.757 350.359 401.96 349.954 402.364 349.954C402.769 349.954 403.174 350.157 403.174 350.561C403.174 350.764 403.983 354.811 403.983 357.036C403.983 357.441 403.781 357.643 403.376 357.643Z" fill="#26192A"/>
<path d="M407.827 351.978C407.423 351.978 407.018 351.573 407.018 351.168C407.018 349.145 406.209 345.098 406.209 345.098C406.209 344.693 406.411 344.289 406.816 344.289C407.22 344.289 407.625 344.491 407.625 344.896C407.625 345.098 408.435 349.145 408.435 351.371C408.435 351.573 408.232 351.978 407.827 351.978Z" fill="#26192A"/>
<path d="M348.137 658.326H370.799L369.383 641.531C369.383 641.531 348.541 639.913 344.697 641.531L348.137 658.326Z" fill="#26192A"/>
<path d="M250 423.81L437.775 349.347L494.431 346.717L456.39 385.567L263.557 463.064L250 423.81Z" fill="#F58A28"/>
<path d="M285.815 409.443L298.562 450.114L263.557 463.064L250 423.81L285.815 409.443Z" fill="#DB6362"/>
<path d="M437.775 349.347L430.693 361.69L445.059 366.749L436.966 380.913L456.39 385.567L494.431 346.717L437.775 349.347Z" fill="#F8C19A"/>
<path d="M466.103 347.931L475.006 367.558L494.431 346.717L466.103 347.931Z" fill="#26192A"/>
<path d="M303.419 447.686C303.014 447.686 302.812 447.484 302.609 447.079L289.862 407.825C289.66 407.42 289.862 407.015 290.267 406.813C290.671 406.611 291.076 406.813 291.278 407.218L304.228 446.472C304.431 446.877 304.228 447.282 303.824 447.484C303.621 447.686 303.621 447.686 303.419 447.686Z" fill="#26192A"/>
<path d="M294.516 415.109C294.111 415.109 293.909 414.907 293.909 414.704C293.706 414.3 293.909 413.895 294.313 413.693L430.693 361.083C431.098 360.881 431.502 361.083 431.705 361.488C431.907 361.893 431.705 362.297 431.3 362.5L294.92 415.109C294.718 415.109 294.516 415.109 294.516 415.109Z" fill="#26192A"/>
<path d="M298.563 432.713C298.158 432.713 297.956 432.511 297.753 432.308C297.551 431.904 297.753 431.499 298.158 431.297L436.561 380.306C436.966 380.104 437.37 380.306 437.573 380.711C437.775 381.115 437.573 381.52 437.168 381.722L298.765 432.713H298.563Z" fill="#26192A"/>
<path d="M464.079 453.15C463.674 453.15 463.472 452.947 463.27 452.543C463.27 452.138 463.472 451.733 463.877 451.733C465.091 451.531 467.721 448.9 469.138 447.484C469.34 447.079 469.947 447.079 470.149 447.484C470.352 447.889 470.554 448.293 470.149 448.496C469.745 448.698 466.103 452.543 464.079 453.15Z" fill="#26192A"/>
<path d="M463.877 445.056C463.473 445.056 463.27 444.854 463.068 444.449C463.068 444.044 463.27 443.64 463.675 443.64C464.889 443.437 467.519 440.807 468.936 439.39C469.138 438.986 469.745 438.986 469.948 439.39C470.352 439.593 470.352 440.2 469.948 440.402C469.745 440.807 466.103 444.651 463.877 445.056C463.877 445.056 464.08 445.056 463.877 445.056Z" fill="#26192A"/>
<path d="M473.387 442.425C473.185 442.425 472.78 442.223 472.78 442.021C472.578 441.616 472.78 441.211 473.185 441.009C474.197 440.402 476.22 437.367 477.03 435.343C477.232 434.939 477.637 434.736 478.041 434.939C478.446 435.141 478.648 435.546 478.446 435.95C478.244 436.558 475.613 441.211 473.792 442.223C473.59 442.425 473.59 442.425 473.387 442.425Z" fill="#26192A"/>
<path d="M471.971 433.522C471.769 433.522 471.364 433.32 471.364 433.118C471.162 432.713 471.364 432.308 471.769 432.106C472.78 431.499 474.804 428.464 475.613 426.44C475.816 426.036 476.22 425.833 476.625 426.036C477.03 426.238 477.232 426.643 477.03 427.047C476.827 427.654 474.197 432.308 472.376 433.32C472.173 433.522 471.971 433.522 471.971 433.522Z" fill="#26192A"/>
<path d="M481.077 431.701C480.874 431.701 480.47 431.499 480.47 431.296C480.267 430.892 480.469 430.487 480.874 430.285C481.886 429.678 483.909 426.643 484.719 424.619C484.921 424.214 485.326 424.012 485.73 424.214C486.135 424.417 486.337 424.821 486.135 425.226C485.933 425.833 483.302 430.487 481.481 431.499C481.279 431.701 481.279 431.701 481.077 431.701Z" fill="#26192A"/>
<path d="M479.862 424.012C479.66 424.012 479.255 423.81 479.255 423.607C479.053 423.203 479.255 422.798 479.66 422.596C480.672 421.989 482.695 418.954 483.504 416.93C483.707 416.525 484.111 416.323 484.516 416.525C484.921 416.728 485.123 417.132 484.921 417.537C484.718 418.144 482.088 422.798 480.267 423.81C480.065 423.81 479.862 424.012 479.862 424.012Z" fill="#26192A"/>
<path d="M487.349 418.954C487.147 418.954 486.944 418.954 486.742 418.751C486.54 418.347 486.54 417.942 486.742 417.74C487.754 416.93 488.968 413.49 489.373 411.467C489.575 411.062 489.98 410.86 490.384 410.86C490.789 411.062 490.991 411.467 490.991 411.872C490.789 412.479 489.373 417.537 487.754 418.954C487.754 418.954 487.552 418.954 487.349 418.954Z" fill="#26192A"/>
<path d="M439.191 573.342C438.989 573.342 438.786 573.342 438.584 573.139C438.382 572.735 438.382 572.33 438.786 572.128C439.798 571.318 441.012 567.878 441.619 565.855C441.822 565.45 442.226 565.248 442.631 565.248C443.036 565.45 443.238 565.855 443.036 566.26C442.833 566.867 441.215 571.925 439.596 573.139C439.596 573.342 439.393 573.342 439.191 573.342Z" fill="#26192A"/>
<path d="M435.549 566.26C435.346 566.26 435.144 566.26 434.942 566.057C434.739 565.652 434.739 565.248 435.144 565.045C436.156 564.236 437.37 560.796 437.977 558.773C438.179 558.368 438.584 558.166 438.989 558.166C439.393 558.368 439.596 558.773 439.393 559.177C439.191 559.785 437.572 564.843 435.953 566.057C435.953 566.26 435.751 566.26 435.549 566.26Z" fill="#26192A"/>
<path d="M443.036 559.785C442.834 559.785 442.631 559.785 442.631 559.582C442.226 559.38 442.226 558.773 442.429 558.57C443.036 557.559 443.441 553.917 443.441 551.893C443.441 551.488 443.845 551.084 444.25 551.084C444.655 551.084 445.059 551.488 445.059 551.893C445.059 552.5 444.857 557.761 443.643 559.582C443.441 559.582 443.238 559.785 443.036 559.785Z" fill="#26192A"/>
<path d="M437.775 552.298C437.573 552.298 437.37 552.298 437.37 552.096C436.965 551.893 436.965 551.286 437.168 551.084C437.977 550.072 438.18 546.43 438.18 544.407C438.18 544.002 438.584 543.597 438.989 543.597C439.394 543.597 439.798 544.002 439.798 544.407C439.798 545.014 439.596 550.274 438.382 552.096C438.18 552.298 437.977 552.298 437.775 552.298Z" fill="#26192A"/>
<path d="M445.059 546.632C444.857 546.632 444.655 546.632 444.655 546.43C444.25 546.227 444.25 545.62 444.452 545.418C445.059 544.406 445.464 540.764 445.464 538.741C445.464 538.336 445.869 537.931 446.273 537.931C446.678 537.931 447.083 538.336 447.083 538.741C447.083 539.348 446.88 544.609 445.666 546.43C445.666 546.632 445.464 546.632 445.059 546.632Z" fill="#26192A"/>
<path d="M440.607 540.157C440.405 540.157 440.203 540.157 440.203 539.955C439.798 539.753 439.798 539.146 440 538.943C440.607 537.932 441.012 534.289 441.012 532.266C441.012 531.861 441.214 531.457 441.821 531.457C442.226 531.457 442.631 531.861 442.631 532.266C442.631 532.873 442.428 538.134 441.214 539.955C441.012 540.157 440.81 540.157 440.607 540.157Z" fill="#26192A"/>
<path d="M445.261 532.468C445.059 532.468 445.059 532.468 444.856 532.468C444.452 532.266 444.249 531.861 444.452 531.457C444.856 530.445 444.452 526.6 444.047 524.577C444.047 524.172 444.249 523.768 444.654 523.768C445.059 523.768 445.463 523.97 445.463 524.375C445.666 524.982 446.475 530.243 445.666 532.064C445.868 532.468 445.463 532.468 445.261 532.468Z" fill="#26192A"/>
<path d="M441.215 622.106L442.226 641.127C442.226 641.127 438.382 641.936 426.241 643.555L425.634 623.32C425.23 623.118 435.549 623.523 441.215 622.106Z" fill="#26192A"/>
<path d="M482.29 580.424L481.683 572.937L487.753 576.782L493.824 573.949L492.003 580.828L497.87 586.899L489.574 585.482L487.753 593.576L483.504 585.078L475.41 585.482L482.29 580.424Z" fill="#01D8DC"/>
<path d="M338.829 516.686C338.424 516.686 338.222 516.483 338.019 516.078C337.008 512.841 337.21 508.592 337.21 508.389C337.21 507.985 337.615 507.58 338.019 507.58C338.424 507.58 338.829 507.985 338.829 508.389C338.829 508.389 338.626 512.639 339.436 515.471C339.638 515.876 339.233 516.281 338.829 516.483C339.031 516.686 338.829 516.686 338.829 516.686Z" fill="#26192A"/>
<path d="M338.424 532.671C338.019 532.671 337.817 532.468 337.615 532.064C336.603 528.826 336.805 524.577 336.805 524.375C336.805 523.97 337.21 523.565 337.615 523.565C338.019 523.565 338.424 523.97 338.424 524.375C338.424 524.375 338.222 528.624 339.031 531.457C339.233 531.861 338.829 532.266 338.424 532.468C338.626 532.671 338.424 532.671 338.424 532.671Z" fill="#26192A"/>
<path d="M345.911 528.624C345.506 528.624 345.304 528.421 345.101 528.017C344.09 524.779 344.292 520.53 344.292 520.328C344.292 519.923 344.697 519.518 345.101 519.518C345.506 519.518 345.911 519.923 345.911 520.328C345.911 520.328 345.708 524.577 346.518 527.41C346.72 527.814 346.315 528.219 345.911 528.421C346.113 528.624 345.911 528.624 345.911 528.624Z" fill="#26192A"/>
<path d="M346.315 544.406C345.911 544.406 345.708 544.204 345.506 543.799C344.494 540.562 344.697 536.313 344.697 536.11C344.697 535.706 345.101 535.301 345.506 535.301C345.911 535.301 346.315 535.706 346.315 536.11C346.315 536.11 346.113 540.36 346.922 543.192C347.125 543.597 346.72 544.002 346.315 544.204C346.315 544.407 346.315 544.406 346.315 544.406Z" fill="#26192A"/>
<path d="M353.397 548.049C352.993 548.049 352.79 547.846 352.588 547.442C351.576 544.204 351.779 539.955 351.779 539.753C351.779 539.348 352.183 538.943 352.588 538.943C352.993 538.943 353.397 539.348 353.397 539.753C353.397 539.753 353.195 544.002 354.005 546.835C354.207 547.239 353.802 547.644 353.397 547.846C353.6 548.049 353.6 548.049 353.397 548.049Z" fill="#26192A"/>
<path d="M351.779 557.963C351.577 557.963 351.172 557.761 351.172 557.559C349.756 554.524 349.351 550.274 349.351 550.072C349.351 549.667 349.553 549.263 349.958 549.263C350.363 549.263 350.767 549.465 350.767 549.87C350.767 549.87 351.172 554.119 352.588 556.952C352.791 557.356 352.588 557.761 352.184 557.963C351.981 557.963 351.779 557.963 351.779 557.963Z" fill="#26192A"/>
<path d="M348.946 568.89C348.744 568.89 348.339 568.688 348.339 568.485C346.922 565.45 346.518 561.201 346.518 560.999C346.518 560.594 346.72 560.189 347.125 560.189C347.53 560.189 347.934 560.392 347.934 560.796C347.934 560.796 348.339 565.045 349.755 567.878C349.958 568.283 349.755 568.688 349.351 568.89C349.148 568.89 349.148 568.89 348.946 568.89Z" fill="#26192A"/>
<path d="M346.72 514.662C346.315 514.662 345.911 514.46 345.911 514.055C345.506 510.817 346.518 506.568 346.72 506.366C346.72 505.961 347.327 505.759 347.732 505.759C348.137 505.759 348.339 506.366 348.339 506.771C348.339 506.771 347.327 510.817 347.732 513.853C347.53 514.257 347.327 514.662 346.72 514.662C346.72 514.662 346.923 514.662 346.72 514.662Z" fill="#26192A"/>
<path d="M341.459 501.51C341.054 501.51 340.65 501.307 340.65 500.903C340.245 497.665 341.257 493.416 341.459 493.213C341.459 492.809 342.066 492.606 342.471 492.606C342.876 492.606 343.078 493.213 343.078 493.618C343.078 493.618 342.066 497.665 342.471 500.7C342.269 501.105 342.066 501.51 341.459 501.51C341.459 501.51 341.662 501.51 341.459 501.51Z" fill="#26192A"/>
<path d="M358.658 565.248C358.456 565.248 358.051 565.046 358.051 564.843C356.635 561.808 356.23 557.559 356.23 557.357C356.23 556.952 356.433 556.547 356.837 556.547C357.242 556.547 357.647 556.749 357.647 557.154C357.647 557.154 358.051 561.403 359.468 564.236C359.67 564.641 359.468 565.046 359.063 565.248C358.861 565.248 358.861 565.248 358.658 565.248Z" fill="#26192A"/>
<path d="M357.242 574.151C357.04 574.151 356.837 574.151 356.635 573.949C354.612 571.318 352.993 567.271 352.993 567.271C352.791 566.867 352.993 566.462 353.398 566.26C353.802 566.057 354.207 566.26 354.409 566.664C354.409 566.664 355.826 570.711 357.849 572.937C358.052 573.342 358.052 573.746 357.647 573.949C357.647 574.151 357.444 574.151 357.242 574.151Z" fill="#26192A"/>
<path d="M341.864 552.905C341.662 552.905 341.257 552.703 341.257 552.5C339.84 549.465 339.436 545.216 339.436 545.013C339.436 544.609 339.638 544.204 340.043 544.204C340.447 544.204 340.852 544.406 340.852 544.811C340.852 544.811 341.257 549.06 342.673 551.893C342.876 552.298 342.673 552.703 342.269 552.905C342.066 552.905 341.864 552.905 341.864 552.905Z" fill="#26192A"/>
<path d="M431.502 509.199C431.3 509.199 431.097 508.996 430.895 508.794L422.599 497.26C422.396 497.058 422.396 496.856 422.396 496.653C422.396 496.451 422.599 496.249 422.801 496.249L434.942 489.369C435.346 489.167 435.751 489.369 435.954 489.571L443.238 500.296C443.44 500.498 443.44 500.7 443.44 500.903C443.44 501.105 443.238 501.307 443.036 501.307L431.704 508.996C431.907 509.199 431.704 509.199 431.502 509.199ZM424.42 497.26L431.704 507.378L441.821 500.498L435.346 490.988L424.42 497.26Z" fill="#26192A"/>
<path d="M325.474 497.868C325.272 497.868 325.272 497.868 325.069 497.868L316.773 494.225C316.369 494.023 316.369 493.821 316.369 493.416L318.392 480.871C318.392 480.668 318.594 480.466 318.797 480.466C318.999 480.264 319.201 480.264 319.404 480.264L329.926 482.287C330.128 482.287 330.33 482.489 330.533 482.692C330.735 482.894 330.735 483.096 330.533 483.299L326.283 497.463C326.283 497.665 326.081 497.868 325.879 497.868C325.676 497.868 325.474 497.868 325.474 497.868ZM317.987 492.809L324.867 495.844L328.712 483.299L319.808 481.478L317.987 492.809Z" fill="#26192A"/>
<path d="M537.935 426.845C537.733 426.845 537.733 426.845 537.531 426.845L515.677 415.716C515.273 415.514 515.07 415.109 515.273 414.705L563.026 311.105C563.026 310.902 563.228 310.7 563.43 310.7C563.633 310.7 563.835 310.7 564.037 310.7L586.902 322.436C587.307 322.638 587.509 323.043 587.307 323.448L538.542 426.44C538.542 426.643 538.34 426.845 538.138 426.845C538.138 426.845 537.935 426.845 537.935 426.845ZM517.094 414.502L537.531 424.822L585.688 323.245L564.037 312.319L517.094 414.502Z" fill="white"/>
<path d="M573.749 327.292C573.547 327.292 573.547 327.292 573.345 327.292L559.585 320.413C559.181 320.21 558.978 319.806 559.181 319.401C559.383 318.996 559.788 318.794 560.192 318.996L573.952 325.876C574.357 326.078 574.559 326.483 574.356 326.888C574.356 327.09 573.952 327.292 573.749 327.292Z" fill="white"/>
<path d="M565.656 328.506C565.454 328.506 565.454 328.506 565.251 328.506L557.562 324.662C557.158 324.459 556.955 324.055 557.158 323.65C557.36 323.245 557.765 323.043 558.169 323.245L565.858 327.09C566.263 327.292 566.465 327.697 566.263 328.102C566.263 328.304 565.858 328.506 565.656 328.506Z" fill="white"/>
<path d="M570.715 319.805C570.513 319.805 570.513 319.805 570.31 319.805L562.014 314.949C561.61 314.747 561.61 314.342 561.812 313.937C562.014 313.533 562.419 313.533 562.824 313.735L571.12 318.591C571.525 318.794 571.525 319.198 571.322 319.603C571.322 319.603 571.12 319.805 570.715 319.805Z" fill="white"/>
<path d="M566.668 340.647C566.466 340.647 566.466 340.647 566.263 340.647L552.909 334.779C552.504 334.577 552.302 334.172 552.504 333.767C552.706 333.362 553.111 333.16 553.516 333.362L566.87 339.23C567.275 339.433 567.477 339.837 567.275 340.242C567.275 340.647 567.073 340.647 566.668 340.647Z" fill="white"/>
<path d="M558.372 342.873H558.17L550.885 339.837C550.481 339.635 550.278 339.23 550.48 338.826C550.683 338.421 551.088 338.219 551.492 338.421L558.777 341.456C559.181 341.659 559.384 342.063 559.181 342.468C558.979 342.67 558.777 342.873 558.372 342.873Z" fill="white"/>
<path d="M563.431 334.172C563.229 334.172 563.229 334.172 563.026 334.172L555.135 329.72C554.73 329.518 554.73 329.113 554.932 328.709C555.135 328.304 555.54 328.304 555.944 328.506L563.836 332.958C564.24 333.16 564.24 333.565 564.038 333.969C564.038 333.969 563.836 334.172 563.431 334.172Z" fill="white"/>
<path d="M560.395 357.037C560.193 357.037 560.193 357.037 559.99 357.037L546.433 350.764C546.029 350.562 545.826 350.157 546.029 349.752C546.231 349.348 546.636 349.145 547.04 349.348L560.597 355.62C561.002 355.823 561.204 356.227 561.002 356.632C561.002 357.037 560.8 357.037 560.395 357.037Z" fill="white"/>
<path d="M553.314 358.251H553.111L545.22 355.013C544.815 354.811 544.613 354.406 544.815 354.001C545.018 353.597 545.422 353.394 545.827 353.597L553.718 356.834C554.123 357.037 554.325 357.441 554.123 357.846C553.921 358.251 553.516 358.251 553.314 358.251Z" fill="white"/>
<path d="M557.562 349.145C557.36 349.145 557.36 349.145 557.157 349.145L548.457 345.098C548.052 344.896 547.85 344.491 548.052 344.087C548.254 343.682 548.659 343.48 549.064 343.682L557.765 347.729C558.169 347.931 558.372 348.336 558.169 348.741C558.169 348.943 557.967 349.145 557.562 349.145Z" fill="white"/>
<path d="M553.515 370.391C553.313 370.391 553.313 370.391 553.111 370.391L539.554 364.119C539.149 363.916 538.947 363.512 539.149 363.107C539.351 362.702 539.756 362.5 540.161 362.702L553.718 368.975C554.122 369.177 554.325 369.582 554.122 369.987C554.122 370.391 553.92 370.391 553.515 370.391Z" fill="white"/>
<path d="M546.433 371.605H546.231L538.34 368.368C537.935 368.166 537.733 367.761 537.935 367.356C538.137 366.951 538.542 366.749 538.947 366.951L546.838 370.189C547.243 370.391 547.445 370.796 547.243 371.201C547.04 371.605 546.838 371.605 546.433 371.605Z" fill="white"/>
<path d="M550.885 362.5C550.683 362.5 550.683 362.5 550.48 362.5L541.982 358.655C541.577 358.453 541.375 358.048 541.577 357.644C541.78 357.239 542.184 357.037 542.589 357.239L551.087 361.083C551.492 361.286 551.695 361.69 551.492 362.095C551.29 362.298 551.088 362.5 550.885 362.5Z" fill="white"/>
<path d="M546.839 384.151C546.636 384.151 546.636 384.151 546.434 384.151L533.079 377.878C532.675 377.676 532.472 377.271 532.675 376.866C532.877 376.462 533.282 376.259 533.686 376.462L547.041 382.734C547.446 382.937 547.648 383.341 547.446 383.746C547.446 383.948 547.041 384.151 546.839 384.151Z" fill="white"/>
<path d="M539.756 385.365H539.554L531.663 382.127C531.258 381.925 531.055 381.52 531.258 381.116C531.46 380.711 531.865 380.509 532.27 380.711L540.161 383.948C540.566 384.151 540.768 384.555 540.566 384.96C540.161 385.162 539.959 385.365 539.756 385.365Z" fill="white"/>
<path d="M544.005 376.259H543.803L535.507 373.022C535.102 372.819 534.9 372.415 535.102 372.01C535.304 371.605 535.709 371.403 536.114 371.605L544.41 374.843C544.815 375.045 545.017 375.45 544.815 375.855C544.612 376.057 544.41 376.259 544.005 376.259Z" fill="white"/>
<path d="M541.172 399.326C540.97 399.326 540.97 399.326 540.768 399.326L527.211 393.054C526.806 392.851 526.604 392.447 526.806 392.042C527.008 391.637 527.413 391.435 527.818 391.637L541.375 397.91C541.779 398.112 541.982 398.517 541.779 398.922C541.779 399.124 541.375 399.326 541.172 399.326Z" fill="white"/>
<path d="M533.888 400.541H533.686L525.795 397.303C525.39 397.101 525.188 396.696 525.39 396.291C525.592 395.887 525.997 395.684 526.402 395.887L534.293 399.124C534.698 399.326 534.9 399.731 534.698 400.136C534.495 400.338 534.293 400.541 533.888 400.541Z" fill="white"/>
<path d="M538.34 391.435C538.137 391.435 538.137 391.435 537.935 391.435L529.234 387.388C528.829 387.186 528.627 386.781 528.829 386.376C529.032 385.972 529.436 385.769 529.841 385.972L538.542 390.019C538.947 390.221 539.149 390.626 538.947 391.03C538.947 391.233 538.542 391.435 538.34 391.435Z" fill="white"/>
<path d="M534.293 412.883C534.09 412.883 534.09 412.883 533.888 412.883L520.331 406.611C519.926 406.408 519.724 406.004 519.926 405.599C520.129 405.194 520.533 404.992 520.938 405.194L534.495 411.467C534.9 411.669 535.102 412.074 534.9 412.479C534.9 412.681 534.495 412.883 534.293 412.883Z" fill="white"/>
<path d="M527.009 414.097H526.807L518.915 410.86C518.511 410.658 518.308 410.253 518.511 409.848C518.713 409.444 519.118 409.241 519.522 409.444L527.414 412.681C527.818 412.883 528.021 413.288 527.818 413.693C527.616 413.895 527.414 414.097 527.009 414.097Z" fill="white"/>
<path d="M531.46 404.992C531.258 404.992 531.258 404.992 531.055 404.992L522.354 400.945C521.95 400.743 521.747 400.338 521.95 399.933C522.152 399.529 522.557 399.326 522.961 399.529L531.662 403.576C532.067 403.778 532.269 404.183 532.067 404.587C532.067 404.79 531.662 404.992 531.46 404.992Z" fill="white"/>
<path d="M617.456 648.209C607.339 648.209 596.615 639.913 585.891 623.928C577.999 611.989 572.941 599.849 572.738 599.849C572.536 599.444 572.738 599.039 573.143 598.837L624.943 576.175C625.348 575.972 625.752 576.175 625.955 576.579C626.764 578.198 643.761 617.857 634.251 637.687C631.823 642.746 627.776 646.185 622.11 647.602C620.491 648.007 618.873 648.209 617.456 648.209ZM574.357 599.849C576.987 605.717 595.805 646.792 617.254 646.792C618.67 646.792 620.289 646.59 621.705 646.185C626.764 644.769 630.609 641.734 632.834 637.08C641.333 619.274 627.169 583.459 624.741 577.996L574.357 599.849Z" fill="white"/>
<path d="M597.222 649.221C595.401 649.221 593.377 648.209 592.568 646.995C591.758 645.983 591.758 644.769 592.365 643.96C592.568 643.555 592.972 643.555 593.377 643.757C593.782 643.96 593.782 644.364 593.579 644.769C593.377 644.971 593.175 645.376 593.782 646.185C594.591 647.197 596.615 648.006 598.233 647.602C599.447 647.197 600.257 645.983 600.459 644.364C600.459 642.948 600.257 642.139 599.65 641.329C598.031 639.508 593.579 639.71 589.128 639.913C581.236 640.115 571.524 640.317 567.679 631.819C565.656 627.165 565.454 623.118 567.275 619.476C570.31 613.203 577.999 610.978 578.404 610.978C578.808 610.775 579.213 611.18 579.415 611.585C579.618 611.989 579.213 612.394 578.808 612.596C578.808 612.596 571.524 614.62 568.691 620.285C567.275 623.523 567.275 627.165 569.298 631.414C572.738 639.103 581.439 638.901 589.33 638.699C594.389 638.496 598.84 638.496 601.066 640.722C602.078 641.734 602.483 643.15 602.28 644.769C602.078 648.007 600.054 649.018 599.043 649.423C598.233 649.221 597.626 649.221 597.222 649.221Z" fill="white"/>
<path d="M642.344 630.807C641.535 630.807 640.321 630.605 639.107 629.593C637.488 628.582 636.679 627.165 636.274 625.749C635.667 622.714 638.297 619.274 641.13 615.429C645.582 609.561 650.64 602.682 647.605 594.588C646.189 590.743 643.963 588.113 640.928 587.101C635.869 585.28 630.001 588.922 630.001 588.922C629.597 589.125 629.192 589.125 628.99 588.72C628.787 588.315 628.787 587.911 629.192 587.708C629.394 587.506 635.667 583.661 641.535 585.685C644.975 586.899 647.403 589.529 649.022 593.981C652.259 602.884 646.796 610.168 642.344 616.239C639.714 619.881 637.286 623.118 637.69 625.546C637.893 626.558 638.5 627.57 639.714 628.379C640.726 629.189 642.344 629.796 643.558 628.784C644.975 627.772 645.379 625.749 645.177 624.332C644.975 623.725 644.57 623.321 644.165 623.321C643.761 623.321 643.356 622.916 643.558 622.511C643.558 622.107 643.963 621.702 644.368 621.904C645.582 622.107 646.391 622.916 646.796 624.13C647.201 625.951 646.594 628.784 644.772 630.2C644.165 630.403 643.356 630.807 642.344 630.807Z" fill="white"/>
<path d="M632.025 662.575C631.823 662.575 631.418 662.373 631.418 662.171L624.538 645.983C624.336 645.579 624.538 645.174 624.943 644.971C625.348 644.769 625.752 644.971 625.955 645.376L632.834 661.564C633.037 661.968 632.834 662.373 632.43 662.575C632.227 662.575 632.025 662.575 632.025 662.575Z" fill="white"/>
<path d="M624.538 667.027C624.335 667.027 623.931 666.825 623.931 666.622C623.728 666.218 623.931 665.813 624.335 665.61L642.951 656.91C643.356 656.707 643.76 656.91 643.963 657.314C644.165 657.719 643.963 658.124 643.558 658.326L624.942 667.027C624.74 667.027 624.538 667.027 624.538 667.027Z" fill="white"/>
<path d="M586.093 602.479C584.474 602.479 582.653 602.479 580.832 602.277C580.427 602.277 580.225 602.075 580.225 601.67C580.225 601.265 580.427 601.063 580.63 600.861L620.492 582.65C620.694 582.447 621.098 582.65 621.301 582.852C621.503 583.054 621.503 583.459 621.503 583.661C621.301 583.864 611.588 602.479 586.093 602.479ZM583.867 601.063C584.474 601.063 585.284 601.063 585.891 601.063C605.518 601.063 615.433 589.934 618.67 585.078L583.867 601.063Z" fill="white"/>
</svg>
