<svg width="272" height="273" viewBox="0 0 272 273" fill="none" xmlns="http://www.w3.org/2000/svg">
<path d="M0.000167847 78.4272C-0.0551453 61.9198 13.2451 48.4641 29.6975 48.4086C32.3244 48.4086 34.8959 48.7415 37.3292 49.3796C40.122 32.2063 54.943 19.0558 72.8609 19.0003C86.3547 18.9448 98.1341 26.3246 104.383 37.3111C108.116 33.3715 113.37 30.8746 119.232 30.8746C130.569 30.8191 139.804 40.03 139.86 51.4049C139.86 51.6269 139.86 51.8488 139.832 52.0708C141.851 51.6269 143.924 51.4049 146.081 51.3772C162.534 51.3217 175.944 64.6664 176 81.1739C176.055 94.7128 167.124 106.171 154.874 109.889C155.4 112.358 155.704 114.882 155.704 117.518C155.787 137.549 139.666 153.862 119.702 153.918C108.393 153.973 98.2724 148.785 91.6084 140.629C86.41 149.201 77.0086 154.944 66.2523 155C52.8692 155.055 41.5322 146.233 37.7163 134.081C34.813 135.662 31.5225 136.55 27.9831 136.578C16.6462 136.633 7.41066 127.423 7.35536 116.048C7.32771 110.887 9.20799 106.171 12.3049 102.536C4.89442 97.0987 0.0278168 88.3317 0.000167847 78.4272ZM44.7674 104.173C44.7674 104.201 44.795 104.201 44.795 104.229C44.8227 104.173 44.878 104.146 44.9056 104.09C44.8503 104.118 44.8227 104.146 44.7674 104.173Z" fill="#019093"/>
<path d="M116.539 37.0001C126.802 36.9723 135.134 45.3096 135.161 55.6201C135.161 56.2037 135.134 56.8151 135.079 57.3987C137.7 56.5372 140.514 56.0925 143.41 56.0647C158.584 56.0091 170.944 68.3484 170.999 83.6613C171.027 87.691 170.172 91.5261 168.627 95C168.985 93.2214 169.151 91.3872 169.151 89.4974C169.096 74.2123 156.736 61.8453 141.562 61.9009C138.803 61.9009 136.127 62.3455 133.616 63.0959C132.816 63.346 132.016 63.6239 131.244 63.9574C131.437 62.7902 131.547 61.5952 131.547 60.3723C131.547 59.8443 131.52 59.3441 131.492 58.8438C130.664 48.1165 121.753 39.668 110.883 39.6958C109.2 39.6958 107.573 39.9181 106 40.3072C109.007 38.2507 112.621 37.0279 116.539 37.0001Z" fill="#80ECEE"/>
<path d="M0.000213623 78.3494C-0.0274353 70.4928 2.95775 63.358 7.8501 58L8.26471 58.3054C8.26471 58.3054 28.8568 153.251 151 135.428C144.836 146.421 133.117 153.862 119.656 153.917C108.351 153.973 98.2344 148.781 91.573 140.619C86.3766 149.198 76.9789 154.944 66.2267 155C52.8487 155.055 41.5162 146.227 37.7018 134.067C34.7995 135.65 31.5103 136.538 27.9724 136.566C16.6398 136.621 7.40784 127.405 7.35257 116.022C7.32492 110.858 9.20448 106.139 12.3002 102.502C4.89256 97.0331 0.0554962 88.2604 0.000213623 78.3494Z" fill="#016C6E"/>
<path d="M282.677 253.439C282.677 253.439 209.194 149.075 241.72 105.44C286.2 45.4908 365.194 204.469 362.636 209.117C356.523 220.117 289.67 263.172 282.677 253.439Z" fill="#008EA7"/>
<path d="M285.835 95.492C285.835 95.492 282.027 123.13 319.514 125.029L322.354 133.028C322.354 133.028 292.949 139.754 282.751 124.438C271.123 106.952 277.8 87.98 277.8 87.98L285.835 95.492Z" fill="#FAB217"/>
<path d="M222.328 130.173C222.328 130.173 248.387 147.644 233.477 171.356L238.35 178.082C238.35 178.082 254.061 155.402 246.251 138.833C238.353 122.313 220.298 119.487 220.298 119.487L222.328 130.173Z" fill="#FAB217"/>
<path d="M250.281 39.6671C250.281 39.6671 238.05 28.5391 211.463 45.786C191.936 58.435 216.276 110.187 202.892 115.552C190.607 120.423 186.924 108.207 186.924 108.207C186.924 108.207 194.325 98.8578 192.125 96.541C187.116 91.2191 181.977 101.14 181.977 101.14C181.977 101.14 175.107 89.7775 172.181 95.8481C170.074 100.096 177.888 106.144 177.888 106.144C177.888 106.144 172.154 143.883 215.764 140.013C262.765 135.86 262.842 91.2185 262.842 91.2185C262.842 91.2185 269.371 102.998 299.625 92.159C324.145 83.3581 301.764 23.7906 276.083 26.1632C258.027 27.8454 250.281 39.6671 250.281 39.6671Z" fill="#ACDBCF"/>
<path d="M219.491 47.7092C219.491 47.7092 193.491 38.9556 183.683 55.0575C173.875 71.1595 191.353 96.678 194.209 98.3058C203.937 104.037 219.821 90.1872 221.858 80.8007C223.847 71.3266 219.491 47.7092 219.491 47.7092Z" fill="#ACDBCF"/>
<path d="M232.515 72.7371C232.606 72.6867 232.697 72.6363 232.788 72.5859C235.219 70.5398 231.995 63.0102 231.642 62.1581C231.543 61.9799 231.354 61.8521 231.172 61.9529C230.99 62.0537 230.857 62.2435 230.956 62.4217C231.91 64.5714 234.013 70.5092 232.302 71.9237C232.12 72.0244 231.938 72.1252 231.658 72.0478C229.792 71.6843 226.83 66.3394 225.834 64.3292C225.736 64.151 225.546 64.0232 225.273 64.1744C225.091 64.2752 224.959 64.4651 225.107 64.7323C225.552 65.534 228.891 72.4167 231.408 72.8847C231.92 72.9503 232.242 72.8883 232.515 72.7371Z" fill="#26192A"/>
<path d="M221.515 77.7371C221.606 77.6867 221.697 77.6363 221.788 77.5859C224.219 75.5398 220.995 68.0102 220.642 67.1581C220.543 66.9799 220.354 66.8521 220.172 66.9529C219.99 67.0537 219.857 67.2435 219.956 67.4217C220.91 69.5714 223.013 75.5092 221.302 76.9237C221.12 77.0244 220.938 77.1252 220.658 77.0478C218.792 76.6843 215.83 71.3394 214.834 69.3292C214.736 69.151 214.546 69.0232 214.273 69.1744C214.091 69.2752 213.959 69.4651 214.107 69.7323C214.552 70.534 217.891 77.4167 220.408 77.8846C220.92 77.9503 221.242 77.8883 221.515 77.7371Z" fill="#26192A"/>
<path d="M231.482 94.4141C231.571 94.3645 231.701 94.1757 231.651 94.0862C231.641 93.8574 231.452 93.728 231.313 93.6881C231.085 93.6978 212.652 93.3804 207.185 91.9628C207.046 91.9229 206.777 92.0718 206.737 92.2109C206.697 92.3501 206.846 92.6187 206.986 92.6586C212.552 94.2553 230.567 94.4529 231.303 94.5133C231.303 94.5133 231.392 94.4637 231.482 94.4141Z" fill="#26192A"/>
<path d="M205.813 94.7529C205.989 94.6551 206.029 94.5181 206.019 94.2929C198.081 54.5797 210.861 45.9984 211.038 45.9005C211.214 45.8027 211.293 45.5286 211.195 45.3524C211.098 45.1762 210.823 45.0978 210.647 45.1957C210.117 45.4892 197.2 54.0314 205.255 94.3711C205.264 94.5962 205.45 94.7235 205.676 94.7138C205.813 94.7529 205.813 94.7529 205.813 94.7529Z" fill="#26192A"/>
<path d="M291.752 78.1807C291.927 78.0836 291.967 77.9486 291.959 77.7272C287.261 60.7842 280.619 50.4549 272.361 47.1228C265.738 44.4669 260.532 47.4658 260.356 47.5629C260.181 47.66 260.102 47.9299 260.198 48.1028C260.294 48.2757 260.565 48.3514 260.74 48.2544C260.827 48.2058 265.771 45.3526 272.076 47.8463C280.014 51.0161 286.704 61.4318 291.25 77.8942C291.306 78.202 291.489 78.3263 291.752 78.1807C291.665 78.2292 291.752 78.1807 291.752 78.1807Z" fill="#26192A"/>
<path d="M193.706 91.0221C193.885 90.9232 193.926 90.7879 193.92 90.5667C190.664 79.0133 193.319 70.1327 196.07 64.791C199.124 58.9444 203.066 55.7494 203.066 55.7494C203.244 55.6505 203.238 55.4294 203.143 55.2576C203.048 55.0859 202.822 55.0989 202.643 55.1977C202.465 55.2966 186.658 68.2119 193.112 90.7904C193.207 90.9622 193.391 91.0845 193.706 91.0221C193.617 91.0715 193.706 91.0221 193.706 91.0221Z" fill="#26192A"/>
<path d="M230.462 105.692C230.64 105.594 230.681 105.459 230.675 105.239C230.581 105.068 230.397 104.946 230.219 105.044C230.042 105.143 214.527 109.827 206.428 105.48C206.244 105.358 206.067 105.456 205.937 105.64C205.806 105.824 205.901 105.996 206.085 106.118C214.456 110.538 229.793 105.951 230.462 105.692Z" fill="#26192A"/>
<path d="M252.594 86.6803C252.594 86.6803 257.332 103.066 245.407 110.843C245.407 110.843 246.721 98.5674 243.585 88.9915C243.536 88.9022 244.576 79.2277 252.594 86.6803Z" fill="white"/>
<path d="M225.025 142.669L232.474 131.887L247.284 145.357C247.284 145.357 247.513 159.225 226.54 165.688C197.679 174.689 225.467 130.839 225.467 130.839L225.025 142.669Z" fill="#ACDBCF"/>
<path d="M241.574 149.564C244.152 148.135 246.966 145.455 247.452 145.073C247.582 144.889 247.576 144.668 247.481 144.497C247.297 144.374 247.072 144.387 246.894 144.486C245.313 146.035 240.549 150.021 238.509 149.694C238.147 149.671 237.916 149.463 237.725 149.12C236.24 146.02 239.318 141.511 239.318 141.511C239.449 141.326 239.354 141.155 239.306 141.069C239.258 140.983 238.986 140.91 238.808 141.009C236.9 142.179 231.524 145.27 229.478 144.723C229.205 144.65 228.974 144.442 228.831 144.185C227.868 142.029 231.972 137.063 233.595 135.379C233.725 135.195 233.719 134.974 233.535 134.852C233.351 134.729 233.126 134.742 232.996 134.927C232.777 135.16 226.77 141.516 228.12 144.579C228.269 145.057 228.684 145.388 229.23 145.534C231.324 146.166 235.727 143.838 237.902 142.52C237.003 144.252 235.82 147.149 236.925 149.563C237.21 150.078 237.673 150.494 238.261 150.504C239.257 150.625 240.419 150.205 241.574 149.564Z" fill="#26192A"/>
<path d="M224.4 120.924C224.49 120.875 224.531 120.739 224.572 120.603C224.565 120.38 224.47 120.207 224.243 120.22C214.072 119.751 206.321 110.818 206.273 110.731C206.177 110.558 205.951 110.57 205.772 110.669C205.594 110.768 205.6 110.991 205.696 111.164C205.744 111.25 213.639 120.444 224.174 120.936C224.174 120.936 224.311 120.973 224.4 120.924Z" fill="#26192A"/>
<path d="M211.942 131.767C211.942 131.767 212.01 131.73 211.942 131.767C212.097 131.57 212.07 131.362 211.975 131.192C208.456 126.904 203.283 115.511 203.189 115.341C203.094 115.17 202.933 115.037 202.798 115.112C202.664 115.186 202.577 115.346 202.671 115.517C202.84 115.98 207.985 127.165 211.552 131.538C211.693 131.793 211.808 131.841 211.942 131.767Z" fill="#26192A"/>
<path d="M298.585 63.3591C298.763 63.2609 298.803 63.1244 298.794 62.9004C298.697 62.7254 289.299 39.9228 265.225 46.4073C265.048 46.5055 264.919 46.6911 264.927 46.9151C264.936 47.1392 265.21 47.2159 265.435 47.2052C288.841 40.9768 298.029 62.9816 298.174 63.244C298.134 63.3805 298.408 63.4573 298.585 63.3591Z" fill="#26192A"/>
<path d="M198.973 131.467C199.156 131.366 199.2 131.23 199.196 131.007C197.426 124.583 198.257 116.605 198.209 116.519C198.205 116.297 198.11 116.125 197.88 116.14C197.65 116.156 197.467 116.257 197.471 116.479C197.518 116.565 196.644 124.68 198.509 131.276C198.513 131.498 198.699 131.619 198.973 131.467Z" fill="#26192A"/>
<path d="M188.921 127.551C189.01 127.502 189.14 127.315 189.091 127.227C188.993 121.986 193.057 115.819 193.147 115.77C193.277 115.582 193.269 115.357 193.082 115.23C192.895 115.104 192.667 115.115 192.537 115.302C192.317 115.539 188.252 121.706 188.359 127.172C188.367 127.398 188.555 127.524 188.782 127.513C188.831 127.601 188.831 127.601 188.921 127.551Z" fill="#26192A"/>
<path d="M184.635 118.85C184.718 118.804 184.718 118.804 184.749 118.665C185.914 116.078 189.103 113.824 189.103 113.824C189.269 113.733 189.332 113.455 189.146 113.315C189.043 113.13 188.775 113.036 188.66 113.221C188.495 113.312 185.305 115.566 184.109 118.292C183.995 118.476 184.098 118.662 184.284 118.802C184.335 118.895 184.469 118.941 184.635 118.85Z" fill="#26192A"/>
<path d="M222.185 43.0409C222.267 42.9954 222.314 42.8875 222.396 42.842C222.409 42.6716 222.34 42.5467 222.141 42.5751C221.277 42.564 219.11 43.6835 218.83 43.7574C218.666 43.8483 218.571 44.0642 218.64 44.1891C218.709 44.3141 218.943 44.3481 219.107 44.2572C219.927 43.8026 221.472 43.1092 222.021 43.1318C222.103 43.0863 222.103 43.0863 222.185 43.0409Z" fill="#26192A"/>
<path d="M224.192 46.0371C224.272 45.9926 224.308 45.8693 224.345 45.7459C224.337 45.5437 224.25 45.3858 224.046 45.3957C223.106 45.4009 221.066 46.6347 220.826 46.768C220.665 46.8568 220.593 47.1035 220.68 47.2614C220.768 47.4192 221.015 47.4882 221.176 47.3994C221.933 46.8763 223.5 46.1112 224.031 46.1259C224.112 46.0815 224.112 46.0815 224.192 46.0371Z" fill="#26192A"/>
<path d="M215.834 52.4876C215.916 52.4418 215.916 52.4418 215.999 52.3961C216.516 51.5781 217.525 50.0896 218.077 49.9167C218.242 49.8252 218.35 49.6321 218.238 49.429C218.125 49.2259 217.93 49.0685 217.765 49.16C216.827 49.4144 215.522 51.7309 215.331 51.9697C215.222 52.1628 215.252 52.4116 215.447 52.569C215.53 52.5232 215.669 52.579 215.834 52.4876Z" fill="#26192A"/>
<path d="M210.834 53.4876C210.916 53.4418 210.916 53.4418 210.999 53.3961C211.516 52.5781 212.525 51.0896 213.077 50.9167C213.242 50.8252 213.35 50.6321 213.238 50.429C213.125 50.2259 212.93 50.0685 212.765 50.16C211.827 50.4144 210.522 52.7309 210.331 52.9697C210.222 53.1628 210.252 53.4116 210.447 53.569C210.669 53.579 210.751 53.5333 210.834 53.4876Z" fill="#26192A"/>
<path d="M229.211 47.0262C229.292 46.9815 229.402 46.8002 229.351 46.7083C229.33 46.4798 229.147 46.3406 228.935 46.3381C227.955 46.2807 226.062 47.8103 225.821 47.9444C225.659 48.0338 225.681 48.2623 225.783 48.4462C225.884 48.63 226.097 48.6325 226.258 48.5432C227.013 48.0043 228.363 47.0161 228.999 47.0237C229.131 47.0709 229.131 47.0709 229.211 47.0262Z" fill="#26192A"/>
<path d="M213.834 48.4875L213.916 48.4418C214.503 47.5541 215.548 46.1311 216.103 45.9642C216.268 45.8727 216.373 45.6737 216.254 45.4586C216.135 45.2435 215.933 45.0741 215.768 45.1656C214.824 45.4079 213.439 47.5814 213.251 47.8262C213.146 48.0252 213.183 48.2861 213.384 48.4554C213.526 48.5172 213.751 48.5333 213.834 48.4875Z" fill="#26192A"/>
<path d="M231.153 42.9826C231.235 42.9371 231.317 42.8916 231.366 42.7879C231.384 42.6258 231.319 42.5092 231.123 42.5418C230.273 42.5556 228.076 43.621 227.83 43.7574C227.666 43.8483 227.534 43.9975 227.631 44.1725C227.728 44.3474 227.842 44.3602 228.088 44.2238C228.941 43.8275 230.482 43.1259 231.021 43.1318C231.038 42.9697 231.071 43.028 231.153 42.9826Z" fill="#26192A"/>
<path d="M236.676 39.9118C236.76 39.8653 236.844 39.8189 236.798 39.7366C236.92 39.5615 236.784 39.3147 236.57 39.3254C235.619 38.9923 233.252 39.6596 232.955 39.7166C232.742 39.7272 232.665 39.9846 232.673 40.1955C232.68 40.4065 232.939 40.4781 233.152 40.4675C234.081 40.1677 235.778 39.8719 236.341 40.0975C236.463 39.9224 236.593 39.9582 236.676 39.9118Z" fill="#26192A"/>
<path d="M237.676 43.9118C237.76 43.8653 237.844 43.8189 237.798 43.7366C237.92 43.5615 237.784 43.3147 237.57 43.3254C236.619 42.9923 234.252 43.6596 233.955 43.7166C233.742 43.7272 233.665 43.9846 233.673 44.1955C233.68 44.4065 233.939 44.4781 234.152 44.4675C235.081 44.1677 236.778 43.8719 237.341 44.0975C237.509 44.0046 237.593 43.9582 237.676 43.9118Z" fill="#26192A"/>
<path d="M244.116 44.8115L244.216 44.7562C244.368 44.56 244.373 44.3335 244.178 44.2176C243.352 43.6687 240.444 43.6021 240.097 43.6825C239.85 43.7075 239.651 43.8182 239.646 44.0447C239.641 44.2712 239.736 44.4424 239.983 44.4173C241.166 44.4329 243.038 44.5141 243.622 44.8617C243.769 44.8919 244.016 44.8669 244.116 44.8115Z" fill="#26192A"/>
<path d="M244.193 40.7688L244.27 40.7261C244.377 40.555 244.359 40.3411 244.187 40.2127C243.452 39.6132 241.045 39.2692 240.843 39.269C240.642 39.2689 240.488 39.3543 240.505 39.5682C240.523 39.7821 240.618 39.9533 240.82 39.9534C241.798 40.0825 243.351 40.3404 243.867 40.7257C243.914 40.8113 244.039 40.8542 244.193 40.7688Z" fill="#26192A"/>
<path d="M229.655 40.9234C229.739 40.877 229.823 40.8305 229.846 40.6747C229.809 40.4096 229.688 40.191 229.543 40.1281C228.449 39.7344 226.149 40.7234 225.837 40.7534C225.669 40.8463 225.562 41.0486 225.683 41.2672C225.805 41.4859 226.01 41.6581 226.177 41.5652C227.076 41.21 228.766 40.7019 229.427 40.907C229.488 41.0163 229.572 40.9699 229.655 40.9234Z" fill="#26192A"/>
</svg>
