<svg width="82" height="96" viewBox="0 0 82 96" fill="none" xmlns="http://www.w3.org/2000/svg">
<path d="M25.2356 79C25.2356 79 11 88.1132 11 91.1152C11 94.1172 20.2081 94.5997 29.9984 84.4143C30.0513 84.4679 28.7812 79.2144 25.2356 79Z" fill="#F58A28"/>
<path d="M49.5484 27.6775C49.5484 27.6775 47.7317 13.1624 35.7933 11.1478C23.9068 9.13325 -1.3196 28.2973 1.17189 32.998C3.66338 37.6986 29.0974 32.843 29.0974 32.843C29.0974 32.843 9.00969 91.42 38.2328 89.9736C67.5079 88.579 49.5484 27.6775 49.5484 27.6775Z" fill="#F58A28"/>
<path d="M45.7089 2L40 16.6933L45.5474 21C45.5474 21 55.4572 8.58666 45.7089 2Z" fill="#F58A28"/>
<path d="M39 0L38.89 15.75L31.9577 18C31.9577 18 27.1711 2.96591 39 0Z" fill="#F58A28"/>
<path d="M51.3214 81.5209C51.3214 81.5209 65.251 79.1604 65.5119 66.4858C65.7727 53.8111 57.3211 35.7485 78.9198 28C78.9198 28 75.3721 37.7497 78.8676 46.4219C82.363 55.094 91.3885 107.64 46 85.6773L51.3214 81.5209Z" fill="#F58A28"/>
<path d="M1 32.8202C1 32.8202 28.0257 24.3031 32.9061 29.9119C37.7865 35.5207 44.661 90.3103 30.8595 89.9987C30.8595 89.9987 16.0085 81.5855 23.6702 50.4775C26.9762 37.0787 29.2327 32.7163 29.2327 32.7163C29.2327 32.7163 5.1457 39.208 1 32.8202Z" fill="#F3EAC7"/>
<path d="M46.0268 16C45.9791 16 45.9313 16 45.8836 15.9504C45.788 15.8513 45.788 15.7027 45.8836 15.6036C48.5582 12.7297 47.2686 7.62613 46.7432 5.89189L43.4955 13.473C43.4478 13.6216 43.3045 13.6712 43.1612 13.6216C43.0179 13.5721 42.9702 13.4234 43.0179 13.2748L46.5044 5.14865C46.5522 5.04955 46.6 5 46.7432 5C46.8388 5 46.9343 5.04955 46.982 5.14865C47.0776 5.44595 49.6567 12.2342 46.2179 15.9504C46.1701 16 46.0746 16 46.0268 16Z" fill="#26192A"/>
<path d="M1.7164 30C1.7164 30 5.5138 37.3949 0.0455543 34.1984C-0.00507756 34.1984 -0.308875 32.0992 1.7164 30Z" fill="#26192A"/>
<path d="M8.30584 36C7.52594 36 6.57893 34.2029 6.02185 33.1014C5.96615 32.9855 6.02186 32.8116 6.13327 32.6956C6.24469 32.6377 6.41178 32.6956 6.5232 32.8116C7.19169 34.1449 8.02731 35.3623 8.30584 35.3623C8.30584 35.3623 8.64009 35.0725 8.30584 32.3478C8.30584 32.1739 8.41727 32.058 8.52869 32C8.69581 32 8.80721 32.1159 8.86292 32.2319C9.19716 35.1884 8.86291 35.7681 8.47296 35.8841C8.41725 36 8.36155 36 8.30584 36Z" fill="#26192A"/>
<path d="M24.7649 24C24.7079 24 24.7079 24 24.651 24C23.1138 23.8473 23 20.0309 23 19.2677C23 19.115 23.1139 19.0132 23.2847 19.0132C23.4555 19.0132 23.5693 19.115 23.5693 19.2677C23.5693 20.9469 23.9678 23.3894 24.7079 23.4911C25.3342 23.542 26.1312 21.354 26.4159 19.2168C26.4159 19.0641 26.5867 18.9624 26.7575 19.0132C26.9282 19.0132 27.0421 19.1659 26.9852 19.3186C26.8144 20.438 26.1881 24 24.7649 24Z" fill="#26192A"/>
<path d="M29.7649 24C29.7079 24 29.708 24 29.651 24C28.1139 23.8473 28 20.0309 28 19.2677C28 19.115 28.1139 19.0132 28.2847 19.0132C28.4555 19.0132 28.5693 19.115 28.5693 19.2677C28.5693 20.9469 28.9678 23.3894 29.7079 23.4911C30.3911 23.542 31.1312 21.354 31.4159 19.2168C31.4159 19.0641 31.5867 18.9624 31.7575 19.0132C31.9282 19.0132 32.0421 19.1659 31.9852 19.3185C31.8713 20.438 31.2451 24 29.7649 24Z" fill="#26192A"/>
<path d="M40.7837 81.0037C40.7837 81.0037 27.743 91.4475 28.0039 94.4314C28.2647 97.4153 37.341 96.9358 46 85.9059C46 85.8526 44.2786 80.8439 40.7837 81.0037Z" fill="#F58A28"/>
<path d="M18.0837 53C18.0319 53 17.9801 53 17.9801 52.9488L7.10359 45.0186C7.0518 44.9674 7.05179 44.9163 7 44.8651C7 44.814 6.99999 44.7628 7.05178 44.7116C7.15537 44.6093 9.01993 42.5628 11.7649 42.5628C14.4064 42.5628 16.8406 44.4558 19.0159 48.1395C19.6892 46.8093 22.4343 42 26.9402 42C28.9084 42 30.8765 42.9209 32.9482 44.7116C33 44.7628 33 44.814 33 44.8651C33 44.9163 32.9482 44.9674 32.8964 45.0186L18.1355 52.9488C18.1355 53 18.0837 53 18.0837 53ZM7.51793 44.814L18.0837 52.5395L32.5339 44.7628C30.6693 43.1256 28.8048 42.307 26.992 42.307C22.1235 42.307 19.2749 48.4977 19.2749 48.5488C19.2231 48.6 19.1713 48.6512 19.1195 48.6512C19.0677 48.6512 18.9641 48.6 18.9641 48.5488C16.7888 44.7628 14.4064 42.8698 11.8685 42.8698C9.64145 42.9721 7.98406 44.3535 7.51793 44.814Z" fill="#26192A"/>
<path d="M19.3011 50C19.1967 50 19.1446 49.9466 19.1446 49.8933C15.4394 42.8483 9.33359 45.4101 9.28141 45.4635C9.17704 45.5168 9.07266 45.4635 9.02048 45.3567C8.96829 45.25 9.02045 45.1433 9.12482 45.0899C9.17701 45.0365 15.4394 42.4213 19.3533 49.4663C20.1883 48.3989 23.476 44.3961 27.4944 44.0225C29.4774 43.8624 31.304 44.5562 32.9217 46.1573C33.0261 46.2107 33.0261 46.3708 32.9217 46.4242C32.8695 46.5309 32.713 46.5309 32.6608 46.4242C31.0952 44.8764 29.3731 44.1826 27.5466 44.3961C23.1629 44.823 19.5099 49.8933 19.5099 49.9466C19.4577 50 19.3533 50 19.3011 50Z" fill="#26192A"/>
<path d="M18.6679 50C18.6679 50 18.6167 50 18.6679 50C18.5655 50 18.5144 49.9499 18.5144 49.8999C18.4632 49.8498 15.086 43.8922 10.2759 45.7446C10.1736 45.7947 10.0712 45.7446 10.0201 45.6445C9.96891 45.5443 10.0201 45.4442 10.1224 45.3941C14.7277 43.5919 18.0539 48.4981 18.7191 49.4994C24.7572 45.244 30.7953 45.9949 30.8465 46.045C30.9488 46.045 31 46.1451 31 46.2452C31 46.3454 30.8976 46.4455 30.7953 46.3954C30.7441 46.3954 24.706 45.6445 18.7702 49.9499C18.7702 50 18.7191 50 18.6679 50Z" fill="#26192A"/>
<path d="M6.06381 43L3 62.2505L15.3591 66.9733L21.1232 68L38 63.4826L36.5979 43.77L22.1098 49.0575L17.0208 48.1335L6.06381 43Z" fill="#DF9FA1"/>
<path d="M20.9769 68L22 48.9302L16.7231 48L15 66.9664L20.9769 68Z" fill="#DB6362"/>
<path d="M50.6536 54.4903C50.6536 54.4903 42.0615 63.8039 30.9482 60.1505C19.835 56.4971 43.4506 52.8952 47.2065 46C47.2579 46 52.3515 48.0583 50.6536 54.4903Z" fill="#F58A28"/>
<path d="M64.1879 49.1601L66.3417 55L69.5461 50.0987L72.7506 55L74.6943 50.0987L78.1089 53.4358L80 49.1601C80 49.1601 76.0601 36.2812 79.0019 27C79.1069 27.0521 62.0341 28.9814 64.1879 49.1601Z" fill="#F3EAC7"/>
<path d="M33.5092 11C33.3966 11 33.284 10.897 33.2277 10.794C32.5521 7.39485 33.5092 5.18026 34.4101 3.94421C35.4235 2.60516 36.5496 2.03863 36.6059 2.03863C36.7185 1.98712 36.7748 1.98712 36.8874 2.03863C36.9437 2.09013 37 2.19314 37 2.24464V10.7425C37 10.897 36.8874 11 36.7185 11C36.5496 11 36.437 10.897 36.437 10.7425V2.70816C35.3672 3.37768 32.7773 5.59229 33.7345 10.691C33.8471 10.8455 33.7345 10.9485 33.5092 11C33.5655 11 33.5092 11 33.5092 11Z" fill="#26192A"/>
<path d="M33.9965 61C33.8938 61 33.7912 61 33.6885 61C33.5859 61 33.4832 60.9035 33.4832 60.8071C33.4832 60.7106 33.5859 60.6623 33.6885 60.6141C35.177 60.6623 36.7168 60.18 37.3328 59.6494C37.4867 59.5047 37.5894 59.36 37.5894 59.2635C37.2301 58.9741 35.331 59.1188 34.0991 59.2635C33.9965 59.2635 33.8938 59.2153 33.8938 59.1188C33.8425 59.0223 33.8938 58.9258 33.9965 58.9258C34.869 58.5399 36.3575 57.7199 36.5115 57.2858C36.5115 57.2375 36.5115 57.2376 36.5115 57.2376C36.3575 56.9964 34.869 57.2375 33.2779 57.8164C33.1752 57.8646 33.0726 57.8164 33.0213 57.7199C32.9699 57.6234 33.0213 57.527 33.0726 57.4787C34.3558 56.707 35.7416 55.7422 35.9469 55.4046C35.6389 55.3081 34.4584 55.3081 33.2266 55.501C33.1239 55.501 33.0213 55.4528 33.0213 55.3563C33.0213 55.2598 33.0726 55.1634 33.1753 55.1634C33.7912 55.0669 35.8443 54.8257 36.2549 55.2116C36.3062 55.2598 36.3575 55.3563 36.3575 55.4528C36.3062 55.7905 35.3823 56.4658 34.5098 57.0446C35.485 56.8034 36.5628 56.6105 36.8195 57.0446C36.8708 57.1411 36.9221 57.2375 36.8708 57.3823C36.7168 57.8164 35.8443 58.347 35.1257 58.7329C36.1009 58.6364 37.4354 58.5882 37.846 58.9258C37.9487 59.0223 38 59.1188 38 59.2152C38 59.4564 37.846 59.6494 37.5894 59.8906C36.9735 60.4694 35.485 61 33.9965 61Z" fill="#26192A"/>
<path d="M38.1797 53C38.0737 53 38.0208 52.949 38.0208 52.898C37.9678 52.796 38.0208 52.694 38.1267 52.643C38.1797 52.643 43.2641 50.7052 45.6474 47.0845C45.7004 46.9825 45.8063 46.9825 45.9122 47.0335C46.0182 47.0845 46.0182 47.1865 45.9652 47.2885C43.5289 51.0112 38.4974 52.898 38.2856 53C38.2326 53 38.2326 53 38.1797 53Z" fill="#26192A"/>
<path d="M39.214 62C39.107 62 39.0535 61.9466 39 61.8396C39 61.7327 39.0535 61.6258 39.1605 61.6258C39.2676 61.6258 49.273 59.7549 52.6438 54.0886C52.6973 53.9817 52.8043 53.9817 52.9113 54.0351C53.0183 54.0886 53.0184 54.1955 52.9649 54.3024C49.5405 60.0756 39.6421 61.8931 39.214 62Z" fill="#26192A"/>
<path d="M48.7914 28C48.6637 28 48.5998 27.9465 48.536 27.8395C48.4721 27.3047 48.0251 26.2884 48.0251 26.2884C47.9612 26.1814 48.0251 26.0745 48.1528 26.021C48.2805 25.9675 48.4082 26.021 48.4721 26.1279C48.4721 26.1814 48.9191 27.1977 48.983 27.7861C49.0469 27.893 48.9192 28 48.7914 28Z" fill="#26192A"/>
<path d="M47.7914 29C47.6637 29 47.5998 28.9465 47.536 28.8395C47.4721 28.3047 47.0251 27.2884 47.0251 27.2884C46.9612 27.1814 47.0251 27.0745 47.1528 27.021C47.2805 26.9675 47.4082 27.021 47.4721 27.128C47.4721 27.1814 47.9191 28.1977 47.983 28.7861C48.0469 28.893 47.9192 29 47.7914 29Z" fill="#26192A"/>
<path d="M49.7914 31C49.6637 31 49.5999 30.9465 49.536 30.8395C49.4721 30.3047 49.0251 29.2884 49.0251 29.2884C48.9612 29.1814 49.0251 29.0745 49.1528 29.021C49.2805 28.9675 49.4082 29.021 49.4721 29.128C49.4721 29.1814 49.9191 30.1977 49.983 30.7861C50.0469 30.8395 49.9192 30.9465 49.7914 31Z" fill="#26192A"/>
<path d="M47.7914 33C47.6637 33 47.5998 32.9465 47.536 32.8395C47.4721 32.3047 47.0251 31.2884 47.0251 31.2884C46.9612 31.1814 47.0251 31.0745 47.1528 31.021C47.2805 30.9675 47.4082 31.021 47.4721 31.128C47.4721 31.1814 47.9191 32.1977 47.983 32.7861C48.0469 32.893 47.9192 33 47.7914 33Z" fill="#26192A"/>
<path d="M49.786 34C49.6591 34 49.5957 33.9465 49.5323 33.8395C49.4688 33.3047 49.0249 32.2884 49.0249 32.2884C48.9615 32.1814 49.0249 32.0745 49.1517 32.021C49.2786 31.9675 49.4054 32.021 49.4688 32.128C49.4688 32.1814 49.9128 33.1977 49.9762 33.7861C50.0396 33.893 49.9762 34 49.786 34C49.8494 34 49.8494 34 49.786 34Z" fill="#26192A"/>
<path d="M47.7859 36C47.6591 36 47.5957 35.9465 47.5323 35.8395C47.4688 35.3047 47.0249 34.2884 47.0249 34.2884C46.9615 34.1814 47.0249 34.0745 47.1517 34.021C47.2785 33.9675 47.4054 34.021 47.4688 34.128C47.4688 34.1814 47.9128 35.1977 47.9762 35.786C48.0396 35.8395 47.9762 35.9465 47.7859 36Z" fill="#26192A"/>
<path d="M50.786 37C50.6591 37 50.5957 36.9465 50.5323 36.8395C50.4688 36.3047 50.0249 35.2884 50.0249 35.2884C49.9615 35.1814 50.0249 35.0745 50.1517 35.021C50.2786 34.9675 50.4054 35.021 50.4688 35.128C50.4688 35.1814 50.9128 36.1977 50.9762 36.786C51.0396 36.893 50.9762 37 50.786 37C50.8494 37 50.786 37 50.786 37Z" fill="#26192A"/>
<path d="M48.7914 40C48.6637 40 48.5998 39.9465 48.536 39.8395C48.4721 39.3047 48.0251 38.2884 48.0251 38.2884C47.9612 38.1814 48.0251 38.0745 48.1528 38.021C48.2805 37.9675 48.4082 38.021 48.4721 38.128C48.4721 38.1814 48.9191 39.1977 48.983 39.7861C49.0469 39.893 48.9192 40 48.7914 40Z" fill="#26192A"/>
<path d="M50.7914 40C50.6637 40 50.5998 39.9465 50.536 39.8395C50.4721 39.3047 50.0251 38.2884 50.0251 38.2884C49.9612 38.1814 50.0251 38.0745 50.1528 38.021C50.2805 37.9675 50.4082 38.021 50.4721 38.128C50.4721 38.1814 50.9191 39.1977 50.983 39.786C51.0469 39.893 50.9192 40 50.7914 40Z" fill="#26192A"/>
<path d="M46.7914 26C46.6637 26 46.5998 25.9465 46.536 25.8395C46.4721 25.3047 46.0251 24.2884 46.0251 24.2884C45.9612 24.1814 46.0251 24.0745 46.1528 24.021C46.2805 23.9675 46.4082 24.021 46.4721 24.1279C46.4721 24.1814 46.9191 25.1977 46.983 25.7861C47.0469 25.893 46.9192 26 46.7914 26Z" fill="#26192A"/>
<path d="M47.786 24C47.6591 24 47.5957 23.9465 47.5323 23.8395C47.4688 23.3047 47.0249 22.2884 47.0249 22.2884C46.9615 22.1814 47.0249 22.0745 47.1517 22.021C47.2786 21.9675 47.4054 22.021 47.4688 22.1279C47.4688 22.1814 47.9128 23.1977 47.9762 23.7861C48.0396 23.8395 47.9762 23.9465 47.786 24C47.8494 24 47.786 24 47.786 24Z" fill="#26192A"/>
<path d="M53.4 67C53.4 67 53.3 67 53.4 67C53.1 67 53 66.8974 53 66.7436C53.2 66.2308 53.2 65.2051 53.2 65.2051C53.2 65.1026 53.4 65 53.6 65C53.8 65 54 65.1026 54 65.2051C54 65.2564 54 66.3333 53.8 66.8462C53.7 66.9487 53.6 67 53.4 67Z" fill="#26192A"/>
<path d="M51.4 68C51.1 68 51 67.8947 51 67.7895C51.2 67.2632 51.2 66.2105 51.2 66.2105C51.2 66.1053 51.4 66 51.6 66C51.8 66 52 66.1053 52 66.2105C52 66.2632 52 67.3158 51.8 67.8947C51.7 67.9474 51.6 68 51.4 68Z" fill="#26192A"/>
<path d="M53.4 70C53.4 70 53.3 70 53.4 70C53.1 70 53 69.8947 53 69.7895C53.2 69.2632 53.2 68.2105 53.2 68.2105C53.2 68.1053 53.4 68 53.6 68C53.8 68 54 68.1053 54 68.2105C54 68.2632 54 69.3158 53.8 69.8947C53.7 69.9474 53.6 70 53.4 70Z" fill="#26192A"/>
<path d="M51.4 71C51.1 71 51 70.8947 51 70.7895C51.2 70.2632 51.2 69.2105 51.2 69.2105C51.2 69.1053 51.4 69 51.6 69C51.8 69 52 69.1053 52 69.2105C52 69.2632 52 70.3158 51.8 70.8947C51.7 70.8947 51.6 71 51.4 71Z" fill="#26192A"/>
<path d="M53.4 73C53.4 73 53.3 73 53.4 73C53.1 73 53 72.8947 53 72.7895C53.2 72.2632 53.2 71.2105 53.2 71.2105C53.2 71.1053 53.4 71 53.6 71C53.8 71 54 71.1053 54 71.2105C54 71.2632 54 72.3158 53.8 72.8947C53.7 72.9474 53.6 73 53.4 73Z" fill="#26192A"/>
<path d="M50.4 75C50.3 75 50.3 75 50.4 75C50.1 75 50 74.8974 50 74.7436C50.2 74.2308 50.2 73.2051 50.2 73.2051C50.2 73.1026 50.4 73 50.6 73C50.8 73 51 73.1026 51 73.2051C51 73.2564 51 74.3333 50.8 74.8461C50.7 74.9487 50.5 75 50.4 75Z" fill="#26192A"/>
<path d="M52.4 76C52.1 76 52 75.8974 52 75.7436C52.2 75.2308 52.2 74.2051 52.2 74.2051C52.2 74.1026 52.4 74 52.6 74C52.8 74 53 74.1026 53 74.2051C53 74.2564 53 75.282 52.8 75.8461C52.7 75.9487 52.6 76 52.4 76Z" fill="#26192A"/>
<path d="M49.4 78C49.4 78 49.3 78 49.4 78C49.1 78 49 77.8974 49 77.7436C49.2 77.2308 49.2 76.2051 49.2 76.2051C49.2 76.1026 49.4 76 49.6 76C49.8 76 50 76.1026 50 76.2051C50 76.2564 50 77.3333 49.8 77.8462C49.7 77.8974 49.6 78 49.4 78Z" fill="#26192A"/>
<path d="M51.2357 79H51.1662C51.0273 78.9474 50.9578 78.8421 51.0273 78.7368C51.3052 78.2632 51.5136 77.2105 51.5136 77.1579C51.5136 77.0526 51.6526 77 51.7916 77C51.9305 77 52 77.1053 52 77.2105C52 77.2632 51.7221 78.3158 51.5136 78.8421C51.4441 79 51.3052 79 51.2357 79Z" fill="#26192A"/>
<path d="M52.4 64C52.1 64 52 63.8974 52 63.7436C52.2 63.2308 52.2 62.2051 52.2 62.2051C52.2 62.1026 52.4 62 52.6 62C52.8 62 53 62.1026 53 62.2051C53 62.2564 53 63.3333 52.8 63.8461C52.7 63.9487 52.6 64 52.4 64Z" fill="#26192A"/>
<path d="M53.4 63C53.4 63 53.3 63 53.4 63C53.1 63 53 62.8974 53 62.7436C53.2 62.2308 53.2 61.2051 53.2 61.2051C53.2 61.1026 53.4 61 53.6 61C53.8 61 54 61.1026 54 61.2051C54 61.2564 54 62.3333 53.8 62.8462C53.7 62.8974 53.6 63 53.4 63Z" fill="#26192A"/>
<path d="M27.7874 84C27.739 84 27.6422 83.9448 27.6422 83.8897C27.6422 83.8345 27.1581 82.8419 27.0129 82.2904C26.9645 82.1801 27.0613 82.0698 27.1581 82.0147C27.2549 81.9595 27.3517 82.0698 27.4001 82.1801C27.5454 82.6764 27.981 83.7243 27.981 83.7243C28.0294 83.8346 27.981 83.9449 27.8842 84C27.8842 83.9449 27.8358 84 27.7874 84Z" fill="#26192A"/>
<path d="M28.7874 82C28.739 82 28.6422 81.9448 28.6422 81.8897C28.6422 81.8345 28.1581 80.8419 28.0129 80.2904C27.9645 80.1801 28.0613 80.0698 28.1581 80.0147C28.2549 79.9595 28.3517 80.0698 28.4001 80.1801C28.5453 80.6764 28.981 81.7243 28.981 81.7243C29.0294 81.8346 28.981 81.9449 28.8842 82C28.8358 82 28.8358 82 28.7874 82Z" fill="#26192A"/>
<path d="M25.7874 82C25.739 82 25.6422 81.9448 25.6422 81.8897C25.6422 81.8345 25.1581 80.8419 25.0129 80.2904C24.9645 80.1801 25.0613 80.0698 25.1581 80.0147C25.2549 79.9595 25.3517 80.0698 25.4001 80.1801C25.5453 80.6764 25.981 81.7243 25.981 81.7243C26.0294 81.8346 25.981 81.9449 25.8842 82C25.8358 81.9449 25.7874 82 25.7874 82Z" fill="#26192A"/>
<path d="M25.7874 79C25.739 79 25.6422 78.9448 25.6422 78.8897C25.6422 78.8345 25.1581 77.8419 25.0129 77.2904C24.9645 77.1801 25.0613 77.0698 25.1581 77.0147C25.2549 76.9595 25.3517 77.0698 25.4001 77.1801C25.5453 77.6764 25.981 78.7243 25.981 78.7243C26.0294 78.8346 25.981 78.9449 25.8842 79C25.8358 79 25.8358 79 25.7874 79Z" fill="#26192A"/>
<path d="M27.7874 79C27.739 79 27.6422 78.9449 27.6422 78.8897C27.6422 78.8346 27.1581 77.8419 27.0129 77.2904C26.9645 77.1801 27.0613 77.0698 27.1581 77.0147C27.2549 76.9595 27.3517 77.0698 27.4001 77.1801C27.5453 77.6765 27.981 78.7243 27.981 78.7243C28.0294 78.8346 27.981 78.9449 27.8842 79C27.8358 79 27.7874 79 27.7874 79Z" fill="#26192A"/>
<path d="M27.6923 74C27.5384 74 27.4615 73.9487 27.3846 73.8461C27.3846 73.7949 27 72.7692 27 72.2051C27 72.1026 27.1538 72 27.3077 72C27.4615 72 27.6154 72.1026 27.6154 72.2051C27.6154 72.7179 28 73.7436 28 73.7436C28 73.8974 27.8461 74 27.6923 74Z" fill="#26192A"/>
<path d="M30.7874 88C30.739 88 30.6422 87.9448 30.6422 87.8897C30.6422 87.8345 30.1581 86.8419 30.0129 86.2904C29.9645 86.1801 30.0613 86.0698 30.1581 86.0147C30.2549 85.9595 30.3517 86.0698 30.4001 86.1801C30.5453 86.6764 30.981 87.7243 30.981 87.7243C31.0294 87.8346 30.981 87.9449 30.8842 88C30.8358 88 30.7874 88 30.7874 88Z" fill="#26192A"/>
<path d="M24.7735 79C24.7219 79 24.6188 78.9463 24.6188 78.8927C24.6188 78.839 24.1547 77.873 24 77.2826C24 77.1753 24.0516 77.0679 24.1547 77.0143C24.2579 76.9606 24.361 77.0679 24.4126 77.1753C24.5157 77.712 24.9798 78.678 24.9798 78.678C25.0313 78.7853 24.9798 78.8927 24.8766 78.9463C24.8766 79 24.8251 79 24.7735 79Z" fill="#26192A"/>
<path d="M25.6923 76C25.5385 76 25.4615 75.9487 25.3846 75.8461C25.3846 75.7949 25 74.7692 25 74.2051C25 74.1026 25.1539 74 25.3077 74C25.4616 74 25.6154 74.1026 25.6154 74.2051C25.6154 74.718 26 75.7436 26 75.7436C26 75.8462 25.9231 75.9487 25.6923 76Z" fill="#26192A"/>
<path d="M23.7796 75C23.6497 75 23.5847 74.9474 23.5197 74.8421C23.5197 74.7895 23.065 73.7895 23 73.2105C23 73.1053 23.065 73 23.1949 73C23.3248 73 23.4548 73.0526 23.4548 73.1579C23.5197 73.6842 23.9745 74.6842 23.9745 74.6842C24.0395 74.7895 23.9745 74.8947 23.8446 74.9474C23.8446 75 23.8446 75 23.7796 75Z" fill="#26192A"/>
<path d="M25.6416 72C25.4624 72 25.3728 71.9487 25.2832 71.8462C25.2832 71.7949 24.9248 70.7692 25.0144 70.2051C25.0144 70.1026 25.1936 70.0513 25.3728 70C25.552 70 25.7312 70.1026 25.7312 70.2051C25.7312 70.7179 26 71.7436 26 71.7436C26 71.8974 25.9104 72 25.6416 72Z" fill="#26192A"/>
<path d="M23.21 71C23.105 71 23 70.8974 23 70.7949C23 70.7436 23 69.7179 23.105 69.1538C23.105 69.0513 23.21 69 23.315 69C23.42 69 23.4724 69.1026 23.4724 69.2051C23.3675 69.7179 23.3674 70.7436 23.3674 70.7436C23.4199 70.9487 23.315 71 23.21 71Z" fill="#26192A"/>
<path d="M29.7874 85C29.739 85 29.6422 84.9448 29.6422 84.8897C29.6422 84.8345 29.1581 83.8419 29.0129 83.2904C28.9645 83.1801 29.0613 83.0698 29.1581 83.0147C29.2549 82.9595 29.3517 83.0698 29.4001 83.1801C29.5453 83.6764 29.981 84.7243 29.981 84.7243C30.0294 84.8346 29.981 84.9449 29.8842 85C29.8358 85 29.7874 85 29.7874 85Z" fill="#26192A"/>
<path d="M29.7599 88C29.6913 88 29.6227 88 29.5541 87.9348C29.4855 87.8695 28.4566 86.9562 28.045 86.369C27.9765 86.2386 27.9765 86.1081 28.1137 86.0429C28.2509 85.9776 28.388 85.9776 28.4566 86.1081C28.8682 86.63 29.8285 87.5433 29.8971 87.5433C30.0343 87.6086 30.0343 87.8043 29.8971 87.8695C29.8971 88 29.8285 88 29.7599 88Z" fill="#26192A"/>
<path d="M73.1657 88C73.1289 88 73.0921 88 73.0552 87.9368C72.9816 87.8737 72.9816 87.6841 73.0552 87.6209C73.0552 87.6209 73.5707 86.6101 73.7549 86.1047C73.7917 85.9783 73.8653 85.9783 73.939 86.0415C74.0126 86.1047 74.0126 86.231 73.9758 86.3574C73.7917 86.926 73.2762 87.9368 73.2394 87.9368C73.2394 88 73.2025 88 73.1657 88Z" fill="#26192A"/>
<path d="M72.1657 86C72.1289 86 72.0921 86 72.0552 85.9368C71.9816 85.8736 71.9816 85.6841 72.0552 85.6209C72.0552 85.6209 72.5708 84.6101 72.7549 84.1047C72.7917 83.9783 72.8653 83.9783 72.939 84.0415C73.0126 84.1047 73.0126 84.231 72.9758 84.3574C72.7917 84.926 72.2762 85.9368 72.2393 85.9368C72.2393 85.9368 72.2025 86 72.1657 86Z" fill="#26192A"/>
<path d="M75.1657 86C75.1289 86 75.0921 86 75.0552 85.9368C74.9816 85.8736 74.9816 85.6841 75.0552 85.6209C75.0552 85.6209 75.5708 84.6101 75.7549 84.1047C75.7917 83.9783 75.8653 83.9783 75.939 84.0415C76.0126 84.1047 76.0126 84.231 75.9758 84.3574C75.7917 84.926 75.2762 85.9368 75.2393 85.9368C75.2393 85.9368 75.2025 86 75.1657 86Z" fill="#26192A"/>
<path d="M74.1657 83C74.1289 83 74.0921 83 74.0552 82.9368C73.9816 82.8736 73.9816 82.6841 74.0552 82.6209C74.0552 82.6209 74.5707 81.6101 74.7549 81.1047C74.7917 80.9783 74.8653 80.9783 74.939 81.0415C75.0126 81.1047 75.0126 81.231 74.9758 81.3574C74.7917 81.926 74.2762 82.9368 74.2394 82.9368C74.2394 82.9368 74.2025 83 74.1657 83Z" fill="#26192A"/>
<path d="M73.1657 82C73.1289 82 73.0921 82 73.0552 81.9368C72.9816 81.8736 72.9816 81.6841 73.0552 81.6209C73.0552 81.6209 73.5707 80.6101 73.7549 80.1047C73.7917 79.9783 73.8653 79.9783 73.939 80.0415C74.0126 80.1047 74.0126 80.231 73.9758 80.3574C73.7917 80.926 73.2762 81.9368 73.2394 81.9368C73.2394 82 73.2025 82 73.1657 82Z" fill="#26192A"/>
<path d="M70.1657 85C70.1289 85 70.0921 85 70.0552 84.9368C69.9816 84.8736 69.9816 84.6841 70.0552 84.6209C70.0552 84.6209 70.5708 83.6101 70.7549 83.1047C70.7917 82.9783 70.8653 82.9783 70.939 83.0415C71.0126 83.1047 71.0126 83.231 70.9758 83.3574C70.7917 83.926 70.2762 84.9368 70.2393 84.9368C70.2393 85 70.2025 85 70.1657 85Z" fill="#26192A"/>
<path d="M67.2274 87C67.1652 87 67.103 86.9636 67.0408 86.9273C66.9786 86.8545 66.9787 86.7818 67.1031 86.7455C67.1031 86.7455 68.1604 86.3091 68.5957 86.0545C68.6579 85.9818 68.8445 85.9818 68.9067 86.0545C69.0311 86.0909 69.0311 86.2 68.9067 86.2364C68.4713 86.5273 67.414 86.9636 67.3518 86.9636C67.3518 87 67.2896 87 67.2274 87Z" fill="#26192A"/>
<path d="M75.2154 77C75.1663 77 75.1663 77 75.1173 77C75.0192 76.9444 74.9702 76.8333 75.0192 76.7222C75.0192 76.7222 75.5096 75.6667 75.6077 75.1667C75.6567 75.0556 75.7548 75 75.8529 75C75.9509 75.0556 76 75.1667 76 75.2778C75.8529 75.8333 75.3625 76.8889 75.3625 76.8889C75.3625 76.9445 75.2644 77 75.2154 77Z" fill="#26192A"/>
<path d="M66.2084 90C66.1042 90 66.0521 89.935 66 89.8051C66 89.6752 66.0521 89.5452 66.1563 89.5452C66.1563 89.5452 67.1982 89.2854 67.7191 89.0255C67.8233 88.9605 67.9275 89.0255 67.9796 89.1554C68.0317 89.2854 67.9796 89.4153 67.8754 89.4803C67.3544 89.7401 66.3125 90 66.2084 90C66.2605 90 66.2605 90 66.2084 90Z" fill="#26192A"/>
<path d="M63.214 90C63.107 90 63.0535 89.935 63 89.8051C63 89.6752 63.0535 89.5452 63.1605 89.5452C63.1605 89.5452 64.2302 89.2204 64.7116 89.0255C64.8186 88.9605 64.9255 89.0255 64.979 89.1554C65.0325 89.2853 64.979 89.4153 64.872 89.4802C64.3372 89.6752 63.2674 89.935 63.214 90Z" fill="#26192A"/>
<path d="M77.1302 83C77.093 83 77.0558 83 77.0558 82.9401C76.9814 82.8802 76.9814 82.7005 77.0558 82.6406C77.0558 82.6406 77.5392 81.6823 77.7251 81.1433C77.7623 81.0235 77.8367 80.9636 77.911 81.0235C77.9854 81.0834 78.0226 81.2032 77.9854 81.323C77.7995 81.862 77.3161 82.8203 77.2789 82.8802C77.2045 83 77.1673 83 77.1302 83Z" fill="#26192A"/>
<path d="M76.2154 79C76.1663 79 76.1663 79 76.1173 79C76.0192 78.9444 75.9702 78.8333 76.0192 78.7222C76.0192 78.7222 76.5096 77.6667 76.6077 77.1667C76.6567 77.0555 76.7548 77 76.8529 77C76.9509 77.0556 77 77.1667 77 77.2778C76.8529 77.8333 76.3625 78.8889 76.3625 78.8889C76.3134 79 76.2644 79 76.2154 79Z" fill="#26192A"/>
<path d="M78.1587 79C78.1153 79 78.1153 79 78.0719 78.9435C77.9851 78.887 77.9851 78.774 78.0285 78.6609C78.0285 78.6609 78.5057 77.7003 78.6793 77.1352C78.7227 77.0222 78.8094 76.9657 78.8962 77.0222C78.983 77.0787 79.0264 77.1917 78.983 77.3047C78.8094 77.8698 78.3322 78.8305 78.2888 78.887C78.2454 79 78.202 79 78.1587 79Z" fill="#26192A"/>
<path d="M77.2265 75C77.1749 75 77.1749 75 77.1234 75C77.0202 74.9459 76.9687 74.8378 77.0202 74.7297C77.0202 74.7297 77.4843 73.7027 77.5874 73.1622C77.5874 73.054 77.7421 73 77.8453 73C77.9484 73 78 73.1622 78 73.2703C77.8453 73.8108 77.4328 74.8378 77.3812 74.8919C77.3296 74.9459 77.2781 75 77.2265 75Z" fill="#26192A"/>
<path d="M79.2265 72C79.1749 72 79.1749 72 79.1234 72C79.0202 71.9459 78.9687 71.8378 79.0202 71.7297C79.0202 71.7297 79.4843 70.7027 79.5875 70.1622C79.5875 70.054 79.7422 70 79.8453 70C79.9484 70 80 70.1622 80 70.2703C79.8453 70.8108 79.4328 71.8378 79.3812 71.8919C79.3812 71.9459 79.2781 72 79.2265 72Z" fill="#26192A"/>
<path d="M80.2087 65C80.1043 65 80 64.8974 80 64.7949C80 64.7949 80.1043 63.7179 80.0522 63.2051C80.0522 63.1026 80.1043 63 80.2087 63C80.313 63 80.4174 63.0513 80.4174 63.1539C80.4696 63.718 80.3652 64.7436 80.3652 64.7949C80.3652 64.8974 80.313 65 80.2087 65Z" fill="#26192A"/>
<path d="M79.2857 75C79.2143 75 79.2143 75 79.2857 75C79.0714 74.9487 79 74.8462 79 74.7436C79 74.7436 79.3572 73.718 79.4286 73.2051C79.4286 73.1026 79.5714 73 79.7143 73C79.8571 73 80 73.1026 80 73.2051C79.9286 73.7692 79.5715 74.7949 79.5715 74.8461C79.5 74.9487 79.3572 75 79.2857 75Z" fill="#26192A"/>
<path d="M80.2857 71C80.0714 70.9487 80 70.8462 80 70.7436C80 70.7436 80.3571 69.718 80.4286 69.2051C80.4286 69.1026 80.5714 69 80.7143 69C80.8572 69 81 69.1026 81 69.2051C80.9286 69.7692 80.5714 70.7949 80.5714 70.8461C80.5714 70.9487 80.4286 71 80.2857 71Z" fill="#26192A"/>
<path d="M80.2857 69C80.0714 68.9487 80 68.8462 80 68.7436C80 68.7436 80.3571 67.7179 80.4286 67.2051C80.4286 67.1026 80.5714 67 80.7143 67C80.8572 67 81 67.1026 81 67.2051C80.9286 67.7692 80.5714 68.7949 80.5714 68.8462C80.5714 68.9487 80.4286 69 80.2857 69Z" fill="#26192A"/>
<path d="M70.1657 88C70.1289 88 70.0921 88 70.0552 87.9368C69.9816 87.8736 69.9816 87.6841 70.0552 87.6209C70.0552 87.6209 70.5707 86.6101 70.7549 86.1047C70.7917 85.9783 70.8653 85.9783 70.939 86.0415C71.0126 86.1047 71.0126 86.231 70.9758 86.3574C70.7917 86.926 70.2762 87.9368 70.2394 87.9368C70.2394 88 70.2025 88 70.1657 88Z" fill="#26192A"/>
<path d="M70.2059 89C70.1456 89 70.025 88.9579 70.025 88.9158C69.9647 88.8316 70.025 88.7474 70.0853 88.7053C70.0853 88.7053 71.1708 88.2842 71.6532 88.0316C71.7738 87.9895 71.8945 87.9895 71.9548 88.0316C72.0151 88.1158 72.0151 88.2 71.9548 88.2421C71.4723 88.5368 70.3868 88.9579 70.3265 88.9579C70.2662 89 70.2662 89 70.2059 89Z" fill="#26192A"/>
<path d="M16.2023 92.9058C16.0934 92.9058 16.0389 92.8587 15.9844 92.8116C15.93 92.7174 15.9844 92.6231 16.0934 92.576C16.0934 92.576 17.6187 92.0578 17.6187 91.0686C17.6187 90.9744 17.5642 90.9744 17.5642 90.9272C17.2374 90.7859 16.0389 91.257 14.9494 91.7752C14.4591 92.0578 14.0778 92.1992 14.0778 92.2463C13.9689 92.2934 13.8599 92.2463 13.8054 92.1992C13.751 92.105 13.8054 92.0107 13.8599 91.9636C14.0233 91.8694 14.3502 91.681 14.7315 91.4926C15.4942 91.0686 16.5292 90.3619 16.6926 89.7024C16.7471 89.4669 16.6926 89.2785 16.5836 89.1371C16.3113 89.0429 14.677 89.9851 13.0973 91.2099C12.9883 91.257 12.8794 91.257 12.8249 91.2099C12.7704 91.1628 12.7704 91.0215 12.8249 90.9744C13.5876 90.3148 14.786 89.0429 14.7315 88.5247C14.7315 88.4305 14.677 88.4305 14.6226 88.3834C14.0233 88.1008 12.3891 89.2314 11.3541 90.1735C11.2996 90.2677 11.1362 90.2677 11.0817 90.1735C10.9728 90.1264 10.9728 89.9851 11.0817 89.938C11.5175 89.514 13.751 87.5355 14.8405 88.1008C15.0039 88.195 15.1128 88.3363 15.1673 88.5247C15.2218 88.8545 14.9494 89.3256 14.5681 89.7967C15.3852 89.2785 16.2568 88.8074 16.6926 88.8545C16.856 88.8545 16.965 88.9487 16.965 88.9958C17.1829 89.2785 17.2373 89.5611 17.1284 89.8438C17.0194 90.1735 16.7471 90.5504 16.3658 90.8801C16.9105 90.6917 17.4553 90.5975 17.7276 90.7388C17.8366 90.7859 18 90.9272 18 91.1628C18 92.3876 16.2568 92.9529 16.2023 93C16.2568 92.9058 16.2568 92.9058 16.2023 92.9058Z" fill="#26192A"/>
<path d="M33.2568 94.9058C33.1479 94.9058 33.0934 94.8587 33.0389 94.8116C32.9845 94.7174 33.0389 94.6231 33.1479 94.576C33.1479 94.576 34.6732 94.0579 34.6732 93.0686C34.6732 92.9744 34.6187 92.9744 34.6187 92.9272C34.2918 92.7859 33.0934 93.257 32.0039 93.7752C31.5136 94.0579 31.1323 94.1992 31.1323 94.2463C31.0234 94.2934 30.9144 94.2463 30.8599 94.1992C30.8055 94.105 30.8599 94.0107 30.9144 93.9636C31.0778 93.8694 31.4047 93.681 31.786 93.4926C32.5487 93.0686 33.5837 92.3619 33.7471 91.7024C33.8016 91.4669 33.7471 91.2785 33.6381 91.1371C33.3658 91.0429 31.7315 91.9851 30.0973 93.2099C30.0428 93.257 29.8794 93.257 29.8249 93.2099C29.7704 93.1628 29.7704 93.0215 29.8249 92.9744C30.5876 92.3148 31.786 91.0429 31.7315 90.5247C31.7315 90.4305 31.677 90.4305 31.6226 90.3834C31.0233 90.1008 29.3891 91.2314 28.3541 92.1735C28.2996 92.2677 28.1362 92.2677 28.0817 92.1735C27.9728 92.1264 27.9728 91.9851 28.0817 91.938C28.5175 91.514 30.751 89.5355 31.8405 90.1008C32.0039 90.195 32.1128 90.3363 32.1673 90.5247C32.2218 90.8545 31.9494 91.3256 31.5681 91.7967C32.3852 91.2785 33.2568 90.8074 33.6926 90.8545C33.8561 90.8545 33.965 90.9487 33.965 90.9958C34.1829 91.2785 34.2374 91.5611 34.1284 91.8438C34.0195 92.1735 33.7471 92.5504 33.3658 92.8801C33.9105 92.6917 34.4553 92.5975 34.7276 92.7388C34.8366 92.7859 35 92.9272 35 93.1628C35 94.3876 33.2568 94.9529 33.2023 95C33.2568 94.9058 33.2568 94.9058 33.2568 94.9058Z" fill="#26192A"/>
</svg>
