<svg width="900" height="900" viewBox="0 0 900 900" fill="none" xmlns="http://www.w3.org/2000/svg">
<rect width="900" height="900" fill="#161616"/>
<circle cx="449" cy="450" r="25.5" fill="#FBFBFB" stroke="white" stroke-width="5"/>
<path d="M450.272 436.127C449.934 435.79 449.476 435.6 448.999 435.6C448.522 435.6 448.064 435.79 447.726 436.127L435.126 448.727C434.798 449.067 434.617 449.522 434.621 449.994C434.625 450.466 434.815 450.917 435.148 451.251C435.482 451.584 435.933 451.774 436.405 451.778C436.877 451.782 437.332 451.601 437.672 451.273L438.199 450.745V462.6C438.199 463.077 438.389 463.535 438.726 463.873C439.064 464.21 439.522 464.4 439.999 464.4H443.599C444.076 464.4 444.534 464.21 444.872 463.873C445.209 463.535 445.399 463.077 445.399 462.6V459C445.399 458.523 445.589 458.065 445.926 457.727C446.264 457.39 446.722 457.2 447.199 457.2H450.799C451.276 457.2 451.734 457.39 452.072 457.727C452.409 458.065 452.599 458.523 452.599 459V462.6C452.599 463.077 452.789 463.535 453.126 463.873C453.464 464.21 453.922 464.4 454.399 464.4H457.999C458.476 464.4 458.934 464.21 459.272 463.873C459.609 463.535 459.799 463.077 459.799 462.6V450.745L460.326 451.273C460.666 451.601 461.121 451.782 461.592 451.778C462.064 451.774 462.516 451.584 462.85 451.251C463.183 450.917 463.373 450.466 463.377 449.994C463.381 449.522 463.199 449.067 462.872 448.727L450.272 436.127V436.127Z" fill="#003399"/>
</svg>
