<svg width="455" height="309" viewBox="0 0 455 309" fill="none" xmlns="http://www.w3.org/2000/svg">
<path d="M103.51 241.454C52.5439 274.202 34.6557 374.655 31.3579 396.453C30.9581 399.165 28.7596 401.375 26.0613 401.777C20.465 402.581 16.4676 401.074 13.8693 399.467C11.4709 397.96 10.4716 395.047 11.271 392.435C17.0672 372.043 43.5498 271.59 12.0705 220.862C10.1718 217.848 11.6708 213.93 14.9686 212.825C22.6636 210.314 37.5538 207.803 61.7379 213.227C86.0219 218.752 98.5138 227.492 104.31 233.016C106.908 235.528 106.409 239.646 103.51 241.454Z" fill="#FFD53F"/>
<path d="M106.787 239.645C108.588 231.842 88.8882 220.642 62.786 214.63C36.6837 208.617 14.0632 210.069 12.2618 217.872C10.4604 225.675 30.1601 236.874 56.2624 242.887C82.3647 248.899 104.985 247.448 106.787 239.645Z" fill="#CCA606"/>
<path d="M84.3857 233.14C85.3175 229.104 74.9474 223.27 61.2236 220.108C47.4997 216.947 35.6189 217.656 34.6871 221.692C33.7554 225.728 44.1254 231.563 57.8493 234.724C71.5732 237.885 83.4539 237.176 84.3857 233.14Z" fill="#A58707"/>
<path d="M47.793 198.673C47.9949 199.273 48.4997 199.874 49.1054 199.974C49.6102 200.074 50.115 199.874 50.5188 199.574C51.1245 199.173 51.5283 198.472 51.7303 197.772C57.7875 174.947 62.7343 151.02 58.2923 127.395C54.9608 110.176 46.1777 93.7579 31.7412 83.3465C25.9868 79.142 17.9104 74.5369 10.4398 75.0375C3.67585 75.538 -0.463293 81.1442 0.04148 87.7514C0.546253 95.7601 7.41117 102.367 12.156 108.374C19.1219 117.284 25.9868 126.293 31.9431 136.004C36.4861 143.412 40.4233 151.321 43.351 159.53C45.673 165.937 47.2882 172.644 47.9949 179.452C48.3987 182.855 48.4997 186.259 48.3987 189.663C48.3987 191.365 48.1968 193.066 48.0959 194.768C47.9949 195.869 47.5911 197.071 47.6921 198.172C47.6921 198.272 47.793 198.472 47.793 198.673Z" fill="#9F9FFF"/>
<path d="M58 225.791C58 226.59 58.201 227.789 59.1052 227.989C59.8086 228.089 60.311 227.489 60.7129 226.99C62.9234 223.992 64.6315 220.594 66.641 217.496C74.0763 206.404 83.0188 196.311 93.2674 187.718C101.607 180.623 113.463 171.729 110.549 159.138C107.837 147.546 95.1765 146.347 86.9374 153.242C76.7892 161.836 69.8563 176.326 65.3348 188.417C60.8134 200.508 58.8038 212.9 58.1005 225.691C58 225.691 58 225.791 58 225.791Z" fill="#FE8F08"/>
<path d="M84.5086 213.239C83.8072 214.044 83.707 215.757 85.0096 215.958C85.4104 216.059 85.711 215.958 86.1118 215.858C87.6147 215.354 89.0175 214.347 90.4203 213.641C92.0234 212.836 93.6266 212.13 95.2298 211.425C98.4361 210.015 101.743 208.806 105.149 207.9C118.075 204.173 131.902 203.77 144.928 206.892C156.25 209.612 176.29 217.268 182.101 201.352C187.111 187.753 169.977 183.522 160.358 182.515C156.651 182.515 153.044 181.911 149.337 182.011C137.112 182.314 124.888 185.335 113.867 190.674C103.446 195.711 94.328 202.662 86.5126 211.224C85.8112 211.728 85.1098 212.533 84.5086 213.239Z" fill="#9F9FFF"/>
<path d="M73.9149 144.909C74.3284 144.709 74.6386 144.408 74.9487 144.107C78.1536 140.396 79.9112 134.678 81.7721 130.264C83.8398 125.249 85.4939 120.133 86.4244 114.817C87.3548 109.501 88.0785 100.573 80.8416 99.169C72.8811 97.564 72.2608 107.795 72.5709 112.811C73.0878 123.143 76.3961 133.374 72.1574 143.304C71.5371 144.308 72.8811 145.311 73.9149 144.909Z" fill="#80ECEE"/>
<path d="M129.022 176.206C128.82 177.42 130.035 178.534 131.149 177.724C136.314 173.675 143.2 174.788 148.972 171.954C151.909 170.536 155.251 167.398 153.53 163.754C151.808 160.008 147.048 160.818 143.909 161.932C140.77 163.045 137.833 164.867 135.301 167.196C132.972 169.322 131.352 171.954 129.731 174.586C129.529 174.889 129.326 175.193 129.225 175.497C129.124 175.699 129.022 175.902 129.022 176.206Z" fill="#80ECEE"/>
<path d="M15.743 85.7771C29.5543 92.8529 39.6893 105.111 44.0612 119.96C44.558 121.754 47.4395 121.057 46.9427 119.163C42.372 103.516 31.6409 90.5608 17.2335 83.186C15.5443 82.289 14.0539 84.8802 15.743 85.7771Z" fill="white"/>
<path d="M88.2669 157.363C80.3568 164.145 74.6039 172.445 71.1111 182.163C70.392 183.985 73.3712 184.795 74.0903 182.973C77.4803 173.761 83.0277 165.866 90.527 159.488C91.9652 158.274 89.8079 156.148 88.2669 157.363Z" fill="white"/>
<path d="M172.249 192.028C166.803 188.345 160.55 187.188 154.096 188.556C152.179 188.977 152.986 192.028 154.902 191.607C160.449 190.45 165.895 191.607 170.635 194.763C172.451 195.816 173.963 193.08 172.249 192.028Z" fill="white"/>
<path d="M80.1797 106.229C80.4441 106.97 80.4441 107.818 80.1797 108.559C79.9153 109.301 80.0034 110.254 80.6204 110.784C81.1492 111.208 82.1187 110.996 82.4712 110.254C83.1763 108.453 83.1763 106.547 82.4712 104.746C82.2068 104.004 81.2373 103.792 80.6204 104.216C80.0034 104.534 79.8271 105.381 80.1797 106.229Z" fill="white"/>
<path d="M145.421 166.756C146.27 166.215 147.119 166.106 148.074 166.431C149.984 167.081 150.833 163.94 148.923 163.29C147.225 162.749 145.315 162.965 143.723 163.94C142.025 165.023 143.617 167.84 145.421 166.756Z" fill="white"/>
<path d="M135.77 131.851C130.787 126.307 122.515 126.811 118.23 132.96C117.433 134.069 119.027 136.891 118.23 138C122.515 131.851 130.787 131.347 135.77 136.891C134.973 135.984 136.567 132.758 135.77 131.851Z" fill="#FFD53F"/>
<path d="M10.7295 163.903C11.9784 164.823 12.811 166.048 13.4354 167.479C13.6436 167.989 14.1639 170.339 13.8517 167.887C13.5395 165.742 13.6436 167.683 13.1232 168.602C11.7703 171.258 8.96029 172.688 6.04625 172.892C5.94218 172.892 6.04625 178 6.04625 178C10.8336 177.796 13.8517 174.323 13.9558 169.828C14.0599 165.844 14.268 161.86 10.7295 159C11.5621 159.511 9.89695 163.29 10.7295 163.903Z" fill="white"/>
<path d="M143.581 236.862C144.443 239.938 143.676 235.572 143.868 235.672C143.964 235.672 143.485 237.259 143.389 237.557C142.91 238.847 142.143 240.038 141.185 240.931C139.173 242.717 136.586 243.312 134.094 242.915C134.286 242.915 133.807 247.778 134.094 247.877C138.215 248.572 142.431 246.289 143.581 241.923C143.964 240.435 143.964 238.847 143.964 237.259C143.964 235.473 144.06 233.687 143.581 232C144.06 233.389 143.197 235.374 143.581 236.862Z" fill="#FFD53F"/>
<path d="M194.264 145.86C194.368 146.346 194.471 146.735 194.574 147.221C194.677 145.082 194.677 144.499 194.471 145.471C194.161 146.152 194.058 146.832 193.852 147.512C193.233 148.873 192.201 150.234 190.963 151.109C188.177 153.15 184.566 153.636 181.161 152.664C181.573 152.761 180.645 157.329 181.161 157.524C186.423 159.079 192.201 156.746 194.161 151.692C195.296 148.581 195.193 144.11 194.368 141C194.677 142.555 193.852 144.305 194.264 145.86Z" fill="white"/>
<path d="M73.7729 58C70.6255 61.9252 65.9045 63.7368 61.0852 62.7304C61.3802 62.831 60.7901 67.6621 61.0852 67.7627C65.9045 68.6685 70.7239 66.9575 73.7729 63.0323C74.5597 61.9252 72.986 59.0065 73.7729 58Z" fill="white"/>
<path d="M350.466 241.454C401.446 274.202 419.338 374.655 422.637 396.453C423.037 399.165 425.236 401.375 427.935 401.777C433.533 402.581 437.531 401.074 440.13 399.467C442.529 397.96 443.529 395.047 442.729 392.435C436.931 372.143 410.442 271.59 441.829 220.862C443.728 217.848 442.229 213.93 438.93 212.825C431.234 210.314 416.34 207.803 392.149 213.227C367.759 218.752 355.364 227.492 349.567 233.016C347.168 235.528 347.568 239.646 350.466 241.454Z" fill="#FFD53F"/>
<path d="M398.8 241.342C424.899 235.317 444.592 224.108 442.785 216.306C440.979 208.504 418.356 207.064 392.257 213.09C366.158 219.115 346.465 230.324 348.272 238.126C350.078 245.928 372.701 247.368 398.8 241.342Z" fill="#CCA606"/>
<path d="M397.231 233.877C410.953 230.709 421.32 224.869 420.385 220.834C419.45 216.799 407.569 216.096 393.846 219.264C380.124 222.432 369.758 228.271 370.692 232.307C371.627 236.342 383.508 237.045 397.231 233.877Z" fill="#A58707"/>
<path d="M407.358 198.172C407.459 197.071 407.056 195.869 406.955 194.768C406.753 193.066 406.652 191.365 406.652 189.663C406.551 186.259 406.753 182.855 407.056 179.452C407.762 172.644 409.477 166.037 411.696 159.53C414.621 151.321 418.556 143.512 423.095 136.004C429.047 126.394 435.906 117.284 442.867 108.374C447.608 102.367 454.468 95.7601 454.972 87.7514C455.376 81.2443 451.341 75.538 444.582 75.0375C437.117 74.5369 429.148 79.142 423.297 83.3466C408.77 93.8581 400.095 110.176 396.766 127.395C392.227 151.02 397.17 174.947 403.323 197.772C403.525 198.472 403.928 199.173 404.534 199.573C404.937 199.874 405.441 200.074 405.946 199.974C406.551 199.874 407.056 199.273 407.257 198.673C407.257 198.572 407.358 198.372 407.358 198.172Z" fill="#9F9FFF"/>
<path d="M397.876 225.691C397.174 212.9 395.066 200.508 390.649 188.417C386.132 176.226 379.206 161.736 369.068 153.242C360.837 146.347 348.189 147.546 345.479 159.138C342.468 171.729 354.312 180.723 362.744 187.718C372.983 196.311 381.916 206.404 389.344 217.496C391.452 220.594 393.159 223.992 395.267 226.99C395.668 227.489 396.17 228.089 396.873 227.989C397.876 227.889 398.077 226.59 397.977 225.791C397.876 225.791 397.876 225.691 397.876 225.691Z" fill="#FE8F08"/>
<path d="M368.454 211.224C360.642 202.762 351.527 195.711 341.11 190.674C330.092 185.336 317.872 182.314 305.652 182.011C301.946 181.911 298.24 182.515 294.634 182.515C285.018 183.623 267.89 187.753 272.898 201.352C278.708 217.167 298.841 209.511 310.059 206.892C323.18 203.77 336.903 204.173 349.824 207.9C353.229 208.907 356.535 210.015 359.74 211.425C361.343 212.13 362.945 212.836 364.548 213.641C365.95 214.347 367.353 215.455 368.855 215.858C369.155 215.958 369.556 216.059 369.957 215.958C371.359 215.757 371.159 214.044 370.458 213.238C369.756 212.735 369.155 211.929 368.454 211.224Z" fill="#9F9FFF"/>
<path d="M381.893 143.264C377.828 133.342 380.925 123.12 381.506 112.798C381.796 107.787 381.118 97.5653 373.764 99.1688C366.991 100.572 367.668 109.491 368.539 114.803C369.41 120.114 370.958 125.225 372.893 130.236C374.635 134.746 376.183 140.358 379.28 144.066C379.57 144.366 379.861 144.767 380.248 144.867C381.118 145.368 382.376 144.366 381.893 143.264Z" fill="#80ECEE"/>
<path d="M331.775 175.461C331.673 175.158 331.471 174.855 331.268 174.552C329.645 171.927 327.921 169.301 325.689 167.18C323.154 164.959 320.314 163.141 317.069 161.929C314.026 160.818 309.158 160.011 307.434 163.747C305.811 167.382 309.056 170.513 311.998 171.927C317.677 174.754 324.675 173.542 329.848 177.683C330.963 178.592 332.181 177.38 331.978 176.168C331.978 175.865 331.876 175.663 331.775 175.461Z" fill="#80ECEE"/>
<path d="M437.707 83.186C423.329 90.5608 412.62 103.616 408.059 119.163C407.563 121.057 410.34 121.754 410.935 119.96C415.297 105.011 425.411 92.8529 439.194 85.7771C440.979 84.8802 439.492 82.289 437.707 83.186Z" fill="white"/>
<path d="M365.514 159.535C372.998 165.9 378.533 173.781 381.916 182.975C382.634 184.794 385.607 183.985 384.889 182.167C381.301 172.568 375.56 164.183 367.77 157.413C366.232 156.1 363.977 158.222 365.514 159.535Z" fill="white"/>
<path d="M284.252 194.761C289.022 191.577 294.503 190.409 300.085 191.577C302.014 192.001 302.826 188.923 300.897 188.498C294.503 187.225 288.21 188.392 282.628 192.001C281.106 193.063 282.628 195.823 284.252 194.761Z" fill="white"/>
<path d="M372.525 104.865C371.825 106.632 371.825 108.502 372.525 110.269C372.788 110.996 373.75 111.204 374.363 110.788C375.063 110.372 375.15 109.437 374.8 108.606C374.538 107.879 374.538 107.047 374.8 106.32C375.063 105.592 374.975 104.657 374.363 104.138C373.75 103.826 372.875 104.034 372.525 104.865Z" fill="white"/>
<path d="M317.562 165.466C315.971 164.205 314.168 163.785 312.154 164.1C311.305 164.31 310.775 165.255 311.093 165.991C311.305 166.831 312.154 167.251 313.002 167.041C313.744 166.936 314.699 167.041 315.335 167.566C315.971 168.091 316.925 168.196 317.562 167.566C318.092 167.146 318.198 165.991 317.562 165.466Z" fill="white"/>
<path d="M319.269 136.891C324.241 131.347 332.495 131.851 336.77 138C335.975 136.891 337.566 134.069 336.77 132.96C332.495 126.811 324.241 126.307 319.269 131.851C318.374 132.758 320.065 135.984 319.269 136.891Z" fill="#FFD53F"/>
<path d="M444.27 157C440.732 159.758 440.94 163.742 441.044 167.828C441.148 172.323 444.27 175.898 448.954 176C448.954 176 449.058 170.892 448.954 170.892C446.04 170.79 443.23 169.258 441.877 166.602C441.773 166.296 441.461 164.968 441.252 164.866C441.044 167.113 441.044 167.726 441.252 166.602C441.356 166.194 441.46 165.887 441.565 165.478C442.085 164.048 443.022 162.925 444.27 161.903C445.207 161.495 443.542 157.715 444.27 157Z" fill="white"/>
<path d="M309.392 232C308.912 233.687 309.008 235.275 309.008 236.963C309.008 238.65 308.912 240.337 309.392 241.925C310.545 246.193 314.773 248.575 318.905 247.881C319.194 247.781 318.713 242.918 318.905 242.918C316.311 243.414 313.716 242.719 311.795 240.933C310.834 240.04 310.161 239.047 309.681 237.856C309.488 237.26 309.392 236.665 309.2 236.069C309.008 234.978 309.008 235.672 309.2 238.154C309.296 237.757 309.392 237.36 309.488 236.963C309.873 235.474 309.008 233.489 309.392 232Z" fill="#FFD53F"/>
<path d="M260.632 141C259.807 144.11 259.704 148.679 260.839 151.692C262.696 156.746 268.474 159.079 273.839 157.524C274.355 157.329 273.427 152.761 273.839 152.664C270.538 153.636 266.823 153.247 264.037 151.109C262.902 150.234 261.871 149.067 261.252 147.804C260.942 147.123 260.839 146.443 260.529 145.86C260.323 144.499 260.22 144.985 260.323 147.221C260.426 146.735 260.529 146.346 260.632 145.86C260.942 144.305 260.22 142.555 260.632 141Z" fill="white"/>
<path d="M380.266 63.0141C383.403 66.925 388.11 68.7301 392.915 67.7273C393.209 67.627 392.621 62.8135 392.915 62.7132C388.11 63.6157 383.305 61.911 380.266 58C381.05 59.0028 379.383 61.911 380.266 63.0141Z" fill="#FFD53F"/>
<path d="M11.2013 16C15.9841 13.1175 21.4643 12.3969 26.8449 13.9411C26.4463 13.8381 27.3431 8.89672 26.8449 8.79377C21.4643 7.24958 16.0837 7.9702 11.2013 10.8527C10.5039 11.2645 11.8988 15.5882 11.2013 16Z" fill="#FFD53F"/>
<path d="M128.15 83C129.695 88.9 132.205 94.2 135.777 99C135.005 98 136.549 95.1 135.777 94C132.205 89.2 129.598 83.8 128.15 78C128.536 79.5 127.668 81.4 128.15 83Z" fill="#FFD53F"/>
<path d="M296.758 94C291.447 97.0357 286.939 100.982 283.231 105.94C282.43 107.054 284.033 109.988 283.231 111C286.939 106.143 291.447 102.095 296.758 99.0595C297.559 98.6548 296.056 94.4048 296.758 94Z" fill="white"/>
<path d="M208.23 111.12C211.922 116.036 216.511 120.03 221.798 123C221.1 122.59 222.497 118.289 221.798 117.88C216.511 114.91 211.922 110.916 208.23 106C209.029 107.024 207.432 109.994 208.23 111.12Z" fill="#FFD53F"/>
<path d="M449.92 0C448.168 8.02846 443.837 14.8374 437.238 19.9187C436.413 20.5285 438.063 24.3902 437.238 25C443.837 20.0203 448.168 13.1098 449.92 5.0813C450.23 3.45529 449.508 1.52439 449.92 0Z" fill="white"/>
</svg>
