<svg width="72" height="72" viewBox="0 0 72 72" fill="none" xmlns="http://www.w3.org/2000/svg">
<path d="M1.37818 36.8914L27.5837 62L33.1481 58.6448C33.5269 58.4259 33.7582 58.0186 33.7526 57.58V46.6971L65.831 49.619L71.3953 46.2638C71.7742 46.045 72.0054 45.6377 71.9999 45.199V26.8009C72.0054 26.3623 71.7742 25.955 71.3953 25.7362L65.831 22.381L33.7526 25.3029V14.42C33.7582 13.9814 33.5269 13.5741 33.1481 13.3552L27.5837 10L1.37818 35.1086C1.13691 35.3419 1.00062 35.6637 1.00062 36C1.00062 36.3363 1.13691 36.6581 1.37818 36.8914Z" fill="#01D8DC"/>
<path d="M28 62L28 47.2524C27.9975 46.8987 28.1388 46.5607 28.3885 46.3229C28.6381 46.0852 28.9725 45.9701 29.308 46.0067L33.9999 46.4471V57.5078C34.0053 57.9535 33.7804 58.3675 33.4119 58.5899L28 62Z" fill="#016C6E"/>
<path d="M28 24.7476L28 10L33.4119 13.4101C33.7804 13.6325 34.0053 14.0465 33.9999 14.4922V25.5529L29.308 25.9933C28.9725 26.0299 28.6381 25.9148 28.3885 25.6771C28.1388 25.4393 27.9975 25.1013 28 24.7476Z" fill="#016C6E"/>
<path d="M66 50V23L71.4119 26.3259C71.7804 26.5428 72.0053 26.9466 71.9999 27.3814V45.6186C72.0053 46.0534 71.7804 46.4572 71.4119 46.6741L66 50Z" fill="#016C6E"/>
<path d="M30.2437 40.0193C31.8846 40.0193 24.5481 39.8201 49.8236 40.702C50.4961 40.7251 51.0219 41.257 50.9993 41.8912C50.9905 42.1975 50.8513 42.4875 50.6131 42.6958C50.3749 42.9042 50.0577 43.0134 49.7332 42.9987L30.1985 42.3172C29.5243 42.3054 28.9877 41.7804 29.0002 41.1446C29.0127 40.5088 29.5694 40.0029 30.2437 40.0147V40.0193Z" fill="#80ECEE"/>
<path d="M54.3061 40.0069C54.819 40.0069 52.4931 39.9343 60.7644 40.2601C61.1045 40.2733 61.4258 40.4303 61.6574 40.6966C61.889 40.9629 62.0119 41.3165 61.9991 41.6797C61.993 42.0451 61.8478 42.3921 61.597 42.6408C61.3461 42.8895 61.0113 43.0184 60.6695 42.9979L54.2587 42.7433C53.8006 42.7342 53.3818 42.465 53.1601 42.0369C52.9384 41.6088 52.9475 41.087 53.1839 40.668C53.4202 40.249 53.848 39.9965 54.3061 40.0055V40.0069Z" fill="#80ECEE"/>
</svg>
