<svg width="900" height="900" viewBox="0 0 900 900" fill="none" xmlns="http://www.w3.org/2000/svg">
<rect width="900" height="900" fill="#EFEFEF"/>
<path d="M350.735 359.502C350.628 359.502 350.52 359.502 350.52 359.394C350.412 359.287 350.305 359.071 350.412 358.964L355.904 346.582L348.582 340.014C348.474 339.906 348.367 339.691 348.474 339.583C348.582 339.475 348.69 339.368 348.905 339.368L358.595 340.444L362.149 332.261C362.256 332.154 362.364 332.046 362.579 332.046C362.795 332.046 362.902 332.154 362.902 332.369L365.056 341.198L377.115 342.49C377.33 342.49 377.438 342.598 377.438 342.813C377.438 343.028 377.438 343.136 377.223 343.244L366.994 349.489L368.932 357.456C368.932 357.672 368.932 357.779 368.717 357.887C368.609 357.995 368.394 357.995 368.286 357.887L362.256 352.396L350.843 359.394C350.843 359.502 350.735 359.502 350.735 359.502ZM356.442 347.12L351.597 358.102L361.718 351.857L356.442 347.12ZM363.01 351.965L367.963 356.38L366.348 349.919L363.01 351.965ZM356.765 346.366L362.364 351.427L366.132 349.058L364.41 341.844L359.026 341.306L356.765 346.366ZM365.271 341.952L366.886 348.627L375.823 343.136L365.271 341.952ZM349.982 340.337L356.119 345.828L358.165 341.198L349.982 340.337ZM359.349 340.552L364.194 341.09L362.364 333.769L359.349 340.552Z" fill="#26192A"/>
<path d="M390.793 502.167C390.685 502.167 390.47 502.059 390.47 501.952C386.917 493.769 368.289 493.123 362.69 493.123C361.398 493.123 360.645 493.123 360.645 493.123C360.429 493.123 360.322 493.015 360.214 492.8C357.738 484.509 333.619 482.786 333.404 482.786C333.296 482.786 333.188 482.679 333.081 482.571C332.973 482.463 332.973 482.355 333.081 482.248L346.755 448.87C346.863 448.762 346.97 448.654 347.078 448.654C356.768 448.331 363.013 452.207 366.567 455.33C369.581 458.022 371.089 460.714 371.627 461.683C374.642 460.067 378.087 459.314 381.641 459.314C393.377 459.314 403.929 468.143 404.036 468.251C404.144 468.358 404.252 468.574 404.144 468.681L391.331 501.952C391.008 502.059 390.9 502.167 390.793 502.167ZM362.583 492.261C369.689 492.261 386.27 493.123 390.685 500.767L403.067 468.681C401.452 467.389 391.977 460.175 381.425 460.175C377.872 460.175 374.534 461.037 371.412 462.652C371.304 462.759 371.196 462.759 371.089 462.652C370.981 462.652 370.873 462.544 370.873 462.436C370.766 462.329 364.844 449.408 347.939 449.408C347.724 449.408 347.509 449.408 347.186 449.408L333.834 482.032C337.603 482.355 357.845 484.401 360.752 492.261C361.075 492.261 361.721 492.261 362.583 492.261Z" fill="#26192A"/>
<path d="M360.533 493.123H360.426C360.21 493.015 360.103 492.8 360.21 492.584L370.977 462.113C371.085 461.898 371.3 461.79 371.516 461.898C371.731 462.006 371.839 462.221 371.731 462.436L360.964 492.907C360.856 493.015 360.641 493.123 360.533 493.123Z" fill="#26192A"/>
<path d="M390.79 502.167C390.682 502.167 390.575 502.167 390.575 502.06C390.467 501.952 381.638 495.707 360.534 493.123H360.427C360.319 493.015 346.429 485.37 333.401 482.894C333.186 482.894 333.078 482.679 333.078 482.463C333.078 482.248 333.293 482.14 333.509 482.14C346.214 484.617 359.673 491.831 360.75 492.477C382.069 495.061 390.79 501.306 391.113 501.629C391.328 501.737 391.328 502.06 391.221 502.167C391.005 502.06 390.898 502.167 390.79 502.167Z" fill="#26192A"/>
<path d="M399.086 472.234C398.978 472.234 398.87 472.234 398.763 472.127C398.655 472.019 389.718 462.975 373.567 465.667C373.352 465.667 373.137 465.559 373.137 465.344C373.137 465.128 373.244 464.913 373.46 464.913C382.181 463.513 388.749 465.344 392.733 467.174C397.04 469.22 399.301 471.481 399.409 471.588C399.516 471.696 399.516 472.019 399.409 472.127C399.193 472.234 399.193 472.234 399.086 472.234Z" fill="#26192A"/>
<path d="M396.82 475.788C396.712 475.788 396.605 475.788 396.497 475.68C396.389 475.572 387.453 466.528 371.302 469.22C371.086 469.22 370.871 469.112 370.871 468.897C370.871 468.681 370.979 468.466 371.194 468.466C379.916 467.066 386.483 468.897 390.467 470.727C394.774 472.773 397.035 475.034 397.143 475.142C397.251 475.249 397.251 475.572 397.143 475.68C397.035 475.788 396.928 475.788 396.82 475.788Z" fill="#26192A"/>
<path d="M396.175 480.202C396.068 480.202 395.96 480.202 395.852 480.095C395.745 479.987 386.808 470.942 370.657 473.634C370.442 473.634 370.227 473.527 370.227 473.311C370.227 473.096 370.334 472.881 370.55 472.881C379.271 471.481 385.839 473.311 389.823 475.142C394.13 477.187 396.391 479.448 396.498 479.556C396.606 479.664 396.606 479.987 396.498 480.095C396.391 480.202 396.283 480.202 396.175 480.202Z" fill="#26192A"/>
<path d="M394.562 484.401C394.454 484.401 394.347 484.401 394.239 484.294C394.131 484.186 385.195 475.142 369.044 477.833C368.829 477.833 368.613 477.726 368.613 477.51C368.613 477.295 368.721 477.08 368.936 477.08C377.658 475.68 384.226 477.51 388.21 479.341C392.516 481.387 394.777 483.648 394.885 483.755C394.993 483.863 394.993 484.186 394.885 484.294C394.777 484.401 394.67 484.401 394.562 484.401Z" fill="#26192A"/>
<path d="M392.621 489.785C392.513 489.785 392.405 489.785 392.298 489.677C392.19 489.57 383.253 480.525 367.103 483.217C366.887 483.217 366.672 483.109 366.672 482.894C366.672 482.679 366.78 482.463 366.995 482.463C375.716 481.064 382.284 482.894 386.268 484.724C390.575 486.77 392.836 489.031 392.944 489.139C393.051 489.247 393.051 489.57 392.944 489.677C392.836 489.785 392.728 489.785 392.621 489.785Z" fill="#26192A"/>
<path d="M390.793 494.738C390.685 494.738 390.577 494.738 390.47 494.63C390.362 494.522 381.425 485.478 365.274 488.17C365.059 488.17 364.844 488.062 364.844 487.847C364.844 487.631 364.951 487.416 365.167 487.416C373.888 486.016 380.456 487.847 384.44 489.677C388.747 491.723 391.008 493.984 391.116 494.092C391.223 494.199 391.223 494.522 391.116 494.63C390.9 494.63 390.793 494.738 390.793 494.738Z" fill="#26192A"/>
<path d="M367.968 463.836C367.86 463.836 367.645 463.728 367.645 463.621C367.537 463.513 360.861 452.531 348.587 454.792C348.372 454.792 348.156 454.684 348.156 454.469C348.156 454.253 348.264 454.038 348.479 454.038C361.292 451.669 368.291 463.082 368.398 463.19C368.506 463.405 368.399 463.621 368.291 463.728C368.075 463.836 367.968 463.836 367.968 463.836Z" fill="#26192A"/>
<path d="M365.811 467.712C365.703 467.712 365.595 467.605 365.488 467.497C365.38 467.389 358.166 456.837 345.999 459.745C345.784 459.745 345.569 459.637 345.461 459.421C345.461 459.206 345.569 458.991 345.784 458.883C358.489 455.868 366.134 466.851 366.134 466.959C366.242 467.174 366.242 467.389 366.026 467.497C365.919 467.712 365.919 467.712 365.811 467.712Z" fill="#26192A"/>
<path d="M365.166 471.911C365.059 471.911 364.951 471.804 364.843 471.696C364.736 471.588 357.522 461.037 345.355 463.944C345.139 463.944 344.924 463.836 344.816 463.621C344.816 463.405 344.924 463.19 345.139 463.082C357.845 460.068 365.489 471.05 365.489 471.158C365.597 471.373 365.597 471.588 365.382 471.696C365.274 471.911 365.166 471.911 365.166 471.911Z" fill="#26192A"/>
<path d="M362.909 476.434C362.801 476.434 362.693 476.326 362.586 476.218C362.478 476.111 355.264 465.559 343.097 468.466C342.882 468.466 342.666 468.358 342.559 468.143C342.559 467.928 342.666 467.712 342.882 467.605C355.587 464.59 363.232 475.572 363.232 475.68C363.339 475.895 363.339 476.111 363.124 476.218C363.016 476.434 362.909 476.434 362.909 476.434Z" fill="#26192A"/>
<path d="M360.539 480.848C360.431 480.848 360.324 480.848 360.216 480.741C360.108 480.633 352.248 470.727 340.081 473.634C339.866 473.634 339.651 473.527 339.543 473.311C339.543 473.096 339.651 472.881 339.866 472.773C352.571 469.758 360.754 479.987 360.862 480.095C360.97 480.31 360.97 480.525 360.754 480.633C360.647 480.848 360.539 480.848 360.539 480.848Z" fill="#26192A"/>
<path d="M358.924 485.801C358.816 485.801 358.709 485.693 358.601 485.586C358.493 485.478 351.279 475.895 339.113 478.803C338.897 478.803 338.682 478.695 338.574 478.479C338.574 478.264 338.682 478.049 338.897 477.941C351.602 474.926 359.139 484.94 359.247 485.047C359.355 485.263 359.355 485.478 359.139 485.586C359.139 485.801 359.032 485.801 358.924 485.801Z" fill="#26192A"/>
<path d="M549.61 376.084C549.394 376.084 549.287 375.976 549.179 375.761L545.841 363.055C545.733 362.84 545.949 362.625 546.164 362.517C546.38 362.409 546.595 362.625 546.703 362.84L550.04 375.545C550.04 375.761 549.933 375.976 549.61 376.084Z" fill="#26192A"/>
<path d="M540.998 371.238C540.783 371.238 540.675 371.131 540.568 370.915C540.46 370.7 540.675 370.485 540.891 370.377L552.842 366.932C553.058 366.824 553.273 367.039 553.381 367.255C553.488 367.47 553.273 367.685 553.058 367.793L541.106 371.238C541.106 371.238 541.106 371.238 540.998 371.238Z" fill="#26192A"/>
<path d="M552.948 372.531C552.841 372.531 552.841 372.531 552.733 372.423L542.612 365.747C542.397 365.64 542.397 365.424 542.504 365.209C542.612 364.994 542.827 364.994 543.043 365.101L553.164 371.777C553.379 371.885 553.379 372.1 553.271 372.315C553.271 372.423 553.056 372.531 552.948 372.531Z" fill="#26192A"/>
<path d="M544.769 374.469C544.661 374.469 544.661 374.469 544.553 374.469C544.338 374.361 544.338 374.146 544.446 373.93L550.475 363.163C550.583 362.948 550.798 362.948 551.014 363.055C551.229 363.163 551.229 363.378 551.121 363.594L545.092 374.361C544.984 374.361 544.876 374.469 544.769 374.469Z" fill="#26192A"/>
<path d="M526.778 553.203C526.562 553.203 526.455 553.095 526.347 552.88L523.009 540.175C522.901 539.959 523.117 539.744 523.332 539.636C523.547 539.529 523.763 539.744 523.87 539.959L527.208 552.665C527.208 552.88 527.101 553.095 526.778 553.203Z" fill="#26192A"/>
<path d="M518.166 548.358C517.951 548.358 517.843 548.25 517.736 548.035C517.628 547.819 517.843 547.604 518.059 547.496L530.01 544.051C530.226 543.943 530.441 544.159 530.549 544.374C530.656 544.589 530.441 544.805 530.226 544.912L518.274 548.358C518.274 548.358 518.274 548.358 518.166 548.358Z" fill="#26192A"/>
<path d="M530.116 549.65C530.009 549.65 530.009 549.65 529.901 549.542L519.78 542.867C519.565 542.759 519.565 542.544 519.672 542.328C519.78 542.113 519.995 542.113 520.211 542.221L530.332 548.896C530.547 549.004 530.547 549.219 530.439 549.434C530.332 549.65 530.224 549.65 530.116 549.65Z" fill="#26192A"/>
<path d="M521.937 551.696C521.829 551.696 521.829 551.696 521.721 551.696C521.506 551.588 521.506 551.373 521.614 551.157L527.643 540.39C527.751 540.175 527.966 540.175 528.182 540.282C528.397 540.39 528.397 540.605 528.289 540.821L522.26 551.588C522.152 551.588 522.044 551.696 521.937 551.696Z" fill="#26192A"/>
<path d="M372.914 444.563C372.699 444.563 372.591 444.455 372.484 444.24L369.146 431.534C369.038 431.319 369.253 431.104 369.469 430.996C369.684 430.888 369.9 431.104 370.007 431.319L373.345 444.024C373.453 444.347 373.237 444.563 372.914 444.563C373.022 444.563 373.022 444.563 372.914 444.563Z" fill="#26192A"/>
<path d="M364.412 439.825C364.197 439.825 364.089 439.717 363.982 439.502C363.874 439.287 364.089 439.071 364.305 438.964L376.256 435.518C376.472 435.41 376.687 435.626 376.795 435.841C376.902 436.056 376.687 436.272 376.472 436.379L364.52 439.825C364.52 439.825 364.52 439.825 364.412 439.825Z" fill="#26192A"/>
<path d="M376.363 441.117C376.255 441.117 376.255 441.117 376.147 441.009L366.026 434.334C365.811 434.226 365.811 434.011 365.918 433.795C366.026 433.58 366.241 433.58 366.457 433.688L376.578 440.363C376.793 440.471 376.793 440.686 376.686 440.902C376.578 441.009 376.47 441.117 376.363 441.117Z" fill="#26192A"/>
<path d="M368.077 443.055C367.97 443.055 367.97 443.055 367.862 443.055C367.647 442.948 367.647 442.732 367.754 442.517L373.784 431.75C373.892 431.534 374.107 431.534 374.322 431.642C374.538 431.75 374.538 431.965 374.43 432.18L368.4 442.948C368.4 442.948 368.293 443.055 368.077 443.055Z" fill="#26192A"/>
<path d="M551.88 430.027C551.773 430.027 551.665 430.027 551.557 429.919L544.128 422.705C544.02 422.598 544.02 422.382 544.02 422.275L551.557 403.648L538.96 421.198C538.852 421.306 538.744 421.306 538.637 421.413L530.561 422.275C530.346 422.275 530.238 422.167 530.131 422.059C530.023 421.952 530.131 421.736 530.238 421.629L552.849 400.525L553.603 399.879C553.711 399.771 553.926 399.771 554.034 399.771C554.141 399.879 554.249 399.987 554.249 400.202L552.203 429.812C552.203 429.919 552.096 430.135 551.988 430.135C551.88 430.027 551.88 430.027 551.88 430.027ZM544.882 422.275L551.449 428.735L553.388 401.171L544.882 422.275ZM550.48 403.755L531.746 421.306L538.421 420.552L550.48 403.755Z" fill="#26192A"/>
<path d="M544.234 431.75C544.126 431.75 543.911 431.642 543.911 431.534L538.312 421.198C538.204 420.983 538.312 420.767 538.527 420.66C538.742 420.552 538.958 420.66 539.065 420.875L543.911 429.919L544.126 422.598C544.126 422.382 544.341 422.167 544.557 422.167C544.772 422.167 544.987 422.382 544.987 422.598L544.772 431.534C544.664 431.534 544.557 431.642 544.234 431.75C544.234 431.75 544.341 431.75 544.234 431.75Z" fill="#26192A"/>
<path d="M544.24 431.75H544.133C543.917 431.642 543.81 431.427 543.917 431.211L546.717 424.859C546.824 424.643 547.04 424.536 547.255 424.643C547.47 424.751 547.578 424.966 547.47 425.182L544.671 431.534C544.563 431.642 544.456 431.75 544.24 431.75Z" fill="#26192A"/>
<path d="M442.261 436.487C442.261 436.487 421.696 442.301 416.743 440.902C411.682 439.502 410.928 414.414 398.008 420.121C385.087 425.935 390.686 454.253 404.576 462.328C418.465 470.404 445.276 453.391 445.276 453.391L442.261 436.487Z" fill="#FCB82E"/>
<path d="M475.313 417.968C475.313 417.968 497.063 404.509 521.612 428.627C546.269 452.746 525.919 479.663 507.83 482.894C507.83 482.786 466.807 447.9 475.313 417.968Z" fill="#F58A28"/>
<path d="M475.308 417.968C475.308 417.968 534.527 439.717 497.811 518.748L440.745 520.363C440.745 520.363 417.273 472.342 451.081 420.336L475.308 417.968Z" fill="#FCB82E"/>
<path d="M444.093 498.291C444.093 498.291 425.681 526.716 444.093 561.278H460.567C460.567 561.278 460.244 531.776 466.381 511.965L444.093 498.291Z" fill="#FCB82E"/>
<path d="M478.437 498.291C478.437 498.291 460.025 526.716 478.437 561.278H494.911C494.911 561.278 494.588 531.776 500.725 511.965L478.437 498.291Z" fill="#FCB82E"/>
<path d="M500.51 495.06C500.51 495.06 501.802 526.393 519.568 526.285C537.334 526.177 516.553 488.923 533.134 487.416C540.348 486.77 542.609 495.06 534.642 497.214C531.196 498.183 542.179 524.993 524.521 532.099C506.862 539.206 492.973 523.593 493.511 504.105C494.05 484.616 500.51 495.06 500.51 495.06Z" fill="#FCB82E"/>
<path d="M481.352 497.429C481.352 497.429 488.673 450.7 467.139 445.962C445.605 441.225 435.914 486.016 450.127 502.598C464.232 519.071 479.198 508.412 481.352 497.429Z" fill="#FFFAF0"/>
<path d="M438.81 529.515C438.594 529.515 438.379 529.3 438.379 529.085C438.379 528.762 438.594 525.962 439.24 525.101C439.348 524.885 439.671 524.885 439.779 524.993C439.994 525.101 439.994 525.424 439.886 525.531C439.456 526.07 439.24 528.008 439.133 529.085C439.24 529.3 439.025 529.515 438.81 529.515Z" fill="#26192A"/>
<path d="M441.505 532.746C441.29 532.746 441.074 532.53 441.074 532.315C441.074 531.992 441.29 529.192 441.936 528.331C442.043 528.116 442.366 528.116 442.474 528.223C442.689 528.331 442.689 528.654 442.582 528.762C442.151 529.3 441.936 531.238 441.828 532.315C441.936 532.53 441.72 532.746 441.505 532.746Z" fill="#26192A"/>
<path d="M439.561 537.052C439.345 537.052 439.238 536.945 439.13 536.729C439.022 536.406 438.484 533.607 438.915 532.638C439.022 532.422 439.238 532.315 439.453 532.422C439.668 532.53 439.776 532.746 439.668 532.961C439.453 533.499 439.668 535.545 439.884 536.622C439.991 536.837 439.884 537.052 439.561 537.052C439.561 537.052 439.668 537.052 439.561 537.052Z" fill="#26192A"/>
<path d="M443.225 540.175C443.009 540.175 442.902 540.067 442.794 539.852C442.686 539.529 442.148 536.729 442.579 535.76C442.686 535.545 442.902 535.437 443.117 535.545C443.332 535.653 443.44 535.868 443.332 536.083C443.117 536.622 443.332 538.668 443.548 539.744C443.655 539.96 443.548 540.175 443.225 540.175Z" fill="#26192A"/>
<path d="M440.108 544.051C439.892 544.051 439.784 543.943 439.677 543.728C439.569 543.405 439.031 540.605 439.461 539.636C439.569 539.421 439.784 539.313 440 539.421C440.215 539.529 440.323 539.744 440.215 539.959C440 540.498 440.215 542.544 440.431 543.62C440.538 543.836 440.323 544.051 440.108 544.051Z" fill="#26192A"/>
<path d="M443.225 546.851C443.009 546.851 442.902 546.743 442.794 546.528C442.686 546.205 442.148 543.405 442.579 542.436C442.686 542.221 442.902 542.113 443.117 542.221C443.332 542.328 443.44 542.544 443.332 542.759C443.117 543.297 443.332 545.343 443.548 546.42C443.655 546.635 443.548 546.851 443.225 546.851Z" fill="#26192A"/>
<path d="M442.473 551.265C442.365 551.265 442.15 551.157 442.15 551.05C442.042 550.727 440.858 548.142 441.073 547.066C441.073 546.85 441.288 546.743 441.504 546.743C441.719 546.743 441.827 546.958 441.827 547.173C441.719 547.819 442.365 549.65 442.796 550.619C442.903 550.834 442.796 551.05 442.58 551.157C442.688 551.265 442.58 551.265 442.473 551.265Z" fill="#26192A"/>
<path d="M473.489 528.654C473.274 528.654 473.059 528.439 473.059 528.223C473.059 527.9 473.274 525.101 473.92 524.239C474.028 524.024 474.351 524.024 474.458 524.132C474.674 524.239 474.674 524.563 474.566 524.67C474.135 525.209 473.92 527.147 473.812 528.223C473.92 528.439 473.705 528.654 473.489 528.654Z" fill="#26192A"/>
<path d="M476.173 531.884C475.958 531.884 475.742 531.669 475.742 531.453C475.742 531.13 475.958 528.331 476.604 527.47C476.711 527.254 477.034 527.254 477.142 527.362C477.357 527.47 477.357 527.793 477.25 527.9C476.819 528.439 476.604 530.377 476.496 531.453C476.604 531.776 476.388 531.884 476.173 531.884Z" fill="#26192A"/>
<path d="M474.24 536.299C474.025 536.299 473.917 536.191 473.81 535.976C473.702 535.653 473.164 532.853 473.594 531.884C473.702 531.669 473.917 531.561 474.133 531.669C474.348 531.776 474.456 531.992 474.348 532.207C474.133 532.745 474.348 534.791 474.563 535.868C474.671 535.976 474.563 536.191 474.24 536.299C474.24 536.299 474.348 536.299 474.24 536.299Z" fill="#26192A"/>
<path d="M477.9 539.421C477.685 539.421 477.577 539.313 477.47 539.098C477.362 538.775 476.824 535.976 477.254 535.007C477.362 534.791 477.577 534.684 477.793 534.791C478.008 534.899 478.116 535.114 478.008 535.33C477.793 535.868 478.008 537.914 478.223 538.99C478.331 539.098 478.223 539.313 477.9 539.421Z" fill="#26192A"/>
<path d="M474.67 543.297C474.455 543.297 474.347 543.19 474.239 542.974C474.132 542.651 473.593 539.852 474.024 538.883C474.132 538.667 474.347 538.56 474.562 538.667C474.778 538.775 474.885 538.99 474.778 539.206C474.562 539.744 474.778 541.79 474.993 542.867C475.208 542.974 474.993 543.19 474.67 543.297C474.778 543.297 474.778 543.297 474.67 543.297Z" fill="#26192A"/>
<path d="M477.9 545.989C477.685 545.989 477.577 545.881 477.47 545.666C477.362 545.343 476.824 542.544 477.254 541.575C477.362 541.359 477.577 541.252 477.793 541.359C478.008 541.467 478.116 541.682 478.008 541.898C477.793 542.436 478.008 544.482 478.223 545.558C478.331 545.774 478.223 545.989 477.9 545.989Z" fill="#26192A"/>
<path d="M477.148 550.511C477.041 550.511 476.825 550.403 476.825 550.296C476.718 549.973 475.533 547.389 475.749 546.312C475.749 546.097 475.964 545.989 476.179 545.989C476.395 545.989 476.502 546.204 476.502 546.42C476.395 547.066 477.041 548.896 477.471 549.865C477.579 550.08 477.472 550.296 477.256 550.403C477.256 550.403 477.256 550.511 477.148 550.511Z" fill="#26192A"/>
<path d="M495.347 434.549C495.347 434.549 491.471 469.004 511.498 476.541L509.129 482.571C509.129 482.571 492.332 476.649 489.318 458.56C487.487 447.9 490.61 434.549 490.61 434.549C490.61 434.549 493.84 432.826 495.347 434.549Z" fill="#F58A28"/>
<path d="M494.476 430.888C494.476 430.888 530.331 425.612 531.946 454.361C533.238 475.787 492.43 471.588 487.693 461.467C482.955 451.346 488.016 445.209 492.646 444.455C497.276 443.701 519.564 452.1 518.164 446.393C516.872 440.686 497.814 443.809 497.814 443.809L494.476 430.888Z" fill="#FCB82E"/>
<path d="M489.746 462.759C489.315 462.651 480.809 460.821 481.67 456.837C481.778 456.083 482.209 455.545 482.855 455.222C483.285 455.007 483.716 454.899 484.255 454.899C482.101 453.607 480.271 451.992 480.486 450.054C480.594 449.408 480.917 448.977 481.455 448.654C482.855 447.9 485.439 448.546 487.808 449.3C486.193 448.116 484.793 446.824 484.578 445.747C484.47 445.316 484.685 444.886 485.008 444.563C487.269 442.409 494.699 447.577 495.452 448.116C495.668 448.223 495.668 448.546 495.56 448.654C495.452 448.869 495.129 448.869 495.022 448.762C492.115 446.716 486.946 443.809 485.547 445.101C485.439 445.209 485.331 445.424 485.331 445.639C485.547 447.147 489.746 449.838 492.33 451.238C492.545 451.346 492.653 451.561 492.545 451.777C492.437 451.992 492.222 452.1 492.007 451.992C489.853 450.915 483.824 448.439 481.886 449.408C481.563 449.623 481.347 449.838 481.347 450.161C481.024 452.1 484.147 454.038 486.839 455.33C488.454 455.76 489.746 456.514 489.853 456.514C490.069 456.622 490.069 456.837 490.069 457.052C489.961 457.268 489.746 457.375 489.53 457.268C489.423 457.268 488.131 456.837 486.516 456.083C485.224 455.76 483.931 455.545 483.178 455.868C482.747 456.083 482.532 456.406 482.424 456.945C481.886 459.529 487.592 461.359 489.853 461.898C490.069 461.898 490.176 462.113 490.176 462.328C490.176 462.544 489.961 462.759 489.746 462.759Z" fill="#26192A"/>
<path d="M443.98 432.826C443.98 432.826 422.446 450.161 432.89 481.709C432.89 481.709 433.428 451.669 443.98 432.826Z" fill="#F58A28"/>
<path d="M393.587 426.689C393.372 426.689 393.264 426.581 393.157 426.366C392.941 425.289 390.895 415.922 392.618 414.092C392.941 413.769 393.264 413.661 393.695 413.769C395.095 413.984 396.171 415.814 396.817 417.752C396.817 415.814 397.033 413.984 397.894 413.338C398.109 413.123 398.54 412.907 399.186 413.23C400.909 413.876 402.093 416.676 402.739 419.044C402.847 416.568 403.062 413.769 404.139 413.123C404.354 413.015 404.785 412.907 405.323 413.23C407.908 414.845 407.8 424.536 407.8 425.612C407.8 425.828 407.585 426.043 407.369 426.043C407.154 426.043 406.938 425.828 406.938 425.612C406.938 422.705 406.615 415.061 404.785 413.876C404.57 413.769 404.462 413.769 404.462 413.769C403.493 414.307 403.385 419.26 403.493 422.598C403.493 422.813 403.385 423.028 403.17 423.028C402.955 423.028 402.739 422.921 402.739 422.705C402.416 420.552 400.909 414.845 398.863 413.984C398.54 413.876 398.432 413.984 398.325 413.984C397.248 414.845 397.463 419.798 397.894 422.705C397.894 422.921 397.786 423.136 397.571 423.136C397.356 423.136 397.14 423.028 397.14 422.813C396.817 420.66 395.633 414.953 393.587 414.63C393.48 414.63 393.372 414.63 393.264 414.738C392.188 415.922 393.157 422.382 394.018 426.258C394.018 426.474 393.91 426.689 393.587 426.689C393.587 426.689 393.695 426.689 393.587 426.689Z" fill="#26192A"/>
<path d="M452.168 566.985C451.738 566.985 451.307 566.877 450.876 566.77C450.123 566.447 449.8 566.016 449.692 565.585C448.185 566.447 446.569 566.985 445.062 566.662C444.201 566.447 443.878 566.016 443.77 565.585C443.662 564.939 444.093 564.078 444.739 563.217C442.909 564.186 441.078 564.832 440.109 564.078C439.463 563.647 439.355 563.109 439.355 562.678C439.463 560.955 442.37 559.017 442.693 558.802C442.909 558.694 443.124 558.694 443.232 558.91C443.339 559.125 443.339 559.34 443.124 559.448C442.37 559.986 440.217 561.601 440.217 562.678C440.217 562.894 440.217 563.109 440.648 563.432C441.724 564.293 444.954 562.355 447.538 560.417C448.4 559.663 449.261 559.017 449.584 558.802C449.8 558.694 450.015 558.694 450.123 558.91C450.23 559.125 450.23 559.34 450.123 559.448C449.907 559.663 449.154 560.309 448.185 560.955C446.246 562.57 444.524 564.509 444.631 565.37C444.631 565.585 444.847 565.693 445.277 565.801C446.677 566.124 448.4 565.37 449.907 564.401C450.661 562.678 453.783 561.063 454.214 560.848C454.429 560.74 454.645 560.848 454.752 560.955C454.86 561.063 454.86 561.278 454.752 561.494C454.645 561.601 452.814 563.54 450.553 565.047C450.553 565.155 450.553 565.155 450.553 565.262C450.553 565.37 450.553 565.693 451.307 566.016C453.783 567.2 458.629 562.786 460.244 561.063C460.351 560.848 460.674 560.848 460.782 561.063C460.997 561.171 460.997 561.494 460.782 561.601C460.567 561.817 455.722 566.985 452.168 566.985Z" fill="#26192A"/>
<path d="M487.481 566.985C487.05 566.985 486.62 566.877 486.189 566.77C485.435 566.447 485.112 566.016 485.004 565.585C483.497 566.447 481.882 566.985 480.375 566.662C479.513 566.447 479.19 566.016 479.082 565.585C478.975 564.939 479.406 564.078 480.052 563.217C478.221 564.186 476.391 564.832 475.422 564.078C474.776 563.647 474.668 563.109 474.668 562.678C474.776 560.955 477.683 559.017 478.006 558.802C478.221 558.694 478.436 558.694 478.544 558.91C478.652 559.125 478.652 559.34 478.436 559.448C477.683 559.986 475.529 561.601 475.529 562.678C475.529 562.894 475.529 563.109 475.96 563.432C477.037 564.293 480.267 562.355 482.851 560.417C483.712 559.663 484.574 559.017 484.897 558.802C485.112 558.694 485.327 558.694 485.435 558.91C485.543 559.125 485.543 559.34 485.435 559.448C485.22 559.663 484.466 560.309 483.497 560.955C481.559 562.57 479.836 564.509 479.944 565.37C479.944 565.585 480.159 565.693 480.59 565.801C481.99 566.124 483.712 565.37 485.22 564.401C485.973 562.678 489.096 561.063 489.527 560.848C489.742 560.74 489.957 560.848 490.065 560.955C490.173 561.063 490.173 561.278 490.065 561.494C489.957 561.601 488.127 563.54 485.866 565.047C485.866 565.155 485.866 565.155 485.866 565.262C485.866 565.37 485.866 565.693 486.619 566.016C489.204 567.2 493.941 562.786 495.556 561.063C495.664 560.848 495.987 560.848 496.095 561.063C496.31 561.171 496.31 561.494 496.095 561.601C495.772 561.817 491.034 566.985 487.481 566.985Z" fill="#26192A"/>
<path d="M525.711 492.261C525.711 492.261 522.589 482.032 529.587 482.355C536.586 482.678 537.663 489.354 533.14 487.523C528.618 485.801 535.509 478.91 539.924 483.001C544.446 487.093 545.846 492.799 540.462 492.584C535.079 492.369 537.986 488.923 541.862 491.184C545.738 493.445 544.769 498.183 539.278 500.121C533.786 502.059 532.279 496.568 535.294 497.214C538.309 497.967 541.001 502.92 534.863 503.459C528.726 503.997 525.819 497.537 529.372 497.321C532.925 497.214 532.171 501.951 527.434 502.382C522.696 502.813 519.682 489.677 523.881 488.6C528.188 487.739 529.264 493.768 525.711 492.261Z" fill="#FFFAF0"/>
<path d="M534.111 503.889C532.388 503.889 530.773 503.351 529.481 502.382C528.835 502.597 528.189 502.813 527.543 502.92C524.528 503.243 522.159 498.721 521.621 494.414C521.19 491.077 522.052 488.815 523.882 488.385C524.097 488.277 524.42 488.277 524.636 488.277C524.528 486.016 524.959 484.293 525.928 483.217C526.789 482.247 527.974 481.817 529.589 481.924C530.881 482.032 532.065 482.247 533.034 482.678C534.111 481.817 535.511 481.278 536.803 481.278C538.095 481.278 539.279 481.709 540.248 482.678C542.94 485.047 544.555 488.062 544.34 490.215C544.34 490.969 544.017 491.615 543.586 492.153C544.447 493.23 544.77 494.522 544.447 495.814C544.017 497.86 542.079 499.583 539.279 500.552C539.064 500.659 538.956 500.659 538.848 500.659C538.956 501.305 538.741 501.844 538.418 502.382C537.772 503.243 536.587 503.782 534.865 503.889C534.649 503.889 534.434 503.889 534.111 503.889ZM530.342 501.951C531.634 502.813 533.142 503.243 534.865 503.136C536.372 503.028 537.449 502.597 537.879 501.951C538.095 501.628 538.202 501.305 538.202 500.875C536.264 501.198 534.542 500.552 533.788 499.26C533.465 498.614 533.357 497.968 533.68 497.429C534.003 496.891 534.649 496.675 535.511 496.891C536.91 497.214 538.31 498.506 538.848 499.906C538.956 499.906 539.171 499.798 539.279 499.798C541.756 498.937 543.478 497.429 543.909 495.599C544.124 494.522 543.909 493.445 543.155 492.584C542.617 492.907 541.863 493.015 541.002 493.015H540.679C537.556 492.907 537.341 491.723 537.341 491.4C537.341 490.646 538.31 490 539.602 490C540.248 490 541.217 490.108 542.294 490.754C542.617 490.969 542.94 491.184 543.263 491.4C543.586 491.077 543.801 490.646 543.801 490C543.909 488.062 542.402 485.37 539.925 483.109C539.064 482.355 538.095 481.924 537.018 481.924C536.049 481.924 534.972 482.247 534.111 482.894C535.941 484.078 536.695 485.693 536.48 486.77C536.264 487.954 534.972 488.277 533.25 487.631C532.065 487.2 531.634 486.339 531.527 485.801C531.419 484.939 531.742 483.863 532.603 483.001C531.742 482.678 530.773 482.463 529.804 482.463C528.512 482.355 527.435 482.786 526.789 483.432C525.713 484.509 525.605 486.447 525.713 487.954C527.543 488.169 528.512 489.892 528.512 491.077C528.512 492.369 527.328 493.015 525.82 492.369C525.712 492.369 525.605 492.261 525.605 492.153C525.605 492.046 525.174 490.646 524.959 488.815C524.743 488.815 524.528 488.815 524.313 488.923C522.698 489.354 522.375 491.83 522.698 494.091C523.128 497.968 525.282 502.167 527.651 501.844C528.189 501.844 528.62 501.736 529.05 501.521C527.974 500.336 527.435 498.937 527.758 497.968C527.866 497.537 528.297 496.783 529.589 496.783H529.804C531.096 496.783 531.957 497.429 532.28 498.398C532.28 499.798 531.527 501.09 530.342 501.951ZM529.589 497.752H529.481C528.835 497.752 528.512 497.968 528.404 498.398C528.189 499.044 528.62 500.336 529.696 501.413C530.988 500.659 531.419 499.583 531.311 498.829C531.096 498.183 530.45 497.752 529.589 497.752ZM534.757 497.537C534.542 497.537 534.326 497.645 534.219 497.752C534.111 497.968 534.111 498.398 534.326 498.721C534.542 499.044 535.188 500.013 537.018 500.013C537.341 500.013 537.556 500.013 537.879 499.906C537.449 498.829 536.264 497.86 535.188 497.537C534.972 497.537 534.865 497.537 534.757 497.537ZM539.279 490.861C538.31 490.861 537.879 491.184 537.879 491.4C537.879 491.615 538.525 492.153 540.463 492.153H540.679C541.325 492.153 541.863 492.046 542.294 491.938C542.079 491.83 541.863 491.615 541.648 491.507C540.679 490.969 539.817 490.861 539.279 490.861ZM526.036 491.938C526.251 492.046 526.574 492.046 526.682 492.046C527.22 492.046 527.435 491.615 527.435 491.292C527.435 490.431 526.789 489.354 525.497 489.031C525.712 490.431 525.928 491.507 526.036 491.938ZM533.142 483.647C532.388 484.401 531.957 485.262 532.065 485.908C532.173 486.447 532.603 486.877 533.25 487.093C534.434 487.523 535.188 487.416 535.403 486.77C535.618 485.908 534.757 484.509 533.142 483.647Z" fill="#26192A"/>
<path d="M424.293 351.211C424.293 351.211 426.554 335.491 441.305 336.03C450.242 336.353 447.335 349.704 443.351 346.258C439.367 342.813 450.888 323.647 463.593 333.123C475.329 341.844 468.977 347.443 466.07 346.366C463.163 345.289 468.331 329.354 478.883 331.4C493.849 334.415 492.772 349.704 486.204 351.104C479.636 352.503 489.973 334.092 501.063 339.368C512.153 344.643 511.184 356.272 505.37 357.241C499.556 358.21 509.031 339.045 520.336 347.981C531.642 356.918 530.565 374.791 520.336 376.191C510.107 377.591 512.368 367.47 523.351 372.961C534.333 378.452 529.704 396.756 517.86 396.972C506.016 397.187 511.184 387.497 518.075 393.311C524.966 399.125 528.088 415.599 513.876 417.86C499.663 420.121 501.709 406.555 509.354 412.907C516.998 419.26 513.876 432.826 496.756 436.057C479.636 439.179 489.111 420.121 492.018 425.612C494.926 431.104 485.881 439.287 474.576 438.641C463.27 437.995 465.854 423.567 469.515 425.612C473.284 427.658 476.083 442.625 459.932 438.641C443.782 434.657 440.336 421.844 445.827 423.459C451.426 425.074 453.903 438.856 439.259 436.057C424.616 433.257 420.525 411.4 428.492 411.723C436.46 412.046 431.399 428.627 422.14 425.182C412.88 421.736 408.142 406.77 417.833 402.032C427.523 397.295 416.002 416.137 407.819 406.447C399.636 396.756 409.111 378.991 415.249 383.944C421.278 389.004 406.527 391.804 404.697 382.867C402.866 373.93 408.035 359.933 416.11 362.086C424.185 364.24 422.893 367.793 419.125 369.085C413.095 371.346 411.373 353.365 417.294 347.874C424.293 341.521 433.445 344.643 431.722 350.996C430 357.349 422.786 354.334 424.293 351.211Z" fill="#FFFAF0"/>
<path d="M464.879 439.717C463.371 439.717 461.756 439.502 459.926 439.071C455.834 438.102 452.389 436.487 449.481 434.334C448.512 435.518 446.574 436.918 443.021 436.918C441.944 436.918 440.652 436.81 439.36 436.595C433.869 435.518 429.239 431.75 426.44 426.043C425.04 426.366 423.64 426.258 422.241 425.72C416.211 423.459 411.689 416.03 412.442 409.677C410.72 409.354 409.212 408.385 407.813 406.77C403.075 401.171 403.936 392.88 407.167 387.389C405.767 386.312 404.905 384.805 404.475 382.974C403.29 377.268 404.798 369.946 408.136 365.424C409.751 363.271 411.581 361.871 413.627 361.548C413.196 356.81 414.165 350.565 417.395 347.658C419.979 345.289 422.994 343.997 425.901 343.997C426.117 343.997 426.224 343.997 426.44 343.997C428.701 339.906 433.115 335.276 441.406 335.491C442.913 335.491 444.098 335.922 445.175 336.676C448.189 332.476 452.389 330 456.588 330C459.172 330 461.648 330.861 464.017 332.692C465.632 333.876 466.924 335.061 468.001 336.245C469.508 333.984 472.631 330.754 477.153 330.754C477.799 330.754 478.445 330.861 479.091 330.969C485.013 332.153 489.212 335.384 490.72 340.013C494.165 337.752 497.934 337.322 501.379 338.937C505.148 340.767 507.947 343.459 509.347 346.689C513.008 344.428 517.099 344.751 520.76 347.658C525.605 351.534 528.728 357.456 529.051 363.486C529.266 367.685 528.082 371.454 525.821 373.822C529.266 376.514 530.881 381.036 530.02 385.882C529.158 390.942 525.928 395.141 521.621 396.649C524.098 400.74 525.605 406.877 523.452 411.723C521.837 415.276 518.714 417.429 514.192 418.183C513.977 418.183 513.869 418.291 513.654 418.291C514.407 421.305 513.977 424.536 512.146 427.335C509.454 431.857 504.071 434.98 497.072 436.272C495.78 436.487 494.596 436.595 493.519 436.595C491.258 436.595 489.535 436.056 488.351 435.087C485.013 437.456 480.599 438.856 476.076 438.856C475.646 438.856 475.215 438.856 474.784 438.856C473.277 438.748 471.877 438.425 470.693 437.779C469.185 439.179 467.247 439.717 464.879 439.717ZM449.912 433.688C452.712 435.733 456.157 437.349 460.141 438.318C464.448 439.394 467.786 439.179 469.831 437.672C466.171 435.303 465.74 430.673 466.386 427.981C466.817 426.151 467.786 425.074 468.97 425.074C469.293 425.074 469.616 425.182 469.939 425.289C471.446 426.043 472.631 428.519 472.954 431.104C473.169 432.611 473.169 435.303 471.231 437.349C472.2 437.779 473.385 438.102 474.784 438.21C475.215 438.21 475.646 438.21 476.076 438.21C480.276 438.21 484.475 436.918 487.705 434.657C486.09 432.719 486.413 429.812 487.274 427.766C488.028 425.935 489.428 424.213 490.827 424.213C491.366 424.213 492.012 424.428 492.55 425.397C494.057 428.196 492.658 431.857 488.997 434.764C490.074 435.626 491.581 435.949 493.519 435.949C494.596 435.949 495.673 435.841 496.965 435.626C503.748 434.334 508.916 431.319 511.5 427.012C513.115 424.32 513.654 421.198 512.792 418.398C512.146 418.506 511.608 418.506 511.07 418.506C506.117 418.506 504.286 416.245 503.748 415.384C503.102 414.307 502.994 413.015 503.533 412.046C503.963 411.292 504.825 410.754 505.794 410.754C506.978 410.754 508.378 411.4 509.777 412.584C511.393 413.984 512.577 415.599 513.331 417.537C513.546 417.537 513.761 417.429 513.977 417.429C518.176 416.783 521.191 414.737 522.698 411.4C524.744 406.77 523.344 400.848 520.868 396.864C520.006 397.079 519.037 397.295 518.068 397.295H517.638C513.008 397.295 511.5 395.787 510.962 394.926C510.531 394.172 510.531 393.311 510.962 392.557C511.5 391.588 512.685 391.05 513.977 391.05C515.053 391.05 516.669 391.373 518.499 392.988C519.468 393.849 520.329 394.818 521.191 396.003C525.282 394.603 528.405 390.619 529.158 385.774C529.912 381.144 528.405 376.945 525.175 374.361C523.883 375.545 522.267 376.299 520.545 376.514C517.207 376.945 514.73 376.299 513.761 374.684C513.331 373.93 513.331 373.176 513.761 372.53C514.407 371.454 515.807 370.808 517.638 370.808C519.36 370.808 521.514 371.346 523.775 372.53C524.313 372.746 524.744 373.069 525.175 373.392C527.328 371.131 528.405 367.577 528.189 363.594C527.866 357.672 524.959 351.965 520.222 348.304C516.776 345.505 513.008 345.289 509.562 347.443C510.424 350.135 510.316 352.934 509.131 354.872C508.27 356.272 507.086 357.241 505.578 357.564C505.363 357.564 505.255 357.564 505.04 357.564C504.179 357.564 503.64 357.133 503.425 356.38C502.779 354.334 505.04 349.704 508.593 347.12C507.409 343.997 504.717 341.306 501.056 339.583C497.826 338.075 494.273 338.506 491.043 340.767C491.796 343.567 491.473 346.474 490.181 348.627C489.32 350.135 488.028 351.104 486.52 351.427C485.228 351.75 484.367 351.319 484.044 350.35C483.398 348.304 485.874 343.459 490.074 340.444C488.674 336.03 484.69 332.799 478.983 331.723C478.337 331.615 477.799 331.507 477.153 331.507C472.846 331.507 469.939 334.738 468.539 336.783C471.554 340.444 471.123 343.028 470.477 344.32C469.831 345.72 468.324 346.797 466.924 346.797C466.601 346.797 466.278 346.797 466.063 346.689C465.74 346.581 465.417 346.366 465.202 345.72C464.555 343.89 465.632 340.121 467.57 336.999C466.494 335.814 465.201 334.63 463.479 333.338C461.218 331.615 458.849 330.861 456.48 330.861C452.604 330.861 448.62 333.23 445.713 337.322C447.759 339.367 447.974 342.705 447.113 344.966C446.574 346.366 445.713 347.227 444.636 347.227C444.098 347.227 443.56 347.012 443.129 346.581C441.406 345.074 442.052 341.306 444.636 337.429C443.775 336.783 442.698 336.46 441.298 336.353C433.654 336.03 429.455 340.336 427.193 344.105C429.132 344.428 430.747 345.289 431.716 346.581C432.577 347.873 432.792 349.381 432.362 351.104C431.393 354.657 428.809 355.087 427.732 355.087C426.224 355.087 424.717 354.334 424.071 353.257C423.64 352.503 423.533 351.75 423.963 350.996C424.071 350.565 424.502 347.873 426.009 344.751H425.901C423.102 344.751 420.302 345.935 417.934 348.196C414.919 350.996 414.058 356.918 414.488 361.44C415.134 361.44 415.888 361.44 416.534 361.655C421.595 362.947 422.779 364.778 422.779 366.07C422.887 367.47 421.595 368.762 419.549 369.515C419.118 369.623 418.795 369.731 418.364 369.731C415.996 369.731 414.273 366.931 413.627 362.409C411.796 362.732 410.181 363.917 408.674 365.962C405.659 370.161 404.152 377.483 405.228 382.867C405.551 384.482 406.305 385.774 407.49 386.743C409.105 384.266 411.15 382.759 413.088 382.759C413.95 382.759 414.811 383.082 415.673 383.728C417.395 385.128 417.395 386.312 417.18 386.958C416.749 388.25 414.811 389.112 412.55 389.112C410.827 389.112 409.212 388.681 407.813 387.82C404.69 393.096 403.936 400.956 408.351 406.231C409.535 407.739 410.935 408.6 412.442 408.816C412.981 405.585 414.919 403.217 417.826 401.709C418.903 401.171 419.872 400.848 420.518 400.848C421.487 400.848 422.133 401.386 422.133 402.355C422.133 404.724 418.149 409.677 413.411 409.677C413.304 409.677 413.196 409.677 413.088 409.677C412.442 415.707 416.642 422.813 422.348 424.859C423.533 425.289 424.825 425.397 426.009 425.182C423.963 420.552 423.64 415.599 425.255 413.122C426.009 411.938 427.086 411.4 428.378 411.4H428.593C430.962 411.507 432.469 413.015 432.792 415.491C433.223 419.152 430.962 424.213 427.086 425.72C429.778 431.104 434.192 434.764 439.36 435.733C443.775 436.595 447.113 435.949 448.728 433.903C444.313 430.458 442.483 426.366 443.129 424.32C443.452 423.244 444.529 422.813 445.928 423.136C447.651 423.674 449.266 425.289 450.02 427.55C450.989 429.704 450.881 431.965 449.912 433.688ZM468.97 425.828C468.216 425.828 467.57 426.689 467.14 428.196C466.494 430.673 466.924 434.98 470.477 437.133C472.308 435.303 472.308 432.719 472.092 431.319C471.769 428.95 470.693 426.689 469.508 426.043C469.293 425.935 469.078 425.828 468.97 425.828ZM490.72 425.074C489.858 425.074 488.674 426.366 487.92 428.196C487.166 430.135 486.843 432.611 488.243 434.334C491.689 431.642 492.981 428.412 491.689 425.935C491.473 425.397 491.15 425.074 490.72 425.074ZM445.067 423.782C444.529 423.782 444.098 423.997 443.99 424.536C443.452 426.043 444.852 429.704 449.266 433.257C450.128 431.75 450.127 429.812 449.481 427.873C448.728 425.935 447.436 424.428 445.928 423.997C445.605 423.782 445.282 423.782 445.067 423.782ZM428.378 412.261C427.301 412.261 426.44 412.692 425.901 413.661C424.394 416.03 424.825 420.659 426.763 425.074C430.316 423.674 432.469 419.152 432.039 415.707C431.931 414.522 431.177 412.369 428.593 412.261H428.378ZM505.794 411.723C505.04 411.723 504.502 412.046 504.179 412.584C503.748 413.23 503.856 414.199 504.394 415.061C504.825 415.922 506.44 417.86 510.962 417.86C511.393 417.86 511.931 417.86 512.469 417.752C511.823 416.03 510.747 414.522 509.239 413.338C507.624 412.046 506.44 411.723 505.794 411.723ZM413.196 408.923C413.304 408.923 413.304 408.923 413.411 408.923C417.503 408.923 421.272 404.509 421.272 402.463C421.272 402.032 421.056 401.817 420.518 401.817C420.087 401.817 419.441 401.925 418.149 402.571C415.457 403.863 413.735 406.016 413.196 408.923ZM513.869 392.019C512.792 392.019 511.931 392.449 511.5 393.203C511.177 393.742 511.177 394.28 511.5 394.818C511.823 395.464 513.115 396.756 517.53 396.756H517.961C518.714 396.756 519.576 396.649 520.329 396.433C519.576 395.357 518.822 394.495 517.961 393.742C516.238 392.342 514.838 392.019 513.869 392.019ZM408.243 387.174C409.428 387.927 410.935 388.358 412.55 388.358C414.488 388.358 416.103 387.712 416.426 386.743C416.749 385.882 415.888 385.02 415.242 384.374C414.596 383.836 413.95 383.62 413.196 383.62C411.581 383.513 409.751 384.912 408.243 387.174ZM517.53 371.884C516.022 371.884 514.838 372.315 514.407 373.176C514.192 373.607 514.192 374.145 514.407 374.576C515.161 375.868 517.422 376.406 520.329 375.976C521.837 375.76 523.236 375.114 524.421 374.145C524.098 373.93 523.667 373.715 523.236 373.499C521.191 372.423 519.145 371.884 517.53 371.884ZM414.488 362.301C415.027 366.393 416.534 368.977 418.364 368.977C418.687 368.977 418.903 368.869 419.226 368.762C420.949 368.116 421.918 367.147 421.918 366.07C421.81 364.67 419.764 363.378 416.211 362.409C415.673 362.409 415.027 362.301 414.488 362.301ZM508.808 348.089C505.471 350.673 503.64 354.764 504.179 356.38C504.286 356.81 504.609 357.026 505.04 357.026C505.148 357.026 505.255 357.026 505.363 357.026C506.655 356.81 507.732 356.057 508.378 354.764C509.347 352.934 509.562 350.458 508.808 348.089ZM426.87 344.966C425.148 348.196 424.717 351.319 424.717 351.319V351.427C424.394 352.073 424.609 352.611 424.825 352.934C425.363 353.795 426.547 354.441 427.839 354.441C429.67 354.441 431.07 353.257 431.716 351.104C432.146 349.704 431.931 348.412 431.177 347.335C430.208 345.935 428.701 345.182 426.87 344.966ZM490.181 341.413C486.305 344.32 484.259 348.735 484.69 350.242C484.798 350.458 484.905 350.781 485.551 350.781C485.767 350.781 485.874 350.781 486.09 350.673C487.382 350.35 488.459 349.596 489.212 348.304C490.504 346.474 490.827 343.997 490.181 341.413ZM445.175 337.968C443.021 341.306 442.267 344.859 443.56 345.935C443.883 346.258 444.206 346.366 444.529 346.366C445.175 346.366 445.821 345.72 446.251 344.643C447.113 342.705 446.897 339.798 445.175 337.968ZM468.001 337.752C466.063 340.875 465.417 344.213 465.848 345.505C465.955 345.828 466.063 345.935 466.278 346.043C467.247 346.366 468.97 345.828 469.724 344.213C470.154 343.136 470.585 340.982 468.001 337.752Z" fill="#26192A"/>
<path d="M461.533 423.136C490.82 426.904 506.755 377.591 502.879 358.748C499.003 339.906 488.128 374.576 488.128 374.576L449.474 366.824C449.474 366.824 451.197 345.828 444.736 347.335C438.276 348.843 415.557 417.106 461.533 423.136Z" fill="#FCB82E"/>
<path d="M468.753 400.202C468.646 400.202 468.646 400.202 468.753 400.202L454.971 397.51C454.756 397.51 454.648 397.295 454.648 397.079L457.771 369.515C457.771 369.3 457.986 369.085 458.202 369.192C458.417 369.192 458.632 369.408 458.525 369.623L455.51 396.864L468.43 399.34L474.891 372.207C474.891 371.992 475.106 371.884 475.429 371.884C475.644 371.884 475.752 372.207 475.752 372.423L469.184 399.987C469.076 400.094 468.861 400.202 468.753 400.202Z" fill="#26192A"/>
<path d="M452.922 396.433L471.549 399.34C471.549 399.34 467.996 407.093 460.782 406.77C454.537 406.447 452.922 396.433 452.922 396.433Z" fill="#26192A"/>
<path d="M447 390.834C446.892 390.834 446.677 390.834 446.462 390.619C445.062 389.435 444.631 382.974 444.523 381.682C444.523 381.467 444.631 381.252 444.954 381.252C445.169 381.252 445.385 381.359 445.385 381.682C445.708 386.097 446.462 389.973 447.108 390.081C447.754 389.973 448.615 385.666 449.046 380.821C449.046 380.606 449.261 380.39 449.476 380.498C449.692 380.498 449.907 380.713 449.799 380.929C449.584 383.728 448.83 390.619 447 390.834C447 390.834 447.108 390.834 447 390.834Z" fill="#26192A"/>
<path d="M478.653 396.864C478.438 396.864 478.223 396.756 478.115 396.649C476.93 395.464 477.577 388.789 477.792 387.497C477.792 387.281 478.007 387.066 478.223 387.174C478.438 387.174 478.653 387.389 478.546 387.604C478.115 391.911 478.115 395.787 478.653 396.11C479.407 396.003 481.776 391.803 483.498 387.82C483.606 387.604 483.821 387.497 484.037 387.604C484.252 387.712 484.36 387.927 484.252 388.143C483.391 390.188 480.376 396.756 478.653 396.864C478.653 396.864 478.761 396.864 478.653 396.864Z" fill="#26192A"/>
<path d="M459.487 415.814C459.38 415.814 459.38 415.814 459.272 415.814C457.657 415.491 457.441 410.108 457.441 407.847C457.441 407.631 457.657 407.524 457.872 407.416C458.087 407.416 458.303 407.631 458.303 407.847C458.303 411.507 458.841 414.953 459.379 415.061C459.487 415.061 460.349 415.061 462.502 408.923C462.61 408.708 462.825 408.6 463.04 408.708C463.256 408.816 463.363 409.031 463.256 409.246C461.318 414.845 460.241 415.814 459.487 415.814Z" fill="#26192A"/>
<path d="M447.759 397.941C447.759 397.941 447.651 397.833 447.759 397.941L437.53 396.002C437.315 396.002 437.207 395.787 437.207 395.572C437.207 395.356 437.422 395.249 437.638 395.249L447.866 397.187C448.082 397.187 448.19 397.402 448.19 397.618C448.082 397.725 447.974 397.941 447.759 397.941Z" fill="#26192A"/>
<path d="M447.858 400.632L436.768 398.587C436.553 398.587 436.445 398.371 436.445 398.156C436.445 397.941 436.661 397.833 436.876 397.833L447.966 399.771C448.182 399.771 448.289 399.986 448.289 400.202C448.289 400.525 448.074 400.632 447.858 400.632Z" fill="#26192A"/>
<path d="M447.761 404.078C447.761 404.078 447.653 404.078 447.761 404.078L437.425 401.602C437.209 401.602 437.102 401.279 437.102 401.063C437.102 400.848 437.317 400.74 437.64 400.74L447.869 403.217C448.084 403.217 448.192 403.54 448.192 403.755C448.084 403.97 447.976 404.078 447.761 404.078Z" fill="#26192A"/>
<path d="M483.61 404.509C483.503 404.509 483.503 404.509 483.61 404.509L473.382 402.571C473.166 402.571 473.059 402.355 473.059 402.14C473.059 401.925 473.274 401.817 473.489 401.817L483.718 403.755C483.933 403.755 484.041 403.97 484.041 404.186C483.933 404.401 483.718 404.509 483.61 404.509Z" fill="#26192A"/>
<path d="M483.718 407.308L472.628 405.262C472.412 405.262 472.305 405.047 472.305 404.832C472.305 404.616 472.52 404.509 472.735 404.509L483.826 406.554C484.041 406.554 484.149 406.77 484.149 406.985C484.149 407.2 483.933 407.308 483.718 407.308Z" fill="#26192A"/>
<path d="M483.609 410.754C483.609 410.754 483.501 410.754 483.609 410.754L473.272 408.277C473.057 408.277 472.949 407.954 472.949 407.739C472.949 407.524 473.165 407.416 473.488 407.416L483.716 409.892C483.932 409.892 484.039 410.215 484.039 410.431C483.932 410.646 483.716 410.754 483.609 410.754Z" fill="#26192A"/>
<path d="M444.743 365.962C444.635 365.962 444.635 365.962 444.743 365.962C444.42 365.855 444.312 365.639 444.312 365.424C445.927 358.748 443.343 353.688 443.343 353.58C443.235 353.365 443.343 353.149 443.558 353.042C443.774 352.934 443.989 353.042 444.097 353.257C444.204 353.472 446.788 358.641 445.173 365.639C445.066 365.855 444.85 365.962 444.743 365.962Z" fill="#26192A"/>
<path d="M493.196 375.76C493.196 375.76 493.089 375.76 493.196 375.76C492.981 375.76 492.766 375.545 492.766 375.33C493.519 368.762 498.688 364.347 498.903 364.132C499.118 364.024 499.334 364.024 499.441 364.132C499.549 364.347 499.549 364.563 499.441 364.67C499.441 364.67 494.273 369.085 493.627 375.33C493.519 375.653 493.412 375.76 493.196 375.76Z" fill="#26192A"/>
<path d="M503.952 465.343C503.952 465.343 503.844 465.343 503.952 465.343C503.521 465.235 500.722 464.805 499.968 464.051C499.86 463.943 499.753 463.62 499.968 463.513C500.076 463.405 500.399 463.297 500.506 463.513C500.937 463.943 502.875 464.374 503.952 464.589C504.167 464.589 504.275 464.805 504.275 465.02C504.275 465.235 504.167 465.343 503.952 465.343Z" fill="#26192A"/>
<path d="M507.401 462.974C506.97 462.867 504.171 462.436 503.417 461.682C503.31 461.575 503.202 461.252 503.417 461.144C503.633 461.036 503.848 460.929 503.956 461.144C504.386 461.575 506.324 462.005 507.401 462.221C507.617 462.221 507.724 462.436 507.724 462.651C507.832 462.867 507.617 462.974 507.401 462.974Z" fill="#26192A"/>
<path d="M509.561 465.451C508.807 465.451 507.946 465.343 507.515 465.128C507.3 465.02 507.192 464.805 507.3 464.589C507.408 464.374 507.623 464.374 507.838 464.374C508.377 464.697 510.315 464.589 511.499 464.482C511.715 464.482 511.93 464.589 511.93 464.805C511.93 465.02 511.822 465.235 511.607 465.235C511.499 465.343 510.53 465.451 509.561 465.451Z" fill="#26192A"/>
<path d="M513.104 462.221C512.35 462.221 511.489 462.113 511.058 461.898C510.843 461.79 510.735 461.575 510.843 461.359C510.951 461.144 511.166 461.144 511.381 461.144C511.92 461.467 513.858 461.359 515.042 461.252C515.258 461.252 515.473 461.359 515.473 461.575C515.473 461.79 515.365 462.005 515.15 462.005C514.935 462.113 514.073 462.221 513.104 462.221Z" fill="#26192A"/>
<path d="M516.659 465.774C515.905 465.774 515.044 465.666 514.613 465.451C514.398 465.343 514.29 465.128 514.398 464.912C514.505 464.697 514.721 464.697 514.936 464.697C515.474 465.02 517.412 464.912 518.597 464.805C518.812 464.805 519.028 464.912 519.028 465.128C519.028 465.343 518.92 465.558 518.705 465.558C518.489 465.666 517.52 465.774 516.659 465.774Z" fill="#26192A"/>
<path d="M519.678 462.867C518.925 462.867 518.063 462.759 517.633 462.544C517.417 462.436 517.31 462.221 517.417 462.005C517.525 461.79 517.74 461.79 517.956 461.79C518.494 462.113 520.432 462.005 521.616 461.898C521.832 461.898 522.047 462.005 522.047 462.221C522.047 462.436 521.939 462.651 521.724 462.651C521.509 462.759 520.647 462.867 519.678 462.867Z" fill="#26192A"/>
<path d="M522.689 464.589C522.474 464.589 522.259 464.589 522.151 464.482C521.936 464.374 521.828 464.159 521.828 463.943C521.936 463.728 522.151 463.62 522.366 463.62C523.013 463.836 524.843 463.297 525.92 462.974C526.135 462.867 526.35 462.974 526.458 463.19C526.566 463.405 526.458 463.62 526.243 463.728C525.92 463.943 523.874 464.589 522.689 464.589Z" fill="#26192A"/>
<path d="M446.564 474.065C446.348 474.065 446.133 473.849 446.133 473.634C446.133 473.311 446.24 470.511 446.887 469.542C446.994 469.327 447.317 469.327 447.425 469.435C447.64 469.542 447.64 469.865 447.533 469.973C447.102 470.511 446.994 472.45 446.887 473.526C446.887 473.849 446.779 474.065 446.564 474.065Z" fill="#26192A"/>
<path d="M451.087 475.249C450.872 475.249 450.656 475.034 450.656 474.818C450.656 474.495 450.764 471.696 451.41 470.727C451.518 470.511 451.841 470.511 451.948 470.619C452.164 470.727 452.164 471.05 452.056 471.157C451.625 471.696 451.518 473.634 451.41 474.711C451.41 475.141 451.302 475.249 451.087 475.249Z" fill="#26192A"/>
<path d="M448.829 468.035C448.614 468.035 448.398 467.82 448.398 467.604C448.398 467.281 448.506 464.482 449.152 463.513C449.26 463.297 449.583 463.297 449.691 463.405C449.906 463.513 449.906 463.836 449.798 463.943C449.368 464.482 449.26 466.42 449.152 467.497C449.26 467.82 449.044 468.035 448.829 468.035Z" fill="#26192A"/>
<path d="M409.203 462.113C409.095 462.113 409.095 462.113 408.987 462.113C408.664 462.005 406.188 460.605 405.757 459.529C405.649 459.313 405.757 459.098 405.972 458.99C406.188 458.883 406.403 458.99 406.511 459.206C406.834 459.744 408.449 460.821 409.418 461.359C409.633 461.467 409.633 461.682 409.526 461.898C409.526 462.005 409.31 462.113 409.203 462.113Z" fill="#26192A"/>
<path d="M402.31 458.129C402.203 458.129 402.095 458.129 401.987 458.021C401.772 457.806 400.049 455.545 399.941 454.468C399.941 454.253 400.049 454.038 400.264 454.038C400.48 454.038 400.695 454.145 400.695 454.361C400.695 455.007 401.879 456.622 402.633 457.483C402.741 457.698 402.741 457.914 402.526 458.021C402.526 458.129 402.418 458.129 402.31 458.129Z" fill="#26192A"/>
<path d="M407.591 457.806C407.483 457.806 407.483 457.806 407.376 457.698C407.053 457.483 404.684 455.976 404.253 455.007C404.146 454.791 404.253 454.576 404.469 454.468C404.684 454.361 404.899 454.468 405.007 454.684C405.222 455.222 406.837 456.406 407.806 457.052C408.022 457.16 408.022 457.375 407.914 457.591C407.914 457.698 407.806 457.806 407.591 457.806Z" fill="#26192A"/>
<path d="M414.485 458.991C414.162 458.991 411.362 458.775 410.393 458.129C410.178 458.021 410.178 457.698 410.286 457.591C410.393 457.375 410.716 457.375 410.824 457.483C411.362 457.914 413.3 458.129 414.377 458.129C414.592 458.129 414.808 458.345 414.808 458.56C414.915 458.775 414.7 458.991 414.485 458.991Z" fill="#26192A"/>
<path d="M421.692 460.175C421.369 460.175 418.569 459.96 417.6 459.314C417.385 459.206 417.385 458.883 417.493 458.775C417.6 458.56 417.923 458.56 418.031 458.668C418.569 459.098 420.507 459.314 421.584 459.314C421.799 459.314 422.015 459.529 422.015 459.744C422.122 459.96 421.907 460.175 421.692 460.175Z" fill="#26192A"/>
<path d="M401.78 452.315C401.672 452.315 401.564 452.315 401.564 452.207C401.349 451.992 399.088 450.269 398.765 449.192C398.657 448.977 398.765 448.762 398.98 448.654C399.196 448.546 399.411 448.654 399.519 448.869C399.734 449.515 401.241 450.807 402.103 451.453C402.318 451.561 402.318 451.884 402.21 451.992C401.995 452.315 401.887 452.315 401.78 452.315Z" fill="#26192A"/>
<path d="M414.697 462.005C414.051 462.005 413.405 461.898 413.082 461.79C412.866 461.682 412.759 461.467 412.866 461.252C412.974 461.036 413.189 460.929 413.405 461.036C413.943 461.359 415.989 461.144 417.066 461.036C417.281 461.036 417.496 461.144 417.496 461.359C417.496 461.575 417.389 461.79 417.173 461.79C417.066 461.79 415.881 462.005 414.697 462.005Z" fill="#26192A"/>
<path d="M448.08 480.525C447.864 480.525 447.757 480.417 447.649 480.202C447.541 479.879 446.895 477.187 447.326 476.11C447.434 475.895 447.649 475.787 447.864 475.895C448.08 476.003 448.187 476.218 448.08 476.433C447.864 477.079 448.188 479.018 448.511 480.094C448.511 480.202 448.403 480.417 448.08 480.525C448.08 480.525 448.187 480.525 448.08 480.525Z" fill="#26192A"/>
<path d="M451.623 482.786C451.407 482.786 451.3 482.678 451.192 482.463C451.084 482.14 450.438 479.448 450.869 478.371C450.977 478.156 451.192 478.048 451.407 478.156C451.623 478.264 451.73 478.479 451.623 478.694C451.407 479.34 451.73 481.279 452.053 482.355C452.053 482.463 451.946 482.678 451.623 482.786C451.623 482.786 451.73 482.786 451.623 482.786Z" fill="#26192A"/>
<path d="M454.642 493.768C454.427 493.768 454.319 493.661 454.212 493.445C454.104 493.122 453.458 490.431 453.889 489.354C453.996 489.138 454.212 489.031 454.427 489.138C454.642 489.246 454.75 489.462 454.642 489.677C454.427 490.323 454.75 492.261 455.073 493.338C455.073 493.553 454.965 493.768 454.642 493.768Z" fill="#26192A"/>
<path d="M454.641 504.536C454.534 504.536 454.426 504.536 454.426 504.428C454.211 504.213 451.842 502.597 451.519 501.521C451.411 501.305 451.519 501.09 451.734 500.982C451.949 500.875 452.165 500.982 452.273 501.198C452.488 501.844 453.995 503.028 454.857 503.674C455.072 503.782 455.072 504.105 454.964 504.213C454.857 504.428 454.749 504.536 454.641 504.536Z" fill="#26192A"/>
<path d="M457.879 502.49C457.772 502.49 457.664 502.49 457.664 502.382C457.449 502.167 455.188 500.444 454.865 499.367C454.757 499.152 454.972 498.937 455.188 498.829C455.403 498.721 455.618 498.937 455.726 499.152C455.941 499.798 457.341 501.09 458.202 501.844C458.418 501.951 458.418 502.274 458.31 502.382C458.095 502.382 457.987 502.49 457.879 502.49Z" fill="#26192A"/>
<path d="M447.963 488.6C447.747 488.6 447.64 488.492 447.532 488.277C447.424 487.954 446.778 485.262 447.209 484.186C447.317 483.97 447.532 483.863 447.747 483.97C447.963 484.078 448.07 484.293 447.963 484.509C447.747 485.155 448.07 487.093 448.393 488.169C448.393 488.385 448.178 488.6 447.963 488.6Z" fill="#26192A"/>
<path d="M451.838 489.354C451.622 489.354 451.515 489.246 451.407 489.031C451.299 488.708 450.653 486.016 451.084 484.939C451.192 484.724 451.407 484.616 451.622 484.724C451.838 484.832 451.945 485.047 451.838 485.262C451.622 485.908 451.945 487.847 452.268 488.923C452.268 489.139 452.161 489.354 451.838 489.354C451.838 489.354 451.945 489.354 451.838 489.354Z" fill="#26192A"/>
<path d="M452.807 499.152C452.699 499.152 452.484 499.044 452.484 498.937C452.376 498.614 451.3 496.029 451.623 494.953C451.623 494.737 451.838 494.63 452.053 494.63C452.269 494.63 452.376 494.845 452.376 495.06C452.269 495.706 452.807 497.537 453.238 498.614C453.345 498.829 453.238 499.044 453.022 499.152C452.915 499.152 452.807 499.152 452.807 499.152Z" fill="#26192A"/>
<path d="M449.149 495.706C449.041 495.706 448.826 495.599 448.826 495.491C448.718 495.168 447.426 492.692 447.641 491.507C447.641 491.292 447.857 491.184 448.072 491.184C448.287 491.184 448.395 491.4 448.395 491.615C448.287 492.261 449.041 494.091 449.472 495.06C449.579 495.276 449.472 495.491 449.256 495.599C449.256 495.599 449.256 495.706 449.149 495.706Z" fill="#26192A"/>
<path d="M362.797 427.873C362.689 427.873 362.689 427.873 362.581 427.873L350.953 421.951C350.738 421.844 350.63 421.628 350.738 421.413L376.148 366.285C376.148 366.178 376.256 366.07 376.363 366.07C376.471 366.07 376.579 366.07 376.686 366.07L388.853 372.315C389.069 372.423 389.176 372.638 389.069 372.853L363.12 427.658C363.12 427.766 363.012 427.873 362.904 427.873C362.904 427.873 362.797 427.873 362.797 427.873ZM351.707 421.305L362.581 426.797L388.207 372.746L376.686 366.931L351.707 421.305Z" fill="#26192A"/>
<path d="M381.857 374.899C381.749 374.899 381.749 374.899 381.642 374.899L374.32 371.238C374.105 371.13 373.997 370.915 374.105 370.7C374.212 370.484 374.428 370.377 374.643 370.484L381.965 374.145C382.18 374.253 382.288 374.468 382.18 374.684C382.18 374.791 381.965 374.899 381.857 374.899Z" fill="#26192A"/>
<path d="M377.545 375.545C377.437 375.545 377.437 375.545 377.33 375.545L373.238 373.499C373.023 373.392 372.915 373.176 373.023 372.961C373.13 372.746 373.346 372.638 373.561 372.746L377.653 374.791C377.868 374.899 377.976 375.114 377.868 375.33C377.868 375.437 377.653 375.545 377.545 375.545Z" fill="#26192A"/>
<path d="M380.238 370.915C380.13 370.915 380.13 370.915 380.023 370.915L375.608 368.331C375.393 368.223 375.393 368.008 375.5 367.793C375.608 367.577 375.823 367.577 376.039 367.685L380.453 370.269C380.669 370.377 380.669 370.592 380.561 370.807C380.561 370.807 380.453 370.915 380.238 370.915Z" fill="#26192A"/>
<path d="M378.087 382.005C377.979 382.005 377.979 382.005 377.872 382.005L370.765 378.883C370.55 378.775 370.442 378.56 370.55 378.344C370.658 378.129 370.873 378.021 371.088 378.129L378.195 381.252C378.41 381.359 378.518 381.575 378.41 381.79C378.41 382.005 378.302 382.005 378.087 382.005Z" fill="#26192A"/>
<path d="M373.675 383.19H373.567L369.691 381.575C369.476 381.467 369.368 381.251 369.476 381.036C369.584 380.821 369.799 380.713 370.014 380.821L373.89 382.436C374.106 382.544 374.213 382.759 374.106 382.974C373.998 383.082 373.89 383.19 373.675 383.19Z" fill="#26192A"/>
<path d="M376.362 378.56C376.255 378.56 376.255 378.56 376.147 378.56L371.948 376.191C371.733 376.083 371.733 375.868 371.84 375.653C371.948 375.437 372.163 375.437 372.379 375.545L376.578 377.914C376.793 378.022 376.793 378.237 376.685 378.452C376.685 378.452 376.578 378.56 376.362 378.56Z" fill="#26192A"/>
<path d="M374.749 390.727C374.642 390.727 374.642 390.727 374.534 390.727L367.32 387.389C367.105 387.281 366.997 387.066 367.105 386.851C367.212 386.635 367.428 386.528 367.643 386.635L374.857 389.973C375.072 390.081 375.18 390.296 375.072 390.511C375.072 390.727 374.965 390.727 374.749 390.727Z" fill="#26192A"/>
<path d="M370.982 391.373H370.875L366.676 389.65C366.46 389.542 366.353 389.327 366.46 389.112C366.568 388.896 366.783 388.789 366.999 388.896L371.198 390.619C371.413 390.727 371.521 390.942 371.413 391.157C371.305 391.373 371.09 391.373 370.982 391.373Z" fill="#26192A"/>
<path d="M373.24 386.528C373.132 386.528 373.132 386.528 373.024 386.528L368.394 384.374C368.179 384.266 368.071 384.051 368.179 383.836C368.287 383.62 368.502 383.513 368.717 383.62L373.347 385.774C373.563 385.882 373.67 386.097 373.563 386.312C373.563 386.42 373.455 386.528 373.24 386.528Z" fill="#26192A"/>
<path d="M371.085 397.833C370.978 397.833 370.978 397.833 370.87 397.833L363.656 394.495C363.441 394.387 363.333 394.172 363.441 393.957C363.548 393.741 363.764 393.634 363.979 393.741L371.193 397.079C371.408 397.187 371.516 397.402 371.408 397.618C371.408 397.833 371.301 397.833 371.085 397.833Z" fill="#26192A"/>
<path d="M367.318 398.479H367.211L363.012 396.756C362.796 396.649 362.688 396.433 362.796 396.218C362.904 396.003 363.119 395.895 363.335 396.003L367.534 397.725C367.749 397.833 367.857 398.048 367.749 398.264C367.641 398.479 367.534 398.479 367.318 398.479Z" fill="#26192A"/>
<path d="M369.683 393.634C369.575 393.634 369.575 393.634 369.467 393.634L364.945 391.588C364.73 391.481 364.622 391.265 364.73 391.05C364.837 390.834 365.053 390.727 365.268 390.834L369.79 392.88C370.006 392.988 370.113 393.203 370.006 393.419C369.898 393.526 369.79 393.634 369.683 393.634Z" fill="#26192A"/>
<path d="M367.532 405.155C367.425 405.155 367.425 405.155 367.317 405.155L360.211 401.817C359.995 401.709 359.888 401.494 359.995 401.279C360.103 401.063 360.318 400.956 360.534 401.063L367.64 404.401C367.855 404.509 367.963 404.724 367.855 404.939C367.855 405.047 367.64 405.155 367.532 405.155Z" fill="#26192A"/>
<path d="M363.764 405.801H363.656L359.457 404.078C359.241 403.97 359.134 403.755 359.241 403.54C359.349 403.324 359.564 403.217 359.78 403.324L363.979 405.047C364.194 405.155 364.302 405.37 364.194 405.585C363.979 405.693 363.871 405.801 363.764 405.801Z" fill="#26192A"/>
<path d="M366.03 400.956H365.922L361.508 399.233C361.292 399.125 361.185 398.91 361.292 398.694C361.4 398.479 361.615 398.371 361.831 398.479L366.245 400.202C366.46 400.31 366.568 400.525 366.46 400.74C366.353 400.848 366.245 400.956 366.03 400.956Z" fill="#26192A"/>
<path d="M364.523 413.23C364.415 413.23 364.415 413.23 364.308 413.23L357.094 409.892C356.878 409.785 356.771 409.569 356.878 409.354C356.986 409.139 357.201 409.031 357.417 409.139L364.631 412.476C364.846 412.584 364.954 412.799 364.846 413.015C364.846 413.122 364.631 413.23 364.523 413.23Z" fill="#26192A"/>
<path d="M360.65 413.876H360.543L356.343 412.153C356.128 412.046 356.021 411.83 356.128 411.615C356.236 411.4 356.451 411.292 356.667 411.4L360.866 413.122C361.081 413.23 361.189 413.445 361.081 413.661C360.973 413.768 360.866 413.876 360.65 413.876Z" fill="#26192A"/>
<path d="M363.013 409.031C362.905 409.031 362.905 409.031 362.798 409.031L358.168 406.877C357.952 406.77 357.845 406.554 357.952 406.339C358.06 406.124 358.275 406.016 358.491 406.124L363.121 408.277C363.336 408.385 363.444 408.6 363.336 408.815C363.336 408.923 363.121 409.031 363.013 409.031Z" fill="#26192A"/>
<path d="M360.863 420.444C360.755 420.444 360.755 420.444 360.647 420.444L353.433 417.106C353.218 416.999 353.11 416.783 353.218 416.568C353.326 416.352 353.541 416.245 353.756 416.352L360.97 419.69C361.186 419.798 361.293 420.013 361.186 420.229C361.186 420.336 360.97 420.444 360.863 420.444Z" fill="#26192A"/>
<path d="M356.979 421.09H356.871L352.672 419.367C352.456 419.26 352.349 419.044 352.456 418.829C352.564 418.614 352.779 418.506 352.995 418.614L357.194 420.336C357.409 420.444 357.517 420.659 357.409 420.875C357.301 420.982 357.194 421.09 356.979 421.09Z" fill="#26192A"/>
<path d="M359.353 416.245C359.245 416.245 359.245 416.245 359.137 416.245L354.508 414.091C354.292 413.984 354.185 413.768 354.292 413.553C354.4 413.338 354.615 413.23 354.831 413.338L359.46 415.491C359.676 415.599 359.783 415.814 359.676 416.029C359.676 416.137 359.46 416.245 359.353 416.245Z" fill="#26192A"/>
<path d="M536.581 569.892C535.073 569.892 533.458 569.785 531.843 569.462C531.628 569.462 531.52 569.246 531.52 569.031C531.52 568.816 531.735 568.708 531.951 568.708C533.458 569.031 535.073 569.139 536.473 569.139C536.688 569.139 537.011 569.139 537.227 569.139C537.442 569.139 537.657 569.354 537.657 569.569C537.657 569.785 537.442 570 537.227 570C537.119 569.892 536.796 569.892 536.581 569.892ZM542.61 569.031C542.395 569.031 542.287 568.923 542.179 568.708C542.072 568.493 542.287 568.277 542.502 568.17C544.118 567.631 545.733 566.985 547.348 566.124C547.563 566.016 547.778 566.124 547.886 566.232C547.994 566.447 547.886 566.662 547.778 566.77C546.163 567.739 544.441 568.385 542.718 568.923C542.718 569.031 542.718 569.031 542.61 569.031ZM526.782 567.954H526.675C525.06 567.308 523.445 566.555 521.722 565.585C521.507 565.478 521.506 565.262 521.614 565.047C521.722 564.832 521.937 564.832 522.153 564.939C523.768 565.801 525.383 566.662 526.998 567.201C527.213 567.308 527.321 567.524 527.213 567.739C527.105 567.847 526.998 567.954 526.782 567.954ZM551.978 563.647C551.87 563.647 551.762 563.647 551.655 563.54C551.547 563.324 551.439 563.109 551.655 563.001L551.762 562.894C552.947 561.817 554.131 560.417 554.992 558.91C555.1 558.695 555.315 558.694 555.531 558.802C555.746 558.91 555.746 559.125 555.638 559.341C554.669 560.956 553.485 562.355 552.193 563.54C552.193 563.647 552.085 563.647 551.978 563.647ZM517.415 562.678C517.307 562.678 517.2 562.678 517.2 562.571C515.8 561.494 514.293 560.417 513 559.233C512.785 559.125 512.785 558.802 513 558.695C513.108 558.479 513.431 558.479 513.539 558.695C514.939 559.879 516.338 560.956 517.738 562.032C517.953 562.14 517.953 562.463 517.846 562.571C517.63 562.678 517.523 562.678 517.415 562.678ZM509.34 555.572C509.232 555.572 509.124 555.572 509.017 555.464L508.694 555.034C508.586 554.926 508.586 554.818 508.586 554.711C508.586 554.495 508.801 554.28 509.017 554.28C509.124 554.28 509.232 554.388 509.34 554.495L509.663 554.818C509.77 555.034 509.77 555.249 509.663 555.357C509.447 555.572 509.447 555.572 509.34 555.572ZM557.576 554.711H557.469C557.253 554.603 557.146 554.388 557.253 554.172C557.792 552.665 558.223 550.834 558.546 549.004C558.546 548.789 558.761 548.681 558.976 548.681C559.192 548.681 559.299 548.896 559.299 549.112C558.976 551.05 558.438 552.773 557.899 554.388C557.899 554.603 557.684 554.711 557.576 554.711ZM559.622 544.159C559.407 544.159 559.192 543.944 559.192 543.728C559.407 542.005 559.515 540.283 559.515 538.345C559.515 538.129 559.73 537.914 559.945 537.914C560.161 537.914 560.376 538.129 560.376 538.345C560.268 540.283 560.161 542.005 560.053 543.728C560.053 543.944 559.838 544.159 559.622 544.159ZM560.053 533.392C559.838 533.392 559.622 533.176 559.622 532.961C559.622 531.238 559.515 529.408 559.407 527.577C559.407 527.362 559.515 527.147 559.838 527.147C560.053 527.147 560.268 527.254 560.268 527.577C560.376 529.408 560.376 531.238 560.484 532.961C560.484 533.176 560.268 533.392 560.053 533.392ZM559.515 522.625C559.299 522.625 559.084 522.517 559.084 522.302C558.976 520.471 558.761 518.748 558.653 516.918C558.653 516.703 558.761 516.487 558.976 516.487C559.192 516.487 559.407 516.595 559.407 516.81C559.622 518.641 559.73 520.363 559.838 522.194C559.945 522.409 559.73 522.625 559.515 522.625ZM558.438 511.857C558.222 511.857 558.007 511.75 558.007 511.534C557.792 509.704 557.576 507.981 557.361 506.151C557.361 505.935 557.469 505.72 557.684 505.72C557.899 505.72 558.115 505.828 558.115 506.043C558.33 507.766 558.545 509.596 558.761 511.427C558.869 511.642 558.653 511.857 558.438 511.857ZM557.146 501.198C556.93 501.198 556.823 501.09 556.715 500.875L556.607 500.337C556.392 498.721 556.177 497.106 555.961 495.491C555.961 495.276 556.069 495.061 556.284 495.061C556.5 495.061 556.715 495.168 556.715 495.384C556.93 496.999 557.146 498.506 557.361 500.229L557.469 500.767C557.577 500.983 557.469 501.198 557.146 501.198ZM555.854 490.538C555.638 490.538 555.423 490.431 555.423 490.215C555.208 488.385 554.992 486.555 554.885 484.832C554.885 484.616 554.992 484.401 555.208 484.401C555.423 484.401 555.638 484.509 555.638 484.724C555.746 486.447 555.961 488.17 556.177 490.108C556.284 490.323 556.069 490.538 555.854 490.538ZM556.284 480.848C556.177 480.848 556.177 480.848 556.284 480.848H556.069C554.239 480.74 552.516 480.094 551.009 478.91C550.793 478.802 550.793 478.479 550.901 478.372C551.009 478.156 551.332 478.156 551.439 478.264C552.839 479.341 554.346 479.879 556.069 479.987H556.177C556.392 479.987 556.607 480.202 556.5 480.417C556.607 480.633 556.392 480.848 556.284 480.848ZM561.56 480.202C561.345 480.202 561.237 480.094 561.13 479.987C561.022 479.771 561.13 479.556 561.345 479.448C563.068 478.802 564.36 477.833 565.329 476.326C565.437 476.11 565.652 476.11 565.867 476.218C566.083 476.326 566.083 476.541 565.975 476.756C565.006 478.264 563.498 479.448 561.56 480.094C561.668 480.202 561.56 480.202 561.56 480.202ZM554.992 479.771C554.777 479.771 554.562 479.556 554.562 479.341C554.562 478.372 554.454 477.403 554.454 476.541C554.454 475.572 554.454 474.711 554.562 473.957C554.562 473.742 554.777 473.526 554.992 473.526C555.208 473.526 555.423 473.742 555.423 473.957C555.423 474.711 555.315 475.572 555.315 476.541C555.315 477.403 555.315 478.372 555.423 479.341C555.315 479.556 555.208 479.771 554.992 479.771ZM547.778 474.926C547.671 474.926 547.455 474.818 547.455 474.711C546.594 473.311 545.84 471.588 545.194 469.758C545.087 469.542 545.194 469.327 545.41 469.219C545.625 469.112 545.84 469.219 545.948 469.435C546.594 471.265 547.348 472.88 548.101 474.28C548.209 474.495 548.101 474.711 547.994 474.818C547.994 474.926 547.886 474.926 547.778 474.926ZM567.052 471.804C566.836 471.804 566.621 471.588 566.621 471.373C566.513 469.542 565.759 467.927 564.683 466.851C564.467 466.743 564.467 466.42 564.683 466.312C564.79 466.097 565.113 466.097 565.221 466.312C566.513 467.497 567.267 469.327 567.482 471.373C567.482 471.588 567.267 471.804 567.052 471.804ZM555.961 469.112H555.854C555.638 469.004 555.531 468.789 555.638 468.573C556.069 467.389 556.823 466.528 557.576 466.097C558.33 465.666 559.084 465.343 559.838 465.128C560.053 465.02 560.268 465.236 560.376 465.451C560.484 465.666 560.268 465.882 560.053 465.989C559.407 466.205 558.653 466.42 557.899 466.851C557.253 467.281 556.715 467.927 556.284 469.004C556.284 469.004 556.069 469.112 555.961 469.112ZM544.118 464.805C543.902 464.805 543.794 464.697 543.687 464.482C543.364 462.867 543.041 461.036 542.718 459.098C542.718 458.883 542.825 458.668 543.041 458.668C543.256 458.668 543.472 458.775 543.472 458.991C543.687 460.821 544.01 462.652 544.441 464.267C544.548 464.59 544.441 464.805 544.118 464.805C544.118 464.805 544.225 464.805 544.118 464.805ZM542.61 454.145C542.395 454.145 542.179 454.038 542.179 453.822C542.072 452.1 541.964 450.269 541.856 448.439C541.856 448.224 542.072 448.008 542.287 448.008C542.502 448.008 542.718 448.224 542.718 448.439C542.825 450.269 542.933 452.1 543.041 453.822C543.041 453.93 542.825 454.145 542.61 454.145ZM542.072 443.378C541.856 443.378 541.641 443.271 541.641 443.055C541.641 439.717 541.749 437.672 541.749 437.672C541.749 437.456 541.964 437.241 542.179 437.241C542.395 437.241 542.61 437.456 542.61 437.672C542.61 437.672 542.502 439.825 542.502 442.948C542.502 443.163 542.395 443.378 542.072 443.378Z" fill="#26192A"/>
<path d="M405.107 545.666C399.724 545.666 394.017 541.252 388.31 532.746C384.111 526.393 381.419 519.933 381.312 519.933C381.204 519.717 381.312 519.502 381.527 519.394L409.091 507.335C409.306 507.227 409.522 507.335 409.629 507.55C410.06 508.412 419.104 529.515 414.044 540.067C412.752 542.759 410.598 544.589 407.584 545.343C406.722 545.559 405.861 545.666 405.107 545.666ZM382.173 519.933C383.573 523.055 393.586 544.913 405 544.913C405.753 544.913 406.615 544.805 407.368 544.589C410.06 543.836 412.106 542.221 413.29 539.744C417.812 530.269 410.275 511.211 408.983 508.304L382.173 519.933Z" fill="#26192A"/>
<path d="M394.346 546.205C393.377 546.205 392.3 545.666 391.869 545.02C391.439 544.482 391.439 543.836 391.762 543.405C391.869 543.19 392.085 543.19 392.3 543.297C392.515 543.405 392.515 543.62 392.408 543.836C392.3 543.943 392.192 544.159 392.515 544.589C392.946 545.128 394.023 545.559 394.884 545.343C395.53 545.128 395.961 544.482 396.069 543.62C396.069 542.867 395.961 542.436 395.638 542.005C394.776 541.036 392.408 541.144 390.039 541.252C385.84 541.359 380.671 541.467 378.626 536.945C377.549 534.468 377.441 532.315 378.41 530.377C380.025 527.039 384.117 525.855 384.332 525.855C384.548 525.747 384.763 525.962 384.871 526.178C384.978 526.393 384.763 526.608 384.548 526.716C384.548 526.716 380.671 527.793 379.164 530.808C378.41 532.53 378.41 534.468 379.487 536.729C381.317 540.821 385.947 540.713 390.147 540.606C392.838 540.498 395.207 540.498 396.392 541.682C396.93 542.221 397.145 542.974 397.038 543.836C396.93 545.559 395.853 546.097 395.315 546.312C394.884 546.205 394.561 546.205 394.346 546.205Z" fill="#26192A"/>
<path d="M418.349 536.406C417.918 536.406 417.272 536.299 416.626 535.76C415.765 535.222 415.334 534.468 415.119 533.715C414.796 532.1 416.195 530.269 417.703 528.223C420.072 525.101 422.763 521.44 421.148 517.133C420.395 515.087 419.21 513.688 417.595 513.149C414.903 512.18 411.781 514.118 411.781 514.118C411.566 514.226 411.35 514.226 411.243 514.011C411.135 513.795 411.135 513.58 411.35 513.472C411.458 513.365 414.796 511.319 417.918 512.396C419.749 513.042 421.041 514.441 421.902 516.81C423.625 521.548 420.718 525.424 418.349 528.654C416.949 530.592 415.657 532.315 415.873 533.607C415.98 534.145 416.303 534.684 416.949 535.114C417.488 535.545 418.349 535.868 418.995 535.33C419.749 534.791 419.964 533.715 419.856 532.961C419.749 532.638 419.533 532.423 419.318 532.423C419.103 532.423 418.887 532.207 418.995 531.992C418.995 531.777 419.21 531.561 419.426 531.669C420.072 531.777 420.502 532.207 420.718 532.853C420.933 533.822 420.61 535.33 419.641 536.083C419.318 536.191 418.887 536.406 418.349 536.406Z" fill="#26192A"/>
<path d="M412.866 553.311C412.758 553.311 412.543 553.203 412.543 553.096L408.882 544.482C408.774 544.266 408.882 544.051 409.097 543.943C409.313 543.836 409.528 543.943 409.636 544.159L413.297 552.772C413.404 552.988 413.297 553.203 413.081 553.311C412.974 553.311 412.866 553.311 412.866 553.311Z" fill="#26192A"/>
<path d="M408.881 555.68C408.773 555.68 408.558 555.572 408.558 555.464C408.45 555.249 408.558 555.034 408.773 554.926L418.679 550.296C418.894 550.188 419.11 550.296 419.217 550.511C419.325 550.727 419.217 550.942 419.002 551.05L409.096 555.68C408.989 555.68 408.881 555.68 408.881 555.68Z" fill="#26192A"/>
<path d="M388.427 521.332C387.566 521.332 386.597 521.332 385.628 521.225C385.412 521.225 385.305 521.117 385.305 520.902C385.305 520.686 385.412 520.579 385.52 520.471L406.731 510.781C406.839 510.673 407.054 510.78 407.162 510.888C407.27 510.996 407.27 511.211 407.27 511.319C407.162 511.427 401.994 521.332 388.427 521.332ZM387.243 520.579C387.566 520.579 387.996 520.579 388.319 520.579C398.764 520.579 404.04 514.657 405.762 512.073L387.243 520.579Z" fill="#26192A"/>
<path d="M535.716 560.31C535.608 560.31 535.608 560.31 535.716 560.31C535.393 560.202 535.285 559.987 535.285 559.771L537.762 549.65C537.762 549.435 537.977 549.327 538.3 549.327C538.515 549.327 538.623 549.65 538.623 549.866L536.147 559.987C536.039 560.202 535.824 560.31 535.716 560.31Z" fill="#26192A"/>
<path d="M541.099 555.788L531.409 553.742C531.194 553.742 531.086 553.526 531.086 553.311C531.086 553.096 531.301 552.988 531.517 552.988L541.099 555.034C541.315 555.034 541.422 555.249 541.422 555.465C541.53 555.68 541.315 555.788 541.099 555.788Z" fill="#26192A"/>
<path d="M539.372 559.018C539.264 559.018 539.049 558.91 539.049 558.802L534.527 550.404C534.419 550.189 534.527 549.973 534.742 549.866C534.957 549.758 535.173 549.866 535.28 550.081L539.803 558.479C539.91 558.695 539.803 558.91 539.587 559.018C539.48 559.018 539.48 559.018 539.372 559.018Z" fill="#26192A"/>
<path d="M532.913 557.403C532.806 557.403 532.698 557.295 532.59 557.187C532.483 556.972 532.483 556.757 532.698 556.649L540.989 551.373C541.204 551.265 541.419 551.265 541.527 551.481C541.635 551.696 541.635 551.911 541.419 552.019L533.129 557.295C533.021 557.403 532.913 557.403 532.913 557.403Z" fill="#26192A"/>
</svg>
