<svg width="293" height="300" viewBox="0 0 293 300" fill="none" xmlns="http://www.w3.org/2000/svg">
<path d="M21.8615 37C21.7279 37 21.5942 37 21.5942 36.8667C21.4606 36.7333 21.3269 36.4667 21.4605 36.3333L28.2754 21L19.189 12.8667C19.0554 12.7333 18.9217 12.4667 19.0553 12.3333C19.189 12.2 19.3226 12.0667 19.5899 12.0667L31.616 13.4L36.0255 3.26667C36.1591 3.13333 36.2928 3 36.56 3C36.8273 3 36.9609 3.13333 36.9609 3.4L39.6333 14.3333L54.5991 15.9333C54.8664 15.9333 55 16.0667 55 16.3333C55 16.6 55 16.7333 54.7327 16.8667L42.0385 24.6L44.4437 34.4667C44.4437 34.7333 44.4437 34.8667 44.1765 35C44.0429 35.1333 43.7757 35.1333 43.642 35L36.1591 28.2L21.9951 36.8667C21.9951 37 21.8615 37 21.8615 37ZM28.9435 21.6667L22.9304 35.2667L35.491 27.5333L28.9435 21.6667ZM37.0945 27.6667L43.2412 33.1333L41.2368 25.1333L37.0945 27.6667ZM29.3443 20.7333L36.2928 27L40.9696 24.0667L38.8316 15.1333L32.1504 14.4667L29.3443 20.7333ZM39.9006 15.2667L41.9049 23.5333L52.9957 16.7333L39.9006 15.2667ZM20.9261 13.2667L28.5426 20.0667L31.0814 14.3333L20.9261 13.2667ZM32.5513 13.5333L38.5644 14.2L36.2928 5.13333L32.5513 13.5333Z" fill="#26192A"/>
<path d="M72.2524 215C72.1178 215 71.8486 214.865 71.8486 214.73C67.4065 204.489 44.1188 203.68 37.119 203.68C35.5037 203.68 34.5614 203.68 34.5614 203.68C34.2921 203.68 34.1576 203.545 34.023 203.276C30.9269 192.899 0.773997 190.743 0.504775 190.743C0.370164 190.743 0.235569 190.608 0.100958 190.473C-0.0336528 190.339 -0.0336528 190.204 0.100958 190.069L17.1966 148.293C17.3312 148.158 17.4658 148.024 17.6004 148.024C29.7154 147.619 37.5228 152.471 41.965 156.379C45.7341 159.748 47.6186 163.117 48.2917 164.33C52.0608 162.308 56.3683 161.365 60.8105 161.365C75.4831 161.365 88.675 172.415 88.8097 172.55C88.9443 172.685 89.0788 172.955 88.9442 173.089L72.9255 214.73C72.5217 214.865 72.3871 215 72.2524 215ZM36.9844 202.602C45.8687 202.602 66.5988 203.68 72.1179 213.248L87.5981 173.089C85.579 171.472 73.7332 162.443 60.5413 162.443C56.0992 162.443 51.9262 163.521 48.0225 165.543C47.8878 165.677 47.7533 165.677 47.6186 165.543C47.484 165.543 47.3494 165.408 47.3494 165.273C47.2148 165.138 39.8112 148.967 18.6773 148.967C18.408 148.967 18.1388 148.967 17.735 148.967L1.04325 189.8C5.75464 190.204 31.0615 192.764 34.696 202.602C35.0998 202.602 35.9075 202.602 36.9844 202.602Z" fill="#26192A"/>
<path d="M34.4721 204H34.3329C34.0546 203.866 33.9154 203.597 34.0546 203.328L47.9712 165.321C48.1104 165.053 48.3887 164.918 48.6671 165.053C48.9454 165.187 49.0846 165.456 48.9454 165.724L35.0288 203.731C34.8896 203.866 34.6112 204 34.4721 204Z" fill="#26192A"/>
<path d="M72.3712 215C72.2362 215 72.1012 215 72.1012 214.866C71.9662 214.731 60.8944 206.935 34.4303 203.71H34.2953C34.1603 203.575 16.7426 194.032 0.405046 190.941C0.135004 190.941 0 190.672 0 190.403C0 190.134 0.270034 190 0.540075 190C16.4725 193.091 33.3502 202.097 34.7004 202.903C61.4345 206.129 72.3712 213.925 72.7763 214.328C73.0464 214.462 73.0463 214.866 72.9113 215C72.6413 214.866 72.5062 215 72.3712 215Z" fill="#26192A"/>
<path d="M82.4944 178C82.3596 178 82.2248 178 82.0899 177.862C81.9551 177.724 70.764 166.153 50.5393 169.597C50.2696 169.597 50 169.459 50 169.184C50 168.908 50.1348 168.633 50.4045 168.633C61.3258 166.842 69.5506 169.184 74.5394 171.526C79.9326 174.143 82.764 177.036 82.8989 177.173C83.0337 177.311 83.0337 177.724 82.8989 177.862C82.6292 178 82.6292 178 82.4944 178Z" fill="#26192A"/>
<path d="M79.4944 182C79.3596 182 79.2248 182 79.0899 181.862C78.9551 181.724 67.7641 170.153 47.5394 173.597C47.2697 173.597 47 173.459 47 173.184C47 172.908 47.1349 172.633 47.4046 172.633C58.3259 170.842 66.5506 173.184 71.5393 175.526C76.9326 178.143 79.764 181.036 79.8989 181.173C80.0337 181.311 80.0337 181.724 79.8989 181.862C79.764 182 79.6292 182 79.4944 182Z" fill="#26192A"/>
<path d="M79.4943 188C79.3595 188 79.2247 188 79.0898 187.862C78.955 187.725 67.7641 176.153 47.5394 179.597C47.2697 179.597 47 179.459 47 179.184C47 178.908 47.1348 178.633 47.4045 178.633C58.3258 176.842 66.5506 179.184 71.5393 181.526C76.9326 184.143 79.764 187.036 79.8989 187.174C80.0337 187.311 80.0337 187.725 79.8989 187.862C79.764 188 79.6291 188 79.4943 188Z" fill="#26192A"/>
<path d="M77.4943 193C77.3595 193 77.2247 193 77.0898 192.862C76.955 192.724 65.7641 181.153 45.5394 184.597C45.2697 184.597 45 184.459 45 184.184C45 183.908 45.1348 183.633 45.4045 183.633C56.3258 181.842 64.5506 184.184 69.5393 186.526C74.9326 189.143 77.764 192.036 77.8989 192.173C78.0337 192.311 78.0337 192.724 77.8989 192.862C77.764 193 77.6291 193 77.4943 193Z" fill="#26192A"/>
<path d="M74.4944 200C74.3596 200 74.2248 200 74.0899 199.862C73.9551 199.724 62.764 188.153 42.5393 191.597C42.2696 191.597 42 191.459 42 191.184C42 190.908 42.1348 190.633 42.4045 190.633C53.3258 188.842 61.5506 191.184 66.5394 193.526C71.9326 196.143 74.764 199.036 74.8989 199.173C75.0337 199.311 75.0337 199.724 74.8989 199.862C74.764 200 74.6292 200 74.4944 200Z" fill="#26192A"/>
<path d="M72.4943 206C72.3595 206 72.2247 206 72.0898 205.862C71.955 205.725 60.7641 194.153 40.5394 197.597C40.2697 197.597 40 197.459 40 197.184C40 196.908 40.1348 196.633 40.4045 196.633C51.3258 194.842 59.5506 197.184 64.5393 199.526C69.9326 202.143 72.764 205.036 72.8989 205.174C73.0337 205.311 73.0337 205.725 72.8989 205.862C72.6292 205.862 72.4943 206 72.4943 206Z" fill="#26192A"/>
<path d="M43.4143 167C43.2817 167 43.0162 166.862 43.0162 166.723C42.8835 166.585 34.657 152.479 19.5307 155.384C19.2654 155.384 19 155.245 19 154.969C19 154.692 19.1327 154.415 19.398 154.415C35.1877 151.373 43.8123 166.032 43.945 166.17C44.0777 166.447 43.9451 166.723 43.8124 166.862C43.547 167 43.4143 167 43.4143 167Z" fill="#26192A"/>
<path d="M41.5065 172C41.3716 172 41.2365 171.862 41.1016 171.724C40.9666 171.586 31.9247 158.047 16.6748 161.777C16.4049 161.777 16.135 161.639 16 161.363C16 161.086 16.1349 160.81 16.4048 160.672C32.3295 156.804 41.9114 170.895 41.9114 171.033C42.0463 171.309 42.0463 171.586 41.7764 171.724C41.6414 172 41.6415 172 41.5065 172Z" fill="#26192A"/>
<path d="M40.5065 177C40.3715 177 40.2366 176.862 40.1016 176.724C39.9667 176.586 30.9247 163.047 15.6748 166.777C15.4049 166.777 15.135 166.639 15 166.363C15 166.086 15.135 165.81 15.4049 165.672C31.3296 161.804 40.9113 175.895 40.9113 176.033C41.0463 176.309 41.0463 176.586 40.7764 176.724C40.6415 177 40.5065 177 40.5065 177Z" fill="#26192A"/>
<path d="M37.5065 183C37.3715 183 37.2366 182.862 37.1016 182.724C36.9667 182.586 27.9247 169.047 12.6748 172.777C12.4049 172.777 12.135 172.639 12 172.363C12 172.086 12.135 171.81 12.4049 171.672C28.3296 167.804 37.9113 181.895 37.9113 182.033C38.0463 182.309 38.0463 182.586 37.7764 182.724C37.6415 183 37.5065 183 37.5065 183Z" fill="#26192A"/>
<path d="M34.503 189C34.3671 189 34.2312 189 34.0953 188.863C33.9594 188.726 24.0377 176.101 8.67956 179.806C8.40774 179.806 8.13591 179.669 8 179.394C8 179.12 8.1359 178.845 8.40772 178.708C24.4454 174.866 34.7748 187.902 34.9107 188.039C35.0466 188.314 35.0467 188.588 34.7748 188.726C34.6389 189 34.503 189 34.503 189Z" fill="#26192A"/>
<path d="M32.5065 195C32.3715 195 32.2366 194.859 32.1016 194.719C31.9667 194.578 22.9247 182.068 7.67478 185.863C7.40487 185.863 7.13496 185.722 7 185.441C7 185.16 7.13494 184.879 7.40485 184.738C23.3295 180.803 32.7764 193.875 32.9113 194.016C33.0463 194.297 33.0463 194.578 32.7764 194.719C32.7764 195 32.6414 195 32.5065 195Z" fill="#26192A"/>
<path d="M270.491 58C270.236 58 270.109 57.8654 269.981 57.5961L266.034 41.709C265.907 41.4397 266.161 41.1704 266.416 41.0358C266.671 40.9012 266.925 41.1705 267.053 41.4397L271 57.3268C271 57.5961 270.873 57.8654 270.491 58Z" fill="#26192A"/>
<path d="M259.571 52C259.303 52 259.169 51.8758 259.036 51.6275C258.902 51.3791 259.169 51.1308 259.437 51.0066L274.295 47.033C274.563 46.9089 274.831 47.1572 274.964 47.4056C275.098 47.6539 274.831 47.9022 274.563 48.0264L259.705 52C259.705 52 259.705 52 259.571 52Z" fill="#26192A"/>
<path d="M274.495 53C274.357 53 274.356 53 274.218 52.8708L261.229 44.8601C260.953 44.7309 260.953 44.4725 261.091 44.2141C261.229 43.9557 261.505 43.9557 261.782 44.0849L274.771 52.0956C275.047 52.2248 275.047 52.4832 274.909 52.7416C274.909 52.8708 274.633 53 274.495 53Z" fill="#26192A"/>
<path d="M264.462 56C264.336 56 264.336 56 264.209 56C263.957 55.8687 263.957 55.6062 264.083 55.3437L271.159 42.2175C271.285 41.955 271.538 41.955 271.791 42.0862C272.043 42.2175 272.043 42.48 271.917 42.7425L264.841 55.8687C264.715 55.8687 264.588 56 264.462 56Z" fill="#26192A"/>
<path d="M242.491 279C242.236 279 242.109 278.865 241.981 278.596L238.034 262.709C237.907 262.44 238.161 262.17 238.416 262.036C238.671 261.901 238.925 262.17 239.053 262.44L243 278.327C243 278.596 242.873 278.865 242.491 279Z" fill="#26192A"/>
<path d="M231.571 273C231.303 273 231.169 272.876 231.036 272.627C230.902 272.379 231.169 272.131 231.437 272.007L246.295 268.033C246.563 267.909 246.831 268.157 246.964 268.406C247.098 268.654 246.83 268.902 246.563 269.026L231.705 273C231.705 273 231.705 273 231.571 273Z" fill="#26192A"/>
<path d="M246.495 274C246.356 274 246.356 274 246.218 273.871L233.229 265.86C232.953 265.731 232.953 265.472 233.091 265.214C233.229 264.956 233.505 264.956 233.782 265.085L246.771 273.096C247.047 273.225 247.047 273.483 246.909 273.742C246.771 274 246.633 274 246.495 274Z" fill="#26192A"/>
<path d="M236.462 277C236.336 277 236.336 277 236.209 277C235.957 276.869 235.957 276.606 236.083 276.344L243.159 263.217C243.285 262.955 243.538 262.955 243.791 263.086C244.043 263.217 244.043 263.48 243.917 263.743L236.841 276.869C236.715 276.869 236.588 277 236.462 277Z" fill="#26192A"/>
<path d="M49.4611 143C49.2081 143 49.0815 142.865 48.9551 142.596L45.0336 126.709C44.9072 126.44 45.1601 126.17 45.4131 126.036C45.6661 125.901 45.9191 126.17 46.0456 126.44L49.9671 142.327C50.0936 142.731 49.8406 143 49.4611 143C49.5876 143 49.5876 143 49.4611 143Z" fill="#26192A"/>
<path d="M39.571 137C39.3033 137 39.1695 136.876 39.0356 136.627C38.9017 136.379 39.1694 136.131 39.4372 136.007L54.2951 132.033C54.5628 131.909 54.8305 132.157 54.9644 132.406C55.0983 132.654 54.8306 132.902 54.5628 133.026L39.7049 137C39.7049 137 39.7048 137 39.571 137Z" fill="#26192A"/>
<path d="M54.4947 138C54.3565 138 54.3565 138 54.2183 137.871L41.2289 129.86C40.9526 129.731 40.9526 129.472 41.0908 129.214C41.229 128.956 41.5053 128.956 41.7817 129.085L54.7711 137.096C55.0474 137.225 55.0474 137.483 54.9092 137.742C54.771 137.871 54.6329 138 54.4947 138Z" fill="#26192A"/>
<path d="M44.4621 141C44.3357 141 44.3357 141 44.2093 141C43.9566 140.869 43.9567 140.606 44.083 140.344L51.1588 127.217C51.2852 126.955 51.5379 126.955 51.7906 127.086C52.0433 127.217 52.0434 127.48 51.917 127.743L44.8411 140.869C44.8411 140.869 44.7148 141 44.4621 141Z" fill="#26192A"/>
<path d="M273.059 124.865C272.925 124.865 272.792 124.865 272.658 124.73L263.434 115.702C263.3 115.567 263.3 115.298 263.3 115.163L272.658 91.8511L257.017 113.816C256.884 113.95 256.75 113.95 256.616 114.085L246.59 115.163C246.323 115.163 246.189 115.028 246.055 114.894C245.922 114.759 246.055 114.489 246.189 114.355L274.262 87.9433L275.198 87.1348C275.332 87 275.599 87 275.733 87C275.866 87.1348 276 87.2695 276 87.539L273.46 124.596C273.46 124.73 273.326 125 273.193 125C273.059 124.865 273.059 124.865 273.059 124.865ZM264.37 115.163L272.524 123.248L274.93 88.7518L264.37 115.163ZM271.321 91.9858L248.061 113.95L256.349 113.007L271.321 91.9858Z" fill="#26192A"/>
<path d="M263.102 127C262.974 127 262.718 126.865 262.718 126.729L256.05 113.73C255.922 113.459 256.05 113.189 256.307 113.053C256.563 112.918 256.82 113.053 256.948 113.324L262.718 124.698L262.974 115.49C262.974 115.22 263.231 114.949 263.487 114.949C263.744 114.949 264 115.22 264 115.49L263.744 126.729C263.615 126.729 263.487 126.865 263.102 127C263.231 127 263.102 127 263.102 127Z" fill="#26192A"/>
<path d="M263.502 127H263.354C263.058 126.864 262.91 126.593 263.058 126.322L266.906 118.324C267.054 118.053 267.35 117.918 267.646 118.053C267.942 118.189 268.09 118.46 267.942 118.731L264.094 126.729C263.946 126.864 263.798 127 263.502 127Z" fill="#26192A"/>
<path d="M136.241 133.309C136.241 133.309 110.601 140.509 104.426 138.775C98.1169 137.042 97.1771 105.978 81.0682 113.044C64.9593 120.243 71.9399 155.308 89.257 165.307C106.574 175.306 140 154.241 140 154.241L136.241 133.309Z" fill="#FCB82E"/>
<path d="M177.44 109.689C177.44 109.689 204.412 92.8333 234.856 123.038C265.433 153.244 240.197 186.955 217.765 191C217.765 190.865 166.891 147.176 177.44 109.689Z" fill="#F58A28"/>
<path d="M177.979 110C177.979 110 251.808 137.188 206.034 235.981L134.889 238C134.889 238 105.626 177.971 147.776 112.961L177.979 110Z" fill="#FCB82E"/>
<path d="M138.205 210C138.205 210 115.244 245.651 138.205 289H158.749C158.749 289 158.346 251.998 166 227.15L138.205 210Z" fill="#FCB82E"/>
<path d="M181.205 210C181.205 210 158.244 245.651 181.205 289H201.749C201.749 289 201.346 251.998 209 227.15L181.205 210Z" fill="#FCB82E"/>
<path d="M208.811 206.587C208.811 206.587 210.434 245.696 232.751 245.562C255.068 245.427 228.964 198.926 249.793 197.045C258.855 196.238 261.695 206.587 251.687 209.275C247.358 210.484 261.154 243.949 238.973 252.819C216.791 261.689 199.343 242.202 200.019 217.876C200.695 193.55 208.811 206.587 208.811 206.587Z" fill="#FCB82E"/>
<path d="M185.498 208.884C185.498 208.884 194.668 150.369 167.696 144.437C140.724 138.505 128.587 194.592 146.388 215.356C164.055 235.984 182.8 222.636 185.498 208.884Z" fill="#FFFAF0"/>
<path d="M131.546 249C131.273 249 131 248.719 131 248.437C131 248.015 131.273 244.358 132.092 243.233C132.228 242.952 132.637 242.952 132.774 243.092C133.047 243.233 133.047 243.655 132.91 243.796C132.365 244.499 132.092 247.031 131.955 248.437C132.092 248.719 131.819 249 131.546 249Z" fill="#26192A"/>
<path d="M135.546 253C135.273 253 135 252.719 135 252.437C135 252.015 135.273 248.358 136.092 247.233C136.228 246.952 136.637 246.952 136.774 247.092C137.047 247.233 137.047 247.655 136.91 247.796C136.365 248.499 136.092 251.031 135.955 252.437C136.092 252.719 135.819 253 135.546 253Z" fill="#26192A"/>
<path d="M132.69 259C132.507 259 132.415 258.862 132.324 258.585C132.232 258.17 131.773 254.575 132.14 253.331C132.232 253.054 132.415 252.916 132.599 253.054C132.782 253.193 132.874 253.469 132.782 253.746C132.599 254.437 132.782 257.064 132.966 258.447C133.057 258.723 132.966 259 132.69 259C132.782 259 132.69 259 132.69 259Z" fill="#26192A"/>
<path d="M137.69 263C137.507 263 137.415 262.862 137.324 262.585C137.232 262.17 136.773 258.575 137.14 257.331C137.232 257.054 137.415 256.916 137.599 257.054C137.782 257.193 137.874 257.469 137.782 257.746C137.599 258.437 137.782 261.064 137.966 262.447C138.057 262.723 137.966 263 137.69 263Z" fill="#26192A"/>
<path d="M133.697 268C133.512 268 133.42 267.862 133.327 267.585C133.234 267.17 132.771 263.575 133.142 262.331C133.234 262.054 133.42 261.916 133.605 262.054C133.79 262.193 133.883 262.469 133.79 262.746C133.605 263.437 133.79 266.064 133.975 267.447C134.068 267.723 133.883 268 133.697 268Z" fill="#26192A"/>
<path d="M137.69 271C137.507 271 137.415 270.862 137.324 270.585C137.232 270.17 136.773 266.575 137.14 265.331C137.232 265.054 137.415 264.916 137.599 265.054C137.782 265.193 137.874 265.469 137.782 265.746C137.599 266.437 137.782 269.064 137.966 270.447C138.057 270.723 137.966 271 137.69 271Z" fill="#26192A"/>
<path d="M136.592 277C136.472 277 136.231 276.857 136.231 276.714C136.111 276.286 134.789 272.857 135.029 271.429C135.029 271.143 135.27 271 135.51 271C135.751 271 135.871 271.286 135.871 271.571C135.751 272.429 136.472 274.857 136.953 276.143C137.073 276.429 136.953 276.714 136.712 276.857C136.833 277 136.712 277 136.592 277Z" fill="#26192A"/>
<path d="M175.546 248C175.273 248 175 247.719 175 247.437C175 247.015 175.273 243.358 176.092 242.233C176.228 241.952 176.637 241.952 176.774 242.092C177.047 242.233 177.047 242.655 176.91 242.796C176.365 243.499 176.092 246.031 175.955 247.437C176.092 247.719 175.819 248 175.546 248Z" fill="#26192A"/>
<path d="M178.546 252C178.273 252 178 251.719 178 251.437C178 251.015 178.273 247.358 179.092 246.233C179.228 245.952 179.637 245.952 179.774 246.092C180.047 246.233 180.047 246.655 179.91 246.796C179.365 247.499 179.092 250.031 178.955 251.437C179.092 251.859 178.819 252 178.546 252Z" fill="#26192A"/>
<path d="M175.69 258C175.507 258 175.415 257.862 175.324 257.585C175.232 257.17 174.773 253.575 175.14 252.331C175.232 252.054 175.415 251.916 175.599 252.054C175.782 252.193 175.874 252.469 175.782 252.746C175.599 253.437 175.782 256.064 175.966 257.447C176.057 257.585 175.966 257.862 175.69 258C175.782 258 175.69 258 175.69 258Z" fill="#26192A"/>
<path d="M180.69 262C180.507 262 180.415 261.862 180.324 261.585C180.232 261.17 179.773 257.575 180.14 256.331C180.232 256.054 180.415 255.916 180.599 256.054C180.782 256.193 180.874 256.469 180.782 256.746C180.599 257.437 180.782 260.064 180.966 261.447C181.057 261.585 180.966 261.862 180.69 262Z" fill="#26192A"/>
<path d="M177.329 267C176.976 267 176.799 266.862 176.623 266.585C176.446 266.17 175.564 262.575 176.27 261.331C176.446 261.054 176.799 260.916 177.152 261.054C177.505 261.193 177.681 261.469 177.505 261.746C177.152 262.437 177.505 265.064 177.858 266.447C178.211 266.585 177.858 266.862 177.329 267C177.505 267 177.505 267 177.329 267Z" fill="#26192A"/>
<path d="M180.69 270C180.507 270 180.415 269.862 180.324 269.585C180.232 269.17 179.773 265.575 180.14 264.331C180.232 264.054 180.415 263.916 180.599 264.054C180.782 264.193 180.874 264.469 180.782 264.746C180.599 265.437 180.782 268.064 180.966 269.447C181.057 269.723 180.966 270 180.69 270Z" fill="#26192A"/>
<path d="M179.592 276C179.472 276 179.231 275.857 179.231 275.714C179.111 275.286 177.789 271.857 178.029 270.429C178.029 270.143 178.27 270 178.51 270C178.751 270 178.871 270.286 178.871 270.571C178.751 271.429 179.472 273.857 179.953 275.143C180.073 275.429 179.953 275.714 179.712 275.857C179.712 275.857 179.712 276 179.592 276Z" fill="#26192A"/>
<path d="M202.127 130.957C202.127 130.957 197.358 174.037 222 183.461L219.085 191C219.085 191 198.418 183.596 194.708 160.979C192.456 147.651 196.298 130.957 196.298 130.957C196.298 130.957 200.272 128.803 202.127 130.957Z" fill="#F58A28"/>
<path d="M201.905 126.475C201.905 126.475 246.934 119.89 248.962 155.769C250.585 182.51 199.336 177.27 193.386 164.638C187.436 152.006 193.792 144.347 199.606 143.406C205.421 142.466 233.412 152.947 231.654 145.825C230.031 138.703 206.097 142.6 206.097 142.6L201.905 126.475Z" fill="#FCB82E"/>
<path d="M195.625 165C195.086 164.868 184.426 162.619 185.506 157.724C185.641 156.798 186.18 156.136 186.99 155.739C187.53 155.475 188.069 155.342 188.744 155.342C186.046 153.755 183.752 151.77 184.022 149.389C184.157 148.595 184.561 148.066 185.236 147.669C186.99 146.743 190.228 147.537 193.197 148.463C191.173 147.007 189.419 145.42 189.149 144.097C189.014 143.568 189.284 143.039 189.688 142.642C192.522 139.996 201.832 146.346 202.776 147.007C203.046 147.14 203.046 147.537 202.911 147.669C202.776 147.934 202.372 147.934 202.237 147.801C198.594 145.288 192.117 141.716 190.363 143.303C190.228 143.435 190.093 143.7 190.093 143.965C190.363 145.817 195.625 149.124 198.864 150.844C199.133 150.976 199.268 151.241 199.133 151.506C198.998 151.77 198.729 151.902 198.459 151.77C195.76 150.447 188.204 147.404 185.776 148.595C185.371 148.86 185.101 149.124 185.101 149.521C184.696 151.902 188.609 154.284 191.982 155.871C194.006 156.401 195.625 157.327 195.76 157.327C196.03 157.459 196.03 157.724 196.03 157.988C195.895 158.253 195.625 158.385 195.355 158.253C195.221 158.253 193.601 157.724 191.578 156.798C189.958 156.401 188.339 156.136 187.395 156.533C186.855 156.798 186.585 157.194 186.45 157.856C185.776 161.031 192.927 163.28 195.76 163.942C196.03 163.942 196.165 164.206 196.165 164.471C196.165 164.735 195.895 165 195.625 165Z" fill="#26192A"/>
<path d="M138 128C138 128 111.755 149.632 124.484 189C124.484 189 125.14 151.513 138 128Z" fill="#F58A28"/>
<path d="M76.0844 121C75.8129 121 75.6772 120.866 75.5415 120.598C75.27 119.26 72.6914 107.614 74.8629 105.339C75.27 104.937 75.6772 104.803 76.2201 104.937C77.9844 105.205 79.3416 107.48 80.1559 109.89C80.1559 107.48 80.4274 105.205 81.5131 104.402C81.7845 104.134 82.3274 103.866 83.1417 104.268C85.3132 105.071 86.8061 108.551 87.6204 111.496C87.7561 108.417 88.0276 104.937 89.3847 104.134C89.6562 104 90.199 103.866 90.8776 104.268C94.1348 106.276 93.9992 118.323 93.9992 119.661C93.9992 119.929 93.7277 120.197 93.4563 120.197C93.1849 120.197 92.9134 119.929 92.9134 119.661C92.9134 116.047 92.5062 106.543 90.199 105.071C89.9276 104.937 89.7919 104.937 89.7919 104.937C88.5704 105.606 88.4348 111.764 88.5705 115.913C88.5705 116.181 88.4347 116.449 88.1632 116.449C87.8918 116.449 87.6204 116.315 87.6204 116.047C87.2133 113.37 85.3132 106.276 82.7345 105.205C82.3274 105.071 82.1917 105.205 82.0559 105.205C80.6988 106.276 80.9702 112.433 81.5131 116.047C81.5131 116.315 81.3774 116.583 81.106 116.583C80.8345 116.583 80.5631 116.449 80.5631 116.181C80.1559 113.504 78.663 106.409 76.0844 106.008C75.9487 106.008 75.813 106.008 75.6772 106.142C74.3201 107.614 75.5415 115.646 76.6272 120.465C76.6272 120.732 76.4915 121 76.0844 121C76.2201 121 76.0844 121 76.0844 121Z" fill="#26192A"/>
<path d="M149.025 296C148.486 296 147.948 295.87 147.409 295.739C146.466 295.348 146.062 294.826 145.928 294.304C144.042 295.348 142.022 296 140.137 295.609C139.06 295.348 138.656 294.826 138.521 294.304C138.387 293.521 138.925 292.478 139.733 291.434C137.444 292.608 135.155 293.391 133.943 292.478C133.135 291.956 133 291.304 133 290.782C133.135 288.695 136.771 286.347 137.175 286.086C137.444 285.955 137.713 285.955 137.848 286.216C137.983 286.477 137.983 286.738 137.713 286.868C136.771 287.521 134.077 289.477 134.077 290.782C134.077 291.043 134.077 291.304 134.616 291.695C135.963 292.739 140.002 290.391 143.234 288.042C144.312 287.129 145.389 286.347 145.793 286.086C146.062 285.955 146.332 285.955 146.466 286.216C146.601 286.477 146.601 286.738 146.466 286.868C146.197 287.129 145.254 287.912 144.042 288.695C141.618 290.651 139.464 293 139.598 294.043C139.598 294.304 139.868 294.435 140.406 294.565C142.157 294.956 144.312 294.043 146.197 292.869C147.14 290.782 151.045 288.825 151.584 288.564C151.853 288.434 152.122 288.564 152.257 288.695C152.392 288.825 152.392 289.086 152.257 289.347C152.122 289.477 149.833 291.826 147.005 293.652C147.005 293.782 147.005 293.782 147.005 293.913C147.005 294.043 147.005 294.435 147.948 294.826C151.045 296.261 157.105 290.912 159.125 288.825C159.259 288.564 159.663 288.564 159.798 288.825C160.067 288.956 160.067 289.347 159.798 289.477C159.529 289.738 153.469 296 149.025 296Z" fill="#26192A"/>
<path d="M193.025 296C192.486 296 191.948 295.87 191.409 295.739C190.466 295.348 190.062 294.826 189.928 294.304C188.042 295.348 186.022 296 184.137 295.609C183.06 295.348 182.656 294.826 182.521 294.304C182.386 293.521 182.925 292.478 183.733 291.434C181.444 292.608 179.155 293.391 177.943 292.478C177.135 291.956 177 291.304 177 290.782C177.135 288.695 180.771 286.347 181.175 286.086C181.444 285.955 181.713 285.955 181.848 286.216C181.983 286.477 181.983 286.738 181.713 286.868C180.771 287.521 178.077 289.477 178.077 290.782C178.077 291.043 178.077 291.304 178.616 291.695C179.963 292.739 184.002 290.391 187.234 288.042C188.312 287.129 189.389 286.347 189.793 286.086C190.062 285.955 190.332 285.955 190.466 286.216C190.601 286.477 190.601 286.738 190.466 286.868C190.197 287.129 189.254 287.912 188.042 288.695C185.618 290.651 183.464 293 183.599 294.043C183.599 294.304 183.868 294.435 184.406 294.565C186.157 294.956 188.312 294.043 190.197 292.869C191.14 290.782 195.045 288.825 195.584 288.564C195.853 288.434 196.122 288.564 196.257 288.695C196.391 288.825 196.391 289.086 196.257 289.347C196.122 289.477 193.833 291.826 191.005 293.652C191.005 293.782 191.005 293.782 191.005 293.913C191.005 294.043 191.005 294.435 191.948 294.826C195.179 296.261 201.105 290.912 203.125 288.825C203.259 288.564 203.663 288.564 203.798 288.825C204.067 288.956 204.067 289.347 203.798 289.477C203.394 289.738 197.469 296 193.025 296Z" fill="#26192A"/>
<path d="M239.801 203.071C239.801 203.071 235.885 190.383 244.663 190.784C253.44 191.184 254.79 199.465 249.119 197.194C243.447 195.057 252.09 186.51 257.626 191.585C263.298 196.66 265.053 203.739 258.301 203.471C251.549 203.204 255.195 198.931 260.057 201.735C264.918 204.54 263.703 210.416 256.816 212.82C249.929 215.224 248.038 208.413 251.819 209.214C255.601 210.149 258.976 216.293 251.279 216.96C243.582 217.628 239.936 209.615 244.392 209.348C248.849 209.214 247.903 215.091 241.962 215.625C236.02 216.159 232.239 199.865 237.506 198.53C242.907 197.461 244.258 204.941 239.801 203.071Z" fill="#FFFAF0"/>
<path d="M250.846 217C248.679 217 246.648 216.333 245.023 215.133C244.21 215.4 243.398 215.667 242.585 215.8C238.794 216.2 235.814 210.6 235.137 205.267C234.596 201.133 235.679 198.333 237.981 197.8C238.252 197.667 238.658 197.667 238.929 197.667C238.794 194.867 239.335 192.733 240.554 191.4C241.637 190.2 243.127 189.667 245.158 189.8C246.783 189.933 248.273 190.2 249.491 190.733C250.846 189.667 252.606 189 254.231 189C255.856 189 257.346 189.533 258.564 190.733C261.95 193.667 263.981 197.4 263.71 200.067C263.71 201 263.304 201.8 262.762 202.467C263.845 203.8 264.252 205.4 263.845 207C263.304 209.533 260.866 211.667 257.346 212.867C257.075 213 256.939 213 256.804 213C256.939 213.8 256.668 214.467 256.262 215.133C255.45 216.2 253.96 216.867 251.794 217C251.523 217 251.252 217 250.846 217ZM246.106 214.6C247.731 215.667 249.627 216.2 251.794 216.067C253.689 215.933 255.043 215.4 255.585 214.6C255.856 214.2 255.991 213.8 255.991 213.267C253.554 213.667 251.387 212.867 250.439 211.267C250.033 210.467 249.898 209.667 250.304 209C250.71 208.333 251.523 208.067 252.606 208.333C254.366 208.733 256.127 210.333 256.804 212.067C256.939 212.067 257.21 211.933 257.346 211.933C260.46 210.867 262.627 209 263.168 206.733C263.439 205.4 263.168 204.067 262.22 203C261.543 203.4 260.595 203.533 259.512 203.533H259.106C255.179 203.4 254.908 201.933 254.908 201.533C254.908 200.6 256.127 199.8 257.752 199.8C258.564 199.8 259.783 199.933 261.137 200.733C261.543 201 261.95 201.267 262.356 201.533C262.762 201.133 263.033 200.6 263.033 199.8C263.168 197.4 261.273 194.067 258.158 191.267C257.075 190.333 255.856 189.8 254.502 189.8C253.283 189.8 251.929 190.2 250.846 191C253.148 192.467 254.096 194.467 253.825 195.8C253.554 197.267 251.929 197.667 249.762 196.867C248.273 196.333 247.731 195.267 247.596 194.6C247.46 193.533 247.866 192.2 248.95 191.133C247.866 190.733 246.648 190.467 245.429 190.467C243.804 190.333 242.45 190.867 241.637 191.667C240.283 193 240.148 195.4 240.283 197.267C242.585 197.533 243.804 199.667 243.804 201.133C243.804 202.733 242.314 203.533 240.419 202.733C240.283 202.733 240.148 202.6 240.148 202.467C240.148 202.333 239.606 200.6 239.335 198.333C239.064 198.333 238.794 198.333 238.523 198.467C236.492 199 236.085 202.067 236.492 204.867C237.033 209.667 239.742 214.867 242.721 214.467C243.398 214.467 243.939 214.333 244.481 214.067C243.127 212.6 242.45 210.867 242.856 209.667C242.991 209.133 243.533 208.2 245.158 208.2H245.429C247.054 208.2 248.137 209 248.544 210.2C248.544 211.933 247.596 213.533 246.106 214.6ZM245.158 209.4H245.023C244.21 209.4 243.804 209.667 243.669 210.2C243.398 211 243.939 212.6 245.294 213.933C246.919 213 247.46 211.667 247.325 210.733C247.054 209.933 246.241 209.4 245.158 209.4ZM251.658 209.133C251.387 209.133 251.116 209.267 250.981 209.4C250.846 209.667 250.846 210.2 251.116 210.6C251.387 211 252.2 212.2 254.502 212.2C254.908 212.2 255.179 212.2 255.585 212.067C255.043 210.733 253.554 209.533 252.2 209.133C251.929 209.133 251.793 209.133 251.658 209.133ZM257.346 200.867C256.127 200.867 255.585 201.267 255.585 201.533C255.585 201.8 256.398 202.467 258.835 202.467H259.106C259.918 202.467 260.595 202.333 261.137 202.2C260.866 202.067 260.596 201.8 260.325 201.667C259.106 201 258.023 200.867 257.346 200.867ZM240.689 202.2C240.96 202.333 241.366 202.333 241.502 202.333C242.179 202.333 242.45 201.8 242.45 201.4C242.45 200.333 241.637 199 240.012 198.6C240.283 200.333 240.554 201.667 240.689 202.2ZM249.627 191.933C248.679 192.867 248.137 193.933 248.273 194.733C248.408 195.4 248.95 195.933 249.762 196.2C251.252 196.733 252.2 196.6 252.471 195.8C252.741 194.733 251.658 193 249.627 191.933Z" fill="#26192A"/>
<path d="M113.867 26.8683C113.867 26.8683 116.683 7.21717 135.056 7.89015C146.187 8.29394 142.567 24.984 137.605 20.6769C132.642 16.3698 146.992 -7.58849 162.817 4.25603C177.435 15.1584 169.522 22.1574 165.901 20.8115C162.281 19.4655 168.718 -0.454858 181.861 2.10248C200.502 5.8712 199.161 24.984 190.98 26.7337C182.799 28.4835 195.674 5.46741 209.487 12.0627C223.3 18.6579 222.093 33.1944 214.851 34.4057C207.609 35.6171 219.411 11.6589 233.493 22.8304C247.574 34.002 246.233 56.345 233.493 58.0948C220.752 59.8446 223.568 47.1924 237.248 54.0569C250.927 60.9213 245.16 83.8028 230.408 84.072C215.656 84.3412 222.093 72.2275 230.676 79.4957C239.259 86.7639 243.148 107.357 225.446 110.184C207.744 113.01 210.292 96.0511 219.813 103.992C229.335 111.934 225.446 128.893 204.123 132.931C182.799 136.834 194.601 113.01 198.222 119.875C201.843 126.739 190.578 136.969 176.496 136.161C162.415 135.353 165.633 117.317 170.193 119.875C174.887 122.432 178.374 141.141 158.257 136.161C138.141 131.181 133.849 115.164 140.689 117.183C147.663 119.202 150.747 136.43 132.508 132.931C114.269 129.431 109.173 102.108 119.097 102.512C129.021 102.916 122.718 123.644 111.185 119.336C99.6516 115.029 93.7508 96.3203 105.821 90.3981C117.89 84.4758 103.541 108.03 93.3485 95.9165C83.1562 83.8028 94.9578 61.5943 102.602 67.7858C110.112 74.1118 91.7392 77.6113 89.4593 66.4398C87.1795 55.2683 93.6167 37.7707 103.675 40.4626C113.733 43.1545 112.124 47.5962 107.43 49.2114C99.9199 52.0379 97.7741 29.5603 105.15 22.6958C113.867 14.7546 125.266 18.6579 123.121 26.5991C120.975 34.5403 111.99 30.7716 113.867 26.8683Z" fill="#FFFAF0"/>
<path d="M164.66 137C162.784 137 160.774 136.731 158.497 136.193C153.406 134.983 149.118 132.967 145.501 130.278C144.295 131.757 141.884 133.504 137.462 133.504C136.122 133.504 134.515 133.37 132.907 133.101C126.074 131.757 120.313 127.051 116.83 119.925C115.088 120.329 113.346 120.194 111.605 119.522C104.102 116.699 98.4749 107.422 99.4128 99.4897C97.2691 99.0864 95.3934 97.8763 93.6517 95.8597C87.7567 88.8685 88.8285 78.5162 92.8478 71.6595C91.1061 70.315 90.0343 68.4328 89.4984 66.1472C88.0246 59.0216 89.9004 49.8793 94.0537 44.2326C96.0633 41.5437 98.3409 39.7959 100.886 39.3925C100.351 33.4769 101.556 25.6791 105.576 22.0491C108.791 19.0913 112.543 17.4779 116.16 17.4779C116.428 17.4779 116.562 17.4779 116.83 17.4779C119.643 12.369 125.136 6.58783 135.453 6.85672C137.328 6.85672 138.802 7.39451 140.142 8.33562C143.893 3.09225 149.118 0 154.343 0C157.559 0 160.64 1.07556 163.588 3.36114C165.598 4.84004 167.205 6.31894 168.545 7.79784C170.421 4.97448 174.306 0.941118 179.933 0.941118C180.737 0.941118 181.541 1.07556 182.345 1.21001C189.713 2.68891 194.939 6.72228 196.814 12.5034C201.102 9.68008 205.791 9.1423 210.078 11.159C214.767 13.4446 218.251 16.8057 219.992 20.8391C224.548 18.0157 229.639 18.419 234.194 22.0491C240.223 26.8891 244.108 34.2836 244.51 41.8126C244.778 47.0559 243.304 51.7615 240.491 54.7193C244.778 58.0805 246.788 63.7272 245.716 69.7772C244.644 76.0962 240.625 81.3396 235.266 83.2218C238.347 88.3307 240.223 95.9941 237.543 102.044C235.534 106.481 231.648 109.17 226.021 110.111C225.753 110.111 225.619 110.245 225.351 110.245C226.289 114.01 225.753 118.043 223.476 121.539C220.126 127.185 213.427 131.084 204.719 132.698C203.111 132.967 201.637 133.101 200.298 133.101C197.484 133.101 195.341 132.429 193.867 131.219C189.713 134.177 184.22 135.924 178.593 135.924C178.057 135.924 177.521 135.924 176.986 135.924C175.11 135.79 173.368 135.387 171.894 134.58C170.019 136.328 167.607 137 164.66 137ZM146.037 129.471C149.52 132.026 153.808 134.042 158.765 135.252C164.124 136.597 168.277 136.328 170.823 134.446C166.267 131.488 165.731 125.707 166.535 122.345C167.071 120.06 168.277 118.715 169.751 118.715C170.153 118.715 170.555 118.85 170.957 118.984C172.832 119.925 174.306 123.018 174.708 126.244C174.976 128.127 174.976 131.488 172.564 134.042C173.77 134.58 175.244 134.983 176.986 135.118C177.521 135.118 178.057 135.118 178.593 135.118C183.818 135.118 189.044 133.504 193.063 130.681C191.053 128.261 191.455 124.631 192.527 122.077C193.465 119.791 195.207 117.64 196.948 117.64C197.618 117.64 198.422 117.909 199.092 119.119C200.968 122.614 199.226 127.185 194.671 130.816C196.01 131.891 197.886 132.294 200.298 132.294C201.637 132.294 202.977 132.16 204.585 131.891C213.026 130.278 219.456 126.513 222.672 121.135C224.682 117.774 225.351 113.875 224.28 110.38C223.476 110.514 222.806 110.514 222.136 110.514C215.973 110.514 213.695 107.691 213.026 106.615C212.222 105.271 212.088 103.658 212.758 102.447C213.293 101.506 214.365 100.834 215.571 100.834C217.045 100.834 218.787 101.641 220.528 103.12C222.538 104.868 224.012 106.884 224.95 109.304C225.217 109.304 225.485 109.17 225.753 109.17C230.978 108.363 234.73 105.809 236.605 101.641C239.151 95.8597 237.409 88.4652 234.328 83.4907C233.256 83.7596 232.05 84.0285 230.844 84.0285H230.309C224.548 84.0285 222.672 82.1462 222.002 81.0707C221.466 80.1295 221.466 79.054 222.002 78.1129C222.672 76.9028 224.146 76.2306 225.753 76.2306C227.093 76.2306 229.103 76.634 231.38 78.6506C232.586 79.7262 233.658 80.9362 234.73 82.4151C239.821 80.6673 243.706 75.6928 244.644 69.6428C245.582 63.8616 243.706 58.6182 239.687 55.3916C238.079 56.8705 236.07 57.8116 233.926 58.0805C229.773 58.6182 226.691 57.8116 225.485 55.7949C224.949 54.8538 224.949 53.9127 225.485 53.106C226.289 51.7615 228.031 50.9549 230.309 50.9549C232.452 50.9549 235.132 51.6271 237.945 53.106C238.615 53.3749 239.151 53.7782 239.687 54.1815C242.367 51.3582 243.706 46.9215 243.438 41.947C243.036 34.5525 239.419 27.4269 233.524 22.8557C229.237 19.3602 224.548 19.0913 220.26 21.7802C221.332 25.1413 221.198 28.6369 219.724 31.0569C218.653 32.8047 217.179 34.0147 215.303 34.4181C215.035 34.4181 214.901 34.4181 214.633 34.4181C213.561 34.4181 212.892 33.8803 212.624 32.9392C211.82 30.3847 214.633 24.6035 219.055 21.3768C217.581 17.4779 214.231 14.1168 209.676 11.9657C205.657 10.0834 201.236 10.6212 197.216 13.4446C198.154 16.9401 197.752 20.5702 196.144 23.2591C195.073 25.1413 193.465 26.3513 191.589 26.7547C189.981 27.158 188.91 26.6202 188.508 25.4102C187.704 22.8557 190.785 16.8057 196.01 13.0412C194.269 7.52895 189.312 3.49558 182.211 2.15113C181.407 2.01668 180.737 1.88224 179.933 1.88224C174.574 1.88224 170.957 5.9156 169.215 8.47007C172.966 13.0412 172.43 16.2679 171.626 17.8813C170.823 19.629 168.947 20.9735 167.205 20.9735C166.803 20.9735 166.401 20.9735 166.133 20.8391C165.732 20.7046 165.33 20.4357 165.062 19.629C164.258 17.3435 165.598 12.6379 168.009 8.73896C166.669 7.26006 165.062 5.78116 162.918 4.16781C160.104 2.01668 157.157 1.07556 154.209 1.07556C149.386 1.07556 144.429 4.03337 140.812 9.1423C143.357 11.6968 143.625 15.8646 142.553 18.6879C141.884 20.4357 140.812 21.5113 139.472 21.5113C138.802 21.5113 138.132 21.2424 137.596 20.7046C135.453 18.8224 136.256 14.1168 139.472 9.27674C138.4 8.47007 137.06 8.06673 135.319 7.93229C125.806 7.52895 120.581 12.9068 117.768 17.6124C120.179 18.0157 122.189 19.0913 123.395 20.7046C124.466 22.318 124.734 24.2002 124.199 26.3513C122.993 30.788 119.777 31.3258 118.438 31.3258C116.562 31.3258 114.686 30.3847 113.882 29.0402C113.346 28.0991 113.212 27.158 113.748 26.2169C113.882 25.6791 114.418 22.318 116.294 18.419H116.16C112.677 18.419 109.193 19.8979 106.246 22.7213C102.494 26.2169 101.422 33.6114 101.958 39.2581C102.762 39.2581 103.7 39.2581 104.504 39.527C110.801 41.1403 112.275 43.4259 112.275 45.0393C112.409 46.787 110.801 48.4004 108.255 49.3415C107.719 49.476 107.317 49.6104 106.782 49.6104C103.834 49.6104 101.69 46.1148 100.886 40.4681C98.6089 40.8714 96.5992 42.3503 94.7235 44.9048C90.9722 50.1482 89.0965 59.2905 90.4363 66.0128C90.8382 68.0294 91.776 69.6428 93.2497 70.8528C95.2594 67.7605 97.805 65.8783 100.217 65.8783C101.288 65.8783 102.36 66.2816 103.432 67.0883C105.576 68.8361 105.576 70.315 105.308 71.1217C104.772 72.735 102.36 73.8106 99.5467 73.8106C97.4031 73.8106 95.3934 73.2728 93.6517 72.1973C89.7664 78.7851 88.8286 88.5996 94.3216 95.1874C95.7954 97.0697 97.5371 98.1452 99.4128 98.4141C100.083 94.3808 102.494 91.423 106.112 89.5407C107.451 88.8685 108.657 88.4652 109.461 88.4652C110.667 88.4652 111.471 89.1374 111.471 90.3474C111.471 93.3052 106.514 99.4897 100.618 99.4897C100.485 99.4897 100.351 99.4897 100.217 99.4897C99.4127 107.019 104.638 115.892 111.739 118.447C113.212 118.984 114.82 119.119 116.294 118.85C113.748 113.069 113.346 106.884 115.356 103.792C116.294 102.313 117.634 101.641 119.241 101.641H119.509C122.457 101.775 124.332 103.658 124.734 106.75C125.27 111.321 122.457 117.64 117.634 119.522C120.983 126.244 126.476 130.816 132.907 132.026C138.4 133.101 142.553 132.294 144.563 129.74C139.07 125.438 136.792 120.329 137.596 117.774C137.998 116.43 139.338 115.892 141.08 116.295C143.223 116.968 145.233 118.984 146.171 121.808C147.377 124.497 147.243 127.32 146.037 129.471ZM169.751 119.657C168.813 119.657 168.009 120.732 167.473 122.614C166.669 125.707 167.205 131.084 171.626 133.773C173.904 131.488 173.904 128.261 173.636 126.513C173.234 123.555 171.894 120.732 170.421 119.925C170.153 119.791 169.885 119.657 169.751 119.657ZM196.814 118.715C195.742 118.715 194.269 120.329 193.331 122.614C192.393 125.034 191.991 128.127 193.733 130.278C198.02 126.917 199.628 122.883 198.02 119.791C197.752 119.119 197.35 118.715 196.814 118.715ZM140.008 117.102C139.338 117.102 138.802 117.371 138.668 118.043C137.998 119.925 139.74 124.497 145.233 128.933C146.305 127.051 146.305 124.631 145.501 122.211C144.563 119.791 142.955 117.909 141.08 117.371C140.678 117.102 140.276 117.102 140.008 117.102ZM119.241 102.716C117.902 102.716 116.83 103.254 116.16 104.464C114.284 107.422 114.82 113.203 117.232 118.715C121.653 116.968 124.333 111.321 123.797 107.019C123.663 105.54 122.725 102.851 119.509 102.716H119.241ZM215.571 102.044C214.633 102.044 213.963 102.447 213.561 103.12C213.026 103.926 213.159 105.136 213.829 106.212C214.365 107.288 216.375 109.708 222.002 109.708C222.538 109.708 223.208 109.708 223.878 109.573C223.074 107.422 221.734 105.54 219.858 104.061C217.849 102.448 216.375 102.044 215.571 102.044ZM100.351 98.5486C100.485 98.5486 100.485 98.5486 100.618 98.5486C105.71 98.5486 110.399 93.0363 110.399 90.4818C110.399 89.9441 110.131 89.6752 109.461 89.6752C108.925 89.6752 108.121 89.8096 106.514 90.6163C103.164 92.2296 101.02 94.9185 100.351 98.5486ZM225.619 77.4406C224.28 77.4406 223.208 77.9784 222.672 78.9195C222.27 79.5918 222.27 80.264 222.672 80.9362C223.074 81.7429 224.682 83.3562 230.175 83.3562H230.711C231.648 83.3562 232.72 83.2218 233.658 82.9529C232.72 81.6084 231.782 80.5329 230.711 79.5918C228.567 77.844 226.825 77.4406 225.619 77.4406ZM94.1876 71.3906C95.6614 72.3317 97.537 72.8695 99.5467 72.8695C101.958 72.8695 103.968 72.0628 104.37 70.8528C104.772 69.7772 103.7 68.7017 102.896 67.895C102.092 67.2228 101.288 66.9539 100.351 66.9539C98.3409 66.8194 96.0633 68.5672 94.1876 71.3906ZM230.175 52.2993C228.299 52.2993 226.825 52.8371 226.289 53.9127C226.021 54.4504 226.021 55.1227 226.289 55.6604C227.227 57.2738 230.041 57.946 233.658 57.4082C235.534 57.1393 237.275 56.3327 238.749 55.1227C238.347 54.8538 237.811 54.5849 237.275 54.316C234.73 52.9715 232.184 52.2993 230.175 52.2993ZM101.958 40.3337C102.628 45.4426 104.504 48.6693 106.782 48.6693C107.183 48.6693 107.451 48.5348 107.853 48.4004C109.997 47.5937 111.203 46.3837 111.203 45.0393C111.069 43.2915 108.523 41.6781 104.102 40.4681C103.432 40.4681 102.628 40.3337 101.958 40.3337ZM219.322 22.5869C215.169 25.8135 212.892 30.9225 213.561 32.9392C213.695 33.4769 214.097 33.7458 214.633 33.7458C214.767 33.7458 214.901 33.7458 215.035 33.7458C216.643 33.4769 217.983 32.5358 218.787 30.9225C219.992 28.6369 220.26 25.5447 219.322 22.5869ZM117.366 18.6879C115.222 22.7213 114.686 26.6202 114.686 26.6202V26.7547C114.284 27.5613 114.552 28.2336 114.82 28.6369C115.49 29.7125 116.964 30.5191 118.571 30.5191C120.849 30.5191 122.591 29.0402 123.395 26.3513C123.931 24.6035 123.663 22.9902 122.725 21.6457C121.519 19.8979 119.643 18.9568 117.366 18.6879ZM196.144 14.2512C191.321 17.8813 188.776 23.3935 189.312 25.2758C189.445 25.5447 189.579 25.948 190.383 25.948C190.651 25.948 190.785 25.948 191.053 25.8135C192.661 25.4102 194.001 24.4691 194.939 22.8557C196.546 20.5702 196.948 17.4779 196.144 14.2512ZM140.142 9.94897C137.462 14.1168 136.524 18.5535 138.132 19.8979C138.534 20.3013 138.936 20.4357 139.338 20.4357C140.142 20.4357 140.946 19.629 141.482 18.2846C142.553 15.8646 142.285 12.2345 140.142 9.94897ZM168.545 9.68008C166.133 13.579 165.33 17.7468 165.865 19.3602C165.999 19.7635 166.133 19.8979 166.401 20.0324C167.607 20.4357 169.751 19.7635 170.689 17.7468C171.225 16.4024 171.76 13.7134 168.545 9.68008Z" fill="#26192A"/>
<path d="M160.931 116.745C197.307 121.45 217.1 59.8752 212.286 36.3477C207.471 12.8201 193.964 56.1108 193.964 56.1108L145.952 46.4309C145.952 46.4309 148.092 20.2145 140.068 22.0967C132.044 23.9789 103.825 109.216 160.931 116.745Z" fill="#FCB82E"/>
<path d="M169.378 88C169.245 88 169.245 88 169.378 88L152.398 84.6177C152.133 84.6177 152 84.3471 152 84.0765L155.847 49.4419C155.847 49.1713 156.112 48.9007 156.378 49.036C156.643 49.036 156.908 49.3066 156.775 49.5772L153.061 83.806L168.98 86.9177L176.939 52.8242C176.939 52.5536 177.204 52.4183 177.602 52.4183C177.867 52.4183 178 52.8242 178 53.0947L169.908 87.7294C169.776 87.8647 169.51 88 169.378 88Z" fill="#26192A"/>
<path d="M150 83L173 86.6528C173 86.6528 168.613 96.3935 159.705 95.9877C151.994 95.5818 150 83 150 83Z" fill="#26192A"/>
<path d="M142.268 76C142.126 76 141.842 76 141.558 75.7299C139.71 74.2444 139.142 66.1419 139 64.5214C139 64.2513 139.142 63.9812 139.568 63.9812C139.853 63.9812 140.137 64.1163 140.137 64.5214C140.563 70.0581 141.558 74.9197 142.41 75.0547C143.263 74.9197 144.399 69.518 144.968 63.441C144.968 63.171 145.252 62.9009 145.536 63.0359C145.82 63.0359 146.104 63.306 145.962 63.5761C145.678 67.0872 144.683 75.7299 142.268 76C142.41 76 142.268 76 142.268 76Z" fill="#26192A"/>
<path d="M181.613 83C181.331 83 181.049 82.8671 180.908 82.7341C179.357 81.2718 180.203 73.0295 180.485 71.4342C180.485 71.1683 180.766 70.9024 181.049 71.0354C181.331 71.0354 181.612 71.3012 181.471 71.5671C180.907 76.8847 180.908 81.6706 181.613 82.0694C182.6 81.9365 185.702 76.7518 187.958 71.833C188.099 71.5671 188.381 71.4342 188.663 71.5671C188.945 71.7001 189.086 71.9659 188.945 72.2318C187.817 74.7577 183.869 82.8671 181.613 83C181.754 83 181.613 83 181.613 83Z" fill="#26192A"/>
<path d="M157.445 107C157.317 107 157.317 107 157.188 107C155.257 106.615 155 100.205 155 97.5128C155 97.2564 155.257 97.1282 155.515 97C155.772 97 156.03 97.2564 156.03 97.5128C156.03 101.872 156.673 105.974 157.316 106.103C157.445 106.103 158.475 106.103 161.049 98.7949C161.177 98.5385 161.435 98.4103 161.692 98.5385C161.949 98.6667 162.078 98.9231 161.95 99.1795C159.633 105.846 158.346 107 157.445 107Z" fill="#26192A"/>
<path d="M143.451 84C143.451 84 143.314 83.88 143.451 84L130.412 81.84C130.137 81.84 130 81.6 130 81.36C130 81.12 130.274 81 130.549 81L143.588 83.16C143.863 83.16 144 83.4 144 83.64C143.863 83.76 143.725 84 143.451 84Z" fill="#26192A"/>
<path d="M143.455 88L129.409 85.8077C129.136 85.8077 129 85.5769 129 85.3461C129 85.1154 129.273 85 129.545 85L143.591 87.0769C143.864 87.0769 144 87.3077 144 87.5385C144 87.8846 143.727 88 143.455 88Z" fill="#26192A"/>
<path d="M143.456 92C143.456 92 143.32 92 143.456 92L130.408 89.0323C130.136 89.0323 130 88.6452 130 88.3871C130 88.129 130.272 88 130.68 88L143.592 90.9677C143.864 90.9677 144 91.3548 144 91.6129C143.864 91.871 143.728 92 143.456 92Z" fill="#26192A"/>
<path d="M188.451 93C188.314 93 188.314 93 188.451 93L175.412 90.84C175.137 90.84 175 90.6 175 90.36C175 90.12 175.275 90 175.549 90L188.588 92.16C188.863 92.16 189 92.4 189 92.64C188.863 92.88 188.588 93 188.451 93Z" fill="#26192A"/>
<path d="M188.455 96L174.409 93.8077C174.136 93.8077 174 93.5769 174 93.3462C174 93.1154 174.273 93 174.545 93L188.591 95.1923C188.864 95.1923 189 95.4231 189 95.6539C189 95.8846 188.727 96 188.455 96Z" fill="#26192A"/>
<path d="M188.456 101C188.456 101 188.32 101 188.456 101L175.408 98.0323C175.136 98.0323 175 97.6452 175 97.3871C175 97.129 175.272 97 175.68 97L188.592 99.9677C188.864 99.9677 189 100.355 189 100.613C188.864 100.871 188.592 101 188.456 101Z" fill="#26192A"/>
<path d="M139.801 45C139.666 45 139.666 45 139.801 45C139.397 44.8671 139.263 44.6013 139.263 44.3355C141.28 36.0958 138.053 29.8495 138.053 29.7166C137.918 29.4508 138.053 29.185 138.322 29.0521C138.591 28.9192 138.859 29.0521 138.994 29.3179C139.128 29.5837 142.356 35.9629 140.339 44.6013C140.204 44.8671 139.935 45 139.801 45Z" fill="#26192A"/>
<path d="M199.51 58C199.51 58 199.383 58 199.51 58C199.255 58 199 57.7241 199 57.4483C199.892 49.0345 206.012 43.3793 206.267 43.1034C206.522 42.9655 206.777 42.9655 206.904 43.1034C207.032 43.3793 207.032 43.6552 206.904 43.7931C206.904 43.7931 200.785 49.4483 200.02 57.4483C199.892 57.8621 199.765 58 199.51 58Z" fill="#26192A"/>
<path d="M213.563 169C213.563 169 213.417 169 213.563 169C212.979 168.89 209.189 168.449 208.168 167.678C208.023 167.568 207.877 167.237 208.168 167.127C208.314 167.017 208.752 166.907 208.897 167.127C209.48 167.568 212.105 168.009 213.563 168.229C213.854 168.229 214 168.449 214 168.67C214 168.89 213.854 169 213.563 169Z" fill="#26192A"/>
<path d="M217.527 166C216.948 165.89 213.181 165.449 212.167 164.678C212.022 164.568 211.878 164.237 212.167 164.127C212.457 164.017 212.747 163.907 212.892 164.127C213.471 164.568 216.078 165.009 217.527 165.229C217.817 165.229 217.961 165.449 217.961 165.67C218.106 165.89 217.817 166 217.527 166Z" fill="#26192A"/>
<path d="M219.958 169C218.99 169 217.884 168.9 217.331 168.7C217.054 168.6 216.916 168.4 217.054 168.2C217.193 168 217.469 168 217.746 168C218.437 168.3 220.926 168.2 222.447 168.1C222.724 168.1 223 168.2 223 168.4C223 168.6 222.862 168.8 222.585 168.8C222.447 168.9 221.203 169 219.958 169Z" fill="#26192A"/>
<path d="M224.958 165C223.99 165 222.884 164.9 222.331 164.7C222.054 164.6 221.916 164.4 222.054 164.2C222.193 164 222.469 164 222.746 164C223.437 164.3 225.926 164.2 227.447 164.1C227.723 164.1 228 164.2 228 164.4C228 164.6 227.862 164.8 227.585 164.8C227.309 164.9 226.202 165 224.958 165Z" fill="#26192A"/>
<path d="M228.958 169C227.99 169 226.884 168.9 226.331 168.7C226.054 168.6 225.916 168.4 226.054 168.2C226.193 168 226.469 168 226.746 168C227.437 168.3 229.926 168.2 231.447 168.1C231.723 168.1 232 168.2 232 168.4C232 168.6 231.862 168.8 231.585 168.8C231.309 168.9 230.064 169 228.958 169Z" fill="#26192A"/>
<path d="M232.958 166C231.99 166 230.884 165.9 230.331 165.7C230.054 165.6 229.916 165.4 230.054 165.2C230.193 165 230.469 165 230.746 165C231.437 165.3 233.926 165.2 235.447 165.1C235.723 165.1 236 165.2 236 165.4C236 165.6 235.862 165.8 235.585 165.8C235.309 165.9 234.202 166 232.958 166Z" fill="#26192A"/>
<path d="M237.106 168C236.83 168 236.553 168 236.415 167.87C236.138 167.74 236 167.48 236 167.22C236.138 166.961 236.415 166.831 236.691 166.831C237.521 167.09 239.872 166.441 241.254 166.051C241.531 165.921 241.807 166.051 241.946 166.311C242.084 166.571 241.946 166.831 241.669 166.961C241.254 167.22 238.627 168 237.106 168Z" fill="#26192A"/>
<path d="M141.586 180C141.293 180 141 179.725 141 179.45C141 179.038 141.146 175.465 142.025 174.228C142.172 173.953 142.611 173.953 142.757 174.09C143.05 174.228 143.05 174.64 142.904 174.777C142.318 175.465 142.172 177.938 142.025 179.313C142.025 179.725 141.879 180 141.586 180Z" fill="#26192A"/>
<path d="M147.586 182C147.293 182 147 181.725 147 181.45C147 181.038 147.146 177.465 148.025 176.228C148.172 175.953 148.611 175.953 148.757 176.09C149.05 176.228 149.05 176.64 148.904 176.777C148.318 177.465 148.172 179.938 148.025 181.313C148.025 181.863 147.879 182 147.586 182Z" fill="#26192A"/>
<path d="M144.586 173C144.293 173 144 172.725 144 172.45C144 172.038 144.146 168.465 145.025 167.228C145.172 166.953 145.611 166.953 145.757 167.09C146.05 167.228 146.05 167.64 145.904 167.777C145.318 168.465 145.172 170.938 145.025 172.313C145.172 172.725 144.879 173 144.586 173Z" fill="#26192A"/>
<path d="M95.4928 165C95.3541 165 95.3541 165 95.2154 165C94.7993 164.864 91.6092 163.095 91.0544 161.734C90.9157 161.462 91.0544 161.189 91.3318 161.053C91.6092 160.917 91.8866 161.053 92.0253 161.326C92.4414 162.006 94.5219 163.367 95.7702 164.047C96.0476 164.183 96.0476 164.456 95.9089 164.728C95.9089 164.864 95.6315 165 95.4928 165Z" fill="#26192A"/>
<path d="M85.5724 160C85.4555 160 85.3386 160 85.2216 159.868C84.9878 159.605 83.1169 156.842 83 155.526C83 155.263 83.117 155 83.3508 155C83.5847 155 83.8185 155.132 83.8185 155.395C83.8185 156.184 85.1047 158.158 85.9232 159.211C86.0401 159.474 86.0401 159.737 85.8063 159.868C85.8063 160 85.6893 160 85.5724 160Z" fill="#26192A"/>
<path d="M93.4783 159C93.3357 159 93.3357 159 93.193 158.873C92.765 158.618 89.6266 156.834 89.056 155.687C88.9133 155.432 89.056 155.177 89.3413 155.05C89.6266 154.923 89.9119 155.05 90.0546 155.305C90.3399 155.942 92.4798 157.344 93.7637 158.108C94.049 158.235 94.0489 158.49 93.9063 158.745C93.9063 158.873 93.7636 159 93.4783 159Z" fill="#26192A"/>
<path d="M101.543 161C101.124 161 97.4896 160.727 96.2316 159.908C95.952 159.772 95.952 159.363 96.0918 159.226C96.2316 158.953 96.651 158.953 96.7908 159.09C97.4897 159.635 100.006 159.908 101.404 159.908C101.683 159.908 101.963 160.181 101.963 160.454C102.103 160.727 101.823 161 101.543 161Z" fill="#26192A"/>
<path d="M110.543 163C110.124 163 106.49 162.727 105.232 161.908C104.952 161.772 104.952 161.363 105.092 161.226C105.232 160.953 105.651 160.953 105.791 161.09C106.49 161.635 109.006 161.908 110.404 161.908C110.683 161.908 110.963 162.181 110.963 162.454C111.103 162.727 110.823 163 110.543 163Z" fill="#26192A"/>
<path d="M85.4364 153C85.3153 153 85.1943 153 85.1943 152.855C84.9522 152.564 82.4106 150.238 82.0475 148.784C81.9264 148.493 82.0475 148.202 82.2896 148.057C82.5316 147.912 82.7737 148.057 82.8947 148.348C83.1368 149.22 84.8312 150.965 85.7994 151.837C86.0415 151.982 86.0415 152.418 85.9205 152.564C85.6785 153 85.5574 153 85.4364 153Z" fill="#26192A"/>
<path d="M102.405 165C101.575 165 100.746 164.894 100.331 164.787C100.054 164.681 99.916 164.468 100.054 164.255C100.193 164.042 100.469 163.935 100.746 164.042C101.437 164.361 104.064 164.148 105.447 164.042C105.723 164.042 106 164.148 106 164.361C106 164.574 105.862 164.787 105.585 164.787C105.447 164.787 103.926 165 102.405 165Z" fill="#26192A"/>
<path d="M143.353 188C143.029 188 142.867 187.862 142.706 187.585C142.544 187.17 141.573 183.714 142.22 182.331C142.382 182.054 142.705 181.916 143.029 182.054C143.353 182.193 143.515 182.469 143.353 182.746C143.029 183.575 143.515 186.064 144 187.447C144 187.585 143.838 187.862 143.353 188C143.515 188 143.353 188 143.353 188Z" fill="#26192A"/>
<path d="M148.353 191C148.029 191 147.867 190.862 147.705 190.585C147.544 190.17 146.573 186.714 147.22 185.331C147.382 185.054 147.706 184.916 148.029 185.054C148.353 185.193 148.515 185.469 148.353 185.746C148.029 186.575 148.515 189.064 149 190.447C149 190.585 148.838 190.862 148.353 191C148.515 191 148.353 191 148.353 191Z" fill="#26192A"/>
<path d="M152.353 205C152.029 205 151.867 204.862 151.705 204.585C151.544 204.17 150.573 200.714 151.22 199.331C151.382 199.054 151.706 198.916 152.029 199.054C152.353 199.193 152.515 199.469 152.353 199.746C152.029 200.575 152.515 203.064 153 204.447C153 204.723 152.838 205 152.353 205Z" fill="#26192A"/>
<path d="M151.557 218C151.436 218 151.315 218 151.315 217.88C151.073 217.641 148.411 215.844 148.047 214.646C147.926 214.406 148.047 214.167 148.29 214.047C148.532 213.927 148.774 214.047 148.895 214.287C149.137 215.005 150.831 216.323 151.799 217.042C152.042 217.161 152.042 217.521 151.921 217.641C151.799 217.88 151.678 218 151.557 218Z" fill="#26192A"/>
<path d="M155.434 216C155.313 216 155.191 216 155.191 215.854C154.948 215.562 152.397 213.228 152.032 211.768C151.911 211.477 152.154 211.185 152.397 211.039C152.64 210.893 152.883 211.185 153.004 211.477C153.247 212.352 154.827 214.103 155.799 215.124C156.042 215.27 156.042 215.708 155.92 215.854C155.677 215.854 155.556 216 155.434 216Z" fill="#26192A"/>
<path d="M143.353 198C143.029 198 142.867 197.862 142.705 197.585C142.544 197.17 141.573 193.714 142.22 192.331C142.382 192.054 142.706 191.916 143.029 192.054C143.353 192.193 143.515 192.469 143.353 192.746C143.029 193.575 143.515 196.064 144 197.447C144 197.723 143.676 198 143.353 198Z" fill="#26192A"/>
<path d="M148.353 199C148.029 199 147.867 198.862 147.706 198.585C147.544 198.17 146.573 194.714 147.22 193.331C147.382 193.054 147.705 192.916 148.029 193.054C148.353 193.193 148.515 193.469 148.353 193.746C148.029 194.575 148.515 197.064 149 198.447C149 198.723 148.838 199 148.353 199C148.515 199 148.353 199 148.353 199Z" fill="#26192A"/>
<path d="M149.449 212C149.324 212 149.073 211.857 149.073 211.714C148.948 211.286 147.694 207.857 148.07 206.429C148.07 206.143 148.321 206 148.572 206C148.822 206 148.948 206.286 148.948 206.571C148.822 207.429 149.449 209.857 149.951 211.286C150.076 211.571 149.951 211.857 149.7 212C149.575 212 149.449 212 149.449 212Z" fill="#26192A"/>
<path d="M144.615 207C144.501 207 144.274 206.857 144.274 206.714C144.161 206.286 142.798 203 143.025 201.429C143.025 201.143 143.252 201 143.48 201C143.707 201 143.82 201.286 143.82 201.571C143.707 202.429 144.501 204.857 144.955 206.143C145.069 206.429 144.956 206.714 144.728 206.857C144.728 206.857 144.728 207 144.615 207Z" fill="#26192A"/>
<path d="M37.1206 122C36.9861 122 36.9862 122 36.8516 122L22.3218 114.622C22.0527 114.488 21.9183 114.22 22.0528 113.951L53.803 45.2683C53.803 45.1341 53.9376 45 54.0721 45C54.2066 45 54.3412 45 54.4757 45L69.6781 52.7805C69.9472 52.9146 70.0818 53.1829 69.9472 53.4512L37.5243 121.732C37.5243 121.866 37.3898 122 37.2552 122H37.1206ZM23.2636 113.817L36.8516 120.659L68.871 53.3171L54.4757 46.0732L23.2636 113.817Z" fill="#26192A"/>
<path d="M60.5524 56C60.4204 56 60.4204 56 60.2885 56L51.3157 51.0715C51.0518 50.9266 50.9198 50.6367 51.0518 50.3468C51.1837 50.0569 51.4476 49.9119 51.7115 50.0569L60.6844 54.9853C60.9483 55.1303 61.0802 55.4202 60.9482 55.7101C60.9482 55.8551 60.6843 56 60.5524 56Z" fill="#26192A"/>
<path d="M55.5554 57C55.4244 57 55.4244 57 55.2933 57L50.3135 54.1204C50.0514 53.9688 49.9204 53.6657 50.0514 53.3626C50.1825 53.0595 50.4446 52.9079 50.7066 53.0595L55.6865 55.9391C55.9486 56.0906 56.0796 56.3938 55.9486 56.6969C55.9486 56.8484 55.6865 57 55.5554 57Z" fill="#26192A"/>
<path d="M58.5459 51C58.4217 51 58.4217 51 58.2975 51L53.2057 47.8686C52.9574 47.7381 52.9574 47.4771 53.0816 47.2162C53.2058 46.9552 53.4542 46.9552 53.7025 47.0857L58.7943 50.2171C59.0426 50.3476 59.0426 50.6086 58.9184 50.8695C58.9184 50.8695 58.7942 51 58.5459 51Z" fill="#26192A"/>
<path d="M56.5402 65C56.4047 65 56.4047 65 56.2692 65L47.3242 61.0156C47.0532 60.8782 46.9176 60.6035 47.0532 60.3287C47.1887 60.0539 47.4598 59.9165 47.7308 60.0539L56.6758 64.0383C56.9469 64.1756 57.0823 64.4504 56.9468 64.7252C56.9468 65 56.8113 65 56.5402 65Z" fill="#26192A"/>
<path d="M50.3981 66H50.2611L45.3278 63.9904C45.0538 63.8564 44.9167 63.5885 45.0538 63.3205C45.1908 63.0526 45.4649 62.9186 45.7389 63.0526L50.6722 65.0622C50.9463 65.1962 51.0833 65.4641 50.9462 65.732C50.8092 65.866 50.6722 66 50.3981 66Z" fill="#26192A"/>
<path d="M53.5263 61C53.3967 61 53.3967 61 53.2671 61L48.2146 57.9292C47.9555 57.7896 47.9556 57.5104 48.0851 57.2313C48.2147 56.9521 48.4738 56.9521 48.7329 57.0917L53.7854 60.1625C54.0445 60.3021 54.0444 60.5813 53.9149 60.8604C53.9149 60.8604 53.7854 61 53.5263 61Z" fill="#26192A"/>
<path d="M51.5464 76C51.4127 76 51.4127 76 51.279 76L42.3199 71.9627C42.0525 71.8325 41.9187 71.572 42.0525 71.3116C42.1862 71.0511 42.4536 70.9209 42.721 71.0511L51.6801 75.0884C51.9475 75.2186 52.0813 75.4791 51.9475 75.7395C51.9475 76 51.8138 76 51.5464 76Z" fill="#26192A"/>
<path d="M47.4367 76H47.3084L42.3068 73.948C42.0503 73.8198 41.9221 73.5633 42.0503 73.3068C42.1786 73.0503 42.4351 72.9221 42.6915 73.0503L47.6932 75.1023C47.9497 75.2305 48.0779 75.487 47.9497 75.7435C47.8214 76 47.565 76 47.4367 76Z" fill="#26192A"/>
<path d="M50.5324 71C50.3946 71 50.3946 71 50.2567 71L44.3298 68.0795C44.0541 67.9334 43.9162 67.6414 44.0541 67.3493C44.1919 67.0573 44.4676 66.9113 44.7433 67.0573L50.6703 69.9778C50.946 70.1238 51.0838 70.4159 50.9459 70.7079C50.9459 70.854 50.8081 71 50.5324 71Z" fill="#26192A"/>
<path d="M47.5464 84C47.4127 84 47.4127 84 47.2789 84L38.3199 79.9627C38.0525 79.8325 37.9187 79.572 38.0525 79.3116C38.1862 79.0511 38.4536 78.9209 38.721 79.0511L47.6802 83.0884C47.9476 83.2186 48.0812 83.4791 47.9475 83.7395C47.9475 84 47.8138 84 47.5464 84Z" fill="#26192A"/>
<path d="M42.4367 85H42.3085L37.3068 82.948C37.0503 82.8198 36.9221 82.5633 37.0503 82.3068C37.1786 82.0503 37.435 81.9221 37.6915 82.0503L42.6932 84.1023C42.9497 84.2305 43.0779 84.487 42.9497 84.7435C42.8214 85 42.6932 85 42.4367 85Z" fill="#26192A"/>
<path d="M45.523 80C45.3824 80 45.3824 80 45.2418 80L39.3363 77.1204C39.0551 76.9688 38.9146 76.6657 39.0552 76.3626C39.1958 76.0595 39.477 75.9079 39.7582 76.0595L45.6636 78.9391C45.9448 79.0906 46.0854 79.3938 45.9448 79.6969C45.8042 79.8484 45.6636 80 45.523 80Z" fill="#26192A"/>
<path d="M43.5403 94C43.4047 94 43.4047 94 43.2692 94L34.3242 89.9627C34.0532 89.8325 33.9176 89.572 34.0532 89.3116C34.1887 89.0511 34.4598 88.9209 34.7308 89.0511L43.6758 93.0884C43.9468 93.2186 44.0824 93.4791 43.9468 93.7395C43.9468 93.8698 43.6758 94 43.5403 94Z" fill="#26192A"/>
<path d="M38.4367 94H38.3085L33.3068 91.948C33.0503 91.8198 32.9221 91.5633 33.0503 91.3068C33.1786 91.0503 33.435 90.9221 33.6915 91.0503L38.6932 93.1023C38.9497 93.2305 39.0779 93.487 38.9497 93.7435C38.6932 93.8717 38.5649 94 38.4367 94Z" fill="#26192A"/>
<path d="M41.3697 88H41.2263L35.3433 85.948C35.0563 85.8198 34.9128 85.5633 35.0563 85.3068C35.1998 85.0503 35.4868 84.9221 35.7737 85.0503L41.6567 87.1023C41.9437 87.2305 42.0872 87.487 41.9437 87.7435C41.8002 87.8717 41.6567 88 41.3697 88Z" fill="#26192A"/>
<path d="M39.5464 104C39.4127 104 39.4127 104 39.279 104L30.3199 99.9627C30.0525 99.8325 29.9187 99.572 30.0525 99.3116C30.1862 99.0511 30.4536 98.9209 30.721 99.0511L39.6801 103.088C39.9475 103.219 40.0813 103.479 39.9475 103.74C39.9475 103.87 39.6801 104 39.5464 104Z" fill="#26192A"/>
<path d="M34.4367 104H34.3085L29.3068 101.948C29.0503 101.82 28.9221 101.563 29.0503 101.307C29.1786 101.05 29.4351 100.922 29.6916 101.05L34.6932 103.102C34.9497 103.231 35.0779 103.487 34.9497 103.743C34.8214 103.872 34.6932 104 34.4367 104Z" fill="#26192A"/>
<path d="M37.5324 99C37.3946 99 37.3946 99 37.2567 99L31.3298 96.0795C31.0541 95.9334 30.9162 95.6414 31.0541 95.3493C31.1919 95.0573 31.4676 94.9113 31.7433 95.0573L37.6703 97.9778C37.946 98.1238 38.0838 98.4159 37.9459 98.7079C37.9459 98.854 37.6703 99 37.5324 99Z" fill="#26192A"/>
<path d="M34.5464 113C34.4127 113 34.4127 113 34.2789 113L25.3199 108.963C25.0525 108.833 24.9187 108.572 25.0525 108.312C25.1862 108.051 25.4536 107.921 25.721 108.051L34.6802 112.088C34.9476 112.219 35.0812 112.479 34.9475 112.74C34.9475 112.87 34.6801 113 34.5464 113Z" fill="#26192A"/>
<path d="M29.4367 113H29.3084L24.3068 110.948C24.0503 110.82 23.9221 110.563 24.0503 110.307C24.1786 110.05 24.4351 109.922 24.6915 110.05L29.6932 112.102C29.9497 112.231 30.0779 112.487 29.9497 112.744C29.8214 112.872 29.6932 113 29.4367 113Z" fill="#26192A"/>
<path d="M32.5324 108C32.3946 108 32.3946 108 32.2567 108L26.3298 105.079C26.0541 104.933 25.9162 104.641 26.0541 104.349C26.1919 104.057 26.4676 103.911 26.7433 104.057L32.6702 106.978C32.9459 107.124 33.0838 107.416 32.9459 107.708C32.9459 107.854 32.6703 108 32.5324 108Z" fill="#26192A"/>
<path d="M254.174 299.865C252.28 299.865 250.25 299.731 248.221 299.327C247.951 299.327 247.815 299.058 247.815 298.788C247.815 298.519 248.086 298.384 248.357 298.384C250.25 298.788 252.28 298.923 254.038 298.923C254.309 298.923 254.715 298.923 254.985 298.923C255.256 298.923 255.527 299.192 255.527 299.461C255.527 299.731 255.256 300 254.985 300C254.85 299.865 254.444 299.865 254.174 299.865ZM261.75 298.788C261.479 298.788 261.344 298.654 261.208 298.384C261.073 298.115 261.344 297.846 261.614 297.711C263.644 297.038 265.673 296.23 267.702 295.153C267.973 295.019 268.243 295.153 268.378 295.288C268.514 295.557 268.378 295.826 268.243 295.961C266.214 297.173 264.049 297.981 261.885 298.654C261.885 298.788 261.885 298.788 261.75 298.788ZM241.863 297.442H241.728C239.698 296.634 237.669 295.692 235.505 294.48C235.234 294.345 235.234 294.076 235.369 293.807C235.505 293.538 235.775 293.538 236.046 293.672C238.075 294.749 240.104 295.826 242.133 296.5C242.404 296.634 242.539 296.903 242.404 297.173C242.269 297.307 242.133 297.442 241.863 297.442ZM273.519 292.057C273.384 292.057 273.249 292.057 273.113 291.922C272.978 291.653 272.843 291.384 273.113 291.249L273.249 291.114C274.737 289.768 276.225 288.018 277.307 286.133C277.442 285.864 277.713 285.864 277.984 285.998C278.254 286.133 278.254 286.402 278.119 286.672C276.901 288.691 275.413 290.441 273.79 291.922C273.79 292.057 273.654 292.057 273.519 292.057ZM230.093 290.845C229.958 290.845 229.823 290.845 229.823 290.71C228.064 289.364 226.17 288.018 224.547 286.537C224.276 286.402 224.276 285.998 224.547 285.864C224.682 285.594 225.088 285.594 225.223 285.864C226.982 287.345 228.74 288.691 230.499 290.037C230.77 290.172 230.77 290.576 230.634 290.71C230.364 290.845 230.229 290.845 230.093 290.845ZM219.947 281.959C219.812 281.959 219.676 281.959 219.541 281.825L219.135 281.286C219 281.152 219 281.017 219 280.882C219 280.613 219.271 280.344 219.541 280.344C219.676 280.344 219.812 280.479 219.947 280.613L220.353 281.017C220.488 281.286 220.488 281.556 220.353 281.69C220.082 281.959 220.082 281.959 219.947 281.959ZM280.554 280.882H280.419C280.148 280.748 280.013 280.479 280.148 280.209C280.825 278.324 281.366 276.036 281.772 273.747C281.772 273.478 282.042 273.343 282.313 273.343C282.583 273.343 282.718 273.612 282.718 273.882C282.313 276.305 281.636 278.459 280.96 280.479C280.96 280.748 280.689 280.882 280.554 280.882ZM283.124 267.689C282.854 267.689 282.583 267.419 282.583 267.15C282.854 264.996 282.989 262.842 282.989 260.418C282.989 260.149 283.26 259.88 283.53 259.88C283.801 259.88 284.071 260.149 284.071 260.418C283.936 262.842 283.801 264.996 283.665 267.15C283.665 267.419 283.395 267.689 283.124 267.689ZM283.665 254.225C283.395 254.225 283.124 253.956 283.124 253.687C283.124 251.533 282.989 249.244 282.854 246.955C282.854 246.686 282.989 246.417 283.395 246.417C283.665 246.417 283.936 246.551 283.936 246.955C284.071 249.244 284.071 251.533 284.207 253.687C284.207 253.956 283.936 254.225 283.665 254.225ZM282.989 240.762C282.718 240.762 282.448 240.628 282.448 240.358C282.313 238.07 282.042 235.916 281.907 233.627C281.907 233.358 282.042 233.088 282.313 233.088C282.583 233.088 282.854 233.223 282.854 233.492C283.124 235.781 283.26 237.935 283.395 240.224C283.53 240.493 283.26 240.762 282.989 240.762ZM281.636 227.299C281.366 227.299 281.095 227.165 281.095 226.895C280.825 224.607 280.554 222.453 280.283 220.164C280.283 219.895 280.419 219.625 280.689 219.625C280.96 219.625 281.23 219.76 281.23 220.029C281.501 222.183 281.771 224.472 282.042 226.761C282.177 227.03 281.907 227.299 281.636 227.299ZM280.013 213.971C279.742 213.971 279.607 213.836 279.472 213.567L279.336 212.894C279.066 210.874 278.795 208.855 278.525 206.835C278.525 206.566 278.66 206.297 278.931 206.297C279.201 206.297 279.472 206.431 279.472 206.701C279.742 208.72 280.013 210.605 280.283 212.759L280.419 213.432C280.554 213.702 280.419 213.971 280.013 213.971ZM278.389 200.642C278.119 200.642 277.848 200.508 277.848 200.238C277.578 197.95 277.307 195.661 277.172 193.507C277.172 193.238 277.307 192.968 277.578 192.968C277.848 192.968 278.119 193.103 278.119 193.372C278.254 195.526 278.525 197.68 278.795 200.104C278.931 200.373 278.66 200.642 278.389 200.642ZM278.931 188.526C278.795 188.526 278.795 188.526 278.931 188.526H278.66C276.36 188.391 274.196 187.583 272.302 186.102C272.031 185.968 272.031 185.564 272.166 185.429C272.302 185.16 272.707 185.16 272.843 185.294C274.601 186.641 276.495 187.314 278.66 187.448H278.795C279.066 187.448 279.336 187.718 279.201 187.987C279.336 188.256 279.066 188.526 278.931 188.526ZM285.559 187.718C285.289 187.718 285.154 187.583 285.018 187.448C284.883 187.179 285.018 186.91 285.289 186.775C287.453 185.968 289.077 184.756 290.294 182.871C290.43 182.602 290.7 182.602 290.971 182.736C291.241 182.871 291.241 183.14 291.106 183.41C289.888 185.294 287.995 186.775 285.559 187.583C285.695 187.718 285.559 187.718 285.559 187.718ZM277.307 187.179C277.037 187.179 276.766 186.91 276.766 186.641C276.766 185.429 276.631 184.217 276.631 183.14C276.631 181.929 276.631 180.852 276.766 179.909C276.766 179.64 277.037 179.371 277.307 179.371C277.578 179.371 277.848 179.64 277.848 179.909C277.848 180.852 277.713 181.929 277.713 183.14C277.713 184.217 277.713 185.429 277.848 186.641C277.713 186.91 277.578 187.179 277.307 187.179ZM268.243 181.121C268.108 181.121 267.837 180.986 267.837 180.852C266.755 179.101 265.808 176.947 264.996 174.659C264.861 174.389 264.996 174.12 265.267 173.985C265.537 173.851 265.808 173.985 265.943 174.255C266.755 176.543 267.702 178.563 268.649 180.313C268.784 180.582 268.649 180.852 268.514 180.986C268.514 181.121 268.378 181.121 268.243 181.121ZM292.459 177.217C292.188 177.217 291.918 176.947 291.918 176.678C291.782 174.389 290.835 172.37 289.483 171.024C289.212 170.889 289.212 170.485 289.483 170.35C289.618 170.081 290.024 170.081 290.159 170.35C291.782 171.831 292.729 174.12 293 176.678C293 176.947 292.729 177.217 292.459 177.217ZM278.525 173.851H278.389C278.119 173.716 277.984 173.447 278.119 173.178C278.66 171.697 279.607 170.62 280.554 170.081C281.501 169.543 282.448 169.139 283.395 168.869C283.665 168.735 283.936 169.004 284.071 169.273C284.207 169.543 283.936 169.812 283.665 169.946C282.854 170.216 281.907 170.485 280.96 171.024C280.148 171.562 279.472 172.37 278.931 173.716C278.931 173.716 278.66 173.851 278.525 173.851ZM263.644 168.466C263.373 168.466 263.238 168.331 263.102 168.062C262.696 166.042 262.291 163.753 261.885 161.33C261.885 161.061 262.02 160.792 262.291 160.792C262.561 160.792 262.832 160.926 262.832 161.195C263.102 163.484 263.508 165.773 264.049 167.792C264.185 168.196 264.049 168.466 263.644 168.466C263.779 168.466 263.644 168.466 263.644 168.466ZM261.75 155.137C261.479 155.137 261.208 155.002 261.208 154.733C261.073 152.579 260.938 150.29 260.803 148.002C260.803 147.732 261.073 147.463 261.344 147.463C261.614 147.463 261.885 147.732 261.885 148.002C262.02 150.29 262.155 152.579 262.291 154.733C262.291 154.868 262.02 155.137 261.75 155.137ZM261.073 141.674C260.803 141.674 260.532 141.539 260.532 141.27C260.532 137.097 260.667 134.539 260.667 134.539C260.667 134.269 260.938 134 261.208 134C261.479 134 261.75 134.269 261.75 134.539C261.75 134.539 261.614 137.231 261.614 141.135C261.614 141.405 261.479 141.674 261.073 141.674Z" fill="#26192A"/>
<path d="M89.8766 270C83.1292 270 75.9769 264.478 68.8246 253.838C63.5616 245.892 60.1879 237.811 60.0529 237.811C59.918 237.541 60.053 237.272 60.3229 237.137L94.8697 222.053C95.1396 221.918 95.4095 222.053 95.5444 222.322C96.0842 223.4 107.42 249.798 101.077 262.996C99.458 266.364 96.759 268.653 92.9805 269.596C91.9009 269.865 90.8213 270 89.8766 270ZM61.1325 237.811C62.8868 241.717 75.4371 269.057 89.7417 269.057C90.6863 269.057 91.7659 268.923 92.7105 268.653C96.0843 267.71 98.6483 265.69 100.133 262.592C105.801 250.74 96.3542 226.901 94.7348 223.265L61.1325 237.811Z" fill="#26192A"/>
<path d="M76.6224 269.869C75.4186 269.869 74.0809 269.212 73.5458 268.423C73.0107 267.766 73.0108 266.978 73.4121 266.452C73.5458 266.19 73.8134 266.19 74.0809 266.321C74.3484 266.452 74.3484 266.715 74.2146 266.978C74.0809 267.109 73.9471 267.372 74.3484 267.898C74.8835 268.555 76.2212 269.08 77.2913 268.817C78.0939 268.555 78.6289 267.766 78.7627 266.715C78.7627 265.795 78.6289 265.27 78.2276 264.744C77.1574 263.562 74.2147 263.693 71.2719 263.824C66.0551 263.956 59.6343 264.087 57.0928 258.569C55.7551 255.547 55.6214 252.919 56.8252 250.554C58.8317 246.48 63.9148 245.035 64.1823 245.035C64.4498 244.904 64.7173 245.166 64.8511 245.429C64.9849 245.692 64.7174 245.955 64.4498 246.086C64.4498 246.086 59.6343 247.4 57.7616 251.079C56.8252 253.181 56.8252 255.547 58.1629 258.306C60.4369 263.299 66.1888 263.167 71.4056 263.036C74.7497 262.905 77.6925 262.905 79.1639 264.35C79.8328 265.007 80.1003 265.927 79.9666 266.978C79.8328 269.08 78.4951 269.737 77.8263 270C77.2912 269.869 76.89 269.869 76.6224 269.869Z" fill="#26192A"/>
<path d="M106.931 258C106.395 258 105.591 257.867 104.787 257.203C103.715 256.539 103.179 255.61 102.911 254.68C102.509 252.688 104.251 250.43 106.127 247.907C109.074 244.056 112.424 239.54 110.414 234.228C109.476 231.705 108.003 229.979 105.993 229.315C102.643 228.119 98.7579 230.51 98.7579 230.51C98.4899 230.643 98.222 230.643 98.088 230.377C97.954 230.111 97.9541 229.846 98.222 229.713C98.356 229.58 102.509 227.057 106.395 228.385C108.672 229.182 110.28 230.908 111.352 233.83C113.496 239.673 109.878 244.454 106.931 248.438C105.189 250.829 103.581 252.953 103.849 254.547C103.983 255.211 104.385 255.875 105.189 256.406C105.859 256.938 106.931 257.336 107.735 256.672C108.672 256.008 108.94 254.68 108.806 253.75C108.672 253.352 108.405 253.086 108.137 253.086C107.869 253.086 107.601 252.821 107.735 252.555C107.735 252.289 108.003 252.024 108.271 252.157C109.074 252.289 109.61 252.821 109.878 253.618C110.146 254.813 109.744 256.672 108.539 257.602C108.137 257.734 107.601 258 106.931 258Z" fill="#26192A"/>
<path d="M100.369 279C100.226 279 99.9385 278.863 99.9385 278.725L95.0563 267.74C94.9128 267.466 95.0563 267.191 95.3435 267.054C95.6307 266.917 95.9178 267.054 96.0614 267.328L100.944 278.313C101.087 278.588 100.944 278.863 100.656 279C100.513 279 100.369 279 100.369 279Z" fill="#26192A"/>
<path d="M95.442 282C95.3117 282 95.0511 281.861 95.0511 281.722C94.9208 281.444 95.0511 281.167 95.3117 281.028L107.297 275.054C107.558 274.916 107.819 275.054 107.949 275.332C108.079 275.61 107.949 275.888 107.688 276.027L95.7025 282C95.5722 282 95.442 282 95.442 282Z" fill="#26192A"/>
<path d="M68.9804 239C67.8824 239 66.647 239 65.4117 238.868C65.1372 238.868 65 238.736 65 238.472C65 238.207 65.1373 238.075 65.2745 237.943L92.3137 226.055C92.451 225.923 92.7254 226.055 92.8627 226.187C93 226.319 93 226.583 93 226.715C92.8627 226.847 86.2745 239 68.9804 239ZM67.4706 238.075C67.8823 238.075 68.4314 238.075 68.8431 238.075C82.1568 238.075 88.8823 230.81 91.0784 227.64L67.4706 238.075Z" fill="#26192A"/>
<path d="M253.516 288C253.387 288 253.387 288 253.516 288C253.129 287.863 253 287.588 253 287.314L255.968 274.412C255.968 274.137 256.226 274 256.613 274C256.871 274 257 274.412 257 274.686L254.032 287.588C253.903 287.863 253.645 288 253.516 288Z" fill="#26192A"/>
<path d="M260.559 283L248.405 280.077C248.135 280.077 248 279.769 248 279.462C248 279.154 248.27 279 248.54 279L260.559 281.923C260.829 281.923 260.964 282.231 260.964 282.538C261.099 282.846 260.829 283 260.559 283Z" fill="#26192A"/>
<path d="M258.382 287C258.242 287 257.961 286.859 257.961 286.719L252.055 275.758C251.915 275.477 252.055 275.196 252.336 275.055C252.618 274.915 252.899 275.055 253.039 275.336L258.945 286.297C259.085 286.578 258.945 286.859 258.664 287C258.523 287 258.523 287 258.382 287Z" fill="#26192A"/>
<path d="M250.477 285C250.347 285 250.216 284.859 250.086 284.718C249.955 284.435 249.955 284.153 250.216 284.012L260.262 277.093C260.523 276.952 260.784 276.952 260.914 277.234C261.045 277.516 261.045 277.799 260.784 277.94L250.738 284.859C250.608 285 250.477 285 250.477 285Z" fill="#26192A"/>
</svg>
