<svg width="900" height="900" viewBox="0 0 900 900" fill="none" xmlns="http://www.w3.org/2000/svg">
<rect width="900" height="900" fill="#161616"/>
<path d="M325.175 336.878C325.041 336.878 324.906 336.878 324.906 336.743C324.771 336.609 324.637 336.339 324.771 336.205L331.635 320.727L322.483 312.517C322.349 312.382 322.214 312.113 322.349 311.979C322.483 311.844 322.618 311.709 322.887 311.709L335 313.055L339.442 302.827C339.576 302.692 339.711 302.557 339.98 302.557C340.249 302.557 340.384 302.692 340.384 302.961L343.076 313.997L358.15 315.613C358.419 315.613 358.553 315.747 358.553 316.016C358.553 316.285 358.553 316.42 358.284 316.555L345.498 324.361L347.921 334.32C347.921 334.59 347.921 334.724 347.652 334.859C347.517 334.993 347.248 334.993 347.113 334.859L339.576 327.995L325.31 336.743C325.31 336.878 325.175 336.878 325.175 336.878ZM332.308 321.4L326.252 335.128L338.903 327.322L332.308 321.4ZM340.518 327.456L346.709 332.975L344.691 324.899L340.518 327.456ZM332.712 320.458L339.711 326.783L344.421 323.823L342.268 314.805L335.538 314.132L332.712 320.458ZM343.345 314.94L345.364 323.284L356.534 316.42L343.345 314.94ZM324.233 312.921L331.905 319.785L334.462 313.997L324.233 312.921ZM335.942 313.19L341.999 313.863L339.711 304.711L335.942 313.19Z" fill="#26192A"/>
<path d="M375.241 515.209C375.106 515.209 374.837 515.074 374.837 514.94C370.396 504.711 347.112 503.903 340.113 503.903C338.498 503.903 337.556 503.903 337.556 503.903C337.287 503.903 337.152 503.769 337.017 503.5C333.922 493.136 303.774 490.983 303.505 490.983C303.37 490.983 303.236 490.848 303.101 490.714C302.966 490.579 302.966 490.444 303.101 490.31L320.194 448.587C320.328 448.452 320.463 448.318 320.598 448.318C332.711 447.914 340.517 452.759 344.958 456.662C348.727 460.027 350.611 463.392 351.284 464.603C355.052 462.584 359.359 461.642 363.801 461.642C378.471 461.642 391.661 472.679 391.795 472.813C391.93 472.948 392.065 473.217 391.93 473.351L375.914 514.94C375.51 515.074 375.375 515.209 375.241 515.209ZM339.978 502.827C348.861 502.827 369.588 503.903 375.106 513.459L390.584 473.351C388.565 471.736 376.721 462.719 363.532 462.719C359.09 462.719 354.918 463.796 351.015 465.814C350.88 465.949 350.746 465.949 350.611 465.814C350.476 465.814 350.342 465.68 350.342 465.545C350.207 465.411 342.805 449.26 321.674 449.26C321.405 449.26 321.136 449.26 320.732 449.26L304.043 490.041C308.754 490.444 334.057 493.002 337.69 502.827C338.094 502.827 338.902 502.827 339.978 502.827Z" fill="#26192A"/>
<path d="M337.421 503.903H337.287C337.018 503.769 336.883 503.499 337.018 503.23L350.477 465.141C350.611 464.872 350.88 464.738 351.15 464.872C351.419 465.007 351.553 465.276 351.419 465.545L337.96 503.634C337.825 503.769 337.556 503.903 337.421 503.903Z" fill="#26192A"/>
<path d="M375.241 515.209C375.107 515.209 374.972 515.209 374.972 515.074C374.838 514.94 363.801 507.133 337.422 503.903H337.287C337.153 503.769 319.791 494.213 303.505 491.117C303.236 491.117 303.102 490.848 303.102 490.579C303.102 490.31 303.371 490.175 303.64 490.175C319.521 493.271 336.345 502.288 337.691 503.096C364.34 506.326 375.242 514.132 375.645 514.536C375.914 514.67 375.914 515.074 375.78 515.209C375.511 515.074 375.376 515.209 375.241 515.209Z" fill="#26192A"/>
<path d="M385.604 477.793C385.469 477.793 385.335 477.793 385.2 477.658C385.066 477.524 373.895 466.218 353.706 469.583C353.437 469.583 353.168 469.448 353.168 469.179C353.168 468.91 353.303 468.641 353.572 468.641C364.473 466.891 372.683 469.179 377.663 471.467C383.047 474.025 385.873 476.851 386.008 476.985C386.142 477.12 386.142 477.524 386.008 477.658C385.739 477.793 385.739 477.793 385.604 477.793Z" fill="#26192A"/>
<path d="M382.778 482.234C382.643 482.234 382.509 482.234 382.374 482.1C382.24 481.965 371.069 470.66 350.88 474.024C350.611 474.024 350.342 473.89 350.342 473.621C350.342 473.351 350.476 473.082 350.746 473.082C361.647 471.333 369.857 473.621 374.837 475.909C380.221 478.466 383.047 481.292 383.182 481.427C383.316 481.561 383.316 481.965 383.182 482.1C383.047 482.234 382.912 482.234 382.778 482.234Z" fill="#26192A"/>
<path d="M381.971 487.752C381.837 487.752 381.702 487.752 381.567 487.618C381.433 487.483 370.262 476.178 350.074 479.543C349.804 479.543 349.535 479.408 349.535 479.139C349.535 478.87 349.67 478.6 349.939 478.6C360.841 476.851 369.051 479.139 374.03 481.427C379.414 483.984 382.24 486.81 382.375 486.945C382.51 487.08 382.51 487.483 382.375 487.618C382.24 487.752 382.106 487.752 381.971 487.752Z" fill="#26192A"/>
<path d="M379.952 493.002C379.817 493.002 379.682 493.001 379.548 492.867C379.413 492.732 368.242 481.427 348.054 484.792C347.785 484.792 347.516 484.657 347.516 484.388C347.516 484.119 347.65 483.849 347.919 483.849C358.821 482.1 367.031 484.388 372.011 486.676C377.394 489.233 380.221 492.059 380.355 492.194C380.49 492.329 380.49 492.732 380.355 492.867C380.221 493.001 380.086 493.002 379.952 493.002Z" fill="#26192A"/>
<path d="M377.53 499.731C377.395 499.731 377.261 499.731 377.126 499.596C376.991 499.462 365.82 488.156 345.632 491.521C345.363 491.521 345.094 491.386 345.094 491.117C345.094 490.848 345.228 490.579 345.498 490.579C356.399 488.829 364.609 491.117 369.589 493.405C374.973 495.962 377.799 498.789 377.934 498.923C378.068 499.058 378.068 499.462 377.934 499.596C377.799 499.731 377.664 499.731 377.53 499.731Z" fill="#26192A"/>
<path d="M375.241 505.922C375.106 505.922 374.972 505.922 374.837 505.787C374.702 505.653 363.531 494.347 343.343 497.712C343.074 497.712 342.805 497.577 342.805 497.308C342.805 497.039 342.939 496.77 343.208 496.77C354.11 495.02 362.32 497.308 367.3 499.596C372.684 502.154 375.51 504.98 375.645 505.114C375.779 505.249 375.779 505.653 375.645 505.787C375.375 505.787 375.241 505.922 375.241 505.922Z" fill="#26192A"/>
<path d="M346.708 467.295C346.573 467.295 346.304 467.16 346.304 467.026C346.169 466.891 337.825 453.163 322.482 455.989C322.213 455.989 321.943 455.855 321.943 455.586C321.943 455.316 322.078 455.047 322.347 455.047C338.363 452.086 347.112 466.353 347.246 466.487C347.381 466.757 347.246 467.026 347.112 467.16C346.842 467.295 346.708 467.295 346.708 467.295Z" fill="#26192A"/>
<path d="M344.018 472.14C343.883 472.14 343.748 472.006 343.614 471.871C343.479 471.736 334.462 458.547 319.253 462.18C318.984 462.18 318.715 462.046 318.58 461.777C318.58 461.508 318.715 461.238 318.984 461.104C334.865 457.335 344.421 471.063 344.421 471.198C344.556 471.467 344.556 471.736 344.287 471.871C344.152 472.14 344.152 472.14 344.018 472.14Z" fill="#26192A"/>
<path d="M343.207 477.389C343.072 477.389 342.938 477.255 342.803 477.12C342.669 476.985 333.651 463.796 318.442 467.43C318.173 467.43 317.904 467.295 317.77 467.026C317.77 466.757 317.904 466.487 318.173 466.353C334.055 462.584 343.611 476.312 343.611 476.447C343.745 476.716 343.745 476.985 343.476 477.12C343.342 477.389 343.207 477.389 343.207 477.389Z" fill="#26192A"/>
<path d="M340.383 483.042C340.248 483.042 340.114 482.907 339.979 482.773C339.844 482.638 330.827 469.448 315.618 473.082C315.349 473.082 315.08 472.948 314.945 472.679C314.945 472.409 315.08 472.14 315.349 472.006C331.231 468.237 340.787 481.965 340.787 482.1C340.921 482.369 340.921 482.638 340.652 482.773C340.517 483.042 340.383 483.042 340.383 483.042Z" fill="#26192A"/>
<path d="M337.423 488.56C337.288 488.56 337.154 488.56 337.019 488.426C336.884 488.291 327.059 475.909 311.851 479.543C311.582 479.543 311.312 479.408 311.178 479.139C311.178 478.87 311.312 478.601 311.581 478.466C327.463 474.697 337.692 487.483 337.826 487.618C337.961 487.887 337.961 488.156 337.692 488.291C337.557 488.56 337.423 488.56 337.423 488.56Z" fill="#26192A"/>
<path d="M335.402 494.751C335.268 494.751 335.133 494.617 334.998 494.482C334.864 494.347 325.846 482.369 310.638 486.003C310.369 486.003 310.099 485.868 309.965 485.599C309.965 485.33 310.099 485.061 310.369 484.926C326.25 481.158 335.671 493.674 335.806 493.809C335.941 494.078 335.941 494.347 335.671 494.482C335.671 494.751 335.537 494.751 335.402 494.751Z" fill="#26192A"/>
<path d="M573.764 357.605C573.495 357.605 573.36 357.47 573.226 357.201L569.053 341.319C568.919 341.05 569.188 340.781 569.457 340.646C569.726 340.512 569.996 340.781 570.13 341.05L574.302 356.932C574.302 357.201 574.168 357.47 573.764 357.605Z" fill="#26192A"/>
<path d="M562.996 351.548C562.727 351.548 562.592 351.413 562.458 351.144C562.323 350.875 562.592 350.606 562.861 350.471L577.801 346.164C578.07 346.03 578.339 346.299 578.474 346.568C578.608 346.837 578.339 347.107 578.07 347.241L563.131 351.548C563.131 351.548 563.131 351.548 562.996 351.548Z" fill="#26192A"/>
<path d="M577.937 353.163C577.802 353.163 577.802 353.163 577.667 353.029L565.016 344.684C564.747 344.549 564.747 344.28 564.881 344.011C565.016 343.742 565.285 343.742 565.554 343.876L578.206 352.221C578.475 352.356 578.475 352.625 578.34 352.894C578.34 353.029 578.071 353.163 577.937 353.163Z" fill="#26192A"/>
<path d="M567.705 355.586C567.57 355.586 567.571 355.586 567.436 355.586C567.167 355.451 567.167 355.182 567.301 354.913L574.838 341.454C574.973 341.185 575.242 341.185 575.511 341.319C575.78 341.454 575.78 341.723 575.646 341.992L568.109 355.451C567.974 355.451 567.84 355.586 567.705 355.586Z" fill="#26192A"/>
<path d="M545.229 579.004C544.96 579.004 544.825 578.869 544.69 578.6L540.518 562.719C540.384 562.45 540.653 562.18 540.922 562.046C541.191 561.911 541.46 562.18 541.595 562.45L545.767 578.331C545.767 578.6 545.633 578.869 545.229 579.004Z" fill="#26192A"/>
<path d="M534.461 572.948C534.192 572.948 534.057 572.813 533.923 572.544C533.788 572.275 534.057 572.005 534.326 571.871L549.266 567.564C549.535 567.429 549.804 567.699 549.939 567.968C550.073 568.237 549.804 568.506 549.535 568.641L534.595 572.948C534.595 572.948 534.595 572.948 534.461 572.948Z" fill="#26192A"/>
<path d="M549.401 574.563C549.267 574.563 549.267 574.563 549.132 574.428L536.481 566.083C536.212 565.949 536.212 565.68 536.346 565.411C536.481 565.141 536.75 565.141 537.019 565.276L549.671 573.62C549.94 573.755 549.94 574.024 549.805 574.293C549.671 574.563 549.536 574.563 549.401 574.563Z" fill="#26192A"/>
<path d="M539.17 577.12C539.035 577.12 539.035 577.12 538.901 577.12C538.632 576.985 538.632 576.716 538.766 576.447L546.303 562.988C546.438 562.719 546.707 562.719 546.976 562.853C547.245 562.988 547.245 563.257 547.111 563.526L539.574 576.985C539.439 576.985 539.305 577.12 539.17 577.12Z" fill="#26192A"/>
<path d="M352.901 443.203C352.632 443.203 352.497 443.069 352.362 442.8L348.19 426.918C348.056 426.649 348.325 426.38 348.594 426.245C348.863 426.11 349.132 426.38 349.267 426.649L353.439 442.53C353.574 442.934 353.304 443.203 352.901 443.203C353.035 443.203 353.035 443.203 352.901 443.203Z" fill="#26192A"/>
<path d="M342.267 437.281C341.998 437.281 341.864 437.147 341.729 436.878C341.595 436.608 341.864 436.339 342.133 436.205L357.072 431.898C357.341 431.763 357.611 432.032 357.745 432.302C357.88 432.571 357.611 432.84 357.342 432.974L342.402 437.281C342.402 437.281 342.402 437.281 342.267 437.281Z" fill="#26192A"/>
<path d="M357.206 438.896C357.072 438.896 357.072 438.896 356.937 438.762L344.285 430.417C344.016 430.283 344.016 430.014 344.151 429.744C344.286 429.475 344.555 429.475 344.824 429.61L357.475 437.954C357.744 438.089 357.744 438.358 357.61 438.627C357.475 438.762 357.341 438.896 357.206 438.896Z" fill="#26192A"/>
<path d="M346.844 441.319C346.709 441.319 346.709 441.319 346.575 441.319C346.305 441.184 346.305 440.915 346.44 440.646L353.977 427.187C354.112 426.918 354.381 426.918 354.65 427.053C354.919 427.187 354.919 427.456 354.785 427.725L347.247 441.184C347.247 441.184 347.113 441.319 346.844 441.319Z" fill="#26192A"/>
<path d="M576.587 425.034C576.452 425.034 576.317 425.034 576.183 424.899L566.896 415.882C566.762 415.747 566.762 415.478 566.762 415.343L576.183 392.059L560.436 413.997C560.301 414.132 560.167 414.132 560.032 414.266L549.938 415.343C549.669 415.343 549.534 415.209 549.4 415.074C549.265 414.939 549.399 414.67 549.534 414.536L577.798 388.156L578.74 387.349C578.875 387.214 579.144 387.214 579.278 387.214C579.413 387.349 579.548 387.483 579.548 387.752L576.99 424.764C576.99 424.899 576.856 425.168 576.721 425.168C576.587 425.034 576.587 425.034 576.587 425.034ZM567.838 415.343L576.048 423.419L578.471 388.964L567.838 415.343ZM574.837 392.194L551.418 414.132L559.763 413.19L574.837 392.194Z" fill="#26192A"/>
<path d="M567.031 427.187C566.897 427.187 566.628 427.052 566.628 426.918L559.629 413.997C559.494 413.728 559.629 413.459 559.898 413.324C560.167 413.19 560.437 413.324 560.571 413.593L566.628 424.899L566.897 415.747C566.897 415.478 567.166 415.209 567.435 415.209C567.704 415.209 567.974 415.478 567.974 415.747L567.704 426.918C567.57 426.918 567.435 427.052 567.031 427.187C567.031 427.187 567.166 427.187 567.031 427.187Z" fill="#26192A"/>
<path d="M567.031 427.187H566.896C566.627 427.052 566.492 426.783 566.627 426.514L570.126 418.573C570.261 418.304 570.53 418.17 570.799 418.304C571.069 418.439 571.203 418.708 571.068 418.977L567.569 426.918C567.435 427.052 567.3 427.187 567.031 427.187Z" fill="#26192A"/>
<path d="M439.574 433.109C439.574 433.109 413.868 440.377 407.676 438.627C401.351 436.877 400.409 405.518 384.258 412.651C368.107 419.919 375.106 455.316 392.468 465.41C409.83 475.505 443.343 454.239 443.343 454.239L439.574 433.109Z" fill="#FCB82E"/>
<path d="M480.893 409.96C480.893 409.96 508.08 393.136 538.766 423.284C569.587 453.432 544.15 487.079 521.539 491.117C521.539 490.982 470.26 447.375 480.893 409.96Z" fill="#F58A28"/>
<path d="M480.892 409.959C480.892 409.959 554.916 437.147 509.021 535.935L437.689 537.954C437.689 537.954 408.349 477.927 450.61 412.92L480.892 409.959Z" fill="#FCB82E"/>
<path d="M441.862 510.363C441.862 510.363 418.847 545.895 441.862 589.098H462.454C462.454 589.098 462.05 552.221 469.722 527.456L441.862 510.363Z" fill="#FCB82E"/>
<path d="M484.795 510.363C484.795 510.363 461.78 545.895 484.795 589.098H505.387C505.387 589.098 504.984 552.221 512.655 527.456L484.795 510.363Z" fill="#FCB82E"/>
<path d="M512.386 506.326C512.386 506.326 514.001 545.491 536.209 545.356C558.416 545.222 532.44 498.654 553.167 496.77C562.184 495.962 565.011 506.326 555.051 509.017C550.744 510.229 564.472 543.741 542.4 552.624C520.327 561.507 502.965 541.992 503.638 517.631C504.311 493.27 512.386 506.326 512.386 506.326Z" fill="#FCB82E"/>
<path d="M488.432 509.287C488.432 509.287 497.584 450.875 470.666 444.953C443.748 439.031 431.635 495.02 449.401 515.747C467.032 536.339 485.74 523.015 488.432 509.287Z" fill="#FFFAF0"/>
<path d="M435.269 549.394C435 549.394 434.73 549.125 434.73 548.856C434.73 548.452 435 544.953 435.807 543.876C435.942 543.607 436.346 543.607 436.48 543.741C436.749 543.876 436.749 544.28 436.615 544.414C436.076 545.087 435.807 547.51 435.673 548.856C435.807 549.125 435.538 549.394 435.269 549.394Z" fill="#26192A"/>
<path d="M438.632 553.432C438.363 553.432 438.094 553.163 438.094 552.893C438.094 552.49 438.363 548.99 439.17 547.914C439.305 547.644 439.709 547.644 439.843 547.779C440.113 547.914 440.113 548.317 439.978 548.452C439.44 549.125 439.17 551.548 439.036 552.893C439.17 553.163 438.901 553.432 438.632 553.432Z" fill="#26192A"/>
<path d="M436.209 558.816C435.939 558.816 435.805 558.681 435.67 558.412C435.536 558.008 434.863 554.509 435.401 553.297C435.536 553.028 435.805 552.894 436.074 553.028C436.343 553.163 436.478 553.432 436.343 553.701C436.074 554.374 436.343 556.931 436.612 558.277C436.747 558.546 436.612 558.816 436.209 558.816C436.209 558.816 436.343 558.816 436.209 558.816Z" fill="#26192A"/>
<path d="M440.785 562.719C440.516 562.719 440.381 562.584 440.246 562.315C440.112 561.911 439.439 558.412 439.977 557.201C440.112 556.931 440.381 556.797 440.65 556.931C440.919 557.066 441.054 557.335 440.919 557.604C440.65 558.277 440.919 560.834 441.188 562.18C441.323 562.449 441.188 562.719 440.785 562.719Z" fill="#26192A"/>
<path d="M436.881 567.564C436.611 567.564 436.477 567.429 436.342 567.16C436.208 566.756 435.535 563.257 436.073 562.046C436.208 561.777 436.477 561.642 436.746 561.777C437.015 561.911 437.15 562.18 437.015 562.449C436.746 563.122 437.015 565.68 437.284 567.026C437.419 567.295 437.15 567.564 436.881 567.564Z" fill="#26192A"/>
<path d="M440.785 571.063C440.516 571.063 440.381 570.929 440.246 570.659C440.112 570.256 439.439 566.756 439.977 565.545C440.112 565.276 440.381 565.141 440.65 565.276C440.919 565.41 441.054 565.68 440.919 565.949C440.65 566.622 440.919 569.179 441.188 570.525C441.323 570.794 441.188 571.063 440.785 571.063Z" fill="#26192A"/>
<path d="M439.843 576.581C439.708 576.581 439.439 576.447 439.439 576.312C439.304 575.908 437.824 572.678 438.093 571.332C438.093 571.063 438.362 570.929 438.632 570.929C438.901 570.929 439.035 571.198 439.035 571.467C438.901 572.274 439.708 574.563 440.247 575.774C440.381 576.043 440.247 576.312 439.977 576.447C440.112 576.581 439.977 576.581 439.843 576.581Z" fill="#26192A"/>
<path d="M478.605 548.318C478.336 548.318 478.066 548.048 478.066 547.779C478.066 547.375 478.336 543.876 479.143 542.799C479.278 542.53 479.681 542.53 479.816 542.665C480.085 542.799 480.085 543.203 479.951 543.338C479.412 544.011 479.143 546.433 479.009 547.779C479.143 548.048 478.874 548.318 478.605 548.318Z" fill="#26192A"/>
<path d="M481.968 552.355C481.699 552.355 481.43 552.086 481.43 551.817C481.43 551.413 481.699 547.914 482.506 546.837C482.641 546.568 483.045 546.568 483.179 546.703C483.449 546.837 483.449 547.241 483.314 547.375C482.776 548.048 482.506 550.471 482.372 551.817C482.506 552.221 482.237 552.355 481.968 552.355Z" fill="#26192A"/>
<path d="M479.548 557.873C479.279 557.873 479.145 557.739 479.01 557.47C478.875 557.066 478.203 553.566 478.741 552.355C478.875 552.086 479.145 551.951 479.414 552.086C479.683 552.221 479.818 552.49 479.683 552.759C479.414 553.432 479.683 555.989 479.952 557.335C480.087 557.47 479.952 557.739 479.548 557.873C479.548 557.873 479.683 557.873 479.548 557.873Z" fill="#26192A"/>
<path d="M484.123 561.776C483.853 561.776 483.719 561.642 483.584 561.373C483.45 560.969 482.777 557.47 483.315 556.258C483.45 555.989 483.719 555.854 483.988 555.989C484.257 556.124 484.392 556.393 484.257 556.662C483.988 557.335 484.257 559.892 484.526 561.238C484.661 561.373 484.526 561.642 484.123 561.776Z" fill="#26192A"/>
<path d="M480.087 566.622C479.818 566.622 479.684 566.487 479.549 566.218C479.414 565.814 478.742 562.315 479.28 561.103C479.415 560.834 479.684 560.7 479.953 560.834C480.222 560.969 480.357 561.238 480.222 561.507C479.953 562.18 480.222 564.737 480.491 566.083C480.76 566.218 480.491 566.487 480.087 566.622C480.222 566.622 480.222 566.622 480.087 566.622Z" fill="#26192A"/>
<path d="M484.123 569.986C483.853 569.986 483.719 569.852 483.584 569.583C483.45 569.179 482.777 565.68 483.315 564.468C483.45 564.199 483.719 564.064 483.988 564.199C484.257 564.334 484.392 564.603 484.257 564.872C483.988 565.545 484.257 568.102 484.526 569.448C484.661 569.717 484.526 569.986 484.123 569.986Z" fill="#26192A"/>
<path d="M483.183 575.639C483.048 575.639 482.779 575.504 482.779 575.37C482.644 574.966 481.164 571.736 481.433 570.39C481.433 570.121 481.702 569.986 481.971 569.986C482.241 569.986 482.375 570.255 482.375 570.525C482.241 571.332 483.048 573.62 483.586 574.832C483.721 575.101 483.586 575.37 483.317 575.505C483.317 575.505 483.317 575.639 483.183 575.639Z" fill="#26192A"/>
<path d="M505.928 430.686C505.928 430.686 501.083 473.755 526.116 483.176L523.156 490.713C523.156 490.713 502.16 483.311 498.391 460.7C496.103 447.375 500.006 430.686 500.006 430.686C500.006 430.686 504.044 428.533 505.928 430.686Z" fill="#F58A28"/>
<path d="M504.85 426.11C504.85 426.11 549.668 419.515 551.687 455.451C553.302 482.234 502.293 476.985 496.371 464.334C490.449 451.682 496.775 444.011 502.562 443.069C508.349 442.126 536.209 452.624 534.46 445.491C532.845 438.358 509.022 442.261 509.022 442.261L504.85 426.11Z" fill="#FCB82E"/>
<path d="M498.928 465.949C498.39 465.814 487.757 463.526 488.834 458.546C488.969 457.604 489.507 456.931 490.315 456.528C490.853 456.258 491.391 456.124 492.064 456.124C489.372 454.509 487.084 452.49 487.354 450.067C487.488 449.26 487.892 448.721 488.565 448.318C490.315 447.375 493.545 448.183 496.506 449.125C494.487 447.645 492.737 446.03 492.468 444.684C492.333 444.145 492.603 443.607 493.006 443.203C495.833 440.511 505.119 446.972 506.061 447.645C506.331 447.779 506.331 448.183 506.196 448.318C506.062 448.587 505.658 448.587 505.523 448.452C501.889 445.895 495.429 442.261 493.679 443.876C493.545 444.011 493.41 444.28 493.41 444.549C493.679 446.433 498.928 449.798 502.158 451.548C502.428 451.682 502.562 451.951 502.428 452.221C502.293 452.49 502.024 452.624 501.755 452.49C499.063 451.144 491.526 448.048 489.103 449.26C488.699 449.529 488.43 449.798 488.43 450.202C488.027 452.624 491.93 455.047 495.294 456.662C497.313 457.2 498.928 458.143 499.063 458.143C499.332 458.277 499.332 458.546 499.332 458.816C499.197 459.085 498.928 459.219 498.659 459.085C498.524 459.085 496.909 458.546 494.891 457.604C493.276 457.2 491.66 456.931 490.718 457.335C490.18 457.604 489.911 458.008 489.776 458.681C489.103 461.911 496.236 464.199 499.063 464.872C499.332 464.872 499.467 465.141 499.467 465.41C499.467 465.68 499.197 465.949 498.928 465.949Z" fill="#26192A"/>
<path d="M441.727 428.533C441.727 428.533 414.809 450.202 427.864 489.637C427.864 489.637 428.537 452.086 441.727 428.533Z" fill="#F58A28"/>
<path d="M378.739 420.861C378.47 420.861 378.335 420.727 378.201 420.458C377.931 419.112 375.374 407.402 377.528 405.114C377.931 404.711 378.335 404.576 378.873 404.711C380.623 404.98 381.969 407.268 382.777 409.69C382.777 407.268 383.046 404.98 384.123 404.172C384.392 403.903 384.93 403.634 385.738 404.038C387.891 404.845 389.371 408.344 390.179 411.305C390.314 408.21 390.583 404.711 391.929 403.903C392.198 403.768 392.736 403.634 393.409 404.038C396.639 406.056 396.505 418.17 396.505 419.515C396.505 419.785 396.236 420.054 395.966 420.054C395.697 420.054 395.428 419.785 395.428 419.515C395.428 415.881 395.024 406.326 392.736 404.845C392.467 404.711 392.332 404.711 392.332 404.711C391.121 405.384 390.987 411.575 391.121 415.747C391.121 416.016 390.987 416.285 390.717 416.285C390.448 416.285 390.179 416.151 390.179 415.881C389.775 413.19 387.891 406.056 385.334 404.98C384.93 404.845 384.795 404.98 384.661 404.98C383.315 406.056 383.584 412.248 384.123 415.881C384.123 416.151 383.988 416.42 383.719 416.42C383.45 416.42 383.18 416.285 383.18 416.016C382.777 413.324 381.296 406.191 378.739 405.787C378.604 405.787 378.47 405.787 378.335 405.922C376.989 407.402 378.201 415.478 379.277 420.323C379.277 420.592 379.143 420.861 378.739 420.861C378.739 420.861 378.874 420.861 378.739 420.861Z" fill="#26192A"/>
<path d="M451.956 596.231C451.417 596.231 450.879 596.097 450.341 595.962C449.398 595.558 448.995 595.02 448.86 594.482C446.976 595.558 444.957 596.231 443.073 595.828C441.996 595.558 441.592 595.02 441.458 594.482C441.323 593.674 441.861 592.597 442.669 591.521C440.381 592.732 438.093 593.54 436.882 592.597C436.074 592.059 435.939 591.386 435.939 590.848C436.074 588.694 439.708 586.272 440.112 586.003C440.381 585.868 440.65 585.868 440.785 586.137C440.919 586.406 440.919 586.676 440.65 586.81C439.708 587.483 437.016 589.502 437.016 590.848C437.016 591.117 437.016 591.386 437.555 591.79C438.9 592.867 442.938 590.444 446.168 588.021C447.245 587.079 448.322 586.272 448.725 586.003C448.995 585.868 449.264 585.868 449.398 586.137C449.533 586.406 449.533 586.676 449.398 586.81C449.129 587.079 448.187 587.887 446.976 588.694C444.553 590.713 442.4 593.136 442.534 594.213C442.534 594.482 442.804 594.616 443.342 594.751C445.092 595.155 447.245 594.213 449.129 593.001C450.071 590.848 453.974 588.829 454.513 588.56C454.782 588.425 455.051 588.56 455.186 588.694C455.32 588.829 455.32 589.098 455.186 589.367C455.051 589.502 452.763 591.925 449.937 593.809C449.937 593.943 449.937 593.943 449.937 594.078C449.937 594.213 449.937 594.616 450.879 595.02C453.974 596.501 460.031 590.982 462.05 588.829C462.184 588.56 462.588 588.56 462.723 588.829C462.992 588.964 462.992 589.367 462.723 589.502C462.454 589.771 456.397 596.231 451.956 596.231Z" fill="#26192A"/>
<path d="M496.1 596.231C495.562 596.231 495.023 596.097 494.485 595.962C493.543 595.558 493.139 595.02 493.005 594.482C491.12 595.558 489.101 596.231 487.217 595.828C486.14 595.558 485.737 595.02 485.602 594.482C485.468 593.674 486.006 592.597 486.813 591.521C484.525 592.732 482.237 593.54 481.026 592.597C480.219 592.059 480.084 591.386 480.084 590.848C480.219 588.694 483.852 586.272 484.256 586.003C484.525 585.868 484.795 585.868 484.929 586.137C485.064 586.406 485.064 586.676 484.795 586.81C483.852 587.483 481.161 589.502 481.161 590.848C481.161 591.117 481.161 591.386 481.699 591.79C483.045 592.867 487.083 590.444 490.313 588.021C491.389 587.079 492.466 586.272 492.87 586.003C493.139 585.868 493.408 585.868 493.543 586.137C493.678 586.406 493.678 586.676 493.543 586.81C493.274 587.079 492.332 587.887 491.12 588.694C488.698 590.713 486.544 593.136 486.679 594.213C486.679 594.482 486.948 594.616 487.486 594.751C489.236 595.155 491.389 594.213 493.274 593.001C494.216 590.848 498.119 588.829 498.657 588.56C498.926 588.425 499.196 588.56 499.33 588.694C499.465 588.829 499.465 589.098 499.33 589.367C499.196 589.502 496.908 591.925 494.081 593.809C494.081 593.943 494.081 593.943 494.081 594.078C494.081 594.213 494.081 594.616 495.023 595.02C498.254 596.501 504.176 590.982 506.194 588.829C506.329 588.56 506.733 588.56 506.867 588.829C507.136 588.964 507.136 589.367 506.867 589.502C506.464 589.771 500.542 596.231 496.1 596.231Z" fill="#26192A"/>
<path d="M543.881 502.826C543.881 502.826 539.978 490.04 548.726 490.444C557.475 490.848 558.821 499.192 553.168 496.904C547.515 494.751 556.129 486.137 561.647 491.252C567.3 496.366 569.049 503.499 562.32 503.23C555.59 502.961 559.224 498.654 564.07 501.48C568.915 504.307 567.703 510.229 560.839 512.651C553.975 515.074 552.091 508.21 555.86 509.017C559.628 509.96 562.993 516.151 555.321 516.824C547.65 517.497 544.016 509.421 548.457 509.152C552.899 509.017 551.956 514.939 546.035 515.478C540.113 516.016 536.344 499.596 541.593 498.25C546.977 497.174 548.323 504.711 543.881 502.826Z" fill="#FFFAF0"/>
<path d="M554.378 517.362C552.224 517.362 550.206 516.689 548.591 515.478C547.783 515.747 546.975 516.016 546.168 516.151C542.399 516.554 539.438 510.902 538.765 505.518C538.227 501.346 539.304 498.519 541.592 497.981C541.861 497.846 542.265 497.846 542.534 497.846C542.399 495.02 542.938 492.867 544.149 491.521C545.226 490.309 546.706 489.771 548.725 489.906C550.34 490.04 551.821 490.309 553.032 490.848C554.378 489.771 556.128 489.098 557.743 489.098C559.358 489.098 560.838 489.637 562.049 490.848C565.414 493.809 567.433 497.577 567.164 500.269C567.164 501.211 566.76 502.019 566.222 502.692C567.298 504.038 567.702 505.653 567.298 507.268C566.76 509.825 564.337 511.978 560.838 513.19C560.569 513.324 560.434 513.324 560.3 513.324C560.434 514.132 560.165 514.805 559.761 515.478C558.954 516.554 557.473 517.227 555.32 517.362C555.051 517.362 554.782 517.362 554.378 517.362ZM549.667 514.939C551.282 516.016 553.167 516.554 555.32 516.42C557.204 516.285 558.55 515.747 559.088 514.939C559.358 514.536 559.492 514.132 559.492 513.593C557.07 513.997 554.916 513.19 553.974 511.575C553.57 510.767 553.436 509.96 553.839 509.287C554.243 508.614 555.051 508.344 556.127 508.614C557.877 509.017 559.627 510.632 560.3 512.382C560.434 512.382 560.704 512.248 560.838 512.248C563.934 511.171 566.087 509.287 566.625 506.999C566.895 505.653 566.625 504.307 565.683 503.23C565.01 503.634 564.068 503.768 562.992 503.768H562.588C558.685 503.634 558.416 502.153 558.416 501.75C558.416 500.807 559.627 500 561.242 500C562.049 500 563.261 500.134 564.607 500.942C565.01 501.211 565.414 501.48 565.818 501.75C566.222 501.346 566.491 500.807 566.491 500C566.625 497.577 564.741 494.213 561.646 491.386C560.569 490.444 559.358 489.906 558.012 489.906C556.8 489.906 555.455 490.309 554.378 491.117C556.666 492.597 557.608 494.616 557.339 495.962C557.07 497.443 555.455 497.846 553.301 497.039C551.821 496.501 551.282 495.424 551.148 494.751C551.013 493.674 551.417 492.328 552.494 491.252C551.417 490.848 550.206 490.579 548.994 490.579C547.379 490.444 546.033 490.982 545.226 491.79C543.88 493.136 543.745 495.558 543.88 497.443C546.168 497.712 547.379 499.865 547.379 501.346C547.379 502.961 545.899 503.768 544.014 502.961C543.88 502.961 543.745 502.826 543.745 502.692C543.745 502.557 543.207 500.807 542.938 498.519C542.669 498.519 542.399 498.519 542.13 498.654C540.111 499.192 539.708 502.288 540.111 505.114C540.65 509.96 543.342 515.209 546.302 514.805C546.975 514.805 547.514 514.67 548.052 514.401C546.706 512.92 546.033 511.171 546.437 509.96C546.572 509.421 547.11 508.479 548.725 508.479H548.994C550.609 508.479 551.686 509.287 552.09 510.498C552.09 512.248 551.148 513.863 549.667 514.939ZM548.725 509.69H548.591C547.783 509.69 547.379 509.96 547.245 510.498C546.975 511.305 547.514 512.92 548.86 514.266C550.475 513.324 551.013 511.978 550.878 511.036C550.609 510.229 549.802 509.69 548.725 509.69ZM555.185 509.421C554.916 509.421 554.647 509.556 554.512 509.69C554.378 509.96 554.378 510.498 554.647 510.902C554.916 511.305 555.724 512.517 558.012 512.517C558.416 512.517 558.685 512.517 559.088 512.382C558.55 511.036 557.07 509.825 555.724 509.421C555.455 509.421 555.32 509.421 555.185 509.421ZM560.838 501.077C559.627 501.077 559.088 501.48 559.088 501.75C559.088 502.019 559.896 502.692 562.319 502.692H562.588C563.395 502.692 564.068 502.557 564.607 502.423C564.337 502.288 564.068 502.019 563.799 501.884C562.588 501.211 561.511 501.077 560.838 501.077ZM544.284 502.423C544.553 502.557 544.957 502.557 545.091 502.557C545.764 502.557 546.033 502.019 546.033 501.615C546.033 500.538 545.226 499.192 543.611 498.789C543.88 500.538 544.149 501.884 544.284 502.423ZM553.167 492.059C552.224 493.001 551.686 494.078 551.821 494.885C551.955 495.558 552.494 496.097 553.301 496.366C554.782 496.904 555.724 496.77 555.993 495.962C556.262 494.885 555.185 493.136 553.167 492.059Z" fill="#26192A"/>
<path d="M417.101 326.514C417.101 326.514 419.927 306.864 438.366 307.537C449.537 307.941 445.903 324.63 440.923 320.323C435.943 316.016 450.344 292.059 466.226 303.903C480.896 314.805 472.955 321.804 469.321 320.458C465.688 319.112 472.148 299.193 485.338 301.75C504.046 305.518 502.7 324.63 494.49 326.38C486.28 328.129 499.2 305.114 513.063 311.709C526.926 318.304 525.714 332.84 518.447 334.051C511.179 335.263 523.023 311.306 537.155 322.477C551.286 333.647 549.941 355.989 537.155 357.739C524.369 359.489 527.195 346.837 540.923 353.701C554.651 360.565 548.864 383.446 534.059 383.715C519.254 383.984 525.714 371.871 534.328 379.139C542.942 386.407 546.845 406.999 529.079 409.825C511.313 412.651 513.871 395.693 523.426 403.634C532.982 411.575 529.079 428.533 507.679 432.571C486.28 436.474 498.124 412.651 501.757 419.516C505.391 426.38 494.086 436.608 479.954 435.801C465.822 434.993 469.052 416.958 473.628 419.516C478.339 422.073 481.838 440.781 461.65 435.801C441.461 430.821 437.155 414.805 444.019 416.824C451.017 418.843 454.113 436.07 435.809 432.571C417.504 429.071 412.39 401.75 422.35 402.153C432.309 402.557 425.984 423.284 414.409 418.977C402.834 414.67 396.912 395.962 409.025 390.04C421.138 384.119 406.737 407.672 396.509 395.559C386.28 383.446 398.124 361.238 405.795 367.429C413.332 373.755 394.894 377.254 392.605 366.084C390.317 354.913 396.778 337.416 406.872 340.108C416.966 342.8 415.351 347.241 410.641 348.856C403.103 351.682 400.95 329.206 408.352 322.342C417.101 314.401 428.541 318.304 426.387 326.245C424.234 334.186 415.217 330.417 417.101 326.514Z" fill="#FFFAF0"/>
<path d="M467.837 437.147C465.953 437.147 463.934 436.877 461.646 436.339C456.532 435.128 452.225 433.109 448.591 430.417C447.38 431.898 444.957 433.647 440.516 433.647C439.17 433.647 437.555 433.513 435.94 433.244C429.076 431.898 423.288 427.187 419.789 420.054C418.039 420.458 416.29 420.323 414.54 419.65C407.003 416.824 401.35 407.537 402.292 399.596C400.139 399.192 398.255 397.981 396.505 395.962C390.583 388.964 391.66 378.6 395.697 371.736C393.948 370.39 392.871 368.506 392.333 366.218C390.852 359.085 392.737 349.933 396.909 344.28C398.928 341.588 401.216 339.838 403.773 339.435C403.234 333.513 404.446 325.707 408.483 322.073C411.714 319.112 415.482 317.497 419.116 317.497C419.385 317.497 419.52 317.497 419.789 317.497C422.615 312.382 428.133 306.595 438.497 306.864C440.381 306.864 441.862 307.402 443.207 308.345C446.976 303.096 452.225 300 457.474 300C460.704 300 463.8 301.077 466.761 303.365C468.779 304.845 470.395 306.326 471.74 307.806C473.625 304.98 477.528 300.942 483.181 300.942C483.988 300.942 484.796 301.077 485.603 301.211C493.006 302.692 498.255 306.729 500.139 312.517C504.446 309.69 509.156 309.152 513.463 311.171C518.174 313.459 521.673 316.824 523.423 320.861C527.999 318.035 533.113 318.439 537.689 322.073C543.746 326.918 547.649 334.32 548.053 341.857C548.322 347.106 546.841 351.817 544.015 354.778C548.322 358.143 550.341 363.795 549.264 369.852C548.187 376.178 544.15 381.427 538.766 383.311C541.862 388.425 543.746 396.097 541.054 402.153C539.035 406.595 535.132 409.287 529.479 410.229C529.21 410.229 529.076 410.363 528.806 410.363C529.749 414.132 529.21 418.17 526.922 421.669C523.557 427.322 516.828 431.225 508.08 432.84C506.465 433.109 504.984 433.244 503.638 433.244C500.812 433.244 498.658 432.571 497.178 431.359C493.006 434.32 487.487 436.07 481.835 436.07C481.296 436.07 480.758 436.07 480.22 436.07C478.335 435.935 476.586 435.532 475.105 434.724C473.221 436.474 470.798 437.147 467.837 437.147ZM449.129 429.61C452.629 432.167 456.936 434.186 461.915 435.397C467.299 436.743 471.471 436.474 474.029 434.589C469.452 431.628 468.914 425.841 469.722 422.476C470.26 420.188 471.471 418.842 472.952 418.842C473.356 418.842 473.759 418.977 474.163 419.112C476.047 420.054 477.528 423.149 477.932 426.379C478.201 428.264 478.201 431.628 475.778 434.186C476.989 434.724 478.47 435.128 480.22 435.262C480.758 435.262 481.296 435.262 481.835 435.262C487.084 435.262 492.333 433.647 496.37 430.821C494.351 428.398 494.755 424.764 495.832 422.207C496.774 419.919 498.524 417.766 500.273 417.766C500.946 417.766 501.754 418.035 502.427 419.246C504.311 422.746 502.561 427.322 497.985 430.956C499.331 432.032 501.216 432.436 503.638 432.436C504.984 432.436 506.33 432.301 507.945 432.032C516.424 430.417 522.884 426.649 526.115 421.265C528.133 417.9 528.806 413.997 527.73 410.498C526.922 410.633 526.249 410.633 525.576 410.633C519.385 410.633 517.097 407.806 516.424 406.729C515.617 405.384 515.482 403.768 516.155 402.557C516.693 401.615 517.77 400.942 518.981 400.942C520.462 400.942 522.211 401.75 523.961 403.23C525.98 404.98 527.461 406.999 528.403 409.421C528.672 409.421 528.941 409.287 529.21 409.287C534.459 408.479 538.228 405.922 540.112 401.75C542.669 395.962 540.919 388.56 537.824 383.58C536.747 383.849 535.536 384.118 534.325 384.118H533.786C527.999 384.118 526.115 382.234 525.442 381.157C524.903 380.215 524.903 379.139 525.442 378.196C526.115 376.985 527.595 376.312 529.21 376.312C530.556 376.312 532.575 376.716 534.863 378.735C536.074 379.812 537.151 381.023 538.228 382.503C543.342 380.754 547.245 375.774 548.187 369.717C549.129 363.93 547.245 358.681 543.208 355.451C541.592 356.931 539.574 357.873 537.42 358.143C533.248 358.681 530.152 357.873 528.941 355.855C528.403 354.912 528.403 353.97 528.941 353.163C529.749 351.817 531.498 351.009 533.786 351.009C535.94 351.009 538.631 351.682 541.458 353.163C542.131 353.432 542.669 353.836 543.208 354.24C545.899 351.413 547.245 346.972 546.976 341.992C546.572 334.589 542.938 327.456 537.016 322.88C532.709 319.381 527.999 319.112 523.692 321.803C524.769 325.168 524.634 328.668 523.154 331.09C522.077 332.84 520.596 334.051 518.712 334.455C518.443 334.455 518.308 334.455 518.039 334.455C516.963 334.455 516.29 333.917 516.02 332.974C515.213 330.417 518.039 324.63 522.481 321.4C521 317.497 517.635 314.132 513.059 311.978C509.022 310.094 504.58 310.633 500.543 313.459C501.485 316.958 501.081 320.592 499.466 323.284C498.389 325.168 496.774 326.38 494.89 326.783C493.275 327.187 492.198 326.649 491.794 325.437C490.987 322.88 494.082 316.824 499.331 313.055C497.582 307.537 492.602 303.499 485.469 302.153C484.661 302.019 483.988 301.884 483.181 301.884C477.797 301.884 474.163 305.922 472.413 308.479C476.182 313.055 475.644 316.285 474.836 317.9C474.028 319.65 472.144 320.996 470.395 320.996C469.991 320.996 469.587 320.996 469.318 320.861C468.914 320.727 468.51 320.458 468.241 319.65C467.434 317.362 468.78 312.651 471.202 308.748C469.856 307.268 468.241 305.787 466.088 304.172C463.261 302.019 460.3 301.077 457.339 301.077C452.494 301.077 447.514 304.038 443.88 309.152C446.438 311.709 446.707 315.882 445.63 318.708C444.957 320.458 443.88 321.534 442.535 321.534C441.862 321.534 441.189 321.265 440.65 320.727C438.497 318.843 439.304 314.132 442.535 309.287C441.458 308.479 440.112 308.075 438.362 307.941C428.806 307.537 423.558 312.921 420.731 317.631C423.154 318.035 425.173 319.112 426.384 320.727C427.461 322.342 427.73 324.226 427.191 326.38C425.98 330.821 422.75 331.359 421.404 331.359C419.52 331.359 417.636 330.417 416.828 329.071C416.29 328.129 416.155 327.187 416.693 326.245C416.828 325.707 417.366 322.342 419.251 318.439H419.116C415.617 318.439 412.117 319.919 409.156 322.746C405.388 326.245 404.311 333.647 404.85 339.3C405.657 339.3 406.599 339.3 407.407 339.569C413.732 341.184 415.213 343.472 415.213 345.087C415.347 346.837 413.732 348.452 411.175 349.394C410.637 349.529 410.233 349.663 409.695 349.663C406.734 349.663 404.58 346.164 403.773 340.511C401.485 340.915 399.466 342.396 397.582 344.953C393.813 350.202 391.929 359.354 393.275 366.083C393.679 368.102 394.621 369.717 396.101 370.929C398.12 367.833 400.677 365.949 403.1 365.949C404.177 365.949 405.253 366.353 406.33 367.16C408.483 368.91 408.483 370.39 408.214 371.198C407.676 372.813 405.253 373.89 402.427 373.89C400.273 373.89 398.255 373.351 396.505 372.275C392.602 378.869 391.66 388.694 397.178 395.289C398.658 397.174 400.408 398.25 402.292 398.519C402.965 394.482 405.388 391.521 409.022 389.637C410.368 388.964 411.579 388.56 412.387 388.56C413.598 388.56 414.405 389.233 414.405 390.444C414.405 393.405 409.426 399.596 403.504 399.596C403.369 399.596 403.234 399.596 403.1 399.596C402.292 407.133 407.541 416.016 414.675 418.573C416.155 419.112 417.77 419.246 419.251 418.977C416.693 413.19 416.29 406.999 418.308 403.903C419.251 402.423 420.597 401.75 422.212 401.75H422.481C425.442 401.884 427.326 403.768 427.73 406.864C428.268 411.44 425.442 417.766 420.596 419.65C423.961 426.379 429.479 430.956 435.94 432.167C441.458 433.244 445.63 432.436 447.649 429.879C442.131 425.572 439.843 420.458 440.65 417.9C441.054 416.554 442.4 416.016 444.15 416.42C446.303 417.093 448.322 419.112 449.264 421.938C450.475 424.63 450.341 427.456 449.129 429.61ZM472.952 419.785C472.01 419.785 471.202 420.861 470.664 422.746C469.856 425.841 470.395 431.225 474.836 433.916C477.124 431.628 477.124 428.398 476.855 426.649C476.451 423.688 475.105 420.861 473.625 420.054C473.356 419.919 473.086 419.785 472.952 419.785ZM500.139 418.842C499.062 418.842 497.582 420.458 496.64 422.746C495.697 425.168 495.294 428.264 497.043 430.417C501.35 427.052 502.965 423.015 501.35 419.919C501.081 419.246 500.677 418.842 500.139 418.842ZM443.073 417.227C442.4 417.227 441.862 417.497 441.727 418.17C441.054 420.054 442.804 424.63 448.322 429.071C449.399 427.187 449.399 424.764 448.591 422.342C447.649 419.919 446.034 418.035 444.15 417.497C443.746 417.227 443.342 417.227 443.073 417.227ZM422.212 402.826C420.866 402.826 419.789 403.365 419.116 404.576C417.232 407.537 417.77 413.324 420.193 418.842C424.634 417.093 427.326 411.44 426.788 407.133C426.653 405.653 425.711 402.961 422.481 402.826H422.212ZM518.981 402.153C518.039 402.153 517.366 402.557 516.963 403.23C516.424 404.038 516.559 405.249 517.232 406.326C517.77 407.402 519.789 409.825 525.442 409.825C525.98 409.825 526.653 409.825 527.326 409.69C526.518 407.537 525.172 405.653 523.288 404.172C521.269 402.557 519.789 402.153 518.981 402.153ZM403.234 398.654C403.369 398.654 403.369 398.654 403.504 398.654C408.618 398.654 413.329 393.136 413.329 390.579C413.329 390.04 413.06 389.771 412.387 389.771C411.848 389.771 411.041 389.906 409.426 390.713C406.061 392.328 403.907 395.02 403.234 398.654ZM529.076 377.524C527.73 377.524 526.653 378.062 526.115 379.004C525.711 379.677 525.711 380.35 526.115 381.023C526.518 381.83 528.133 383.445 533.652 383.445H534.19C535.132 383.445 536.209 383.311 537.151 383.042C536.209 381.696 535.267 380.619 534.19 379.677C532.037 377.927 530.287 377.524 529.076 377.524ZM397.043 371.467C398.524 372.409 400.408 372.947 402.427 372.947C404.85 372.947 406.868 372.14 407.272 370.929C407.676 369.852 406.599 368.775 405.792 367.968C404.984 367.295 404.177 367.026 403.234 367.026C401.216 366.891 398.928 368.641 397.043 371.467ZM533.652 352.355C531.767 352.355 530.287 352.894 529.749 353.97C529.479 354.509 529.479 355.182 529.749 355.72C530.691 357.335 533.517 358.008 537.151 357.47C539.035 357.201 540.785 356.393 542.265 355.182C541.862 354.912 541.323 354.643 540.785 354.374C538.228 353.028 535.67 352.355 533.652 352.355ZM404.85 340.377C405.522 345.491 407.407 348.721 409.695 348.721C410.099 348.721 410.368 348.587 410.771 348.452C412.925 347.645 414.136 346.433 414.136 345.087C414.002 343.338 411.444 341.723 407.003 340.511C406.33 340.511 405.522 340.377 404.85 340.377ZM522.75 322.611C518.578 325.841 516.29 330.956 516.963 332.974C517.097 333.513 517.501 333.782 518.039 333.782C518.174 333.782 518.308 333.782 518.443 333.782C520.058 333.513 521.404 332.571 522.212 330.956C523.423 328.668 523.692 325.572 522.75 322.611ZM420.327 318.708C418.174 322.746 417.636 326.649 417.636 326.649V326.783C417.232 327.591 417.501 328.264 417.77 328.668C418.443 329.744 419.924 330.552 421.539 330.552C423.827 330.552 425.576 329.071 426.384 326.38C426.922 324.63 426.653 323.015 425.711 321.669C424.5 319.919 422.615 318.977 420.327 318.708ZM499.466 314.266C494.621 317.9 492.063 323.419 492.602 325.303C492.736 325.572 492.871 325.976 493.679 325.976C493.948 325.976 494.082 325.976 494.351 325.841C495.967 325.437 497.312 324.495 498.255 322.88C499.87 320.592 500.273 317.497 499.466 314.266ZM443.207 309.96C440.516 314.132 439.574 318.573 441.189 319.919C441.592 320.323 441.996 320.458 442.4 320.458C443.208 320.458 444.015 319.65 444.553 318.304C445.63 315.882 445.361 312.248 443.207 309.96ZM471.74 309.69C469.318 313.594 468.51 317.766 469.049 319.381C469.183 319.785 469.318 319.919 469.587 320.054C470.798 320.458 472.952 319.785 473.894 317.766C474.432 316.42 474.971 313.728 471.74 309.69Z" fill="#26192A"/>
<path d="M463.665 416.42C500.274 421.131 520.193 359.489 515.348 335.935C510.502 312.382 496.909 355.72 496.909 355.72L448.591 346.03C448.591 346.03 450.745 319.785 442.669 321.669C434.594 323.553 406.196 408.883 463.665 416.42Z" fill="#FCB82E"/>
<path d="M472.686 387.752C472.551 387.752 472.551 387.752 472.686 387.752L455.458 384.388C455.189 384.388 455.055 384.118 455.055 383.849L458.958 349.394C458.958 349.125 459.227 348.856 459.496 348.991C459.765 348.991 460.034 349.26 459.9 349.529L456.131 383.58L472.282 386.676L480.357 352.759C480.357 352.49 480.627 352.355 481.03 352.355C481.3 352.355 481.434 352.759 481.434 353.028L473.224 387.483C473.09 387.618 472.82 387.752 472.686 387.752Z" fill="#26192A"/>
<path d="M452.898 383.042L476.182 386.676C476.182 386.676 471.741 396.366 462.723 395.962C454.917 395.558 452.898 383.042 452.898 383.042Z" fill="#26192A"/>
<path d="M445.498 376.043C445.363 376.043 445.094 376.043 444.825 375.774C443.075 374.293 442.537 366.218 442.402 364.603C442.402 364.334 442.537 364.065 442.941 364.065C443.21 364.065 443.479 364.199 443.479 364.603C443.883 370.121 444.825 374.966 445.633 375.101C446.44 374.966 447.517 369.583 448.055 363.526C448.055 363.257 448.324 362.988 448.593 363.122C448.863 363.122 449.132 363.392 448.997 363.661C448.728 367.16 447.786 375.774 445.498 376.043C445.498 376.043 445.632 376.043 445.498 376.043Z" fill="#26192A"/>
<path d="M485.067 383.58C484.797 383.58 484.528 383.445 484.394 383.311C482.913 381.83 483.721 373.486 483.99 371.871C483.99 371.602 484.259 371.332 484.528 371.467C484.797 371.467 485.066 371.736 484.932 372.005C484.394 377.389 484.394 382.234 485.067 382.638C486.009 382.503 488.97 377.254 491.123 372.274C491.258 372.005 491.527 371.871 491.796 372.005C492.065 372.14 492.2 372.409 492.065 372.678C490.989 375.235 487.22 383.445 485.067 383.58C485.067 383.58 485.201 383.58 485.067 383.58Z" fill="#26192A"/>
<path d="M461.11 407.268C460.975 407.268 460.975 407.268 460.841 407.268C458.822 406.864 458.553 400.135 458.553 397.308C458.553 397.039 458.822 396.904 459.091 396.77C459.36 396.77 459.629 397.039 459.629 397.308C459.629 401.884 460.302 406.191 460.975 406.326C461.11 406.326 462.187 406.326 464.878 398.654C465.013 398.385 465.282 398.25 465.551 398.385C465.821 398.52 465.955 398.789 465.821 399.058C463.398 406.057 462.052 407.268 461.11 407.268Z" fill="#26192A"/>
<path d="M446.44 384.926C446.44 384.926 446.305 384.791 446.44 384.926L433.654 382.503C433.385 382.503 433.25 382.234 433.25 381.965C433.25 381.696 433.519 381.561 433.788 381.561L446.574 383.984C446.843 383.984 446.978 384.253 446.978 384.522C446.844 384.657 446.709 384.926 446.44 384.926Z" fill="#26192A"/>
<path d="M446.575 388.291L432.712 385.734C432.443 385.734 432.309 385.464 432.309 385.195C432.309 384.926 432.578 384.791 432.847 384.791L446.71 387.214C446.979 387.214 447.113 387.483 447.113 387.752C447.113 388.156 446.844 388.291 446.575 388.291Z" fill="#26192A"/>
<path d="M446.44 392.597C446.44 392.597 446.305 392.597 446.44 392.597L433.519 389.502C433.25 389.502 433.115 389.098 433.115 388.829C433.115 388.56 433.384 388.425 433.788 388.425L446.574 391.521C446.843 391.521 446.978 391.925 446.978 392.194C446.843 392.463 446.709 392.597 446.44 392.597Z" fill="#26192A"/>
<path d="M491.258 393.136C491.124 393.136 491.124 393.136 491.258 393.136L478.472 390.713C478.203 390.713 478.068 390.444 478.068 390.175C478.068 389.906 478.338 389.771 478.607 389.771L491.393 392.194C491.662 392.194 491.796 392.463 491.796 392.732C491.662 393.001 491.393 393.136 491.258 393.136Z" fill="#26192A"/>
<path d="M491.392 396.635L477.529 394.078C477.26 394.078 477.125 393.809 477.125 393.54C477.125 393.27 477.394 393.136 477.663 393.136L491.526 395.693C491.795 395.693 491.93 395.962 491.93 396.231C491.93 396.501 491.661 396.635 491.392 396.635Z" fill="#26192A"/>
<path d="M491.26 400.942C491.26 400.942 491.125 400.942 491.26 400.942L478.339 397.847C478.07 397.847 477.936 397.443 477.936 397.174C477.936 396.904 478.205 396.77 478.608 396.77L491.394 399.865C491.664 399.865 491.798 400.269 491.798 400.538C491.664 400.808 491.394 400.942 491.26 400.942Z" fill="#26192A"/>
<path d="M442.672 344.953C442.537 344.953 442.537 344.953 442.672 344.953C442.268 344.818 442.133 344.549 442.133 344.28C444.152 335.935 440.922 329.61 440.922 329.475C440.787 329.206 440.922 328.937 441.191 328.802C441.46 328.667 441.729 328.802 441.864 329.071C441.999 329.34 445.229 335.801 443.21 344.549C443.075 344.818 442.806 344.953 442.672 344.953Z" fill="#26192A"/>
<path d="M503.236 357.201C503.236 357.201 503.101 357.201 503.236 357.201C502.966 357.201 502.697 356.931 502.697 356.662C503.639 348.452 510.1 342.934 510.369 342.665C510.638 342.53 510.907 342.53 511.042 342.665C511.176 342.934 511.176 343.203 511.042 343.338C511.042 343.338 504.582 348.856 503.774 356.662C503.639 357.066 503.505 357.201 503.236 357.201Z" fill="#26192A"/>
<path d="M516.694 469.179C516.694 469.179 516.559 469.179 516.694 469.179C516.155 469.044 512.656 468.506 511.714 467.564C511.579 467.429 511.445 467.025 511.714 466.891C511.849 466.756 512.252 466.622 512.387 466.891C512.925 467.429 515.348 467.968 516.694 468.237C516.963 468.237 517.098 468.506 517.098 468.775C517.098 469.044 516.963 469.179 516.694 469.179Z" fill="#26192A"/>
<path d="M520.999 466.218C520.46 466.083 516.961 465.545 516.019 464.603C515.884 464.468 515.75 464.065 516.019 463.93C516.288 463.795 516.557 463.661 516.692 463.93C517.23 464.468 519.653 465.007 520.999 465.276C521.268 465.276 521.402 465.545 521.402 465.814C521.537 466.083 521.268 466.218 520.999 466.218Z" fill="#26192A"/>
<path d="M523.694 469.314C522.752 469.314 521.675 469.179 521.136 468.91C520.867 468.775 520.733 468.506 520.867 468.237C521.002 467.968 521.271 467.968 521.54 467.968C522.213 468.371 524.636 468.237 526.116 468.102C526.385 468.102 526.655 468.237 526.655 468.506C526.655 468.775 526.52 469.044 526.251 469.044C526.116 469.179 524.905 469.314 523.694 469.314Z" fill="#26192A"/>
<path d="M528.133 465.276C527.191 465.276 526.114 465.141 525.576 464.872C525.307 464.738 525.172 464.468 525.307 464.199C525.441 463.93 525.71 463.93 525.98 463.93C526.653 464.334 529.075 464.199 530.556 464.065C530.825 464.065 531.094 464.199 531.094 464.468C531.094 464.738 530.959 465.007 530.69 465.007C530.421 465.141 529.344 465.276 528.133 465.276Z" fill="#26192A"/>
<path d="M532.576 469.717C531.634 469.717 530.558 469.583 530.019 469.313C529.75 469.179 529.615 468.91 529.75 468.641C529.885 468.371 530.154 468.371 530.423 468.371C531.096 468.775 533.519 468.641 534.999 468.506C535.268 468.506 535.537 468.641 535.537 468.91C535.537 469.179 535.403 469.448 535.134 469.448C534.864 469.583 533.653 469.717 532.576 469.717Z" fill="#26192A"/>
<path d="M536.342 466.083C535.4 466.083 534.323 465.949 533.785 465.68C533.516 465.545 533.381 465.276 533.516 465.007C533.65 464.738 533.919 464.738 534.189 464.738C534.862 465.141 537.284 465.007 538.765 464.872C539.034 464.872 539.303 465.007 539.303 465.276C539.303 465.545 539.168 465.814 538.899 465.814C538.63 465.949 537.553 466.083 536.342 466.083Z" fill="#26192A"/>
<path d="M540.114 468.237C539.845 468.237 539.575 468.237 539.441 468.102C539.172 467.968 539.037 467.698 539.037 467.429C539.172 467.16 539.441 467.026 539.71 467.026C540.518 467.295 542.806 466.622 544.151 466.218C544.421 466.083 544.69 466.218 544.824 466.487C544.959 466.756 544.825 467.026 544.555 467.16C544.152 467.429 541.594 468.237 540.114 468.237Z" fill="#26192A"/>
<path d="M444.956 480.081C444.687 480.081 444.418 479.812 444.418 479.542C444.418 479.139 444.553 475.639 445.36 474.428C445.495 474.159 445.898 474.159 446.033 474.293C446.302 474.428 446.302 474.832 446.168 474.966C445.629 475.639 445.495 478.062 445.36 479.408C445.36 479.812 445.226 480.081 444.956 480.081Z" fill="#26192A"/>
<path d="M450.611 481.561C450.341 481.561 450.072 481.292 450.072 481.023C450.072 480.619 450.207 477.12 451.014 475.908C451.149 475.639 451.553 475.639 451.687 475.774C451.957 475.908 451.957 476.312 451.822 476.447C451.284 477.12 451.149 479.542 451.014 480.888C451.014 481.427 450.88 481.561 450.611 481.561Z" fill="#26192A"/>
<path d="M447.783 472.544C447.513 472.544 447.244 472.275 447.244 472.005C447.244 471.602 447.379 468.102 448.186 466.891C448.321 466.622 448.725 466.622 448.859 466.756C449.128 466.891 449.128 467.295 448.994 467.429C448.456 468.102 448.321 470.525 448.186 471.871C448.321 472.275 448.052 472.544 447.783 472.544Z" fill="#26192A"/>
<path d="M398.254 465.141C398.12 465.141 398.12 465.141 397.985 465.141C397.581 465.007 394.486 463.257 393.947 461.911C393.813 461.642 393.947 461.373 394.217 461.238C394.486 461.104 394.755 461.238 394.889 461.507C395.293 462.18 397.312 463.526 398.523 464.199C398.793 464.334 398.793 464.603 398.658 464.872C398.658 465.007 398.389 465.141 398.254 465.141Z" fill="#26192A"/>
<path d="M389.641 460.161C389.506 460.161 389.372 460.161 389.237 460.027C388.968 459.758 386.814 456.931 386.68 455.585C386.68 455.316 386.814 455.047 387.084 455.047C387.353 455.047 387.622 455.182 387.622 455.451C387.622 456.258 389.102 458.277 390.044 459.354C390.179 459.623 390.179 459.892 389.91 460.027C389.91 460.161 389.775 460.161 389.641 460.161Z" fill="#26192A"/>
<path d="M396.235 459.758C396.1 459.758 396.1 459.758 395.966 459.623C395.562 459.354 392.601 457.47 392.063 456.258C391.928 455.989 392.063 455.72 392.332 455.585C392.601 455.451 392.87 455.585 393.005 455.855C393.274 456.528 395.293 458.008 396.504 458.816C396.773 458.95 396.773 459.219 396.639 459.488C396.639 459.623 396.504 459.758 396.235 459.758Z" fill="#26192A"/>
<path d="M404.851 461.238C404.447 461.238 400.948 460.969 399.737 460.161C399.467 460.027 399.468 459.623 399.602 459.488C399.737 459.219 400.14 459.219 400.275 459.354C400.948 459.892 403.371 460.161 404.716 460.161C404.986 460.161 405.255 460.431 405.255 460.7C405.389 460.969 405.12 461.238 404.851 461.238Z" fill="#26192A"/>
<path d="M413.869 462.719C413.465 462.719 409.966 462.449 408.754 461.642C408.485 461.507 408.485 461.104 408.62 460.969C408.754 460.7 409.158 460.7 409.293 460.834C409.966 461.373 412.388 461.642 413.734 461.642C414.003 461.642 414.272 461.911 414.272 462.18C414.407 462.449 414.138 462.719 413.869 462.719Z" fill="#26192A"/>
<path d="M388.968 452.894C388.833 452.894 388.699 452.894 388.699 452.759C388.429 452.49 385.603 450.336 385.199 448.991C385.065 448.721 385.199 448.452 385.468 448.318C385.738 448.183 386.007 448.318 386.141 448.587C386.411 449.394 388.295 451.009 389.372 451.817C389.641 451.951 389.641 452.355 389.506 452.49C389.237 452.894 389.102 452.894 388.968 452.894Z" fill="#26192A"/>
<path d="M405.118 465.007C404.311 465.007 403.503 464.872 403.099 464.737C402.83 464.603 402.696 464.334 402.83 464.065C402.965 463.795 403.234 463.661 403.503 463.795C404.176 464.199 406.733 463.93 408.079 463.795C408.348 463.795 408.618 463.93 408.618 464.199C408.618 464.468 408.483 464.737 408.214 464.737C408.079 464.737 406.599 465.007 405.118 465.007Z" fill="#26192A"/>
<path d="M446.844 488.156C446.575 488.156 446.44 488.021 446.306 487.752C446.171 487.349 445.363 483.984 445.902 482.638C446.036 482.369 446.306 482.234 446.575 482.369C446.844 482.503 446.978 482.772 446.844 483.042C446.575 483.849 446.979 486.272 447.382 487.618C447.382 487.752 447.248 488.021 446.844 488.156C446.844 488.156 446.978 488.156 446.844 488.156Z" fill="#26192A"/>
<path d="M451.283 490.982C451.014 490.982 450.88 490.848 450.745 490.579C450.61 490.175 449.803 486.81 450.341 485.464C450.476 485.195 450.745 485.061 451.014 485.195C451.283 485.33 451.418 485.599 451.283 485.868C451.014 486.676 451.418 489.098 451.822 490.444C451.822 490.579 451.687 490.848 451.283 490.982C451.283 490.982 451.418 490.982 451.283 490.982Z" fill="#26192A"/>
<path d="M455.053 504.711C454.784 504.711 454.649 504.576 454.515 504.307C454.38 503.903 453.572 500.538 454.111 499.192C454.245 498.923 454.515 498.789 454.784 498.923C455.053 499.058 455.187 499.327 455.053 499.596C454.784 500.404 455.187 502.826 455.591 504.172C455.591 504.441 455.457 504.711 455.053 504.711Z" fill="#26192A"/>
<path d="M455.052 518.17C454.917 518.17 454.782 518.17 454.782 518.035C454.513 517.766 451.552 515.747 451.149 514.401C451.014 514.132 451.149 513.863 451.418 513.728C451.687 513.594 451.956 513.728 452.091 513.997C452.36 514.805 454.244 516.285 455.321 517.093C455.59 517.227 455.59 517.631 455.455 517.766C455.321 518.035 455.186 518.17 455.052 518.17Z" fill="#26192A"/>
<path d="M459.091 515.612C458.957 515.612 458.822 515.612 458.822 515.478C458.553 515.209 455.727 513.055 455.323 511.709C455.188 511.44 455.458 511.171 455.727 511.036C455.996 510.902 456.265 511.171 456.4 511.44C456.669 512.248 458.419 513.863 459.495 514.805C459.764 514.939 459.764 515.343 459.63 515.478C459.361 515.478 459.226 515.612 459.091 515.612Z" fill="#26192A"/>
<path d="M446.707 498.25C446.438 498.25 446.303 498.116 446.169 497.847C446.034 497.443 445.227 494.078 445.765 492.732C445.9 492.463 446.169 492.328 446.438 492.463C446.707 492.598 446.842 492.867 446.707 493.136C446.438 493.943 446.842 496.366 447.246 497.712C447.246 497.981 446.976 498.25 446.707 498.25Z" fill="#26192A"/>
<path d="M451.553 499.192C451.284 499.192 451.149 499.058 451.015 498.789C450.88 498.385 450.072 495.02 450.611 493.674C450.745 493.405 451.015 493.271 451.284 493.405C451.553 493.54 451.687 493.809 451.553 494.078C451.284 494.886 451.688 497.308 452.091 498.654C452.091 498.923 451.957 499.192 451.553 499.192C451.553 499.192 451.687 499.192 451.553 499.192Z" fill="#26192A"/>
<path d="M452.765 511.44C452.63 511.44 452.361 511.306 452.361 511.171C452.226 510.767 450.88 507.537 451.284 506.191C451.284 505.922 451.553 505.787 451.823 505.787C452.092 505.787 452.226 506.057 452.226 506.326C452.092 507.133 452.765 509.421 453.303 510.767C453.438 511.036 453.303 511.306 453.034 511.44C452.899 511.44 452.765 511.44 452.765 511.44Z" fill="#26192A"/>
<path d="M448.188 507.133C448.053 507.133 447.784 506.999 447.784 506.864C447.65 506.46 446.034 503.365 446.304 501.884C446.304 501.615 446.573 501.48 446.842 501.48C447.111 501.48 447.246 501.75 447.246 502.019C447.111 502.826 448.053 505.114 448.592 506.326C448.726 506.595 448.592 506.864 448.322 506.999C448.322 506.999 448.322 507.133 448.188 507.133Z" fill="#26192A"/>
<path d="M340.25 422.342C340.115 422.342 340.115 422.342 339.981 422.342L325.445 414.939C325.176 414.805 325.041 414.536 325.176 414.266L356.939 345.357C356.939 345.222 357.074 345.087 357.208 345.087C357.343 345.087 357.477 345.087 357.612 345.087L372.82 352.894C373.09 353.028 373.224 353.297 373.09 353.567L340.654 422.073C340.654 422.207 340.519 422.342 340.384 422.342C340.384 422.342 340.25 422.342 340.25 422.342ZM326.387 414.132L339.981 420.996L372.013 353.432L357.612 346.164L326.387 414.132Z" fill="#26192A"/>
<path d="M364.071 356.124C363.937 356.124 363.937 356.124 363.802 356.124L354.65 351.548C354.381 351.413 354.246 351.144 354.381 350.875C354.516 350.606 354.785 350.471 355.054 350.606L364.206 355.182C364.475 355.316 364.61 355.585 364.475 355.855C364.475 355.989 364.206 356.124 364.071 356.124Z" fill="#26192A"/>
<path d="M358.688 356.931C358.553 356.931 358.553 356.931 358.419 356.931L353.304 354.374C353.035 354.239 352.901 353.97 353.035 353.701C353.17 353.432 353.439 353.297 353.708 353.432L358.823 355.989C359.092 356.124 359.226 356.393 359.092 356.662C359.092 356.797 358.823 356.931 358.688 356.931Z" fill="#26192A"/>
<path d="M362.053 351.144C361.919 351.144 361.919 351.144 361.784 351.144L356.266 347.914C355.997 347.779 355.997 347.51 356.131 347.241C356.266 346.972 356.535 346.972 356.804 347.106L362.322 350.336C362.592 350.471 362.592 350.74 362.457 351.009C362.457 351.009 362.322 351.144 362.053 351.144Z" fill="#26192A"/>
<path d="M359.363 365.007C359.228 365.007 359.228 365.007 359.094 365.007L350.211 361.104C349.941 360.969 349.807 360.7 349.941 360.431C350.076 360.161 350.345 360.027 350.614 360.161L359.497 364.065C359.767 364.199 359.901 364.468 359.766 364.737C359.766 365.007 359.632 365.007 359.363 365.007Z" fill="#26192A"/>
<path d="M353.845 366.487H353.71L348.865 364.468C348.596 364.334 348.461 364.064 348.596 363.795C348.73 363.526 349 363.391 349.269 363.526L354.114 365.545C354.383 365.679 354.518 365.949 354.383 366.218C354.249 366.352 354.114 366.487 353.845 366.487Z" fill="#26192A"/>
<path d="M357.208 360.7C357.073 360.7 357.073 360.7 356.939 360.7L351.69 357.739C351.421 357.604 351.421 357.335 351.555 357.066C351.69 356.797 351.959 356.797 352.228 356.931L357.477 359.892C357.746 360.027 357.746 360.296 357.612 360.565C357.612 360.565 357.477 360.7 357.208 360.7Z" fill="#26192A"/>
<path d="M355.189 375.908C355.054 375.908 355.054 375.908 354.92 375.908L345.902 371.736C345.633 371.602 345.498 371.332 345.633 371.063C345.767 370.794 346.037 370.659 346.306 370.794L355.323 374.966C355.593 375.101 355.727 375.37 355.593 375.639C355.593 375.908 355.458 375.908 355.189 375.908Z" fill="#26192A"/>
<path d="M350.479 376.716H350.344L345.095 374.562C344.826 374.428 344.692 374.159 344.826 373.889C344.961 373.62 345.23 373.486 345.499 373.62L350.748 375.774C351.017 375.908 351.152 376.178 351.017 376.447C350.883 376.716 350.614 376.716 350.479 376.716Z" fill="#26192A"/>
<path d="M353.304 370.659C353.17 370.659 353.17 370.659 353.035 370.659L347.248 367.968C346.979 367.833 346.844 367.564 346.979 367.295C347.113 367.025 347.382 366.891 347.652 367.025L353.439 369.717C353.708 369.852 353.843 370.121 353.708 370.39C353.708 370.525 353.573 370.659 353.304 370.659Z" fill="#26192A"/>
<path d="M350.613 384.791C350.478 384.791 350.478 384.791 350.343 384.791L341.326 380.619C341.057 380.484 340.922 380.215 341.057 379.946C341.191 379.677 341.46 379.542 341.73 379.677L350.747 383.849C351.016 383.984 351.151 384.253 351.016 384.522C351.016 384.791 350.882 384.791 350.613 384.791Z" fill="#26192A"/>
<path d="M345.903 385.599H345.768L340.519 383.445C340.25 383.311 340.115 383.042 340.25 382.772C340.385 382.503 340.654 382.369 340.923 382.503L346.172 384.657C346.441 384.791 346.576 385.06 346.441 385.33C346.307 385.599 346.172 385.599 345.903 385.599Z" fill="#26192A"/>
<path d="M348.863 379.542C348.728 379.542 348.728 379.542 348.594 379.542L342.941 376.985C342.672 376.851 342.537 376.581 342.672 376.312C342.807 376.043 343.076 375.908 343.345 376.043L348.998 378.6C349.267 378.735 349.401 379.004 349.267 379.273C349.132 379.408 348.998 379.542 348.863 379.542Z" fill="#26192A"/>
<path d="M346.169 393.943C346.035 393.943 346.035 393.943 345.9 393.943L337.017 389.771C336.748 389.637 336.614 389.367 336.748 389.098C336.883 388.829 337.152 388.694 337.421 388.829L346.304 393.001C346.573 393.136 346.708 393.405 346.573 393.674C346.573 393.809 346.304 393.943 346.169 393.943Z" fill="#26192A"/>
<path d="M341.461 394.751H341.327L336.078 392.597C335.809 392.463 335.674 392.194 335.809 391.925C335.943 391.655 336.212 391.521 336.482 391.655L341.731 393.809C342 393.943 342.134 394.213 342 394.482C341.731 394.616 341.596 394.751 341.461 394.751Z" fill="#26192A"/>
<path d="M344.287 388.694H344.153L338.634 386.541C338.365 386.406 338.231 386.137 338.365 385.868C338.5 385.599 338.769 385.464 339.038 385.599L344.556 387.752C344.826 387.887 344.96 388.156 344.826 388.425C344.691 388.56 344.556 388.694 344.287 388.694Z" fill="#26192A"/>
<path d="M342.404 404.038C342.269 404.038 342.269 404.038 342.134 404.038L333.117 399.865C332.848 399.731 332.713 399.462 332.848 399.192C332.982 398.923 333.251 398.789 333.521 398.923L342.538 403.095C342.807 403.23 342.942 403.499 342.807 403.768C342.807 403.903 342.538 404.038 342.404 404.038Z" fill="#26192A"/>
<path d="M337.557 404.845H337.423L332.173 402.692C331.904 402.557 331.77 402.288 331.904 402.019C332.039 401.75 332.308 401.615 332.577 401.75L337.826 403.903C338.095 404.038 338.23 404.307 338.095 404.576C337.961 404.711 337.826 404.845 337.557 404.845Z" fill="#26192A"/>
<path d="M340.519 398.789C340.385 398.789 340.385 398.789 340.25 398.789L334.463 396.097C334.193 395.962 334.059 395.693 334.193 395.424C334.328 395.155 334.597 395.02 334.866 395.155L340.654 397.846C340.923 397.981 341.057 398.25 340.923 398.519C340.923 398.654 340.654 398.789 340.519 398.789Z" fill="#26192A"/>
<path d="M337.827 413.055C337.693 413.055 337.693 413.055 337.558 413.055L328.541 408.883C328.272 408.748 328.137 408.479 328.272 408.21C328.406 407.941 328.675 407.806 328.944 407.941L337.962 412.113C338.231 412.247 338.366 412.517 338.231 412.786C338.231 412.92 337.962 413.055 337.827 413.055Z" fill="#26192A"/>
<path d="M332.981 413.863H332.846L327.597 411.709C327.328 411.575 327.194 411.305 327.328 411.036C327.463 410.767 327.732 410.632 328.001 410.767L333.25 412.92C333.519 413.055 333.654 413.324 333.519 413.593C333.385 413.728 333.25 413.863 332.981 413.863Z" fill="#26192A"/>
<path d="M335.943 407.806C335.808 407.806 335.808 407.806 335.674 407.806L329.886 405.114C329.617 404.98 329.483 404.71 329.617 404.441C329.752 404.172 330.021 404.037 330.29 404.172L336.078 406.864C336.347 406.998 336.481 407.268 336.347 407.537C336.347 407.671 336.078 407.806 335.943 407.806Z" fill="#26192A"/>
<path d="M557.476 599.865C555.591 599.865 553.573 599.731 551.554 599.327C551.285 599.327 551.15 599.058 551.15 598.789C551.15 598.52 551.419 598.385 551.688 598.385C553.573 598.789 555.591 598.923 557.341 598.923C557.61 598.923 558.014 598.923 558.283 598.923C558.552 598.923 558.822 599.192 558.822 599.462C558.822 599.731 558.552 600 558.283 600C558.149 599.865 557.745 599.865 557.476 599.865ZM565.013 598.789C564.743 598.789 564.609 598.654 564.474 598.385C564.34 598.116 564.609 597.847 564.878 597.712C566.897 597.039 568.916 596.232 570.935 595.155C571.204 595.02 571.473 595.155 571.608 595.289C571.742 595.559 571.608 595.828 571.473 595.962C569.454 597.174 567.301 597.981 565.147 598.654C565.147 598.789 565.147 598.789 565.013 598.789ZM545.228 597.443H545.093C543.075 596.635 541.056 595.693 538.902 594.482C538.633 594.347 538.633 594.078 538.768 593.809C538.902 593.54 539.171 593.54 539.441 593.674C541.459 594.751 543.478 595.828 545.497 596.501C545.766 596.635 545.901 596.904 545.766 597.174C545.632 597.308 545.497 597.443 545.228 597.443ZM576.722 592.059C576.587 592.059 576.453 592.059 576.318 591.925C576.184 591.656 576.049 591.386 576.318 591.252L576.453 591.117C577.933 589.771 579.414 588.022 580.49 586.137C580.625 585.868 580.894 585.868 581.163 586.003C581.433 586.137 581.433 586.407 581.298 586.676C580.087 588.695 578.606 590.444 576.991 591.925C576.991 592.059 576.857 592.059 576.722 592.059ZM533.519 590.848C533.384 590.848 533.25 590.848 533.25 590.713C531.5 589.367 529.616 588.022 528.001 586.541C527.731 586.407 527.731 586.003 528.001 585.868C528.135 585.599 528.539 585.599 528.674 585.868C530.423 587.349 532.173 588.695 533.923 590.04C534.192 590.175 534.192 590.579 534.057 590.713C533.788 590.848 533.653 590.848 533.519 590.848ZM523.425 581.965C523.29 581.965 523.155 581.965 523.021 581.83L522.617 581.292C522.482 581.158 522.482 581.023 522.482 580.888C522.482 580.619 522.752 580.35 523.021 580.35C523.155 580.35 523.29 580.485 523.425 580.619L523.828 581.023C523.963 581.292 523.963 581.561 523.828 581.696C523.559 581.965 523.559 581.965 523.425 581.965ZM583.721 580.888H583.586C583.317 580.754 583.182 580.485 583.317 580.215C583.99 578.331 584.528 576.043 584.932 573.755C584.932 573.486 585.201 573.351 585.47 573.351C585.739 573.351 585.874 573.621 585.874 573.89C585.47 576.312 584.797 578.466 584.124 580.485C584.124 580.754 583.855 580.888 583.721 580.888ZM586.278 567.699C586.009 567.699 585.739 567.429 585.739 567.16C586.009 565.007 586.143 562.853 586.143 560.431C586.143 560.162 586.412 559.892 586.682 559.892C586.951 559.892 587.22 560.162 587.22 560.431C587.085 562.853 586.951 565.007 586.816 567.16C586.816 567.429 586.547 567.699 586.278 567.699ZM586.816 554.24C586.547 554.24 586.278 553.97 586.278 553.701C586.278 551.548 586.143 549.26 586.009 546.972C586.009 546.703 586.143 546.433 586.547 546.433C586.816 546.433 587.085 546.568 587.085 546.972C587.22 549.26 587.22 551.548 587.355 553.701C587.355 553.97 587.085 554.24 586.816 554.24ZM586.143 540.781C585.874 540.781 585.605 540.646 585.605 540.377C585.47 538.089 585.201 535.935 585.067 533.647C585.067 533.378 585.201 533.109 585.47 533.109C585.739 533.109 586.009 533.244 586.009 533.513C586.278 535.801 586.412 537.954 586.547 540.242C586.682 540.512 586.412 540.781 586.143 540.781ZM584.797 527.322C584.528 527.322 584.259 527.187 584.259 526.918C583.99 524.63 583.721 522.477 583.451 520.189C583.451 519.919 583.586 519.65 583.855 519.65C584.124 519.65 584.394 519.785 584.394 520.054C584.663 522.207 584.932 524.495 585.201 526.783C585.336 527.053 585.066 527.322 584.797 527.322ZM583.182 513.997C582.913 513.997 582.779 513.863 582.644 513.594L582.509 512.921C582.24 510.902 581.971 508.883 581.702 506.864C581.702 506.595 581.836 506.326 582.106 506.326C582.375 506.326 582.644 506.46 582.644 506.73C582.913 508.748 583.182 510.633 583.451 512.786L583.586 513.459C583.721 513.728 583.586 513.997 583.182 513.997ZM581.567 500.673C581.298 500.673 581.029 500.538 581.029 500.269C580.76 497.981 580.49 495.693 580.356 493.54C580.356 493.271 580.49 493.001 580.76 493.001C581.029 493.001 581.298 493.136 581.298 493.405C581.433 495.559 581.702 497.712 581.971 500.135C582.106 500.404 581.836 500.673 581.567 500.673ZM582.106 488.56C581.971 488.56 581.971 488.56 582.106 488.56H581.836C579.548 488.425 577.395 487.618 575.511 486.137C575.242 486.003 575.241 485.599 575.376 485.464C575.511 485.195 575.914 485.195 576.049 485.33C577.799 486.676 579.683 487.349 581.836 487.483H581.971C582.24 487.483 582.509 487.752 582.375 488.022C582.509 488.291 582.24 488.56 582.106 488.56ZM588.7 487.752C588.431 487.752 588.297 487.618 588.162 487.483C588.027 487.214 588.162 486.945 588.431 486.81C590.585 486.003 592.2 484.791 593.411 482.907C593.546 482.638 593.815 482.638 594.084 482.773C594.353 482.907 594.353 483.176 594.219 483.446C593.007 485.33 591.123 486.81 588.7 487.618C588.835 487.752 588.7 487.752 588.7 487.752ZM580.49 487.214C580.221 487.214 579.952 486.945 579.952 486.676C579.952 485.464 579.817 484.253 579.817 483.176C579.817 481.965 579.818 480.888 579.952 479.946C579.952 479.677 580.221 479.408 580.49 479.408C580.76 479.408 581.029 479.677 581.029 479.946C581.029 480.888 580.894 481.965 580.894 483.176C580.894 484.253 580.894 485.464 581.029 486.676C580.894 486.945 580.76 487.214 580.49 487.214ZM571.473 481.158C571.338 481.158 571.069 481.023 571.069 480.888C569.992 479.139 569.05 476.985 568.243 474.697C568.108 474.428 568.243 474.159 568.512 474.024C568.781 473.89 569.05 474.024 569.185 474.294C569.993 476.582 570.935 478.6 571.877 480.35C572.011 480.619 571.877 480.888 571.742 481.023C571.742 481.158 571.608 481.158 571.473 481.158ZM595.564 477.254C595.295 477.254 595.026 476.985 595.026 476.716C594.892 474.428 593.949 472.409 592.603 471.063C592.334 470.929 592.334 470.525 592.603 470.39C592.738 470.121 593.142 470.121 593.276 470.39C594.892 471.871 595.834 474.159 596.103 476.716C596.103 476.985 595.834 477.254 595.564 477.254ZM581.702 473.89H581.567C581.298 473.755 581.163 473.486 581.298 473.217C581.836 471.736 582.778 470.66 583.721 470.121C584.663 469.583 585.605 469.179 586.547 468.91C586.816 468.775 587.085 469.045 587.22 469.314C587.354 469.583 587.085 469.852 586.816 469.987C586.009 470.256 585.066 470.525 584.124 471.063C583.317 471.602 582.644 472.409 582.106 473.755C582.106 473.755 581.836 473.89 581.702 473.89ZM566.897 468.506C566.628 468.506 566.493 468.372 566.359 468.102C565.955 466.084 565.551 463.796 565.147 461.373C565.147 461.104 565.282 460.835 565.551 460.835C565.82 460.835 566.089 460.969 566.089 461.238C566.359 463.526 566.762 465.814 567.301 467.833C567.435 468.237 567.301 468.506 566.897 468.506C566.897 468.506 567.032 468.506 566.897 468.506ZM565.013 455.182C564.743 455.182 564.474 455.047 564.474 454.778C564.34 452.625 564.205 450.337 564.071 448.049C564.071 447.779 564.34 447.51 564.609 447.51C564.878 447.51 565.147 447.779 565.147 448.049C565.282 450.337 565.416 452.625 565.551 454.778C565.551 454.913 565.282 455.182 565.013 455.182ZM564.34 441.723C564.071 441.723 563.801 441.588 563.801 441.319C563.801 437.147 563.936 434.59 563.936 434.59C563.936 434.32 564.205 434.051 564.474 434.051C564.744 434.051 565.013 434.32 565.013 434.59C565.013 434.59 564.878 437.281 564.878 441.185C564.878 441.454 564.743 441.723 564.34 441.723Z" fill="#26192A"/>
<path d="M393.139 569.583C386.409 569.583 379.276 564.065 372.143 553.432C366.894 545.491 363.529 537.416 363.395 537.416C363.26 537.147 363.395 536.877 363.664 536.743L398.119 521.669C398.388 521.534 398.657 521.669 398.792 521.938C399.33 523.015 410.636 549.394 404.31 562.584C402.695 565.949 400.003 568.237 396.234 569.179C395.158 569.448 394.081 569.583 393.139 569.583ZM364.471 537.416C366.221 541.319 378.738 568.641 393.004 568.641C393.946 568.641 395.023 568.506 395.965 568.237C399.33 567.295 401.887 565.276 403.368 562.18C409.02 550.336 399.599 526.514 397.984 522.88L364.471 537.416Z" fill="#26192A"/>
<path d="M379.681 570.256C378.47 570.256 377.124 569.583 376.586 568.775C376.047 568.102 376.047 567.295 376.451 566.756C376.586 566.487 376.855 566.487 377.124 566.622C377.393 566.756 377.393 567.026 377.259 567.295C377.124 567.429 376.989 567.698 377.393 568.237C377.932 568.91 379.277 569.448 380.354 569.179C381.162 568.91 381.7 568.102 381.835 567.026C381.835 566.083 381.7 565.545 381.296 565.007C380.22 563.795 377.259 563.93 374.298 564.065C369.049 564.199 362.588 564.334 360.031 558.681C358.685 555.585 358.551 552.894 359.762 550.471C361.781 546.299 366.895 544.818 367.164 544.818C367.434 544.684 367.703 544.953 367.837 545.222C367.972 545.491 367.703 545.76 367.434 545.895C367.434 545.895 362.588 547.241 360.704 551.009C359.762 553.163 359.762 555.585 361.108 558.412C363.396 563.526 369.183 563.392 374.432 563.257C377.797 563.122 380.758 563.122 382.238 564.603C382.911 565.276 383.181 566.218 383.046 567.295C382.911 569.448 381.565 570.121 380.893 570.39C380.354 570.256 379.95 570.256 379.681 570.256Z" fill="#26192A"/>
<path d="M409.694 558.008C409.156 558.008 408.348 557.874 407.541 557.201C406.464 556.528 405.925 555.586 405.656 554.643C405.253 552.625 407.002 550.337 408.886 547.779C411.847 543.876 415.212 539.3 413.193 533.917C412.251 531.359 410.771 529.61 408.752 528.937C405.387 527.725 401.484 530.148 401.484 530.148C401.215 530.283 400.946 530.283 400.811 530.014C400.676 529.744 400.677 529.475 400.946 529.341C401.08 529.206 405.253 526.649 409.156 527.995C411.444 528.802 413.059 530.552 414.135 533.513C416.289 539.435 412.655 544.28 409.694 548.318C407.944 550.74 406.329 552.894 406.598 554.509C406.733 555.182 407.137 555.855 407.944 556.393C408.617 556.931 409.694 557.335 410.502 556.662C411.444 555.989 411.713 554.643 411.578 553.701C411.444 553.297 411.174 553.028 410.905 553.028C410.636 553.028 410.367 552.759 410.502 552.49C410.502 552.221 410.771 551.952 411.04 552.086C411.847 552.221 412.386 552.759 412.655 553.567C412.924 554.778 412.52 556.662 411.309 557.604C410.905 557.739 410.367 558.008 409.694 558.008Z" fill="#26192A"/>
<path d="M402.829 579.139C402.695 579.139 402.426 579.004 402.426 578.869L397.85 568.102C397.715 567.833 397.85 567.564 398.119 567.429C398.388 567.295 398.657 567.429 398.792 567.698L403.368 578.466C403.502 578.735 403.368 579.004 403.099 579.139C402.964 579.139 402.829 579.139 402.829 579.139Z" fill="#26192A"/>
<path d="M397.851 582.1C397.717 582.1 397.447 581.965 397.447 581.83C397.313 581.561 397.447 581.292 397.717 581.157L410.099 575.37C410.368 575.235 410.637 575.37 410.772 575.639C410.906 575.908 410.772 576.178 410.503 576.312L398.12 582.1C397.986 582.1 397.851 582.1 397.851 582.1Z" fill="#26192A"/>
<path d="M372.28 539.165C371.203 539.165 369.992 539.165 368.781 539.031C368.512 539.031 368.377 538.896 368.377 538.627C368.377 538.358 368.512 538.223 368.646 538.089L395.16 525.976C395.295 525.841 395.564 525.976 395.699 526.11C395.833 526.245 395.833 526.514 395.833 526.649C395.699 526.783 389.238 539.165 372.28 539.165ZM370.8 538.223C371.203 538.223 371.742 538.223 372.145 538.223C385.201 538.223 391.796 530.821 393.949 527.591L370.8 538.223Z" fill="#26192A"/>
<path d="M556.398 587.887C556.263 587.887 556.263 587.887 556.398 587.887C555.994 587.752 555.859 587.483 555.859 587.214L558.955 574.563C558.955 574.294 559.224 574.159 559.628 574.159C559.897 574.159 560.032 574.563 560.032 574.832L556.936 587.483C556.801 587.752 556.532 587.887 556.398 587.887Z" fill="#26192A"/>
<path d="M563.128 582.234L551.015 579.677C550.746 579.677 550.611 579.408 550.611 579.139C550.611 578.87 550.88 578.735 551.15 578.735L563.128 581.292C563.397 581.292 563.532 581.561 563.532 581.831C563.666 582.1 563.397 582.234 563.128 582.234Z" fill="#26192A"/>
<path d="M560.973 586.272C560.838 586.272 560.569 586.137 560.569 586.003L554.916 575.505C554.781 575.236 554.916 574.967 555.185 574.832C555.454 574.697 555.724 574.832 555.858 575.101L561.511 585.599C561.646 585.868 561.511 586.137 561.242 586.272C561.107 586.272 561.107 586.272 560.973 586.272Z" fill="#26192A"/>
<path d="M552.898 584.253C552.764 584.253 552.629 584.119 552.495 583.984C552.36 583.715 552.36 583.446 552.629 583.311L562.993 576.716C563.262 576.582 563.531 576.582 563.666 576.851C563.8 577.12 563.8 577.389 563.531 577.524L553.168 584.119C553.033 584.253 552.898 584.253 552.898 584.253Z" fill="#26192A"/>
</svg>
