<svg width="144" height="144" viewBox="0 0 144 144" fill="none" xmlns="http://www.w3.org/2000/svg">
<path d="M68.8969 40.5003H68.6236V36.0003H94.1508C104.109 36.0003 112.41 28.1307 112.539 18.2385C112.67 8.1878 104.508 0 94.4206 0H76.7554C64.1882 0 54 10.1208 54 22.6052V62.328L76.252 76.682C81.5588 80.1052 84.7609 85.9639 84.7609 92.2497C84.7609 100.934 77.6442 108 68.8966 108L54 118.723V133.277L68.8966 144C97.6271 144 121 120.785 121 92.2494C121 63.7151 97.6271 40.5003 68.8969 40.5003Z" fill="#FF8F71"/>
<path d="M68.9997 107.913C63.4177 107.913 58.2099 104.884 55.4077 100.006C50.4527 91.3819 39.4965 88.4384 30.9382 93.4311C22.379 98.4237 19.4577 109.462 24.4127 118.087C33.5963 134.071 50.6807 144 69 144C59.1096 134.035 59.1096 117.878 68.9997 107.913Z" fill="#FF6F4D"/>
<path d="M66.7759 57.3437C62.2282 55.9621 59.1229 51.7628 59.1229 47.0088V17.9515C59.1229 8.03699 67.1582 0 77.0705 0H51.0683C41.1563 0 33.1208 8.03699 33.1208 17.9515C33.1208 60.5089 33 58.5517 33 58.5517C33.1121 68.4257 41.3276 76.2933 51.1998 76.2933H69.2863C77.9508 76.2933 85 83.3388 85 92V81.9486C85.0003 70.345 77.3181 60.5465 66.7759 57.3437Z" fill="#FF6F4D"/>
<path d="M54 11C52.8952 11 52 11.995 52 13.2222V16.7778C52 18.005 52.8952 19 54 19C55.1048 19 56 18.005 56 16.7778V13.2222C56 11.995 55.1048 11 54 11Z" fill="#313D40"/>
<path d="M91 11C89.8952 11 89 11.995 89 13.2222V16.7778C89 18.005 89.8952 19 91 19C92.1048 19 93 18.005 93 16.7778V13.2222C93 11.995 92.1048 11 91 11Z" fill="#313D40"/>
<path d="M78.25 20H66.75C63.5742 20 61 22.2708 61 27.3333C61 33.0339 64.2492 39.2511 67.8266 38.1706C68.8701 40.4885 70.5739 42 72.5 42C74.4261 42 76.1299 40.4885 77.1734 38.1706C80.7505 39.2511 84 33.0342 84 27.3333C84 22.2708 81.4258 20 78.25 20Z" fill="#FFCE71"/>
<path d="M87.8581 24.6424C87.4299 23.0123 86.8073 21.4319 86.0012 19.943C84.0557 16.3501 80.5604 13.8465 76.4118 13.0746C74.6464 12.7462 72.9306 13.5272 72 14.9198C71.0691 13.5275 69.3531 12.7464 67.5879 13.0746C63.4393 13.8465 59.9443 16.3501 57.9988 19.943C57.193 21.4316 56.5704 23.0123 56.1419 24.6424C55.4298 27.3527 57.4862 30.001 60.3228 30.001C62.2774 30.001 64.015 28.7126 64.497 26.843C64.7544 25.8446 65.1329 24.877 65.626 23.9664C66.3198 22.6846 67.6521 21.7489 69.1902 21.4626C70.3901 21.2392 71.3778 20.5374 71.9997 19.6039C72.6217 20.5374 73.6093 21.2392 74.8093 21.4626C76.3473 21.7489 77.6799 22.6849 78.3737 23.9662C78.8665 24.877 79.2453 25.8449 79.5027 26.843C79.9847 28.7126 81.7223 30.001 83.6769 30.001C86.5138 30.001 88.5702 27.3524 87.8581 24.6424Z" fill="#FCE3A0"/>
</svg>
