<svg width="558" height="102" viewBox="0 0 558 102" fill="none" xmlns="http://www.w3.org/2000/svg">
<path d="M0.791776 -4.27538C68.6626 27.5407 142.131 47.227 216.899 53.6896C291.767 60.1523 367.734 52.9936 440.103 33.0091C480.585 21.8735 519.769 6.66141 557.253 -12.2294C558.952 -13.1242 557.452 -15.7093 555.753 -14.8145C489.182 18.6919 416.713 40.466 342.545 49.0166C268.777 57.4678 193.809 52.6954 121.64 35.1965C80.5575 25.1545 40.5747 11.0361 2.29113 -6.86045C0.591862 -7.65585 -1.00745 -5.07079 0.791776 -4.27538Z" fill="#DDDDDD"/>
<path d="M45.2426 6.2244L96.283 23.2583C99.1627 24.2603 99.9571 27.9677 97.6732 30.0718L57.3572 66.9452C55.0733 69.0494 51.3992 67.847 50.8034 64.7408L40.0789 10.7334C39.4831 7.72739 42.3629 5.2224 45.2426 6.2244Z" fill="#01D8DC"/>
<path d="M120.495 30.0489L176.581 41.4512C178.864 41.9469 179.757 44.624 178.268 46.3095L141.341 88.6468C139.356 90.9272 135.484 90.2332 134.591 87.2586L117.219 33.9158C116.326 31.7344 118.311 29.6523 120.495 30.0489Z" fill="#7379EC"/>
<path d="M201.177 45.0031L258.207 48.7708C260.488 48.9691 261.778 51.4478 260.488 53.3316L229.543 100.229C227.857 102.807 223.989 102.51 222.7 99.7334L198.301 49.1674C197.309 47.1844 198.896 44.904 201.177 45.0031Z" fill="#FFD53F"/>
<path d="M281.757 48.5759L338.821 45.0031C341.103 44.9039 342.691 47.1865 341.699 49.2706L317.087 99.7856C315.698 102.564 311.926 102.763 310.239 100.183L279.574 53.1411C278.185 51.2555 279.475 48.7744 281.757 48.5759Z" fill="#01D8DC"/>
<path d="M444.09 23.0667L499.033 5.14687C501.243 4.44999 503.352 6.34153 502.95 8.53173L491.701 63.7846C491.098 66.7713 487.382 68.0655 485.071 65.9748L442.985 28.0445C441.278 26.5511 441.881 23.7636 444.09 23.0667Z" fill="#FFD53F"/>
<path d="M418.48 29.049L362.418 40.1643C360.136 40.5612 359.243 43.3401 360.731 45.0272L397.444 87.6026C399.429 89.9845 403.199 89.1905 404.192 86.2132L421.854 32.8202C422.548 30.7361 420.663 28.652 418.48 29.049Z" fill="#7379EC"/>
<path d="M248.113 55.6898C241.982 65.2701 235.953 74.9512 230.23 84.7332C229.208 86.4476 231.865 87.9602 232.887 86.2459C238.712 76.4639 244.639 66.7828 250.77 57.2025C251.792 55.589 249.135 54.0763 248.113 55.6898Z" fill="white"/>
<path d="M331.274 53.7903C326.266 64.7646 321.159 75.7389 316.151 86.7132C315.35 88.4093 317.954 90.0055 318.755 88.2097C323.763 77.2354 328.87 66.2611 333.878 55.2868C334.579 53.5907 332.075 51.9945 331.274 53.7903Z" fill="white"/>
<path d="M411.025 38.0094C406.574 49.8484 402.519 61.8863 399.057 74.1233C398.563 76.0135 401.431 76.8094 401.925 74.9192C405.387 62.6822 409.442 50.6443 413.893 38.8053C414.585 37.0145 411.717 36.2186 411.025 38.0094Z" fill="white"/>
<path d="M490.199 14.0488C488.473 26.0429 486.747 38.1361 485.021 50.1301C484.733 52.0135 487.514 52.8065 487.801 50.9231C489.527 38.929 491.253 26.8359 492.979 14.8418C493.267 13.0576 490.486 12.1654 490.199 14.0488Z" fill="white"/>
<path d="M165.484 47.4563C157.159 56.7471 148.735 66.1366 140.41 75.4273C139.106 76.8111 141.213 78.9855 142.516 77.5029C150.841 68.2122 159.265 58.8226 167.59 49.5319C168.894 48.1482 166.787 46.0726 165.484 47.4563Z" fill="white"/>
<path d="M85.3643 29.4071C77.365 36.7723 69.4669 44.1375 61.4675 51.5027C60.0499 52.7966 62.1763 54.8868 63.5939 53.5929C71.5933 46.2277 79.4914 38.8625 87.4907 31.4973C89.0096 30.2034 86.7819 28.1132 85.3643 29.4071Z" fill="white"/>
</svg>
