<svg width="400" height="435" viewBox="0 0 400 435" fill="none" xmlns="http://www.w3.org/2000/svg">
<path d="M248.917 205C231.195 205 222.141 202.099 220.6 195.715C219.251 190.493 220.215 185.657 223.104 181.788C225.608 178.5 229.461 176.372 233.121 176.372C234.084 176.372 235.24 176.566 236.01 176.953C238.9 171.536 243.523 165.54 249.495 165.54C250.265 165.54 250.843 165.54 251.614 165.734C254.31 157.029 260.282 154.321 268.758 158.19C271.84 159.544 274.344 160.898 276.463 162.252C278.582 157.029 283.205 152 290.14 152C292.066 152 293.992 152.387 296.111 153.161C301.12 155.095 304.972 157.996 307.091 161.478C309.596 161.478 312.1 162.639 314.411 165.153C319.227 170.182 322.887 175.792 324.621 180.821C325.969 180.241 327.318 179.854 328.666 179.854C331.17 179.854 333.289 180.821 335.216 182.949C338.49 186.237 338.298 188.945 337.527 190.686C335.216 196.489 322.695 200.551 304.009 201.325C298.423 201.518 291.296 202.099 283.976 202.872C272.803 203.839 259.897 205 248.917 205ZM233.121 177.726C229.846 177.726 226.571 179.661 224.26 182.562C221.563 186.044 220.792 190.493 221.948 195.328C223.297 200.938 232.158 203.646 248.917 203.646C259.897 203.646 272.803 202.485 283.976 201.518C291.296 200.938 298.423 200.164 304.009 199.971C321.731 199.197 334.06 195.522 336.179 190.106C336.949 188.172 336.179 186.044 334.06 183.916C331.363 181.208 328.088 180.628 324.813 182.175C325.584 185.27 325.584 187.591 324.621 188.945C323.85 189.912 322.887 190.299 321.346 190.299C319.42 190.106 319.035 188.945 318.842 188.365C318.457 186.431 320.383 183.336 323.272 181.401C321.731 176.566 318.071 170.956 313.448 165.927C311.522 163.993 309.788 162.832 307.862 162.639C309.403 166.314 309.403 170.376 307.477 173.471C305.936 175.985 303.817 177.146 301.312 176.759C299.193 176.372 298.038 174.438 298.23 171.73C298.423 167.474 301.312 162.639 305.55 161.478C303.624 158.383 300.157 155.869 295.726 154.321C293.8 153.547 292.066 153.354 290.332 153.354C283.976 153.354 279.738 158.19 277.811 163.026C283.205 166.701 283.976 169.215 283.59 170.569C283.205 172.31 281.279 173.277 278.582 173.664H278.389C277.426 173.664 276.656 173.277 276.078 172.504C274.922 170.763 274.922 167.281 276.078 163.606C273.959 162.252 271.262 160.898 268.18 159.544C260.475 156.062 255.273 158.19 252.962 166.12C253.925 166.507 254.888 167.088 255.851 167.861C261.245 171.923 261.438 175.212 260.86 177.533C259.897 180.628 256.044 182.755 253.347 182.755C251.421 182.755 250.265 181.788 250.072 180.241C250.072 178.5 249.88 172.697 251.228 167.281C250.65 167.088 250.072 167.088 249.495 167.088C244.294 167.088 240.056 172.697 237.359 177.726C238.515 178.5 239.478 179.467 240.248 180.628C241.597 183.142 241.789 185.463 240.634 187.398C239.67 189.139 237.359 190.493 235.432 190.493C234.084 190.493 233.121 189.912 232.543 189.139C231.965 188.365 231.772 187.011 232.736 184.69C232.736 184.69 233.699 181.788 235.432 178.5C234.662 177.92 233.891 177.726 233.121 177.726ZM236.588 178.693C234.855 181.982 233.891 184.883 233.891 184.883C233.314 186.237 233.121 187.398 233.506 188.172C233.891 188.752 234.662 188.945 235.047 188.945C236.396 188.945 238.129 188.172 239.092 186.624C240.056 185.077 239.863 183.336 238.707 181.208C238.322 180.047 237.551 179.274 236.588 178.693ZM323.85 182.949C321.539 184.496 320.19 186.818 320.383 187.978C320.383 188.172 320.576 188.752 321.539 188.752C322.502 188.752 323.08 188.558 323.465 187.978C324.428 187.204 324.428 185.27 323.85 182.949ZM252.577 167.474C251.228 172.697 251.421 178.307 251.614 179.854C251.614 180.821 252.577 181.015 253.347 181.015C255.659 181.015 258.741 179.274 259.511 176.759C260.282 174.245 258.741 171.537 255.081 168.828C254.118 168.248 253.347 167.861 252.577 167.474ZM306.321 162.832C302.468 163.606 299.964 168.442 299.771 171.923C299.771 173.084 299.964 175.212 301.698 175.599C303.431 175.985 305.165 175.018 306.321 173.084C307.669 170.763 308.44 166.894 306.321 162.832ZM277.233 164.38C276.27 167.668 276.27 170.569 277.041 171.537C277.233 171.923 277.619 172.117 278.004 172.117C280.316 171.923 281.664 171.15 282.049 170.182C282.435 168.828 280.701 166.701 277.233 164.38Z" fill="white"/>
<path d="M249.588 122C249.398 122 249.207 121.805 249.016 121.61C248.825 121.22 248.825 120.83 249.207 120.635C250.161 119.855 253.405 109.522 253.405 103.868C253.405 102.698 253.214 102.113 253.214 101.918C251.687 102.503 246.535 106.987 241.956 111.277C241.765 111.472 241.383 111.472 241.193 111.472C241.002 111.277 240.811 111.082 240.811 110.692C241.383 103.088 241.574 94.8995 241.193 92.5599C239.666 93.9246 235.086 99.9687 231.27 105.623C231.079 106.013 230.507 106.013 230.316 105.818C229.935 105.623 229.935 105.038 230.125 104.843C239.857 90.8052 241.193 91.0001 241.765 91.0001C242.528 91.1951 243.673 91.3901 242.528 109.132C252.832 99.5787 253.786 100.359 254.168 100.749C254.931 101.333 255.122 102.698 254.931 105.038C254.55 110.497 251.687 120.83 249.97 122C249.97 122 249.779 122 249.588 122Z" fill="white"/>
<path d="M17.5386 294C17.1562 294 16.7738 294 16.3914 293.807C13.9057 293.228 12.5673 290.718 12.7585 287.049C12.9497 283.96 14.2881 281.643 16.5826 280.098C17.7298 279.326 19.0683 278.746 20.5979 278.36C18.4947 275.657 15.053 272.568 9.3168 269.285C8.93439 269.092 8.93439 268.706 9.12559 268.32C9.3168 267.934 9.69921 267.934 10.0816 268.127C16.3914 271.602 20.0243 275.078 22.1276 278.167C30.923 276.622 42.969 280.484 43.5426 280.677C43.925 280.87 44.1162 281.257 43.925 281.643C43.7338 282.029 43.3514 282.222 42.969 282.029C42.7778 282.029 31.3054 278.36 22.8924 279.326C25.3781 283.573 24.6132 286.856 24.0396 288.594C23.0836 291.876 20.2155 294 17.5386 294ZM21.554 279.905C20.0243 280.291 18.6859 280.677 17.5386 281.643C15.6266 282.994 14.4793 284.925 14.2881 287.435C14.0969 290.331 15.053 292.262 16.7738 292.648C18.8771 293.035 21.7452 291.49 22.8924 288.401C23.466 287.049 24.0396 283.96 21.554 279.905Z" fill="white"/>
<path d="M94.1674 111.007C94.1674 111.007 59.6731 86.3349 33.2724 118.658C15.9288 139.696 -12.7844 212.183 27.2985 221.364C67.3813 230.353 108.235 141.609 94.1674 111.007Z" fill="#6AB0A0"/>
<path d="M33.2416 266.351C33.2416 266.351 23.0641 71.073 134.825 44.7412C168.237 36.8609 201.074 94.3295 190.705 98.1736C180.527 102.018 164.589 107.399 164.589 107.399C164.589 107.399 205.875 243.863 198.002 290.953C190.321 337.851 29.017 364.375 33.2416 266.351Z" fill="#F4DAC6"/>
<path d="M124 52.0696C124 52.0696 112.827 6.64659 68.134 20.6969C68.134 20.6969 55.4196 70.3542 115.138 58.0361L124 52.0696Z" fill="#F4DAC6"/>
<path d="M111.296 49C111.103 49 110.91 48.8067 110.718 48.6135C95.4992 27.5475 82.2071 30.833 82.0144 30.833C81.6292 31.0263 81.2439 30.6398 81.0512 30.2532C80.8586 29.8667 81.2439 29.4802 81.6292 29.2869C82.2071 29.0936 96.0771 25.8081 111.873 47.4539C112.066 47.8404 112.066 48.2269 111.681 48.4202C111.488 49 111.488 49 111.296 49Z" fill="#26192A"/>
<path d="M135.722 0C135.722 0 119.155 22.9952 134.553 40L146.442 37.8744C146.247 37.8744 164.569 14.8792 135.722 0Z" fill="#F4DAC6"/>
<path d="M188.152 284.096C188.152 284.096 221.203 358.686 218.883 363.48C216.564 368.465 201.488 375.368 195.496 374.985C189.505 374.793 158 309.599 158 309.599C158 309.599 179.841 282.179 188.152 284.096Z" fill="#F4DAC6"/>
<path d="M99 294.819C99 294.819 70.9911 371.485 65.7757 373.599C60.7534 375.52 43.7549 370.14 39.5053 365.913C35.2557 361.686 59.2081 292.705 59.2081 292.705C59.2081 292.705 94.1709 287.71 99 294.819Z" fill="#F4DAC6"/>
<path d="M105.037 45.2755C105.037 45.2755 123.532 20.5655 159.559 28.6106C185.182 34.3572 180.173 65.963 187.494 61.9405C194.815 57.9179 193.274 37.8051 216.778 39.9121C233.346 41.4445 236.429 84.735 225.833 90.8646C215.236 96.9942 163.219 96.0365 167.458 115L64.0014 102.741C63.8087 102.741 83.6523 57.5348 105.037 45.2755Z" fill="#F4DAC6"/>
<path d="M153.742 63C149.811 63 143.719 53.7284 143.129 52.5695C142.933 52.1832 142.933 51.7969 143.326 51.6037C143.719 51.4106 144.112 51.4106 144.308 51.7969C146.667 55.4669 151.187 61.4548 153.742 61.4548C154.135 61.4548 154.331 61.4548 154.725 60.8753C157.476 56.6258 151.777 49.0927 151.777 49.0927C151.58 48.7063 151.58 48.32 151.973 48.1269C152.366 47.9337 152.759 47.9337 152.956 48.32C153.152 48.7064 159.245 56.819 156.1 61.8411C155.314 62.6137 154.331 63 153.742 63Z" fill="#26192A"/>
<path d="M172.016 56C171.627 56 171.432 56 171.042 55.8066C166.756 54.8397 162.276 47.104 162.081 46.7172C161.886 46.3305 162.081 45.9437 162.276 45.7503C162.665 45.5569 163.055 45.7503 163.25 45.9437C164.419 48.071 168.12 53.4859 171.237 54.2595C172.016 54.4529 172.601 54.2595 173.185 53.8727C174.549 52.9058 172.796 47.4908 170.458 43.0428C170.263 42.656 170.458 42.2693 170.848 42.0759C171.237 41.8825 171.627 42.0759 171.822 42.4626C172.796 44.2032 176.887 53.0991 173.965 55.2264C173.38 55.8066 172.796 56 172.016 56Z" fill="#26192A"/>
<path d="M197 49.9432C197 49.9432 206.109 95.2629 226.072 90.6736C241.965 87.0403 230.142 42.2943 223.553 40.9558C216.963 39.9996 200.295 37.1313 197 49.9432Z" fill="#E9A295"/>
<path d="M218.215 72C217.822 72 217.626 71.8109 217.43 71.4326C214.093 57.4353 210.363 54.7872 208.596 54.4089C206.633 54.0306 205.259 55.9221 205.259 55.9221C205.063 56.3004 204.474 56.3004 204.278 56.1113C204.081 55.9221 203.885 55.3546 204.081 55.1655C204.081 54.9763 206.044 52.5174 208.989 53.0848C212.915 53.8414 216.252 59.8943 219 71.0542C219 71.4325 218.804 71.8108 218.215 72C218.411 72 218.215 72 218.215 72Z" fill="#26192A"/>
<path d="M221.202 71C220.827 71 220.64 70.8074 220.453 70.4224C215.586 53.2874 216.897 50.0145 218.207 49.2443C219.143 48.6668 220.266 49.2444 220.827 49.6294C221.202 49.822 221.202 50.3995 221.014 50.5921C220.827 50.9771 220.266 50.9771 220.079 50.7846C219.891 50.592 219.33 50.207 219.143 50.3995C218.768 50.5921 217.084 52.9024 221.95 70.0374C222.137 70.4224 221.763 70.8075 221.389 71C221.389 71 221.389 71 221.202 71Z" fill="#26192A"/>
<path d="M179.472 102C176.72 102 174.559 101.216 172.79 99.8454C166.697 94.9485 168.073 83.9794 168.27 83.5876C168.27 83.1959 168.663 83 169.056 83C169.449 83 169.645 83.3917 169.645 83.7835C169.645 83.9794 168.27 94.3608 173.772 98.6701C176.72 101.021 181.241 101.021 186.94 98.866C187.333 98.6701 187.726 98.8659 187.923 99.2577C188.119 99.6494 187.923 100.041 187.53 100.237C184.385 101.412 181.83 102 179.472 102Z" fill="#26192A"/>
<path d="M172.153 270C171.965 270 171.776 270 171.776 269.804L157.282 256.275C156.906 256.078 156.906 255.49 157.282 255.294C157.471 254.902 158.035 254.902 158.224 255.294L172.718 268.824C173.094 269.02 173.094 269.608 172.718 269.804C172.529 269.804 172.341 270 172.153 270Z" fill="#26192A"/>
<path d="M159.883 269C159.682 269 159.682 269 159.481 269C159.079 268.812 158.878 268.436 159.079 268.06L166.514 252.45C166.715 252.074 167.117 251.886 167.519 252.074C167.921 252.262 168.122 252.638 167.921 253.014L160.486 268.624C160.285 268.812 160.084 269 159.883 269Z" fill="#26192A"/>
<path d="M165 133.018C165 133.018 213.226 136.104 231.166 101L252 118.938C252 118.938 239.075 164.65 176.96 166L165 133.018Z" fill="#F4DAC6"/>
<path d="M167.199 115.093C167.199 115.093 163.365 122.578 154.354 124.69L150.327 144.268L140.933 127.185C140.933 127.185 82.2638 117.78 64.2413 103C64.2413 103 24.1701 155.017 33.3731 246.96C33.3731 246.96 161.831 256.173 195 235.443C195 235.251 184.838 147.915 167.199 115.093Z" fill="#E9A295"/>
<path d="M167.088 115C167.088 115 195.001 147.037 190.511 209C190.511 209 165.331 139.555 167.088 115Z" fill="#6AB0A0"/>
<path d="M49.9862 116.497C49.9862 116.497 84.77 119.004 86.8839 174.922C88.6135 219.656 30 209.629 30 209.629L31.7296 222.934C31.7296 222.934 94.3788 226.212 96.6849 186.684C99.1832 147.156 86.6918 114.762 64.0151 103L49.9862 116.497Z" fill="#6AB0A0"/>
<path d="M51.486 123C51.486 123 0 135.019 0 171.839C0 208.66 89 192.443 89 192.443V166.307C89 166.307 44.0215 179.852 35.0258 167.642C26.0301 155.432 68.1376 156.195 68.1376 156.195L51.486 123Z" fill="#F4DAC6"/>
<path d="M25 133.95C25 133.95 39.4467 159.633 40.4098 165L72 159.25L56.5902 119C56.5902 119 45.8033 119 25 133.95Z" fill="#E9A295"/>
<path d="M89.285 193C88.8986 193 88.7053 192.807 88.5121 192.422C88.3188 192.036 88.7053 191.651 89.0918 191.458C96.0483 189.338 103.778 186.447 104.357 185.29C104.551 184.905 104.551 184.712 104.357 184.327C103.198 182.014 94.5024 180.279 89.285 179.701C88.8986 179.701 88.7053 179.508 88.7053 179.122C88.7053 178.737 88.7053 178.544 89.0918 178.351C96.4348 173.726 102.425 168.329 101.845 167.365C101.266 166.016 93.5362 166.209 86.7729 167.172C86.3865 167.172 86 166.98 86 166.594C86 166.209 86.1932 165.823 86.5797 165.823C90.058 165.245 101.652 163.896 103.005 166.787C104.357 169.292 96.2415 175.268 91.4106 178.544C95.4686 179.122 104.164 180.664 105.71 183.748C106.097 184.519 106.097 185.29 105.71 186.061C104.551 188.374 93.1498 191.844 89.6715 193C89.4783 193 89.4783 193 89.285 193Z" fill="#26192A"/>
<path d="M46.9395 386.945C46.7471 386.945 46.7471 386.945 46.5547 386.945C44.4383 386.177 40.5904 372.157 39.0512 366.011C38.8588 365.627 39.2436 365.243 39.6284 365.051C40.0132 364.859 40.398 365.243 40.5904 365.627C42.8991 374.27 45.7851 383.68 47.1319 385.409C48.6711 384.064 53.481 376.766 56.5594 372.349C56.7518 372.157 56.9442 371.965 57.3289 371.965C57.5213 371.965 57.9061 372.157 57.9061 372.541C59.6377 378.111 62.1389 384.449 63.2933 385.409C64.0629 384.449 65.0248 378.495 65.602 373.501C65.602 373.117 65.9868 372.733 66.3716 372.925C66.7564 372.925 67.1412 373.309 66.9488 373.694C66.3716 379.455 65.2172 386.561 63.4857 386.945C62.9085 387.137 61.1769 387.521 56.9441 374.462C54.6354 377.919 49.2482 385.985 47.7091 386.945C47.3243 386.945 47.1319 386.945 46.9395 386.945Z" fill="#26192A"/>
<path d="M209.334 383.62C206.286 383.62 197.905 376.789 194.286 373.752C193.905 373.562 193.905 372.993 194.286 372.803C194.476 372.424 195.048 372.424 195.238 372.803C200.953 377.737 208.001 382.861 209.334 382.482C210.287 382.102 210.096 375.84 208.953 369.198C208.953 368.818 208.953 368.628 209.334 368.438C209.525 368.249 209.906 368.249 210.096 368.438C214.477 371.854 221.525 376.409 223.24 376.029C223.43 376.029 223.43 376.029 223.43 375.84C224.192 374.132 220.382 367.869 217.525 364.074C217.334 363.694 217.335 363.314 217.715 363.125C218.096 362.935 218.477 362.935 218.668 363.314C220.001 365.022 226.287 373.373 224.763 376.599C224.573 376.978 224.192 377.358 223.621 377.548C220.954 378.307 213.906 373.373 210.668 370.905C211.429 375.46 212.191 383.051 209.906 384C209.715 383.62 209.525 383.62 209.334 383.62Z" fill="#26192A"/>
<path d="M86.6351 73H86.4479C86.0734 72.8217 85.8862 72.4652 86.0734 72.1087C86.6351 70.326 90.5665 67.4737 90.941 67.1171C91.3154 66.9388 91.6898 66.9388 91.877 67.2953C92.0642 67.6519 92.0642 68.0084 91.6898 68.1867C90.1921 69.2563 87.5711 71.3956 87.1967 72.4652C87.1967 72.8218 86.8223 73 86.6351 73Z" fill="#26192A"/>
<path d="M89.8067 82C89.8067 82 89.605 82 89.8067 82C89.2017 81.7986 89 81.3957 89 80.9928C89.4034 78.9784 93.437 75.554 93.8403 75.1511C94.2437 74.9496 94.6471 74.9496 94.8487 75.1511C95.0504 75.554 95.0504 75.9568 94.8487 76.1583C93.2353 77.5683 90.6134 80.1871 90.4118 81.3957C90.4118 81.7986 90.2101 82 89.8067 82Z" fill="#26192A"/>
<path d="M78.6351 86H78.4479C78.0734 85.8217 77.8862 85.4652 78.0734 85.1087C78.6351 83.326 82.5665 80.4737 82.941 80.1171C83.3154 79.9388 83.6898 79.9388 83.877 80.2953C84.0642 80.6519 84.0642 81.0084 83.6898 81.1867C82.1921 82.2563 79.5711 84.5739 79.1967 85.4652C79.1967 85.8218 79.0095 86 78.6351 86Z" fill="#26192A"/>
<path d="M82.7795 94C82.3898 94 82 93.6378 82 93.2757C82.1949 91.4649 85.313 87.6622 85.7027 87.3C85.8976 86.9379 86.4822 86.9379 86.6771 87.1189C87.0669 87.3 87.0669 87.8433 86.872 88.0243C85.7027 89.473 83.559 92.1892 83.559 93.2757C83.3642 93.8189 83.1693 94 82.7795 94Z" fill="#26192A"/>
<path d="M40.2383 261C40.0137 261 39.5647 260.814 39.5647 260.628C38.442 258.953 39.3401 254.116 39.3401 253.558C39.3401 253.186 39.7892 253 40.2383 253C40.6874 253 40.9119 253.372 40.9119 253.744C40.6874 255.605 40.2383 258.953 40.9119 260.07C41.1365 260.442 40.9119 260.814 40.4628 261H40.2383Z" fill="#26192A"/>
<path d="M46.2383 263C46.0137 263 45.5647 262.814 45.5647 262.628C44.442 260.954 45.3401 256.116 45.3401 255.558C45.3401 255.186 45.7892 255 46.2383 255C46.6874 255 46.9119 255.372 46.9119 255.744C46.6874 257.605 46.2383 260.953 46.9119 262.07C47.1365 262.442 46.9119 262.814 46.4628 263C46.4628 263 46.4628 263 46.2383 263Z" fill="#26192A"/>
<path d="M40.2383 279C40.0138 279 39.5647 278.814 39.5647 278.628C38.442 276.954 39.3401 272.116 39.3401 271.558C39.3401 271.186 39.7892 271 40.2383 271C40.6874 271 40.9119 271.372 40.9119 271.744C40.6874 273.605 40.2383 276.953 40.9119 278.07C41.1365 278.442 40.9119 278.814 40.4628 279H40.2383Z" fill="#26192A"/>
<path d="M51.2383 275C51.0138 275 50.5647 274.814 50.5647 274.628C49.442 272.953 50.3401 268.116 50.3401 267.558C50.3401 267.186 50.7892 267 51.2383 267C51.6874 267 51.9119 267.372 51.9119 267.744C51.6874 269.605 51.2383 272.953 51.9119 274.07C52.1365 274.442 51.9119 274.814 51.4628 275C51.6874 275 51.4628 275 51.2383 275Z" fill="#26192A"/>
<path d="M47.3284 283C47.1493 283 46.9702 283 46.791 282.81C45.5373 281.286 45 276.333 45 275.762C45 275.381 45.1791 275 45.5373 275C45.8955 275 46.2537 275.191 46.2537 275.571C46.4328 277.476 47.1493 280.905 47.8657 281.857C48.0448 282.238 48.0448 282.619 47.8657 282.81C47.6866 283 47.5075 283 47.3284 283Z" fill="#26192A"/>
<path d="M44.3284 294C44.1493 294 43.9701 294 43.791 293.81C42.5373 292.286 42 287.333 42 286.762C42 286.381 42.1791 286 42.5373 286C42.8955 286 43.2537 286.191 43.2537 286.571C43.4328 288.476 44.1493 291.905 44.8657 292.857C45.0448 293.238 45.0448 293.619 44.8657 293.81C44.6866 294 44.5075 294 44.3284 294Z" fill="#26192A"/>
<path d="M52.3284 297C52.1493 297 51.9701 297 51.791 296.81C50.5373 295.286 50 290.333 50 289.762C50 289.381 50.1791 289 50.5373 289C50.8955 289 51.2537 289.19 51.2537 289.571C51.4328 291.476 52.1493 294.905 52.8657 295.857C53.0448 296.238 53.0448 296.619 52.8657 296.81C52.6866 296.81 52.5075 297 52.3284 297Z" fill="#26192A"/>
<path d="M47.3284 306C47.1493 306 46.9702 306 46.791 305.81C45.5373 304.286 45 299.333 45 298.762C45 298.381 45.1791 298 45.5373 298C45.8955 298 46.2537 298.19 46.2537 298.571C46.4328 300.476 47.1493 303.905 47.8657 304.857C48.0448 305.238 48.0448 305.619 47.8657 305.81C47.6866 306 47.5075 306 47.3284 306Z" fill="#26192A"/>
<path d="M56.2397 312C56.0318 312 55.8239 312 55.8239 311.802C54.1606 310.614 52.2895 305.662 52.0816 305.068C51.8737 304.672 52.0816 304.276 52.4974 304.078C52.9132 303.88 53.329 304.078 53.5369 304.474C54.1606 306.454 55.616 309.821 56.6555 310.416C57.0713 310.614 57.0713 311.208 56.8634 311.406C56.6555 311.802 56.4476 312 56.2397 312Z" fill="#26192A"/>
<path d="M71.7795 100C71.3898 100 71 99.6378 71 99.2757C71.1949 97.4649 74.313 93.6622 74.7027 93.3C74.8976 92.9378 75.4822 92.9379 75.6771 93.119C76.0669 93.3 76.0669 93.8433 75.872 94.0244C74.7027 95.473 72.559 98.1892 72.559 99.2757C72.3642 99.6378 72.1693 100 71.7795 100Z" fill="#26192A"/>
<path d="M76.7795 106C76.3898 106 76 105.638 76 105.276C76.1949 103.465 79.313 99.6622 79.7027 99.3C79.8976 98.9379 80.4822 98.9379 80.6771 99.1189C81.0669 99.3 81.0669 99.8433 80.872 100.024C79.7027 101.473 77.559 104.189 77.559 105.276C77.559 105.819 77.1693 106 76.7795 106Z" fill="#26192A"/>
<path d="M152 163C149.308 163 147 160.692 147 158C147 155.308 149.308 153 152 153C154.692 153 157 155.308 157 158C157 160.692 154.885 163 152 163ZM152 154.538C150.077 154.538 148.538 156.077 148.538 158C148.538 159.923 150.077 161.462 152 161.462C153.923 161.462 155.462 159.923 155.462 158C155.462 156.077 153.923 154.538 152 154.538Z" fill="#26192A"/>
<path d="M156 193C153.308 193 151 190.692 151 188C151 185.308 153.308 183 156 183C158.692 183 161 185.308 161 188C161 190.692 158.885 193 156 193ZM156 184.346C154.077 184.346 152.538 185.885 152.538 187.808C152.538 189.731 154.077 191.269 156 191.269C157.923 191.269 159.462 189.731 159.462 187.808C159.462 185.885 158.115 184.346 156 184.346Z" fill="#26192A"/>
<path d="M161 218C158.308 218 156 215.692 156 213C156 210.308 158.308 208 161 208C163.692 208 166 210.308 166 213C166 215.885 163.692 218 161 218ZM161 209.538C159.077 209.538 157.538 211.077 157.538 213C157.538 214.923 159.077 216.462 161 216.462C162.923 216.462 164.462 214.923 164.462 213C164.462 211.077 162.923 209.538 161 209.538Z" fill="#26192A"/>
<path d="M140.028 23C139.819 23 139.61 23 139.61 22.8119C133.972 18.6744 139.192 7.01412 139.401 6.44991C139.61 6.07378 140.028 5.88571 140.445 6.07378C140.863 6.26185 141.072 6.63799 140.863 7.01413C140.863 7.2022 135.851 18.2983 140.654 21.6835C141.072 21.8716 141.072 22.4358 140.863 22.6239C140.445 23 140.236 23 140.028 23Z" fill="#26192A"/>
<path d="M363.033 307.327C364.218 284.714 347.072 265.427 324.735 264.248C302.399 263.068 283.331 280.444 282.146 303.056C280.961 325.669 298.107 344.956 320.444 346.135C342.78 347.315 361.848 329.94 363.033 307.327Z" fill="#ACDBCF"/>
<path d="M323.5 347C322.733 347 321.966 347 321.198 347C298.375 345.656 280.729 326.076 282.072 303.232C283.414 280.389 302.786 262.728 325.802 264.072C348.625 265.416 366.271 284.996 364.928 307.84C363.777 329.723 345.557 347 323.5 347ZM323.5 265.416C302.211 265.416 284.757 282.116 283.606 303.232C282.455 325.308 299.334 344.313 321.39 345.464C343.639 346.616 362.435 329.723 363.586 307.648C364.736 285.572 347.858 266.567 325.802 265.416C325.034 265.416 324.267 265.416 323.5 265.416Z" fill="#26192A"/>
<path d="M320.75 347C320.375 347 320 346.617 320 346.233L324.5 264.767C324.5 264.383 324.875 264 325.25 264C325.625 264 326 264.383 326 264.767L321.5 346.233C321.5 346.617 321.125 347 320.75 347Z" fill="#26192A"/>
<path d="M364.233 308L282.767 303.5C282.383 303.5 282 303.125 282 302.75C282 302.375 282.383 302 282.767 302L364.233 306.5C364.617 306.5 365 306.875 365 307.25C365 307.813 364.617 308 364.233 308Z" fill="#26192A"/>
<path d="M300.796 340C300.199 339.81 300 339.429 300 339.048C309.155 304 304.179 269.143 304.179 268.762C304.179 268.381 304.378 268 304.776 268C305.174 268 305.572 268.191 305.572 268.571C305.572 268.952 310.747 304 301.393 339.238C301.393 339.619 301.194 340 300.796 340Z" fill="#26192A"/>
<path d="M344.488 340C344.107 340 343.916 339.809 343.725 339.428C333.987 309.663 346.398 272.838 346.589 272.456C346.78 272.075 347.161 271.884 347.543 272.075C347.925 272.266 348.116 272.647 347.925 273.029C347.734 273.41 335.515 309.663 345.061 339.046C345.252 339.428 345.061 339.809 344.679 340C344.679 340 344.679 340 344.488 340Z" fill="#26192A"/>
<path d="M331.809 289C304.998 289 288.645 283.384 288.455 283.384C288.075 283.197 287.884 282.822 288.075 282.448C288.265 282.073 288.645 281.886 289.025 282.073C289.215 282.073 316.407 291.434 358.239 285.818C358.62 285.818 359 286.005 359 286.379C359 286.754 358.81 287.128 358.43 287.128C348.732 288.626 339.795 289 331.809 289Z" fill="#26192A"/>
<path d="M357.237 328C357.237 328 357.046 328 357.237 328C356.665 327.825 319.662 320.67 288.763 326.429C288.381 326.429 288 326.255 288 325.906C288 325.557 288.191 325.208 288.572 325.208C319.853 319.448 357.046 326.778 357.428 326.778C357.809 326.778 358 327.127 358 327.476C357.809 327.825 357.619 328 357.237 328Z" fill="#26192A"/>
<path d="M323.543 357C298.211 357 276.116 338.14 272.498 312.16C270.593 298.304 274.212 284.641 282.402 273.671C290.783 262.51 302.782 255.389 316.305 253.465C325.257 252.31 334.209 253.272 342.59 256.736C342.971 256.929 343.161 257.314 342.971 257.699C342.781 258.084 342.4 258.276 342.019 258.083C334.019 254.812 325.067 253.657 316.496 255.004C303.163 256.929 291.544 263.857 283.354 274.634C275.164 285.411 271.926 298.689 273.64 312.16C277.45 339.872 302.782 359.117 330.019 355.268C343.733 353.344 355.732 346.031 363.732 334.869C363.923 334.484 364.494 334.484 364.684 334.676C365.065 334.869 365.065 335.446 364.875 335.639C356.494 347.185 344.304 354.691 330.21 356.808C328.114 357 325.829 357 323.543 357Z" fill="white"/>
<path d="M337.236 374L300.764 371.684C300.382 371.684 300 371.263 300 370.842C300 370.421 300.382 370 300.764 370L337.236 372.316C337.618 372.316 338 372.737 338 373.158C338 373.789 337.618 374 337.236 374Z" fill="#26192A"/>
<path d="M319.615 373C319.308 373 319 372.617 319 372.234L319.769 355.766C319.769 355.383 320.077 355 320.385 355C320.692 355 321 355.383 321 355.766L320.231 372.234C320.231 372.809 319.923 373 319.615 373Z" fill="#26192A"/>
<path d="M276.138 79C275.733 79 275.531 78.8099 275.328 78.4298L269.054 56.0009C268.851 55.6208 269.256 55.2406 269.661 55.0506C270.066 54.8605 270.471 55.2406 270.673 55.6208L276.947 78.0496C277.15 78.4298 276.745 78.8099 276.138 79C276.34 79 276.34 79 276.138 79Z" fill="white"/>
<path d="M260.821 71C260.436 71 260.244 70.8013 260.051 70.404C259.859 70.0066 260.244 69.6093 260.628 69.4106L281.987 63.0528C282.372 62.8542 282.756 63.2515 282.949 63.6489C283.141 64.0462 282.756 64.4436 282.372 64.6423L261.013 71C261.013 71 261.013 71 260.821 71Z" fill="white"/>
<path d="M281.314 72C281.127 72 281.127 72 280.939 71.8134L263.311 60.2424C262.936 60.0557 262.936 59.6825 263.123 59.3092C263.311 58.9359 263.686 58.936 264.061 59.1226L281.689 70.6936C282.064 70.8802 282.064 71.2535 281.877 71.6267C281.689 71.8133 281.502 72 281.314 72Z" fill="white"/>
<path d="M267.693 76C267.504 76 267.504 76 267.314 76C266.935 75.8125 266.935 75.4374 267.124 75.0624L277.738 56.3107C277.928 55.9357 278.307 55.9356 278.686 56.1232C279.065 56.3107 279.065 56.6857 278.875 57.0608L268.262 75.8125C268.072 76 267.883 76 267.693 76Z" fill="white"/>
<path d="M294.845 55C294.46 55 294.268 54.8019 294.075 54.4058C293.883 54.0097 294.075 53.6136 294.46 53.4155L311.963 47.0777C312.348 46.8796 312.732 47.0777 312.925 47.4738C313.117 47.8699 312.925 48.266 312.54 48.4641L295.037 54.8019C294.845 55 294.845 55 294.845 55Z" fill="white"/>
<path d="M307.318 58C306.916 58 306.715 57.8179 306.514 57.6359L300.079 41.9816C299.878 41.6175 300.079 41.2534 300.481 41.0714C300.883 40.8894 301.285 41.0714 301.486 41.4355L307.921 57.0899C308.122 57.4539 307.921 57.818 307.519 58C307.519 58 307.519 58 307.318 58Z" fill="white"/>
<path d="M300.727 59C300.528 59 300.528 59 300.329 59C299.932 58.812 299.932 58.4359 300.131 58.0598L308.677 43.393C308.876 43.017 309.273 42.8289 309.671 43.205C310.068 43.393 310.068 43.7691 309.869 44.1452L301.323 58.812C301.124 58.812 300.926 59 300.727 59Z" fill="white"/>
<path d="M312.365 55C312.178 55 312.178 55 311.99 55L296.448 48.3028C296.073 48.1266 295.886 47.7741 296.073 47.4216C296.261 47.0691 296.635 46.8929 297.01 47.0691L312.552 53.7663C312.927 53.9426 313.114 54.295 312.927 54.6475C312.927 54.8238 312.552 55 312.365 55Z" fill="white"/>
<path d="M225.845 322C225.46 322 225.268 321.802 225.075 321.406C224.883 321.01 225.075 320.614 225.46 320.416L242.963 314.078C243.348 313.88 243.732 314.078 243.925 314.474C244.117 314.87 243.925 315.266 243.54 315.464L226.037 321.802L225.845 322Z" fill="#26192A"/>
<path d="M238.318 325C237.916 325 237.715 324.818 237.514 324.636L231.079 308.982C230.878 308.618 231.079 308.253 231.481 308.071C231.883 307.889 232.285 308.071 232.486 308.435L238.921 324.09C239.122 324.454 238.921 324.818 238.519 325H238.318Z" fill="#26192A"/>
<path d="M231.727 326C231.528 326 231.528 326 231.329 326C230.932 325.812 230.932 325.436 231.131 325.06L239.677 310.393C239.876 310.017 240.273 309.829 240.671 310.205C241.068 310.393 241.068 310.769 240.869 311.145L232.323 325.812C232.323 326 231.926 326 231.727 326Z" fill="#26192A"/>
<path d="M243.365 322C243.178 322 243.178 322 242.99 322L227.448 315.303C227.073 315.127 226.886 314.774 227.073 314.422C227.261 314.069 227.635 313.893 228.01 314.069L243.552 320.766C243.927 320.943 244.114 321.295 243.927 321.647C243.927 322 243.739 322 243.365 322Z" fill="#26192A"/>
<path d="M227.79 275.762L232.92 271L233.49 277.857L239 280.905L232.73 283.381L231.21 291L227.98 283.952L220.76 287L224.94 279L220 273.286L227.79 275.762Z" fill="#FCB82E"/>
<path d="M234.653 249C234.462 249 234.079 248.807 234.079 248.614C233.888 248.422 234.079 248.036 234.27 247.843L273.277 206.193C273.468 206 273.851 206 274.042 206C274.233 206.193 274.424 206.386 274.424 206.771L272.895 221.233C272.895 221.426 272.703 221.619 272.512 221.812L241.154 244.179L274.233 230.874C274.424 230.682 274.807 230.874 274.998 231.067L287.809 244.372C288 244.565 288 244.951 288 245.143C287.809 245.336 287.618 245.529 287.426 245.529L234.653 249ZM274.424 232.417L236.756 247.457L285.706 244.179L274.424 232.417ZM272.703 208.7L241.345 242.251L271.365 220.848L272.703 208.7Z" fill="white"/>
<path d="M274.214 233C273.828 233 273.442 232.604 273.442 232.209C273.442 231.813 273.828 231.417 274.214 231.417L287.334 231.22L271.32 222.317C270.934 222.119 270.934 221.723 271.127 221.328C271.32 220.932 271.706 220.932 272.091 221.13L290.614 231.417C290.807 231.615 291 232.011 291 232.209C291 232.604 290.614 232.802 290.228 232.802L274.214 233Z" fill="white"/>
<path d="M278.66 237C278.466 237 278.076 236.815 278.076 236.63C277.882 236.259 278.076 235.889 278.466 235.703L289.95 231.073C290.34 230.887 290.729 231.073 290.924 231.443C291.118 231.814 290.924 232.184 290.534 232.369L279.05 237C278.855 237 278.66 237 278.66 237Z" fill="white"/>
<path d="M225.305 435C224.921 435 224.538 434.617 224.538 434.234C224.538 433.85 224.729 433.467 225.305 433.467C228.372 433.275 231.439 432.892 234.698 432.126C235.082 432.126 235.465 432.317 235.465 432.701C235.465 433.084 235.273 433.467 234.89 433.467C231.631 434.234 228.372 434.808 225.305 435ZM215.719 434.617C215.719 434.617 215.528 434.617 215.719 434.617C212.46 434.234 209.201 433.467 206.134 432.317C205.751 432.126 205.559 431.742 205.751 431.359C205.942 430.976 206.326 430.784 206.709 430.976C209.585 431.934 212.652 432.7 215.911 433.084C216.294 433.084 216.678 433.467 216.486 433.85C216.294 434.425 216.103 434.617 215.719 434.617ZM243.9 431.167C243.517 431.167 243.325 430.976 243.133 430.593C242.942 430.209 243.133 429.826 243.517 429.634C246.584 428.676 249.651 427.527 252.527 426.377C252.91 426.185 253.294 426.377 253.485 426.76C253.677 427.143 253.485 427.527 253.102 427.718C250.226 428.868 247.159 430.018 244.092 430.976C244.092 431.167 244.092 431.167 243.9 431.167ZM197.699 428.293C197.507 428.293 197.507 428.293 197.315 428.101C194.632 426.568 191.948 424.461 189.455 422.353C189.072 422.161 189.072 421.586 189.455 421.394C189.647 421.011 190.222 421.011 190.414 421.394C192.906 423.502 195.398 425.419 198.082 426.952C198.466 427.143 198.466 427.527 198.274 427.91C198.274 428.293 197.891 428.293 197.699 428.293ZM320.391 425.035H319.624C319.241 425.035 318.857 424.652 318.857 424.269C318.857 423.886 319.241 423.502 319.624 423.502H320.391C323.266 423.502 326.142 423.311 329.018 423.119C329.401 423.119 329.785 423.311 329.785 423.694C329.785 424.077 329.593 424.46 329.209 424.46C326.334 425.035 323.266 425.035 320.391 425.035ZM310.039 424.46C306.78 424.077 303.521 423.502 300.453 422.927C300.07 422.927 299.878 422.544 299.878 422.161C299.878 421.778 300.262 421.586 300.645 421.586C303.712 422.161 306.78 422.736 310.039 423.119C310.422 423.119 310.806 423.502 310.614 423.886C310.614 424.269 310.422 424.46 310.039 424.46ZM261.729 423.886C261.537 423.886 261.154 423.694 261.154 423.502C260.962 423.119 261.154 422.736 261.537 422.544C264.413 421.011 267.288 419.478 269.78 417.753C270.164 417.562 270.547 417.562 270.739 417.945C270.931 418.328 270.931 418.712 270.547 418.903C268.055 420.628 265.179 422.353 262.304 423.886C261.92 423.886 261.729 423.886 261.729 423.886ZM338.603 423.311C338.22 423.311 338.028 423.119 337.836 422.736C337.836 422.353 338.028 421.969 338.411 421.969C341.479 421.394 344.738 420.628 347.613 419.67C347.997 419.478 348.38 419.67 348.572 420.053C348.763 420.436 348.572 420.82 348.188 421.011C345.121 421.969 342.054 422.736 338.603 423.311C338.795 423.311 338.795 423.311 338.603 423.311ZM291.443 420.436H291.252C288.184 419.287 285.117 417.945 282.433 416.604C282.05 416.412 281.858 416.029 282.05 415.646C282.241 415.262 282.625 415.262 283.008 415.262C285.692 416.604 288.568 417.945 291.635 419.095C292.018 419.287 292.21 419.67 292.018 420.053C292.018 420.245 291.635 420.436 291.443 420.436ZM357.007 417.562C356.815 417.562 356.432 417.37 356.432 417.179C356.24 416.795 356.432 416.412 356.815 416.22C359.691 414.879 362.566 413.346 365.25 411.813C365.634 411.621 366.017 411.621 366.209 412.005C366.4 412.388 366.4 412.771 366.017 412.963C363.333 414.687 360.458 416.221 357.39 417.37C357.199 417.562 357.007 417.562 357.007 417.562ZM183.321 415.837C183.129 415.837 182.937 415.837 182.746 415.646C180.829 413.346 178.912 410.663 176.995 407.789C176.803 407.406 176.803 407.022 177.186 406.831C177.57 406.639 177.953 406.639 178.145 407.022C179.87 409.705 181.787 412.388 183.704 414.687C183.896 415.071 183.896 415.454 183.704 415.646C183.704 415.837 183.513 415.837 183.321 415.837ZM277.257 412.963C277.065 412.963 276.874 412.963 276.682 412.771C276.49 412.58 276.49 412.005 276.682 411.813C278.982 409.514 280.899 407.022 282.241 404.34C282.433 403.956 282.816 403.956 283.2 403.956C283.583 404.148 283.583 404.531 283.583 404.914C282.05 407.597 280.133 410.28 277.64 412.771C277.64 412.771 277.449 412.963 277.257 412.963ZM274.573 411.238C274.381 411.238 274.19 411.238 274.19 411.047C271.506 408.747 269.397 406.447 267.672 403.765C267.48 403.381 267.48 402.998 267.863 402.807C268.247 402.615 268.63 402.615 268.822 402.998C270.356 405.489 272.464 407.789 275.148 409.897C275.532 410.088 275.532 410.663 275.148 410.855C274.956 411.047 274.765 411.238 274.573 411.238ZM373.11 407.597C372.918 407.597 372.727 407.597 372.535 407.406C372.343 407.022 372.343 406.639 372.535 406.447C375.027 404.34 377.328 402.232 379.436 399.932C379.628 399.549 380.203 399.549 380.395 399.932C380.778 400.124 380.778 400.699 380.395 400.89C378.286 403.19 375.986 405.489 373.494 407.597C373.494 407.597 373.302 407.597 373.11 407.597ZM172.969 399.74C172.777 399.74 172.394 399.549 172.394 399.357C171.052 396.483 169.71 393.608 168.559 390.542C168.368 390.159 168.559 389.776 168.943 389.584C169.326 389.393 169.71 389.584 169.901 389.967C171.052 393.033 172.394 395.908 173.736 398.591C173.927 398.974 173.736 399.357 173.352 399.549C173.352 399.74 173.16 399.74 172.969 399.74ZM285.884 396.1C285.5 396.1 285.117 395.716 285.117 395.333C285.117 394.758 285.117 394.183 285.117 393.8C285.117 391.309 284.542 388.818 283.583 386.327C283.392 385.943 283.583 385.56 283.967 385.368C284.35 385.177 284.734 385.368 284.925 385.752C286.075 388.243 286.459 390.926 286.459 393.8C286.459 394.375 286.459 394.95 286.459 395.525C286.459 395.908 286.267 396.1 285.884 396.1ZM264.604 395.333C264.221 395.333 264.029 395.141 263.838 394.758C263.646 393.417 263.454 392.075 263.454 390.926V390.159C263.454 388.243 263.646 386.518 263.838 384.985C263.838 384.602 264.221 384.41 264.604 384.41C264.988 384.41 265.179 384.793 265.179 385.177C264.988 386.71 264.796 388.243 264.796 389.967V390.734C264.796 391.884 264.988 393.225 265.179 394.375C265.371 394.95 265.179 395.333 264.604 395.333ZM385.954 393.417C385.763 393.417 385.763 393.417 385.571 393.225C385.188 393.034 385.188 392.65 385.379 392.267C387.105 389.584 388.638 386.901 389.98 384.027C390.172 383.644 390.555 383.452 390.939 383.644C391.322 383.835 391.514 384.219 391.322 384.602C389.98 387.476 388.447 390.351 386.721 393.034C386.338 393.225 386.146 393.417 385.954 393.417ZM166.067 381.919C165.684 381.919 165.492 381.727 165.3 381.344C163.575 375.787 163 371.954 163 371.954C163 371.571 163.192 371.188 163.575 371.188C163.959 371.188 164.342 371.38 164.342 371.763C164.342 371.763 165.109 375.595 166.642 380.961C166.834 381.344 166.451 381.727 166.067 381.919C166.067 381.919 166.067 381.727 166.067 381.919ZM278.407 379.428C278.215 379.428 278.216 379.428 278.024 379.236C275.148 377.32 272.081 376.745 269.78 377.895C269.397 378.087 269.014 377.895 268.822 377.512C268.63 377.128 268.822 376.745 269.205 376.553C272.081 375.212 275.723 375.787 278.982 378.087C279.366 378.278 279.366 378.853 279.174 379.045C278.982 379.236 278.791 379.428 278.407 379.428ZM393.814 375.979H393.623C393.239 375.787 393.048 375.404 393.239 375.02C394.198 372.146 394.965 368.888 395.731 365.822C395.731 365.439 396.115 365.247 396.498 365.247C396.882 365.247 397.073 365.631 397.073 366.014C396.307 369.272 395.54 372.338 394.581 375.404C394.39 375.787 394.006 375.979 393.814 375.979ZM398.032 357.391C397.457 357.391 397.265 357.007 397.265 356.624C397.649 353.558 398.032 350.3 398.224 347.234C398.224 346.851 398.607 346.468 398.99 346.66C399.374 346.66 399.757 347.043 399.566 347.426C399.374 350.684 398.99 353.941 398.607 357.007C398.607 357.007 398.415 357.391 398.032 357.391ZM399.374 338.228C398.991 338.228 398.607 337.845 398.607 337.461C398.607 334.395 398.415 331.138 398.224 327.88C398.224 327.497 398.415 327.114 398.799 327.114C399.182 327.114 399.566 327.305 399.566 327.688C399.757 330.946 399.949 334.204 399.949 337.27C400.141 337.845 399.757 338.228 399.374 338.228ZM398.032 319.065C397.649 319.065 397.457 318.874 397.265 318.49C396.882 315.424 396.307 312.167 395.54 309.101C395.54 308.717 395.731 308.334 396.115 308.334C396.498 308.334 396.882 308.526 396.882 308.909C397.457 311.975 398.032 315.233 398.607 318.299C398.799 318.682 398.415 319.065 398.032 319.065ZM394.006 300.477C393.623 300.477 393.431 300.286 393.239 299.902C392.281 296.836 391.322 293.77 390.172 290.896C389.98 290.513 390.172 290.129 390.555 289.938C390.939 289.746 391.322 289.938 391.514 290.321C392.664 293.387 393.623 296.453 394.581 299.519C394.773 299.902 394.39 300.286 394.006 300.477C394.006 300.477 394.006 300.286 394.006 300.477ZM387.105 282.464C386.913 282.464 386.53 282.273 386.53 282.081C385.188 279.207 383.654 276.332 382.12 273.649C381.929 273.266 382.12 272.883 382.312 272.691C382.695 272.5 383.079 272.691 383.271 272.883C384.804 275.566 386.338 278.44 387.68 281.506C387.872 281.889 387.68 282.273 387.296 282.464C387.488 282.464 387.296 282.464 387.105 282.464ZM377.519 265.984C377.328 265.984 377.136 265.793 376.944 265.601C375.027 262.918 373.11 260.427 371.001 258.127C370.81 257.744 370.81 257.361 371.001 257.169C371.385 256.978 371.768 256.978 371.96 257.169C374.069 259.469 375.986 262.152 377.903 264.643C378.094 265.026 378.095 265.409 377.711 265.601C377.903 265.793 377.711 265.984 377.519 265.984ZM364.867 251.612C364.675 251.612 364.483 251.612 364.292 251.42C361.991 249.313 359.499 247.205 357.007 245.48C356.623 245.288 356.623 244.714 356.815 244.522C357.007 244.139 357.582 244.139 357.774 244.33C360.266 246.247 362.95 248.163 365.25 250.462C365.634 250.654 365.634 251.229 365.25 251.42C365.25 251.42 365.058 251.612 364.867 251.612ZM349.339 240.498C349.147 240.498 349.147 240.498 348.955 240.498C346.271 238.965 343.396 237.623 340.328 236.474C339.945 236.282 339.753 235.899 339.945 235.515C340.137 235.132 340.52 234.94 340.903 235.132C343.971 236.282 346.846 237.623 349.722 239.348C350.105 239.54 350.105 239.923 349.914 240.306C349.914 240.306 349.722 240.498 349.339 240.498ZM331.702 233.216C331.702 233.216 331.51 233.216 331.702 233.216C328.443 232.449 325.375 231.683 322.308 231.3C321.925 231.3 321.733 230.916 321.733 230.533C321.733 230.15 322.116 229.958 322.5 229.958C325.759 230.341 328.826 231.108 331.893 231.874C332.277 232.066 332.468 232.449 332.468 232.833C332.277 233.024 332.085 233.216 331.702 233.216ZM289.526 232.258C289.143 232.258 288.951 232.066 288.759 231.683C288.759 231.3 288.951 230.916 289.334 230.916C290.676 230.725 292.21 230.341 293.552 230.15C293.935 230.15 294.319 230.341 294.319 230.725C294.319 231.108 294.127 231.491 293.744 231.491C292.402 231.874 291.06 232.066 289.526 232.258ZM303.137 230.725C302.754 230.725 302.37 230.341 302.37 229.958C302.37 229.575 302.562 229.192 303.137 229.192C306.396 229 309.655 229 312.723 229C313.106 229 313.489 229.383 313.489 229.767C313.489 230.15 313.106 230.533 312.723 230.533C309.655 230.341 306.396 230.533 303.137 230.725Z" fill="white"/>
</svg>
