<svg width="900" height="900" viewBox="0 0 900 900" fill="none" xmlns="http://www.w3.org/2000/svg">
<rect width="900" height="900" fill="#161616"/>
<path d="M499.104 437.156C481.448 437.156 472.428 434.277 470.893 427.944C469.55 422.763 470.509 417.965 473.388 414.126C475.883 410.864 479.721 408.753 483.367 408.753C484.327 408.753 485.479 408.945 486.246 409.329C489.125 403.955 493.731 398.006 499.68 398.006C500.448 398.006 501.024 398.006 501.791 398.198C504.478 389.561 510.427 386.875 518.872 390.713C521.942 392.056 524.437 393.4 526.548 394.743C528.659 389.561 533.265 384.572 540.174 384.572C542.093 384.572 544.012 384.955 546.123 385.723C551.113 387.642 554.951 390.521 557.062 393.975C559.557 393.975 562.052 395.127 564.355 397.622C569.153 402.612 572.799 408.177 574.527 413.167C575.87 412.591 577.213 412.207 578.557 412.207C581.052 412.207 583.163 413.167 585.082 415.278C588.344 418.54 588.153 421.227 587.385 422.954C585.082 428.712 572.607 432.742 553.992 433.51C548.426 433.702 541.325 434.277 534.033 435.045C522.902 436.005 510.043 437.156 499.104 437.156ZM483.367 410.096C480.105 410.096 476.842 412.015 474.539 414.894C471.853 418.349 471.085 422.763 472.236 427.56C473.58 433.126 482.408 435.813 499.104 435.813C510.043 435.813 522.902 434.661 534.033 433.702C541.325 433.126 548.426 432.358 553.992 432.166C571.648 431.399 583.93 427.752 586.041 422.379C586.809 420.46 586.041 418.349 583.93 416.237C581.244 413.551 577.981 412.975 574.719 414.51C575.486 417.581 575.486 419.884 574.527 421.227C573.759 422.187 572.799 422.571 571.264 422.571C569.345 422.379 568.961 421.227 568.769 420.651C568.385 418.732 570.304 415.662 573.183 413.743C571.648 408.945 568.002 403.379 563.396 398.389C561.476 396.47 559.749 395.319 557.83 395.127C559.365 398.773 559.365 402.804 557.446 405.874C555.911 408.369 553.8 409.52 551.305 409.137C549.194 408.753 548.042 406.834 548.234 404.147C548.426 399.925 551.305 395.127 555.527 393.975C553.608 390.905 550.154 388.41 545.74 386.875C543.82 386.107 542.093 385.915 540.366 385.915C534.033 385.915 529.811 390.713 527.892 395.511C533.265 399.157 534.033 401.652 533.649 402.995C533.265 404.723 531.346 405.682 528.659 406.066H528.467C527.508 406.066 526.74 405.682 526.164 404.915C525.013 403.187 525.013 399.733 526.164 396.086C524.053 394.743 521.366 393.4 518.296 392.056C510.619 388.602 505.438 390.713 503.135 398.581C504.094 398.965 505.054 399.541 506.013 400.309C511.387 404.339 511.579 407.601 511.003 409.904C510.043 412.975 506.205 415.086 503.518 415.086C501.599 415.086 500.448 414.126 500.256 412.591C500.256 410.864 500.064 405.106 501.407 399.733C500.832 399.541 500.256 399.541 499.68 399.541C494.498 399.541 490.276 405.106 487.59 410.096C488.741 410.864 489.701 411.823 490.468 412.975C491.812 415.47 492.004 417.773 490.852 419.692C489.893 421.419 487.59 422.763 485.67 422.763C484.327 422.763 483.367 422.187 482.792 421.419C482.216 420.652 482.024 419.308 482.984 417.005C482.984 417.005 483.943 414.126 485.67 410.864C484.903 410.288 484.135 410.096 483.367 410.096ZM486.822 411.056C485.095 414.318 484.135 417.197 484.135 417.197C483.559 418.54 483.367 419.692 483.751 420.46C484.135 421.035 484.903 421.227 485.287 421.227C486.63 421.227 488.357 420.46 489.317 418.924C490.276 417.389 490.084 415.662 488.933 413.551C488.549 412.399 487.781 411.632 486.822 411.056ZM573.759 415.278C571.456 416.813 570.113 419.116 570.304 420.268C570.304 420.46 570.496 421.035 571.456 421.035C572.416 421.035 572.991 420.843 573.375 420.268C574.335 419.5 574.335 417.581 573.759 415.278ZM502.751 399.925C501.407 405.106 501.599 410.672 501.791 412.207C501.791 413.167 502.751 413.359 503.518 413.359C505.821 413.359 508.892 411.632 509.66 409.137C510.427 406.642 508.892 403.955 505.246 401.268C504.286 400.692 503.518 400.309 502.751 399.925ZM556.295 395.319C552.457 396.087 549.962 400.884 549.77 404.339C549.77 405.49 549.962 407.601 551.689 407.985C553.416 408.369 555.143 407.409 556.295 405.49C557.638 403.187 558.406 399.349 556.295 395.319ZM527.316 396.854C526.356 400.117 526.356 402.995 527.124 403.955C527.316 404.339 527.7 404.531 528.083 404.531C530.386 404.339 531.73 403.571 532.114 402.612C532.497 401.268 530.77 399.157 527.316 396.854Z" fill="white"/>
<path d="M499.105 353.674C498.913 353.674 498.721 353.482 498.529 353.29C498.337 352.906 498.337 352.522 498.721 352.33C499.68 351.563 502.943 341.391 502.943 335.826C502.943 334.674 502.751 334.098 502.751 333.906C501.216 334.482 496.034 338.896 491.428 343.118C491.236 343.31 490.852 343.31 490.66 343.31C490.468 343.118 490.277 342.926 490.277 342.543C490.852 335.058 491.044 326.997 490.66 324.694C489.125 326.038 484.519 331.987 480.681 337.553C480.489 337.937 479.913 337.937 479.721 337.745C479.337 337.553 479.337 336.977 479.529 336.785C489.317 322.967 490.66 323.159 491.236 323.159C492.004 323.351 493.155 323.543 492.004 341.007C502.367 331.603 503.327 332.371 503.711 332.755C504.478 333.331 504.67 334.674 504.478 336.977C504.094 342.351 501.216 352.522 499.488 353.674C499.488 353.674 499.297 353.674 499.105 353.674Z" fill="white"/>
<path d="M267.848 525.628C267.464 525.628 267.08 525.628 266.696 525.436C264.202 524.861 262.858 522.366 263.05 518.719C263.242 515.649 264.585 513.346 266.888 511.811C268.04 511.043 269.383 510.467 270.918 510.083C268.807 507.397 265.353 504.326 259.596 501.063C259.212 500.872 259.212 500.488 259.404 500.104C259.596 499.72 259.979 499.72 260.363 499.912C266.696 503.366 270.343 506.821 272.454 509.891C281.282 508.356 293.372 512.194 293.948 512.386C294.332 512.578 294.524 512.962 294.332 513.346C294.14 513.73 293.756 513.922 293.372 513.73C293.181 513.73 281.666 510.083 273.221 511.043C275.716 515.265 274.949 518.528 274.373 520.255C273.413 523.517 270.535 525.628 267.848 525.628ZM271.878 511.619C270.343 512.003 268.999 512.386 267.848 513.346C265.929 514.689 264.777 516.608 264.585 519.103C264.393 521.982 265.353 523.901 267.08 524.285C269.191 524.669 272.07 523.134 273.221 520.063C273.797 518.72 274.373 515.649 271.878 511.619Z" fill="white"/>
<path d="M343.654 342.734C343.654 342.734 309.302 317.978 283.009 350.411C265.737 371.522 237.142 444.257 277.06 453.469C316.978 462.489 357.664 373.441 343.654 342.734Z" fill="#6AB0A0"/>
<path d="M283.009 497.609C283.009 497.609 272.838 302.624 384.532 276.332C417.925 268.464 450.742 325.846 440.379 329.684C430.207 333.522 414.278 338.896 414.278 338.896C414.278 338.896 455.54 475.155 447.672 522.174C439.995 569.001 278.787 595.485 283.009 497.609Z" fill="#F4DAC6"/>
<path d="M373.592 284.009C373.592 284.009 362.461 238.717 317.937 252.727C317.937 252.727 305.271 302.241 364.764 289.958L373.592 284.009Z" fill="#F4DAC6"/>
<path d="M361.118 281.322C360.926 281.322 360.734 281.13 360.542 280.938C345.381 260.019 332.139 263.282 331.947 263.282C331.563 263.474 331.179 263.09 330.988 262.706C330.796 262.322 331.179 261.939 331.563 261.747C332.139 261.555 345.957 258.292 361.694 279.787C361.886 280.17 361.886 280.554 361.502 280.746C361.31 281.322 361.31 281.322 361.118 281.322Z" fill="#26192A"/>
<path d="M385.108 232C385.108 232 368.795 254.838 383.956 271.726L395.663 269.615C395.471 269.615 413.511 246.777 385.108 232Z" fill="#F4DAC6"/>
<path d="M437.5 516.033C437.5 516.033 470.317 590.687 468.014 595.485C465.711 600.475 450.742 607.384 444.793 607C438.844 606.808 407.562 541.557 407.562 541.557C407.562 541.557 429.248 514.114 437.5 516.033Z" fill="#F4DAC6"/>
<path d="M348.836 526.78C348.836 526.78 321.008 603.354 315.827 605.465C310.837 607.384 293.948 602.01 289.726 597.788C285.504 593.566 309.302 524.669 309.302 524.669C309.302 524.669 344.038 519.679 348.836 526.78Z" fill="#F4DAC6"/>
<path d="M354.977 277.1C354.977 277.1 373.4 252.343 409.288 260.403C434.813 266.161 429.823 297.826 437.116 293.796C444.409 289.766 442.873 269.615 466.287 271.726C482.791 273.261 485.862 316.634 475.307 322.775C464.752 328.917 412.935 327.957 417.157 346.956L314.099 334.674C313.907 334.674 333.674 289.382 354.977 277.1Z" fill="#F4DAC6"/>
<path d="M403.723 295.14C399.885 295.14 393.935 285.928 393.36 284.776C393.168 284.392 393.168 284.009 393.552 283.817C393.935 283.625 394.319 283.625 394.511 284.009C396.814 287.655 401.228 293.604 403.723 293.604C404.107 293.604 404.299 293.604 404.683 293.029C407.369 288.806 401.804 281.322 401.804 281.322C401.612 280.938 401.612 280.554 401.996 280.362C402.38 280.17 402.763 280.17 402.955 280.554C403.147 280.938 409.097 288.998 406.026 293.988C405.258 294.756 404.299 295.14 403.723 295.14Z" fill="#26192A"/>
<path d="M421.571 288.039C421.187 288.039 420.995 288.039 420.612 287.847C416.39 286.887 411.976 279.211 411.784 278.827C411.592 278.443 411.784 278.059 411.976 277.867C412.359 277.675 412.743 277.867 412.935 278.059C414.087 280.17 417.733 285.544 420.804 286.312C421.571 286.504 422.147 286.312 422.723 285.928C424.066 284.968 422.339 279.595 420.036 275.181C419.844 274.797 420.036 274.413 420.42 274.221C420.804 274.029 421.187 274.221 421.379 274.605C422.339 276.332 426.369 285.16 423.49 287.271C422.915 287.847 422.339 288.039 421.571 288.039Z" fill="#26192A"/>
<path d="M446.328 281.706C446.328 281.706 455.348 327.189 475.115 322.583C490.852 318.937 479.145 274.029 472.62 272.686C466.095 271.726 449.591 268.847 446.328 281.706Z" fill="#E9A295"/>
<path d="M467.822 303.968C467.439 303.968 467.247 303.776 467.055 303.392C463.792 289.19 460.146 286.504 458.419 286.12C456.499 285.736 455.156 287.655 455.156 287.655C454.964 288.039 454.388 288.039 454.196 287.847C454.005 287.655 453.813 287.079 454.005 286.887C454.005 286.696 455.924 284.201 458.802 284.776C462.641 285.544 465.903 291.685 468.59 303.008C468.59 303.392 468.398 303.776 467.822 303.968C467.822 303.968 468.014 303.968 467.822 303.968Z" fill="#26192A"/>
<path d="M471.277 303.392C470.893 303.392 470.701 303.2 470.509 302.816C465.519 285.736 466.863 282.473 468.206 281.706C469.166 281.13 470.317 281.706 470.893 282.09C471.277 282.281 471.277 282.857 471.085 283.049C470.893 283.433 470.317 283.433 470.125 283.241C469.933 283.049 469.358 282.665 469.166 282.857C468.782 283.049 467.055 285.352 472.044 302.432C472.236 302.816 471.853 303.2 471.469 303.392C471.469 303.392 471.469 303.392 471.277 303.392Z" fill="#26192A"/>
<path d="M428.864 333.139C426.177 333.139 424.066 332.371 422.339 331.028C416.389 326.23 417.733 315.483 417.925 315.099C417.925 314.715 418.308 314.523 418.692 314.523C419.076 314.523 419.268 314.907 419.268 315.291C419.268 315.483 417.925 325.654 423.298 329.876C426.177 332.179 430.591 332.179 436.156 330.068C436.54 329.876 436.924 330.068 437.116 330.452C437.308 330.836 437.116 331.22 436.732 331.411C433.662 332.563 431.167 333.139 428.864 333.139Z" fill="#26192A"/>
<path d="M422.339 501.447C422.147 501.447 421.955 501.447 421.955 501.255L407.178 488.013C406.794 487.821 406.794 487.246 407.178 487.054C407.369 486.67 407.945 486.67 408.137 487.054L422.914 500.296C423.298 500.488 423.298 501.063 422.914 501.255C422.723 501.255 422.531 501.447 422.339 501.447Z" fill="#26192A"/>
<path d="M409.864 501.447C409.673 501.447 409.673 501.447 409.481 501.447C409.097 501.255 408.905 500.872 409.097 500.488L416.198 484.559C416.39 484.175 416.773 483.983 417.157 484.175C417.541 484.367 417.733 484.751 417.541 485.135L410.44 501.064C410.248 501.256 410.056 501.447 409.864 501.447Z" fill="#26192A"/>
<path d="M414.47 364.996C414.47 364.996 462.449 368.067 480.297 333.139L501.023 350.987C501.023 350.987 488.165 396.47 426.369 397.814L414.47 364.996Z" fill="#F4DAC6"/>
<path d="M416.965 346.765C416.965 346.765 413.127 354.249 404.107 356.36L400.077 375.935L390.673 358.855C390.673 358.855 331.948 349.451 313.908 334.674C313.908 334.674 273.798 386.683 283.009 478.609C283.009 478.609 411.592 487.821 444.793 467.095C444.793 466.903 434.622 379.582 416.965 346.765Z" fill="#E9A295"/>
<path d="M416.965 346.765C416.965 346.765 444.409 378.814 439.995 440.802C439.995 440.802 415.238 371.33 416.965 346.765Z" fill="#6AB0A0"/>
<path d="M299.898 348.108C299.898 348.108 334.634 350.603 336.745 406.258C338.473 450.782 279.939 440.802 279.939 440.802L281.666 454.045C281.666 454.045 344.23 457.307 346.533 417.965C349.028 378.622 336.553 346.381 313.908 334.674L299.898 348.108Z" fill="#6AB0A0"/>
<path d="M301.625 354.633C301.625 354.633 250 366.724 250 403.763C250 440.802 339.24 424.49 339.24 424.49V398.198C339.24 398.198 294.14 411.823 285.12 399.541C276.1 387.258 318.321 388.026 318.321 388.026L301.625 354.633Z" fill="#F4DAC6"/>
<path d="M274.757 365.572C274.757 365.572 289.15 391.289 290.11 396.662L321.584 390.905L306.231 350.603C306.231 350.603 295.484 350.603 274.757 365.572Z" fill="#E9A295"/>
<path d="M339.24 425.257C338.856 425.257 338.664 425.066 338.472 424.682C338.281 424.298 338.664 423.914 339.048 423.722C345.957 421.611 353.634 418.732 354.209 417.581C354.401 417.197 354.401 417.005 354.209 416.621C353.058 414.318 344.422 412.591 339.24 412.015C338.856 412.015 338.664 411.823 338.664 411.44C338.664 411.056 338.664 410.864 339.048 410.672C346.341 406.066 352.29 400.692 351.714 399.733C351.139 398.389 343.462 398.581 336.745 399.541C336.361 399.541 335.978 399.349 335.978 398.965C335.978 398.581 336.169 398.198 336.553 398.198C340.008 397.622 351.523 396.278 352.866 399.157C354.209 401.652 346.149 407.601 341.351 410.864C345.381 411.44 354.017 412.975 355.553 416.046C355.937 416.813 355.937 417.581 355.553 418.349C354.401 420.652 343.078 424.106 339.624 425.257C339.432 425.257 339.432 425.257 339.24 425.257Z" fill="#26192A"/>
<path d="M296.827 618.707C296.635 618.707 296.635 618.707 296.443 618.707C294.332 617.939 290.494 603.929 288.959 597.788C288.767 597.404 289.15 597.02 289.534 596.828C289.918 596.636 290.302 597.02 290.494 597.404C292.797 606.04 295.676 615.444 297.019 617.171C298.554 615.828 303.352 608.535 306.423 604.121C306.615 603.929 306.807 603.737 307.19 603.737C307.382 603.737 307.766 603.929 307.766 604.313C309.493 609.879 311.988 616.212 313.14 617.171C313.907 616.212 314.867 610.262 315.443 605.273C315.443 604.889 315.826 604.505 316.21 604.697C316.594 604.697 316.978 605.081 316.786 605.465C316.21 611.222 315.059 618.323 313.332 618.707C312.756 618.898 311.029 619.282 306.807 606.232C304.504 609.687 299.13 617.747 297.595 618.707C297.211 618.707 297.019 618.707 296.827 618.707Z" fill="#26192A"/>
<path d="M459.378 616.02C456.308 616.02 447.863 609.111 444.217 606.04C443.833 605.849 443.833 605.273 444.217 605.081C444.409 604.697 444.985 604.697 445.177 605.081C450.934 610.071 458.035 615.252 459.378 614.869C460.338 614.485 460.146 608.152 458.994 601.435C458.994 601.051 458.994 600.859 459.378 600.667C459.57 600.475 459.954 600.475 460.146 600.667C464.56 604.121 471.661 608.727 473.388 608.343C473.58 608.343 473.58 608.343 473.58 608.152C474.348 606.424 470.509 600.091 467.631 596.253C467.439 595.869 467.439 595.485 467.823 595.293C468.206 595.101 468.59 595.101 468.782 595.485C470.125 597.212 476.459 605.657 474.923 608.919C474.731 609.303 474.348 609.687 473.772 609.879C471.085 610.646 463.984 605.657 460.722 603.162C461.489 607.768 462.257 615.444 459.954 616.404C459.762 616.02 459.57 616.02 459.378 616.02Z" fill="#26192A"/>
<path d="M336.937 305.887H336.745C336.361 305.695 336.169 305.311 336.361 304.927C336.937 303.008 340.967 299.938 341.351 299.554C341.735 299.362 342.119 299.362 342.311 299.746C342.502 300.129 342.502 300.513 342.119 300.705C340.583 301.857 337.896 304.16 337.513 305.311C337.513 305.695 337.129 305.887 336.937 305.887Z" fill="#26192A"/>
<path d="M339.432 313.564C339.432 313.564 339.24 313.564 339.432 313.564C338.856 313.372 338.664 312.988 338.664 312.604C339.048 310.685 342.886 307.422 343.27 307.038C343.654 306.847 344.038 306.847 344.23 307.038C344.422 307.422 344.422 307.806 344.23 307.998C342.694 309.341 340.2 311.836 340.008 312.988C340.008 313.372 339.816 313.564 339.432 313.564Z" fill="#26192A"/>
<path d="M328.109 318.361H327.917C327.533 318.169 327.341 317.785 327.533 317.402C328.109 315.482 332.139 312.412 332.523 312.028C332.907 311.836 333.291 311.836 333.483 312.22C333.675 312.604 333.675 312.988 333.291 313.179C331.755 314.331 329.069 316.826 328.685 317.785C328.685 318.169 328.493 318.361 328.109 318.361Z" fill="#26192A"/>
<path d="M332.523 326.614C332.139 326.614 331.756 326.23 331.756 325.846C331.948 323.927 335.018 319.897 335.402 319.513C335.594 319.129 336.17 319.129 336.362 319.321C336.745 319.513 336.745 320.089 336.553 320.28C335.402 321.816 333.291 324.694 333.291 325.846C333.099 326.422 332.907 326.614 332.523 326.614Z" fill="#26192A"/>
<path d="M289.534 493.387C289.343 493.387 288.959 493.195 288.959 493.003C287.999 491.276 288.767 486.286 288.767 485.711C288.767 485.327 289.151 485.135 289.534 485.135C289.918 485.135 290.11 485.519 290.11 485.902C289.918 487.822 289.534 491.276 290.11 492.428C290.302 492.811 290.11 493.195 289.726 493.387C289.726 493.387 289.534 493.387 289.534 493.387Z" fill="#26192A"/>
<path d="M296.251 494.73C296.06 494.73 295.676 494.538 295.676 494.347C294.716 492.619 295.484 487.629 295.484 487.054C295.484 486.67 295.868 486.478 296.251 486.478C296.635 486.478 296.827 486.862 296.827 487.246C296.635 489.165 296.251 492.619 296.827 493.771C297.019 494.155 296.827 494.538 296.443 494.73C296.443 494.73 296.443 494.73 296.251 494.73Z" fill="#26192A"/>
<path d="M289.726 510.851C289.534 510.851 289.15 510.659 289.15 510.467C288.191 508.74 288.958 503.75 288.958 503.175C288.958 502.791 289.342 502.599 289.726 502.599C290.11 502.599 290.302 502.983 290.302 503.367C290.11 505.286 289.726 508.74 290.302 509.892C290.494 510.275 290.302 510.659 289.918 510.851C289.918 510.851 289.726 510.851 289.726 510.851Z" fill="#26192A"/>
<path d="M300.666 507.397C300.474 507.397 300.09 507.205 300.09 507.013C299.13 505.285 299.898 500.296 299.898 499.72C299.898 499.336 300.282 499.144 300.666 499.144C301.049 499.144 301.241 499.528 301.241 499.912C301.049 501.831 300.666 505.286 301.241 506.437C301.433 506.821 301.241 507.205 300.857 507.397C301.049 507.397 300.857 507.397 300.666 507.397Z" fill="#26192A"/>
<path d="M297.403 515.073C297.211 515.073 297.019 515.073 296.827 514.881C295.483 513.346 294.908 508.356 294.908 507.781C294.908 507.397 295.1 507.013 295.483 507.013C295.867 507.013 296.251 507.205 296.251 507.589C296.443 509.508 297.211 512.962 297.978 513.922C298.17 514.306 298.17 514.69 297.978 514.881C297.786 515.073 297.595 515.073 297.403 515.073Z" fill="#26192A"/>
<path d="M293.949 525.629C293.757 525.629 293.565 525.629 293.373 525.437C292.029 523.901 291.454 518.912 291.454 518.336C291.454 517.952 291.646 517.568 292.029 517.568C292.413 517.568 292.797 517.76 292.797 518.144C292.989 520.063 293.757 523.517 294.524 524.477C294.716 524.861 294.716 525.245 294.524 525.437C294.332 525.629 294.14 525.629 293.949 525.629Z" fill="#26192A"/>
<path d="M302.585 529.083C302.393 529.083 302.201 529.083 302.009 528.891C300.666 527.356 300.09 522.366 300.09 521.79C300.09 521.406 300.282 521.022 300.666 521.022C301.049 521.022 301.433 521.214 301.433 521.598C301.625 523.517 302.393 526.972 303.16 527.931C303.352 528.315 303.352 528.699 303.16 528.891C302.969 528.891 302.777 529.083 302.585 529.083Z" fill="#26192A"/>
<path d="M297.403 537.719C297.211 537.719 297.019 537.719 296.827 537.527C295.483 535.992 294.908 531.002 294.908 530.426C294.908 530.043 295.1 529.659 295.483 529.659C295.867 529.659 296.251 529.851 296.251 530.234C296.443 532.154 297.211 535.608 297.978 536.568C298.17 536.951 298.17 537.335 297.978 537.527C297.786 537.719 297.595 537.719 297.403 537.719Z" fill="#26192A"/>
<path d="M306.039 543.093C305.847 543.093 305.655 543.093 305.655 542.901C304.12 541.749 302.393 536.951 302.201 536.376C302.009 535.992 302.201 535.608 302.585 535.416C302.968 535.224 303.352 535.416 303.544 535.8C304.12 537.719 305.463 540.982 306.423 541.557C306.807 541.749 306.807 542.325 306.615 542.517C306.423 542.901 306.231 543.093 306.039 543.093Z" fill="#26192A"/>
<path d="M321.584 332.755C321.2 332.755 320.816 332.371 320.816 331.987C321.008 330.068 324.079 326.038 324.463 325.654C324.654 325.27 325.23 325.27 325.422 325.462C325.806 325.654 325.806 326.23 325.614 326.422C324.463 327.957 322.351 330.836 322.351 331.987C322.16 332.371 321.968 332.755 321.584 332.755Z" fill="#26192A"/>
<path d="M326.382 338.32C325.998 338.32 325.614 337.936 325.614 337.553C325.806 335.633 328.877 331.603 329.26 331.219C329.452 330.836 330.028 330.836 330.22 331.028C330.604 331.219 330.604 331.795 330.412 331.987C329.26 333.522 327.149 336.401 327.149 337.553C327.149 338.128 326.765 338.32 326.382 338.32Z" fill="#26192A"/>
<path d="M401.804 394.551C399.117 394.551 396.814 392.248 396.814 389.561C396.814 386.875 399.117 384.572 401.804 384.572C404.491 384.572 406.794 386.875 406.794 389.561C406.794 392.248 404.683 394.551 401.804 394.551ZM401.804 386.107C399.885 386.107 398.35 387.642 398.35 389.561C398.35 391.481 399.885 393.016 401.804 393.016C403.723 393.016 405.258 391.481 405.258 389.561C405.258 387.642 403.723 386.107 401.804 386.107Z" fill="#26192A"/>
<path d="M406.026 424.874C403.339 424.874 401.036 422.571 401.036 419.884C401.036 417.197 403.339 414.894 406.026 414.894C408.713 414.894 411.016 417.197 411.016 419.884C411.016 422.571 408.905 424.874 406.026 424.874ZM406.026 416.237C404.107 416.237 402.572 417.773 402.572 419.692C402.572 421.611 404.107 423.146 406.026 423.146C407.945 423.146 409.481 421.611 409.481 419.692C409.481 417.773 408.137 416.237 406.026 416.237Z" fill="#26192A"/>
<path d="M410.44 450.014C407.753 450.014 405.45 447.711 405.45 445.025C405.45 442.338 407.753 440.035 410.44 440.035C413.127 440.035 415.43 442.338 415.43 445.025C415.43 447.903 413.127 450.014 410.44 450.014ZM410.44 441.57C408.521 441.57 406.986 443.106 406.986 445.025C406.986 446.944 408.521 448.479 410.44 448.479C412.359 448.479 413.895 446.944 413.895 445.025C413.895 443.106 412.359 441.57 410.44 441.57Z" fill="#26192A"/>
<path d="M389.33 255.605C389.138 255.605 388.946 255.605 388.946 255.413C383.764 251.191 388.562 239.293 388.754 238.717C388.946 238.333 389.33 238.141 389.713 238.333C390.097 238.525 390.289 238.909 390.097 239.293C390.097 239.485 385.491 250.808 389.905 254.262C390.289 254.454 390.289 255.03 390.097 255.222C389.713 255.605 389.522 255.605 389.33 255.605Z" fill="#26192A"/>
<path d="M614.208 539.153C615.465 516.613 598.212 497.322 575.672 496.065C553.132 494.807 533.841 512.061 532.583 534.601C531.326 557.141 548.579 576.432 571.119 577.689C593.659 578.947 612.951 561.693 614.208 539.153Z" fill="#ACDBCF"/>
<path d="M573.375 578.405C572.608 578.405 571.84 578.405 571.072 578.405C548.234 577.062 530.578 557.486 531.922 534.649C533.265 511.811 552.648 494.155 575.678 495.498C598.516 496.842 616.172 516.417 614.829 539.255C613.677 561.133 595.445 578.405 573.375 578.405ZM573.375 496.842C552.073 496.842 534.609 513.538 533.457 534.649C532.306 556.719 549.194 575.718 571.264 576.87C593.526 578.021 612.334 561.133 613.485 539.063C614.637 516.993 597.748 497.993 575.678 496.842C574.91 496.842 574.143 496.842 573.375 496.842Z" fill="#26192A"/>
<path d="M571.072 578.405C570.688 578.405 570.304 578.021 570.304 577.637L574.91 496.074C574.91 495.69 575.294 495.306 575.678 495.306C576.062 495.306 576.446 495.69 576.446 496.074L571.84 577.637C571.84 578.021 571.456 578.405 571.072 578.405Z" fill="#26192A"/>
<path d="M614.061 539.83L532.498 535.224C532.114 535.224 531.73 534.84 531.73 534.456C531.73 534.073 532.114 533.689 532.498 533.689L614.061 538.295C614.445 538.295 614.829 538.678 614.829 539.062C614.829 539.638 614.445 539.83 614.061 539.83Z" fill="#26192A"/>
<path d="M551.305 572.072C550.729 571.88 550.538 571.496 550.538 571.112C559.366 535.8 554.568 500.68 554.568 500.296C554.568 499.912 554.76 499.528 555.144 499.528C555.527 499.528 555.911 499.72 555.911 500.104C555.911 500.488 560.901 535.8 551.881 571.304C551.881 571.688 551.689 572.072 551.305 572.072Z" fill="#26192A"/>
<path d="M595.253 572.072C594.869 572.072 594.678 571.88 594.486 571.496C584.698 541.557 597.172 504.518 597.364 504.134C597.556 503.75 597.94 503.558 598.324 503.75C598.708 503.942 598.9 504.326 598.708 504.71C598.516 505.094 586.233 541.557 595.829 571.112C596.021 571.496 595.829 571.88 595.445 572.072C595.445 572.072 595.445 572.072 595.253 572.072Z" fill="#26192A"/>
<path d="M582.779 520.639C555.719 520.639 539.215 514.881 539.023 514.881C538.639 514.689 538.447 514.306 538.639 513.922C538.831 513.538 539.215 513.346 539.598 513.538C539.79 513.538 567.234 523.134 609.455 517.376C609.839 517.376 610.223 517.568 610.223 517.952C610.223 518.336 610.031 518.72 609.647 518.72C599.859 520.255 590.839 520.639 582.779 520.639Z" fill="#26192A"/>
<path d="M607.344 560.173C607.344 560.173 607.152 560.173 607.344 560.173C606.768 559.981 569.537 552.113 538.447 558.446C538.063 558.446 537.679 558.254 537.679 557.87C537.679 557.486 537.871 557.103 538.255 557.103C569.729 550.769 607.152 558.83 607.536 558.83C607.92 558.83 608.111 559.214 608.111 559.597C607.92 559.981 607.728 560.173 607.344 560.173Z" fill="#26192A"/>
<path d="M573.951 588.384C548.426 588.384 526.164 569.577 522.518 543.668C520.599 529.851 524.245 516.225 532.497 505.286C540.942 494.155 553.032 487.054 566.658 485.135C575.678 483.983 584.698 484.943 593.142 488.397C593.526 488.589 593.718 488.973 593.526 489.357C593.334 489.741 592.95 489.933 592.567 489.741C584.506 486.478 575.486 485.327 566.85 486.67C553.416 488.589 541.709 495.498 533.457 506.245C525.205 516.992 521.942 530.234 523.669 543.668C527.508 571.304 553.032 590.495 580.476 586.657C594.294 584.738 606.384 577.445 614.445 566.314C614.637 565.931 615.212 565.931 615.404 566.122C615.788 566.314 615.788 566.89 615.596 567.082C607.152 578.597 594.87 586.082 580.668 588.193C578.557 588.384 576.254 588.384 573.951 588.384Z" fill="white"/>
<path d="M587.961 605.849L551.305 603.738C550.921 603.738 550.538 603.354 550.538 602.97C550.538 602.586 550.921 602.202 551.305 602.202L587.961 604.313C588.345 604.313 588.728 604.697 588.728 605.081C588.728 605.657 588.345 605.849 587.961 605.849Z" fill="#26192A"/>
<path d="M569.537 604.889C569.153 604.889 568.77 604.505 568.77 604.121L569.729 587.617C569.729 587.233 570.113 586.849 570.497 586.849C570.881 586.849 571.264 587.233 571.264 587.617L570.305 604.121C570.305 604.697 569.921 604.889 569.537 604.889Z" fill="#26192A"/>
<path d="M525.78 311.26C525.397 311.26 525.205 311.069 525.013 310.685L519.063 288.039C518.872 287.655 519.255 287.271 519.639 287.079C520.023 286.887 520.407 287.271 520.599 287.655L526.548 310.301C526.74 310.685 526.356 311.068 525.78 311.26C525.972 311.26 525.972 311.26 525.78 311.26Z" fill="white"/>
<path d="M510.619 302.624C510.235 302.624 510.043 302.432 509.851 302.048C509.659 301.665 510.043 301.281 510.427 301.089L531.73 294.948C532.113 294.756 532.497 295.14 532.689 295.523C532.881 295.907 532.497 296.291 532.113 296.483L510.811 302.624C510.811 302.624 510.811 302.624 510.619 302.624Z" fill="white"/>
<path d="M531.922 304.927C531.73 304.927 531.73 304.927 531.538 304.735L513.498 292.837C513.114 292.645 513.114 292.261 513.306 291.877C513.498 291.493 513.882 291.493 514.266 291.685L532.305 303.584C532.689 303.776 532.689 304.16 532.497 304.543C532.305 304.735 532.114 304.927 531.922 304.927Z" fill="white"/>
<path d="M517.336 308.382C517.144 308.382 517.144 308.382 516.952 308.382C516.568 308.19 516.568 307.806 516.76 307.422L527.507 288.231C527.699 287.847 528.083 287.847 528.467 288.039C528.851 288.231 528.851 288.615 528.659 288.998L517.912 308.19C517.72 308.382 517.528 308.382 517.336 308.382Z" fill="white"/>
<path d="M545.164 286.887C544.78 286.887 544.588 286.695 544.396 286.312C544.204 285.928 544.396 285.544 544.78 285.352L562.244 279.211C562.628 279.019 563.012 279.211 563.204 279.595C563.396 279.978 563.204 280.362 562.82 280.554L545.356 286.695C545.164 286.887 545.164 286.887 545.164 286.887Z" fill="white"/>
<path d="M557.063 290.726C556.679 290.726 556.487 290.534 556.295 290.342L550.154 273.837C549.962 273.453 550.154 273.07 550.538 272.878C550.921 272.686 551.305 272.878 551.497 273.261L557.638 289.766C557.83 290.15 557.638 290.534 557.254 290.726C557.254 290.726 557.254 290.726 557.063 290.726Z" fill="white"/>
<path d="M550.538 291.302C550.346 291.302 550.346 291.302 550.154 291.302C549.77 291.11 549.77 290.726 549.962 290.342L558.214 275.373C558.406 274.989 558.79 274.797 559.174 275.181C559.557 275.373 559.557 275.757 559.366 276.14L551.113 291.11C550.921 291.11 550.729 291.302 550.538 291.302Z" fill="white"/>
<path d="M562.628 287.271C562.436 287.271 562.436 287.271 562.244 287.271L546.316 279.978C545.932 279.787 545.74 279.403 545.932 279.019C546.124 278.635 546.507 278.443 546.891 278.635L562.82 285.928C563.204 286.12 563.396 286.504 563.204 286.887C563.204 287.079 562.82 287.271 562.628 287.271Z" fill="white"/>
<path d="M475.499 554.416C475.115 554.416 474.923 554.224 474.732 553.84C474.54 553.456 474.732 553.072 475.115 552.88L492.58 546.739C492.963 546.547 493.347 546.739 493.539 547.123C493.731 547.507 493.539 547.891 493.155 548.083L475.691 554.224L475.499 554.416Z" fill="#26192A"/>
<path d="M487.59 558.062C487.206 558.062 487.014 557.87 486.822 557.678L480.681 541.174C480.489 540.79 480.681 540.406 481.065 540.214C481.449 540.022 481.832 540.214 482.024 540.598L488.166 557.102C488.358 557.486 488.166 557.87 487.782 558.062H487.59Z" fill="#26192A"/>
<path d="M480.873 558.638C480.681 558.638 480.681 558.638 480.489 558.638C480.105 558.446 480.105 558.062 480.297 557.678L488.549 542.709C488.741 542.325 489.125 542.133 489.509 542.517C489.893 542.709 489.893 543.093 489.701 543.477L481.448 558.446C481.448 558.638 481.065 558.638 480.873 558.638Z" fill="#26192A"/>
<path d="M492.963 554.607C492.772 554.607 492.772 554.607 492.58 554.607L476.651 547.315C476.267 547.123 476.075 546.739 476.267 546.355C476.459 545.971 476.843 545.779 477.227 545.971L493.155 553.264C493.539 553.456 493.731 553.84 493.539 554.224C493.539 554.607 493.347 554.607 492.963 554.607Z" fill="#26192A"/>
<path d="M478.186 507.972L483.368 503.175L483.943 510.083L489.509 513.154L483.176 515.649L481.64 523.326L478.378 516.225L471.085 519.295L475.307 511.235L470.317 505.478L478.186 507.972Z" fill="#FCB82E"/>
<path d="M484.903 480.529C484.711 480.529 484.327 480.337 484.327 480.145C484.135 479.953 484.327 479.569 484.519 479.377L523.669 437.924C523.861 437.732 524.245 437.732 524.437 437.732C524.629 437.924 524.821 438.116 524.821 438.499L523.286 452.893C523.286 453.085 523.094 453.277 522.902 453.469L491.428 475.731L524.629 462.489C524.821 462.297 525.205 462.489 525.397 462.681L538.255 475.923C538.447 476.115 538.447 476.498 538.447 476.69C538.255 476.882 538.063 477.074 537.871 477.074L484.903 480.529ZM524.821 464.024L487.014 478.993L536.144 475.731L524.821 464.024ZM523.094 440.419L491.62 473.812L521.75 452.509L523.094 440.419Z" fill="white"/>
<path d="M525.013 463.832C524.629 463.832 524.245 463.448 524.245 463.064C524.245 462.681 524.629 462.297 525.013 462.297L538.063 462.105L522.134 453.469C521.75 453.277 521.75 452.893 521.942 452.509C522.134 452.125 522.518 452.125 522.902 452.317L541.326 462.297C541.517 462.489 541.709 462.873 541.709 463.064C541.709 463.448 541.326 463.64 540.942 463.64L525.013 463.832Z" fill="white"/>
<path d="M529.427 468.438C529.235 468.438 528.851 468.246 528.851 468.054C528.659 467.67 528.851 467.286 529.235 467.095L540.558 462.297C540.942 462.105 541.326 462.297 541.517 462.681C541.709 463.064 541.517 463.448 541.134 463.64L529.811 468.438C529.619 468.438 529.427 468.438 529.427 468.438Z" fill="white"/>
<path d="M475.115 667.261C474.731 667.261 474.348 666.877 474.348 666.493C474.348 666.11 474.539 665.726 475.115 665.726C478.186 665.534 481.256 665.15 484.519 664.382C484.903 664.382 485.287 664.574 485.287 664.958C485.287 665.342 485.095 665.726 484.711 665.726C481.448 666.493 478.186 667.069 475.115 667.261ZM465.52 666.877C465.52 666.877 465.328 666.877 465.52 666.877C462.257 666.493 458.994 665.726 455.924 664.574C455.54 664.382 455.348 663.999 455.54 663.615C455.732 663.231 456.116 663.039 456.5 663.231C459.378 664.191 462.449 664.958 465.711 665.342C466.095 665.342 466.479 665.726 466.287 666.11C466.095 666.685 465.903 666.877 465.52 666.877ZM493.731 663.423C493.347 663.423 493.155 663.231 492.963 662.847C492.771 662.463 492.963 662.079 493.347 661.888C496.418 660.928 499.488 659.776 502.367 658.625C502.751 658.433 503.135 658.625 503.327 659.009C503.519 659.393 503.327 659.776 502.943 659.968C500.064 661.12 496.993 662.271 493.923 663.231C493.923 663.423 493.923 663.423 493.731 663.423ZM447.48 660.544C447.288 660.544 447.288 660.544 447.096 660.352C444.409 658.817 441.722 656.706 439.227 654.595C438.843 654.403 438.843 653.827 439.227 653.635C439.419 653.251 439.995 653.251 440.187 653.635C442.682 655.746 445.177 657.665 447.863 659.201C448.247 659.393 448.247 659.776 448.055 660.16C448.055 660.544 447.672 660.544 447.48 660.544ZM570.305 657.282H569.537C569.153 657.282 568.769 656.898 568.769 656.514C568.769 656.13 569.153 655.746 569.537 655.746H570.305C573.183 655.746 576.062 655.554 578.941 655.362C579.325 655.362 579.708 655.554 579.708 655.938C579.708 656.322 579.516 656.706 579.133 656.706C576.254 657.282 573.183 657.282 570.305 657.282ZM559.941 656.706C556.679 656.322 553.416 655.746 550.346 655.171C549.962 655.171 549.77 654.787 549.77 654.403C549.77 654.019 550.154 653.827 550.537 653.827C553.608 654.403 556.679 654.979 559.941 655.362C560.325 655.362 560.709 655.746 560.517 656.13C560.517 656.514 560.325 656.706 559.941 656.706ZM511.579 656.13C511.387 656.13 511.003 655.938 511.003 655.746C510.811 655.362 511.003 654.979 511.387 654.787C514.266 653.251 517.144 651.716 519.639 649.989C520.023 649.797 520.407 649.797 520.599 650.181C520.791 650.565 520.791 650.948 520.407 651.14C517.912 652.868 515.033 654.595 512.155 656.13C511.771 656.13 511.579 656.13 511.579 656.13ZM588.536 655.554C588.153 655.554 587.961 655.362 587.769 654.979C587.769 654.595 587.961 654.211 588.345 654.211C591.415 653.635 594.678 652.868 597.556 651.908C597.94 651.716 598.324 651.908 598.516 652.292C598.708 652.676 598.516 653.059 598.132 653.251C595.061 654.211 591.991 654.979 588.536 655.554C588.728 655.554 588.728 655.554 588.536 655.554ZM541.326 652.676H541.134C538.063 651.524 534.992 650.181 532.306 648.837C531.922 648.645 531.73 648.262 531.922 647.878C532.114 647.494 532.498 647.494 532.881 647.494C535.568 648.837 538.447 650.181 541.517 651.332C541.901 651.524 542.093 651.908 541.901 652.292C541.901 652.484 541.517 652.676 541.326 652.676ZM606.96 649.797C606.768 649.797 606.384 649.605 606.384 649.413C606.193 649.029 606.384 648.645 606.768 648.454C609.647 647.11 612.526 645.575 615.212 644.04C615.596 643.848 615.98 643.848 616.172 644.231C616.364 644.615 616.364 644.999 615.98 645.191C613.293 646.918 610.415 648.454 607.344 649.605C607.152 649.797 606.96 649.797 606.96 649.797ZM433.086 648.07C432.894 648.07 432.702 648.07 432.51 647.878C430.591 645.575 428.672 642.888 426.753 640.009C426.561 639.626 426.561 639.242 426.945 639.05C427.329 638.858 427.712 638.858 427.904 639.242C429.632 641.928 431.551 644.615 433.47 646.918C433.662 647.302 433.662 647.686 433.47 647.878C433.47 648.07 433.278 648.07 433.086 648.07ZM527.124 645.191C526.932 645.191 526.74 645.191 526.548 644.999C526.356 644.807 526.356 644.231 526.548 644.04C528.851 641.737 530.77 639.242 532.114 636.555C532.306 636.171 532.689 636.171 533.073 636.171C533.457 636.363 533.457 636.747 533.457 637.131C531.922 639.817 530.003 642.504 527.508 644.999C527.508 644.999 527.316 645.191 527.124 645.191ZM524.437 643.464C524.245 643.464 524.053 643.464 524.053 643.272C521.367 640.969 519.255 638.666 517.528 635.979C517.336 635.595 517.336 635.211 517.72 635.02C518.104 634.828 518.488 634.828 518.68 635.211C520.215 637.706 522.326 640.009 525.013 642.12C525.397 642.312 525.397 642.888 525.013 643.08C524.821 643.272 524.629 643.464 524.437 643.464ZM623.081 639.817C622.889 639.817 622.697 639.817 622.505 639.625C622.313 639.242 622.313 638.858 622.505 638.666C625 636.555 627.303 634.444 629.414 632.141C629.606 631.757 630.182 631.757 630.374 632.141C630.758 632.333 630.758 632.908 630.374 633.1C628.263 635.403 625.96 637.706 623.465 639.817C623.465 639.817 623.273 639.817 623.081 639.817ZM422.723 631.949C422.531 631.949 422.147 631.757 422.147 631.565C420.804 628.686 419.46 625.808 418.309 622.737C418.117 622.353 418.309 621.969 418.692 621.777C419.076 621.586 419.46 621.777 419.652 622.161C420.804 625.232 422.147 628.111 423.49 630.797C423.682 631.181 423.49 631.565 423.107 631.757C423.107 631.949 422.915 631.949 422.723 631.949ZM535.76 628.303C535.376 628.303 534.992 627.919 534.992 627.535C534.992 626.959 534.992 626.383 534.992 626C534.992 623.505 534.417 621.01 533.457 618.515C533.265 618.131 533.457 617.747 533.841 617.555C534.225 617.363 534.609 617.555 534.8 617.939C535.952 620.434 536.336 623.121 536.336 626C536.336 626.575 536.336 627.151 536.336 627.727C536.336 628.111 536.144 628.303 535.76 628.303ZM514.458 627.535C514.074 627.535 513.882 627.343 513.69 626.959C513.498 625.616 513.306 624.272 513.306 623.121V622.353C513.306 620.434 513.498 618.707 513.69 617.172C513.69 616.788 514.074 616.596 514.458 616.596C514.841 616.596 515.033 616.98 515.033 617.363C514.841 618.899 514.65 620.434 514.65 622.161V622.929C514.65 624.08 514.841 625.424 515.033 626.575C515.225 627.151 515.033 627.535 514.458 627.535ZM635.939 625.616C635.747 625.616 635.747 625.616 635.555 625.424C635.172 625.232 635.172 624.848 635.363 624.464C637.091 621.777 638.626 619.091 639.969 616.212C640.161 615.828 640.545 615.636 640.929 615.828C641.313 616.02 641.505 616.404 641.313 616.788C639.969 619.666 638.434 622.545 636.707 625.232C636.323 625.424 636.131 625.616 635.939 625.616ZM415.814 614.101C415.43 614.101 415.238 613.909 415.046 613.525C413.319 607.96 412.743 604.121 412.743 604.121C412.743 603.738 412.935 603.354 413.319 603.354C413.703 603.354 414.087 603.546 414.087 603.929C414.087 603.929 414.854 607.768 416.39 613.141C416.581 613.525 416.198 613.909 415.814 614.101C415.814 613.909 415.814 614.101 415.814 614.101ZM528.275 611.606C528.083 611.606 528.084 611.606 527.892 611.414C525.013 609.495 521.942 608.919 519.639 610.071C519.255 610.263 518.872 610.071 518.68 609.687C518.488 609.303 518.68 608.919 519.064 608.727C521.942 607.384 525.589 607.96 528.851 610.263C529.235 610.455 529.235 611.03 529.043 611.222C528.851 611.414 528.659 611.606 528.275 611.606ZM643.808 608.152H643.616C643.232 607.96 643.04 607.576 643.232 607.192C644.191 604.313 644.959 601.051 645.727 597.98C645.727 597.596 646.111 597.404 646.494 597.404C646.878 597.404 647.07 597.788 647.07 598.172C646.303 601.435 645.535 604.505 644.575 607.576C644.383 607.96 644 608.152 643.808 608.152ZM648.03 589.536C647.454 589.536 647.262 589.152 647.262 588.768C647.646 585.698 648.03 582.435 648.222 579.364C648.222 578.981 648.606 578.597 648.989 578.789C649.373 578.789 649.757 579.173 649.565 579.556C649.373 582.819 648.989 586.081 648.606 589.152C648.606 589.152 648.414 589.536 648.03 589.536ZM649.373 570.344C648.989 570.344 648.606 569.961 648.606 569.577C648.606 566.506 648.414 563.244 648.222 559.981C648.222 559.597 648.414 559.214 648.797 559.214C649.181 559.214 649.565 559.405 649.565 559.789C649.757 563.052 649.949 566.314 649.949 569.385C650.141 569.961 649.757 570.344 649.373 570.344ZM648.03 551.153C647.646 551.153 647.454 550.961 647.262 550.577C646.878 547.507 646.303 544.244 645.535 541.174C645.535 540.79 645.727 540.406 646.111 540.406C646.494 540.406 646.878 540.598 646.878 540.982C647.454 544.052 648.03 547.315 648.606 550.385C648.797 550.769 648.414 551.153 648.03 551.153ZM644 532.537C643.616 532.537 643.424 532.346 643.232 531.962C642.272 528.891 641.313 525.82 640.161 522.942C639.969 522.558 640.161 522.174 640.545 521.982C640.929 521.79 641.313 521.982 641.505 522.366C642.656 525.437 643.616 528.507 644.575 531.578C644.767 531.962 644.383 532.346 644 532.537C644 532.346 644 532.537 644 532.537ZM637.091 514.498C636.899 514.498 636.515 514.306 636.515 514.114C635.172 511.235 633.636 508.356 632.101 505.669C631.909 505.286 632.101 504.902 632.293 504.71C632.677 504.518 633.06 504.71 633.252 504.902C634.788 507.589 636.323 510.467 637.666 513.538C637.858 513.922 637.666 514.306 637.283 514.498C637.475 514.498 637.283 514.498 637.091 514.498ZM627.495 497.993C627.303 497.993 627.111 497.801 626.919 497.609C625 494.922 623.081 492.427 620.97 490.124C620.778 489.741 620.778 489.357 620.97 489.165C621.354 488.973 621.738 488.973 621.929 489.165C624.041 491.468 625.96 494.155 627.879 496.65C628.071 497.033 628.071 497.417 627.687 497.609C627.879 497.801 627.687 497.993 627.495 497.993ZM614.829 483.599C614.637 483.599 614.445 483.599 614.253 483.407C611.95 481.296 609.455 479.185 606.96 477.458C606.576 477.266 606.576 476.69 606.768 476.499C606.96 476.115 607.536 476.115 607.728 476.307C610.223 478.226 612.91 480.145 615.212 482.448C615.596 482.64 615.596 483.216 615.212 483.407C615.212 483.407 615.021 483.599 614.829 483.599ZM599.284 472.468C599.092 472.468 599.092 472.468 598.9 472.468C596.213 470.933 593.334 469.59 590.264 468.438C589.88 468.246 589.688 467.862 589.88 467.479C590.072 467.095 590.456 466.903 590.839 467.095C593.91 468.246 596.789 469.59 599.667 471.317C600.051 471.509 600.051 471.893 599.859 472.276C599.859 472.276 599.667 472.468 599.284 472.468ZM581.628 465.176C581.628 465.176 581.436 465.176 581.628 465.176C578.365 464.408 575.294 463.64 572.224 463.256C571.84 463.256 571.648 462.873 571.648 462.489C571.648 462.105 572.032 461.913 572.416 461.913C575.678 462.297 578.749 463.065 581.819 463.832C582.203 464.024 582.395 464.408 582.395 464.792C582.203 464.984 582.011 465.176 581.628 465.176ZM539.406 464.216C539.023 464.216 538.831 464.024 538.639 463.64C538.639 463.257 538.831 462.873 539.215 462.873C540.558 462.681 542.093 462.297 543.437 462.105C543.82 462.105 544.204 462.297 544.204 462.681C544.204 463.065 544.012 463.448 543.629 463.448C542.285 463.832 540.942 464.024 539.406 464.216ZM553.032 462.681C552.648 462.681 552.265 462.297 552.265 461.913C552.265 461.529 552.457 461.145 553.032 461.145C556.295 460.954 559.557 460.953 562.628 460.953C563.012 460.953 563.396 461.337 563.396 461.721C563.396 462.105 563.012 462.489 562.628 462.489C559.557 462.297 556.295 462.489 553.032 462.681Z" fill="white"/>
</svg>
