<svg width="132" height="200" viewBox="0 0 132 200" fill="none" xmlns="http://www.w3.org/2000/svg">
<path d="M129.186 63C129.087 63 128.988 62.8994 128.888 62.7988C128.789 62.5975 128.789 62.3962 128.988 62.2956C129.484 61.8931 131.17 56.5598 131.17 53.6416C131.17 53.0378 131.071 52.7359 131.071 52.6353C130.277 52.9372 127.598 55.2516 125.217 57.4654C125.118 57.5661 124.919 57.5661 124.82 57.5661C124.721 57.4654 124.622 57.3648 124.622 57.1636C124.919 53.239 125.019 49.0126 124.82 47.8051C124.026 48.5095 121.645 51.629 119.661 54.5472C119.561 54.7485 119.264 54.7485 119.164 54.6478C118.966 54.5472 118.966 54.2453 119.065 54.1447C124.126 46.8995 124.82 47.0001 125.118 47.0001C125.515 47.1007 126.11 47.2013 125.515 56.3585C130.873 51.4277 131.369 51.8302 131.567 52.0315C131.964 52.3334 132.063 53.0378 131.964 54.2453C131.766 57.0629 130.277 62.3962 129.384 63C129.384 63 129.285 63 129.186 63Z" fill="#26192A"/>
<path d="M9.3913 151C9.19463 151 8.99796 151 8.80129 150.903C7.52295 150.614 6.83461 149.359 6.93294 147.524C7.03128 145.98 7.71962 144.821 8.89963 144.049C9.48963 143.663 10.178 143.373 10.9646 143.18C9.88297 141.829 8.11295 140.284 5.16293 138.643C4.96626 138.546 4.96626 138.353 5.06459 138.16C5.16293 137.967 5.35959 137.967 5.55626 138.063C8.80129 139.801 10.6696 141.539 11.7513 143.084C16.2747 142.311 22.4698 144.242 22.7648 144.339C22.9614 144.435 23.0598 144.628 22.9614 144.821C22.8631 145.014 22.6664 145.111 22.4698 145.014C22.3714 145.014 16.4714 143.18 12.1447 143.663C13.423 145.787 13.0297 147.428 12.7347 148.297C12.243 149.938 10.768 151 9.3913 151ZM11.4563 143.952C10.6696 144.146 9.9813 144.339 9.3913 144.821C8.40796 145.497 7.81795 146.463 7.71962 147.718C7.62128 149.166 8.11295 150.131 8.99796 150.324C10.0796 150.517 11.5547 149.745 12.1447 148.2C12.4397 147.525 12.7347 145.98 11.4563 143.952Z" fill="#26192A"/>
<path d="M48.5522 57.6538C48.5522 57.6538 30.9218 44.9064 17.4281 61.6065C8.56362 72.4764 -6.112 109.928 14.3748 114.671C34.8616 119.316 55.7423 73.4645 48.5522 57.6538Z" fill="#6AB0A0"/>
<path d="M17.1252 137.638C17.1252 137.638 11.8525 36.9581 69.7525 23.3821C87.0628 19.3193 104.075 48.9485 98.7025 50.9303C93.4298 52.9122 85.1726 55.6869 85.1726 55.6869C85.1726 55.6869 106.562 126.044 102.483 150.322C98.5035 174.501 14.9365 188.176 17.1252 137.638Z" fill="#F4DAC6"/>
<path d="M64 26.846C64 26.846 58.3154 3.05297 35.5769 10.4127C35.5769 10.4127 29.1082 36.4236 59.4915 29.9713L64 26.846Z" fill="#F4DAC6"/>
<path d="M57.6364 25C57.537 25 57.4376 24.9034 57.3381 24.8067C49.4834 14.2738 42.623 15.9165 42.5236 15.9165C42.3247 16.0132 42.1259 15.8199 42.0264 15.6266C41.927 15.4334 42.1259 15.2401 42.3247 15.1435C42.623 15.0468 49.7817 13.4041 57.9347 24.2269C58.0341 24.4202 58.0341 24.6135 57.8353 24.7101C57.7358 25 57.7358 25 57.6364 25Z" fill="#26192A"/>
<path d="M69.8612 0C69.8612 0 61.5775 12.0725 69.2765 21L75.2212 19.8841C75.1237 19.8841 84.2844 7.81159 69.8612 0Z" fill="#F4DAC6"/>
<path d="M97.323 147.05C97.323 147.05 114.119 185.574 112.941 188.05C111.762 190.625 104.101 194.19 101.056 193.992C98.0106 193.893 82 160.221 82 160.221C82 160.221 93.0994 146.059 97.323 147.05Z" fill="#F4DAC6"/>
<path d="M51 151.979C51 151.979 36.5287 191.697 33.8341 192.792C31.2393 193.788 22.4567 191 20.2611 188.81C18.0654 186.62 30.4408 150.884 30.4408 150.884C30.4408 150.884 48.505 148.295 51 151.979Z" fill="#F4DAC6"/>
<path d="M54.2514 23.5531C54.2514 23.5531 63.8291 10.6365 82.4858 14.8419C95.755 17.8458 93.1611 34.367 96.9523 32.2643C100.743 30.1616 99.9453 19.6481 112.117 20.7495C120.697 21.5505 122.293 44.1796 116.806 47.3838C111.319 50.5879 84.3814 50.0872 86.5763 60L33.0007 53.5918C32.901 53.5918 43.1771 29.9614 54.2514 23.5531Z" fill="#F4DAC6"/>
<path d="M79.3709 33C77.4056 33 74.3593 28.0552 74.0645 27.4371C73.9663 27.231 73.9663 27.025 74.1628 26.922C74.3594 26.819 74.5559 26.819 74.6542 27.025C75.8334 28.9823 78.0935 32.1759 79.3709 32.1759C79.5675 32.1759 79.6657 32.1759 79.8623 31.8668C81.238 29.6004 78.3883 25.5828 78.3883 25.5828C78.29 25.3767 78.29 25.1707 78.4865 25.0677C78.6831 24.9646 78.8796 24.9647 78.9779 25.1707C79.0761 25.3767 82.1224 29.7035 80.5501 32.3819C80.1571 32.794 79.6657 33 79.3709 33Z" fill="#26192A"/>
<path d="M89.3935 29C89.1837 29 89.0788 29 88.869 28.9033C86.5611 28.4198 84.1484 24.552 84.0435 24.3586C83.9385 24.1652 84.0435 23.9718 84.1484 23.8751C84.3582 23.7784 84.568 23.8751 84.6729 23.9718C85.3023 25.0355 87.2954 27.743 88.9739 28.1297C89.3935 28.2264 89.7082 28.1298 90.0229 27.9364C90.7572 27.4529 89.8131 24.7454 88.5542 22.5214C88.4493 22.328 88.5543 22.1346 88.7641 22.0379C88.9739 21.9412 89.1837 22.0379 89.2886 22.2313C89.8131 23.1016 92.016 27.5496 90.4425 28.6132C90.1278 28.9033 89.8131 29 89.3935 29Z" fill="#26192A"/>
<path d="M102 26.0691C102 26.0691 106.678 49.1732 116.929 46.8336C125.09 44.9814 119.019 22.1696 115.635 21.4872C112.251 20.9998 103.692 19.5375 102 26.0691Z" fill="#E9A295"/>
<path d="M113.581 37C113.372 37 113.267 36.9005 113.162 36.7014C111.383 29.3344 109.394 27.9406 108.451 27.7415C107.404 27.5424 106.672 28.5379 106.672 28.5379C106.567 28.737 106.253 28.7371 106.148 28.6375C106.043 28.5379 105.939 28.2393 106.043 28.1397C106.043 28.0402 107.09 26.746 108.661 27.0446C110.755 27.4429 112.534 30.6286 114 36.5022C114 36.7013 113.895 36.9004 113.581 37C113.686 37 113.581 37 113.581 37Z" fill="#26192A"/>
<path d="M115.521 37C115.296 37 115.184 36.9037 115.072 36.7112C112.152 28.1437 112.938 26.5072 113.724 26.1222C114.286 25.8334 114.959 26.1222 115.296 26.3147C115.521 26.411 115.521 26.6998 115.409 26.796C115.296 26.9886 114.959 26.9886 114.847 26.8923C114.735 26.796 114.398 26.6035 114.286 26.6998C114.061 26.796 113.05 27.9512 115.97 36.5187C116.082 36.7112 115.858 36.9037 115.633 37C115.633 37 115.633 37 115.521 37Z" fill="#26192A"/>
<path d="M92.736 53C91.3602 53 90.2793 52.5876 89.3949 51.866C86.3486 49.2887 87.0365 43.5155 87.1348 43.3093C87.1348 43.1031 87.3313 43 87.5278 43C87.7244 43 87.8226 43.2062 87.8226 43.4124C87.8226 43.5155 87.1348 48.9794 89.8862 51.2474C91.3602 52.4845 93.6204 52.4845 96.4701 51.3505C96.6666 51.2474 96.8632 51.3505 96.9614 51.5567C97.0597 51.7629 96.9615 51.969 96.7649 52.0721C95.1926 52.6907 93.9152 53 92.736 53Z" fill="#26192A"/>
<path d="M88.5765 140C88.4824 140 88.3882 140 88.3882 139.895L81.1412 132.68C80.9529 132.575 80.9529 132.261 81.1412 132.157C81.2353 131.948 81.5176 131.948 81.6118 132.157L88.8588 139.373C89.0471 139.477 89.0471 139.791 88.8588 139.895C88.7647 139.895 88.6706 140 88.5765 140Z" fill="#26192A"/>
<path d="M82.3923 139C82.303 139 82.303 139 82.2137 139C82.035 138.9 81.9457 138.701 82.035 138.502L85.3397 130.238C85.4291 130.039 85.6077 129.939 85.7863 130.039C85.965 130.139 86.0543 130.338 85.965 130.537L82.6603 138.801C82.5709 138.9 82.4816 139 82.3923 139Z" fill="#26192A"/>
<path d="M85 68.2552C85 68.2552 109.945 69.822 119.224 52L130 61.1068C130 61.1068 123.315 84.3145 91.1863 85L85 68.2552Z" fill="#F4DAC6"/>
<path d="M86.5028 59.2119C86.5028 59.2119 84.5031 63.0574 79.804 64.1421L77.7044 74.1995L72.8054 65.4239C72.8054 65.4239 42.2112 60.5924 32.813 53C32.813 53 11.9169 79.7213 16.716 126.952C16.716 126.952 83.7033 131.685 101 121.036C101 120.937 95.701 76.073 86.5028 59.2119Z" fill="#E9A295"/>
<path d="M87.0439 59C87.0439 59 101 75.7 98.7556 108C98.7556 108 86.1655 71.8 87.0439 59Z" fill="#6AB0A0"/>
<path d="M26.4406 59.9736C26.4406 59.9736 44.6112 61.2687 45.7155 90.1595C46.619 113.272 16 108.092 16 108.092L16.9035 114.966C16.9035 114.966 49.6307 116.659 50.8354 96.2365C52.1405 75.8137 45.6151 59.077 33.7691 53L26.4406 59.9736Z" fill="#6AB0A0"/>
<path d="M26.6108 63C26.6108 63 0 69.2565 0 88.4232C0 107.59 46 99.1486 46 99.1486V85.5432C46 85.5432 22.7527 92.5942 18.1032 86.2384C13.4538 79.8826 35.2172 80.2798 35.2172 80.2798L26.6108 63Z" fill="#F4DAC6"/>
<path d="M13 68.8C13 68.8 20.3771 82.2 20.8689 85L37 82L29.1311 61C29.1311 61 23.623 61 13 68.8Z" fill="#E9A295"/>
<path d="M46.6425 100C46.4493 100 46.3527 99.9036 46.256 99.7109C46.1594 99.5181 46.3527 99.3254 46.5459 99.229C50.0242 98.1689 53.8889 96.7234 54.1787 96.1451C54.2754 95.9524 54.2754 95.856 54.1787 95.6633C53.599 94.5068 49.2512 93.6394 46.6425 93.3503C46.4493 93.3503 46.3527 93.2539 46.3527 93.0612C46.3527 92.8685 46.3527 92.7721 46.5459 92.6757C50.2174 90.3628 53.2126 87.6644 52.9227 87.1825C52.6329 86.5079 48.7681 86.6043 45.3865 87.0861C45.1932 87.0861 45 86.9898 45 86.797C45 86.6043 45.0966 86.4115 45.2899 86.4115C47.029 86.1224 52.8261 85.4478 53.5024 86.8934C54.1787 88.1462 50.1208 91.1338 47.7053 92.7721C49.7343 93.0612 54.0821 93.8322 54.8551 95.3741C55.0483 95.7596 55.0483 96.1451 54.8551 96.5306C54.2754 97.6871 48.5749 99.4218 46.8357 100C46.7391 100 46.7391 100 46.6425 100Z" fill="#26192A"/>
<path d="M23.9697 199.973C23.8735 199.973 23.8735 199.973 23.7773 199.973C22.7192 199.589 20.7952 192.579 20.0256 189.506C19.9294 189.314 20.1218 189.122 20.3142 189.026C20.5066 188.93 20.699 189.122 20.7952 189.314C21.9496 193.635 23.3925 198.34 24.0659 199.204C24.8355 198.532 27.2405 194.883 28.7797 192.675C28.8759 192.579 28.9721 192.483 29.1645 192.483C29.2607 192.483 29.4531 192.579 29.4531 192.771C30.3189 195.555 31.5694 198.724 32.1466 199.204C32.5314 198.724 33.0124 195.747 33.301 193.251C33.301 193.059 33.4934 192.867 33.6858 192.963C33.8782 192.963 34.0706 193.155 33.9744 193.347C33.6858 196.228 33.1086 199.781 32.2428 199.973C31.9542 200.069 31.0884 200.261 28.9721 193.731C27.8177 195.459 25.1241 199.492 24.3545 199.973C24.1621 199.973 24.0659 199.973 23.9697 199.973Z" fill="#26192A"/>
<path d="M108.914 198.801C107.341 198.801 103.015 195.223 101.147 193.632C100.951 193.533 100.951 193.234 101.147 193.135C101.246 192.936 101.541 192.936 101.639 193.135C104.589 195.72 108.226 198.404 108.914 198.205C109.406 198.006 109.308 194.726 108.718 191.246C108.718 191.047 108.718 190.948 108.914 190.849C109.013 190.749 109.209 190.749 109.308 190.849C111.569 192.638 115.207 195.024 116.091 194.825C116.19 194.825 116.19 194.825 116.19 194.726C116.583 193.831 114.617 190.55 113.142 188.562C113.044 188.364 113.044 188.165 113.24 188.065C113.437 187.966 113.634 187.966 113.732 188.165C114.42 189.059 117.664 193.433 116.878 195.123C116.78 195.322 116.583 195.521 116.288 195.62C114.912 196.018 111.274 193.433 109.603 192.141C109.996 194.527 110.389 198.503 109.209 199C109.111 198.801 109.013 198.801 108.914 198.801Z" fill="#26192A"/>
<path d="M45.3175 38H45.2239C45.0367 37.9109 44.9431 37.7326 45.0367 37.5543C45.3175 36.663 47.2833 35.2368 47.4705 35.0586C47.6577 34.9694 47.8449 34.9694 47.9385 35.1477C48.0321 35.3259 48.0321 35.5042 47.8449 35.5933C47.0961 36.1282 45.7856 37.1978 45.5984 37.7326C45.5984 37.9109 45.4111 38 45.3175 38Z" fill="#26192A"/>
<path d="M46.4034 42C46.4034 42 46.3025 42 46.4034 42C46.1008 41.9137 46 41.741 46 41.5683C46.2017 40.705 48.2185 39.2374 48.4202 39.0647C48.6218 38.9784 48.8235 38.9784 48.9244 39.0647C49.0252 39.2374 49.0252 39.4101 48.9244 39.4964C48.1176 40.1007 46.8067 41.223 46.7059 41.741C46.7059 41.9137 46.605 42 46.4034 42Z" fill="#26192A"/>
<path d="M40.3175 44H40.2239C40.0367 43.9109 39.9431 43.7326 40.0367 43.5543C40.3175 42.663 42.2833 41.2368 42.4705 41.0586C42.6577 40.9694 42.8449 40.9694 42.9385 41.1477C43.0321 41.3259 43.0321 41.5042 42.8449 41.5933C42.0961 42.1282 40.7856 43.2869 40.5984 43.7326C40.5984 43.9109 40.5048 44 40.3175 44Z" fill="#26192A"/>
<path d="M42.4677 49C42.2339 49 42 48.7931 42 48.5861C42.1169 47.5514 43.9878 45.3784 44.2216 45.1714C44.3386 44.9645 44.6893 44.9645 44.8063 45.068C45.0401 45.1714 45.0401 45.4819 44.9232 45.5853C44.2216 46.4131 42.9354 47.9653 42.9354 48.5861C42.8185 48.8965 42.7016 49 42.4677 49Z" fill="#26192A"/>
<path d="M20.6191 135C20.5069 135 20.2823 134.907 20.2823 134.814C19.721 133.977 20.1701 131.558 20.1701 131.279C20.1701 131.093 20.3946 131 20.6191 131C20.8437 131 20.956 131.186 20.956 131.372C20.8437 132.302 20.6191 133.977 20.956 134.535C21.0682 134.721 20.956 134.907 20.7314 135H20.6191Z" fill="#26192A"/>
<path d="M23.6191 136C23.5069 136 23.2823 135.907 23.2823 135.814C22.721 134.977 23.1701 132.558 23.1701 132.279C23.1701 132.093 23.3946 132 23.6191 132C23.8437 132 23.956 132.186 23.956 132.372C23.8437 133.302 23.6191 134.977 23.956 135.535C24.0682 135.721 23.956 135.907 23.7314 136C23.7314 136 23.7314 136 23.6191 136Z" fill="#26192A"/>
<path d="M20.6191 144C20.5069 144 20.2823 143.907 20.2823 143.814C19.721 142.977 20.1701 140.558 20.1701 140.279C20.1701 140.093 20.3946 140 20.6191 140C20.8437 140 20.956 140.186 20.956 140.372C20.8437 141.302 20.6191 142.977 20.956 143.535C21.0682 143.721 20.956 143.907 20.7314 144H20.6191Z" fill="#26192A"/>
<path d="M26.6191 142C26.5069 142 26.2823 141.907 26.2823 141.814C25.721 140.977 26.1701 138.558 26.1701 138.279C26.1701 138.093 26.3946 138 26.6191 138C26.8437 138 26.956 138.186 26.956 138.372C26.8437 139.302 26.6191 140.977 26.956 141.535C27.0682 141.721 26.956 141.907 26.7314 142C26.8437 142 26.7314 142 26.6191 142Z" fill="#26192A"/>
<path d="M24.5522 146C24.4328 146 24.3134 146 24.194 145.905C23.3582 145.143 23 142.667 23 142.381C23 142.19 23.1194 142 23.3582 142C23.597 142 23.8358 142.095 23.8358 142.286C23.9552 143.238 24.4328 144.952 24.9104 145.429C25.0299 145.619 25.0299 145.81 24.9104 145.905C24.791 146 24.6716 146 24.5522 146Z" fill="#26192A"/>
<path d="M22.5522 152C22.4328 152 22.3134 152 22.194 151.905C21.3582 151.143 21 148.667 21 148.381C21 148.19 21.1194 148 21.3582 148C21.597 148 21.8358 148.095 21.8358 148.286C21.9552 149.238 22.4328 150.952 22.9104 151.429C23.0299 151.619 23.0299 151.81 22.9104 151.905C22.791 152 22.6716 152 22.5522 152Z" fill="#26192A"/>
<path d="M27.5522 153C27.4328 153 27.3134 153 27.194 152.905C26.3582 152.143 26 149.667 26 149.381C26 149.19 26.1194 149 26.3582 149C26.597 149 26.8358 149.095 26.8358 149.286C26.9552 150.238 27.4328 151.952 27.9104 152.429C28.0299 152.619 28.0299 152.81 27.9104 152.905C27.791 152.905 27.6716 153 27.5522 153Z" fill="#26192A"/>
<path d="M24.5522 158C24.4328 158 24.3134 158 24.194 157.905C23.3582 157.143 23 154.667 23 154.381C23 154.19 23.1194 154 23.3582 154C23.597 154 23.8358 154.095 23.8358 154.286C23.9552 155.238 24.4328 156.952 24.9104 157.429C25.0299 157.619 25.0299 157.81 24.9104 157.905C24.791 158 24.6716 158 24.5522 158Z" fill="#26192A"/>
<path d="M28.6959 161C28.6127 161 28.5296 161 28.5296 160.901C27.8643 160.307 27.1158 157.831 27.0326 157.534C26.9495 157.336 27.0326 157.138 27.199 157.039C27.3653 156.94 27.5316 157.039 27.6148 157.237C27.8643 158.227 28.4464 159.911 28.8622 160.208C29.0285 160.307 29.0285 160.604 28.9454 160.703C28.8622 160.901 28.779 161 28.6959 161Z" fill="#26192A"/>
<path d="M37.4677 52C37.2339 52 37 51.7931 37 51.5861C37.1169 50.5514 38.9878 48.3784 39.2216 48.1714C39.3386 47.9645 39.6893 47.9645 39.8063 48.068C40.0401 48.1715 40.0401 48.4819 39.9232 48.5854C39.2216 49.4131 37.9354 50.9653 37.9354 51.5861C37.8185 51.7931 37.7016 52 37.4677 52Z" fill="#26192A"/>
<path d="M39.4677 55C39.2339 55 39 54.7931 39 54.5861C39.1169 53.5514 40.9878 51.3784 41.2216 51.1714C41.3386 50.9645 41.6893 50.9645 41.8063 51.068C42.0401 51.1714 42.0401 51.4819 41.9232 51.5853C41.2216 52.4131 39.9354 53.9653 39.9354 54.5861C39.9354 54.8965 39.7016 55 39.4677 55Z" fill="#26192A"/>
<path d="M78.5 84C77.1538 84 76 82.8462 76 81.5C76 80.1538 77.1538 79 78.5 79C79.8462 79 81 80.1538 81 81.5C81 82.8462 79.9423 84 78.5 84ZM78.5 79.7692C77.5385 79.7692 76.7692 80.5385 76.7692 81.5C76.7692 82.4615 77.5385 83.2308 78.5 83.2308C79.4615 83.2308 80.2308 82.4615 80.2308 81.5C80.2308 80.5385 79.4615 79.7692 78.5 79.7692Z" fill="#26192A"/>
<path d="M80.5 100C79.1539 100 78 98.8462 78 97.5C78 96.1538 79.1539 95 80.5 95C81.8462 95 83 96.1538 83 97.5C83 98.8462 81.9423 100 80.5 100ZM80.5 95.6731C79.5385 95.6731 78.7692 96.4423 78.7692 97.4038C78.7692 98.3654 79.5385 99.1346 80.5 99.1346C81.4615 99.1346 82.2308 98.3654 82.2308 97.4038C82.2308 96.4423 81.5577 95.6731 80.5 95.6731Z" fill="#26192A"/>
<path d="M83.5 113C82.1538 113 81 111.846 81 110.5C81 109.154 82.1538 108 83.5 108C84.8462 108 86 109.154 86 110.5C86 111.942 84.8462 113 83.5 113ZM83.5 108.769C82.5385 108.769 81.7692 109.538 81.7692 110.5C81.7692 111.462 82.5385 112.231 83.5 112.231C84.4615 112.231 85.2308 111.462 85.2308 110.5C85.2308 109.538 84.4615 108.769 83.5 108.769Z" fill="#26192A"/>
<path d="M72.5138 12C72.4094 12 72.305 12 72.305 11.9004C69.4859 9.70998 72.0962 3.53689 72.2006 3.23819C72.305 3.03906 72.5138 2.93949 72.7226 3.03906C72.9314 3.13863 73.0358 3.33776 72.9314 3.53689C72.9314 3.63646 70.4256 9.51085 72.827 11.303C73.0358 11.4026 73.0358 11.7013 72.9314 11.8009C72.7226 12 72.6182 12 72.5138 12Z" fill="#26192A"/>
</svg>
