<svg width="38" height="38" viewBox="0 0 38 38" fill="none" xmlns="http://www.w3.org/2000/svg">
<path fill-rule="evenodd" clip-rule="evenodd" d="M19 38C24.0391 38 28.8718 35.9982 32.435 32.435C35.9982 28.8718 38 24.0391 38 19C38 13.9609 35.9982 9.12816 32.435 5.56497C28.8718 2.00178 24.0391 0 19 0C13.9609 0 9.12816 2.00178 5.56497 5.56497C2.00178 9.12816 0 13.9609 0 19C0 24.0391 2.00178 28.8718 5.56497 32.435C9.12816 35.9982 13.9609 38 19 38ZM17.9431 12.274C17.5854 12.0354 17.1697 11.8983 16.7402 11.8774C16.3108 11.8566 15.8837 11.9527 15.5046 12.1555C15.1254 12.3584 14.8085 12.6604 14.5875 13.0292C14.3666 13.3981 14.2499 13.82 14.25 14.25V23.75C14.2499 24.18 14.3666 24.6019 14.5875 24.9708C14.8085 25.3396 15.1254 25.6416 15.5046 25.8445C15.8837 26.0473 16.3108 26.1434 16.7402 26.1226C17.1697 26.1017 17.5854 25.9646 17.9431 25.726L25.0681 20.976C25.3934 20.7591 25.6601 20.4653 25.8446 20.1206C26.029 19.7759 26.1255 19.391 26.1255 19C26.1255 18.609 26.029 18.2241 25.8446 17.8794C25.6601 17.5347 25.3934 17.2409 25.0681 17.024L17.9431 12.274Z" fill="#161616"/>
</svg>
