<svg width="72" height="72" viewBox="0 0 72 72" fill="none" xmlns="http://www.w3.org/2000/svg">
<path d="M70.6218 35.1086L44.4163 10L38.8519 13.3552C38.4731 13.5741 38.2418 13.9814 38.2474 14.42V25.3029L6.16901 22.3809L0.604651 25.7362C0.225822 25.955 -0.00544699 26.3623 9.75034e-05 26.8009V45.199C-0.00544699 45.6376 0.225822 46.045 0.604651 46.2638L6.16901 49.619L38.2474 46.6971V57.58C38.2418 58.0186 38.4731 58.4259 38.8519 58.6448L44.4163 62L70.6218 36.8914C70.8631 36.6581 70.9994 36.3363 70.9994 36C70.9994 35.6637 70.8631 35.3419 70.6218 35.1086Z" fill="#FFD53F"/>
<path d="M44 10L44 24.7476C44.0025 25.1013 43.8612 25.4393 43.6115 25.6771C43.3619 25.9148 43.0275 26.0299 42.692 25.9933L38.0001 25.5529V14.4922C37.9947 14.0465 38.2196 13.6325 38.5881 13.4101L44 10Z" fill="#806A1F"/>
<path d="M44 47.2524L44 62L38.5881 58.5899C38.2196 58.3675 37.9947 57.9535 38.0001 57.5078V46.4471L42.692 46.0067C43.0275 45.9701 43.3619 46.0852 43.6115 46.3229C43.8612 46.5607 44.0025 46.8987 44 47.2524Z" fill="#806A1F"/>
<path d="M6 22V49L0.588086 45.6741C0.219635 45.4572 -0.00529776 45.0534 9.48321e-05 44.6186V26.3814C-0.00529776 25.9466 0.219635 25.5428 0.588086 25.3259L6 22Z" fill="#806A1F"/>
<path d="M41.7563 31.9807C40.1154 31.9807 47.4519 32.1799 22.1764 31.298C21.5039 31.2749 20.9781 30.743 21.0007 30.1088C21.0095 29.8025 21.1487 29.5125 21.3869 29.3042C21.6251 29.0958 21.9423 28.9866 22.2668 29.0013L41.8015 29.6828C42.4757 29.6946 43.0123 30.2196 42.9998 30.8554C42.9873 31.4912 42.4306 31.9971 41.7563 31.9853V31.9807Z" fill="#FFEA9F"/>
<path d="M17.6939 31.9931C17.181 31.9931 19.5069 32.0657 11.2356 31.7399C10.8955 31.7267 10.5742 31.5697 10.3426 31.3034C10.111 31.0371 9.98809 30.6835 10.0009 30.3203C10.007 29.9549 10.1522 29.6079 10.403 29.3592C10.6539 29.1105 10.9887 28.9816 11.3305 29.0021L17.7413 29.2567C18.1994 29.2658 18.6182 29.535 18.8399 29.9631C19.0616 30.3912 19.0525 30.913 18.8161 31.332C18.5798 31.751 18.152 32.0035 17.6939 31.9945V31.9931Z" fill="#FFEA9F"/>
</svg>
