<svg width="94" height="96" viewBox="0 0 94 96" fill="none" xmlns="http://www.w3.org/2000/svg">
<path d="M37.0612 73.3057C37.0612 73.3057 34.5585 85.4675 37.24 96H43.318C43.318 96 43.4968 79.7066 45.9995 75.1096C46.0591 75.1678 40.279 69.5233 37.0612 73.3057Z" fill="#819A8C"/>
<path d="M60.5693 76.2078C60.5693 76.2078 62.0681 85.2743 59.474 96H53.5941C53.5941 96 53.4211 79.4077 51 74.7263C51 74.7856 57.4564 72.2967 60.5693 76.2078Z" fill="#819A8C"/>
<path d="M61.5907 3.64552C66.8029 5.71464 68.6982 17.1835 63.723 14.2276C60.88 12.5723 67.2175 4.94611 73.4958 7.2517C82.7948 10.6805 77.5826 20.6123 74.7988 19.3117C72.0151 17.952 74.8581 10.8579 80.9587 14.1685C87.0593 17.479 89.843 27.3517 82.9725 28.1794C76.1019 29.007 85.9339 16.5332 89.843 23.6864C93.7522 30.8396 88.7177 41.1852 84.0978 38.1702C79.4779 35.1552 92.153 28.5932 92.923 39.2935C93.6929 50.0529 88.4808 49.8164 86.7039 48.3385C82.6171 44.8505 91.9753 43.3726 91.2645 51.7673C90.5538 60.162 85.5193 66.192 83.3871 60.162C82.4986 57.5017 89.2507 54.9597 89.0731 62.5267C88.8954 70.0938 80.6625 77.7791 78.1156 72.3994C75.5096 67.0788 85.4601 69.1479 82.4986 76.6559C79.5372 84.1638 64.3745 87.0606 66.0921 80.7941C67.7505 74.705 76.8718 85.5235 58.6885 88.5385C44.2366 90.9623 44.4142 83.0406 49.2118 83.2179C54.0686 83.3953 51.4625 90.5485 39.7944 88.5385C28.1262 86.5285 30.0215 80.0256 33.2199 79.6709C39.5574 79.0206 31.9169 87.77 24.1579 84.4003C16.3988 81.0897 19.7157 70.685 22.381 73.4044C25.0463 76.1829 16.3988 81.0306 10.6536 74.6459C3.24995 66.3694 14.3258 58.0338 15.0958 61.5217C15.8658 65.0097 -0.244566 65.3644 2.53921 53.9547C5.32298 42.545 13.0228 48.4567 8.58057 50.8214C4.13838 53.1861 -5.93058 39.5299 4.73068 34.6232C14.1481 30.3076 15.8065 38.9388 9.52824 37.6382C5.85603 36.8697 0.643864 23.3317 9.52824 22.0311C18.4126 20.7305 23.4471 26.2876 17.8796 26.4649C12.312 26.5832 8.58058 11.0944 18.8272 10.2667C29.0147 9.43906 28.3631 15.7646 25.8163 16.0011C19.8341 16.4149 24.7502 2.99523 31.5023 3.46817C38.2544 3.94111 43.8812 11.9811 39.7944 11.9811C32.7461 11.9811 40.742 -2.73919 48.9157 0.453168C57.0893 3.64552 54.5424 10.7396 51.4033 10.7396C48.1457 10.8579 50.5148 -0.788307 61.5907 3.64552Z" fill="#FFFAF0"/>
<path d="M54.1646 90C52.0245 90 50.3005 89.7028 48.9332 89.1083C46.6742 90 43.6423 90.1189 40.1943 89.5244C34.9034 88.6328 32.7038 86.8494 31.6932 85.5416C30.5637 85.9577 29.3747 86.1955 28.1858 86.1955C26.8779 86.1955 25.6295 85.9577 24.3811 85.4227C20.3386 83.6988 19.5658 80.251 19.4469 78.646C18.8524 78.7649 18.2579 78.8243 17.6634 78.8243C15.1071 78.8243 12.6697 77.6949 10.7674 75.5548C6.42768 70.6803 8.62727 66.2219 9.69734 64.498C6.96272 64.2008 4.70368 63.0119 3.45527 61.2285C2.20685 59.5046 1.90961 57.2457 2.56354 54.5707C2.97968 52.9062 3.51471 51.4795 4.16864 50.3501C1.73126 48.3289 -0.408877 44.465 0.0667093 40.8983C0.423399 38.2827 2.08796 36.2616 4.94148 34.9538C5.35761 34.7754 5.77376 34.5971 6.18989 34.4188C4.94148 31.8032 3.9903 27.8798 5.47651 25.0859C6.30878 23.4808 7.79499 22.5297 9.87568 22.2325C11.0052 22.0542 12.1347 21.9947 13.2048 22.0542C12.1942 18.963 12.3725 15.5746 13.7993 13.3752C14.9288 11.5918 16.8311 10.5812 19.2091 10.3435C20.9925 10.2246 22.5382 10.284 23.846 10.5218C25.0944 6.83618 28.3047 3.21004 31.9904 3.50726C34.1306 3.6856 36.3896 4.57727 38.3514 6.12285C39.9565 3.15059 43.2856 0 47.0309 0C47.8631 0 48.6954 0.178328 49.4682 0.475554C51.3706 1.24834 52.8568 2.19946 53.808 3.44781C56.0075 2.19946 58.98 2.25892 62.3091 3.56671C64.0925 4.28005 65.6382 6.0634 66.6488 8.50065C69.0267 6.83619 71.8208 6.36062 74.2582 7.2523C78.5979 8.85732 79.5491 11.7701 79.668 13.4346C80.3219 13.5535 81.0353 13.8507 81.8081 14.2074C84.4833 15.6935 86.7423 18.5469 87.634 21.5191C88.9419 21.638 90.0714 22.4108 90.8442 23.8375C92.806 27.4042 92.4494 31.5654 91.4982 34.3593C92.9249 35.3699 93.7572 37.2127 93.9355 39.6499C94.2922 45.2378 93.1033 47.675 91.9738 48.745C92.3305 49.6962 92.4493 50.8851 92.3304 52.1334C92.0332 55.284 91.1415 58.3157 89.8931 60.4557C90.0714 61.1691 90.1309 62.0013 90.1309 62.9524C90.012 67.6486 86.9801 72.2259 84.0077 74.0687C84.0671 75.0793 83.8888 76.1493 83.4727 77.2787C81.5109 82.2721 74.5554 85.0066 70.5129 85.0066C70.2157 85.0066 69.9184 85.0066 69.6212 84.9472C68.3728 86.3738 65.6382 88.3355 59.3961 89.3461C57.3749 89.8217 55.7103 90 54.1646 90ZM49.5277 88.8111C51.7273 89.6433 55.0564 89.7028 59.1583 89.0489C64.9248 88.0977 67.6594 86.3738 68.9078 85.0066C67.8378 84.8283 67.0649 84.3527 66.6488 83.7583C66.2327 83.1638 66.1732 82.3316 66.411 81.4399C66.8866 79.6565 67.9566 79.4188 68.3728 79.4188C69.1456 79.4188 69.9184 79.9538 70.3346 80.8454C70.8696 82.0343 70.6913 83.461 69.7996 84.7094C69.9779 84.7094 70.1562 84.7094 70.394 84.7094C74.3176 84.7094 81.0353 82.0343 82.9376 77.2193C83.3538 76.2087 83.5321 75.317 83.4727 74.4254C82.6998 74.8415 81.9865 75.0198 81.3325 75.0198C80.1436 75.0198 79.1924 74.3659 78.5384 73.1176C77.8845 71.7503 78.0629 70.9181 78.3007 70.502C78.5979 70.0264 79.1329 69.7886 79.7869 69.7886C81.2136 69.7886 83.4132 71.037 83.8293 73.6526C86.6234 71.8098 89.4175 67.4703 89.5364 63.0119C89.5364 62.2985 89.5364 61.6446 89.4175 61.1096C88.4663 62.5363 87.3962 63.3686 86.3856 63.3686C85.6128 63.3686 84.6022 62.893 83.8293 60.753C83.651 60.1585 83.7104 59.5641 84.1266 59.0291C84.6616 58.2563 85.6722 57.7807 86.6828 57.7807C87.3368 57.7807 88.823 58.0185 89.5958 60.0396C90.7253 57.959 91.4982 55.1651 91.7954 52.2523C91.9143 51.0634 91.7954 50.0528 91.5576 49.1612C90.9631 49.5773 90.3092 49.8151 89.5958 49.8151C88.7635 49.8151 87.9313 49.5178 87.3368 48.9828C86.0884 47.9128 86.1478 47.14 86.2667 46.7239C86.5045 46.1295 87.1585 45.7728 88.0502 45.7728C89.2392 45.7728 90.8442 46.4861 91.736 48.3884C92.7466 47.3184 93.8167 44.9406 93.46 39.7688C93.2816 37.4505 92.5683 35.786 91.3198 34.8349C90.2498 37.6288 88.4069 39.3527 86.564 39.3527C85.9695 39.3527 85.3155 39.1744 84.7211 38.7582C83.7699 38.1638 83.4132 37.3316 83.651 36.4399C84.1266 34.8943 86.3856 33.5271 88.6447 33.5271C89.5364 33.5271 90.3092 33.7054 91.0226 34.1215C91.9143 31.4465 92.2115 27.4637 90.3686 24.0753C89.7147 22.8269 88.7635 22.1136 87.6935 21.9947C88.1691 23.897 87.9313 25.6209 87.1585 26.8098C86.4451 27.8798 85.2561 28.5337 83.7104 28.712C83.4727 28.712 83.2349 28.7715 83.0565 28.7715C81.927 28.7715 81.4514 28.3554 81.2731 27.9987C80.9164 27.3448 81.0353 26.3937 81.6892 25.3237C82.6998 23.5403 84.9589 21.638 87.1585 21.5191C86.2667 18.6658 84.1266 15.9908 81.6298 14.5641C80.9758 14.2074 80.3813 13.9696 79.7869 13.8507C79.8463 15.6935 79.1329 17.6552 78.0034 18.8441C77.4089 19.498 76.755 19.8547 76.1011 19.8547C75.8633 19.8547 75.6849 19.7952 75.4471 19.7358C74.4365 19.2602 74.0204 18.0713 74.3176 16.7041C74.6743 15.0396 76.22 13.2563 78.6573 13.2563C78.8357 13.2563 79.0735 13.2563 79.2518 13.3157C79.014 11.4729 77.944 9.03566 74.1393 7.60898C73.3664 7.31175 72.5936 7.19287 71.7613 7.19287C70.0968 7.19287 68.3728 7.78732 66.8866 8.91678C67.7188 11.2351 67.8378 13.4346 67.1244 14.4452C66.8271 14.8613 66.411 15.0991 65.876 15.0991C65.4004 15.0991 64.9248 14.9207 64.3303 14.5641C63.8547 14.2668 63.5575 13.7913 63.498 13.1968C63.4386 11.889 64.5681 10.1057 66.2921 8.679C65.3409 6.36064 63.7953 4.57728 62.1902 3.92339C59.0394 2.67504 56.2453 2.61558 54.1646 3.74504C55.532 5.76618 55.3536 7.84676 54.6997 9.214C54.1052 10.4029 53.0351 11.1757 51.9651 11.1757C51.3111 11.1757 50.7761 10.7001 50.5383 9.92733C50.1222 8.32231 50.895 5.29062 53.5107 3.62616C52.5595 2.4967 51.1922 1.54557 49.4088 0.832229C48.6954 0.535003 47.9226 0.416105 47.0903 0.416105C43.464 0.416105 40.2538 3.44781 38.7675 6.36062C40.9671 8.20342 42.275 10.4029 41.8589 11.5918C41.74 12.0079 41.3238 12.424 40.3132 12.424C39.1242 12.424 38.2325 12.0079 37.7569 11.2351C37.103 10.1057 37.2219 8.38176 38.1731 6.42007C36.2707 4.93394 34.0711 3.98283 31.9904 3.86394C28.5424 3.62616 25.57 7.07397 24.3216 10.5812C27.2346 11.354 28.1858 13.0779 28.0669 14.4452C28.0074 15.5746 27.2346 16.4069 26.224 16.4663C25.1539 16.5257 24.3811 16.2285 23.846 15.5152C23.1326 14.5046 23.0732 12.8402 23.6677 10.8785C22.4193 10.6407 20.8736 10.5812 19.2091 10.7001C16.8906 10.8785 15.226 11.8296 14.156 13.494C12.7886 15.6341 12.6103 18.9036 13.6804 21.9353C17.9606 22.2325 20.8736 24.0753 20.8736 25.5614C20.8736 25.9775 20.5764 26.9287 18.3173 26.9881H18.2579C16.3555 26.9881 14.4532 25.2048 13.3831 22.3514C12.3131 22.2919 11.1241 22.3514 9.93513 22.5297C8.03278 22.8269 6.66548 23.7186 5.89265 25.1453C4.52534 27.8203 5.41706 31.5654 6.66547 34.1215C7.79499 33.7649 8.9245 33.5271 9.87568 33.5271C12.4914 33.5271 13.8587 34.9538 13.8587 36.2616C13.8587 37.2721 13.0264 38.3421 11.1241 38.3421C10.708 38.3421 10.2918 38.2827 9.81622 38.2232C8.68671 37.9855 7.4383 36.6777 6.36823 34.6565C5.95209 34.8349 5.53595 34.9538 5.11981 35.1915C2.44464 36.4399 0.839548 38.3421 0.542306 40.7794C0.126168 44.1083 2.1474 47.7939 4.46588 49.7556C5.83319 47.675 7.3194 47.3778 8.09223 47.3778C9.22175 47.3778 10.2324 48.0911 10.4702 49.0423C10.708 49.9934 10.1729 50.8851 9.0434 51.4795C7.85444 52.074 6.24934 51.7173 4.64423 50.469C3.9903 51.539 3.51471 52.9062 3.09858 54.5112C2.50409 57.0674 2.74188 59.1479 3.93085 60.8124C5.17926 62.5363 7.43829 63.6658 10.1135 63.963C11.4213 62.2391 13.2048 61.0502 14.4532 61.0502C15.1071 61.0502 15.5827 61.4069 15.7016 62.0608C15.7611 62.4769 15.7016 62.8335 15.4044 63.1902C14.7504 63.963 13.1453 64.498 11.1835 64.498C10.8863 64.498 10.5891 64.498 10.2918 64.4386C9.10285 66.1625 6.96272 70.3831 11.1835 75.1387C13.4426 77.6948 15.9989 78.2299 17.7229 78.2299C18.3173 78.2299 18.9118 78.1704 19.5063 78.0515C19.4469 76.3276 19.9224 74.7226 20.7547 73.8904C21.4087 73.177 22.3004 73.177 22.9543 73.8904C23.4893 74.4254 23.6082 75.0198 23.4299 75.6737C23.1327 76.8032 21.7653 77.8732 19.9819 78.3487C20.1008 79.8943 20.7547 83.1638 24.6783 84.8283C25.8078 85.3038 27.0562 85.6011 28.3046 85.6011C29.4342 85.6011 30.5042 85.4227 31.5743 85.0066C30.9798 83.9366 30.8609 82.7477 31.3365 81.7371C31.8121 80.786 32.7038 80.1321 33.655 80.0132C33.8928 80.0132 34.1306 79.9538 34.3089 79.9538C35.7951 79.9538 36.1518 80.6077 36.2113 81.0238C36.4491 82.2721 34.6062 84.1744 32.1688 85.1849C33.12 86.4333 35.3195 88.0978 40.3132 88.93C43.5234 89.465 46.3175 89.4056 48.4576 88.6328C46.7931 87.6816 46.4364 86.4333 46.6147 85.5416C46.8525 84.3527 48.1009 83.5205 49.5871 83.5205H49.7655C51.1328 83.5799 52.084 84.1744 52.2623 85.1849C52.3812 86.4333 51.6084 87.86 49.5277 88.8111ZM49.5871 84.1149C48.2793 84.1149 47.2686 84.7688 47.0309 85.7794C46.8525 86.6116 47.2687 87.7411 48.9927 88.5733C51.1328 87.6816 51.9651 86.3144 51.7867 85.4227C51.6678 84.6499 50.895 84.1744 49.706 84.1149H49.5871ZM34.3089 80.5482C34.1306 80.5482 33.8928 80.5482 33.655 80.6077C32.8227 80.6671 32.0499 81.2616 31.6932 82.0938C31.2771 82.9855 31.3365 84.0555 31.931 85.0066C34.3684 83.996 35.9735 82.2721 35.7951 81.321C35.6168 80.6671 34.7845 80.5482 34.3089 80.5482ZM68.3728 79.8943C67.6594 79.8943 67.1244 80.4888 66.8271 81.5588C66.5893 82.3316 66.6488 83.0449 67.0055 83.5205C67.4216 84.1149 68.1944 84.4716 69.2645 84.6499C70.1562 83.461 70.394 82.1532 69.9184 81.0238C69.5618 80.3104 68.9673 79.8943 68.3728 79.8943ZM21.7653 73.8904C21.4086 73.8904 21.1709 74.1281 20.9925 74.3065C20.2791 75.0198 19.863 76.5059 19.863 77.9921C21.4087 77.5165 22.6571 76.6248 22.8948 75.6737C23.0137 75.1981 22.8949 74.7226 22.5382 74.3065C22.3004 74.0092 22.0626 73.8904 21.7653 73.8904ZM79.7869 70.2642C79.2518 70.2642 78.8951 70.4425 78.6573 70.7398C78.3601 71.2153 78.479 71.9881 78.8951 72.8798C79.4302 74.0093 80.203 74.5443 81.2731 74.5443C81.927 74.5443 82.6404 74.3065 83.3538 73.8904C83.116 71.572 81.1542 70.2642 79.7869 70.2642ZM10.5891 64.0819C10.7674 64.0819 10.9458 64.0819 11.1835 64.0819C12.967 64.0819 14.5126 63.6658 15.0477 62.9524C15.226 62.7147 15.2855 62.4769 15.226 62.1797C15.1071 61.7635 14.8693 61.5258 14.3937 61.5258C13.502 61.5852 11.8969 62.4769 10.5891 64.0819ZM86.6828 58.2563C85.8506 58.2563 84.9589 58.6724 84.4833 59.3263C84.2455 59.6235 84.0671 60.0991 84.2455 60.6341C84.7805 62.1797 85.4939 62.9524 86.3856 62.9524C87.2774 62.9524 88.3474 62.0608 89.2392 60.5746C88.823 59.0885 87.9313 58.2563 86.6828 58.2563ZM4.76312 50.2312C6.24933 51.3606 7.73554 51.7767 8.74616 51.2417C9.69734 50.7662 10.1135 50.0528 9.93513 49.3395C9.75678 48.5667 8.9245 48.0317 8.03278 48.0317C7.37884 47.9723 6.07098 48.2695 4.76312 50.2312ZM87.9907 46.2483C87.3368 46.2483 86.8018 46.4861 86.6234 46.9022C86.4451 47.3778 86.8018 47.9723 87.5151 48.6261C88.0502 49.0423 88.7635 49.3395 89.4769 49.3395C90.1309 49.3395 90.7848 49.1017 91.2604 48.6856C90.547 46.9022 89.0608 46.2483 87.9907 46.2483ZM88.6447 34.0621C86.6234 34.0621 84.4833 35.251 84.0671 36.6182C83.8888 37.2721 84.186 37.926 84.8994 38.4016C85.4344 38.7583 85.9695 38.8771 86.5045 38.8771C88.1691 38.8771 89.8931 37.2127 90.9037 34.5971C90.1903 34.2404 89.4769 34.0621 88.6447 34.0621ZM6.78438 34.6565C7.73555 36.4399 8.9245 37.6882 9.87568 37.926C10.2918 37.9855 10.708 38.0449 11.0646 38.0449C12.6103 38.0449 13.3237 37.2127 13.3237 36.4399C13.3237 35.3104 12.0753 34.1215 9.75679 34.1215C8.92451 34.1215 7.91389 34.2999 6.78438 34.6565ZM87.2179 21.9947C85.1967 22.0542 83.0565 23.8375 82.0459 25.5614C81.5109 26.5126 81.3325 27.2853 81.6298 27.8203C81.927 28.2959 82.5809 28.4742 83.651 28.3553C85.0778 28.177 86.1478 27.5826 86.8018 26.6314C87.5151 25.502 87.6935 23.8375 87.2179 21.9947ZM13.7993 22.5297C14.8099 25.0859 16.4744 26.6909 18.139 26.6909H18.1984C19.5063 26.6314 20.3386 26.2748 20.3386 25.7398C20.398 24.6103 17.8417 22.8864 13.7993 22.5297ZM78.5979 13.7913C76.3983 13.7913 75.0904 15.3963 74.7338 16.8824C74.496 18.0119 74.7932 19.0225 75.6255 19.3791C76.22 19.6764 76.9333 19.3791 77.6467 18.6063C78.479 17.7147 79.4302 15.9313 79.3113 13.7913C79.014 13.7913 78.7762 13.7913 78.5979 13.7913ZM24.1433 11.1162C23.6082 12.959 23.6082 14.5046 24.2622 15.3963C24.6783 15.9907 25.3322 16.2285 26.224 16.1691C26.9968 16.1096 27.5318 15.4557 27.6507 14.5641C27.7102 13.3157 26.8184 11.7701 24.1433 11.1162ZM66.411 9.214C64.8653 10.4624 63.7953 12.1268 63.8547 13.2563C63.8547 13.7318 64.0925 14.0291 64.4492 14.2668C65.4598 14.8613 66.2327 14.8613 66.6488 14.2668C67.3027 13.3157 67.1838 11.2946 66.411 9.214ZM38.4703 6.8362C37.638 8.61955 37.4597 10.1651 38.0542 11.1162C38.4703 11.7701 39.1837 12.0674 40.1943 12.0674C40.7888 12.0674 41.2049 11.889 41.3238 11.5324C41.6805 10.6407 40.6699 8.679 38.4703 6.8362ZM53.6891 4.10171C51.2517 5.64729 50.4789 8.50065 50.895 9.92733C51.0139 10.3435 51.2517 10.819 51.8462 10.819C52.7379 10.819 53.6296 10.1651 54.1646 9.09511C54.8186 7.9062 54.9969 5.94451 53.6891 4.10171Z" fill="#26192A"/>
<path d="M27 51.8503C27 51.8503 41.7745 40.5303 48.6255 56.7101C48.6255 56.7101 58.6936 40.3525 69 52.9171L48.983 64L27 51.8503Z" fill="#F5EFDB"/>
<path d="M41.61 20.227C41.61 20.227 30.238 11.1392 30.0035 14.3677C29.769 17.5963 41.3755 22.9175 41.3755 22.9175C41.3755 22.9175 39.4411 42.7074 42.0789 45.5174C44.7168 48.3872 54.3888 46.3544 56.3232 45.5174C58.2576 44.6804 56.3232 21.7217 56.3232 21.7217C56.3232 21.7217 67.9297 14.3677 64.2953 11.0794C63.123 10.0032 53.9199 20.227 53.9199 20.227C53.9199 20.227 43.7789 19.091 41.61 20.227Z" fill="#819A8C"/>
<path d="M24 72.7278L25.7432 49L46 52.9053V79L24 72.7278Z" fill="#70CACD"/>
<path d="M73 72.7278L71.2616 49L51 52.9053V79L73 72.7278Z" fill="#70CACD"/>
<path d="M51 53H46V79H51V53Z" fill="#008EA7"/>
<path d="M48.79 45C48.6614 45 48.5328 44.8879 48.5328 44.7759C48.5971 42.5348 46.2181 41.4142 46.1538 41.4142C46.0252 41.3582 45.9609 41.2461 46.0252 41.134C46.0895 41.022 46.2181 40.966 46.3467 41.022C46.4753 41.078 49.0472 42.2546 48.9829 44.7759C49.0472 44.8879 48.9186 45 48.79 45Z" fill="#26192A"/>
<path d="M50.3916 45C50.2783 45 50.2217 44.9434 50.165 44.8303C49.372 41.0969 51.6945 40.0788 51.6945 40.0222C51.8078 39.9656 51.9211 40.0222 51.9778 40.1353C52.0344 40.2484 51.9778 40.3616 51.8645 40.4181C51.8078 40.4747 49.8252 41.3798 50.5616 44.7172C50.6182 44.8303 50.5616 44.9434 50.3916 45C50.4483 45 50.4483 45 50.3916 45Z" fill="#26192A"/>
<path d="M47.9082 27.914C47.9082 27.914 37.326 26.3966 36.4189 27.272C35.5119 28.1475 36.2375 36.6683 37.0841 36.8434C37.9307 37.0185 48.9966 37.1936 48.9966 36.4932C48.9966 35.7929 49.1176 28.0891 47.9082 27.914ZM47.0616 35.2093C47.0616 35.7345 38.6563 35.6178 38.0516 35.4427C37.3865 35.326 36.8422 29.2564 37.5679 28.6144C38.2935 27.9724 46.2755 29.0813 46.2755 29.0813C47.1221 29.198 47.0616 34.684 47.0616 35.2093Z" fill="#E09D9F"/>
<path d="M50.0339 36.4944C50.0339 37.1931 61.0739 37.0184 61.9185 36.8438C62.763 36.6691 63.487 28.2266 62.5821 27.2951C61.6771 26.3635 51.1198 27.9355 51.1198 27.9355C49.8529 28.1102 49.9736 35.7957 50.0339 36.4944ZM52.7487 29.1C52.7487 29.1 60.7119 27.9938 61.4358 28.6342C62.1598 29.2747 61.5565 35.2717 60.9532 35.4464C60.2896 35.5628 51.9644 35.6793 51.9644 35.2135C51.9041 34.6895 51.8438 29.2165 52.7487 29.1Z" fill="#E09D9F"/>
<path d="M45.4171 34C44.4727 34 43.3395 31.2233 43.0247 30.3782C42.9617 30.2575 43.0247 30.1368 43.1506 30.0764C43.2765 30.0161 43.4025 30.0764 43.4654 30.1972C44.032 31.7666 44.9764 33.5171 45.3542 33.5171C45.669 33.1549 45.4171 31.4648 45.1023 30.3179C45.1023 30.1971 45.1653 30.0764 45.2912 30.0161C45.4171 29.9557 45.543 30.0764 45.606 30.1972C45.7319 30.6801 46.2985 33.0946 45.7949 33.7586C45.7319 33.9396 45.606 34 45.4171 34Z" fill="#26192A"/>
<path d="M53.6092 34C53.5585 34 53.5585 34 53.5585 34C53.4569 33.9455 53.1015 33.8909 53 31.2182C53 31.1091 53.1015 31 53.2031 31C53.3046 31 53.4062 31.1091 53.4062 31.2182C53.4569 32.1455 53.5585 33.1818 53.66 33.5636C53.8631 33.2364 54.32 32.1454 54.6247 31.1636C54.6754 31.0545 54.777 31 54.8785 31.0545C54.9801 31.1091 55.0309 31.2182 54.9801 31.3273C54.1677 33.7273 53.8123 34 53.6092 34Z" fill="#26192A"/>
<path d="M39.7848 21C39.7259 21 39.667 20.9461 39.6082 20.8923C37.4891 17.93 33.2511 17.3914 33.1922 17.3914C33.0745 17.3914 32.9568 17.2836 33.0157 17.1759C33.0157 17.0682 33.1334 16.9605 33.2511 17.0143C33.4277 17.0143 37.7246 17.5529 39.9613 20.6768C40.0202 20.7846 40.0202 20.8923 39.9025 20.9461C39.8436 20.9461 39.8436 21 39.7848 21Z" fill="#26192A"/>
<path d="M56.2124 21H56.1498C56.0246 20.9453 55.9619 20.8359 56.0246 20.7265C57.4648 17.608 62.4745 16.1309 62.6623 16.0215C62.7876 15.9668 62.9128 16.0215 62.9754 16.1309C63.0381 16.2403 62.9754 16.3497 62.8502 16.4044C62.7876 16.4044 57.8406 17.9363 56.4629 20.8359C56.4003 20.9453 56.3377 21 56.2124 21Z" fill="#26192A"/>
<path d="M21.9194 47C21.9194 47 22.7985 61.1033 32 60.3739L29.3626 67C29.3626 67 28.1319 66.7568 22.7399 63.0486C17.348 59.3404 16 50.4043 16 50.4043L21.9194 47Z" fill="#819A8C"/>
<path d="M13 51.317C13 51.317 16.2836 53.276 18.6716 50.5586C21.0597 47.7781 18.7314 43.86 17.7761 45.3135C16.7612 46.767 19.6866 52.2017 25 45.3135" fill="white"/>
<path d="M15.6877 52C14.2476 52 13.0954 51.3488 13.0954 51.3488C12.9802 51.2896 12.9802 51.1712 13.0378 51.0528C13.0954 50.9345 13.2107 50.9345 13.3259 50.9936C13.4411 51.0528 16.379 52.7104 18.568 50.2833C19.0288 49.8097 19.2592 49.277 19.3744 48.8034C19.0288 48.685 18.7408 48.5074 18.5104 48.3298C17.5311 47.5602 17.1278 46.0803 17.6463 45.37C17.8191 45.074 18.1071 44.9556 18.3952 45.0148C18.9136 45.074 19.3744 45.666 19.6625 46.4355C19.8353 47.0275 19.9505 47.6786 19.8353 48.4482C20.8722 48.5666 22.4275 48.0338 24.6165 45.37C24.6741 45.2516 24.8469 45.2516 24.9046 45.3108C25.0198 45.37 25.0198 45.5476 24.9622 45.6068C22.6579 48.5074 20.9298 49.0402 19.7777 48.8626C19.6049 49.4546 19.3168 50.0465 18.856 50.5793C17.8767 51.6448 16.7246 52 15.6877 52ZM18.2799 45.37C18.1647 45.37 18.0495 45.4292 17.9919 45.5476C17.6463 46.0211 17.9343 47.2643 18.7408 47.9154C18.9136 48.0338 19.144 48.2114 19.432 48.2706C19.5473 47.4419 19.3744 46.7907 19.2592 46.4947C19.0288 45.8436 18.6256 45.4292 18.2799 45.37C18.3375 45.37 18.3375 45.37 18.2799 45.37Z" fill="#26192A"/>
<path d="M73.0438 47C73.0438 47 72.1095 57.0304 63 60.3739L65.6277 67C65.6277 67 66.854 66.7568 72.2263 63.0486C77.5985 59.3404 79 50.1003 79 50.1003L73.0438 47Z" fill="#819A8C"/>
<path d="M83 51.317C83 51.317 79.7164 53.276 77.3284 50.5586C74.9403 47.7781 77.2687 43.86 78.2239 45.3135C79.2388 46.767 76.3134 52.2017 71 45.3135" fill="white"/>
<path d="M80.3232 52C79.2851 52 78.1316 51.6448 77.1512 50.5793C76.6898 50.0465 76.4014 49.4546 76.2284 48.8626C75.075 49.0402 73.3448 48.5074 71.0379 45.6068C70.9802 45.4884 70.9802 45.37 71.0956 45.3108C71.2109 45.2516 71.3262 45.2516 71.3839 45.37C73.5178 48.093 75.1326 48.5666 76.1707 48.4482C76.0554 47.6786 76.1707 47.0275 76.3438 46.4355C76.6321 45.666 77.0935 45.074 77.6126 45.0148C77.9009 44.9556 78.1893 45.074 78.3623 45.37C78.8814 46.0803 78.4777 47.5602 77.4972 48.3298C77.3242 48.5074 77.0358 48.685 76.6321 48.8034C76.7475 49.277 77.0358 49.8097 77.4395 50.2833C79.5734 52.7104 82.5147 51.0528 82.6877 50.9936C82.8031 50.9345 82.9184 50.9937 82.9761 51.0528C83.0338 51.1712 82.9761 51.2896 82.9184 51.3488C82.9184 51.3488 81.765 52 80.3232 52ZM77.7279 45.37C77.4395 45.4292 77.0358 45.7844 76.7475 46.4947C76.6321 46.7907 76.4591 47.4419 76.5745 48.2706C76.8628 48.1522 77.0935 48.0338 77.2665 47.9154C78.0739 47.2643 78.42 46.0211 78.0163 45.5476C77.9586 45.4884 77.8432 45.37 77.7279 45.37Z" fill="#26192A"/>
<path d="M48.7185 53C48.6581 53 48.5976 53 48.5976 52.9415C43.3385 48.9022 38.6839 48.2583 35.6615 48.4339C32.3972 48.6681 30.342 49.8389 30.342 49.8389C30.2211 49.8974 30.1002 49.8974 30.0397 49.7803C29.9793 49.6632 29.9793 49.5462 30.1002 49.4876C30.1606 49.4291 38.6235 44.6289 48.8998 52.5902C49.0207 52.6488 49.0207 52.8244 48.9603 52.8829C48.8998 53 48.8394 53 48.7185 53Z" fill="#26192A"/>
<path d="M47.7358 54C47.6771 54 47.6184 54 47.6184 53.9341C43.5675 49.8498 33.3522 50.5744 33.2348 50.5744C33.1174 50.5744 33 50.5086 33 50.3109C33 50.1792 33.0587 50.0474 33.2348 50.0474C33.6458 50.0474 43.7436 49.3228 47.9119 53.5389C48.0294 53.6047 48.0294 53.8024 47.9119 53.8682C47.8532 54 47.7945 54 47.7358 54Z" fill="#26192A"/>
<path d="M50.2077 54C50.1484 54 50.089 54 50.089 53.9364C49.9703 53.8728 49.9703 53.6819 50.089 53.6182C58.1007 43.6922 68.783 49.9278 68.9017 49.9914C69.0204 50.0551 69.0204 50.1823 68.961 50.3096C68.9017 50.4368 68.783 50.4368 68.6643 50.3732C68.5456 50.3096 58.2194 44.2012 50.4451 53.8728C50.3264 54 50.2671 54 50.2077 54Z" fill="#26192A"/>
<path d="M50.2151 53C50.1562 53 50.0974 52.9405 50.0386 52.8811C49.9798 52.7621 49.9798 52.6431 50.0974 52.5837C54.3908 49.4313 58.4489 48.896 61.0954 49.015C63.9773 49.1339 65.8005 49.9666 65.8593 49.9666C65.9769 50.0261 66.0357 50.1451 65.9769 50.264C65.9181 50.383 65.8005 50.4424 65.6829 50.383C65.6241 50.3235 58.3901 47.1117 50.3327 52.9405C50.3327 53 50.2739 53 50.2151 53Z" fill="#26192A"/>
</svg>
