<svg width="96" height="96" viewBox="0 0 96 96" fill="none" xmlns="http://www.w3.org/2000/svg">
<path d="M43 60C41.2999 60 40 58.6228 40 56.8221V38.1779C40 36.377 41.3001 35 43 35C44.6999 35 46 36.3772 46 38.1779V56.8221C46.0002 58.623 44.7001 60 43 60Z" fill="#4655C2"/>
<path d="M33 70C31.2999 70 30 68.6137 30 66.801V28.199C30 26.3861 31.3001 25 33 25C34.6999 25 36 26.3863 36 28.199V66.801C36 68.6137 34.6999 70 33 70Z" fill="#4655C2"/>
<path d="M23 79C21.2999 79 20 77.6258 20 75.8289V19.1711C20 17.374 21.3001 16 23 16C24.6999 16 26 17.3742 26 19.1711V75.8289C26.0002 77.6258 24.7001 79 23 79Z" fill="#4655C2"/>
<path d="M13 70C11.2999 70 10 68.6137 10 66.801V28.199C10 26.3861 11.3001 25 13 25C14.6999 25 16 26.3863 16 28.199V66.801C16 68.6137 14.6999 70 13 70Z" fill="#4655C2"/>
<path d="M3 60C1.30007 60 0 58.637 0 56.8549V37.1451C0 35.3628 1.30007 34 3 34C4.69993 34 6 35.363 6 37.1451V56.8549C6.00019 58.637 4.70012 60 3 60Z" fill="#4655C2"/>
<path d="M73 79C71.2999 79 70 77.6258 70 75.8289V19.1711C70 17.374 71.3001 16 73 16C74.7001 16 76 17.3742 76 19.1711V75.8289C76 77.6258 74.6999 79 73 79Z" fill="#003399"/>
<path d="M63 70C61.2999 70 60 68.6137 60 66.801V28.199C60 26.3861 61.3001 25 63 25C64.6999 25 66 26.3863 66 28.199V66.801C66.0002 68.6137 64.7001 70 63 70Z" fill="#003399"/>
<path d="M53 65C51.2999 65 50 63.6128 50 61.7989V33.2011C50 31.387 51.3001 30 53 30C54.7001 30 56 31.3872 56 33.2011V61.7987C56 63.6128 54.6999 65 53 65Z" fill="#003399"/>
<path d="M83 70C81.2999 70 80 68.6137 80 66.801V28.199C80 26.3861 81.3001 25 83 25C84.7001 25 86 26.3863 86 28.199V66.801C86.0002 68.6137 84.7001 70 83 70Z" fill="#003399"/>
<path d="M93 60C91.2999 60 90 58.637 90 56.8549V37.1451C90 35.3628 91.3001 34 93 34C94.6999 34 96 35.363 96 37.1451V56.8549C96 58.637 94.6999 60 93 60Z" fill="#003399"/>
</svg>
