<svg width="403" height="211" viewBox="0 0 403 211" fill="none" xmlns="http://www.w3.org/2000/svg">
<path d="M287.5 79C288.328 79 289 78.3284 289 77.5C289 76.6716 288.328 76 287.5 76C286.672 76 286 76.6716 286 77.5C286 78.3284 286.672 79 287.5 79Z" fill="white"/>
<path d="M113.5 90C114.328 90 115 89.3284 115 88.5C115 87.6716 114.328 87 113.5 87C112.672 87 112 87.6716 112 88.5C112 89.3284 112.672 90 113.5 90Z" fill="white"/>
<path d="M70.5 3C71.3284 3 72 2.32843 72 1.5C72 0.671573 71.3284 0 70.5 0C69.6716 0 69 0.671573 69 1.5C69 2.32843 69.6716 3 70.5 3Z" fill="white"/>
<path d="M1 16C1.55229 16 2 15.5523 2 15C2 14.4477 1.55229 14 1 14C0.447717 14 0 14.4477 0 15C0 15.5523 0.447717 16 1 16Z" fill="white"/>
<path d="M12 75C12.5523 75 13 74.5523 13 74C13 73.4477 12.5523 73 12 73C11.4477 73 11 73.4477 11 74C11 74.5523 11.4477 75 12 75Z" fill="white"/>
<path d="M5 178C6.10457 178 7 177.105 7 176C7 174.895 6.10457 174 5 174C3.89543 174 3 174.895 3 176C3 177.105 3.89543 178 5 178Z" fill="white"/>
<path d="M78 211C78.5523 211 79 210.552 79 210C79 209.448 78.5523 209 78 209C77.4477 209 77 209.448 77 210C77 210.552 77.4477 211 78 211Z" fill="white"/>
<path d="M176.5 10C178.433 10 180 8.433 180 6.5C180 4.567 178.433 3 176.5 3C174.567 3 173 4.567 173 6.5C173 8.433 174.567 10 176.5 10Z" fill="white"/>
<path d="M334.5 170C335.328 170 336 169.328 336 168.5C336 167.672 335.328 167 334.5 167C333.672 167 333 167.672 333 168.5C333 169.328 333.672 170 334.5 170Z" fill="white"/>
<path d="M401 187C402.105 187 403 186.105 403 185C403 183.895 402.105 183 401 183C399.895 183 399 183.895 399 185C399 186.105 399.895 187 401 187Z" fill="white"/>
<path d="M384 84C385.105 84 386 83.1046 386 82C386 80.8954 385.105 80 384 80C382.895 80 382 80.8954 382 82C382 83.1046 382.895 84 384 84Z" fill="white"/>
<path d="M390 15C391.105 15 392 14.1046 392 13C392 11.8954 391.105 11 390 11C388.895 11 388 11.8954 388 13C388 14.1046 388.895 15 390 15Z" fill="white"/>
</svg>
