<svg width="900" height="900" viewBox="0 0 900 900" fill="none" xmlns="http://www.w3.org/2000/svg">
<rect width="900" height="900" fill="#161616"/>
<path d="M536.4 424.3C537.229 424.3 537.9 423.628 537.9 422.8C537.9 421.972 537.229 421.3 536.4 421.3C535.572 421.3 534.9 421.972 534.9 422.8C534.9 423.628 535.572 424.3 536.4 424.3Z" fill="white"/>
<path d="M362.1 434.9C362.984 434.9 363.7 434.184 363.7 433.3C363.7 432.416 362.984 431.7 362.1 431.7C361.216 431.7 360.5 432.416 360.5 433.3C360.5 434.184 361.216 434.9 362.1 434.9Z" fill="white"/>
<path d="M319.9 348.4C320.839 348.4 321.6 347.639 321.6 346.7C321.6 345.761 320.839 345 319.9 345C318.961 345 318.2 345.761 318.2 346.7C318.2 347.639 318.961 348.4 319.9 348.4Z" fill="white"/>
<path d="M249.9 361.1C250.397 361.1 250.8 360.697 250.8 360.2C250.8 359.703 250.397 359.3 249.9 359.3C249.403 359.3 249 359.703 249 360.2C249 360.697 249.403 361.1 249.9 361.1Z" fill="white"/>
<path d="M260.6 419.8C261.208 419.8 261.7 419.307 261.7 418.7C261.7 418.092 261.208 417.6 260.6 417.6C259.992 417.6 259.5 418.092 259.5 418.7C259.5 419.307 259.992 419.8 260.6 419.8Z" fill="white"/>
<path d="M254.2 522.7C255.305 522.7 256.2 521.805 256.2 520.7C256.2 519.595 255.305 518.7 254.2 518.7C253.096 518.7 252.2 519.595 252.2 520.7C252.2 521.805 253.096 522.7 254.2 522.7Z" fill="white"/>
<path d="M327 555.8C327.663 555.8 328.2 555.263 328.2 554.6C328.2 553.937 327.663 553.4 327 553.4C326.337 553.4 325.8 553.937 325.8 554.6C325.8 555.263 326.337 555.8 327 555.8Z" fill="white"/>
<path d="M425.3 354.9C427.288 354.9 428.9 353.288 428.9 351.3C428.9 349.312 427.288 347.7 425.3 347.7C423.312 347.7 421.7 349.312 421.7 351.3C421.7 353.288 423.312 354.9 425.3 354.9Z" fill="white"/>
<path d="M582.9 515.1C583.839 515.1 584.6 514.339 584.6 513.4C584.6 512.461 583.839 511.7 582.9 511.7C581.961 511.7 581.2 512.461 581.2 513.4C581.2 514.339 581.961 515.1 582.9 515.1Z" fill="white"/>
<path d="M649.4 532.1C650.615 532.1 651.6 531.115 651.6 529.9C651.6 528.685 650.615 527.7 649.4 527.7C648.185 527.7 647.2 528.685 647.2 529.9C647.2 531.115 648.185 532.1 649.4 532.1Z" fill="white"/>
<path d="M632.1 429.1C633.15 429.1 634 428.249 634 427.2C634 426.151 633.15 425.3 632.1 425.3C631.051 425.3 630.2 426.151 630.2 427.2C630.2 428.249 631.051 429.1 632.1 429.1Z" fill="white"/>
<path d="M638.9 360.3C640.115 360.3 641.1 359.315 641.1 358.1C641.1 356.885 640.115 355.9 638.9 355.9C637.685 355.9 636.7 356.885 636.7 358.1C636.7 359.315 637.685 360.3 638.9 360.3Z" fill="white"/>
</svg>
